<svg width="174" height="471" viewBox="0 0 174 471" fill="none" xmlns="http://www.w3.org/2000/svg"><path fill-rule="evenodd" clip-rule="evenodd" d="M150.996 86.226c56.98 74.491 5.735 335.148-127.448 379.353-154.601 51.31-227.455-292.526-216.467-373.306C-181.934 11.49-160.787 4.86-72.039 58.18c88.75 53.323 166.055-46.448 223.035 28.045z" fill="#5F9F84"/><mask id="a" maskUnits="userSpaceOnUse" x="-11" y="0" width="168" height="208"><path fill-rule="evenodd" clip-rule="evenodd" d="M-10.186 116.109C-15.375 75.712 60.816-11.149 120.602 1.189c69.402 14.322 21.771 159.441 0 187.426-21.77 27.983-31.178 25.879-52.948-13.466-21.769-39.345-72.65-18.643-77.84-59.04z" fill="#fff"/></mask><g mask="url(#a)" fill-rule="evenodd" clip-rule="evenodd" fill="#fff"><path d="M8.946.038c0 1.643-2.014 2.977-3.663 2.977A2.981 2.981 0 0 1 2.3.038c0-1.644 1.337-4.023 2.984-4.023 1.649 0 3.663 2.379 3.663 4.023zm13.754 0c0 1.643-2.015 2.977-3.664 2.977A2.98 2.98 0 0 1 16.052.038c0-1.644 1.336-4.023 2.984-4.023 1.65 0 3.664 2.379 3.664 4.023zm13.754 0c0 1.643-2.016 2.977-3.663 2.977A2.98 2.98 0 0 1 29.807.038c0-1.644 1.335-4.023 2.984-4.023 1.647 0 3.663 2.379 3.663 4.023zm13.754 0c0 1.643-2.016 2.977-3.664 2.977A2.98 2.98 0 0 1 43.56.038c0-1.644 1.336-4.023 2.984-4.023s3.664 2.379 3.664 4.023zm13.752 0c0 1.643-2.015 2.977-3.664 2.977A2.981 2.981 0 0 1 57.312.038c0-1.644 1.337-4.023 2.984-4.023 1.649 0 3.663 2.379 3.663 4.023zm13.753 0c0 1.643-2.015 2.977-3.664 2.977A2.981 2.981 0 0 1 71.065.038c0-1.644 1.337-4.023 2.984-4.023 1.649 0 3.664 2.379 3.664 4.023zm13.754 0c0 1.643-2.016 2.977-3.663 2.977A2.98 2.98 0 0 1 84.82.038c0-1.644 1.335-4.023 2.984-4.023 1.647 0 3.663 2.379 3.663 4.023zm41.26 0c0 1.643-2.015 2.977-3.663 2.977A2.98 2.98 0 0 1 126.08.038c0-1.644 1.336-4.023 2.984-4.023s3.663 2.379 3.663 4.023zm13.753 0c0 1.643-2.016 2.977-3.663 2.977a2.98 2.98 0 0 1-2.984-2.977c0-1.644 1.335-4.023 2.984-4.023 1.647 0 3.663 2.379 3.663 4.023zm13.753 0c0 1.643-2.014 2.977-3.663 2.977a2.98 2.98 0 0 1-2.984-2.977c0-1.644 1.335-4.023 2.984-4.023s3.663 2.379 3.663 4.023zM8.946 12.637c0 1.643-2.014 2.976-3.663 2.976A2.981 2.981 0 0 1 2.3 12.637c0-1.645 1.337-4.023 2.984-4.023 1.649 0 3.663 2.378 3.663 4.023zm13.754 0c0 1.643-2.015 2.976-3.664 2.976a2.98 2.98 0 0 1-2.984-2.976c0-1.645 1.336-4.023 2.984-4.023 1.65 0 3.664 2.378 3.664 4.023zm13.754 0c0 1.643-2.016 2.976-3.663 2.976a2.98 2.98 0 0 1-2.984-2.976c0-1.645 1.335-4.023 2.984-4.023 1.647 0 3.663 2.378 3.663 4.023zm13.754 0c0 1.643-2.016 2.976-3.664 2.976a2.98 2.98 0 0 1-2.984-2.976c0-1.645 1.336-4.023 2.984-4.023s3.664 2.378 3.664 4.023zm27.505 0c0 1.643-2.015 2.976-3.664 2.976a2.981 2.981 0 0 1-2.984-2.976c0-1.645 1.337-4.023 2.984-4.023 1.649 0 3.664 2.378 3.664 4.023zm13.754 0c0 1.643-2.016 2.976-3.663 2.976a2.98 2.98 0 0 1-2.984-2.976c0-1.645 1.335-4.023 2.984-4.023 1.647 0 3.663 2.378 3.663 4.023zm13.753 0c0 1.643-2.016 2.976-3.663 2.976a2.98 2.98 0 0 1-2.984-2.976c0-1.645 1.336-4.023 2.984-4.023 1.647 0 3.663 2.378 3.663 4.023zm13.754 0c0 1.643-2.016 2.976-3.663 2.976a2.981 2.981 0 0 1-2.985-2.976c0-1.645 1.336-4.023 2.985-4.023 1.647 0 3.663 2.378 3.663 4.023zm13.753 0c0 1.643-2.015 2.976-3.663 2.976a2.98 2.98 0 0 1-2.984-2.976c0-1.645 1.336-4.023 2.984-4.023s3.663 2.378 3.663 4.023zm27.506 0c0 1.643-2.014 2.976-3.663 2.976a2.98 2.98 0 0 1-2.984-2.976c0-1.645 1.335-4.023 2.984-4.023s3.663 2.378 3.663 4.023zM8.946 25.237c0 1.643-2.014 2.976-3.663 2.976A2.981 2.981 0 0 1 2.3 25.237c0-1.645 1.337-4.023 2.984-4.023 1.649 0 3.663 2.378 3.663 4.023zm13.754 0c0 1.643-2.015 2.976-3.664 2.976a2.98 2.98 0 0 1-2.984-2.976c0-1.645 1.336-4.023 2.984-4.023 1.65 0 3.664 2.378 3.664 4.023zm13.754 0c0 1.643-2.016 2.976-3.663 2.976a2.98 2.98 0 0 1-2.984-2.976c0-1.645 1.335-4.023 2.984-4.023 1.647 0 3.663 2.378 3.663 4.023zm27.506 0c0 1.643-2.015 2.976-3.664 2.976a2.981 2.981 0 0 1-2.984-2.976c0-1.645 1.337-4.023 2.984-4.023 1.649 0 3.663 2.378 3.663 4.023zm13.753 0c0 1.643-2.015 2.976-3.664 2.976a2.981 2.981 0 0 1-2.984-2.976c0-1.645 1.337-4.023 2.984-4.023 1.649 0 3.664 2.378 3.664 4.023zm13.754 0c0 1.643-2.016 2.976-3.663 2.976a2.98 2.98 0 0 1-2.984-2.976c0-1.645 1.335-4.023 2.984-4.023 1.647 0 3.663 2.378 3.663 4.023zm13.753 0c0 1.643-2.016 2.976-3.663 2.976a2.98 2.98 0 0 1-2.984-2.976c0-1.645 1.336-4.023 2.984-4.023 1.647 0 3.663 2.378 3.663 4.023zm13.754 0c0 1.643-2.016 2.976-3.663 2.976a2.981 2.981 0 0 1-2.985-2.976c0-1.645 1.336-4.023 2.985-4.023 1.647 0 3.663 2.378 3.663 4.023zm13.753 0c0 1.643-2.015 2.976-3.663 2.976a2.98 2.98 0 0 1-2.984-2.976c0-1.645 1.336-4.023 2.984-4.023s3.663 2.378 3.663 4.023zm13.753 0c0 1.643-2.016 2.976-3.663 2.976a2.98 2.98 0 0 1-2.984-2.976c0-1.645 1.335-4.023 2.984-4.023 1.647 0 3.663 2.378 3.663 4.023zm13.753 0c0 1.643-2.014 2.976-3.663 2.976a2.98 2.98 0 0 1-2.984-2.976c0-1.645 1.335-4.023 2.984-4.023s3.663 2.378 3.663 4.023zM8.946 37.837c0 1.643-2.014 2.976-3.663 2.976A2.981 2.981 0 0 1 2.3 37.837c0-1.645 1.337-4.023 2.984-4.023 1.649 0 3.663 2.378 3.663 4.023zm13.754-.002c0 1.643-2.015 2.977-3.664 2.977a2.98 2.98 0 0 1-2.984-2.977c0-1.644 1.336-4.023 2.984-4.023 1.65 0 3.664 2.379 3.664 4.023zm27.508 0c0 1.643-2.016 2.977-3.664 2.977a2.98 2.98 0 0 1-2.984-2.977c0-1.644 1.336-4.023 2.984-4.023s3.664 2.379 3.664 4.023zm13.752 0c0 1.643-2.015 2.977-3.664 2.977a2.981 2.981 0 0 1-2.984-2.977c0-1.644 1.337-4.023 2.984-4.023 1.649 0 3.663 2.379 3.663 4.023zm13.753 0c0 1.643-2.015 2.977-3.664 2.977a2.981 2.981 0 0 1-2.984-2.977c0-1.644 1.337-4.023 2.984-4.023 1.649 0 3.664 2.379 3.664 4.023zm13.754 0c0 1.643-2.016 2.977-3.663 2.977a2.98 2.98 0 0 1-2.984-2.977c0-1.644 1.335-4.023 2.984-4.023 1.647 0 3.663 2.379 3.663 4.023zm13.753 0c0 1.643-2.016 2.977-3.663 2.977a2.98 2.98 0 0 1-2.984-2.977c0-1.644 1.336-4.023 2.984-4.023 1.647 0 3.663 2.379 3.663 4.023zm13.754 0c0 1.643-2.016 2.977-3.663 2.977a2.981 2.981 0 0 1-2.985-2.977c0-1.644 1.336-4.023 2.985-4.023 1.647 0 3.663 2.379 3.663 4.023zm13.753 0c0 1.643-2.015 2.977-3.663 2.977a2.98 2.98 0 0 1-2.984-2.977c0-1.644 1.336-4.023 2.984-4.023s3.663 2.379 3.663 4.023zm13.753 0c0 1.643-2.016 2.977-3.663 2.977a2.98 2.98 0 0 1-2.984-2.977c0-1.644 1.335-4.023 2.984-4.023 1.647 0 3.663 2.379 3.663 4.023zM8.946 50.434c0 1.644-2.014 2.976-3.663 2.976A2.98 2.98 0 0 1 2.3 50.434c0-1.645 1.337-4.023 2.984-4.023 1.649 0 3.663 2.378 3.663 4.023zm27.508 0c0 1.644-2.016 2.976-3.663 2.976a2.98 2.98 0 0 1-2.984-2.976c0-1.645 1.335-4.023 2.984-4.023 1.647 0 3.663 2.378 3.663 4.023zm13.754 0c0 1.644-2.016 2.976-3.664 2.976a2.98 2.98 0 0 1-2.984-2.976c0-1.645 1.336-4.023 2.984-4.023s3.664 2.378 3.664 4.023zm13.752 0c0 1.644-2.015 2.976-3.664 2.976a2.98 2.98 0 0 1-2.984-2.976c0-1.645 1.337-4.023 2.984-4.023 1.649 0 3.663 2.378 3.663 4.023zm13.753 0c0 1.644-2.015 2.976-3.664 2.976a2.98 2.98 0 0 1-2.984-2.976c0-1.645 1.337-4.023 2.984-4.023 1.649 0 3.664 2.378 3.664 4.023zm13.754 0c0 1.644-2.016 2.976-3.663 2.976a2.98 2.98 0 0 1-2.984-2.976c0-1.645 1.335-4.023 2.984-4.023 1.647 0 3.663 2.378 3.663 4.023zm13.753.001c0 1.645-2.016 2.977-3.663 2.977a2.98 2.98 0 0 1-2.984-2.977c0-1.644 1.336-4.023 2.984-4.023 1.647 0 3.663 2.379 3.663 4.023zm13.754-.001c0 1.644-2.015 2.976-3.663 2.976a2.98 2.98 0 0 1-2.985-2.976c0-1.645 1.336-4.023 2.985-4.023 1.648 0 3.663 2.378 3.663 4.023zm13.753 0c0 1.644-2.015 2.976-3.663 2.976a2.98 2.98 0 0 1-2.984-2.976c0-1.645 1.336-4.023 2.984-4.023s3.663 2.378 3.663 4.023zm13.753 0c0 1.644-2.016 2.976-3.663 2.976a2.98 2.98 0 0 1-2.984-2.976c0-1.645 1.335-4.023 2.984-4.023 1.647 0 3.663 2.378 3.663 4.023zM8.946 63.034c0 1.644-2.014 2.976-3.663 2.976A2.98 2.98 0 0 1 2.3 63.034c0-1.645 1.337-4.023 2.984-4.023 1.649 0 3.663 2.378 3.663 4.023zm13.754 0c0 1.644-2.015 2.976-3.664 2.976a2.98 2.98 0 0 1-2.984-2.976c0-1.645 1.336-4.023 2.984-4.023 1.65 0 3.664 2.378 3.664 4.023zm13.754 0c0 1.644-2.016 2.976-3.663 2.976a2.98 2.98 0 0 1-2.984-2.976c0-1.645 1.335-4.023 2.984-4.023 1.647 0 3.663 2.378 3.663 4.023zm13.754.001c0 1.645-2.016 2.977-3.664 2.977a2.98 2.98 0 0 1-2.984-2.977c0-1.644 1.336-4.023 2.984-4.023s3.664 2.379 3.664 4.023zm13.752-.001c0 1.644-2.015 2.976-3.664 2.976a2.98 2.98 0 0 1-2.984-2.976c0-1.645 1.337-4.023 2.984-4.023 1.649 0 3.663 2.378 3.663 4.023zm13.753 0c0 1.644-2.015 2.976-3.664 2.976a2.98 2.98 0 0 1-2.984-2.976c0-1.645 1.337-4.023 2.984-4.023 1.649 0 3.664 2.378 3.664 4.023zm13.754.001c0 1.645-2.016 2.977-3.663 2.977a2.98 2.98 0 0 1-2.984-2.977c0-1.644 1.335-4.023 2.984-4.023 1.647 0 3.663 2.379 3.663 4.023zm13.753 0c0 1.645-2.016 2.977-3.663 2.977a2.98 2.98 0 0 1-2.984-2.977c0-1.644 1.336-4.023 2.984-4.023 1.647 0 3.663 2.379 3.663 4.023zm13.754-.001c0 1.644-2.016 2.976-3.663 2.976a2.98 2.98 0 0 1-2.985-2.976c0-1.645 1.336-4.023 2.985-4.023 1.647 0 3.663 2.378 3.663 4.023zm13.753.001c0 1.645-2.015 2.977-3.663 2.977a2.98 2.98 0 0 1-2.984-2.977c0-1.644 1.336-4.023 2.984-4.023s3.663 2.379 3.663 4.023zm13.753 0c0 1.645-2.016 2.977-3.663 2.977a2.98 2.98 0 0 1-2.984-2.977c0-1.644 1.335-4.023 2.984-4.023 1.647 0 3.663 2.379 3.663 4.023zM8.946 75.632c0 1.645-2.016 2.977-3.663 2.977A2.98 2.98 0 0 1 2.3 75.632c0-1.642 1.336-4.023 2.984-4.023 1.647 0 3.663 2.38 3.663 4.023zm13.754 0c0 1.645-2.015 2.977-3.664 2.977a2.98 2.98 0 0 1-2.984-2.977c0-1.642 1.336-4.023 2.984-4.023 1.65 0 3.664 2.38 3.664 4.023zm13.754 0c0 1.645-2.016 2.977-3.663 2.977a2.98 2.98 0 0 1-2.984-2.977c0-1.642 1.335-4.023 2.984-4.023 1.647 0 3.663 2.38 3.663 4.023zm13.754 0c0 1.645-2.016 2.977-3.664 2.977a2.98 2.98 0 0 1-2.984-2.977c0-1.642 1.336-4.023 2.984-4.023s3.664 2.38 3.664 4.023zm13.752 0c0 1.645-2.015 2.977-3.664 2.977a2.98 2.98 0 0 1-2.984-2.977c0-1.642 1.337-4.023 2.984-4.023 1.649 0 3.663 2.38 3.663 4.023zm13.753 0c0 1.645-2.015 2.977-3.664 2.977a2.98 2.98 0 0 1-2.984-2.977c0-1.642 1.337-4.023 2.984-4.023 1.649 0 3.664 2.38 3.664 4.023zm13.754 0c0 1.645-2.016 2.977-3.663 2.977a2.98 2.98 0 0 1-2.984-2.977c0-1.642 1.335-4.023 2.984-4.023 1.647 0 3.663 2.38 3.663 4.023zm13.753 0c0 1.645-2.016 2.977-3.663 2.977a2.98 2.98 0 0 1-2.984-2.977c0-1.642 1.336-4.023 2.984-4.023 1.647 0 3.663 2.38 3.663 4.023zm13.754 0c0 1.645-2.015 2.977-3.663 2.977a2.98 2.98 0 0 1-2.985-2.977c0-1.642 1.336-4.023 2.985-4.023 1.648 0 3.663 2.38 3.663 4.023zm13.753 0c0 1.645-2.015 2.977-3.663 2.977a2.98 2.98 0 0 1-2.984-2.977c0-1.642 1.336-4.023 2.984-4.023s3.663 2.38 3.663 4.023zm13.753 0c0 1.645-2.016 2.977-3.663 2.977a2.98 2.98 0 0 1-2.984-2.977c0-1.642 1.335-4.023 2.984-4.023 1.647 0 3.663 2.38 3.663 4.023zM8.946 88.233c0 1.644-2.016 2.976-3.663 2.976A2.98 2.98 0 0 1 2.3 88.232c0-1.642 1.336-4.022 2.984-4.022 1.647 0 3.663 2.38 3.663 4.023zm13.754 0c0 1.644-2.015 2.976-3.664 2.976a2.98 2.98 0 0 1-2.984-2.977c0-1.642 1.336-4.022 2.984-4.022 1.65 0 3.664 2.38 3.664 4.023zm13.754 0c0 1.644-2.016 2.976-3.663 2.976a2.98 2.98 0 0 1-2.984-2.977c0-1.642 1.335-4.022 2.984-4.022 1.647 0 3.663 2.38 3.663 4.023zm13.754 0c0 1.644-2.016 2.976-3.664 2.976a2.98 2.98 0 0 1-2.984-2.977c0-1.642 1.336-4.022 2.984-4.022s3.664 2.38 3.664 4.023zm13.752 0c0 1.644-2.015 2.976-3.664 2.976a2.98 2.98 0 0 1-2.984-2.977c0-1.642 1.337-4.022 2.984-4.022 1.649 0 3.663 2.38 3.663 4.023zm13.754 0c0 1.644-2.016 2.976-3.663 2.976a2.98 2.98 0 0 1-2.984-2.977c0-1.642 1.335-4.022 2.984-4.022 1.647 0 3.663 2.38 3.663 4.023zm13.753 0c0 1.644-2.016 2.976-3.663 2.976a2.98 2.98 0 0 1-2.984-2.977c0-1.642 1.335-4.022 2.984-4.022 1.647 0 3.663 2.38 3.663 4.023zm13.753 0c0 1.644-2.016 2.976-3.663 2.976a2.98 2.98 0 0 1-2.984-2.977c0-1.642 1.336-4.022 2.984-4.022 1.647 0 3.663 2.38 3.663 4.023zm13.754 0c0 1.644-2.015 2.976-3.663 2.976a2.98 2.98 0 0 1-2.985-2.977c0-1.642 1.336-4.022 2.985-4.022 1.648 0 3.663 2.38 3.663 4.023zm13.753 0c0 1.644-2.015 2.976-3.663 2.976a2.98 2.98 0 0 1-2.984-2.977c0-1.642 1.336-4.022 2.984-4.022s3.663 2.38 3.663 4.023zm13.753 0c0 1.644-2.016 2.976-3.663 2.976a2.98 2.98 0 0 1-2.984-2.977c0-1.642 1.335-4.022 2.984-4.022 1.647 0 3.663 2.38 3.663 4.023zM8.946 100.831c0 1.644-2.014 2.976-3.663 2.976a2.98 2.98 0 0 1-2.984-2.976c0-1.643 1.337-4.023 2.984-4.023 1.649 0 3.663 2.38 3.663 4.023zm13.754 0c0 1.644-2.015 2.976-3.664 2.976a2.98 2.98 0 0 1-2.984-2.976c0-1.643 1.336-4.023 2.984-4.023 1.65 0 3.664 2.38 3.664 4.023zm13.754 0c0 1.644-2.016 2.976-3.663 2.976a2.98 2.98 0 0 1-2.984-2.976c0-1.643 1.335-4.023 2.984-4.023 1.647 0 3.663 2.38 3.663 4.023zm13.754 0c0 1.644-2.016 2.976-3.664 2.976a2.98 2.98 0 0 1-2.984-2.976c0-1.643 1.336-4.023 2.984-4.023s3.664 2.38 3.664 4.023zm13.752 0c0 1.644-2.015 2.976-3.664 2.976a2.98 2.98 0 0 1-2.984-2.976c0-1.643 1.337-4.023 2.984-4.023 1.649 0 3.663 2.38 3.663 4.023zm13.754 0c0 1.644-2.016 2.976-3.663 2.976a2.98 2.98 0 0 1-2.984-2.976c0-1.643 1.335-4.023 2.984-4.023 1.647 0 3.663 2.38 3.663 4.023zm13.753 0c0 1.644-2.016 2.976-3.663 2.976a2.98 2.98 0 0 1-2.984-2.976c0-1.643 1.335-4.023 2.984-4.023 1.647 0 3.663 2.38 3.663 4.023zm13.753 0c0 1.644-2.016 2.976-3.663 2.976a2.98 2.98 0 0 1-2.984-2.976c0-1.643 1.336-4.023 2.984-4.023 1.647 0 3.663 2.38 3.663 4.023zm13.754 0c0 1.644-2.015 2.976-3.663 2.976a2.98 2.98 0 0 1-2.985-2.976c0-1.643 1.336-4.023 2.985-4.023 1.648 0 3.663 2.38 3.663 4.023zm13.753 0c0 1.644-2.015 2.976-3.663 2.976a2.98 2.98 0 0 1-2.984-2.976c0-1.643 1.336-4.023 2.984-4.023s3.663 2.38 3.663 4.023zm13.753 0c0 1.644-2.016 2.976-3.663 2.976a2.98 2.98 0 0 1-2.984-2.976c0-1.643 1.335-4.023 2.984-4.023 1.647 0 3.663 2.38 3.663 4.023zm13.753 0c0 1.644-2.014 2.976-3.663 2.976a2.98 2.98 0 0 1-2.984-2.976c0-1.643 1.335-4.023 2.984-4.023s3.663 2.38 3.663 4.023zm-151.287 12.6c0 1.644-2.014 2.976-3.663 2.976a2.98 2.98 0 0 1-2.984-2.976c0-1.643 1.337-4.023 2.984-4.023 1.649 0 3.663 2.38 3.663 4.023zm13.754 0c0 1.644-2.015 2.976-3.664 2.976a2.98 2.98 0 0 1-2.984-2.976c0-1.643 1.336-4.023 2.984-4.023 1.65 0 3.664 2.38 3.664 4.023zm13.754 0c0 1.644-2.016 2.976-3.663 2.976a2.98 2.98 0 0 1-2.984-2.976c0-1.643 1.335-4.023 2.984-4.023 1.647 0 3.663 2.38 3.663 4.023zm13.754 0c0 1.644-2.016 2.976-3.664 2.976a2.98 2.98 0 0 1-2.984-2.976c0-1.643 1.336-4.023 2.984-4.023s3.664 2.38 3.664 4.023zm13.752 0c0 1.644-2.015 2.976-3.664 2.976a2.98 2.98 0 0 1-2.984-2.976c0-1.643 1.337-4.023 2.984-4.023 1.649 0 3.663 2.38 3.663 4.023zm13.754 0c0 1.644-2.016 2.976-3.663 2.976a2.98 2.98 0 0 1-2.984-2.976c0-1.643 1.335-4.023 2.984-4.023 1.647 0 3.663 2.38 3.663 4.023zm13.753 0c0 1.644-2.016 2.976-3.663 2.976a2.98 2.98 0 0 1-2.984-2.976c0-1.643 1.335-4.023 2.984-4.023 1.647 0 3.663 2.38 3.663 4.023zm13.753 0c0 1.644-2.016 2.976-3.663 2.976a2.98 2.98 0 0 1-2.984-2.976c0-1.643 1.336-4.023 2.984-4.023 1.647 0 3.663 2.38 3.663 4.023zm13.754 0c0 1.644-2.015 2.976-3.663 2.976a2.98 2.98 0 0 1-2.985-2.976c0-1.643 1.336-4.023 2.985-4.023 1.648 0 3.663 2.38 3.663 4.023zm13.753 0c0 1.644-2.015 2.976-3.663 2.976a2.98 2.98 0 0 1-2.984-2.976c0-1.643 1.336-4.023 2.984-4.023s3.663 2.38 3.663 4.023zm13.753 0c0 1.644-2.016 2.976-3.663 2.976a2.98 2.98 0 0 1-2.984-2.976c0-1.643 1.335-4.023 2.984-4.023 1.647 0 3.663 2.38 3.663 4.023zm13.753 0c0 1.644-2.014 2.976-3.663 2.976a2.98 2.98 0 0 1-2.984-2.976c0-1.643 1.335-4.023 2.984-4.023s3.663 2.38 3.663 4.023zM8.946 126.03c0 1.644-2.016 2.976-3.663 2.976A2.98 2.98 0 0 1 2.3 126.03c0-1.643 1.336-4.023 2.984-4.023 1.647 0 3.663 2.38 3.663 4.023zm13.754 0c0 1.644-2.015 2.976-3.664 2.976a2.98 2.98 0 0 1-2.984-2.976c0-1.643 1.336-4.023 2.984-4.023 1.65 0 3.664 2.38 3.664 4.023zm13.754 0c0 1.644-2.016 2.976-3.663 2.976a2.98 2.98 0 0 1-2.984-2.976c0-1.643 1.335-4.023 2.984-4.023 1.647 0 3.663 2.38 3.663 4.023zm13.754 0c0 1.644-2.016 2.976-3.664 2.976a2.98 2.98 0 0 1-2.984-2.976c0-1.643 1.336-4.023 2.984-4.023s3.664 2.38 3.664 4.023zm13.752 0c0 1.644-2.015 2.976-3.664 2.976a2.98 2.98 0 0 1-2.984-2.976c0-1.643 1.337-4.023 2.984-4.023 1.649 0 3.663 2.38 3.663 4.023zm13.754 0c0 1.644-2.016 2.976-3.663 2.976a2.98 2.98 0 0 1-2.984-2.976c0-1.643 1.335-4.023 2.984-4.023 1.647 0 3.663 2.38 3.663 4.023zm13.753 0c0 1.644-2.016 2.976-3.663 2.976a2.98 2.98 0 0 1-2.984-2.976c0-1.643 1.335-4.023 2.984-4.023 1.647 0 3.663 2.38 3.663 4.023zm13.753 0c0 1.644-2.016 2.976-3.663 2.976a2.98 2.98 0 0 1-2.984-2.976c0-1.643 1.336-4.023 2.984-4.023 1.647 0 3.663 2.38 3.663 4.023zm13.754 0c0 1.644-2.015 2.976-3.663 2.976a2.98 2.98 0 0 1-2.985-2.976c0-1.643 1.336-4.023 2.985-4.023 1.648 0 3.663 2.38 3.663 4.023zm13.753 0c0 1.644-2.015 2.976-3.663 2.976a2.98 2.98 0 0 1-2.984-2.976c0-1.643 1.336-4.023 2.984-4.023s3.663 2.38 3.663 4.023zm13.753 0c0 1.644-2.016 2.976-3.663 2.976a2.98 2.98 0 0 1-2.984-2.976c0-1.643 1.335-4.023 2.984-4.023 1.647 0 3.663 2.38 3.663 4.023zm13.753 0c0 1.644-2.014 2.976-3.663 2.976a2.98 2.98 0 0 1-2.984-2.976c0-1.643 1.335-4.023 2.984-4.023s3.663 2.38 3.663 4.023zM22.7 138.63c0 1.644-2.015 2.976-3.664 2.976a2.98 2.98 0 0 1-2.984-2.976c0-1.643 1.336-4.023 2.984-4.023 1.65 0 3.664 2.38 3.664 4.023zm13.754 0c0 1.644-2.016 2.976-3.663 2.976a2.98 2.98 0 0 1-2.984-2.976c0-1.643 1.335-4.023 2.984-4.023 1.647 0 3.663 2.38 3.663 4.023zm13.754 0c0 1.644-2.016 2.976-3.664 2.976a2.98 2.98 0 0 1-2.984-2.976c0-1.643 1.336-4.023 2.984-4.023s3.664 2.38 3.664 4.023zm13.752 0c0 1.644-2.015 2.976-3.664 2.976a2.98 2.98 0 0 1-2.984-2.976c0-1.643 1.337-4.023 2.984-4.023 1.649 0 3.663 2.38 3.663 4.023zm13.754 0c0 1.644-2.016 2.976-3.663 2.976a2.98 2.98 0 0 1-2.984-2.976c0-1.643 1.335-4.023 2.984-4.023 1.647 0 3.663 2.38 3.663 4.023zm13.753 0c0 1.644-2.016 2.976-3.663 2.976a2.98 2.98 0 0 1-2.984-2.976c0-1.643 1.335-4.023 2.984-4.023 1.647 0 3.663 2.38 3.663 4.023zm13.753 0c0 1.644-2.016 2.976-3.663 2.976a2.98 2.98 0 0 1-2.984-2.976c0-1.643 1.336-4.023 2.984-4.023 1.647 0 3.663 2.38 3.663 4.023zm13.754 0c0 1.644-2.015 2.976-3.663 2.976a2.98 2.98 0 0 1-2.985-2.976c0-1.643 1.336-4.023 2.985-4.023 1.648 0 3.663 2.38 3.663 4.023zm13.753 0c0 1.644-2.015 2.976-3.663 2.976a2.98 2.98 0 0 1-2.984-2.976c0-1.643 1.336-4.023 2.984-4.023s3.663 2.38 3.663 4.023zm27.506 0c0 1.644-2.014 2.976-3.663 2.976a2.98 2.98 0 0 1-2.984-2.976c0-1.643 1.335-4.023 2.984-4.023s3.663 2.38 3.663 4.023zM8.946 151.228c0 1.645-2.014 2.977-3.663 2.977a2.98 2.98 0 0 1-2.984-2.977c0-1.643 1.337-4.023 2.984-4.023 1.649 0 3.663 2.38 3.663 4.023zm13.754 0c0 1.645-2.015 2.977-3.664 2.977a2.98 2.98 0 0 1-2.984-2.977c0-1.643 1.336-4.023 2.984-4.023 1.65 0 3.664 2.38 3.664 4.023zm27.508 0c0 1.645-2.016 2.977-3.664 2.977a2.98 2.98 0 0 1-2.984-2.977c0-1.643 1.336-4.023 2.984-4.023s3.664 2.38 3.664 4.023zm13.752 0c0 1.645-2.015 2.977-3.664 2.977a2.98 2.98 0 0 1-2.984-2.977c0-1.643 1.337-4.023 2.984-4.023 1.649 0 3.663 2.38 3.663 4.023zm13.754 0c0 1.645-2.016 2.977-3.663 2.977a2.98 2.98 0 0 1-2.984-2.977c0-1.643 1.335-4.023 2.984-4.023 1.647 0 3.663 2.38 3.663 4.023zm13.753 0c0 1.645-2.016 2.977-3.663 2.977a2.98 2.98 0 0 1-2.984-2.977c0-1.643 1.335-4.023 2.984-4.023 1.647 0 3.663 2.38 3.663 4.023zm13.753 0c0 1.645-2.016 2.977-3.663 2.977a2.98 2.98 0 0 1-2.984-2.977c0-1.643 1.336-4.023 2.984-4.023 1.647 0 3.663 2.38 3.663 4.023zm13.754 0c0 1.645-2.016 2.977-3.663 2.977a2.98 2.98 0 0 1-2.985-2.977c0-1.643 1.336-4.023 2.985-4.023 1.647 0 3.663 2.38 3.663 4.023zm13.753 0c0 1.645-2.015 2.977-3.663 2.977a2.98 2.98 0 0 1-2.984-2.977c0-1.643 1.336-4.023 2.984-4.023s3.663 2.38 3.663 4.023zm13.753 0c0 1.645-2.016 2.977-3.663 2.977a2.98 2.98 0 0 1-2.984-2.977c0-1.643 1.335-4.023 2.984-4.023 1.647 0 3.663 2.38 3.663 4.023zm13.753 0c0 1.645-2.014 2.977-3.663 2.977a2.98 2.98 0 0 1-2.984-2.977c0-1.643 1.335-4.023 2.984-4.023s3.663 2.38 3.663 4.023zm-151.287 12.6c0 1.645-2.014 2.977-3.663 2.977a2.98 2.98 0 0 1-2.984-2.977c0-1.643 1.337-4.023 2.984-4.023 1.649 0 3.663 2.38 3.663 4.023zm13.754 0c0 1.645-2.015 2.977-3.664 2.977a2.98 2.98 0 0 1-2.984-2.977c0-1.643 1.336-4.023 2.984-4.023 1.65 0 3.664 2.38 3.664 4.023zm13.754 0c0 1.645-2.016 2.977-3.663 2.977a2.98 2.98 0 0 1-2.984-2.977c0-1.643 1.335-4.023 2.984-4.023 1.647 0 3.663 2.38 3.663 4.023zm13.754 0c0 1.645-2.016 2.977-3.664 2.977a2.98 2.98 0 0 1-2.984-2.977c0-1.643 1.336-4.023 2.984-4.023s3.664 2.38 3.664 4.023zm27.506 0c0 1.645-2.016 2.977-3.663 2.977a2.98 2.98 0 0 1-2.984-2.977c0-1.643 1.335-4.023 2.984-4.023 1.647 0 3.663 2.38 3.663 4.023zm13.753 0c0 1.645-2.016 2.977-3.663 2.977a2.98 2.98 0 0 1-2.984-2.977c0-1.643 1.335-4.023 2.984-4.023 1.647 0 3.663 2.38 3.663 4.023zm13.753 0c0 1.645-2.016 2.977-3.663 2.977a2.98 2.98 0 0 1-2.984-2.977c0-1.643 1.336-4.023 2.984-4.023 1.647 0 3.663 2.38 3.663 4.023zm13.754 0c0 1.645-2.015 2.977-3.663 2.977a2.98 2.98 0 0 1-2.985-2.977c0-1.643 1.336-4.023 2.985-4.023 1.648 0 3.663 2.38 3.663 4.023zm13.753 0c0 1.645-2.015 2.977-3.663 2.977a2.98 2.98 0 0 1-2.984-2.977c0-1.643 1.336-4.023 2.984-4.023s3.663 2.38 3.663 4.023zm13.753 0c0 1.645-2.016 2.977-3.663 2.977a2.98 2.98 0 0 1-2.984-2.977c0-1.643 1.335-4.023 2.984-4.023 1.647 0 3.663 2.38 3.663 4.023zm13.753 0c0 1.645-2.014 2.977-3.663 2.977a2.98 2.98 0 0 1-2.984-2.977c0-1.643 1.335-4.023 2.984-4.023s3.663 2.38 3.663 4.023zm-151.287 12.6c0 1.643-2.014 2.977-3.663 2.977a2.982 2.982 0 0 1-2.984-2.977c0-1.644 1.337-4.024 2.984-4.024 1.649 0 3.663 2.38 3.663 4.024zm13.754 0c0 1.643-2.015 2.977-3.664 2.977a2.981 2.981 0 0 1-2.984-2.977c0-1.644 1.336-4.024 2.984-4.024 1.65 0 3.664 2.38 3.664 4.024zm13.754 0c0 1.643-2.016 2.977-3.663 2.977a2.98 2.98 0 0 1-2.984-2.977c0-1.644 1.335-4.024 2.984-4.024 1.647 0 3.663 2.38 3.663 4.024zm13.754 0c0 1.643-2.016 2.977-3.664 2.977a2.981 2.981 0 0 1-2.984-2.977c0-1.644 1.336-4.024 2.984-4.024s3.664 2.38 3.664 4.024zm13.752 0c0 1.643-2.015 2.977-3.664 2.977a2.982 2.982 0 0 1-2.984-2.977c0-1.644 1.337-4.024 2.984-4.024 1.649 0 3.663 2.38 3.663 4.024zm13.754 0c0 1.643-2.016 2.977-3.663 2.977a2.98 2.98 0 0 1-2.984-2.977c0-1.644 1.335-4.024 2.984-4.024 1.647 0 3.663 2.38 3.663 4.024zm13.753 0c0 1.643-2.016 2.977-3.663 2.977a2.981 2.981 0 0 1-2.984-2.977c0-1.644 1.335-4.024 2.984-4.024 1.647 0 3.663 2.38 3.663 4.024zm13.753 0c0 1.643-2.016 2.977-3.663 2.977a2.98 2.98 0 0 1-2.984-2.977c0-1.644 1.336-4.024 2.984-4.024 1.647 0 3.663 2.38 3.663 4.024zm13.754 0c0 1.643-2.015 2.977-3.663 2.977a2.981 2.981 0 0 1-2.985-2.977c0-1.644 1.336-4.024 2.985-4.024 1.648 0 3.663 2.38 3.663 4.024zm27.506 0c0 1.643-2.016 2.977-3.663 2.977a2.98 2.98 0 0 1-2.984-2.977c0-1.644 1.335-4.024 2.984-4.024 1.647 0 3.663 2.38 3.663 4.024zm13.753 0c0 1.643-2.014 2.977-3.663 2.977a2.98 2.98 0 0 1-2.984-2.977c0-1.644 1.335-4.024 2.984-4.024s3.663 2.38 3.663 4.024zm-151.287 12.6c0 1.643-2.014 2.977-3.663 2.977a2.982 2.982 0 0 1-2.984-2.977c0-1.644 1.337-4.024 2.984-4.024 1.649 0 3.663 2.38 3.663 4.024zm13.754 0c0 1.643-2.015 2.977-3.664 2.977a2.981 2.981 0 0 1-2.984-2.977c0-1.644 1.336-4.024 2.984-4.024 1.65 0 3.664 2.38 3.664 4.024zm13.754 0c0 1.643-2.016 2.977-3.663 2.977a2.98 2.98 0 0 1-2.984-2.977c0-1.644 1.335-4.024 2.984-4.024 1.647 0 3.663 2.38 3.663 4.024zm13.754 0c0 1.643-2.016 2.977-3.664 2.977a2.981 2.981 0 0 1-2.984-2.977c0-1.644 1.336-4.024 2.984-4.024s3.664 2.38 3.664 4.024zm13.752 0c0 1.643-2.015 2.977-3.664 2.977a2.982 2.982 0 0 1-2.984-2.977c0-1.644 1.337-4.024 2.984-4.024 1.649 0 3.663 2.38 3.663 4.024zm27.507 0c0 1.643-2.016 2.977-3.663 2.977a2.981 2.981 0 0 1-2.984-2.977c0-1.644 1.335-4.024 2.984-4.024 1.647 0 3.663 2.38 3.663 4.024zm13.753 0c0 1.643-2.016 2.977-3.663 2.977a2.98 2.98 0 0 1-2.984-2.977c0-1.644 1.336-4.024 2.984-4.024 1.647 0 3.663 2.38 3.663 4.024zm13.754 0c0 1.643-2.015 2.977-3.663 2.977a2.981 2.981 0 0 1-2.985-2.977c0-1.644 1.336-4.024 2.985-4.024 1.648 0 3.663 2.38 3.663 4.024zm13.753 0c0 1.643-2.015 2.977-3.663 2.977a2.981 2.981 0 0 1-2.984-2.977c0-1.644 1.336-4.024 2.984-4.024s3.663 2.38 3.663 4.024zm13.753 0c0 1.643-2.016 2.977-3.663 2.977a2.98 2.98 0 0 1-2.984-2.977c0-1.644 1.335-4.024 2.984-4.024 1.647 0 3.663 2.38 3.663 4.024zm13.753 0c0 1.643-2.014 2.977-3.663 2.977a2.98 2.98 0 0 1-2.984-2.977c0-1.644 1.335-4.024 2.984-4.024s3.663 2.38 3.663 4.024zM8.946 201.627c0 1.643-2.014 2.976-3.663 2.976a2.981 2.981 0 0 1-2.984-2.976c0-1.645 1.337-4.025 2.984-4.025 1.649 0 3.663 2.38 3.663 4.025zm13.754 0c0 1.643-2.015 2.976-3.664 2.976a2.98 2.98 0 0 1-2.984-2.976c0-1.645 1.336-4.025 2.984-4.025 1.65 0 3.664 2.38 3.664 4.025zm13.753 0c0 1.643-2.016 2.976-3.663 2.976a2.98 2.98 0 0 1-2.984-2.976c0-1.645 1.335-4.025 2.984-4.025 1.647 0 3.663 2.38 3.663 4.025zm13.755 0c0 1.643-2.016 2.976-3.664 2.976a2.98 2.98 0 0 1-2.984-2.976c0-1.645 1.336-4.025 2.984-4.025s3.664 2.38 3.664 4.025zm13.752 0c0 1.643-2.015 2.976-3.664 2.976a2.981 2.981 0 0 1-2.984-2.976c0-1.645 1.337-4.025 2.984-4.025 1.649 0 3.663 2.38 3.663 4.025zm13.754 0c0 1.643-2.016 2.976-3.663 2.976a2.98 2.98 0 0 1-2.984-2.976c0-1.645 1.335-4.025 2.984-4.025 1.647 0 3.663 2.38 3.663 4.025zm27.506 0c0 1.643-2.016 2.976-3.663 2.976a2.98 2.98 0 0 1-2.984-2.976c0-1.645 1.336-4.025 2.984-4.025 1.647 0 3.663 2.38 3.663 4.025zm13.754 0c0 1.643-2.016 2.976-3.663 2.976a2.98 2.98 0 0 1-2.985-2.976c0-1.645 1.336-4.025 2.985-4.025 1.647 0 3.663 2.38 3.663 4.025zm13.753 0c0 1.643-2.015 2.976-3.663 2.976a2.98 2.98 0 0 1-2.984-2.976c0-1.645 1.336-4.025 2.984-4.025s3.663 2.38 3.663 4.025zm13.753 0c0 1.643-2.016 2.976-3.663 2.976a2.98 2.98 0 0 1-2.984-2.976c0-1.645 1.335-4.025 2.984-4.025 1.647 0 3.663 2.38 3.663 4.025zm13.753 0c0 1.643-2.014 2.976-3.663 2.976a2.98 2.98 0 0 1-2.984-2.976c0-1.645 1.335-4.025 2.984-4.025s3.663 2.38 3.663 4.025z"/></g></svg>