<svg width="375" height="557" viewBox="0 0 375 557" fill="none" xmlns="http://www.w3.org/2000/svg"><path fill="#FFB42D" d="M0 18.705h375v538H0z"/><g opacity=".5"><mask id="a" maskUnits="userSpaceOnUse" x="-266" y="0" width="466" height="467"><path fill-rule="evenodd" clip-rule="evenodd" d="M-176.767 264.761c-84.072-32.323-17.759-91.834 4.464-149.41 57.913-150.071 300.095 36.93 227.594 50.039-72.5 13.11-42.045 80.93 10.063 133.038 88.495 88.495-80.352 198.754-139.928 81.059-32.1-63.408-18.11-82.394-102.193-114.726z" fill="#fff"/></mask><g mask="url(#a)" fill-rule="evenodd" clip-rule="evenodd" fill="#fff"><path d="M-3.773 466.975c1.16-1.16 3.516-.686 4.68.478a2.975 2.975 0 0 1 .005 4.208c-1.16 1.16-3.783 1.896-4.946.732-1.164-1.163-.9-4.257.261-5.418zm18.585.798c1.16-1.161 3.526-.677 4.69.487a2.972 2.972 0 0 1-.005 4.198c-1.16 1.16-3.783 1.897-4.936.743-1.164-1.164-.91-4.268.251-5.428zm-9.692-9.691c1.161-1.161 3.517-.687 4.68.477a2.975 2.975 0 0 1 .006 4.208c-1.16 1.16-3.783 1.896-4.946.733-1.164-1.164-.9-4.258.26-5.418zm-9.7-9.702c1.16-1.16 3.526-.676 4.69.487a2.963 2.963 0 0 1-.005 4.198c-1.16 1.161-3.773 1.907-4.937.743-1.163-1.163-.909-4.267.252-5.428zm28.286 10.499c1.16-1.16 3.526-.677 4.69.487a2.972 2.972 0 0 1-.005 4.198c-1.16 1.16-3.783 1.897-4.936.743-1.164-1.164-.91-4.268.251-5.428zm-9.691-9.691c1.16-1.161 3.516-.687 4.68.477a2.975 2.975 0 0 1 .005 4.208c-1.16 1.16-3.783 1.896-4.947.733-1.163-1.164-.899-4.258.262-5.418zm-9.701-9.702c1.16-1.16 3.525-.676 4.69.488a2.963 2.963 0 0 1-.005 4.198c-1.16 1.16-3.773 1.906-4.937.742-1.164-1.163-.909-4.267.252-5.428zm37.987 20.2c1.16-1.16 3.516-.686 4.68.477a2.976 2.976 0 0 1 .005 4.208c-1.16 1.161-3.782 1.897-4.946.733-1.164-1.163-.9-4.257.261-5.418zm-9.701-9.701c1.16-1.16 3.526-.677 4.69.487a2.972 2.972 0 0 1-.005 4.198c-1.16 1.16-3.783 1.897-4.936.743-1.164-1.164-.91-4.268.25-5.428zm-9.691-9.691c1.16-1.161 3.515-.687 4.68.477a2.975 2.975 0 0 1 .005 4.208c-1.16 1.16-3.783 1.897-4.947.733-1.163-1.164-.899-4.258.262-5.418zm-9.702-9.701c1.16-1.161 3.526-.677 4.69.487a2.963 2.963 0 0 1-.004 4.198c-1.16 1.16-3.773 1.906-4.937.743-1.164-1.164-.909-4.268.252-5.428zm-9.691-9.692c1.16-1.16 3.526-.676 4.68.477a2.975 2.975 0 0 1 .005 4.208c-1.16 1.161-3.782 1.897-4.946.733-1.154-1.153-.9-4.257.261-5.418zm-9.691-9.691c1.16-1.16 3.516-.687 4.68.477a2.975 2.975 0 0 1 .005 4.208c-1.16 1.16-3.783 1.897-4.946.733-1.164-1.164-.9-4.258.261-5.418zm67.061 49.274c1.16-1.161 3.526-.677 4.68.477a2.975 2.975 0 0 1 .005 4.208c-1.16 1.16-3.782 1.896-4.946.733-1.154-1.154-.899-4.258.261-5.418zm-9.691-9.692c1.16-1.16 3.516-.686 4.68.477a2.975 2.975 0 0 1 .005 4.208c-1.16 1.161-3.783 1.897-4.946.733-1.164-1.163-.9-4.257.261-5.418zm-9.701-9.701c1.16-1.16 3.526-.677 4.69.487a2.972 2.972 0 0 1-.005 4.198c-1.16 1.16-3.783 1.897-4.937.743-1.163-1.164-.908-4.268.252-5.428zm-9.691-9.691c1.16-1.16 3.515-.687 4.68.477a2.975 2.975 0 0 1 .005 4.208c-1.16 1.16-3.783 1.897-4.947.733-1.163-1.164-.899-4.258.262-5.418zm-9.702-9.701c1.16-1.161 3.526-.677 4.69.487a2.963 2.963 0 0 1-.005 4.198c-1.16 1.16-3.772 1.906-4.936.743-1.164-1.164-.909-4.268.251-5.428zm-9.691-9.692c1.16-1.16 3.526-.676 4.68.478a2.975 2.975 0 0 1 .005 4.208c-1.16 1.16-3.782 1.896-4.946.732-1.154-1.153-.9-4.257.261-5.418zm-9.691-9.691c1.16-1.16 3.516-.686 4.68.477a2.975 2.975 0 0 1 .005 4.208c-1.16 1.161-3.783 1.897-4.946.733-1.164-1.163-.9-4.257.26-5.418zM69.78 451.59c1.16-1.161 3.526-.677 4.68.477a2.975 2.975 0 0 1 .005 4.208c-1.16 1.16-3.782 1.896-4.946.733-1.154-1.154-.9-4.258.261-5.418zm-9.691-9.692c1.16-1.16 3.516-.686 4.68.477a2.977 2.977 0 0 1 .005 4.209c-1.16 1.16-3.783 1.896-4.947.732-1.163-1.163-.898-4.257.262-5.418zm-9.701-9.701c1.16-1.16 3.526-.676 4.69.487a2.973 2.973 0 0 1-.005 4.198c-1.16 1.161-3.783 1.897-4.937.743-1.163-1.163-.909-4.267.252-5.428zm-9.691-9.691c1.16-1.16 3.515-.687 4.679.477a2.975 2.975 0 0 1 .006 4.208c-1.16 1.16-3.783 1.897-4.947.733-1.164-1.164-.899-4.258.261-5.418zm-9.702-9.701c1.16-1.161 3.526-.677 4.69.487a2.963 2.963 0 0 1-.005 4.198c-1.16 1.16-3.772 1.907-4.936.743-1.164-1.164-.91-4.268.251-5.428zm-9.691-9.691c1.16-1.161 3.526-.677 4.68.477a2.975 2.975 0 0 1 .005 4.208c-1.16 1.16-3.783 1.896-4.946.733-1.154-1.154-.9-4.258.261-5.418zm-9.691-9.692c1.16-1.16 3.516-.686 4.68.477a2.975 2.975 0 0 1 .005 4.208c-1.16 1.161-3.783 1.897-4.947.733-1.163-1.163-.899-4.257.262-5.418zm-9.701-9.701c1.16-1.16 3.525-.677 4.69.487a2.972 2.972 0 0 1-.005 4.198c-1.16 1.16-3.783 1.897-4.937.743-1.164-1.164-.909-4.268.252-5.428zm76.761 58.976c1.16-1.161 3.526-.677 4.68.477a2.975 2.975 0 0 1 .005 4.208c-1.16 1.16-3.783 1.897-4.946.733-1.154-1.154-.9-4.258.261-5.418zm-9.691-9.691c1.16-1.161 3.516-.687 4.68.477a2.975 2.975 0 0 1 .005 4.208c-1.16 1.16-3.783 1.896-4.947.733-1.163-1.164-.898-4.258.262-5.418zm-9.702-9.702c1.16-1.16 3.526-.676 4.69.487a2.973 2.973 0 0 1-.004 4.198c-1.16 1.161-3.783 1.897-4.937.743-1.164-1.163-.909-4.267.252-5.428zm-19.392-19.392c1.16-1.16 3.526-.677 4.69.487a2.963 2.963 0 0 1-.005 4.198c-1.16 1.16-3.773 1.907-4.936.743-1.164-1.164-.91-4.268.251-5.428zm-9.691-9.691c1.16-1.161 3.526-.677 4.68.477a2.976 2.976 0 0 1 .005 4.208c-1.16 1.16-3.783 1.896-4.946.733-1.154-1.154-.9-4.258.26-5.418zm-9.691-9.692c1.16-1.16 3.515-.686 4.68.477a2.975 2.975 0 0 1 .005 4.208c-1.16 1.161-3.783 1.897-4.947.733-1.163-1.163-.899-4.257.262-5.418zm-9.701-9.701c1.16-1.16 3.525-.676 4.689.487a2.973 2.973 0 0 1-.004 4.198c-1.16 1.161-3.783 1.897-4.937.743-1.164-1.163-.909-4.267.252-5.428zm-9.692-9.691c1.16-1.16 3.516-.687 4.68.477a2.975 2.975 0 0 1 .005 4.208c-1.16 1.16-3.782 1.897-4.946.733-1.164-1.164-.899-4.258.261-5.418zm86.455 68.665c1.16-1.16 3.526-.677 4.68.477a2.975 2.975 0 0 1 .005 4.208c-1.16 1.16-3.783 1.897-4.947.733-1.153-1.154-.898-4.258.262-5.418zm-9.691-9.691c1.16-1.161 3.516-.687 4.68.477a2.975 2.975 0 0 1 .005 4.208c-1.16 1.16-3.783 1.896-4.947.733-1.163-1.164-.898-4.258.262-5.418zm-9.702-9.702c1.16-1.16 3.526-.676 4.69.488a2.971 2.971 0 0 1-.004 4.197c-1.16 1.161-3.783 1.897-4.937.743-1.164-1.163-.909-4.267.251-5.428zm-19.392-19.392c1.16-1.16 3.526-.677 4.69.487a2.963 2.963 0 0 1-.005 4.198c-1.16 1.16-3.773 1.907-4.936.743-1.164-1.164-.91-4.268.251-5.428zm-9.691-9.691c1.16-1.161 3.526-.677 4.68.477a2.975 2.975 0 0 1 .005 4.208c-1.16 1.16-3.783 1.897-4.947.733-1.153-1.154-.898-4.258.262-5.418zm-9.692-9.692c1.161-1.16 3.516-.686 4.68.478a2.975 2.975 0 0 1 .006 4.208c-1.16 1.16-3.783 1.896-4.947.733-1.163-1.164-.899-4.258.262-5.419zm-9.7-9.701c1.16-1.16 3.525-.676 4.689.487a2.973 2.973 0 0 1-.005 4.198c-1.16 1.161-3.782 1.897-4.936.743-1.164-1.163-.909-4.267.251-5.428zm-9.692-9.691c1.16-1.16 3.516-.687 4.68.477a2.975 2.975 0 0 1 .005 4.208c-1.16 1.16-3.782 1.897-4.946.733-1.164-1.164-.9-4.258.261-5.418zm9.259-9.259c1.16-1.16 3.516-.686 4.68.478a2.975 2.975 0 0 1 .005 4.208c-1.16 1.16-3.783 1.896-4.947.733-1.163-1.164-.898-4.258.262-5.419zm-18.96-.442c1.16-1.16 3.526-.677 4.69.487a2.963 2.963 0 0 1-.005 4.198c-1.16 1.16-3.773 1.907-4.936.743-1.164-1.164-.91-4.268.25-5.428zm96.155 78.367c1.16-1.16 3.526-.677 4.679.477a2.976 2.976 0 0 1 .006 4.208c-1.16 1.16-3.783 1.897-4.947.733-1.153-1.154-.898-4.258.262-5.418zm-9.692-9.691c1.161-1.161 3.516-.687 4.68.477a2.975 2.975 0 0 1 .006 4.208c-1.16 1.16-3.783 1.897-4.947.733-1.163-1.164-.899-4.258.262-5.418zm-9.7-9.702c1.16-1.16 3.525-.676 4.689.488a2.973 2.973 0 0 1-.005 4.198c-1.16 1.16-3.782 1.896-4.936.743-1.164-1.164-.909-4.268.251-5.429zm-19.393-19.392c1.16-1.16 3.526-.677 4.69.487a2.963 2.963 0 0 1-.005 4.198c-1.16 1.16-3.773 1.907-4.936.743-1.164-1.164-.91-4.268.251-5.428zm-9.691-9.691c1.16-1.16 3.526-.677 4.68.477a2.975 2.975 0 0 1 .005 4.208c-1.16 1.16-3.783 1.897-4.947.733-1.153-1.154-.899-4.258.262-5.418zm-9.692-9.691c1.16-1.161 3.516-.687 4.68.477a2.975 2.975 0 0 1 .006 4.208c-1.16 1.16-3.783 1.896-4.947.733-1.164-1.164-.899-4.258.261-5.418zm-9.701-9.702c1.16-1.16 3.526-.676 4.69.488a2.971 2.971 0 0 1-.005 4.197c-1.16 1.161-3.782 1.897-4.936.743-1.164-1.163-.91-4.267.251-5.428zM9.2 337.647c1.161-1.16 3.527-.677 4.69.487a2.963 2.963 0 0 1-.004 4.198c-1.16 1.16-3.773 1.907-4.937.743-1.163-1.164-.909-4.268.252-5.428zm-9.69-9.691c1.16-1.161 3.525-.677 4.69.487a2.972 2.972 0 0 1-.005 4.198c-1.16 1.16-3.783 1.896-4.937.743-1.163-1.164-.909-4.268.252-5.428zm105.846 88.058c1.16-1.16 3.526-.677 4.679.477a2.976 2.976 0 0 1 .006 4.208c-1.16 1.161-3.783 1.897-4.947.733-1.153-1.154-.899-4.258.262-5.418zm-9.691-9.691c1.16-1.16 3.515-.687 4.679.477a2.976 2.976 0 0 1 .006 4.208c-1.16 1.16-3.783 1.897-4.947.733-1.164-1.164-.899-4.258.262-5.418zm-9.702-9.701c1.16-1.161 3.526-.677 4.69.487a2.972 2.972 0 0 1-.005 4.198c-1.16 1.16-3.782 1.896-4.936.743-1.164-1.164-.91-4.268.251-5.428zM66.57 377.229c1.161-1.16 3.527-.676 4.69.487a2.963 2.963 0 0 1-.004 4.198c-1.16 1.161-3.773 1.907-4.937.743-1.163-1.163-.909-4.267.252-5.428zm-9.69-9.691c1.16-1.16 3.526-.677 4.68.477a2.975 2.975 0 0 1 .005 4.208c-1.16 1.16-3.783 1.897-4.947.733-1.154-1.154-.899-4.258.262-5.418zm-9.692-9.691c1.16-1.161 3.516-.687 4.68.477a2.975 2.975 0 0 1 .005 4.208c-1.16 1.16-3.782 1.897-4.946.733-1.164-1.164-.899-4.258.261-5.418zm-9.701-9.702c1.16-1.16 3.526-.676 4.69.488a2.973 2.973 0 0 1-.005 4.198c-1.16 1.16-3.782 1.896-4.936.743-1.164-1.164-.91-4.268.251-5.429zm-9.691-9.691c1.16-1.16 3.516-.686 4.68.477a2.975 2.975 0 0 1 .005 4.208c-1.16 1.161-3.783 1.897-4.946.733-1.164-1.163-.9-4.257.261-5.418zm-9.701-9.701c1.16-1.16 3.526-.677 4.69.487a2.963 2.963 0 0 1-.005 4.198c-1.16 1.16-3.773 1.907-4.937.743-1.163-1.164-.909-4.268.252-5.428zm-9.691-9.691c1.16-1.16 3.525-.677 4.69.487a2.972 2.972 0 0 1-.005 4.198c-1.16 1.16-3.783 1.897-4.937.743-1.164-1.164-.909-4.268.252-5.428zm-9.692-9.691c1.16-1.161 3.516-.687 4.68.477a2.975 2.975 0 0 1 .005 4.208c-1.16 1.16-3.782 1.896-4.946.733-1.164-1.164-.899-4.258.261-5.418zM114.25 407.12c1.16-1.16 3.525-.676 4.679.477a2.976 2.976 0 0 1 .006 4.208c-1.161 1.161-3.783 1.897-4.947.733-1.153-1.153-.899-4.257.262-5.418zm-9.692-9.691c1.161-1.16 3.516-.687 4.68.477a2.976 2.976 0 0 1 .006 4.208c-1.161 1.16-3.783 1.897-4.947.733-1.164-1.164-.899-4.258.261-5.418zm-9.701-9.701c1.16-1.161 3.526-.677 4.69.487a2.973 2.973 0 0 1-.005 4.198c-1.16 1.16-3.782 1.897-4.936.743-1.164-1.164-.91-4.268.251-5.428zm-19.392-19.393c1.16-1.16 3.526-.676 4.69.487a2.963 2.963 0 0 1-.005 4.198c-1.16 1.161-3.773 1.907-4.937.743-1.163-1.163-.909-4.267.252-5.428zm-9.692-9.691c1.16-1.16 3.526-.677 4.68.477a2.976 2.976 0 0 1 .006 4.208c-1.16 1.16-3.783 1.897-4.947.733-1.154-1.154-.899-4.258.261-5.418zm-9.691-9.691c1.16-1.16 3.516-.687 4.68.477a2.975 2.975 0 0 1 .005 4.208c-1.16 1.16-3.782 1.897-4.946.733-1.164-1.164-.899-4.258.261-5.418zm-9.701-9.701c1.16-1.161 3.526-.677 4.69.487a2.973 2.973 0 0 1-.005 4.198c-1.16 1.16-3.783 1.896-4.936.743-1.164-1.164-.91-4.268.251-5.428zm-9.691-9.692c1.16-1.16 3.516-.686 4.68.477a2.975 2.975 0 0 1 .005 4.208c-1.16 1.161-3.783 1.897-4.947.733-1.163-1.163-.898-4.257.262-5.418zm-9.701-9.701c1.16-1.16 3.525-.677 4.69.487a2.963 2.963 0 0 1-.005 4.198c-1.16 1.161-3.773 1.907-4.937.743-1.163-1.164-.909-4.268.252-5.428zm-9.692-9.691c1.16-1.16 3.526-.677 4.69.487a2.973 2.973 0 0 1-.004 4.198c-1.16 1.16-3.783 1.897-4.937.743-1.164-1.164-.909-4.268.252-5.428zm-9.691-9.691c1.16-1.161 3.516-.687 4.68.477a2.976 2.976 0 0 1 .005 4.208c-1.16 1.16-3.783 1.897-4.946.733-1.164-1.164-.9-4.258.261-5.418zm-9.701-9.702c1.16-1.16 3.526-.676 4.69.488a2.963 2.963 0 0 1-.005 4.198c-1.16 1.16-3.773 1.906-4.936.743-1.164-1.164-.91-4.268.25-5.429zm125.239 107.451c1.16-1.16 3.525-.676 4.679.477a2.976 2.976 0 0 1 .006 4.208c-1.161 1.161-3.783 1.897-4.947.733-1.154-1.153-.899-4.257.262-5.418zm-9.692-9.691c1.161-1.16 3.516-.687 4.68.477a2.975 2.975 0 0 1 .005 4.208c-1.16 1.161-3.782 1.897-4.946.733-1.164-1.164-.899-4.258.261-5.418zm-9.701-9.701c1.16-1.16 3.526-.677 4.69.487a2.973 2.973 0 0 1-.005 4.198c-1.16 1.16-3.783 1.897-4.936.743-1.164-1.164-.909-4.268.251-5.428zm-9.691-9.691c1.16-1.161 3.516-.687 4.68.477a2.975 2.975 0 0 1 .005 4.208c-1.16 1.16-3.783 1.896-4.947.733-1.163-1.164-.898-4.258.262-5.418zM74.667 349.75c1.16-1.16 3.526-.676 4.68.477a2.975 2.975 0 0 1 .006 4.208c-1.16 1.161-3.783 1.897-4.947.733-1.154-1.153-.899-4.257.261-5.418zm-9.691-9.691c1.16-1.16 3.516-.687 4.68.477a2.975 2.975 0 0 1 .005 4.208c-1.16 1.16-3.782 1.897-4.946.733-1.164-1.164-.9-4.258.261-5.418zm-9.701-9.701c1.16-1.161 3.526-.677 4.69.487a2.972 2.972 0 0 1-.005 4.198c-1.16 1.16-3.783 1.897-4.936.743-1.164-1.164-.91-4.268.251-5.428zm-9.691-9.692c1.16-1.16 3.515-.686 4.68.478a2.976 2.976 0 0 1 .005 4.208c-1.16 1.16-3.783 1.896-4.947.732-1.163-1.163-.899-4.257.262-5.418zm-9.701-9.701c1.16-1.16 3.525-.676 4.69.487a2.963 2.963 0 0 1-.005 4.198c-1.16 1.161-3.773 1.907-4.937.743-1.164-1.163-.909-4.267.252-5.428zm-9.692-9.691c1.16-1.16 3.526-.677 4.69.487a2.973 2.973 0 0 1-.005 4.198c-1.16 1.16-3.782 1.897-4.936.743-1.164-1.164-.909-4.268.251-5.428zm-9.691-9.691c1.16-1.16 3.516-.687 4.68.477a2.975 2.975 0 0 1 .005 4.208c-1.16 1.16-3.783 1.897-4.946.733-1.164-1.164-.9-4.258.261-5.418zm-9.701-9.701c1.16-1.161 3.526-.677 4.69.487a2.963 2.963 0 0 1-.005 4.198c-1.16 1.16-3.773 1.906-4.937.743-1.163-1.164-.908-4.268.252-5.428zm-9.691-9.692c1.16-1.16 3.525-.676 4.68.477a2.975 2.975 0 0 1 .005 4.208c-1.16 1.161-3.783 1.897-4.947.733-1.154-1.153-.899-4.257.262-5.418zm134.928 117.143c1.161-1.16 3.526-.676 4.68.478a2.976 2.976 0 0 1 .006 4.208c-1.161 1.16-3.783 1.896-4.947.732-1.154-1.153-.899-4.257.261-5.418zm-9.691-9.691c1.161-1.16 3.516-.686 4.68.477a2.975 2.975 0 0 1 .005 4.208c-1.16 1.161-3.782 1.897-4.946.733-1.164-1.164-.899-4.257.261-5.418zm-9.701-9.701c1.16-1.16 3.526-.677 4.69.487a2.973 2.973 0 0 1-.005 4.198c-1.16 1.16-3.783 1.897-4.936.743-1.164-1.164-.909-4.268.251-5.428zm-9.691-9.691c1.16-1.161 3.516-.687 4.679.477a2.976 2.976 0 0 1 .006 4.208c-1.16 1.16-3.783 1.896-4.947.733-1.163-1.164-.899-4.258.262-5.418zm-9.702-9.701c1.16-1.161 3.526-.677 4.69.487a2.963 2.963 0 0 1-.004 4.198c-1.16 1.16-3.773 1.906-4.937.743-1.164-1.164-.909-4.268.251-5.428zm-9.691-9.692c1.16-1.16 3.526-.676 4.68.477a2.976 2.976 0 0 1 .005 4.208c-1.16 1.161-3.782 1.897-4.946.733-1.154-1.153-.899-4.257.261-5.418zm-9.69-9.691c1.16-1.16 3.515-.687 4.679.477a2.975 2.975 0 0 1 .005 4.208c-1.16 1.161-3.783 1.897-4.946.733-1.164-1.164-.9-4.258.261-5.418zm-9.702-9.701c1.16-1.161 3.526-.677 4.69.487a2.973 2.973 0 0 1-.005 4.198c-1.16 1.16-3.783 1.897-4.936.743-1.164-1.164-.91-4.268.25-5.428zm-9.691-9.691c1.16-1.161 3.515-.687 4.68.477a2.975 2.975 0 0 1 .005 4.208c-1.16 1.16-3.783 1.896-4.947.733-1.164-1.164-.899-4.258.262-5.418zm-9.702-9.702c1.16-1.16 3.526-.676 4.69.487a2.963 2.963 0 0 1-.005 4.198c-1.16 1.161-3.772 1.907-4.936.743-1.164-1.163-.909-4.267.251-5.428zm-9.691-9.691c1.16-1.16 3.526-.676 4.69.487a2.973 2.973 0 0 1-.005 4.198c-1.16 1.161-3.782 1.897-4.936.743-1.164-1.163-.91-4.267.251-5.428zm-9.691-9.691c1.16-1.16 3.516-.687 4.68.477a2.976 2.976 0 0 1 .005 4.208c-1.16 1.16-3.783 1.897-4.946.733-1.164-1.164-.9-4.258.261-5.418zm-9.701-9.701c1.16-1.161 3.526-.677 4.69.487a2.963 2.963 0 0 1-.005 4.198c-1.16 1.16-3.773 1.907-4.937.743-1.163-1.164-.909-4.268.252-5.428zM6 263.297c1.16-1.16 3.526-.676 4.68.478a2.975 2.975 0 0 1 .006 4.208c-1.16 1.16-3.783 1.896-4.947.732-1.154-1.153-.899-4.257.262-5.418zm-9.69-9.691c1.16-1.16 3.515-.686 4.679.477a2.975 2.975 0 0 1 .005 4.208c-1.16 1.161-3.782 1.897-4.946.733-1.164-1.163-.899-4.257.261-5.418zm144.621 126.833c1.161-1.161 3.526-.677 4.68.477a2.975 2.975 0 0 1 .005 4.208c-1.16 1.16-3.782 1.896-4.946.733-1.154-1.154-.899-4.258.261-5.418zm-9.691-9.692c1.16-1.16 3.516-.686 4.68.477a2.976 2.976 0 0 1 .005 4.208c-1.16 1.161-3.783 1.897-4.946.733-1.164-1.163-.899-4.257.261-5.418zm-9.701-9.701c1.16-1.16 3.526-.677 4.689.487a2.973 2.973 0 0 1-.004 4.198c-1.16 1.161-3.783 1.897-4.936.743-1.164-1.164-.909-4.268.251-5.428zm-9.691-9.691c1.16-1.16 3.515-.687 4.679.477a2.976 2.976 0 0 1 .006 4.208c-1.161 1.16-3.783 1.897-4.947.733-1.163-1.164-.899-4.258.262-5.418zm-9.702-9.701c1.161-1.161 3.526-.677 4.69.487a2.963 2.963 0 0 1-.005 4.198c-1.16 1.16-3.772 1.906-4.936.743-1.164-1.164-.909-4.268.251-5.428zm-9.691-9.692c1.16-1.16 3.526-.676 4.68.477a2.976 2.976 0 0 1 .005 4.208c-1.16 1.161-3.782 1.897-4.946.733-1.154-1.153-.9-4.257.261-5.418zm-29.084-29.083c1.16-1.161 3.516-.687 4.68.477a2.975 2.975 0 0 1 .006 4.208c-1.16 1.16-3.783 1.897-4.947.733-1.164-1.164-.899-4.258.261-5.418zm-9.701-9.702c1.16-1.16 3.526-.676 4.69.488a2.963 2.963 0 0 1-.005 4.198c-1.16 1.16-3.772 1.906-4.936.743-1.164-1.164-.909-4.268.251-5.429zm-9.692-9.69c1.16-1.16 3.526-.676 4.69.487a2.972 2.972 0 0 1-.005 4.198c-1.16 1.161-3.783 1.897-4.936.743-1.164-1.163-.91-4.267.251-5.428zm-9.691-9.691c1.16-1.16 3.516-.687 4.68.477a2.975 2.975 0 0 1 .005 4.208c-1.16 1.16-3.783 1.897-4.947.733-1.163-1.164-.898-4.258.262-5.418zm-9.701-9.701c1.16-1.161 3.525-.677 4.69.487a2.963 2.963 0 0 1-.005 4.198c-1.16 1.16-3.773 1.907-4.937.743-1.163-1.164-.909-4.268.252-5.428zm-9.692-9.691c1.16-1.161 3.526-.677 4.68.477a2.976 2.976 0 0 1 .005 4.208c-1.16 1.16-3.782 1.896-4.946.733-1.154-1.154-.899-4.258.261-5.418zm-9.691-9.692c1.16-1.16 3.516-.686 4.68.477a2.975 2.975 0 0 1 .005 4.208c-1.16 1.161-3.782 1.897-4.946.733-1.164-1.163-.9-4.257.261-5.418zm-9.701-9.701c1.16-1.16 3.526-.677 4.69.487a2.972 2.972 0 0 1-.005 4.198c-1.16 1.161-3.783 1.897-4.936.743-1.164-1.164-.91-4.268.25-5.428zm154.322 136.535c1.161-1.161 3.526-.677 4.68.477a2.976 2.976 0 0 1 .005 4.208c-1.16 1.16-3.782 1.896-4.946.733-1.154-1.154-.899-4.258.261-5.418zm-9.691-9.692c1.16-1.16 3.516-.686 4.68.478a2.976 2.976 0 0 1 .005 4.208c-1.16 1.16-3.783 1.896-4.946.732-1.164-1.163-.899-4.257.261-5.418zm-9.701-9.701c1.16-1.16 3.526-.676 4.689.487a2.973 2.973 0 0 1-.004 4.198c-1.161 1.161-3.783 1.897-4.937.743-1.163-1.164-.909-4.267.252-5.428zm-9.691-9.691c1.16-1.16 3.515-.687 4.679.477a2.976 2.976 0 0 1 .006 4.208c-1.161 1.16-3.783 1.897-4.947.733-1.164-1.164-.899-4.258.262-5.418zm-9.702-9.701c1.161-1.161 3.526-.677 4.69.487a2.963 2.963 0 0 1-.005 4.198c-1.16 1.16-3.772 1.907-4.936.743-1.164-1.164-.909-4.268.251-5.428zm-9.691-9.691c1.16-1.161 3.526-.677 4.68.477a2.976 2.976 0 0 1 .005 4.208c-1.16 1.16-3.783 1.896-4.946.733-1.154-1.154-.899-4.258.261-5.418zm-9.691-9.692c1.16-1.16 3.516-.686 4.68.477a2.975 2.975 0 0 1 .005 4.208c-1.16 1.161-3.783 1.897-4.947.733-1.163-1.163-.898-4.257.262-5.418zm-9.701-9.701c1.16-1.16 3.525-.677 4.69.487a2.972 2.972 0 0 1-.005 4.198c-1.16 1.161-3.783 1.897-4.937.743-1.163-1.164-.909-4.268.252-5.428zm-19.393-19.392c1.16-1.161 3.526-.677 4.69.487a2.963 2.963 0 0 1-.005 4.198c-1.16 1.16-3.772 1.906-4.936.743-1.164-1.164-.91-4.268.251-5.428zm-9.691-9.692c1.16-1.16 3.526-.676 4.69.488a2.971 2.971 0 0 1-.005 4.197c-1.16 1.161-3.783 1.897-4.936.743-1.164-1.163-.91-4.267.251-5.428zm-9.692-9.691c1.161-1.16 3.517-.686 4.68.477a2.975 2.975 0 0 1 .006 4.208c-1.16 1.161-3.783 1.897-4.947.733-1.163-1.164-.899-4.257.262-5.418zm-29.083-29.084c1.16-1.16 3.516-.686 4.68.478a2.976 2.976 0 0 1 .005 4.208c-1.16 1.16-3.783 1.896-4.946.732-1.164-1.163-.9-4.257.261-5.418zm-9.701-9.701c1.16-1.16 3.526-.676 4.69.487a2.972 2.972 0 0 1-.005 4.198c-1.16 1.161-3.783 1.897-4.937.743-1.163-1.163-.909-4.267.252-5.428zm-9.691-9.691c1.16-1.16 3.515-.687 4.68.477a2.975 2.975 0 0 1 .005 4.208c-1.16 1.16-3.783 1.897-4.947.733-1.164-1.164-.899-4.258.262-5.418zm164.013 146.226c1.16-1.161 3.526-.677 4.68.477a2.976 2.976 0 0 1 .005 4.208c-1.16 1.16-3.783 1.896-4.946.733-1.154-1.154-.899-4.258.261-5.418zm-9.691-9.691c1.16-1.161 3.516-.687 4.679.477a2.976 2.976 0 0 1 .006 4.208c-1.16 1.16-3.783 1.896-4.946.733-1.164-1.164-.899-4.258.261-5.418zm-9.701-9.702c1.16-1.16 3.525-.676 4.689.487a2.973 2.973 0 0 1-.004 4.198c-1.161 1.161-3.783 1.897-4.937.743-1.163-1.163-.909-4.267.252-5.428zm-9.692-9.691c1.161-1.16 3.516-.687 4.68.477a2.976 2.976 0 0 1 .006 4.208c-1.161 1.161-3.783 1.897-4.947.733-1.164-1.164-.899-4.258.261-5.418zm-9.701-9.701c1.161-1.161 3.526-.677 4.69.487a2.963 2.963 0 0 1-.005 4.198c-1.16 1.16-3.772 1.907-4.936.743-1.164-1.164-.909-4.268.251-5.428zm-9.691-9.691c1.16-1.161 3.526-.677 4.679.477a2.976 2.976 0 0 1 .006 4.208c-1.16 1.16-3.783 1.896-4.946.733-1.154-1.154-.899-4.258.261-5.418zm-9.691-9.692c1.16-1.16 3.516-.686 4.679.477a2.976 2.976 0 0 1 .006 4.208c-1.161 1.161-3.783 1.897-4.947.733-1.163-1.163-.899-4.257.262-5.418zm-9.701-9.701c1.16-1.16 3.525-.676 4.69.487a2.973 2.973 0 0 1-.005 4.198c-1.16 1.161-3.783 1.897-4.937.743-1.164-1.164-.909-4.267.252-5.428zm-9.692-9.691c1.16-1.16 3.516-.687 4.68.477a2.975 2.975 0 0 1 .005 4.208c-1.16 1.16-3.782 1.897-4.946.733-1.164-1.164-.899-4.258.261-5.418zm-9.701-9.701c1.16-1.161 3.526-.677 4.69.487a2.963 2.963 0 0 1-.005 4.198c-1.16 1.16-3.773 1.907-4.936.743-1.164-1.164-.91-4.268.251-5.428zm-9.691-9.691c1.16-1.161 3.526-.677 4.69.487a2.972 2.972 0 0 1-.005 4.198c-1.16 1.16-3.783 1.896-4.936.743-1.164-1.164-.91-4.268.25-5.428zm-9.691-9.692c1.16-1.16 3.515-.686 4.68.477a2.975 2.975 0 0 1 .005 4.208c-1.16 1.161-3.783 1.897-4.947.733-1.164-1.163-.899-4.257.262-5.418zm-9.702-9.701c1.16-1.16 3.526-.677 4.69.487a2.963 2.963 0 0 1-.005 4.198c-1.16 1.16-3.772 1.907-4.936.743-1.164-1.164-.909-4.268.251-5.428zm-9.691-9.691c1.16-1.161 3.516-.687 4.68.477a2.975 2.975 0 0 1 .005 4.208c-1.16 1.16-3.782 1.897-4.946.733-1.164-1.164-.9-4.258.261-5.418zm-9.691-9.691c1.16-1.161 3.516-.687 4.68.477a2.975 2.975 0 0 1 .005 4.208c-1.16 1.16-3.783 1.896-4.946.733-1.164-1.164-.9-4.258.261-5.418zM3.599 207.532c1.16-1.16 3.515-.687 4.68.477a2.975 2.975 0 0 1 .005 4.208c-1.16 1.161-3.783 1.897-4.947.733-1.164-1.164-.899-4.258.262-5.418zm-9.702-9.701c1.16-1.16 3.526-.677 4.69.487a2.963 2.963 0 0 1-.005 4.198c-1.16 1.16-3.772 1.907-4.936.743-1.164-1.164-.91-4.268.251-5.428zm173.715 155.927c1.16-1.16 3.526-.677 4.68.477a2.976 2.976 0 0 1 .005 4.208c-1.16 1.16-3.784 1.898-4.947.734-1.154-1.154-.898-4.259.262-5.419zm-9.691-9.691c1.16-1.161 3.516-.687 4.679.477a2.976 2.976 0 0 1 .006 4.208c-1.16 1.16-3.784 1.897-4.948.734-1.163-1.164-.898-4.259.263-5.419zm-9.701-9.702c1.16-1.16 3.525-.676 4.689.488a2.973 2.973 0 0 1-.004 4.198c-1.161 1.16-3.784 1.897-4.938.743-1.164-1.163-.908-4.268.253-5.429zm-9.692-9.691c1.161-1.16 3.516-.687 4.68.477a2.975 2.975 0 0 1 .005 4.208c-1.16 1.161-3.783 1.898-4.947.734-1.164-1.164-.898-4.259.262-5.419zm-9.701-9.701c1.16-1.16 3.526-.677 4.69.487a2.963 2.963 0 0 1-.005 4.198c-1.16 1.16-3.773 1.908-4.937.744-1.164-1.164-.908-4.269.252-5.429zm-9.691-9.691c1.16-1.161 3.526-.677 4.679.477a2.976 2.976 0 0 1 .006 4.208c-1.16 1.16-3.784 1.897-4.948.734-1.153-1.154-.897-4.259.263-5.419zm-9.691-9.691c1.16-1.161 3.515-.687 4.679.477a2.976 2.976 0 0 1 .006 4.208c-1.161 1.16-3.784 1.897-4.948.734-1.163-1.164-.898-4.259.263-5.419zm-9.702-9.702c1.161-1.16 3.526-.676 4.69.487a2.972 2.972 0 0 1-.005 4.198c-1.16 1.161-3.783 1.898-4.937.744-1.164-1.163-.908-4.268.252-5.429zm-9.691-9.691c1.16-1.16 3.516-.687 4.68.477a2.975 2.975 0 0 1 .005 4.208c-1.16 1.16-3.783 1.898-4.947.734-1.164-1.164-.898-4.259.262-5.419zm-9.702-9.701c1.161-1.161 3.527-.677 4.69.487a2.963 2.963 0 0 1-.004 4.198c-1.16 1.16-3.774 1.908-4.937.744-1.164-1.164-.908-4.269.252-5.429zm-9.69-9.691c1.16-1.161 3.526-.677 4.69.487a2.972 2.972 0 0 1-.005 4.198c-1.16 1.16-3.784 1.897-4.938.744-1.163-1.164-.907-4.269.253-5.429zm-9.691-9.692c1.16-1.16 3.515-.686 4.68.477a2.975 2.975 0 0 1 .005 4.208c-1.16 1.161-3.784 1.898-4.948.734-1.164-1.163-.898-4.258.263-5.419zm-9.702-9.701c1.16-1.16 3.526-.676 4.69.487a2.963 2.963 0 0 1-.005 4.198c-1.16 1.161-3.773 1.908-4.937.744-1.164-1.164-.908-4.269.252-5.429zm-9.691-9.691c1.16-1.16 3.526-.677 4.68.477a2.975 2.975 0 0 1 .005 4.208c-1.16 1.16-3.784 1.898-4.947.734-1.154-1.154-.898-4.259.262-5.419zm-9.691-9.691c1.16-1.161 3.516-.687 4.68.477a2.975 2.975 0 0 1 .005 4.208c-1.16 1.16-3.784 1.897-4.948.734-1.163-1.164-.898-4.259.263-5.419zm-9.701-9.702c1.16-1.16 3.525-.676 4.69.488a2.972 2.972 0 0 1-.005 4.198c-1.16 1.16-3.784 1.897-4.938.743-1.164-1.163-.908-4.268.253-5.429zM2.791 188.937c1.16-1.16 3.526-.677 4.69.487a2.963 2.963 0 0 1-.005 4.198c-1.16 1.16-3.774 1.908-4.937.744-1.164-1.164-.908-4.269.252-5.429zm173.715 155.927c1.16-1.16 3.526-.677 4.679.477a2.976 2.976 0 0 1 .006 4.208c-1.16 1.16-3.784 1.898-4.947.734-1.154-1.154-.898-4.259.262-5.419zm-9.691-9.691c1.16-1.161 3.515-.687 4.679.477a2.976 2.976 0 0 1 .006 4.208c-1.161 1.16-3.784 1.898-4.948.734-1.163-1.164-.898-4.259.263-5.419zm-9.701-9.701c1.16-1.161 3.525-.677 4.689.487a2.973 2.973 0 0 1-.004 4.198c-1.161 1.16-3.784 1.897-4.938.744-1.164-1.164-.908-4.269.253-5.429zm-9.692-9.692c1.161-1.16 3.516-.686 4.68.477a2.975 2.975 0 0 1 .005 4.208c-1.16 1.161-3.783 1.898-4.947.734-1.164-1.164-.898-4.258.262-5.419zm-9.701-9.701c1.16-1.16 3.526-.677 4.69.487a2.964 2.964 0 0 1-.005 4.198c-1.16 1.16-3.774 1.908-4.937.744-1.164-1.164-.908-4.269.252-5.429zm-9.691-9.691c1.16-1.161 3.526-.677 4.679.477a2.976 2.976 0 0 1 .006 4.208c-1.16 1.16-3.784 1.898-4.948.734-1.153-1.154-.898-4.259.263-5.419zm-9.691-9.691c1.16-1.161 3.515-.687 4.679.477a2.976 2.976 0 0 1 .006 4.208c-1.161 1.16-3.784 1.897-4.948.734-1.164-1.164-.898-4.259.263-5.419zm-9.702-9.702c1.161-1.16 3.526-.676 4.69.487a2.972 2.972 0 0 1-.005 4.198c-1.16 1.161-3.783 1.898-4.937.744-1.164-1.163-.908-4.268.252-5.429zm-9.691-9.691c1.16-1.16 3.516-.687 4.68.477a2.976 2.976 0 0 1 .005 4.208c-1.16 1.161-3.784 1.898-4.947.734-1.164-1.164-.898-4.259.262-5.419zm-9.701-9.701c1.16-1.16 3.526-.677 4.69.487a2.963 2.963 0 0 1-.005 4.198c-1.16 1.16-3.774 1.908-4.938.744-1.163-1.164-.907-4.269.253-5.429zM69.862 238.22c1.16-1.16 3.516-.686 4.68.477a2.977 2.977 0 0 1 .005 4.209c-1.16 1.16-3.783 1.897-4.947.733-1.164-1.163-.898-4.258.262-5.419zm-9.701-9.701c1.16-1.16 3.526-.676 4.69.487a2.963 2.963 0 0 1-.005 4.198c-1.16 1.161-3.774 1.908-4.937.744-1.164-1.163-.908-4.268.252-5.429zm-9.691-9.691c1.16-1.16 3.526-.677 4.68.477a2.975 2.975 0 0 1 .005 4.208c-1.16 1.16-3.784 1.898-4.947.734-1.154-1.154-.898-4.259.262-5.419zm-9.691-9.691c1.16-1.161 3.515-.687 4.68.477a2.975 2.975 0 0 1 .005 4.208c-1.16 1.16-3.784 1.898-4.948.734-1.163-1.164-.898-4.259.263-5.419zm-9.701-9.702c1.16-1.16 3.525-.676 4.69.488a2.973 2.973 0 0 1-.005 4.198c-1.16 1.16-3.784 1.897-4.938.744-1.164-1.164-.908-4.269.253-5.43zm-9.692-9.691c1.16-1.16 3.516-.686 4.68.477a2.975 2.975 0 0 1 .005 4.208c-1.16 1.161-3.783 1.898-4.947.734-1.164-1.163-.898-4.258.262-5.419zm-9.701-9.701c1.16-1.16 3.526-.677 4.69.487a2.963 2.963 0 0 1-.005 4.198c-1.16 1.16-3.774 1.908-4.937.744-1.164-1.164-.908-4.269.252-5.429zM185.4 335.97c1.16-1.16 3.526-.677 4.679.477a2.976 2.976 0 0 1 .006 4.208c-1.16 1.16-3.784 1.898-4.948.734-1.153-1.154-.898-4.259.263-5.419zm-9.691-9.691c1.16-1.16 3.515-.687 4.679.477a2.976 2.976 0 0 1 .006 4.208c-1.161 1.16-3.784 1.898-4.948.734-1.164-1.164-.898-4.259.263-5.419zm-9.702-9.701c1.161-1.161 3.526-.677 4.69.487a2.972 2.972 0 0 1-.005 4.198c-1.16 1.16-3.783 1.897-4.937.744-1.164-1.164-.908-4.269.252-5.429zm-9.691-9.692c1.16-1.16 3.516-.686 4.68.478a2.976 2.976 0 0 1 .005 4.208c-1.16 1.16-3.784 1.897-4.947.733-1.164-1.163-.898-4.258.262-5.419zm-9.701-9.701c1.16-1.16 3.526-.677 4.689.487a2.963 2.963 0 0 1-.004 4.198c-1.16 1.161-3.774 1.908-4.938.744-1.163-1.164-.907-4.269.253-5.429zm-9.691-9.691c1.16-1.16 3.526-.677 4.679.477a2.976 2.976 0 0 1 .006 4.208c-1.161 1.16-3.784 1.898-4.948.734-1.153-1.154-.898-4.259.263-5.419zm-9.692-9.691c1.161-1.161 3.516-.687 4.68.477a2.975 2.975 0 0 1 .005 4.208c-1.16 1.16-3.783 1.897-4.947.734-1.164-1.164-.898-4.259.262-5.419zm-9.701-9.701c1.161-1.161 3.526-.677 4.69.487a2.973 2.973 0 0 1-.005 4.198c-1.16 1.16-3.783 1.897-4.937.744-1.164-1.164-.908-4.269.252-5.429zm-9.691-9.692c1.16-1.16 3.516-.686 4.68.477a2.976 2.976 0 0 1 .005 4.208c-1.16 1.161-3.784 1.898-4.947.734-1.164-1.163-.898-4.258.262-5.419zm-9.701-9.701c1.16-1.16 3.526-.677 4.689.487a2.963 2.963 0 0 1-.004 4.198c-1.161 1.16-3.774 1.908-4.938.744-1.163-1.164-.908-4.269.253-5.429zm-9.691-9.691c1.16-1.16 3.525-.677 4.69.487a2.973 2.973 0 0 1-.005 4.198c-1.16 1.16-3.784 1.898-4.938.744-1.164-1.164-.908-4.269.253-5.429zm-9.692-9.691c1.16-1.161 3.516-.687 4.68.477a2.975 2.975 0 0 1 .005 4.208c-1.16 1.16-3.783 1.897-4.947.734-1.164-1.164-.898-4.259.262-5.419zm-19.392-19.393c1.16-1.16 3.526-.676 4.68.477a2.975 2.975 0 0 1 .005 4.208c-1.16 1.161-3.784 1.898-4.948.734-1.153-1.154-.898-4.259.263-5.419zm-9.691-9.691c1.16-1.16 3.515-.687 4.68.477a2.975 2.975 0 0 1 .005 4.208c-1.16 1.16-3.784 1.898-4.948.734-1.163-1.164-.898-4.259.263-5.419zm-9.702-9.701c1.16-1.161 3.526-.677 4.69.487a2.973 2.973 0 0 1-.005 4.198c-1.16 1.16-3.783 1.897-4.937.744-1.164-1.164-.908-4.269.252-5.429zM71.62 294.63c1.16-1.16 3.516-.687 4.68.477a2.975 2.975 0 0 1 .005 4.208c-1.16 1.161-3.783 1.897-4.946.733-1.164-1.164-.9-4.258.261-5.418zm7.288-46.073c1.16-1.16 3.526-.677 4.69.487a2.972 2.972 0 0 1-.005 4.198c-1.16 1.16-3.782 1.897-4.936.743-1.164-1.164-.909-4.268.251-5.428zm-77.559-77.56c1.16-1.16 3.525-.676 4.68.477a2.975 2.975 0 0 1 .005 4.208c-1.16 1.161-3.783 1.897-4.947.733-1.154-1.154-.899-4.257.262-5.418zm67.061 49.274c1.16-1.161 3.526-.677 4.69.487a2.963 2.963 0 0 1-.005 4.198c-1.16 1.16-3.773 1.906-4.937.743-1.163-1.164-.909-4.268.252-5.428zm-48.476-48.476c1.16-1.161 3.525-.677 4.69.487a2.963 2.963 0 0 1-.005 4.198c-1.16 1.16-3.773 1.906-4.937.743-1.163-1.164-.909-4.268.252-5.428zm37.987 20.199c1.16-1.16 3.516-.686 4.68.477a2.976 2.976 0 0 1 .005 4.208c-1.16 1.161-3.782 1.897-4.946.733-1.164-1.163-.9-4.257.261-5.418zm-9.701-9.701c1.16-1.16 3.526-.677 4.69.487a2.973 2.973 0 0 1-.005 4.198c-1.16 1.16-3.783 1.897-4.936.743-1.164-1.164-.91-4.268.251-5.428zm-17.94-1.443c1.16-1.16 3.516-.686 4.68.477a2.977 2.977 0 0 1 .005 4.209c-1.16 1.16-3.784 1.897-4.947.733-1.164-1.163-.898-4.258.262-5.419zm-19.392-19.392c1.16-1.16 3.526-.677 4.68.477a2.975 2.975 0 0 1 .005 4.208c-1.16 1.16-3.784 1.898-4.948.734-1.153-1.154-.898-4.259.263-5.419zm-9.691-9.691c1.16-1.161 3.515-.687 4.68.477a2.975 2.975 0 0 1 .005 4.208c-1.16 1.16-3.784 1.898-4.948.734-1.164-1.164-.898-4.259.263-5.419zm193.098 175.308c1.16-1.16 3.524-.675 4.678.478a2.974 2.974 0 0 1 .007 4.207c-1.161 1.161-3.784 1.898-4.948.734-1.153-1.154-.898-4.259.263-5.419zm-9.691-9.691c1.16-1.16 3.514-.686 4.678.478a2.974 2.974 0 0 1 .007 4.207c-1.161 1.16-3.784 1.898-4.948.734-1.164-1.164-.898-4.259.263-5.419zm-9.702-9.701c1.161-1.161 3.525-.676 4.689.488a2.971 2.971 0 0 1-.004 4.197c-1.16 1.16-3.783 1.897-4.937.744-1.164-1.164-.908-4.269.252-5.429zm-9.691-9.691c1.16-1.161 3.515-.686 4.679.478a2.975 2.975 0 0 1 .006 4.207c-1.16 1.16-3.784 1.897-4.947.734-1.164-1.164-.898-4.259.262-5.419zm-9.701-9.702c1.16-1.16 3.525-.675 4.688.488a2.962 2.962 0 0 1-.003 4.197c-1.16 1.161-3.774 1.908-4.938.744-1.163-1.163-.908-4.268.253-5.429zm-9.691-9.691c1.16-1.16 3.524-.676 4.678.478a2.974 2.974 0 0 1 .007 4.207c-1.161 1.16-3.784 1.898-4.948.734-1.154-1.154-.898-4.259.263-5.419zm-9.692-9.691c1.161-1.161 3.515-.686 4.679.478a2.973 2.973 0 0 1 .006 4.207c-1.16 1.16-3.783 1.898-4.947.734-1.164-1.164-.898-4.259.262-5.419zm-9.701-9.701c1.16-1.161 3.525-.676 4.689.488a2.971 2.971 0 0 1-.004 4.197c-1.16 1.16-3.784 1.897-4.937.744-1.164-1.164-.908-4.269.252-5.429zm-9.691-9.692c1.16-1.16 3.515-.685 4.678.478a2.974 2.974 0 0 1 .007 4.207c-1.16 1.161-3.784 1.898-4.948.734-1.163-1.163-.897-4.258.263-5.419zm-9.701-9.701c1.16-1.16 3.524-.675 4.688.488a2.962 2.962 0 0 1-.003 4.197c-1.161 1.161-3.774 1.908-4.938.744-1.164-1.164-.908-4.269.253-5.429zm-9.693-9.69c1.16-1.16 3.526-.677 4.69.487a2.973 2.973 0 0 1-.004 4.198c-1.161 1.16-3.784 1.898-4.938.744-1.164-1.164-.908-4.269.252-5.429zm-9.691-9.691c1.16-1.161 3.516-.687 4.68.477a2.975 2.975 0 0 1 .005 4.208c-1.16 1.16-3.783 1.897-4.947.734-1.164-1.164-.898-4.259.262-5.419zm-9.701-9.702c1.16-1.16 3.526-.676 4.69.488a2.962 2.962 0 0 1-.005 4.197c-1.16 1.161-3.774 1.908-4.937.744-1.164-1.163-.908-4.268.252-5.429zm-9.691-9.691c1.16-1.16 3.526-.676 4.68.477a2.975 2.975 0 0 1 .005 4.208c-1.16 1.161-3.784 1.898-4.948.734-1.153-1.153-.898-4.258.263-5.419zm-29.084-29.083c1.16-1.161 3.516-.687 4.68.477a2.975 2.975 0 0 1 .005 4.208c-1.16 1.16-3.784 1.897-4.947.734-1.164-1.164-.898-4.259.262-5.419zm-9.701-9.702c1.16-1.16 3.526-.676 4.69.487a2.963 2.963 0 0 1-.005 4.198c-1.16 1.161-3.774 1.908-4.938.744-1.163-1.163-.907-4.268.253-5.429zm-9.691-9.691c1.16-1.16 3.525-.676 4.68.477a2.975 2.975 0 0 1 .005 4.208c-1.16 1.161-3.784 1.898-4.948.734-1.153-1.154-.898-4.259.263-5.419zm-9.692-9.691c1.16-1.16 3.516-.687 4.68.477a2.975 2.975 0 0 1 .005 4.208c-1.16 1.16-3.783 1.898-4.947.734-1.164-1.164-.898-4.259.262-5.419zm-9.7-9.701c1.16-1.161 3.525-.677 4.689.487a2.972 2.972 0 0 1-.005 4.198c-1.16 1.16-3.784 1.897-4.937.744-1.164-1.164-.908-4.269.252-5.429zm193.106 175.319c1.161-1.16 3.515-.686 4.679.478a2.973 2.973 0 0 1 .006 4.207c-1.16 1.16-3.783 1.898-4.947.734-1.164-1.164-.898-4.259.262-5.419zm-9.701-9.701c1.16-1.16 3.525-.676 4.689.488a2.971 2.971 0 0 1-.004 4.197c-1.16 1.16-3.784 1.898-4.937.744-1.164-1.164-.908-4.269.252-5.429zm-9.691-9.691c1.16-1.161 3.515-.686 4.678.478a2.974 2.974 0 0 1 .007 4.207c-1.16 1.16-3.784 1.897-4.948.734-1.163-1.164-.897-4.259.263-5.419zm-9.701-9.702c1.16-1.16 3.525-.675 4.688.489a2.962 2.962 0 0 1-.003 4.197c-1.161 1.16-3.774 1.907-4.938.743-1.163-1.163-.908-4.268.253-5.429zm-9.692-9.691c1.161-1.16 3.525-.676 4.679.478a2.974 2.974 0 0 1 .007 4.207c-1.161 1.161-3.784 1.898-4.948.734-1.154-1.154-.898-4.259.262-5.419zm-9.691-9.691c1.161-1.16 3.515-.686 4.679.478a2.973 2.973 0 0 1 .006 4.207c-1.16 1.16-3.783 1.898-4.947.734-1.164-1.164-.898-4.259.262-5.419zm-9.701-9.701c1.16-1.161 3.525-.676 4.689.488a2.972 2.972 0 0 1-.004 4.197c-1.16 1.16-3.784 1.897-4.937.744-1.164-1.164-.908-4.269.252-5.429zm-9.691-9.691c1.16-1.161 3.515-.686 4.678.478a2.974 2.974 0 0 1 .007 4.207c-1.16 1.16-3.784 1.897-4.948.734-1.163-1.164-.898-4.259.263-5.419zm-9.701-9.702c1.16-1.16 3.524-.675 4.688.488a2.962 2.962 0 0 1-.003 4.197c-1.161 1.161-3.774 1.908-4.938.744-1.164-1.163-.908-4.268.253-5.429zm-9.692-9.691c1.161-1.16 3.525-.676 4.689.488a2.97 2.97 0 0 1-.004 4.197c-1.16 1.16-3.783 1.898-4.937.744-1.164-1.164-.908-4.269.252-5.429zm-9.691-9.691c1.16-1.161 3.515-.686 4.679.478a2.974 2.974 0 0 1 .006 4.207c-1.16 1.16-3.784 1.898-4.947.734-1.164-1.164-.898-4.259.262-5.419zm-9.701-9.701c1.16-1.161 3.525-.676 4.688.488a2.962 2.962 0 0 1-.003 4.197c-1.16 1.16-3.774 1.907-4.938.744-1.163-1.164-.907-4.269.253-5.429zm-9.691-9.692c1.16-1.16 3.525-.675 4.678.478a2.974 2.974 0 0 1 .007 4.207c-1.16 1.161-3.784 1.898-4.948.734-1.153-1.153-.898-4.258.263-5.419zm-9.692-9.691c1.16-1.16 3.515-.686 4.679.478a2.974 2.974 0 0 1 .007 4.207c-1.16 1.161-3.784 1.898-4.948.734-1.164-1.164-.898-4.259.262-5.419zm-9.7-9.701c1.16-1.16 3.524-.676 4.688.488a2.971 2.971 0 0 1-.004 4.197c-1.16 1.16-3.784 1.898-4.937.744-1.164-1.164-.908-4.269.252-5.429zm-19.393-19.393c1.16-1.16 3.525-.675 4.688.489a2.96 2.96 0 0 1-.003 4.196c-1.16 1.161-3.774 1.908-4.938.744-1.163-1.163-.908-4.268.253-5.429zm-9.692-9.691c1.16-1.16 3.525-.675 4.68.478a2.974 2.974 0 0 1 .006 4.207c-1.16 1.161-3.784 1.898-4.948.734-1.154-1.153-.898-4.258.262-5.419zm-9.691-9.691c1.16-1.16 3.515-.686 4.679.478a2.974 2.974 0 0 1 .006 4.207c-1.16 1.16-3.783 1.898-4.947.734-1.164-1.164-.898-4.259.262-5.419zm-9.702-9.7c1.16-1.161 3.526-.677 4.69.487a2.972 2.972 0 0 1-.005 4.198c-1.16 1.16-3.784 1.898-4.937.744-1.164-1.164-.908-4.269.252-5.429zm-9.69-9.693c1.16-1.16 3.515-.685 4.678.479a2.974 2.974 0 0 1 .007 4.207c-1.16 1.16-3.784 1.897-4.948.734-1.163-1.164-.897-4.259.263-5.42zM202.39 299.597c1.161-1.16 3.515-.685 4.679.478a2.973 2.973 0 0 1 .006 4.207c-1.16 1.161-3.783 1.898-4.947.734-1.164-1.163-.898-4.258.262-5.419zm-9.701-9.701c1.16-1.16 3.525-.676 4.689.488a2.972 2.972 0 0 1-.004 4.197c-1.16 1.16-3.784 1.898-4.937.744-1.164-1.164-.908-4.269.252-5.429zm-9.691-9.691c1.16-1.161 3.515-.686 4.678.478a2.974 2.974 0 0 1 .007 4.207c-1.16 1.16-3.784 1.898-4.948.734-1.163-1.164-.898-4.259.263-5.419zm-9.702-9.702c1.161-1.16 3.525-.675 4.689.489a2.962 2.962 0 0 1-.003 4.197c-1.161 1.16-3.774 1.907-4.938.744-1.164-1.164-.908-4.269.252-5.43zm-9.691-9.691c1.161-1.16 3.525-.675 4.679.478a2.973 2.973 0 0 1 .006 4.207c-1.16 1.161-3.783 1.898-4.947.734-1.154-1.153-.898-4.258.262-5.419zm-9.691-9.691c1.161-1.16 3.515-.686 4.679.478a2.974 2.974 0 0 1 .006 4.207c-1.16 1.16-3.783 1.898-4.947.734-1.164-1.164-.898-4.259.262-5.419zm-9.701-9.701c1.16-1.161 3.525-.676 4.688.488a2.971 2.971 0 0 1-.003 4.197c-1.16 1.16-3.784 1.898-4.938.744-1.163-1.164-.907-4.269.253-5.429zm-9.691-9.691c1.16-1.161 3.514-.686 4.678.478a2.974 2.974 0 0 1 .007 4.207c-1.161 1.16-3.784 1.897-4.948.734-1.163-1.164-.898-4.259.263-5.419zm-9.702-9.702c1.161-1.16 3.525-.675 4.689.488a2.962 2.962 0 0 1-.003 4.197c-1.161 1.161-3.774 1.908-4.938.744-1.164-1.163-.908-4.268.252-5.429zm-9.691-9.691c1.161-1.16 3.525-.675 4.689.488a2.971 2.971 0 0 1-.004 4.197c-1.16 1.161-3.783 1.898-4.937.744-1.164-1.164-.908-4.268.252-5.429zm-9.691-9.691c1.16-1.16 3.515-.686 4.679.478a2.975 2.975 0 0 1 .006 4.207c-1.16 1.16-3.784 1.898-4.947.734-1.164-1.164-.898-4.259.262-5.419zm-9.701-9.701c1.16-1.161 3.525-.676 4.688.488a2.962 2.962 0 0 1-.003 4.197c-1.16 1.16-3.774 1.907-4.938.744-1.163-1.164-.908-4.269.253-5.429zm-9.691-9.691c1.16-1.161 3.524-.676 4.678.478a2.974 2.974 0 0 1 .007 4.207c-1.16 1.16-3.784 1.897-4.948.734-1.154-1.154-.898-4.259.263-5.419zm-9.692-9.692c1.16-1.16 3.515-.685 4.679.478a2.974 2.974 0 0 1 .006 4.207c-1.16 1.161-3.783 1.898-4.947.734-1.164-1.163-.898-4.258.262-5.419zm-9.701-9.701c1.16-1.16 3.525-.676 4.689.488a2.971 2.971 0 0 1-.004 4.197c-1.16 1.16-3.784 1.898-4.937.744-1.164-1.164-.908-4.269.252-5.429zm-9.691-9.691c1.16-1.161 3.515-.686 4.678.478a2.974 2.974 0 0 1 .007 4.207c-1.16 1.16-3.784 1.898-4.948.734-1.163-1.164-.898-4.259.263-5.419zm-9.702-9.702c1.16-1.16 3.525-.675 4.69.489a2.962 2.962 0 0 1-.004 4.197c-1.16 1.16-3.774 1.907-4.938.744-1.164-1.164-.908-4.269.253-5.43zm-9.69-9.691c1.16-1.16 3.524-.675 4.678.478a2.974 2.974 0 0 1 .007 4.207c-1.16 1.161-3.784 1.898-4.948.734-1.154-1.153-.898-4.258.262-5.419zm-9.692-9.691c1.16-1.16 3.515-.686 4.679.478a2.974 2.974 0 0 1 .006 4.207c-1.16 1.161-3.784 1.898-4.947.734-1.164-1.164-.898-4.259.262-5.419zm-9.701-9.701c1.16-1.16 3.525-.676 4.689.488a2.971 2.971 0 0 1-.004 4.197c-1.16 1.16-3.784 1.898-4.938.744-1.163-1.164-.907-4.269.253-5.429zm-9.69-9.692c1.16-1.161 3.514-.686 4.678.478a2.974 2.974 0 0 1 .007 4.207c-1.16 1.16-3.784 1.897-4.948.734-1.163-1.164-.898-4.259.263-5.419zm-9.702-9.702c1.16-1.16 3.525-.675 4.689.489a2.975 2.975 0 0 1 .007 4.207c-1.16 1.16-3.784 1.897-4.948.733-1.164-1.163-.908-4.268.252-5.429zm202.798 185.012c1.16-1.16 3.525-.676 4.688.488a2.971 2.971 0 0 1-.003 4.197c-1.16 1.16-3.784 1.898-4.938.744-1.163-1.164-.907-4.269.253-5.429zm-9.691-9.691c1.16-1.16 3.514-.686 4.678.478a2.974 2.974 0 0 1 .007 4.207c-1.161 1.16-3.784 1.898-4.948.734-1.163-1.164-.898-4.259.263-5.419zm-9.702-9.701c1.161-1.161 3.525-.676 4.689.488a2.962 2.962 0 0 1-.003 4.197c-1.161 1.16-3.774 1.907-4.938.744-1.164-1.164-.908-4.269.252-5.429zm-9.691-9.692c1.161-1.16 3.525-.675 4.679.478a2.973 2.973 0 0 1 .006 4.207c-1.16 1.161-3.783 1.898-4.947.734-1.154-1.153-.898-4.258.262-5.419zm-9.691-9.691c1.16-1.16 3.515-.686 4.678.478a2.974 2.974 0 0 1 .007 4.207c-1.16 1.161-3.784 1.898-4.947.734-1.164-1.164-.898-4.259.262-5.419zm-9.701-9.701c1.16-1.16 3.525-.676 4.688.488a2.971 2.971 0 0 1-.003 4.197c-1.16 1.16-3.784 1.898-4.938.744-1.163-1.164-.908-4.269.253-5.429zm-9.691-9.691c1.16-1.161 3.514-.686 4.678.478a2.974 2.974 0 0 1 .007 4.207c-1.161 1.16-3.784 1.897-4.948.734-1.164-1.164-.898-4.259.263-5.419zm-9.702-9.702c1.161-1.16 3.525-.675 4.689.489a2.961 2.961 0 0 1-.004 4.197c-1.16 1.16-3.773 1.907-4.937.744-1.164-1.164-.908-4.269.252-5.43zm-9.691-9.691c1.161-1.16 3.525-.675 4.689.488a2.971 2.971 0 0 1-.004 4.197c-1.16 1.161-3.784 1.898-4.937.744-1.164-1.163-.908-4.268.252-5.429zm-9.691-9.691c1.16-1.16 3.515-.686 4.678.478a2.974 2.974 0 0 1 .007 4.207c-1.16 1.16-3.784 1.898-4.948.734-1.163-1.164-.897-4.259.263-5.419zm-9.701-9.701c1.16-1.161 3.524-.676 4.688.488a2.962 2.962 0 0 1-.003 4.197c-1.161 1.16-3.774 1.908-4.938.744-1.163-1.164-.908-4.269.253-5.429zm-9.691-9.691c1.16-1.161 3.524-.676 4.678.478a2.974 2.974 0 0 1 .007 4.207c-1.16 1.16-3.784 1.897-4.948.734-1.154-1.154-.898-4.259.262-5.419zm-9.692-9.692c1.16-1.16 3.515-.685 4.679.478a2.974 2.974 0 0 1 .006 4.207c-1.16 1.161-3.783 1.898-4.947.734-1.164-1.163-.898-4.258.262-5.419zm-9.701-9.701c1.16-1.16 3.525-.675 4.689.488a2.971 2.971 0 0 1-.004 4.197c-1.16 1.161-3.784 1.898-4.937.744-1.164-1.164-.908-4.269.252-5.429zm-19.393-19.392c1.16-1.161 3.525-.676 4.69.488a2.962 2.962 0 0 1-.004 4.197c-1.16 1.16-3.774 1.907-4.938.744-1.164-1.164-.908-4.269.252-5.429zm-9.691-9.692c1.16-1.16 3.525-.675 4.679.478a2.974 2.974 0 0 1 .006 4.207c-1.16 1.161-3.783 1.898-4.947.734-1.154-1.153-.898-4.258.262-5.419zm-9.691-9.691c1.16-1.16 3.515-.685 4.679.478a2.974 2.974 0 0 1 .006 4.207c-1.16 1.161-3.784 1.898-4.947.734-1.164-1.163-.898-4.258.262-5.419zm-9.702-9.701c1.161-1.16 3.526-.676 4.69.488a2.971 2.971 0 0 1-.004 4.197c-1.16 1.16-3.784 1.898-4.938.744-1.163-1.164-.908-4.269.253-5.429zM-2.012 77.405c1.16-1.16 3.525-.675 4.679.478a2.974 2.974 0 0 1 .006 4.207c-1.16 1.16-3.784 1.898-4.947.734-1.154-1.153-.898-4.258.262-5.419zm202.798 185.012c1.16-1.16 3.514-.686 4.678.478a2.974 2.974 0 0 1 .007 4.207c-1.161 1.16-3.784 1.898-4.948.734-1.164-1.164-.898-4.259.263-5.419zm-9.702-9.701c1.161-1.161 3.525-.676 4.689.488a2.961 2.961 0 0 1-.004 4.197c-1.16 1.16-3.773 1.907-4.937.744-1.164-1.164-.908-4.269.252-5.429zm-9.691-9.692c1.161-1.16 3.525-.675 4.679.479a2.974 2.974 0 0 1 .006 4.207c-1.16 1.16-3.783 1.897-4.947.734-1.154-1.154-.898-4.259.262-5.42zm-9.691-9.691c1.16-1.16 3.515-.685 4.678.478a2.974 2.974 0 0 1 .007 4.207c-1.16 1.161-3.784 1.898-4.948.734-1.163-1.163-.897-4.258.263-5.419zm-9.701-9.701c1.16-1.16 3.525-.676 4.688.488a2.971 2.971 0 0 1-.003 4.197c-1.161 1.16-3.784 1.898-4.938.744-1.163-1.164-.908-4.269.253-5.429zm-9.692-9.691c1.161-1.161 3.515-.686 4.679.478a2.974 2.974 0 0 1 .007 4.207c-1.161 1.16-3.784 1.898-4.948.734-1.164-1.164-.898-4.259.262-5.419zm-9.701-9.701c1.161-1.161 3.525-.676 4.689.488a2.961 2.961 0 0 1-.004 4.197c-1.16 1.16-3.773 1.907-4.937.744-1.164-1.164-.908-4.269.252-5.429zm-9.691-9.692c1.16-1.16 3.525-.675 4.689.488a2.972 2.972 0 0 1-.004 4.197c-1.16 1.161-3.784 1.898-4.937.744-1.164-1.163-.908-4.268.252-5.429zm-9.691-9.691c1.16-1.16 3.515-.686 4.678.478a2.974 2.974 0 0 1 .007 4.207c-1.16 1.161-3.784 1.898-4.948.734-1.163-1.164-.898-4.259.263-5.419zm-9.701-9.701c1.16-1.16 3.524-.676 4.688.488a2.962 2.962 0 0 1-.003 4.197c-1.161 1.16-3.774 1.908-4.938.744-1.164-1.164-.908-4.269.253-5.429zm-9.692-9.691c1.161-1.161 3.525-.676 4.679.478a2.973 2.973 0 0 1 .006 4.207c-1.16 1.16-3.783 1.897-4.947.734-1.154-1.154-.898-4.259.262-5.419zm-9.691-9.691c1.16-1.161 3.515-.686 4.679.478a2.974 2.974 0 0 1 .006 4.207c-1.16 1.16-3.784 1.897-4.947.734-1.164-1.164-.898-4.259.262-5.419zm-9.702-9.702c1.161-1.16 3.526-.675 4.69.488a2.971 2.971 0 0 1-.004 4.197c-1.16 1.161-3.784 1.898-4.938.744-1.163-1.163-.907-4.268.253-5.429zm-9.69-9.691c1.16-1.16 3.514-.686 4.678.478a2.974 2.974 0 0 1 .007 4.207c-1.16 1.16-3.784 1.898-4.948.734-1.163-1.164-.898-4.259.263-5.419zm-9.702-9.701c1.16-1.161 3.525-.676 4.689.488a2.962 2.962 0 0 1-.003 4.197c-1.16 1.16-3.774 1.908-4.938.744-1.164-1.164-.908-4.269.252-5.429zm-9.691-9.691c1.16-1.161 3.525-.676 4.679.478a2.974 2.974 0 0 1 .006 4.207c-1.16 1.16-3.784 1.897-4.947.734-1.154-1.154-.898-4.259.262-5.419zm-9.691-9.692c1.16-1.16 3.515-.685 4.678.478a2.974 2.974 0 0 1 .007 4.207c-1.16 1.161-3.784 1.898-4.947.734-1.164-1.163-.898-4.258.262-5.419zm-9.701-9.701c1.16-1.16 3.524-.676 4.688.488a2.971 2.971 0 0 1-.003 4.197c-1.16 1.16-3.784 1.898-4.938.744-1.163-1.164-.908-4.269.253-5.429zm-9.692-9.691c1.16-1.16 3.515-.686 4.679.478a2.974 2.974 0 0 1 .007 4.207c-1.16 1.16-3.784 1.898-4.948.734-1.164-1.164-.898-4.259.262-5.42zm-9.701-9.701c1.16-1.16 3.525-.676 4.689.488a2.974 2.974 0 0 1 .006 4.207c-1.16 1.16-3.783 1.897-4.947.734-1.164-1.164-.908-4.269.252-5.43zm-9.691-9.692c1.16-1.16 3.525-.675 4.679.478a2.974 2.974 0 0 1 .006 4.208c-1.16 1.16-3.784 1.897-4.947.733-1.154-1.153-.898-4.258.262-5.419zm-9.691-9.691c1.16-1.16 3.515-.685 4.678.478a2.974 2.974 0 0 1 .007 4.207c-1.16 1.16-3.784 1.898-4.948.734-1.163-1.163-.898-4.258.263-5.419zm202.788 185.001c1.161-1.161 3.525-.676 4.689.488a2.961 2.961 0 0 1-.004 4.197c-1.16 1.16-3.773 1.908-4.937.744-1.164-1.164-.908-4.269.252-5.429zm-9.691-9.691c1.16-1.161 3.525-.676 4.679.478a2.975 2.975 0 0 1 .006 4.207c-1.16 1.16-3.784 1.897-4.947.734-1.154-1.154-.898-4.259.262-5.419zm-9.691-9.692c1.16-1.16 3.515-.685 4.678.478a2.974 2.974 0 0 1 .007 4.207c-1.16 1.161-3.784 1.898-4.948.734-1.163-1.163-.898-4.258.263-5.419zm-9.701-9.701c1.16-1.16 3.524-.676 4.688.488a2.971 2.971 0 0 1-.003 4.197c-1.161 1.161-3.784 1.898-4.938.744-1.164-1.164-.908-4.269.253-5.429zm-9.692-9.691c1.161-1.16 3.515-.686 4.679.478a2.973 2.973 0 0 1 .006 4.207c-1.16 1.16-3.783 1.898-4.947.734-1.164-1.164-.898-4.259.262-5.419zm-9.701-9.701c1.16-1.161 3.525-.676 4.689.488a2.963 2.963 0 0 1-.004 4.197c-1.16 1.16-3.774 1.907-4.937.744-1.164-1.164-.908-4.269.252-5.429zm-9.691-9.691c1.16-1.161 3.525-.676 4.688.488a2.971 2.971 0 0 1-.003 4.197c-1.16 1.16-3.784 1.897-4.937.744-1.164-1.164-.908-4.269.252-5.429zm-9.691-9.692c1.16-1.16 3.515-.685 4.678.478a2.974 2.974 0 0 1 .007 4.207c-1.161 1.161-3.784 1.898-4.948.734-1.163-1.164-.898-4.258.263-5.419zm-9.702-9.701c1.161-1.16 3.525-.676 4.689.488a2.962 2.962 0 0 1-.003 4.197c-1.161 1.16-3.774 1.908-4.938.744-1.164-1.164-.908-4.269.252-5.429zm-9.691-9.691c1.161-1.161 3.525-.676 4.679.478a2.974 2.974 0 0 1 .006 4.207c-1.16 1.16-3.783 1.898-4.947.734-1.154-1.154-.898-4.259.262-5.419zm-9.691-9.691c1.16-1.161 3.515-.686 4.679.478a2.975 2.975 0 0 1 .006 4.207c-1.16 1.16-3.784 1.897-4.947.734-1.164-1.164-.898-4.259.262-5.419zm-9.701-9.702c1.16-1.16 3.525-.675 4.688.488a2.971 2.971 0 0 1-.003 4.197c-1.16 1.161-3.784 1.898-4.938.744-1.163-1.163-.908-4.268.253-5.429zm-9.691-9.691c1.16-1.16 3.514-.686 4.678.478a2.974 2.974 0 0 1 .007 4.207c-1.16 1.161-3.784 1.898-4.948.734-1.164-1.164-.898-4.259.263-5.419zm-9.702-9.701c1.16-1.16 3.525-.676 4.689.488a2.962 2.962 0 0 1-.004 4.197c-1.16 1.16-3.773 1.908-4.937.744-1.164-1.164-.908-4.269.252-5.429zm-9.691-9.691c1.16-1.161 3.525-.676 4.679.478a2.974 2.974 0 0 1 .006 4.207c-1.16 1.16-3.784 1.897-4.947.734-1.154-1.154-.898-4.259.262-5.419zm-9.691-9.692c1.16-1.16 3.515-.685 4.678.478a2.974 2.974 0 0 1 .007 4.207c-1.16 1.161-3.784 1.898-4.947.734-1.164-1.163-.898-4.258.262-5.419zm-9.701-9.701c1.16-1.16 3.524-.675 4.688.488a2.971 2.971 0 0 1-.003 4.197c-1.16 1.16-3.784 1.898-4.938.744-1.163-1.163-.908-4.268.253-5.429zm-9.692-9.692c1.16-1.16 3.515-.685 4.679.479a2.974 2.974 0 0 1 .007 4.207c-1.16 1.16-3.784 1.898-4.948.734-1.164-1.164-.898-4.259.262-5.42zm-9.701-9.7c1.16-1.16 3.525-.676 4.689.488a2.974 2.974 0 0 1 .006 4.207c-1.16 1.16-3.784 1.898-4.947.734-1.164-1.164-.908-4.269.252-5.43zm-9.691-9.692c1.16-1.16 3.525-.675 4.678.479a2.974 2.974 0 0 1 .007 4.207c-1.16 1.16-3.784 1.897-4.948.733-1.153-1.153-.897-4.258.263-5.419zm-9.691-9.691c1.16-1.16 3.515-.685 4.678.478a2.974 2.974 0 0 1 .007 4.207c-1.16 1.16-3.784 1.898-4.948.734-1.163-1.163-.898-4.258.263-5.419zm-9.702-9.701c1.16-1.16 3.525-.676 4.689.488a2.962 2.962 0 0 1-.003 4.197c-1.16 1.16-3.774 1.908-4.938.744-1.164-1.164-.908-4.269.252-5.429zm202.799 185.011c1.16-1.161 3.525-.676 4.678.478a2.974 2.974 0 0 1 .007 4.207c-1.16 1.16-3.784 1.897-4.948.734-1.153-1.154-.897-4.259.263-5.419zm-9.691-9.692c1.16-1.16 3.515-.685 4.678.479a2.974 2.974 0 0 1 .007 4.207c-1.161 1.16-3.784 1.897-4.948.734-1.163-1.164-.898-4.259.263-5.42zm-9.702-9.701c1.161-1.16 3.525-.675 4.689.488a2.971 2.971 0 0 1-.003 4.197c-1.161 1.161-3.784 1.898-4.938.744-1.164-1.164-.908-4.268.252-5.429zm-9.691-9.691c1.161-1.16 3.515-.686 4.679.478a2.973 2.973 0 0 1 .006 4.207c-1.16 1.16-3.783 1.898-4.947.734-1.164-1.164-.898-4.259.262-5.419zm-9.701-9.701c1.16-1.161 3.525-.676 4.689.488a2.963 2.963 0 0 1-.004 4.197c-1.16 1.16-3.774 1.908-4.937.744-1.164-1.164-.908-4.269.252-5.429zm-9.691-9.691c1.16-1.161 3.525-.676 4.688.488a2.971 2.971 0 0 1-.003 4.197c-1.16 1.16-3.784 1.897-4.938.744-1.163-1.164-.907-4.269.253-5.429zm-9.691-9.692c1.16-1.16 3.514-.685 4.678.478a2.974 2.974 0 0 1 .007 4.207c-1.161 1.161-3.784 1.898-4.948.734-1.164-1.163-.898-4.258.263-5.419zm-9.702-9.701c1.161-1.16 3.525-.676 4.689.488a2.961 2.961 0 0 1-.004 4.197c-1.16 1.161-3.773 1.908-4.937.744-1.164-1.164-.908-4.269.252-5.429zm-9.691-9.691c1.16-1.161 3.525-.676 4.679.478a2.974 2.974 0 0 1 .006 4.207c-1.16 1.16-3.784 1.898-4.947.734-1.154-1.154-.898-4.259.262-5.419zm-9.691-9.691c1.16-1.161 3.515-.686 4.678.478a2.974 2.974 0 0 1 .007 4.207c-1.16 1.16-3.784 1.897-4.947.734-1.164-1.164-.898-4.259.262-5.419zm-9.701-9.702c1.16-1.16 3.524-.675 4.688.488a2.971 2.971 0 0 1-.003 4.197c-1.161 1.161-3.784 1.898-4.938.744-1.164-1.163-.908-4.268.253-5.429zm-9.692-9.691c1.16-1.16 3.515-.685 4.679.478a2.974 2.974 0 0 1 .007 4.207c-1.16 1.161-3.784 1.898-4.948.734-1.164-1.164-.898-4.258.262-5.419zm-9.701-9.701c1.16-1.16 3.525-.676 4.689.488a2.962 2.962 0 0 1-.004 4.197c-1.16 1.16-3.773 1.908-4.937.744-1.164-1.164-.908-4.269.252-5.429zM73.145 99.2c1.16-1.16 3.525-.675 4.678.479a2.974 2.974 0 0 1 .007 4.207c-1.16 1.16-3.784 1.898-4.948.734-1.153-1.154-.897-4.259.263-5.42zm-9.691-9.69c1.16-1.16 3.515-.686 4.678.478a2.974 2.974 0 0 1 .007 4.207c-1.16 1.16-3.784 1.897-4.948.734-1.163-1.164-.898-4.26.263-5.42zm-9.702-9.702c1.16-1.16 3.525-.675 4.689.488a2.971 2.971 0 0 1-.003 4.197c-1.16 1.16-3.784 1.898-4.938.744-1.164-1.163-.908-4.268.252-5.429zm-9.691-9.691c1.16-1.16 3.515-.686 4.679.478a2.974 2.974 0 0 1 .006 4.207c-1.16 1.16-3.783 1.898-4.947.734-1.164-1.164-.898-4.259.262-5.419zm-9.701-9.701c1.16-1.16 3.525-.676 4.689.488a2.974 2.974 0 0 1 .006 4.207c-1.16 1.16-3.784 1.898-4.947.734-1.164-1.164-.908-4.269.252-5.43zm-9.691-9.691c1.16-1.16 3.525-.676 4.678.478a2.974 2.974 0 0 1 .007 4.207c-1.16 1.16-3.784 1.897-4.948.734-1.153-1.154-.897-4.259.263-5.42zm-9.691-9.692c1.16-1.16 3.514-.685 4.678.478a2.974 2.974 0 0 1 .007 4.207c-1.16 1.16-3.784 1.898-4.948.734-1.164-1.163-.898-4.258.263-5.419zm-9.702-9.701c1.16-1.16 3.525-.675 4.689.488a2.962 2.962 0 0 1-.004 4.197c-1.16 1.16-3.773 1.908-4.937.744-1.164-1.164-.908-4.269.252-5.429zm-9.691-9.692c1.16-1.16 3.525-.675 4.679.479a2.974 2.974 0 0 1 .006 4.207c-1.16 1.16-3.784 1.898-4.947.734-1.154-1.154-.898-4.259.262-5.42zm202.799 185.012c1.16-1.161 3.514-.686 4.678.478a2.974 2.974 0 0 1 .007 4.207c-1.161 1.16-3.784 1.897-4.948.734-1.164-1.164-.898-4.259.263-5.419zm-9.702-9.702c1.161-1.16 3.525-.675 4.689.488a2.97 2.97 0 0 1-.004 4.197c-1.16 1.161-3.783 1.898-4.937.744-1.164-1.163-.908-4.268.252-5.429zm-9.691-9.691c1.161-1.16 3.515-.686 4.679.478a2.974 2.974 0 0 1 .006 4.207c-1.16 1.161-3.783 1.898-4.947.734-1.164-1.164-.898-4.259.262-5.419zm-9.701-9.701c1.16-1.161 3.525-.676 4.688.488a2.962 2.962 0 0 1-.003 4.197c-1.16 1.16-3.774 1.908-4.937.744-1.164-1.164-.908-4.269.252-5.429zm-9.691-9.691c1.16-1.161 3.524-.676 4.688.488a2.971 2.971 0 0 1-.003 4.197c-1.161 1.16-3.784 1.897-4.938.744-1.163-1.164-.908-4.269.253-5.429zm-9.692-9.692c1.161-1.16 3.515-.685 4.679.479a2.974 2.974 0 0 1 .007 4.207c-1.161 1.16-3.784 1.897-4.948.734-1.164-1.164-.898-4.259.262-5.42zm-9.701-9.701c1.16-1.16 3.525-.675 4.689.488a2.962 2.962 0 0 1-.004 4.197c-1.16 1.161-3.773 1.908-4.937.744-1.164-1.164-.908-4.268.252-5.429zm-9.691-9.691c1.16-1.16 3.525-.676 4.679.478a2.975 2.975 0 0 1 .006 4.207c-1.16 1.16-3.784 1.898-4.947.734-1.154-1.154-.898-4.259.262-5.419zm-9.691-9.691c1.16-1.161 3.515-.686 4.678.478a2.974 2.974 0 0 1 .007 4.207c-1.16 1.16-3.784 1.898-4.948.734-1.163-1.164-.898-4.259.263-5.419zm-9.701-9.701c1.16-1.161 3.524-.676 4.688.488a2.971 2.971 0 0 1-.003 4.197c-1.161 1.16-3.784 1.897-4.938.744-1.164-1.164-.908-4.269.253-5.429zm-9.692-9.692c1.161-1.16 3.515-.685 4.679.478a2.973 2.973 0 0 1 .006 4.207c-1.16 1.161-3.783 1.898-4.947.734-1.164-1.163-.898-4.258.262-5.419zm-9.701-9.701c1.16-1.16 3.525-.676 4.689.488a2.962 2.962 0 0 1-.004 4.197c-1.16 1.16-3.774 1.908-4.937.744-1.164-1.164-.908-4.269.252-5.429zm-9.691-9.691c1.16-1.16 3.525-.676 4.678.478a2.974 2.974 0 0 1 .007 4.207c-1.16 1.16-3.784 1.898-4.948.734-1.153-1.154-.897-4.259.263-5.42zm-9.691-9.691c1.16-1.16 3.514-.686 4.678.478a2.974 2.974 0 0 1 .007 4.207c-1.16 1.16-3.784 1.897-4.948.734-1.163-1.164-.898-4.259.263-5.42zm-9.702-9.702c1.16-1.16 3.525-.675 4.689.489a2.971 2.971 0 0 1-.003 4.197c-1.16 1.16-3.784 1.897-4.938.743-1.164-1.163-.908-4.268.252-5.429zm-9.691-9.691c1.16-1.16 3.515-.685 4.679.478a2.974 2.974 0 0 1 .006 4.207c-1.16 1.16-3.784 1.898-4.947.734-1.164-1.163-.898-4.258.262-5.419zm-9.701-9.701c1.16-1.16 3.525-.676 4.689.488a2.974 2.974 0 0 1 .006 4.207c-1.16 1.16-3.784 1.898-4.947.734-1.164-1.164-.908-4.269.252-5.43zm-9.691-9.692c1.16-1.16 3.524-.675 4.678.479a2.974 2.974 0 0 1 .007 4.207c-1.16 1.16-3.784 1.898-4.948.734-1.153-1.154-.898-4.259.263-5.42zm-9.691-9.69c1.16-1.16 3.514-.686 4.678.478a2.974 2.974 0 0 1 .007 4.207c-1.16 1.16-3.784 1.897-4.948.733-1.164-1.163-.898-4.258.262-5.419zm-9.702-9.702c1.16-1.16 3.525-.675 4.689.488a2.962 2.962 0 0 1-.004 4.197c-1.16 1.16-3.773 1.908-4.937.744-1.164-1.164-.908-4.268.252-5.429zm-9.691-9.691c1.16-1.16 3.525-.676 4.679.478a2.974 2.974 0 0 1 .006 4.207c-1.16 1.16-3.784 1.898-4.947.734-1.154-1.154-.898-4.259.262-5.419zm-9.701-9.701c1.16-1.16 3.525-.676 4.688.488A2.974 2.974 0 0 1-.527 7.74c-1.16 1.16-3.784 1.898-4.948.734-1.163-1.164-.908-4.269.253-5.43zm202.798 185.01c1.161-1.16 3.525-.675 4.689.489a2.97 2.97 0 0 1-.004 4.197c-1.161 1.161-3.783 1.897-4.937.744-1.164-1.164-.909-4.268.252-5.43zm-9.691-9.691c1.16-1.16 3.515-.685 4.679.478a2.975 2.975 0 0 1 .006 4.207c-1.161 1.162-3.784 1.898-4.947.734-1.164-1.164-.899-4.257.262-5.419zm-9.701-9.701c1.16-1.16 3.525-.676 4.688.488a2.962 2.962 0 0 1-.003 4.197c-1.161 1.161-3.774 1.908-4.938.744-1.163-1.164-.909-4.268.253-5.429zm-9.691-9.691c1.16-1.161 3.524-.676 4.688.488a2.971 2.971 0 0 1-.003 4.197c-1.162 1.161-3.784 1.898-4.938.744-1.164-1.164-.909-4.268.253-5.429zm-9.692-9.691c1.161-1.161 3.515-.686 4.679.478a2.973 2.973 0 0 1 .006 4.207c-1.161 1.161-3.783 1.897-4.947.734-1.164-1.164-.899-4.258.262-5.419zm-9.701-9.702c1.16-1.16 3.525-.675 4.689.488a2.962 2.962 0 0 1-.004 4.197c-1.161 1.162-3.774 1.908-4.937.744-1.164-1.163-.909-4.267.252-5.429zm-9.691-9.691c1.16-1.16 3.525-.676 4.678.478a2.974 2.974 0 0 1 .007 4.207c-1.161 1.162-3.784 1.898-4.947.734-1.154-1.154-.899-4.258.262-5.419zm-9.691-9.691c1.16-1.161 3.514-.686 4.678.478a2.974 2.974 0 0 1 .007 4.207c-1.162 1.161-3.784 1.898-4.948.734-1.164-1.164-.899-4.258.263-5.419zm-9.702-9.701c1.161-1.161 3.525-.676 4.689.488a2.97 2.97 0 0 1-.004 4.197c-1.161 1.161-3.783 1.897-4.937.744-1.164-1.164-.909-4.268.252-5.429zm-9.691-9.692c1.161-1.16 3.515-.685 4.679.478a2.973 2.973 0 0 1 .006 4.207c-1.161 1.162-3.783 1.898-4.947.734-1.164-1.163-.899-4.257.262-5.419zm-9.701-9.701c1.16-1.16 3.525-.675 4.689.488a2.963 2.963 0 0 1-.004 4.197c-1.161 1.162-3.774 1.908-4.937.744-1.164-1.163-.91-4.267.252-5.429zm-9.691-9.691c1.16-1.16 3.525-.676 4.678.478a2.974 2.974 0 0 1 .007 4.207c-1.161 1.161-3.784 1.898-4.948.734-1.153-1.154-.899-4.258.263-5.42zm-9.691-9.691c1.16-1.16 3.514-.686 4.678.478a2.974 2.974 0 0 1 .007 4.207c-1.162 1.161-3.784 1.898-4.948.734-1.164-1.164-.899-4.258.263-5.42zM71.54 62.02c1.16-1.16 3.525-.675 4.689.489a2.971 2.971 0 0 1-.004 4.197c-1.161 1.16-3.783 1.897-4.937.743-1.164-1.163-.91-4.267.252-5.428zm-9.691-9.69c1.16-1.161 3.515-.686 4.679.477a2.974 2.974 0 0 1 .006 4.207c-1.161 1.162-3.784 1.898-4.947.734-1.164-1.163-.9-4.257.262-5.419zm-9.701-9.702c1.16-1.16 3.525-.676 4.688.488a2.974 2.974 0 0 1 .007 4.207c-1.161 1.161-3.784 1.898-4.948.734-1.163-1.164-.909-4.268.253-5.429zm-9.691-9.691c1.16-1.16 3.524-.676 4.678.478a2.974 2.974 0 0 1 .007 4.207c-1.162 1.161-3.784 1.898-4.948.734-1.154-1.154-.899-4.258.263-5.42zm-9.692-9.691c1.16-1.16 3.515-.686 4.679.478a2.974 2.974 0 0 1 .006 4.207c-1.16 1.161-3.783 1.897-4.947.734-1.164-1.164-.899-4.258.262-5.42zm-9.701-9.702c1.16-1.16 3.525-.675 4.689.489a2.962 2.962 0 0 1-.004 4.197c-1.161 1.16-3.773 1.907-4.937.743-1.164-1.163-.91-4.267.252-5.429zm-9.691-9.691c1.16-1.16 3.525-.675 4.679.478a2.974 2.974 0 0 1 .006 4.207c-1.161 1.162-3.784 1.898-4.947.734-1.154-1.154-.9-4.258.262-5.419zM3.672-5.848c1.16-1.16 3.525-.676 4.688.488a2.974 2.974 0 0 1 .007 4.207C7.205.008 4.583.745 3.419-.419c-1.163-1.164-.909-4.268.253-5.43z"/></g><path d="M338.975 147.357a17.45 17.45 0 0 0-12.392 1.626c-8.51 4.598-11.681 15.223-7.084 23.733a17.461 17.461 0 0 0 10.4 8.458 17.458 17.458 0 0 0 13.334-1.374 17.447 17.447 0 0 0 8.152-9.473l-12.41-22.97zm-10.448 21.236l-3.324-.991 5.276-4.821.813 3.176-2.765 2.636zm1.61.481l8.497-8.102 2.667 11.434-11.164-3.332zm18.149-1.413a16.02 16.02 0 0 1-6.958-6.738 15.93 15.93 0 0 1-1.897-6.548 16.025 16.025 0 0 1 .076-2.965l8.779 16.251zm-1.137 7.126a15.984 15.984 0 0 1-4.61 3.729 15.998 15.998 0 0 1-12.222 1.259 15.983 15.983 0 0 1-9.533-7.752 15.999 15.999 0 0 1-1.26-12.223 15.998 15.998 0 0 1 7.753-9.533 15.985 15.985 0 0 1 10.733-1.627l.381.704a17.455 17.455 0 0 0 .427 9.436l-6.316 6.022-1.212-4.74-8.975 8.201 4.995 1.491 6.992 2.087 8.991 2.683-2.846-12.202a17.445 17.445 0 0 0 8.955 7.404l.381.705a15.955 15.955 0 0 1-2.634 4.356z" fill="url(#b)" style="mix-blend-mode:multiply"/><g clip-path="url(#c)"><path d="M337.108 424.448l-5.774-11.168 8.299-4.681c1.654-.932 2.288-3.056 1.416-4.743a3.305 3.305 0 0 0-1.994-1.665 3.306 3.306 0 0 0-2.58.3l-8.299 4.681-5.773-11.168-5.99 3.377 5.774 11.169-9.539 5.38-1.416 4.743 4.574 1.365 9.539-5.38 5.774 11.168 5.989-3.378zm-6.3-12.186l-.787-1.523 6.302-3.554.788 1.522-6.303 3.555zm6.194-8.753a2.193 2.193 0 0 1 3.049.91 2.399 2.399 0 0 1-.944 3.162l-.999.563-2.105-4.072.999-.563zm-1.997 1.126l.792 1.532-6.302 3.554-.793-1.531 6.303-3.555zm-13.074-7.05l1.037 2.005-.999.563a.6.6 0 0 0-.236.791.55.55 0 0 0 .763.228l.001-.001.996-.563 1.053 2.037-.998.563a.598.598 0 0 0-.236.79.549.549 0 0 0 .762.228v-.001l.999-.562 1.053 2.036-.998.562-.001.001a.599.599 0 0 0-.236.79.55.55 0 0 0 .763.228l.998-.563 1.052 2.036-.997.563a.596.596 0 0 0-.236.79.548.548 0 0 0 .762.228l.997-.563 1.053 2.036-.998.563a.598.598 0 0 0-.236.79.549.549 0 0 0 .762.228h.001l.998-.563 1.053 2.036-.999.563a.6.6 0 0 0-.236.791.549.549 0 0 0 .763.227l.998-.563 1.052 2.036-.997.563a.597.597 0 0 0-.236.791c.144.28.485.383.761.227h.001l.997-.563 1.053 2.036-.997.563h-.001a.6.6 0 0 0-.236.791.548.548 0 0 0 .762.227l.999-.563 1.037 2.006-3.993 2.252-13.653-26.408 3.993-2.252zm-9.288 22.292l.277-.927.617 1.193-.894-.266zm3.049.91l-.631-.189-1.669-3.229.195-.654 9.126-5.147.792 1.531-7.043 3.973a.598.598 0 0 0-.236.791.547.547 0 0 0 .761.227l7.045-3.972.787 1.522-9.127 5.147z" fill="#fff"/></g><path d="M366.248 326.217l-6.198 3.221a.582.582 0 0 0 .537 1.033l6.198-3.221a.582.582 0 0 0-.537-1.033z" fill="url(#d)" style="mix-blend-mode:multiply"/><path d="M359.513 328.405l2.066-1.074a.583.583 0 0 0-.537-1.032l-2.065 1.074a.58.58 0 1 0 .536 1.032z" fill="url(#e)" style="mix-blend-mode:multiply"/><path d="M374.556 320.225l-1.774-1.09-.315 5.162 1.968-1.022 2.753-1.432 3.543-1.841-6.013-3.873-.162 4.096zm-.802 2.091l.072-1.174.676.416-.014.376-.734.382zm1.923-1l.123-3.104 2.613 1.682-2.736 1.422z" fill="url(#f)" style="mix-blend-mode:multiply"/><path d="M375.299 305.767l-23.758 12.349a.582.582 0 0 0-.248.785l7.517 14.462a.582.582 0 0 0 .785.247l23.757-12.348a.583.583 0 0 0 .248-.785l-7.517-14.461a.582.582 0 0 0-.784-.249zm-.994 1.829l-7.029 11.324a.53.53 0 0 1-.361.187l-13.311-.751 20.701-10.76zm-14.731 24.713l-6.667-12.826 13.942.787c.264.015.548-.057.801-.189a1.58 1.58 0 0 0 .615-.547l7.366-11.866 6.667 12.829-22.724 11.812z" fill="url(#g)" style="mix-blend-mode:multiply"/><path d="M387.534 115.648c2.01-6.736-1.794-13.818-8.498-15.819a12.57 12.57 0 0 0-6.556-.18 12.563 12.563 0 0 0-5.581-3.442c-6.704-2.001-13.768 1.837-15.778 8.572a12.734 12.734 0 0 0 2.988 12.452c-1.082 6.259 2.639 12.472 8.848 14.325 6.21 1.853 12.728-1.304 15.253-7.132a12.733 12.733 0 0 0 9.324-8.776zm-31.993 2.868a12.587 12.587 0 0 0 4.078 2.082c2.21.66 4.46.684 6.555.179a12.553 12.553 0 0 0 5.582 3.443 12.56 12.56 0 0 0 4.552.494 11.107 11.107 0 0 1-4.453 4.434 11.053 11.053 0 0 1-4.059 1.28 10.981 10.981 0 0 1-4.384-.396 10.961 10.961 0 0 1-3.884-2.072 11.053 11.053 0 0 1-2.693-3.295 11.098 11.098 0 0 1-1.294-6.149zm21.515 4.514a10.942 10.942 0 0 1-4.845-.334 10.962 10.962 0 0 1-4.328-2.461 12.723 12.723 0 0 0 7.392-7.829c.407.513.77 1.065 1.084 1.65a11.12 11.12 0 0 1 .697 8.974zm-3.039-11.965a11.091 11.091 0 0 1-2.211 4.411 11.108 11.108 0 0 1-3.29 2.713c-.582.317-1.184.578-1.803.783a11.032 11.032 0 0 1-1.079-1.643 11.118 11.118 0 0 1-.696-8.973 10.975 10.975 0 0 1 4.844.333 10.961 10.961 0 0 1 4.235 2.376zm-3.78-3.9a12.573 12.573 0 0 0-4.55-.494 11.117 11.117 0 0 1 4.451-4.433 10.96 10.96 0 0 1 1.804-.783c.405.511.765 1.059 1.079 1.643a11.118 11.118 0 0 1 1.293 6.148 12.58 12.58 0 0 0-4.077-2.081zm-7.086 1.622a12.727 12.727 0 0 0 1.892 10.601 10.958 10.958 0 0 1-4.969-.314 10.969 10.969 0 0 1-4.236-2.377 11.128 11.128 0 0 1 7.313-7.91zm7.621-8.595a12.72 12.72 0 0 0-6.987 6.769 12.736 12.736 0 0 0-9.205 8.396 11.148 11.148 0 0 1-1.083-1.65 11.116 11.116 0 0 1-.859-8.475 11.102 11.102 0 0 1 2.074-3.904 11.088 11.088 0 0 1 3.289-2.713 11.055 11.055 0 0 1 4.059-1.28 10.968 10.968 0 0 1 4.384.396 10.96 10.96 0 0 1 4.328 2.461zm15.65 10.601c.161 1.479.025 2.96-.405 4.402a11.118 11.118 0 0 1-5.364 6.617c-.583.318-1.188.58-1.81.786a12.735 12.735 0 0 0-3.097-12.067 12.72 12.72 0 0 0-2.134-9.491 10.96 10.96 0 0 1 4.969.313 10.993 10.993 0 0 1 3.884 2.072 11.045 11.045 0 0 1 2.693 3.296 11.074 11.074 0 0 1 1.264 4.072z" fill="url(#h)" style="mix-blend-mode:multiply"/><path d="M274.116 111.203l5.593 6.943 2.397 2.976 5.594 6.943 24.604-18.186-15.182-18.845-23.006 20.169zm1.758.152l1.918-1.68 4.893 6.074-1.984 1.598-4.827-5.992zm5.627 6.984l3.967-3.196.799.992-3.967 3.196-.799-.992zm1.597 1.984l1.984-1.598 4.894 6.074-2.05 1.516-4.828-5.992zm27.381-10.678l-19.478 14.397-4.927-6.117 1.984-1.598a.636.636 0 1 0-.799-.991.638.638 0 0 0-.799-.992.637.637 0 1 0-.8-.992l-1.983 1.598-4.927-6.115 18.213-15.968 13.516 16.778z" fill="#fff"/><path d="M290.442 109.812l6.089-.976-1.081 2.938 7.708-1.067-2.093-2.598-2.93-3.637-3.767-4.676-3.926 10.016zm10.312-.058l-3.376.467.594-1.616 1.644-.263 1.138 1.412zm-2.058-2.555l-6.255 1.002 2.312-5.896 3.943 4.894zm58.953 146.036l-2.497-4.921-7.866 11.229 5.863.415 8.21.581 10.552.746-8.22-17.08-6.042 9.03zm-6.883 4.651l4.125-5.889 1.547 3.047-2.072 3.097-3.6-.255zm5.782.409l6.873-10.273 5.361 11.138-12.234-.865z" fill="#fff"/><path d="M373.983 231.984l.137-1.935a.959.959 0 0 0-.878-1.034.96.96 0 0 0-1.016.9l-.137 1.935-3.789-.268.137-1.935a.959.959 0 0 0-.878-1.034.96.96 0 0 0-1.016.901l-.137 1.934-3.788-.268.137-1.934a.96.96 0 0 0-.879-1.034.96.96 0 0 0-1.016.9l-.137 1.934-3.788-.268.137-1.934a.958.958 0 0 0-.879-1.034.96.96 0 0 0-1.016.9l-.136 1.934-3.789-.268.137-1.934a.959.959 0 0 0-.878-1.034.96.96 0 0 0-1.016.9l-.137 1.934-5.683-.401-3.01 42.561 35.991 2.546 3.01-42.562-5.683-.402zm.913 40.935l-32.203-2.278 2.742-38.772 3.789.268-.131 1.854a.96.96 0 0 0 .879 1.034.96.96 0 0 0 1.015-.9l.131-1.854 3.789.268-.131 1.854a.96.96 0 0 0 .879 1.034.96.96 0 0 0 1.015-.9l.131-1.854 3.788.268-.131 1.853a.96.96 0 0 0 .88 1.035.96.96 0 0 0 1.015-.901l.131-1.853 3.788.268-.131 1.853a.96.96 0 0 0 .879 1.035.96.96 0 0 0 1.015-.901l.131-1.853 3.789.268-.131 1.853a.96.96 0 0 0 .879 1.035.96.96 0 0 0 1.015-.901l.131-1.853 3.789.268-2.742 38.772zm15.755 101.51l1.119-3.749-5.699-1.701 1.972-6.607-3.935-1.174-1.971 6.606-5.699-1.7-1.119 3.749 5.698 1.701-2.057 6.892 3.935 1.175 2.057-6.893 5.699 1.701z" fill="#fff"/><circle cx="302.61" cy="333.742" r="8" transform="rotate(16.619 302.61 333.742)" stroke="#fff" stroke-width="10"/></g><defs><linearGradient id="b" x1="355.987" y1="153.318" x2="315.022" y2="153.177" gradientUnits="userSpaceOnUse"><stop stop-color="#FFC000"/><stop offset="1" stop-color="#FF8A00"/></linearGradient><linearGradient id="d" x1="366.683" y1="326.022" x2="366.804" y2="330.359" gradientUnits="userSpaceOnUse"><stop stop-color="#FFC000"/><stop offset="1" stop-color="#FF8A00"/></linearGradient><linearGradient id="e" x1="361.532" y1="326.076" x2="360.387" y2="329.055" gradientUnits="userSpaceOnUse"><stop stop-color="#FFC000"/><stop offset="1" stop-color="#FF8A00"/></linearGradient><linearGradient id="f" x1="377.829" y1="314.682" x2="371.332" y2="322.795" gradientUnits="userSpaceOnUse"><stop stop-color="#FFC000"/><stop offset="1" stop-color="#FF8A00"/></linearGradient><linearGradient id="g" x1="375.687" y1="306.042" x2="357.007" y2="330.574" gradientUnits="userSpaceOnUse"><stop stop-color="#FFC000"/><stop offset="1" stop-color="#FF8A00"/></linearGradient><linearGradient id="h" x1="390.458" y1="104.122" x2="346.305" y2="104.99" gradientUnits="userSpaceOnUse"><stop stop-color="#FFC000"/><stop offset="1" stop-color="#FF8A00"/></linearGradient><clipPath id="c"><path fill="#fff" transform="rotate(16.619 -1192.093 1285.376)" d="M0 0h27v28H0z"/></clipPath></defs></svg>