<svg width="269" height="327" viewBox="0 0 269 327" fill="none" xmlns="http://www.w3.org/2000/svg"><mask id="a" maskUnits="userSpaceOnUse" x="-197" y="-139" width="466" height="466"><path fill-rule="evenodd" clip-rule="evenodd" d="M-107.767 125.056c-84.072-32.323-17.759-91.834 4.464-149.41 57.913-150.071 300.095 36.93 227.594 50.039-72.5 13.11-42.045 80.93 10.063 133.038 88.495 88.495-80.352 198.753-139.928 81.058-32.1-63.407-18.11-82.393-102.193-114.725z" fill="#fff"/></mask><g mask="url(#a)" fill-rule="evenodd" clip-rule="evenodd" fill="#fff"><path d="M9.462 324.868c1.16-1.16 3.515-.687 4.68.477a2.975 2.975 0 0 1 .005 4.208c-1.16 1.161-3.783 1.897-4.947.733-1.163-1.164-.899-4.258.262-5.418zm-9.702-9.701c1.16-1.16 3.526-.677 4.69.487a2.972 2.972 0 0 1-.004 4.198c-1.16 1.16-3.783 1.897-4.937.743-1.164-1.164-.909-4.268.252-5.428zm28.287 10.498c1.16-1.16 3.526-.676 4.68.478a2.975 2.975 0 0 1 .005 4.208c-1.16 1.16-3.783 1.896-4.947.732-1.153-1.153-.898-4.257.262-5.418zm-9.691-9.691c1.16-1.16 3.515-.686 4.68.477a2.975 2.975 0 0 1 .005 4.208c-1.16 1.161-3.783 1.897-4.947.733-1.164-1.163-.899-4.257.262-5.418zm-9.702-9.701c1.16-1.16 3.526-.677 4.69.487a2.972 2.972 0 0 1-.005 4.198c-1.16 1.16-3.782 1.897-4.936.743-1.164-1.164-.909-4.268.251-5.428zm-9.691-9.691c1.16-1.161 3.516-.687 4.68.477a2.975 2.975 0 0 1 .005 4.208c-1.16 1.16-3.782 1.897-4.946.733-1.164-1.164-.9-4.258.261-5.418zm47.669 29.881c1.16-1.161 3.526-.677 4.69.487a2.963 2.963 0 0 1-.005 4.198c-1.16 1.16-3.773 1.907-4.937.743-1.163-1.164-.908-4.268.252-5.428zm-9.692-9.691c1.161-1.161 3.527-.677 4.68.477a2.975 2.975 0 0 1 .006 4.208c-1.16 1.16-3.783 1.896-4.947.733-1.153-1.154-.899-4.258.262-5.418zm-9.69-9.692c1.16-1.16 3.515-.686 4.68.477a2.975 2.975 0 0 1 .005 4.208c-1.16 1.161-3.783 1.897-4.947.733-1.164-1.163-.899-4.257.262-5.418zm-9.702-9.701c1.16-1.16 3.526-.677 4.69.487a2.973 2.973 0 0 1-.005 4.198c-1.16 1.161-3.782 1.897-4.936.743-1.164-1.164-.909-4.268.251-5.428zm-9.691-9.691c1.16-1.16 3.516-.687 4.68.477a2.975 2.975 0 0 1 .005 4.208c-1.16 1.16-3.783 1.897-4.946.733-1.164-1.164-.9-4.258.261-5.418zm-9.701-9.701c1.16-1.161 3.526-.677 4.69.487a2.963 2.963 0 0 1-.005 4.198c-1.16 1.16-3.773 1.906-4.937.743-1.163-1.164-.908-4.268.252-5.428zm67.071 49.283c1.16-1.16 3.516-.687 4.68.477a2.975 2.975 0 0 1 .005 4.208c-1.16 1.161-3.783 1.897-4.946.733-1.164-1.164-.9-4.258.261-5.418zm-9.701-9.701c1.16-1.16 3.526-.677 4.69.487a2.963 2.963 0 0 1-.005 4.198c-1.16 1.16-3.773 1.907-4.936.743-1.164-1.164-.91-4.268.251-5.428zm-9.691-9.691c1.16-1.161 3.525-.677 4.68.477a2.975 2.975 0 0 1 .005 4.208c-1.16 1.16-3.783 1.896-4.947.733-1.154-1.154-.899-4.258.262-5.418zm-9.692-9.692c1.16-1.16 3.516-.686 4.68.478a2.975 2.975 0 0 1 .005 4.208c-1.16 1.16-3.782 1.896-4.946.732-1.164-1.163-.899-4.257.261-5.418zm-9.701-9.701c1.16-1.16 3.526-.676 4.69.487a2.973 2.973 0 0 1-.005 4.198c-1.16 1.161-3.782 1.897-4.936.743-1.164-1.163-.91-4.267.251-5.428zm-9.691-9.691c1.16-1.16 3.516-.687 4.68.477a2.975 2.975 0 0 1 .005 4.208c-1.16 1.16-3.783 1.897-4.946.733-1.164-1.164-.9-4.258.261-5.418zm-9.701-9.701c1.16-1.161 3.526-.677 4.69.487a2.963 2.963 0 0 1-.005 4.198c-1.16 1.16-3.773 1.907-4.937.743-1.163-1.164-.909-4.268.252-5.428zm-9.691-9.691c1.16-1.161 3.525-.677 4.69.487a2.972 2.972 0 0 1-.005 4.198c-1.16 1.16-3.783 1.896-4.937.743-1.164-1.164-.909-4.268.252-5.428zm86.453 68.665c1.16-1.16 3.526-.676 4.69.488a2.972 2.972 0 0 1-.005 4.198c-1.16 1.16-3.782 1.896-4.936.743-1.164-1.164-.909-4.268.251-5.429zm-9.692-9.691c1.161-1.16 3.517-.686 4.68.477a2.975 2.975 0 0 1 .006 4.208c-1.16 1.161-3.783 1.897-4.947.733-1.163-1.163-.898-4.257.262-5.418zm-9.7-9.701c1.16-1.16 3.526-.677 4.69.487a2.963 2.963 0 0 1-.005 4.198c-1.16 1.16-3.773 1.907-4.937.743-1.163-1.164-.909-4.268.252-5.428zm-9.691-9.691c1.16-1.161 3.525-.677 4.68.477a2.975 2.975 0 0 1 .005 4.208c-1.16 1.16-3.783 1.897-4.947.733-1.154-1.154-.899-4.258.262-5.418zm-9.692-9.691c1.16-1.161 3.516-.687 4.68.477a2.975 2.975 0 0 1 .005 4.208c-1.16 1.16-3.782 1.896-4.946.733-1.164-1.164-.899-4.258.261-5.418zM25.645 269.9c1.16-1.16 3.516-.687 4.68.477a2.975 2.975 0 0 1 .005 4.208c-1.16 1.161-3.783 1.897-4.947.733-1.163-1.164-.898-4.258.262-5.418zm-9.701-9.701c1.16-1.16 3.525-.677 4.69.487a2.963 2.963 0 0 1-.005 4.198c-1.16 1.16-3.773 1.907-4.937.743-1.163-1.164-.909-4.268.252-5.428zm-9.691-9.691c1.16-1.161 3.525-.677 4.69.487a2.973 2.973 0 0 1-.005 4.198c-1.16 1.16-3.783 1.896-4.937.743-1.164-1.164-.909-4.268.252-5.428zm86.453 68.666c1.16-1.161 3.526-.677 4.69.487a2.972 2.972 0 0 1-.005 4.198c-1.16 1.16-3.782 1.896-4.936.743-1.164-1.164-.91-4.268.251-5.428zm-9.691-9.692c1.16-1.16 3.516-.686 4.68.477a2.975 2.975 0 0 1 .005 4.208c-1.16 1.161-3.783 1.897-4.946.733-1.164-1.163-.9-4.257.261-5.418zm-9.701-9.701c1.16-1.16 3.525-.677 4.69.487a2.963 2.963 0 0 1-.005 4.198c-1.16 1.161-3.773 1.907-4.937.743-1.164-1.164-.909-4.268.252-5.428zm-19.383-19.382c1.16-1.161 3.516-.687 4.68.477a2.975 2.975 0 0 1 .005 4.208c-1.16 1.16-3.782 1.896-4.946.733-1.164-1.164-.9-4.258.261-5.418zm-9.701-9.702c1.16-1.16 3.526-.676 4.69.488a2.973 2.973 0 0 1-.005 4.198c-1.16 1.16-3.783 1.896-4.936.742-1.164-1.163-.91-4.267.251-5.428zm-9.691-9.691c1.16-1.16 3.515-.686 4.68.477a2.975 2.975 0 0 1 .005 4.208c-1.16 1.161-3.783 1.897-4.947.733-1.163-1.164-.899-4.257.262-5.418zm-9.702-9.701c1.16-1.16 3.526-.677 4.69.487a2.963 2.963 0 0 1-.004 4.198c-1.16 1.16-3.773 1.907-4.937.743-1.164-1.164-.909-4.268.252-5.428zm-9.691-9.691c1.16-1.161 3.526-.677 4.69.487a2.973 2.973 0 0 1-.005 4.198c-1.16 1.16-3.782 1.897-4.936.743-1.164-1.164-.909-4.268.251-5.428zm-9.691-9.691c1.16-1.161 3.516-.687 4.68.477a2.976 2.976 0 0 1 .005 4.208c-1.16 1.16-3.783 1.896-4.946.733-1.164-1.164-.9-4.258.261-5.418zm-9.701-9.702c1.16-1.16 3.526-.676 4.69.487a2.963 2.963 0 0 1-.005 4.198c-1.16 1.161-3.773 1.907-4.937.743-1.163-1.163-.909-4.267.252-5.428zm115.547 97.76c1.161-1.16 3.516-.687 4.68.477a2.975 2.975 0 0 1 .005 4.208c-1.16 1.16-3.782 1.897-4.946.733-1.164-1.164-.899-4.258.261-5.418zm-9.701-9.701c1.16-1.161 3.526-.677 4.689.487a2.973 2.973 0 0 1-.004 4.198c-1.16 1.16-3.783 1.896-4.936.743-1.164-1.164-.909-4.268.251-5.428zm-9.691-9.692c1.16-1.16 3.516-.686 4.68.478a2.975 2.975 0 0 1 .005 4.208c-1.16 1.16-3.783 1.896-4.947.732-1.163-1.163-.899-4.257.262-5.418zm-9.701-9.701c1.16-1.16 3.525-.676 4.69.487a2.963 2.963 0 0 1-.005 4.198c-1.16 1.161-3.773 1.907-4.937.743-1.163-1.163-.909-4.267.252-5.428zm-9.692-9.691c1.16-1.16 3.526-.677 4.68.477a2.975 2.975 0 0 1 .005 4.208c-1.16 1.16-3.782 1.897-4.946.733-1.154-1.154-.899-4.258.261-5.418zm-9.691-9.691c1.16-1.161 3.516-.687 4.68.477a2.975 2.975 0 0 1 .005 4.208c-1.16 1.16-3.783 1.897-4.946.733-1.164-1.164-.9-4.258.261-5.418zm-9.701-9.701c1.16-1.161 3.526-.677 4.69.487a2.973 2.973 0 0 1-.005 4.198c-1.16 1.16-3.783 1.896-4.936.743-1.164-1.164-.91-4.268.25-5.428zm-9.691-9.692c1.16-1.16 3.516-.686 4.68.477a2.975 2.975 0 0 1 .005 4.208c-1.16 1.161-3.783 1.897-4.947.733-1.163-1.163-.899-4.257.262-5.418zm-9.702-9.701c1.16-1.16 3.526-.677 4.69.487a2.963 2.963 0 0 1-.004 4.198c-1.16 1.161-3.773 1.907-4.937.743-1.164-1.164-.909-4.268.252-5.428zm-9.691-9.691c1.16-1.16 3.526-.677 4.69.487a2.973 2.973 0 0 1-.005 4.198c-1.16 1.16-3.783 1.897-4.936.743-1.164-1.164-.91-4.268.251-5.428zm-9.691-9.691c1.16-1.161 3.516-.687 4.68.477a2.975 2.975 0 0 1 .005 4.208c-1.16 1.16-3.783 1.896-4.946.733-1.164-1.164-.9-4.258.261-5.418zm-9.701-9.702c1.16-1.16 3.526-.676 4.69.488a2.963 2.963 0 0 1-.005 4.198c-1.16 1.16-3.773 1.906-4.937.742-1.163-1.163-.909-4.267.252-5.428zm9.258-9.258c1.16-1.161 3.526-.677 4.69.487a2.963 2.963 0 0 1-.005 4.198c-1.16 1.16-3.772 1.907-4.936.743-1.164-1.164-.909-4.268.251-5.428zm-18.949-.433c1.16-1.16 3.525-.676 4.68.477a2.975 2.975 0 0 1 .005 4.208c-1.16 1.161-3.783 1.897-4.947.733-1.154-1.153-.899-4.257.262-5.418zm134.929 117.142c1.161-1.16 3.526-.676 4.68.477a2.975 2.975 0 0 1 .005 4.208c-1.16 1.161-3.782 1.897-4.946.733-1.154-1.153-.899-4.257.261-5.418zm-9.691-9.691c1.16-1.16 3.516-.687 4.68.477a2.976 2.976 0 0 1 .005 4.208c-1.16 1.16-3.783 1.897-4.946.733-1.164-1.164-.899-4.258.261-5.418zm-9.701-9.701c1.16-1.161 3.526-.677 4.69.487a2.973 2.973 0 0 1-.005 4.198c-1.16 1.16-3.783 1.897-4.936.743-1.164-1.164-.909-4.268.251-5.428zm-9.691-9.691c1.16-1.161 3.516-.687 4.679.477a2.976 2.976 0 0 1 .006 4.208c-1.16 1.16-3.783 1.896-4.947.733-1.163-1.164-.898-4.258.262-5.418zm-9.702-9.702c1.16-1.16 3.526-.676 4.69.487a2.963 2.963 0 0 1-.004 4.198c-1.16 1.161-3.773 1.907-4.937.743-1.164-1.163-.909-4.267.251-5.428zm-9.691-9.691c1.16-1.16 3.526-.677 4.68.477a2.975 2.975 0 0 1 .005 4.208c-1.16 1.161-3.782 1.897-4.946.733-1.154-1.154-.9-4.258.261-5.418zm-9.69-9.691c1.16-1.16 3.515-.687 4.679.477a2.975 2.975 0 0 1 .005 4.208c-1.16 1.16-3.783 1.897-4.946.733-1.164-1.164-.9-4.258.261-5.418zm-9.702-9.701c1.16-1.161 3.525-.677 4.69.487a2.973 2.973 0 0 1-.005 4.198c-1.16 1.16-3.783 1.896-4.937.743-1.163-1.164-.909-4.268.252-5.428zm-9.691-9.692c1.16-1.16 3.515-.686 4.679.477a2.977 2.977 0 0 1 .006 4.209c-1.16 1.16-3.783 1.896-4.947.732-1.164-1.163-.899-4.257.262-5.418zm-9.702-9.701c1.16-1.16 3.526-.676 4.69.487a2.963 2.963 0 0 1-.005 4.198c-1.16 1.161-3.772 1.907-4.936.743-1.164-1.164-.909-4.267.251-5.428zm-9.691-9.691c1.16-1.16 3.526-.677 4.69.487a2.973 2.973 0 0 1-.005 4.198c-1.16 1.16-3.782 1.897-4.936.743-1.164-1.164-.91-4.268.251-5.428zM3.85 194.742c1.16-1.16 3.526-.676 4.68.477a2.975 2.975 0 0 1 .006 4.208c-1.16 1.161-3.783 1.897-4.947.733-1.154-1.153-.899-4.257.261-5.418zm-9.69-9.691c1.16-1.16 3.515-.687 4.679.477a2.975 2.975 0 0 1 .005 4.208c-1.16 1.16-3.782 1.897-4.946.733-1.164-1.164-.9-4.258.261-5.418zm144.62 126.833c1.161-1.16 3.526-.676 4.68.477a2.975 2.975 0 0 1 .005 4.208c-1.16 1.161-3.782 1.897-4.946.733-1.154-1.153-.899-4.257.261-5.418zm-9.691-9.691c1.16-1.16 3.516-.687 4.679.477a2.976 2.976 0 0 1 .006 4.208c-1.16 1.161-3.783 1.897-4.946.733-1.164-1.164-.899-4.258.261-5.418zm-9.701-9.701c1.16-1.16 3.526-.677 4.689.487a2.973 2.973 0 0 1-.004 4.198c-1.16 1.16-3.783 1.897-4.937.743-1.163-1.164-.909-4.268.252-5.428zm-9.691-9.691c1.16-1.161 3.515-.687 4.679.477a2.976 2.976 0 0 1 .006 4.208c-1.161 1.16-3.783 1.896-4.947.733-1.164-1.164-.899-4.258.262-5.418zm-9.702-9.702c1.161-1.16 3.526-.676 4.69.488a2.963 2.963 0 0 1-.004 4.198c-1.161 1.16-3.773 1.906-4.937.743-1.164-1.164-.909-4.268.251-5.429zm-9.691-9.691c1.16-1.16 3.526-.676 4.68.477a2.975 2.975 0 0 1 .005 4.208c-1.16 1.161-3.783 1.897-4.946.733-1.154-1.153-.9-4.257.261-5.418zm-9.691-9.691c1.16-1.16 3.516-.687 4.68.477a2.975 2.975 0 0 1 .005 4.208c-1.16 1.16-3.783 1.897-4.947.733-1.163-1.164-.898-4.258.262-5.418zm-9.701-9.701c1.16-1.161 3.525-.677 4.69.487a2.973 2.973 0 0 1-.005 4.198c-1.16 1.16-3.783 1.897-4.937.743-1.163-1.164-.909-4.268.252-5.428zm-9.692-9.691c1.16-1.161 3.516-.687 4.68.477a2.975 2.975 0 0 1 .006 4.208c-1.16 1.16-3.783 1.896-4.947.733-1.164-1.164-.899-4.258.261-5.418zm-9.7-9.702c1.16-1.16 3.525-.676 4.689.487a2.963 2.963 0 0 1-.005 4.198c-1.16 1.161-3.773 1.907-4.936.743-1.164-1.163-.91-4.267.251-5.428zm-19.383-19.382c1.16-1.16 3.516-.687 4.68.477a2.975 2.975 0 0 1 .005 4.208c-1.16 1.16-3.783 1.897-4.947.733-1.163-1.164-.898-4.258.262-5.418zm-9.701-9.701c1.16-1.161 3.525-.677 4.69.487a2.963 2.963 0 0 1-.005 4.198c-1.16 1.16-3.773 1.906-4.937.743-1.164-1.164-.909-4.268.252-5.428zm-9.692-9.692c1.16-1.16 3.526-.676 4.68.478a2.976 2.976 0 0 1 .005 4.208c-1.16 1.16-3.782 1.896-4.946.732-1.154-1.153-.9-4.257.261-5.418zm-9.691-9.691c1.16-1.16 3.516-.686 4.68.477a2.975 2.975 0 0 1 .005 4.208c-1.16 1.161-3.783 1.897-4.946.733-1.164-1.164-.9-4.257.261-5.418zm-9.701-9.701c1.16-1.16 3.526-.677 4.69.487a2.972 2.972 0 0 1-.005 4.198c-1.16 1.16-3.783 1.897-4.936.743-1.164-1.164-.91-4.268.25-5.428zm154.321 136.535c1.161-1.16 3.526-.676 4.68.478a2.976 2.976 0 0 1 .005 4.208c-1.16 1.16-3.782 1.896-4.946.733-1.154-1.154-.899-4.258.261-5.419zm-9.691-9.691c1.16-1.16 3.516-.686 4.68.477a2.976 2.976 0 0 1 .005 4.208c-1.16 1.161-3.783 1.897-4.946.733-1.164-1.163-.899-4.257.261-5.418zm-9.701-9.701c1.16-1.16 3.525-.677 4.689.487a2.973 2.973 0 0 1-.004 4.198c-1.161 1.16-3.783 1.897-4.937.743-1.164-1.164-.909-4.268.252-5.428zm-19.393-19.392c1.161-1.161 3.526-.677 4.69.487a2.963 2.963 0 0 1-.005 4.198c-1.16 1.16-3.772 1.906-4.936.743-1.164-1.164-.909-4.268.251-5.428zm-9.691-9.692c1.16-1.16 3.526-.676 4.68.477a2.976 2.976 0 0 1 .005 4.208c-1.16 1.161-3.783 1.897-4.946.733-1.154-1.153-.9-4.257.261-5.418zm-9.691-9.691c1.16-1.16 3.516-.687 4.68.477a2.975 2.975 0 0 1 .005 4.208c-1.16 1.161-3.783 1.897-4.947.733-1.163-1.164-.899-4.258.262-5.418zm-9.701-9.701c1.16-1.16 3.525-.677 4.69.487a2.973 2.973 0 0 1-.005 4.198c-1.16 1.16-3.783 1.897-4.937.743-1.164-1.164-.909-4.268.252-5.428zm-9.692-9.691c1.16-1.161 3.516-.687 4.68.477a2.976 2.976 0 0 1 .005 4.208c-1.16 1.16-3.782 1.896-4.946.733-1.164-1.164-.899-4.258.261-5.418zM50.72 206.039c1.161-1.16 3.527-.676 4.69.487a2.973 2.973 0 0 1-.004 4.198c-1.16 1.161-3.783 1.897-4.937.743-1.163-1.163-.909-4.267.252-5.428zm-9.69-9.691c1.16-1.16 3.515-.687 4.68.477a2.976 2.976 0 0 1 .005 4.208c-1.16 1.16-3.783 1.897-4.947.733-1.163-1.164-.899-4.258.262-5.418zm-9.702-9.701c1.16-1.161 3.526-.677 4.69.487a2.963 2.963 0 0 1-.005 4.198c-1.16 1.16-3.772 1.907-4.936.743-1.164-1.164-.909-4.268.251-5.428zm-9.691-9.691c1.16-1.161 3.526-.677 4.68.477a2.975 2.975 0 0 1 .005 4.208c-1.16 1.16-3.782 1.896-4.946.733-1.154-1.154-.899-4.258.261-5.418zm-9.691-9.692c1.16-1.16 3.516-.686 4.68.477a2.975 2.975 0 0 1 .005 4.208c-1.16 1.161-3.783 1.897-4.947.733-1.163-1.163-.898-4.257.262-5.418zm-9.701-9.701c1.16-1.16 3.526-.677 4.69.487a2.972 2.972 0 0 1-.005 4.198c-1.16 1.16-3.783 1.897-4.937.743-1.163-1.164-.909-4.268.252-5.428zm154.323 136.534c1.16-1.161 3.526-.677 4.679.477a2.976 2.976 0 0 1 .006 4.208c-1.16 1.16-3.783 1.896-4.946.733-1.154-1.154-.899-4.258.261-5.418zm-9.691-9.692c1.16-1.16 3.516-.686 4.679.477a2.976 2.976 0 0 1 .006 4.208c-1.16 1.161-3.783 1.897-4.947.733-1.163-1.163-.899-4.257.262-5.418zm-9.701-9.701c1.16-1.16 3.525-.677 4.689.487a2.973 2.973 0 0 1-.004 4.198c-1.161 1.161-3.783 1.897-4.937.743-1.164-1.164-.909-4.268.252-5.428zm-19.393-19.392c1.16-1.161 3.526-.677 4.69.487a2.964 2.964 0 0 1-.005 4.198c-1.16 1.16-3.773 1.906-4.936.743-1.164-1.164-.909-4.268.251-5.428zm-9.691-9.692c1.16-1.16 3.526-.676 4.679.478a2.976 2.976 0 0 1 .006 4.208c-1.16 1.16-3.783 1.896-4.947.732-1.153-1.153-.898-4.257.262-5.418zm-9.692-9.691c1.161-1.16 3.516-.686 4.68.477a2.976 2.976 0 0 1 .006 4.208c-1.161 1.161-3.783 1.897-4.947.733-1.163-1.163-.899-4.257.262-5.418zm-9.7-9.701c1.16-1.16 3.525-.677 4.69.487a2.972 2.972 0 0 1-.005 4.198c-1.16 1.16-3.783 1.897-4.937.743-1.164-1.164-.909-4.268.252-5.428zm-9.692-9.691c1.16-1.161 3.516-.687 4.68.477a2.975 2.975 0 0 1 .005 4.208c-1.16 1.16-3.782 1.897-4.946.733-1.164-1.164-.9-4.258.261-5.418zm-55.4-2.767c1.16-1.16 3.515-.687 4.679.477a2.975 2.975 0 0 1 .006 4.208c-1.16 1.16-3.783 1.897-4.947.733-1.164-1.164-.899-4.258.262-5.418zm18.585.797c1.16-1.16 3.526-.676 4.69.488a2.971 2.971 0 0 1-.005 4.197c-1.16 1.161-3.783 1.897-4.937.743-1.163-1.163-.909-4.267.252-5.428zm18.585.798c1.16-1.161 3.526-.677 4.69.487a2.963 2.963 0 0 1-.005 4.198c-1.16 1.16-3.773 1.906-4.936.743-1.164-1.164-.91-4.268.25-5.428zm27.489-8.087c1.16-1.16 3.516-.687 4.68.477a2.975 2.975 0 0 1 .005 4.208c-1.16 1.161-3.783 1.897-4.947.733-1.163-1.164-.898-4.258.262-5.418zm-18.96-.443c1.16-1.16 3.526-.676 4.69.488a2.963 2.963 0 0 1-.005 4.198c-1.16 1.16-3.773 1.906-4.936.743-1.164-1.164-.91-4.268.251-5.429zm-9.691-9.691c1.16-1.16 3.526-.676 4.69.487a2.973 2.973 0 0 1-.005 4.198c-1.16 1.161-3.783 1.897-4.937.743-1.163-1.163-.908-4.267.252-5.428zm-9.691-9.691c1.16-1.16 3.515-.687 4.68.477a2.975 2.975 0 0 1 .005 4.208c-1.16 1.161-3.783 1.897-4.947.733-1.163-1.164-.899-4.258.262-5.418zm-9.702-9.701c1.16-1.161 3.526-.677 4.69.487a2.963 2.963 0 0 1-.005 4.198c-1.16 1.16-3.772 1.907-4.936.743-1.164-1.164-.91-4.268.251-5.428zm-9.691-9.691c1.16-1.161 3.526-.677 4.68.477a2.976 2.976 0 0 1 .005 4.208c-1.16 1.16-3.783 1.896-4.946.733-1.154-1.154-.9-4.258.261-5.418zm-9.692-9.692c1.161-1.16 3.517-.686 4.68.478a2.975 2.975 0 0 1 .006 4.208c-1.16 1.16-3.783 1.896-4.947.732-1.163-1.163-.898-4.257.262-5.418zm-9.7-9.701c1.16-1.16 3.525-.676 4.69.487a2.972 2.972 0 0 1-.005 4.198c-1.16 1.161-3.783 1.897-4.937.743-1.163-1.164-.909-4.268.252-5.428zm-9.692-9.691c1.16-1.16 3.516-.687 4.68.477a2.975 2.975 0 0 1 .005 4.208c-1.16 1.16-3.782 1.897-4.946.733-1.164-1.164-.899-4.258.261-5.418zm164.014 146.226c1.16-1.161 3.526-.677 4.68.477a2.976 2.976 0 0 1 .005 4.208c-1.16 1.16-3.783 1.896-4.946.733-1.154-1.154-.899-4.258.261-5.418zm-9.691-9.692c1.16-1.16 3.516-.686 4.679.478a2.976 2.976 0 0 1 .006 4.208c-1.16 1.16-3.783 1.896-4.947.732-1.163-1.163-.899-4.257.262-5.418zm-9.702-9.701c1.161-1.16 3.526-.676 4.69.487a2.973 2.973 0 0 1-.004 4.198c-1.161 1.161-3.783 1.897-4.937.743-1.164-1.163-.909-4.267.251-5.428zm-19.392-19.392c1.16-1.161 3.526-.677 4.69.487a2.963 2.963 0 0 1-.005 4.198c-1.16 1.16-3.773 1.907-4.936.743-1.164-1.164-.909-4.268.251-5.428zm-9.691-9.691c1.16-1.161 3.525-.677 4.679.477a2.976 2.976 0 0 1 .006 4.208c-1.161 1.16-3.783 1.896-4.947.733-1.153-1.154-.899-4.258.262-5.418zm-9.691-9.692c1.16-1.16 3.515-.686 4.679.477a2.976 2.976 0 0 1 .006 4.208c-1.161 1.161-3.783 1.897-4.947.733-1.164-1.163-.899-4.257.262-5.418zm-9.702-9.701c1.16-1.16 3.526-.677 4.69.487a2.972 2.972 0 0 1-.005 4.198c-1.16 1.161-3.782 1.897-4.936.743-1.164-1.164-.909-4.268.251-5.428zM78.2 197.942c1.161-1.161 3.527-.677 4.69.487a2.963 2.963 0 0 1-.004 4.198c-1.16 1.16-3.773 1.906-4.937.743-1.163-1.164-.909-4.268.252-5.428zm-9.69-9.692c1.16-1.16 3.525-.676 4.69.488a2.971 2.971 0 0 1-.005 4.197c-1.16 1.161-3.783 1.897-4.937.743-1.163-1.163-.909-4.267.252-5.428zm-9.692-9.691c1.16-1.16 3.516-.686 4.68.477a2.975 2.975 0 0 1 .006 4.208c-1.16 1.161-3.783 1.897-4.947.733-1.164-1.164-.899-4.257.261-5.418zm-9.701-9.701c1.16-1.16 3.526-.677 4.69.487a2.963 2.963 0 0 1-.005 4.198c-1.16 1.16-3.772 1.907-4.936.743-1.164-1.164-.91-4.268.251-5.428zm-9.691-9.691c1.16-1.161 3.526-.677 4.68.477a2.975 2.975 0 0 1 .005 4.208c-1.16 1.16-3.783 1.896-4.946.733-1.154-1.154-.9-4.258.261-5.418zm-9.691-9.691c1.16-1.161 3.516-.687 4.68.477a2.975 2.975 0 0 1 .005 4.208c-1.16 1.16-3.783 1.896-4.947.733-1.163-1.164-.899-4.258.262-5.418zm-9.701-9.702c1.16-1.16 3.525-.676 4.69.487a2.972 2.972 0 0 1-.005 4.198c-1.16 1.161-3.783 1.897-4.937.743-1.164-1.163-.909-4.267.252-5.428zm-9.692-9.691c1.16-1.16 3.516-.687 4.68.477a2.976 2.976 0 0 1 .005 4.208c-1.16 1.16-3.782 1.897-4.946.733-1.164-1.164-.899-4.258.261-5.418zm-9.701-9.701c1.16-1.161 3.526-.677 4.69.487a2.963 2.963 0 0 1-.005 4.198c-1.16 1.16-3.773 1.907-4.936.743-1.164-1.164-.91-4.268.251-5.428zm173.715 155.927c1.16-1.161 3.526-.677 4.679.477a2.976 2.976 0 0 1 .006 4.208c-1.16 1.16-3.783 1.897-4.947.733-1.153-1.154-.899-4.258.262-5.418zm-9.691-9.691c1.16-1.161 3.515-.687 4.679.477a2.976 2.976 0 0 1 .006 4.208c-1.161 1.16-3.783 1.896-4.947.733-1.164-1.164-.899-4.258.262-5.418zm-9.702-9.702c1.161-1.16 3.526-.676 4.69.487a2.973 2.973 0 0 1-.004 4.198c-1.161 1.161-3.783 1.897-4.937.743-1.164-1.163-.909-4.267.251-5.428zm-19.392-19.392c1.16-1.16 3.526-.677 4.689.487a2.963 2.963 0 0 1-.004 4.198c-1.16 1.16-3.773 1.907-4.936.743-1.164-1.164-.909-4.268.251-5.428zm-9.691-9.691c1.16-1.161 3.526-.677 4.679.477a2.976 2.976 0 0 1 .006 4.208c-1.161 1.16-3.783 1.896-4.947.733-1.153-1.154-.899-4.258.262-5.418zm-9.691-9.692c1.16-1.16 3.515-.686 4.679.478a2.976 2.976 0 0 1 .006 4.208c-1.161 1.16-3.783 1.896-4.947.732-1.164-1.163-.899-4.257.262-5.418zm-9.702-9.701c1.16-1.16 3.526-.676 4.69.487a2.973 2.973 0 0 1-.005 4.198c-1.16 1.161-3.783 1.897-4.936.743-1.164-1.164-.909-4.268.251-5.428zm-9.691-9.691c1.16-1.16 3.516-.687 4.68.477a2.976 2.976 0 0 1 .005 4.208c-1.16 1.16-3.783 1.897-4.946.733-1.164-1.164-.9-4.258.261-5.418zm-9.701-9.701c1.16-1.161 3.526-.677 4.69.487a2.963 2.963 0 0 1-.005 4.198c-1.16 1.16-3.773 1.907-4.937.743-1.163-1.164-.909-4.268.252-5.428zm-9.691-9.691c1.16-1.161 3.526-.677 4.69.487a2.972 2.972 0 0 1-.005 4.198c-1.16 1.16-3.783 1.896-4.937.743-1.163-1.164-.909-4.268.252-5.428zm-9.692-9.692c1.16-1.16 3.516-.686 4.68.477a2.975 2.975 0 0 1 .005 4.208c-1.16 1.161-3.782 1.897-4.946.733-1.164-1.163-.9-4.257.261-5.418zm-9.701-9.701c1.16-1.16 3.526-.677 4.69.487a2.963 2.963 0 0 1-.005 4.198c-1.16 1.16-3.773 1.907-4.936.743-1.164-1.164-.91-4.268.251-5.428zm-9.691-9.691c1.16-1.16 3.526-.677 4.68.477a2.975 2.975 0 0 1 .005 4.208c-1.16 1.16-3.783 1.897-4.947.733-1.153-1.154-.898-4.258.262-5.418zm-9.691-9.691c1.16-1.161 3.516-.687 4.68.477a2.975 2.975 0 0 1 .005 4.208c-1.16 1.16-3.783 1.896-4.947.733-1.163-1.164-.899-4.258.262-5.418zm-9.702-9.702c1.16-1.16 3.526-.676 4.69.487a2.972 2.972 0 0 1-.005 4.198c-1.16 1.161-3.782 1.897-4.936.743-1.164-1.163-.909-4.267.251-5.428zm-9.691-9.691c1.16-1.16 3.516-.687 4.68.477a2.976 2.976 0 0 1 .005 4.208c-1.16 1.161-3.782 1.897-4.946.733-1.164-1.164-.9-4.258.261-5.418zm-9.701-9.701c1.16-1.16 3.526-.677 4.69.487a2.963 2.963 0 0 1-.005 4.198c-1.16 1.16-3.773 1.907-4.936.743-1.164-1.164-.91-4.268.251-5.428zm-9.691-9.691c1.16-1.161 3.526-.677 4.68.477a2.975 2.975 0 0 1 .005 4.208c-1.16 1.16-3.783 1.896-4.947.733-1.153-1.154-.899-4.258.262-5.418zM183.25 267.415c1.16-1.16 3.526-.677 4.679.477a2.976 2.976 0 0 1 .006 4.208c-1.16 1.16-3.783 1.897-4.947.733-1.153-1.154-.898-4.258.262-5.418zm-9.692-9.691c1.161-1.161 3.516-.687 4.68.477a2.976 2.976 0 0 1 .006 4.208c-1.161 1.16-3.783 1.896-4.947.733-1.164-1.164-.899-4.258.261-5.418zm-9.701-9.702c1.161-1.16 3.526-.676 4.69.488a2.972 2.972 0 0 1-.005 4.198c-1.16 1.16-3.782 1.896-4.936.742-1.164-1.163-.909-4.267.251-5.428zm-19.392-19.392c1.16-1.16 3.525-.677 4.689.487a2.963 2.963 0 0 1-.004 4.198c-1.161 1.16-3.773 1.907-4.937.743-1.163-1.164-.909-4.268.252-5.428zm-9.691-9.691c1.16-1.161 3.525-.677 4.679.477a2.976 2.976 0 0 1 .006 4.208c-1.161 1.16-3.783 1.897-4.947.733-1.154-1.154-.899-4.258.262-5.418zm-9.692-9.691c1.161-1.161 3.516-.687 4.68.477a2.975 2.975 0 0 1 .005 4.208c-1.16 1.16-3.782 1.896-4.946.733-1.164-1.164-.899-4.258.261-5.418zm-9.701-9.702c1.161-1.16 3.526-.676 4.69.487a2.973 2.973 0 0 1-.005 4.198c-1.16 1.161-3.782 1.897-4.936.743-1.164-1.163-.909-4.267.251-5.428zm-9.691-9.691c1.16-1.16 3.516-.687 4.68.477a2.976 2.976 0 0 1 .005 4.208c-1.16 1.161-3.783 1.897-4.946.733-1.164-1.164-.899-4.258.261-5.418zm-9.701-9.701c1.16-1.16 3.525-.677 4.689.487a2.963 2.963 0 0 1-.004 4.198c-1.16 1.16-3.773 1.907-4.937.743-1.163-1.164-.909-4.268.252-5.428zm-9.692-9.691c1.16-1.161 3.526-.677 4.69.487a2.972 2.972 0 0 1-.004 4.198c-1.16 1.16-3.783 1.896-4.937.743-1.164-1.164-.909-4.268.251-5.428zm-9.691-9.692c1.16-1.16 3.516-.686 4.68.477a2.975 2.975 0 0 1 .005 4.208c-1.16 1.161-3.782 1.897-4.946.733-1.164-1.163-.9-4.257.261-5.418zm-9.701-9.701c1.16-1.16 3.526-.676 4.69.487a2.963 2.963 0 0 1-.005 4.198c-1.16 1.161-3.773 1.907-4.936.743-1.164-1.164-.91-4.267.251-5.428zm-9.691-9.691c1.16-1.16 3.526-.677 4.68.477a2.975 2.975 0 0 1 .005 4.208c-1.16 1.16-3.783 1.897-4.947.733-1.153-1.154-.899-4.258.262-5.418zm-9.691-9.691c1.16-1.161 3.515-.687 4.68.477a2.975 2.975 0 0 1 .005 4.208c-1.16 1.16-3.783 1.896-4.947.733-1.164-1.164-.899-4.258.261-5.418zm-9.702-9.702c1.16-1.16 3.526-.676 4.69.488a2.972 2.972 0 0 1-.005 4.198c-1.16 1.16-3.782 1.896-4.936.743-1.164-1.164-.909-4.268.251-5.429zm-9.691-9.691c1.16-1.16 3.516-.686 4.68.477a2.975 2.975 0 0 1 .005 4.208c-1.16 1.161-3.782 1.897-4.946.733-1.164-1.163-.9-4.257.261-5.418zm-9.701-9.701c1.16-1.16 3.526-.677 4.69.487a2.963 2.963 0 0 1-.005 4.198c-1.16 1.16-3.773 1.907-4.937.743-1.163-1.164-.909-4.268.252-5.428zm-9.691-9.691c1.16-1.16 3.525-.677 4.68.477a2.975 2.975 0 0 1 .005 4.208c-1.16 1.16-3.783 1.897-4.947.733-1.153-1.154-.899-4.258.262-5.418zm-9.692-9.691c1.16-1.16 3.516-.687 4.68.477a2.975 2.975 0 0 1 .006 4.208c-1.16 1.16-3.783 1.896-4.947.733-1.164-1.164-.899-4.258.261-5.418zm193.098 175.309c1.16-1.16 3.525-.677 4.679.477a2.976 2.976 0 0 1 .006 4.208c-1.161 1.16-3.783 1.897-4.947.733-1.153-1.154-.899-4.258.262-5.418zm-9.692-9.691c1.161-1.161 3.516-.687 4.68.477a2.976 2.976 0 0 1 .006 4.208c-1.161 1.16-3.783 1.897-4.947.733-1.164-1.164-.899-4.258.261-5.418zm-9.701-9.701c1.16-1.161 3.526-.677 4.69.487a2.973 2.973 0 0 1-.005 4.198c-1.16 1.16-3.783 1.896-4.936.743-1.164-1.164-.909-4.268.251-5.428zm-9.691-9.692c1.16-1.16 3.516-.686 4.679.477a2.976 2.976 0 0 1 .006 4.208c-1.16 1.161-3.783 1.897-4.947.733-1.163-1.163-.898-4.257.262-5.418zm-19.392-19.392c1.16-1.16 3.525-.677 4.679.477a2.976 2.976 0 0 1 .006 4.208c-1.161 1.16-3.783 1.897-4.947.733-1.154-1.154-.899-4.258.262-5.418zm-9.692-9.691c1.16-1.161 3.516-.687 4.68.477a2.976 2.976 0 0 1 .005 4.208c-1.16 1.16-3.783 1.896-4.946.733-1.164-1.164-.899-4.258.261-5.418zm-9.701-9.702c1.16-1.16 3.526-.676 4.69.487a2.973 2.973 0 0 1-.005 4.198c-1.16 1.161-3.783 1.897-4.936.743-1.164-1.163-.909-4.267.251-5.428zm-9.691-9.691c1.16-1.16 3.516-.687 4.679.477a2.976 2.976 0 0 1 .006 4.208c-1.16 1.161-3.783 1.897-4.947.733-1.163-1.164-.899-4.258.262-5.418zm-9.701-9.701c1.16-1.16 3.525-.677 4.689.487a2.963 2.963 0 0 1-.004 4.198c-1.161 1.16-3.773 1.907-4.937.743-1.163-1.164-.909-4.268.252-5.428zm-9.692-9.691c1.16-1.161 3.526-.677 4.69.487a2.972 2.972 0 0 1-.005 4.198c-1.16 1.16-3.782 1.897-4.936.743-1.164-1.164-.909-4.268.251-5.428zm-9.691-9.691c1.16-1.161 3.516-.687 4.68.477a2.975 2.975 0 0 1 .005 4.208c-1.16 1.16-3.783 1.896-4.946.733-1.164-1.164-.9-4.258.261-5.418zm-9.701-9.702c1.16-1.16 3.526-.676 4.69.487a2.963 2.963 0 0 1-.005 4.198c-1.16 1.161-3.773 1.907-4.936.743-1.164-1.163-.91-4.267.25-5.428zm-9.691-9.691c1.16-1.16 3.526-.677 4.68.477a2.975 2.975 0 0 1 .005 4.208c-1.16 1.16-3.783 1.897-4.947.733-1.153-1.154-.899-4.258.262-5.418zm-9.692-9.691c1.16-1.161 3.516-.687 4.68.477a2.975 2.975 0 0 1 .005 4.208c-1.16 1.16-3.782 1.897-4.946.733-1.164-1.164-.899-4.258.261-5.418zm-9.701-9.701c1.16-1.161 3.526-.677 4.69.487a2.973 2.973 0 0 1-.005 4.198c-1.16 1.16-3.782 1.896-4.936.743-1.164-1.164-.91-4.268.251-5.428zm-9.691-9.692c1.16-1.16 3.516-.686 4.68.477a2.975 2.975 0 0 1 .005 4.208c-1.16 1.161-3.783 1.897-4.946.733-1.164-1.163-.9-4.257.261-5.418zM27.323 93.7c1.16-1.16 3.526-.677 4.69.487a2.963 2.963 0 0 1-.005 4.198c-1.16 1.16-3.773 1.907-4.937.743-1.163-1.164-.909-4.267.252-5.428zm-9.692-9.691c1.16-1.16 3.526-.677 4.68.477a2.975 2.975 0 0 1 .006 4.208c-1.16 1.16-3.783 1.897-4.947.733-1.154-1.154-.899-4.258.261-5.418zM7.94 74.318c1.16-1.16 3.516-.687 4.68.477a2.976 2.976 0 0 1 .005 4.208c-1.16 1.16-3.782 1.897-4.946.733-1.164-1.164-.9-4.258.261-5.418zm-9.7-9.702c1.16-1.16 3.525-.676 4.689.487a2.972 2.972 0 0 1-.005 4.199c-1.16 1.16-3.783 1.896-4.936.742-1.164-1.163-.91-4.267.251-5.428zm202.796 185.012c1.161-1.16 3.526-.677 4.68.477a2.976 2.976 0 0 1 .006 4.208c-1.161 1.161-3.783 1.897-4.947.733-1.154-1.154-.899-4.258.261-5.418zm-9.691-9.691c1.161-1.16 3.516-.687 4.68.477a2.975 2.975 0 0 1 .005 4.208c-1.16 1.16-3.782 1.897-4.946.733-1.164-1.164-.899-4.258.261-5.418zm-9.701-9.701c1.16-1.161 3.526-.677 4.69.487a2.973 2.973 0 0 1-.005 4.198c-1.16 1.16-3.783 1.896-4.936.743-1.164-1.164-.909-4.268.251-5.428zm-9.691-9.692c1.16-1.16 3.516-.686 4.679.477a2.977 2.977 0 0 1 .006 4.209c-1.161 1.16-3.783 1.896-4.947.732-1.163-1.163-.899-4.257.262-5.418zm-9.701-9.701c1.16-1.16 3.525-.676 4.689.487a2.963 2.963 0 0 1-.004 4.198c-1.161 1.161-3.773 1.907-4.937.743-1.164-1.164-.909-4.267.252-5.428zm-9.692-9.691c1.161-1.16 3.526-.677 4.68.477a2.975 2.975 0 0 1 .005 4.208c-1.16 1.16-3.782 1.897-4.946.733-1.154-1.154-.899-4.258.261-5.418zm-9.691-9.691c1.161-1.161 3.516-.687 4.68.477a2.975 2.975 0 0 1 .005 4.208c-1.16 1.16-3.782 1.896-4.946.733-1.164-1.164-.899-4.258.261-5.418zm-9.701-9.702c1.16-1.16 3.526-.676 4.689.488a2.973 2.973 0 0 1-.004 4.198c-1.16 1.16-3.783 1.896-4.937.743-1.163-1.164-.909-4.268.252-5.429zm-9.691-9.691c1.16-1.16 3.515-.686 4.679.477a2.976 2.976 0 0 1 .006 4.208c-1.161 1.161-3.783 1.897-4.947.733-1.164-1.163-.899-4.257.262-5.418zm-9.702-9.701c1.161-1.16 3.526-.677 4.69.487a2.963 2.963 0 0 1-.004 4.198c-1.161 1.16-3.773 1.907-4.937.743-1.164-1.164-.909-4.268.251-5.428zm-9.691-9.691c1.161-1.16 3.526-.677 4.69.487a2.972 2.972 0 0 1-.005 4.198c-1.16 1.16-3.782 1.897-4.936.743-1.164-1.164-.909-4.268.251-5.428zm-9.691-9.691c1.16-1.161 3.516-.687 4.68.477a2.976 2.976 0 0 1 .005 4.208c-1.16 1.16-3.783 1.896-4.947.733-1.163-1.164-.898-4.258.262-5.418zm-9.701-9.702c1.16-1.16 3.526-.676 4.69.487a2.963 2.963 0 0 1-.005 4.198c-1.16 1.161-3.773 1.907-4.937.743-1.163-1.163-.909-4.267.252-5.428zM75 123.592c1.16-1.16 3.526-.676 4.68.477a2.976 2.976 0 0 1 .006 4.208c-1.16 1.161-3.783 1.897-4.947.733-1.154-1.154-.899-4.257.262-5.418zm-9.69-9.691c1.16-1.16 3.515-.687 4.679.477a2.975 2.975 0 0 1 .005 4.208c-1.16 1.16-3.782 1.897-4.946.733-1.164-1.164-.899-4.258.261-5.418zm-9.702-9.701c1.16-1.161 3.526-.677 4.69.487a2.973 2.973 0 0 1-.005 4.198c-1.16 1.16-3.783 1.896-4.936.743-1.164-1.164-.91-4.268.251-5.428zm-9.691-9.692c1.16-1.16 3.516-.686 4.68.478a2.975 2.975 0 0 1 .005 4.208c-1.16 1.16-3.783 1.896-4.947.733-1.163-1.164-.898-4.258.262-5.419zm-9.701-9.701c1.16-1.16 3.526-.676 4.69.487a2.963 2.963 0 0 1-.005 4.198c-1.16 1.16-3.773 1.907-4.937.743-1.163-1.163-.909-4.267.252-5.428zm-9.692-9.691c1.16-1.16 3.526-.677 4.68.477a2.975 2.975 0 0 1 .006 4.208c-1.16 1.16-3.783 1.897-4.947.733-1.154-1.154-.899-4.258.261-5.418zm-9.691-9.691c1.16-1.16 3.516-.687 4.68.477a2.975 2.975 0 0 1 .005 4.208c-1.16 1.16-3.783 1.897-4.946.733-1.164-1.164-.9-4.258.261-5.418zm-9.701-9.701c1.16-1.16 3.526-.677 4.69.487a2.972 2.972 0 0 1-.005 4.198c-1.16 1.16-3.783 1.896-4.936.743-1.164-1.164-.91-4.268.25-5.428zm-9.692-9.692c1.161-1.16 3.517-.686 4.68.477a2.975 2.975 0 0 1 .006 4.208c-1.16 1.16-3.783 1.897-4.947.733-1.163-1.163-.899-4.257.262-5.418zm212.491 194.701c1.161-1.16 3.526-.676 4.68.477a2.976 2.976 0 0 1 .006 4.208c-1.161 1.161-3.783 1.897-4.947.733-1.154-1.154-.899-4.257.261-5.418zm-9.691-9.691c1.16-1.16 3.516-.687 4.68.477a2.976 2.976 0 0 1 .005 4.208c-1.16 1.16-3.783 1.897-4.946.733-1.164-1.164-.899-4.258.261-5.418zm-9.701-9.701c1.16-1.161 3.526-.677 4.689.487a2.973 2.973 0 0 1-.004 4.198c-1.16 1.16-3.783 1.897-4.936.743-1.164-1.164-.909-4.268.251-5.428zm-9.691-9.691c1.16-1.161 3.516-.687 4.679.477a2.976 2.976 0 0 1 .006 4.208c-1.161 1.16-3.783 1.896-4.947.733-1.163-1.164-.899-4.258.262-5.418zm-9.701-9.702c1.16-1.16 3.525-.676 4.689.487a2.963 2.963 0 0 1-.004 4.198c-1.161 1.161-3.773 1.907-4.937.743-1.164-1.163-.909-4.267.252-5.428zm-9.692-9.691c1.16-1.16 3.526-.677 4.68.477a2.976 2.976 0 0 1 .005 4.208c-1.16 1.16-3.783 1.897-4.946.733-1.154-1.154-.899-4.258.261-5.418zm-29.083-29.084c1.16-1.16 3.515-.686 4.679.477a2.976 2.976 0 0 1 .006 4.208c-1.161 1.161-3.783 1.897-4.947.733-1.163-1.163-.899-4.257.262-5.418zm-9.702-9.701c1.161-1.16 3.526-.676 4.69.487a2.963 2.963 0 0 1-.005 4.198c-1.16 1.161-3.772 1.907-4.936.743-1.164-1.164-.909-4.267.251-5.428zm-9.692-9.69c1.161-1.16 3.526-.677 4.69.487a2.973 2.973 0 0 1-.005 4.198c-1.16 1.16-3.783 1.897-4.936.743-1.164-1.164-.909-4.268.251-5.428zm-9.691-9.691c1.16-1.161 3.516-.687 4.679.477a2.976 2.976 0 0 1 .006 4.208c-1.16 1.16-3.783 1.897-4.946.733-1.164-1.164-.899-4.258.261-5.418zm-9.701-9.702c1.16-1.16 3.526-.676 4.69.488a2.963 2.963 0 0 1-.005 4.198c-1.16 1.16-3.773 1.906-4.937.743-1.163-1.164-.909-4.268.252-5.429zm-9.692-9.691c1.16-1.16 3.526-.676 4.68.477a2.976 2.976 0 0 1 .005 4.208c-1.16 1.161-3.782 1.897-4.946.733-1.154-1.153-.899-4.257.261-5.418zm-9.691-9.691c1.16-1.16 3.516-.687 4.68.477a2.975 2.975 0 0 1 .005 4.208c-1.16 1.16-3.782 1.897-4.946.733-1.164-1.164-.9-4.258.261-5.418zm-9.701-9.701c1.16-1.16 3.526-.677 4.69.487a2.972 2.972 0 0 1-.005 4.198c-1.16 1.16-3.783 1.897-4.936.743-1.164-1.164-.91-4.268.251-5.428zm-9.692-9.691c1.161-1.16 3.517-.687 4.68.477a2.975 2.975 0 0 1 .006 4.208c-1.16 1.16-3.783 1.896-4.947.733-1.163-1.164-.898-4.258.262-5.418zm-9.7-9.702c1.16-1.16 3.525-.676 4.689.487a2.963 2.963 0 0 1-.005 4.198c-1.16 1.16-3.772 1.907-4.936.743-1.164-1.163-.909-4.267.252-5.428zm-9.692-9.691c1.16-1.16 3.526-.676 4.68.477a2.975 2.975 0 0 1 .005 4.208c-1.16 1.16-3.782 1.897-4.946.733-1.154-1.154-.899-4.258.261-5.418zm-9.691-9.692c1.16-1.16 3.516-.686 4.68.478a2.975 2.975 0 0 1 .005 4.208c-1.16 1.16-3.782 1.897-4.946.733-1.164-1.164-.9-4.258.261-5.418zm-9.701-9.7c1.16-1.16 3.526-.677 4.69.487a2.972 2.972 0 0 1-.005 4.198c-1.16 1.16-3.783 1.896-4.936.743-1.164-1.164-.91-4.268.251-5.428zm-9.691-9.692c1.16-1.16 3.515-.686 4.68.477a2.975 2.975 0 0 1 .005 4.209c-1.16 1.16-3.783 1.896-4.947.733-1.164-1.164-.899-4.258.262-5.419zM218.824 231.84c1.161-1.16 3.526-.676 4.68.477a2.975 2.975 0 0 1 .005 4.208c-1.16 1.161-3.782 1.897-4.946.733-1.154-1.153-.899-4.257.261-5.418zm-9.691-9.691c1.16-1.16 3.516-.687 4.68.477a2.976 2.976 0 0 1 .005 4.208c-1.16 1.161-3.783 1.897-4.946.733-1.164-1.164-.899-4.258.261-5.418zm-9.701-9.701c1.16-1.16 3.526-.677 4.689.487a2.973 2.973 0 0 1-.004 4.198c-1.161 1.16-3.783 1.897-4.937.743-1.163-1.164-.909-4.268.252-5.428zm-9.691-9.691c1.16-1.161 3.515-.687 4.679.477a2.976 2.976 0 0 1 .006 4.208c-1.161 1.16-3.783 1.896-4.947.733-1.164-1.164-.899-4.258.262-5.418zm-9.702-9.702c1.161-1.16 3.526-.676 4.69.488a2.961 2.961 0 0 1-.005 4.197c-1.16 1.161-3.772 1.907-4.936.743-1.164-1.163-.909-4.267.251-5.428zm-9.691-9.691c1.161-1.16 3.526-.676 4.68.477a2.975 2.975 0 0 1 .005 4.208c-1.16 1.161-3.782 1.897-4.946.733-1.154-1.154-.899-4.257.261-5.418zm-9.691-9.691c1.16-1.16 3.516-.687 4.68.477a2.976 2.976 0 0 1 .005 4.208c-1.16 1.16-3.783 1.897-4.946.733-1.164-1.164-.899-4.258.261-5.418zm-9.701-9.701c1.16-1.161 3.525-.677 4.689.487a2.973 2.973 0 0 1-.004 4.198c-1.161 1.16-3.783 1.896-4.937.743-1.163-1.164-.909-4.268.252-5.428zm-19.393-19.393c1.161-1.16 3.526-.676 4.69.487a2.963 2.963 0 0 1-.005 4.198c-1.16 1.161-3.772 1.907-4.936.743-1.164-1.163-.909-4.267.251-5.428zm-9.691-9.691c1.16-1.16 3.526-.677 4.69.487a2.973 2.973 0 0 1-.005 4.198c-1.16 1.16-3.783 1.897-4.936.743-1.164-1.164-.909-4.268.251-5.428zm-9.691-9.691c1.16-1.161 3.516-.687 4.679.477a2.976 2.976 0 0 1 .006 4.208c-1.16 1.16-3.783 1.897-4.947.733-1.163-1.164-.899-4.258.262-5.418zM83.097 96.113c1.16-1.16 3.516-.686 4.68.477a2.975 2.975 0 0 1 .005 4.208c-1.16 1.161-3.782 1.897-4.946.733-1.164-1.164-.9-4.258.261-5.418zm-9.701-9.701c1.16-1.16 3.526-.677 4.69.487a2.972 2.972 0 0 1-.005 4.198c-1.16 1.16-3.783 1.897-4.937.743-1.163-1.164-.909-4.268.252-5.428zm-9.691-9.692c1.16-1.16 3.516-.686 4.68.478a2.975 2.975 0 0 1 .005 4.208c-1.16 1.16-3.783 1.896-4.947.733-1.163-1.164-.899-4.258.262-5.418zm-9.701-9.7c1.16-1.16 3.525-.677 4.69.487a2.963 2.963 0 0 1-.005 4.197c-1.16 1.16-3.773 1.907-4.937.744-1.164-1.164-.909-4.268.252-5.429zm-9.692-9.692c1.16-1.16 3.526-.676 4.68.477a2.975 2.975 0 0 1 .005 4.208c-1.16 1.16-3.782 1.897-4.946.733-1.154-1.154-.899-4.257.261-5.418zm-9.692-9.691c1.161-1.16 3.517-.687 4.68.477a2.975 2.975 0 0 1 .006 4.208c-1.16 1.16-3.783 1.897-4.947.733-1.163-1.164-.898-4.258.262-5.418zm-9.7-9.701c1.16-1.16 3.526-.677 4.69.487a2.972 2.972 0 0 1-.005 4.198c-1.16 1.16-3.783 1.896-4.937.743-1.163-1.164-.909-4.268.252-5.428zM5.527 18.543c1.16-1.16 3.526-.676 4.69.487a2.975 2.975 0 0 1 .005 4.208c-1.16 1.16-3.782 1.897-4.946.733-1.164-1.163-.909-4.267.251-5.428zm-9.691-9.691c1.16-1.16 3.526-.677 4.68.477a2.975 2.975 0 0 1 .005 4.208c-1.16 1.16-3.783 1.897-4.946.733-1.154-1.154-.9-4.258.261-5.418zm231.882 214.094c1.16-1.16 3.526-.676 4.68.478a2.976 2.976 0 0 1 .005 4.208c-1.16 1.16-3.783 1.896-4.946.732-1.154-1.153-.899-4.257.261-5.418zm-9.691-9.691c1.16-1.16 3.516-.686 4.679.477a2.976 2.976 0 0 1 .006 4.208c-1.16 1.161-3.783 1.897-4.946.733-1.164-1.164-.899-4.257.261-5.418zm-9.701-9.701c1.16-1.16 3.526-.677 4.689.487a2.973 2.973 0 0 1-.004 4.198c-1.16 1.16-3.783 1.897-4.937.743-1.163-1.164-.909-4.268.252-5.428zm-9.691-9.691c1.16-1.161 3.515-.687 4.679.477a2.976 2.976 0 0 1 .006 4.208c-1.161 1.16-3.783 1.897-4.947.733-1.164-1.164-.899-4.258.262-5.418zm-9.702-9.701c1.161-1.161 3.526-.677 4.69.487a2.963 2.963 0 0 1-.005 4.198c-1.16 1.16-3.772 1.906-4.936.743-1.164-1.164-.909-4.268.251-5.428zm-9.691-9.692c1.16-1.16 3.526-.676 4.68.477a2.976 2.976 0 0 1 .005 4.208c-1.16 1.161-3.783 1.897-4.946.733-1.154-1.153-.899-4.257.261-5.418zm-9.691-9.691c1.16-1.16 3.516-.687 4.679.477a2.976 2.976 0 0 1 .006 4.208c-1.16 1.161-3.783 1.897-4.947.733-1.163-1.164-.898-4.258.262-5.418zm-9.701-9.701c1.16-1.161 3.526-.677 4.689.487a2.973 2.973 0 0 1-.004 4.198c-1.161 1.16-3.783 1.897-4.937.743-1.163-1.164-.909-4.268.252-5.428zm-9.692-9.691c1.161-1.161 3.516-.687 4.68.477a2.975 2.975 0 0 1 .005 4.208c-1.16 1.16-3.782 1.896-4.946.733-1.164-1.164-.899-4.258.261-5.418zm-9.701-9.702c1.16-1.16 3.526-.676 4.69.487a2.963 2.963 0 0 1-.005 4.198c-1.16 1.161-3.773 1.907-4.936.743-1.164-1.163-.909-4.267.251-5.428zm-9.691-9.691c1.16-1.16 3.526-.676 4.69.487a2.973 2.973 0 0 1-.005 4.198c-1.16 1.161-3.783 1.897-4.936.743-1.164-1.163-.909-4.267.251-5.428zm-9.691-9.691c1.16-1.16 3.516-.687 4.679.477a2.976 2.976 0 0 1 .006 4.208c-1.16 1.16-3.783 1.897-4.947.733-1.163-1.164-.899-4.258.262-5.418zm-9.702-9.701c1.161-1.161 3.526-.677 4.69.487a2.963 2.963 0 0 1-.005 4.198c-1.16 1.16-3.772 1.906-4.936.743-1.164-1.164-.909-4.268.251-5.428zm-9.691-9.692c1.161-1.16 3.516-.686 4.68.478a2.976 2.976 0 0 1 .005 4.208c-1.16 1.16-3.782 1.896-4.946.733-1.164-1.164-.899-4.258.261-5.418zm-9.691-9.69c1.16-1.161 3.516-.687 4.68.476a2.975 2.975 0 0 1 .005 4.208c-1.16 1.16-3.783 1.897-4.946.733-1.164-1.163-.9-4.257.261-5.418zM72.599 67.827c1.16-1.16 3.515-.687 4.679.477a2.975 2.975 0 0 1 .006 4.208c-1.16 1.16-3.783 1.897-4.947.733-1.164-1.164-.899-4.258.261-5.418zm-9.702-9.701c1.16-1.16 3.526-.677 4.69.487a2.963 2.963 0 0 1-.005 4.198c-1.16 1.16-3.772 1.906-4.936.743-1.164-1.164-.909-4.268.251-5.428zm-9.691-9.692c1.16-1.16 3.526-.676 4.68.477a2.976 2.976 0 0 1 .005 4.209c-1.16 1.16-3.782 1.896-4.946.732-1.154-1.153-.9-4.257.261-5.418zm-9.691-9.691c1.16-1.16 3.516-.687 4.68.477a2.975 2.975 0 0 1 .005 4.208c-1.16 1.16-3.783 1.897-4.946.733-1.164-1.164-.9-4.258.261-5.418zM24.122 19.35c1.16-1.16 3.516-.686 4.68.478a2.975 2.975 0 0 1 .006 4.208c-1.16 1.16-3.783 1.896-4.947.733-1.164-1.164-.899-4.258.261-5.418zm-9.701-9.7c1.16-1.16 3.526-.677 4.69.486a2.976 2.976 0 0 1 .005 4.209c-1.16 1.16-3.782 1.896-4.946.732-1.164-1.163-.91-4.267.251-5.428zM4.73-.042c1.16-1.16 3.526-.676 4.68.477a2.975 2.975 0 0 1 .005 4.208c-1.16 1.16-3.783 1.897-4.946.733-1.154-1.153-.9-4.257.261-5.418zm231.882 214.095c1.161-1.161 3.526-.677 4.68.477a2.976 2.976 0 0 1 .005 4.208c-1.16 1.16-3.783 1.897-4.947.734-1.154-1.154-.898-4.259.262-5.419zm-9.691-9.692c1.16-1.16 3.516-.686 4.679.477a2.976 2.976 0 0 1 .006 4.208c-1.16 1.161-3.784 1.898-4.948.734-1.163-1.163-.898-4.258.263-5.419zm-9.701-9.701c1.16-1.16 3.525-.677 4.689.487a2.973 2.973 0 0 1-.004 4.198c-1.161 1.161-3.784 1.898-4.938.744-1.164-1.164-.908-4.269.253-5.429zm-9.692-9.691c1.161-1.16 3.516-.687 4.68.477a2.976 2.976 0 0 1 .006 4.208c-1.161 1.16-3.784 1.898-4.948.734-1.164-1.164-.898-4.259.262-5.419zm-9.701-9.701c1.161-1.161 3.526-.677 4.69.487a2.963 2.963 0 0 1-.005 4.198c-1.16 1.16-3.773 1.907-4.937.744-1.164-1.164-.908-4.269.252-5.429zm-9.691-9.692c1.16-1.16 3.526-.676 4.679.477a2.976 2.976 0 0 1 .006 4.208c-1.16 1.161-3.784 1.898-4.948.734-1.153-1.153-.897-4.258.263-5.419zm-9.691-9.691c1.16-1.16 3.515-.686 4.679.477a2.976 2.976 0 0 1 .006 4.208c-1.161 1.161-3.784 1.898-4.948.734-1.163-1.164-.898-4.258.263-5.419zm-9.701-9.701c1.16-1.16 3.525-.677 4.689.487a2.973 2.973 0 0 1-.004 4.198c-1.161 1.16-3.784 1.898-4.938.744-1.164-1.164-.908-4.269.253-5.429zm-9.692-9.691c1.161-1.161 3.516-.687 4.68.477a2.975 2.975 0 0 1 .005 4.208c-1.16 1.16-3.783 1.897-4.947.734-1.164-1.164-.898-4.259.262-5.419zm-9.701-9.702c1.16-1.16 3.526-.676 4.69.488a2.964 2.964 0 0 1-.005 4.198c-1.16 1.16-3.774 1.907-4.937.744-1.164-1.164-.908-4.269.252-5.43zm-9.691-9.691c1.16-1.16 3.526-.676 4.689.487a2.973 2.973 0 0 1-.004 4.198c-1.16 1.161-3.784 1.898-4.938.744-1.163-1.163-.907-4.268.253-5.429zm-9.691-9.691c1.16-1.16 3.515-.687 4.679.477a2.976 2.976 0 0 1 .006 4.208c-1.161 1.16-3.784 1.898-4.948.734-1.164-1.164-.898-4.259.263-5.419zm-9.702-9.701c1.161-1.16 3.526-.677 4.69.487a2.964 2.964 0 0 1-.004 4.198c-1.161 1.16-3.774 1.908-4.938.744-1.164-1.164-.908-4.269.252-5.43zm-9.691-9.691c1.16-1.16 3.526-.677 4.68.477a2.976 2.976 0 0 1 .005 4.208c-1.16 1.16-3.784 1.897-4.947.734-1.154-1.154-.898-4.26.262-5.42zm-9.691-9.692c1.16-1.16 3.516-.686 4.679.477a2.976 2.976 0 0 1 .006 4.208c-1.16 1.16-3.784 1.898-4.948.734-1.163-1.163-.897-4.258.263-5.419zm-9.701-9.701c1.16-1.16 3.526-.676 4.69.487a2.973 2.973 0 0 1-.005 4.198c-1.16 1.16-3.784 1.898-4.938.744-1.163-1.164-.908-4.269.253-5.429zM71.791 49.232c1.16-1.16 3.526-.677 4.69.487a2.963 2.963 0 0 1-.005 4.198c-1.16 1.16-3.773 1.907-4.937.744-1.164-1.164-.908-4.269.252-5.43zM62.1 39.54c1.16-1.16 3.526-.676 4.68.477a2.976 2.976 0 0 1 .005 4.208c-1.16 1.16-3.784 1.898-4.947.734-1.154-1.153-.898-4.258.262-5.419zM42.708 20.148c1.16-1.16 3.525-.677 4.69.487a2.972 2.972 0 0 1-.005 4.198c-1.16 1.16-3.784 1.898-4.938.744-1.163-1.164-.908-4.269.253-5.429zm-9.692-9.691c1.16-1.16 3.516-.687 4.68.477a2.976 2.976 0 0 1 .005 4.208c-1.16 1.16-3.783 1.898-4.947.734-1.164-1.164-.898-4.259.262-5.42zM23.315.756c1.16-1.16 3.526-.677 4.69.487a2.975 2.975 0 0 1 .005 4.208c-1.16 1.16-3.784 1.897-4.947.734-1.164-1.164-.908-4.27.252-5.43zm222.191 204.403c1.16-1.161 3.526-.677 4.679.477a2.976 2.976 0 0 1 .006 4.208c-1.16 1.16-3.784 1.897-4.947.734-1.154-1.154-.898-4.259.262-5.419zm-9.691-9.692c1.16-1.16 3.516-.686 4.679.477a2.977 2.977 0 0 1 .006 4.209c-1.16 1.16-3.784 1.897-4.948.733-1.163-1.163-.898-4.258.263-5.419zm-9.701-9.701c1.16-1.16 3.525-.676 4.689.487a2.973 2.973 0 0 1-.004 4.198c-1.161 1.161-3.784 1.898-4.938.744-1.163-1.164-.908-4.268.253-5.429zm-9.692-9.691c1.161-1.16 3.516-.687 4.68.477a2.975 2.975 0 0 1 .005 4.208c-1.16 1.16-3.783 1.898-4.947.734-1.164-1.164-.898-4.259.262-5.419zm-9.701-9.701c1.16-1.161 3.526-.677 4.69.487a2.964 2.964 0 0 1-.005 4.198c-1.16 1.16-3.774 1.908-4.937.744-1.164-1.164-.908-4.269.252-5.429zm-9.691-9.691c1.16-1.161 3.526-.677 4.679.477a2.976 2.976 0 0 1 .006 4.208c-1.16 1.16-3.784 1.897-4.948.734-1.153-1.154-.897-4.259.263-5.419zm-9.691-9.692c1.16-1.16 3.516-.686 4.679.477a2.976 2.976 0 0 1 .006 4.208c-1.161 1.161-3.784 1.898-4.948.734-1.163-1.163-.898-4.258.263-5.419zm-9.702-9.701c1.161-1.16 3.526-.677 4.69.487a2.972 2.972 0 0 1-.005 4.198c-1.16 1.16-3.783 1.898-4.937.744-1.164-1.164-.908-4.269.252-5.429zm-9.691-9.691c1.16-1.161 3.516-.687 4.68.477a2.976 2.976 0 0 1 .005 4.208c-1.16 1.16-3.784 1.898-4.947.734-1.164-1.164-.898-4.259.262-5.419zm-9.701-9.701c1.16-1.161 3.526-.677 4.69.487a2.964 2.964 0 0 1-.005 4.198c-1.16 1.16-3.774 1.907-4.937.744-1.164-1.164-.908-4.269.252-5.429zm-19.383-19.383c1.161-1.16 3.516-.686 4.68.477a2.975 2.975 0 0 1 .006 4.208c-1.161 1.161-3.784 1.898-4.948.734-1.164-1.164-.898-4.258.262-5.419zm-9.701-9.701c1.161-1.16 3.526-.677 4.69.487a2.963 2.963 0 0 1-.005 4.198c-1.16 1.16-3.773 1.908-4.937.744-1.164-1.164-.908-4.269.252-5.43zm-9.691-9.691c1.16-1.16 3.526-.677 4.68.477a2.976 2.976 0 0 1 .005 4.208c-1.16 1.16-3.784 1.897-4.947.734-1.154-1.154-.898-4.259.262-5.42zm-9.691-9.692c1.16-1.16 3.516-.686 4.679.478a2.976 2.976 0 0 1 .006 4.208c-1.16 1.16-3.784 1.897-4.947.733-1.164-1.163-.898-4.258.262-5.418zm-9.702-9.701c1.161-1.16 3.526-.676 4.69.487a2.973 2.973 0 0 1-.004 4.198c-1.161 1.16-3.784 1.898-4.938.744-1.164-1.164-.908-4.268.252-5.429zm-9.691-9.691c1.16-1.16 3.516-.687 4.68.477a2.975 2.975 0 0 1 .005 4.208c-1.16 1.16-3.783 1.898-4.947.734-1.164-1.164-.898-4.259.262-5.419zm-9.701-9.701c1.16-1.16 3.526-.677 4.69.487a2.963 2.963 0 0 1-.005 4.198c-1.16 1.16-3.773 1.908-4.937.744-1.164-1.164-.908-4.269.252-5.43zM61.303 20.955c1.16-1.16 3.515-.686 4.68.477a2.975 2.975 0 0 1 .005 4.208c-1.16 1.16-3.784 1.898-4.948.734-1.164-1.163-.898-4.258.263-5.419zm-9.702-9.701c1.16-1.16 3.526-.676 4.69.487a2.973 2.973 0 0 1-.005 4.198c-1.16 1.16-3.783 1.898-4.937.744-1.164-1.164-.908-4.269.252-5.429zM41.91 1.563c1.16-1.16 3.516-.687 4.68.477a2.976 2.976 0 0 1 .005 4.208c-1.16 1.16-3.783 1.898-4.947.734-1.164-1.164-.898-4.259.262-5.42zM254.4 196.265c1.16-1.161 3.526-.677 4.679.477a2.976 2.976 0 0 1 .006 4.208c-1.16 1.16-3.784 1.897-4.948.734-1.153-1.154-.898-4.259.263-5.419zm-9.691-9.691c1.16-1.161 3.515-.687 4.679.477a2.976 2.976 0 0 1 .006 4.208c-1.161 1.16-3.784 1.897-4.948.734-1.164-1.164-.898-4.259.263-5.419zm-9.702-9.702c1.161-1.16 3.526-.676 4.69.487a2.973 2.973 0 0 1-.004 4.198c-1.161 1.161-3.784 1.898-4.938.744-1.164-1.163-.908-4.268.252-5.429zm-9.691-9.691c1.161-1.16 3.516-.687 4.68.477a2.975 2.975 0 0 1 .005 4.208c-1.16 1.16-3.783 1.898-4.947.734-1.164-1.164-.898-4.259.262-5.419zm-9.701-9.701c1.16-1.16 3.526-.677 4.689.487a2.963 2.963 0 0 1-.004 4.198c-1.16 1.16-3.774 1.908-4.938.744-1.163-1.164-.907-4.269.253-5.429zm-9.691-9.691c1.16-1.161 3.526-.677 4.679.477a2.976 2.976 0 0 1 .006 4.208c-1.161 1.16-3.784 1.897-4.948.734-1.153-1.154-.898-4.259.263-5.419zm-9.691-9.692c1.16-1.16 3.515-.686 4.679.477a2.976 2.976 0 0 1 .006 4.208c-1.161 1.161-3.784 1.898-4.948.734-1.164-1.163-.898-4.258.263-5.419zm-9.702-9.701c1.161-1.16 3.526-.676 4.69.487a2.972 2.972 0 0 1-.005 4.198c-1.16 1.161-3.783 1.898-4.937.744-1.164-1.164-.908-4.269.252-5.429zm-9.691-9.691c1.16-1.16 3.516-.687 4.679.477a2.976 2.976 0 0 1 .006 4.208c-1.16 1.16-3.784 1.898-4.947.734-1.164-1.164-.898-4.259.262-5.419zm-9.701-9.701c1.16-1.161 3.526-.677 4.689.487a2.963 2.963 0 0 1-.004 4.198c-1.16 1.16-3.774 1.908-4.938.744-1.163-1.164-.908-4.269.253-5.429zm-9.691-9.691c1.16-1.16 3.526-.677 4.689.487a2.973 2.973 0 0 1-.004 4.198c-1.161 1.16-3.784 1.897-4.938.744-1.163-1.164-.908-4.269.253-5.43zm-9.692-9.692c1.161-1.16 3.516-.686 4.68.477a2.976 2.976 0 0 1 .006 4.208c-1.161 1.16-3.784 1.898-4.948.734-1.164-1.164-.898-4.258.262-5.419zm-19.392-19.392c1.16-1.16 3.526-.677 4.679.477a2.976 2.976 0 0 1 .006 4.208c-1.16 1.16-3.784 1.898-4.948.734-1.153-1.154-.897-4.259.263-5.42zm-9.691-9.691c1.16-1.16 3.515-.687 4.679.477a2.976 2.976 0 0 1 .006 4.208c-1.161 1.16-3.784 1.897-4.948.734-1.163-1.164-.898-4.26.263-5.42zm-9.701-9.702c1.16-1.16 3.525-.676 4.689.488a2.972 2.972 0 0 1-.004 4.197c-1.161 1.16-3.784 1.898-4.938.744-1.164-1.163-.908-4.268.253-5.429zM-4.012 28.082c1.16-1.16 3.526-.676 4.69.488a2.975 2.975 0 0 1 .005 4.208c-1.16 1.16-3.783 1.896-4.946.733-1.164-1.164-.91-4.268.251-5.429zM140.62 154.925c1.161-1.161 3.516-.687 4.68.477a2.976 2.976 0 0 1 .005 4.208c-1.16 1.16-3.782 1.897-4.946.733-1.164-1.164-.899-4.258.261-5.418zM14.583 28.89c1.16-1.16 3.516-.687 4.68.477a2.976 2.976 0 0 1 .005 4.208c-1.16 1.16-3.782 1.897-4.946.733-1.164-1.164-.899-4.258.261-5.418zm18.585.797c1.16-1.16 3.526-.676 4.69.487a2.973 2.973 0 0 1-.005 4.198c-1.16 1.16-3.782 1.897-4.936.743-1.164-1.163-.909-4.268.251-5.428zm18.596.807c1.16-1.16 3.515-.686 4.679.478a2.975 2.975 0 0 1 .006 4.208c-1.16 1.16-3.783 1.896-4.947.733-1.164-1.164-.899-4.258.261-5.418zm96.144 78.358c1.161-1.161 3.526-.677 4.69.487a2.972 2.972 0 0 1-.005 4.198c-1.16 1.16-3.782 1.896-4.936.743-1.164-1.164-.909-4.268.251-5.428zm-77.559-77.56c1.16-1.16 3.525-.677 4.679.477a2.975 2.975 0 0 1 .006 4.208c-1.16 1.16-3.783 1.897-4.947.733-1.154-1.154-.899-4.258.261-5.418zm67.061 49.273c1.16-1.16 3.526-.676 4.689.487a2.963 2.963 0 0 1-.004 4.198c-1.16 1.16-3.773 1.907-4.937.743-1.163-1.163-.909-4.267.252-5.428zM88.934 32.09c1.16-1.161 3.526-.678 4.69.486a2.963 2.963 0 0 1-.005 4.198c-1.16 1.16-3.773 1.907-4.937.743-1.163-1.164-.909-4.268.252-5.428zm37.987 20.199c1.161-1.16 3.516-.687 4.68.477a2.975 2.975 0 0 1 .005 4.208c-1.16 1.16-3.782 1.897-4.946.733-1.164-1.164-.899-4.258.261-5.418zm-9.701-9.701c1.16-1.16 3.526-.677 4.69.487a2.973 2.973 0 0 1-.005 4.198c-1.16 1.16-3.783 1.896-4.936.743-1.164-1.164-.909-4.268.251-5.428zm-17.94-1.443c1.16-1.16 3.516-.687 4.68.477a2.976 2.976 0 0 1 .005 4.208c-1.16 1.16-3.784 1.898-4.947.734-1.164-1.164-.898-4.258.262-5.419zM79.888 21.753c1.16-1.16 3.526-.677 4.68.477a2.976 2.976 0 0 1 .005 4.208c-1.16 1.16-3.784 1.897-4.948.734-1.153-1.154-.897-4.259.263-5.42zm-9.691-9.692c1.16-1.16 3.515-.686 4.68.478a2.975 2.975 0 0 1 .005 4.208c-1.16 1.16-3.784 1.897-4.948.733-1.163-1.163-.898-4.258.263-5.419zM60.495 2.36c1.16-1.16 3.526-.676 4.69.487a2.972 2.972 0 0 1-.005 4.198c-1.16 1.16-3.783 1.898-4.937.744-1.164-1.163-.908-4.268.252-5.429zm-9.691-9.691c1.16-1.16 3.516-.687 4.68.477a2.976 2.976 0 0 1 .005 4.208c-1.16 1.16-3.784 1.898-4.947.734-1.164-1.164-.898-4.259.262-5.419zM263.295 187.37c1.16-1.161 3.525-.676 4.678.478a2.974 2.974 0 0 1 .007 4.207c-1.16 1.16-3.784 1.898-4.948.734-1.153-1.154-.898-4.259.263-5.419zm-9.691-9.691c1.16-1.161 3.514-.686 4.678.478a2.974 2.974 0 0 1 .007 4.207c-1.161 1.16-3.784 1.897-4.948.734-1.164-1.164-.898-4.259.263-5.419zm-9.702-9.702c1.161-1.16 3.525-.675 4.689.489a2.97 2.97 0 0 1-.004 4.196c-1.16 1.161-3.783 1.898-4.937.744-1.164-1.163-.908-4.268.252-5.429zm-9.691-9.691c1.16-1.16 3.515-.685 4.679.478a2.975 2.975 0 0 1 .006 4.207c-1.16 1.161-3.784 1.898-4.947.734-1.164-1.164-.898-4.258.262-5.419zm-9.701-9.701c1.16-1.16 3.525-.676 4.688.488a2.962 2.962 0 0 1-.003 4.197c-1.16 1.16-3.774 1.908-4.938.744-1.163-1.164-.907-4.269.253-5.429zm-9.691-9.691c1.16-1.161 3.525-.676 4.678.478a2.974 2.974 0 0 1 .007 4.207c-1.161 1.16-3.784 1.897-4.948.734-1.153-1.154-.898-4.259.263-5.419zm-9.692-9.692c1.161-1.16 3.515-.685 4.679.479a2.973 2.973 0 0 1 .006 4.207c-1.16 1.16-3.783 1.897-4.947.734-1.164-1.164-.898-4.259.262-5.42zm-9.701-9.701c1.16-1.16 3.525-.675 4.689.488a2.971 2.971 0 0 1-.004 4.197c-1.16 1.161-3.784 1.898-4.937.744-1.164-1.163-.908-4.268.252-5.429zm-9.691-9.691c1.16-1.16 3.515-.686 4.679.478a2.975 2.975 0 0 1 .006 4.207c-1.16 1.16-3.784 1.898-4.947.734-1.164-1.164-.898-4.259.262-5.419zm-9.701-9.701c1.16-1.16 3.525-.676 4.688.488a2.962 2.962 0 0 1-.003 4.197c-1.16 1.16-3.774 1.908-4.938.744-1.163-1.164-.908-4.269.253-5.429zm-9.692-9.69c1.16-1.16 3.525-.677 4.689.487a2.973 2.973 0 0 1-.004 4.198c-1.161 1.16-3.784 1.897-4.938.744-1.164-1.164-.908-4.269.253-5.43zm-9.692-9.692c1.161-1.16 3.516-.686 4.68.477a2.975 2.975 0 0 1 .005 4.209c-1.16 1.16-3.783 1.897-4.947.733-1.164-1.163-.898-4.258.262-5.419zm-9.701-9.701c1.16-1.16 3.526-.676 4.69.487a2.963 2.963 0 0 1-.005 4.198c-1.16 1.16-3.774 1.908-4.937.744-1.164-1.164-.908-4.269.252-5.429zm-9.691-9.691c1.16-1.16 3.526-.677 4.679.477a2.976 2.976 0 0 1 .006 4.208c-1.16 1.16-3.784 1.898-4.947.734-1.154-1.154-.898-4.259.262-5.42zm-29.084-29.084c1.161-1.16 3.516-.686 4.68.477a2.976 2.976 0 0 1 .005 4.208c-1.16 1.16-3.783 1.898-4.947.734-1.164-1.163-.898-4.258.262-5.419zm-9.701-9.701c1.16-1.16 3.526-.677 4.689.487a2.963 2.963 0 0 1-.004 4.198c-1.16 1.16-3.774 1.908-4.938.744-1.163-1.164-.908-4.269.253-5.429zm-9.691-9.691c1.16-1.16 3.525-.677 4.68.477a2.975 2.975 0 0 1 .005 4.208c-1.16 1.16-3.784 1.898-4.948.734-1.154-1.154-.898-4.259.263-5.42zM79.09 3.168c1.16-1.16 3.516-.687 4.68.477a2.975 2.975 0 0 1 .005 4.208c-1.16 1.16-3.783 1.897-4.947.734-1.164-1.164-.898-4.26.262-5.42zm-9.7-9.702c1.16-1.16 3.525-.676 4.689.487a2.972 2.972 0 0 1-.005 4.198c-1.16 1.16-3.783 1.898-4.937.744-1.164-1.163-.908-4.268.252-5.429zm193.106 175.32c1.161-1.161 3.515-.686 4.679.478a2.974 2.974 0 0 1 .007 4.207c-1.161 1.16-3.784 1.898-4.948.734-1.164-1.164-.898-4.259.262-5.419zm-9.701-9.701c1.161-1.161 3.525-.676 4.689.488a2.97 2.97 0 0 1-.004 4.197c-1.16 1.16-3.783 1.897-4.937.744-1.164-1.164-.908-4.269.252-5.429zm-9.691-9.692c1.16-1.16 3.515-.685 4.678.478a2.974 2.974 0 0 1 .007 4.207c-1.16 1.161-3.784 1.898-4.948.734-1.163-1.163-.897-4.258.263-5.419zm-9.701-9.701c1.16-1.16 3.525-.676 4.688.488a2.962 2.962 0 0 1-.003 4.197c-1.161 1.16-3.774 1.908-4.938.744-1.163-1.164-.908-4.269.253-5.429zm-9.691-9.691c1.16-1.16 3.524-.676 4.678.478a2.974 2.974 0 0 1 .007 4.207c-1.161 1.16-3.784 1.898-4.948.734-1.154-1.154-.898-4.259.263-5.419zm-9.692-9.691c1.161-1.161 3.515-.686 4.679.478a2.973 2.973 0 0 1 .006 4.207c-1.16 1.16-3.783 1.897-4.947.734-1.164-1.164-.898-4.259.262-5.419zm-9.701-9.702c1.16-1.16 3.525-.675 4.689.488a2.972 2.972 0 0 1-.004 4.197c-1.16 1.161-3.784 1.898-4.937.744-1.164-1.163-.908-4.268.252-5.429zm-9.691-9.691c1.16-1.16 3.515-.686 4.678.478a2.974 2.974 0 0 1 .007 4.207c-1.16 1.161-3.784 1.898-4.948.734-1.163-1.164-.898-4.259.263-5.419zm-9.701-9.701c1.16-1.16 3.524-.676 4.688.488a2.962 2.962 0 0 1-.003 4.197c-1.161 1.16-3.774 1.908-4.938.744-1.164-1.164-.908-4.269.253-5.43zm-9.691-9.691c1.16-1.16 3.524-.676 4.688.488a2.971 2.971 0 0 1-.003 4.197c-1.161 1.16-3.784 1.898-4.938.744-1.164-1.164-.908-4.269.253-5.43zm-9.692-9.691c1.16-1.16 3.515-.686 4.679.478a2.975 2.975 0 0 1 .006 4.207c-1.16 1.16-3.784 1.897-4.947.733-1.164-1.163-.898-4.258.262-5.418zm-9.701-9.702c1.16-1.16 3.525-.675 4.688.488a2.962 2.962 0 0 1-.003 4.197c-1.16 1.16-3.774 1.908-4.937.744-1.164-1.164-.908-4.268.252-5.429zm-9.691-9.691c1.16-1.16 3.525-.676 4.678.478a2.974 2.974 0 0 1 .007 4.207c-1.161 1.16-3.784 1.898-4.948.734-1.153-1.154-.898-4.259.263-5.419zm-9.691-9.691c1.16-1.16 3.514-.686 4.678.478a2.974 2.974 0 0 1 .007 4.207c-1.161 1.16-3.784 1.898-4.948.734-1.164-1.164-.898-4.259.263-5.42zm-9.702-9.701c1.16-1.16 3.525-.676 4.689.488a2.971 2.971 0 0 1-.004 4.197c-1.16 1.16-3.784 1.897-4.937.744-1.164-1.164-.908-4.27.252-5.43zm-19.392-19.393c1.16-1.16 3.525-.676 4.688.488a2.962 2.962 0 0 1-.003 4.197c-1.16 1.16-3.774 1.908-4.938.744-1.163-1.164-.908-4.269.253-5.429zm-9.691-9.691c1.16-1.16 3.524-.676 4.678.478a2.974 2.974 0 0 1 .007 4.207c-1.161 1.16-3.784 1.898-4.948.734-1.153-1.154-.898-4.259.263-5.42zm-9.692-9.691c1.16-1.16 3.515-.686 4.679.478a2.974 2.974 0 0 1 .006 4.207c-1.16 1.16-3.783 1.897-4.947.734-1.164-1.164-.898-4.259.262-5.42zM271.39 159.892c1.161-1.16 3.515-.686 4.679.478a2.973 2.973 0 0 1 .006 4.207c-1.16 1.16-3.783 1.898-4.947.734-1.164-1.164-.898-4.259.262-5.419zm-9.701-9.701c1.16-1.161 3.525-.676 4.689.488a2.972 2.972 0 0 1-.004 4.197c-1.16 1.16-3.784 1.897-4.937.744-1.164-1.164-.908-4.269.252-5.429zm-9.691-9.692c1.16-1.16 3.515-.685 4.678.478a2.974 2.974 0 0 1 .007 4.207c-1.16 1.161-3.784 1.898-4.948.734-1.163-1.163-.897-4.258.263-5.419zm-9.702-9.701c1.161-1.16 3.525-.675 4.689.488a2.962 2.962 0 0 1-.003 4.197c-1.161 1.161-3.774 1.908-4.938.744-1.164-1.164-.908-4.268.252-5.429zm-9.691-9.691c1.161-1.16 3.525-.676 4.679.478a2.973 2.973 0 0 1 .006 4.207c-1.16 1.16-3.783 1.898-4.947.734-1.154-1.154-.898-4.259.262-5.419zm-9.691-9.691c1.161-1.161 3.515-.686 4.679.478a2.974 2.974 0 0 1 .006 4.207c-1.16 1.16-3.783 1.897-4.947.734-1.164-1.164-.898-4.259.262-5.419zm-9.701-9.702c1.16-1.16 3.525-.675 4.689.489a2.972 2.972 0 0 1-.004 4.197c-1.16 1.16-3.784 1.897-4.937.744-1.164-1.164-.908-4.269.252-5.43zm-9.691-9.691c1.16-1.16 3.515-.685 4.678.478a2.974 2.974 0 0 1 .007 4.207c-1.16 1.16-3.784 1.898-4.948.734-1.163-1.163-.897-4.258.263-5.419zm-9.702-9.701c1.161-1.16 3.525-.676 4.689.488a2.962 2.962 0 0 1-.003 4.197c-1.161 1.16-3.774 1.908-4.938.744-1.164-1.164-.908-4.269.252-5.429zm-9.691-9.692c1.161-1.16 3.525-.675 4.689.489a2.97 2.97 0 0 1-.004 4.197c-1.16 1.16-3.783 1.898-4.937.744-1.164-1.164-.908-4.269.252-5.43zm-9.691-9.69c1.16-1.16 3.515-.686 4.679.478a2.974 2.974 0 0 1 .006 4.207c-1.16 1.16-3.784 1.897-4.947.734-1.164-1.164-.898-4.26.262-5.42zm-9.701-9.702c1.16-1.16 3.524-.675 4.688.489a2.962 2.962 0 0 1-.003 4.196c-1.161 1.16-3.774 1.908-4.938.744-1.163-1.163-.908-4.268.253-5.429zm-9.691-9.691c1.16-1.16 3.524-.675 4.678.478a2.974 2.974 0 0 1 .007 4.207c-1.161 1.16-3.784 1.898-4.948.734-1.154-1.154-.898-4.258.263-5.419zm-9.692-9.691c1.161-1.16 3.515-.686 4.679.478a2.973 2.973 0 0 1 .006 4.207c-1.16 1.16-3.783 1.898-4.947.734-1.164-1.164-.898-4.259.262-5.42zm-9.701-9.701c1.161-1.16 3.525-.676 4.689.488a2.971 2.971 0 0 1-.004 4.197c-1.16 1.16-3.783 1.897-4.937.744-1.164-1.164-.908-4.269.252-5.43zm-9.691-9.692c1.16-1.16 3.515-.685 4.679.479a2.975 2.975 0 0 1 .006 4.206c-1.16 1.16-3.784 1.898-4.947.735-1.164-1.164-.898-4.26.262-5.42zm-9.701-9.701c1.16-1.16 3.524-.675 4.688.488a2.962 2.962 0 0 1-.003 4.197c-1.161 1.16-3.774 1.908-4.938.744-1.164-1.163-.908-4.268.253-5.429zm-9.692-9.691c1.161-1.16 3.525-.676 4.679.478a2.974 2.974 0 0 1 .007 4.207c-1.161 1.16-3.784 1.898-4.948.734-1.154-1.154-.898-4.259.262-5.419zm164.014 146.226c1.16-1.161 3.525-.676 4.688.488a2.971 2.971 0 0 1-.003 4.197c-1.16 1.16-3.784 1.897-4.938.744-1.163-1.164-.907-4.269.253-5.429zm-9.691-9.691c1.16-1.161 3.514-.686 4.678.478a2.974 2.974 0 0 1 .007 4.207c-1.161 1.16-3.784 1.897-4.948.734-1.163-1.164-.898-4.259.263-5.419zm-9.701-9.702c1.16-1.16 3.524-.675 4.688.488a2.962 2.962 0 0 1-.003 4.197c-1.161 1.161-3.774 1.908-4.938.744-1.164-1.163-.908-4.268.253-5.429zm-9.692-9.691c1.161-1.16 3.525-.676 4.679.478a2.973 2.973 0 0 1 .006 4.207c-1.16 1.16-3.783 1.898-4.947.734-1.154-1.154-.898-4.259.262-5.419zm-9.691-9.691c1.16-1.161 3.515-.686 4.678.478a2.974 2.974 0 0 1 .007 4.207c-1.16 1.16-3.784 1.898-4.947.734-1.164-1.164-.898-4.259.262-5.419zm-9.701-9.702c1.16-1.16 3.525-.675 4.688.489a2.971 2.971 0 0 1-.003 4.197c-1.16 1.16-3.784 1.897-4.938.744-1.163-1.164-.908-4.27.253-5.43zm-9.691-9.69c1.16-1.161 3.514-.686 4.678.478a2.974 2.974 0 0 1 .007 4.206c-1.161 1.16-3.784 1.898-4.948.734-1.164-1.163-.898-4.258.263-5.419zm-9.702-9.702c1.161-1.16 3.525-.675 4.689.488a2.962 2.962 0 0 1-.003 4.197c-1.161 1.16-3.774 1.908-4.938.744-1.164-1.164-.908-4.269.252-5.429zm-9.691-9.691c1.16-1.16 3.525-.676 4.689.488a2.972 2.972 0 0 1-.004 4.197c-1.16 1.16-3.784 1.898-4.937.744-1.164-1.164-.908-4.269.252-5.429zm-9.691-9.691c1.16-1.16 3.515-.686 4.678.478a2.974 2.974 0 0 1 .007 4.207c-1.16 1.16-3.784 1.898-4.948.734-1.163-1.164-.897-4.259.263-5.42zm-9.701-9.702c1.16-1.16 3.525-.675 4.688.489a2.962 2.962 0 0 1-.003 4.197c-1.161 1.16-3.774 1.907-4.938.743-1.163-1.163-.908-4.268.253-5.429zm-9.691-9.691c1.16-1.16 3.524-.675 4.678.478a2.974 2.974 0 0 1 .007 4.207c-1.161 1.16-3.784 1.898-4.948.734-1.154-1.154-.898-4.258.263-5.419zm-9.692-9.691c1.161-1.16 3.515-.686 4.679.478a2.973 2.973 0 0 1 .006 4.207c-1.16 1.16-3.783 1.898-4.947.734-1.164-1.164-.898-4.259.262-5.419zm-9.701-9.702c1.16-1.16 3.525-.675 4.689.489a2.972 2.972 0 0 1-.004 4.197c-1.16 1.16-3.784 1.898-4.937.744-1.164-1.164-.908-4.269.252-5.43zM125.155-4.132c1.16-1.16 3.524-.675 4.688.488a2.962 2.962 0 0 1-.003 4.197c-1.161 1.16-3.774 1.908-4.938.744-1.163-1.163-.908-4.268.253-5.429zm144.631 126.844c1.16-1.161 3.515-.686 4.678.478a2.974 2.974 0 0 1 .007 4.207c-1.16 1.16-3.784 1.897-4.948.734-1.163-1.164-.898-4.259.263-5.419zm-9.702-9.702c1.161-1.16 3.525-.675 4.689.488a2.961 2.961 0 0 1-.004 4.197c-1.16 1.161-3.773 1.908-4.937.744-1.164-1.163-.908-4.268.252-5.429zm-9.691-9.691c1.161-1.16 3.525-.675 4.679.478a2.974 2.974 0 0 1 .006 4.207c-1.16 1.161-3.783 1.898-4.947.734-1.154-1.154-.898-4.258.262-5.419zm-9.691-9.691c1.16-1.16 3.515-.686 4.679.478a2.975 2.975 0 0 1 .006 4.207c-1.16 1.16-3.784 1.898-4.947.734-1.164-1.164-.898-4.259.262-5.42zm-9.701-9.701c1.16-1.16 3.525-.676 4.688.488a2.971 2.971 0 0 1-.003 4.197c-1.16 1.16-3.784 1.898-4.938.744-1.163-1.164-.907-4.269.253-5.43zm-9.692-9.691c1.161-1.16 3.515-.686 4.679.478a2.974 2.974 0 0 1 .007 4.207c-1.161 1.16-3.784 1.897-4.948.733-1.164-1.163-.898-4.258.262-5.418zm-9.701-9.702c1.161-1.16 3.525-.675 4.689.488a2.961 2.961 0 0 1-.004 4.197c-1.16 1.16-3.773 1.908-4.937.744-1.164-1.163-.908-4.268.252-5.429zm-9.691-9.691c1.161-1.16 3.525-.676 4.689.488a2.971 2.971 0 0 1-.004 4.197c-1.16 1.16-3.784 1.898-4.937.744-1.164-1.164-.908-4.269.252-5.429zm-9.691-9.691c1.16-1.16 3.515-.686 4.678.478a2.974 2.974 0 0 1 .007 4.207c-1.16 1.16-3.784 1.898-4.947.734-1.164-1.164-.898-4.259.262-5.42zm-9.701-9.702c1.16-1.16 3.524-.675 4.688.489a2.962 2.962 0 0 1-.003 4.197c-1.161 1.16-3.774 1.907-4.938.744-1.164-1.164-.908-4.27.253-5.43zm-9.692-9.69c1.161-1.161 3.525-.676 4.679.477a2.973 2.973 0 0 1 .006 4.207c-1.16 1.16-3.783 1.898-4.947.734-1.154-1.153-.898-4.258.262-5.419zm-9.691-9.692c1.161-1.16 3.515-.686 4.679.478a2.974 2.974 0 0 1 .006 4.207c-1.16 1.16-3.783 1.898-4.947.734-1.164-1.164-.898-4.258.262-5.419zm-9.701-9.701c1.16-1.16 3.525-.676 4.689.488a2.972 2.972 0 0 1-.004 4.197c-1.16 1.16-3.784 1.898-4.937.744-1.164-1.164-.908-4.269.252-5.43zm-9.691-9.691c1.16-1.16 3.514-.686 4.678.478a2.974 2.974 0 0 1 .007 4.207c-1.161 1.16-3.784 1.897-4.948.734-1.164-1.164-.898-4.259.263-5.42zm125.228 107.44c1.161-1.16 3.525-.675 4.689.489a2.961 2.961 0 0 1-.004 4.197c-1.16 1.16-3.773 1.907-4.937.744-1.164-1.164-.908-4.269.252-5.43zm-9.691-9.691c1.16-1.16 3.525-.675 4.679.478a2.975 2.975 0 0 1 .006 4.207c-1.16 1.161-3.784 1.898-4.947.734-1.154-1.153-.898-4.258.262-5.419zm-9.691-9.691c1.16-1.16 3.515-.686 4.678.478a2.974 2.974 0 0 1 .007 4.207c-1.16 1.16-3.784 1.898-4.948.734-1.163-1.164-.898-4.259.263-5.419zm-9.701-9.701c1.16-1.16 3.524-.676 4.688.488a2.971 2.971 0 0 1-.003 4.197c-1.161 1.16-3.784 1.898-4.938.744-1.163-1.164-.908-4.269.253-5.43zm-9.692-9.691c1.161-1.16 3.515-.686 4.679.478a2.974 2.974 0 0 1 .007 4.207c-1.161 1.16-3.784 1.897-4.948.734-1.164-1.164-.898-4.26.262-5.42zm-9.701-9.702c1.16-1.16 3.525-.675 4.689.488a2.963 2.963 0 0 1-.004 4.197c-1.16 1.16-3.774 1.908-4.937.744-1.164-1.163-.908-4.268.252-5.429zm-9.691-9.69c1.16-1.161 3.525-.677 4.688.487a2.971 2.971 0 0 1-.003 4.197c-1.16 1.16-3.784 1.898-4.937.744-1.164-1.163-.908-4.269.252-5.429zm-9.691-9.692c1.16-1.16 3.515-.686 4.678.478a2.974 2.974 0 0 1 .007 4.207c-1.161 1.16-3.784 1.898-4.948.734-1.163-1.164-.898-4.259.263-5.42zm-9.701-9.701c1.16-1.16 3.524-.676 4.688.488a2.962 2.962 0 0 1-.003 4.197c-1.161 1.16-3.774 1.908-4.938.744-1.164-1.164-.908-4.269.253-5.43zm-9.692-9.692c1.16-1.16 3.525-.675 4.679.479a2.974 2.974 0 0 1 .006 4.206c-1.16 1.16-3.784 1.898-4.947.734-1.154-1.153-.898-4.258.262-5.419zm-9.691-9.691c1.16-1.16 3.515-.685 4.679.478a2.975 2.975 0 0 1 .006 4.207c-1.16 1.16-3.784 1.898-4.947.734-1.164-1.163-.898-4.258.262-5.419zm-9.701-9.701c1.16-1.16 3.525-.676 4.688.488a2.971 2.971 0 0 1-.003 4.197c-1.16 1.16-3.784 1.898-4.938.744-1.163-1.164-.908-4.269.253-5.429zm105.846 88.058c1.16-1.16 3.525-.675 4.679.478a2.975 2.975 0 0 1 .006 4.207c-1.16 1.16-3.784 1.898-4.947.734-1.154-1.153-.898-4.258.262-5.419zm-9.691-9.691c1.16-1.16 3.515-.686 4.678.478a2.974 2.974 0 0 1 .007 4.207c-1.16 1.16-3.784 1.898-4.948.734-1.163-1.164-.897-4.258.263-5.419zm-9.702-9.701c1.161-1.16 3.525-.676 4.689.488a2.971 2.971 0 0 1-.003 4.197c-1.161 1.16-3.784 1.898-4.938.744-1.164-1.164-.908-4.269.252-5.43zm-9.691-9.691c1.161-1.16 3.515-.686 4.679.478a2.973 2.973 0 0 1 .006 4.207c-1.16 1.16-3.783 1.898-4.947.734-1.164-1.164-.898-4.259.262-5.42zm-9.701-9.702c1.16-1.16 3.525-.675 4.689.489a2.962 2.962 0 0 1-.004 4.197c-1.16 1.16-3.774 1.907-4.937.743-1.164-1.163-.908-4.268.252-5.429zm-9.691-9.691c1.16-1.16 3.525-.675 4.689.488a2.972 2.972 0 0 1-.004 4.197c-1.16 1.16-3.784 1.898-4.937.744-1.164-1.163-.908-4.268.252-5.429zm-9.691-9.691c1.16-1.16 3.514-.686 4.678.478a2.974 2.974 0 0 1 .007 4.207c-1.161 1.16-3.784 1.898-4.948.734-1.164-1.164-.898-4.259.263-5.419zm-9.702-9.701c1.161-1.16 3.525-.676 4.689.488a2.961 2.961 0 0 1-.004 4.197c-1.16 1.16-3.773 1.908-4.937.744-1.164-1.164-.908-4.269.252-5.43zm-9.691-9.691c1.161-1.16 3.525-.676 4.679.478a2.974 2.974 0 0 1 .006 4.207c-1.16 1.16-3.783 1.897-4.947.734-1.154-1.154-.898-4.26.262-5.42zM180.93-1.72c1.16-1.16 3.515-.685 4.679.478a2.975 2.975 0 0 1 .006 4.207c-1.16 1.16-3.784 1.898-4.947.734-1.164-1.163-.898-4.258.262-5.419zm86.454 68.666c1.16-1.16 3.514-.685 4.678.478a2.974 2.974 0 0 1 .007 4.207c-1.161 1.16-3.784 1.898-4.948.734-1.164-1.163-.898-4.258.263-5.419zm-9.702-9.701c1.161-1.16 3.525-.676 4.689.488a2.971 2.971 0 0 1-.003 4.197c-1.161 1.16-3.784 1.898-4.938.744-1.164-1.164-.908-4.269.252-5.429zm-9.691-9.691c1.161-1.16 3.515-.686 4.679.478a2.973 2.973 0 0 1 .006 4.207c-1.16 1.16-3.783 1.898-4.947.734-1.164-1.164-.898-4.259.262-5.42zm-9.701-9.701c1.16-1.16 3.525-.676 4.688.488a2.962 2.962 0 0 1-.003 4.197c-1.16 1.16-3.774 1.907-4.937.744-1.164-1.164-.908-4.27.252-5.43zm-9.691-9.692c1.16-1.16 3.525-.675 4.688.488a2.971 2.971 0 0 1-.003 4.197c-1.161 1.16-3.784 1.898-4.938.744-1.163-1.163-.908-4.268.253-5.429zm-9.691-9.691c1.16-1.16 3.514-.686 4.678.478a2.974 2.974 0 0 1 .007 4.207c-1.161 1.16-3.784 1.898-4.948.734-1.164-1.164-.898-4.259.263-5.419zm-9.702-9.701c1.16-1.16 3.525-.676 4.689.488a2.962 2.962 0 0 1-.004 4.197c-1.16 1.16-3.773 1.908-4.937.744-1.164-1.164-.908-4.269.252-5.43zm-9.691-9.691c1.16-1.16 3.525-.676 4.679.478a2.975 2.975 0 0 1 .006 4.207c-1.16 1.16-3.784 1.897-4.947.734-1.154-1.154-.898-4.259.262-5.42zm67.061 49.273c1.161-1.16 3.525-.675 4.689.488a2.97 2.97 0 0 1-.004 4.197c-1.161 1.161-3.783 1.898-4.937.744-1.164-1.164-.909-4.267.252-5.429zm-9.691-9.691c1.16-1.16 3.515-.686 4.679.478a2.974 2.974 0 0 1 .006 4.207c-1.161 1.161-3.784 1.898-4.947.734-1.164-1.164-.899-4.258.262-5.42zm-9.701-9.701c1.16-1.16 3.525-.676 4.689.488a2.963 2.963 0 0 1-.004 4.197c-1.161 1.161-3.774 1.907-4.937.744-1.164-1.164-.909-4.268.252-5.43zm-9.691-9.692c1.16-1.16 3.524-.675 4.688.489a2.971 2.971 0 0 1-.003 4.197c-1.162 1.16-3.784 1.897-4.938.744-1.164-1.164-.909-4.268.253-5.43zm-9.692-9.691c1.161-1.16 3.515-.685 4.679.478a2.973 2.973 0 0 1 .006 4.207c-1.161 1.162-3.783 1.898-4.947.734-1.164-1.163-.899-4.257.262-5.419zM218.1-.125c1.161-1.16 3.525-.676 4.689.488a2.961 2.961 0 0 1-.004 4.197c-1.161 1.161-3.773 1.908-4.937.744-1.164-1.164-.909-4.268.252-5.429z"/></g></svg>