<svg width="365" height="505" viewBox="0 0 365 505" fill="none" xmlns="http://www.w3.org/2000/svg"><path d="M181.601 423.085a27.191 27.191 0 0 1-18.961-4.433c-12.484-8.442-15.761-25.405-7.32-37.889a27.203 27.203 0 0 1 17.429-11.508c6.856-1.324 14.219-.033 20.46 4.188a27.186 27.186 0 0 1 11.178 15.946l-22.786 33.696zm-12.921-34.537l-5.306 1.025 7.436 8.288 1.75-4.799-3.88-4.514zm2.57-.497l11.924 13.872 5.899-17.315-17.823 3.443zm27.921 4.993a24.863 24.863 0 0 0-4.747 2.408 24.866 24.866 0 0 0-7.08 6.963 24.803 24.803 0 0 0-3.953 9.86 25.089 25.089 0 0 0-.34 4.609l16.12-23.84zm-.664-11.225a24.914 24.914 0 0 0-6.571-6.493 24.865 24.865 0 0 0-9.165-3.826 24.955 24.955 0 0 0-9.59-.012 24.931 24.931 0 0 0-15.977 10.548 24.846 24.846 0 0 0-3.825 9.165c-.626 3.174-.63 6.4-.014 9.59a24.915 24.915 0 0 0 3.585 8.896 24.838 24.838 0 0 0 6.965 7.081 24.88 24.88 0 0 0 16.388 4.179l.699-1.033a27.195 27.195 0 0 1 2.119-14.563l-8.863-10.312-2.61 7.162-12.65-14.099 7.974-1.54 11.163-2.157 14.353-2.773-6.295 18.478a27.186 27.186 0 0 1 15.026-10.096l.7-1.035a24.834 24.834 0 0 0-3.412-7.16z" fill="url(#a)" style="mix-blend-mode:multiply"/><path d="M379.073 350.024l-16.035-12.784-1.461-1.165-16.035-12.784 23.39-29.338 16.035 12.784 1.461 1.165 16.035 12.785-23.39 29.337zm-9.858-53.556l-21.159 26.539 14.636 11.669 21.159-26.539-14.636-11.669zm-5.062 39.373l14.636 11.669 21.159-26.539-14.636-11.669-21.159 26.539z" fill="#fff"/><path d="M354.887 321.602a.893.893 0 0 1-1.254.142.893.893 0 0 1-.14-1.254.894.894 0 0 1 1.256-.146.894.894 0 0 1 .138 1.258zm2.227-2.794a.892.892 0 0 1-1.395-1.111.893.893 0 0 1 1.257-.146.893.893 0 0 1 .138 1.257zm2.231-2.797a.895.895 0 0 1-1.257.146.895.895 0 0 1 1.116-1.399.893.893 0 0 1 .141 1.253zm2.226-2.794a.892.892 0 0 1-1.394-1.111.89.89 0 0 1 1.394 1.111zm2.228-2.794a.89.89 0 0 1-1.254.142.889.889 0 0 1-.14-1.253.887.887 0 0 1 1.251-.141.888.888 0 0 1 .143 1.252zm-2.341 5.806l4.294-5.385 4.562 11.47-6.993-1.085 1.258 3.37-8.85-1.183 2.387-2.995 3.342-4.192zm3.77-1.867l-3.799 4.764 6.068.941-2.269-5.705zm-6.136 7.696l2.77.374-.562-1.518-1.154-.178-1.054 1.322z" fill="#fff"/><path d="M309.26 133.607l1.577 2.457.526.82.525.818c-2.238 1.435-2.878 4.441-1.429 6.699 1.449 2.257 4.447 2.926 6.684 1.49l.526.82.526.818 1.576 2.457.867 15.631-11.027 2.452-1.53-5.955-18.662 11.976-14.716-22.93 18.662-11.977-4.777-3.872 6.823-9.002 13.849 7.298zm-17.994 1.391l3.306 2.679 2.096 1.7-2.252 1.445-17.038 10.935 12.613 19.654 17.039-10.935 2.251-1.445.672 2.613 1.059 4.122 7.606-1.692-.749-13.481-1.45-2.26a6.805 6.805 0 0 1-7.583-2.891 6.804 6.804 0 0 1 .531-8.098l-1.45-2.26-11.946-6.296-4.705 6.21z" fill="url(#b)" style="mix-blend-mode:multiply"/><path d="M297.966 154.255l3.454-.091-3.778 7.711-2.002-3.119-2.803-4.368-3.604-5.616 11.857-.561-3.124 6.044zm-.558 3.686l.859-1.752-1.319.034-.286.555.746 1.163zm-1.957-3.049l2.369-4.582-5.153.243 2.784 4.339z" fill="url(#c)" style="mix-blend-mode:multiply"/><g clip-path="url(#d)"><path d="M279.658 392.953l-10.675 16.424 12.144 8.538c2.421 1.701 3.076 5.091 1.463 7.572a5.155 5.155 0 0 1-3.348 2.274 5.15 5.15 0 0 1-3.954-.864l-12.144-8.537-10.675 16.424-8.765-6.161 10.675-16.424-13.959-9.813-1.463-7.573 7.302-1.411 13.959 9.814 10.675-16.424 8.765 6.161zm-11.649 17.922l-1.455 2.239 9.223 6.483 1.456-2.239-9.224-6.483zm8.253 14.526c.78.548 1.715.752 2.636.575a3.426 3.426 0 0 0 2.232-1.516c1.072-1.651.634-3.916-.976-5.048l-1.461-1.027-3.893 5.989 1.462 1.027zm-2.922-2.054l1.463-2.252-9.222-6.484-1.464 2.252 9.223 6.484zm-21.359 8.913l1.918-2.95-1.462-1.027a.934.934 0 0 1-.244-1.262.856.856 0 0 1 1.219-.234l1.459 1.026 1.946-2.994-1.46-1.027a.932.932 0 0 1-.244-1.262.854.854 0 0 1 1.217-.235l1.461 1.026 1.947-2.994-1.46-1.026-.002-.001a.934.934 0 0 1-.244-1.261.855.855 0 0 1 1.218-.235v-.001l1.46 1.027 1.947-2.994-1.461-1.027a.93.93 0 0 1-.243-1.262.854.854 0 0 1 1.216-.235l1.46 1.027 1.946-2.994-1.46-1.027a.932.932 0 0 1-.244-1.262.854.854 0 0 1 1.217-.235h.001l1.46 1.027 1.947-2.995-1.462-1.026v-.001a.935.935 0 0 1-.244-1.262.857.857 0 0 1 1.218-.235l1.46 1.027 1.947-2.994-1.461-1.027a.93.93 0 0 1-.243-1.262.853.853 0 0 1 1.216-.235v.001l1.46 1.026 1.947-2.994-1.459-1.027h-.002a.932.932 0 0 1-.243-1.262.853.853 0 0 1 1.216-.235l1.461 1.027 1.917-2.951-5.843-4.107-25.243 38.837 5.843 4.107zm-10.958-35.994l.285 1.478 1.141-1.754-1.426.276zm4.868-.941l-1.009.195-3.086 4.748.202 1.045 13.355 9.388 1.464-2.252-10.307-7.246a.932.932 0 0 1-.244-1.262.853.853 0 0 1 1.216-.235l10.308 7.246 1.456-2.239-13.355-9.388z" fill="url(#e)" style="mix-blend-mode:multiply"/></g><path d="M217.967 181.827l-9.112-5.951a.907.907 0 1 1 .993-1.519l9.111 5.95a.907.907 0 0 1-.992 1.52z" fill="url(#f)" style="mix-blend-mode:multiply"/><path d="M207.863 177.396l3.037 1.983a.907.907 0 1 1-.991 1.518l-3.037-1.984a.906.906 0 1 1 .991-1.517z" fill="url(#g)" style="mix-blend-mode:multiply"/><path d="M229.923 192.399l-2.918 1.417.308-8.053 2.893 1.889 4.048 2.644 5.208 3.402-9.92 5.076.381-6.375zm-.921-3.365l-.069 1.83 1.113-.54.035-.586-1.079-.704zm2.827 1.846l-.287 4.833 4.31-2.205-4.023-2.628z" fill="url(#h)" style="mix-blend-mode:multiply"/><path d="M228.844 214.929l-34.929-22.812a.908.908 0 0 1-.263-1.256l13.886-21.261a.907.907 0 0 1 1.255-.262l34.928 22.812a.906.906 0 0 1 .263 1.253l-13.886 21.262a.907.907 0 0 1-1.254.264zm-1.259-2.989l-9.151-18.641c-.073-.148-.365-.339-.53-.346l-20.753-.89 30.434 19.877zm-19.026-40.587l-12.315 18.856 21.737.932c.412.017.841.172 1.213.415.372.243.687.574.868.944l9.589 19.533 12.318-18.86-33.41-21.82z" fill="url(#i)" style="mix-blend-mode:multiply"/><path d="M130.028 439.829c2.077 10.753-4.914 21.146-15.616 23.214a19.583 19.583 0 0 1-10.192-.734 19.567 19.567 0 0 1-9.184 4.477c-10.703 2.068-21.062-4.973-23.14-15.726a19.839 19.839 0 0 1 6.555-18.844c-.712-9.87 6.016-18.928 15.929-20.844 9.913-1.915 19.531 3.986 22.546 13.411a19.84 19.84 0 0 1 13.102 15.046zm-49.159-9.384a19.587 19.587 0 0 1 6.644-2.598 19.57 19.57 0 0 1 10.191.733 19.58 19.58 0 0 1 9.185-4.477 19.592 19.592 0 0 1 7.133-.063 17.284 17.284 0 0 0-6.219-7.56 17.219 17.219 0 0 0-6.095-2.612 17.085 17.085 0 0 0-6.858-.062 17.09 17.09 0 0 0-6.341 2.612 17.225 17.225 0 0 0-4.684 4.694 17.294 17.294 0 0 0-2.956 9.333zm34.054-3.678a17.1 17.1 0 0 0-7.564-.231 17.086 17.086 0 0 0-7.09 3.148 19.825 19.825 0 0 1 10.253 13.28 17.31 17.31 0 0 0 1.935-2.392 17.323 17.323 0 0 0 2.639-13.005 17.468 17.468 0 0 0-.173-.8zm-6.559 18.081a17.309 17.309 0 0 0-2.747-7.18 17.312 17.312 0 0 0-4.681-4.714 17.21 17.21 0 0 0-2.675-1.492c-.707.73-1.35 1.524-1.927 2.381a17.327 17.327 0 0 0-2.463 13.805 17.102 17.102 0 0 0 7.562.231 17.105 17.105 0 0 0 6.931-3.031zm-6.461 5.464a19.608 19.608 0 0 1-7.132.063 17.284 17.284 0 0 0 6.218 7.56 17.269 17.269 0 0 0 2.675 1.493 17.313 17.313 0 0 0 1.927-2.382 17.32 17.32 0 0 0 2.954-9.332 19.605 19.605 0 0 1-6.642 2.598zm-10.736-3.609a19.825 19.825 0 0 1 4.568-16.143 17.073 17.073 0 0 0-7.752-.28 17.079 17.079 0 0 0-6.933 3.031c.039.269.085.537.137.807a17.311 17.311 0 0 0 7.293 11.087 17.336 17.336 0 0 0 2.687 1.498zm10.488 14.502a19.819 19.819 0 0 1-9.788-11.574 19.839 19.839 0 0 1-12.975-14.436 17.369 17.369 0 0 0-1.934 2.391 17.26 17.26 0 0 0-2.588 6.119 17.303 17.303 0 0 0-.052 6.887 17.314 17.314 0 0 0 2.614 6.373 17.276 17.276 0 0 0 4.68 4.714 17.212 17.212 0 0 0 6.096 2.611 17.1 17.1 0 0 0 6.858.063 17.073 17.073 0 0 0 7.089-3.148zm25.9-14.02c.478-2.269.496-4.587.051-6.888a17.3 17.3 0 0 0-2.613-6.373 17.27 17.27 0 0 0-4.681-4.714 17.312 17.312 0 0 0-2.686-1.498 19.838 19.838 0 0 1-6.663 18.23 19.824 19.824 0 0 1-4.773 14.387 17.055 17.055 0 0 0 7.752.28 17.072 17.072 0 0 0 6.34-2.612 17.222 17.222 0 0 0 4.684-4.694 17.257 17.257 0 0 0 2.589-6.118z" fill="url(#j)" style="mix-blend-mode:multiply"/><path d="M189.282 442.221l9.743-9.901 4.176-4.243 9.744-9.902 35.339 31.993-26.446 26.874-32.556-34.821zm2.749.036l2.714 2.901 8.524-8.662-2.829-2.784-8.409 8.545zm9.802-9.96l5.657 5.568 1.392-1.414-5.658-5.568-1.391 1.414zm2.783-2.828l2.828 2.784 8.525-8.663-2.945-2.666-8.408 8.545zm40.803 20.78l-27.977-25.326-8.583 8.722 2.829 2.784a.992.992 0 1 1-1.392 1.414.992.992 0 0 1-1.391 1.414.992.992 0 0 1-1.393 1.415l-2.829-2.784-8.582 8.721 25.773 27.566 23.545-23.926z" fill="#fff"/><path d="M214.379 446.898l9.29 2.452-1.222-4.722 11.785 2.845-3.646 3.705-5.104 5.186-6.562 6.669-4.541-16.135zm15.978 1.681l-5.161-1.245.672 2.598 2.508.661 1.981-2.014zm-3.585 3.644l-9.542-2.52 2.674 9.499 6.868-6.979z" fill="#fff"/><g clip-path="url(#k)"><path d="M254.878 267.273l69.256-34.914 7.499 14.871-69.258 34.915-7.497-14.872zm68.028-31.188l-4.884 2.464 1.251 2.478a1.394 1.394 0 0 1-.615 1.866 1.394 1.394 0 0 1-1.866-.615l.001-.002-1.249-2.478-4.958 2.499 1.249 2.478a1.387 1.387 0 1 1-2.478 1.251l-1.249-2.48-4.958 2.499 1.249 2.48h.001a1.387 1.387 0 0 1-2.479 1.249h-.001l-1.249-2.478-4.957 2.499 1.25 2.478a1.39 1.39 0 0 1-.615 1.865 1.391 1.391 0 0 1-1.865-.614l-1.249-2.48-4.958 2.499 1.25 2.478a1.387 1.387 0 1 1-2.479 1.251l-1.249-2.48-4.957 2.5 1.249 2.479a1.387 1.387 0 1 1-2.478 1.249h-.001l-1.249-2.478-4.958 2.5 1.25 2.477a1.39 1.39 0 0 1-.615 1.866 1.39 1.39 0 0 1-1.864-.615l.001-.002-1.25-2.478-4.958 2.5 1.248 2.477h.002a1.39 1.39 0 0 1-.615 1.866 1.387 1.387 0 0 1-1.864-.615l-1.25-2.478-4.883 2.462 4.997 9.915 64.3-32.416-4.998-9.916z" fill="url(#l)" style="mix-blend-mode:multiply"/></g><path d="M366.02 386.214l-16.346 30.778a.758.758 0 0 1-1.024.313l-21.409-11.371a.756.756 0 0 1-.314-1.023l5.897-11.104-4.44-1.331-.142.267a.758.758 0 0 1-1.338-.71l5.686-10.707a.758.758 0 0 1 1.338.711l-.143.269 3.589 2.933 5.898-11.106a.758.758 0 0 1 1.024-.313l21.41 11.37a.76.76 0 0 1 .314 1.024zm-36.911 4.896l4.434 1.33 3.102-5.839-3.584-2.931-3.952 7.44zm35.216-4.936l-17.395-9.238-15.633 29.436 17.395 9.238 15.633-29.436zm-27.888 4.059l-7.816 14.718 1.338.711 7.816-14.719 7.817-14.718-1.338-.711-7.817 14.719z" fill="url(#m)" style="mix-blend-mode:multiply"/><path d="M337.461 389.919a.756.756 0 1 1-.708 1.337.756.756 0 0 1 .708-1.337z" fill="url(#n)" style="mix-blend-mode:multiply"/><path d="M347.084 412.182l10.658-20.07.001-.002a.758.758 0 0 1 1.338.711l-10.659 20.072a.758.758 0 1 1-1.338-.711z" fill="url(#o)" style="mix-blend-mode:multiply"/><path d="M344.407 410.76l5.685-10.703v-.001a.757.757 0 1 1 1.338.71l-5.685 10.704a.757.757 0 1 1-1.338-.71z" fill="url(#p)" style="mix-blend-mode:multiply"/><path d="M341.728 409.339l7.816-14.717.001-.001a.757.757 0 1 1 1.338.71l-7.817 14.719a.757.757 0 1 1-1.338-.711z" fill="url(#q)" style="mix-blend-mode:multiply"/><path d="M339.054 407.918l4.974-9.366a.758.758 0 1 1 1.337.711l-4.973 9.365a.757.757 0 1 1-1.338-.71z" fill="url(#r)" style="mix-blend-mode:multiply"/><path d="M336.378 406.497l9.238-17.394-.001-.001a.759.759 0 0 1 1.338.711l-9.237 17.394a.757.757 0 1 1-1.338-.71z" fill="url(#s)" style="mix-blend-mode:multiply"/><path d="M333.701 405.075l2.842-5.351a.758.758 0 1 1 1.338.71l-2.841 5.351a.758.758 0 1 1-1.339-.71z" fill="url(#t)" style="mix-blend-mode:multiply"/><path d="M222.107 122.046l-4.631 7.243-10.462-18.623 9.154.262 12.818.367 16.476.471-15.381 25.213-7.974-14.933zm-9.954-8.273l5.488 9.767 2.868-4.485-2.735-5.121-5.621-.161zm9.028.258l9.07 16.987 10.031-16.44-19.101-.547z" fill="#fff"/><path d="M244.152 157.514l-.087 3.02c-.024.835-.704 1.491-1.52 1.468-.819-.023-1.461-.718-1.437-1.552l.087-3.021-5.916-.169-.087 3.021c-.023.834-.703 1.491-1.52 1.467-.819-.023-1.46-.718-1.436-1.552l.086-3.021-5.915-.169-.086 3.021c-.024.834-.705 1.491-1.522 1.467-.817-.023-1.46-.718-1.436-1.552l.086-3.021-5.914-.169-.087 3.021c-.024.834-.705 1.491-1.521 1.467-.818-.023-1.461-.718-1.437-1.552l.087-3.02-5.915-.17-.087 3.021c-.023.834-.704 1.491-1.521 1.468-.818-.024-1.46-.719-1.436-1.553l.086-3.02-8.873-.254 1.902-66.452 56.193 1.608-1.902 66.452-8.872-.254zm7.732-63.324l-50.278-1.439-1.732 60.536 5.915.169.082-2.894c.024-.834.705-1.492 1.523-1.469.817.024 1.459.719 1.435 1.553l-.082 2.894 5.914.17.083-2.894c.024-.834.705-1.492 1.523-1.469.817.023 1.459.719 1.435 1.553l-.083 2.894 5.915.169.083-2.894c.024-.834.705-1.491 1.523-1.468.816.023 1.459.719 1.435 1.553l-.083 2.894 5.915.169.082-2.894c.024-.834.704-1.492 1.523-1.468.817.023 1.458.719 1.434 1.553l-.082 2.894 5.915.169.083-2.894c.024-.834.704-1.492 1.523-1.468.817.023 1.458.719 1.434 1.553l-.083 2.894 5.916.169 1.732-60.535z" fill="#fff"/><path d="M252.867 367.369l-40.695-23.883a1.027 1.027 0 0 1-.366-1.404l16.615-28.309a1.025 1.025 0 0 1 1.404-.365l14.682 8.617 2.057-5.93-.354-.207a1.028 1.028 0 0 1-.366-1.405 1.028 1.028 0 0 1 1.405-.365l14.154 8.308a1.025 1.025 0 1 1-1.038 1.769l-.354-.207-4.177 4.685 14.685 8.618c.489.287.652.915.365 1.403l-16.615 28.309a1.023 1.023 0 0 1-1.402.366zm-4.499-50.215l-2.054 5.922 7.721 4.534 4.172-4.681-9.839-5.775zm9.844 39.08l-5.308-3.115-5.192 8.846 5.308 3.115 5.192-8.846zm-4.269-4.885l5.307 3.115 7.269-12.384-5.308-3.115-7.268 12.384zm-8 9.578l13.499-23.001-31.847-18.691-13.499 23 31.847 18.692zm3.19-33.809l-19.461-11.422-1.039 1.769 19.462 11.422 19.463 11.423 1.038-1.769-19.463-11.423z" fill="url(#u)" style="mix-blend-mode:multiply"/><path d="M249.497 328.522a1.026 1.026 0 1 1-1.769-1.04 1.026 1.026 0 0 1 1.769 1.04z" fill="url(#v)" style="mix-blend-mode:multiply"/><path d="M240.365 336.268l6.066 3.56L235.5 346.1l.084-7.223-3.219 1.758-.089-9.115 3.371 1.979 4.718 2.769zm-2.771 6.266l4.749-2.726-4.686-2.75-.063 5.476zm-3.231-7.41l.02 2.071 1.228-.67.008-.664-1.256-.737z" fill="url(#w)" style="mix-blend-mode:multiply"/><path d="M223.248 342.852l-1.769-1.039 1.039-1.769 1.768 1.038-1.038 1.77z" fill="url(#x)" style="mix-blend-mode:multiply"/><path d="M232.978 348.562l-1.769-1.038 1.039-1.77 1.768 1.039-1.038 1.769z" fill="url(#y)" style="mix-blend-mode:multiply"/><path d="M242.709 354.273l-1.771-1.039 1.039-1.77 1.77 1.039-1.038 1.77z" fill="url(#z)" style="mix-blend-mode:multiply"/><path d="M246.863 347.195l-1.77-1.039 1.038-1.768 1.771 1.039-1.039 1.768z" fill="url(#A)" style="mix-blend-mode:multiply"/><path d="M251.019 340.119l-1.77-1.039 1.038-1.769 1.77 1.038-1.038 1.77z" fill="url(#B)" style="mix-blend-mode:multiply"/><path d="M231.557 328.696l-1.768-1.038 1.038-1.769 1.769 1.038-1.039 1.769z" fill="url(#C)" style="mix-blend-mode:multiply"/><path d="M227.403 335.773l-1.769-1.038 1.038-1.769 1.769 1.039-1.038 1.768z" fill="url(#D)" style="mix-blend-mode:multiply"/><path d="M241.287 334.407l-1.768-1.038 1.038-1.77 1.769 1.038-1.039 1.77z" fill="url(#E)" style="mix-blend-mode:multiply"/><path d="M262.186 39.67l1.156 5.986-9.097 1.758 2.038 10.547-6.282 1.213-2.037-10.547-9.098 1.758-1.156-5.986 9.097-1.758-2.126-11.002 6.282-1.214 2.126 11.003 9.097-1.758z" fill="#fff"/><path d="M280.964 26.216c.445 2.304-2.04 23.165 21.122 11.519 23.162-11.646 32.926-1.58 42.241 19.655 9.315 21.235 24.377 20.498 35.812 17.854" stroke="url(#F)" stroke-width="8" stroke-linecap="round" stroke-linejoin="round" style="mix-blend-mode:multiply"/><defs><linearGradient id="a" x1="208.896" y1="416.469" x2="145.363" y2="410.365" gradientUnits="userSpaceOnUse"><stop stop-color="#FFC000"/><stop offset="1" stop-color="#FF8A00"/></linearGradient><linearGradient id="b" x1="301.445" y1="123.158" x2="313.561" y2="175.447" gradientUnits="userSpaceOnUse"><stop stop-color="#FFC000"/><stop offset="1" stop-color="#FF8A00"/></linearGradient><linearGradient id="c" x1="297.786" y1="143.523" x2="300.392" y2="160.675" gradientUnits="userSpaceOnUse"><stop stop-color="#FFC000"/><stop offset="1" stop-color="#FF8A00"/></linearGradient><linearGradient id="e" x1="285.734" y1="427.283" x2="236.54" y2="423.038" gradientUnits="userSpaceOnUse"><stop stop-color="#FFC000"/><stop offset="1" stop-color="#FF8A00"/></linearGradient><linearGradient id="f" x1="218.612" y1="182.196" x2="219.468" y2="175.49" gradientUnits="userSpaceOnUse"><stop stop-color="#FFC000"/><stop offset="1" stop-color="#FF8A00"/></linearGradient><linearGradient id="g" x1="210.633" y1="181.317" x2="209.318" y2="176.523" gradientUnits="userSpaceOnUse"><stop stop-color="#FFC000"/><stop offset="1" stop-color="#FF8A00"/></linearGradient><linearGradient id="h" x1="234.142" y1="201.499" x2="225.321" y2="187.917" gradientUnits="userSpaceOnUse"><stop stop-color="#FFC000"/><stop offset="1" stop-color="#FF8A00"/></linearGradient><linearGradient id="i" x1="229.488" y1="214.564" x2="204.312" y2="173.645" gradientUnits="userSpaceOnUse"><stop stop-color="#FFC000"/><stop offset="1" stop-color="#FF8A00"/></linearGradient><linearGradient id="j" x1="132.783" y1="458.15" x2="64.462" y2="449.991" gradientUnits="userSpaceOnUse"><stop stop-color="#FFC000"/><stop offset="1" stop-color="#FF8A00"/></linearGradient><linearGradient id="l" x1="252.992" y1="278.14" x2="297.346" y2="214.01" gradientUnits="userSpaceOnUse"><stop stop-color="#FFC000"/><stop offset="1" stop-color="#FF8A00"/></linearGradient><linearGradient id="m" x1="365.473" y1="385.602" x2="334.928" y2="414.5" gradientUnits="userSpaceOnUse"><stop stop-color="#FFC000"/><stop offset="1" stop-color="#FF8A00"/></linearGradient><linearGradient id="n" x1="338.089" y1="390.275" x2="336.85" y2="391.541" gradientUnits="userSpaceOnUse"><stop stop-color="#FFC000"/><stop offset="1" stop-color="#FF8A00"/></linearGradient><linearGradient id="o" x1="359.256" y1="392.414" x2="353.357" y2="390.723" gradientUnits="userSpaceOnUse"><stop stop-color="#FFC000"/><stop offset="1" stop-color="#FF8A00"/></linearGradient><linearGradient id="p" x1="351.669" y1="400.237" x2="345.849" y2="399.489" gradientUnits="userSpaceOnUse"><stop stop-color="#FFC000"/><stop offset="1" stop-color="#FF8A00"/></linearGradient><linearGradient id="q" x1="351.095" y1="394.855" x2="345.194" y2="393.581" gradientUnits="userSpaceOnUse"><stop stop-color="#FFC000"/><stop offset="1" stop-color="#FF8A00"/></linearGradient><linearGradient id="r" x1="345.616" y1="398.715" x2="339.862" y2="398.212" gradientUnits="userSpaceOnUse"><stop stop-color="#FFC000"/><stop offset="1" stop-color="#FF8A00"/></linearGradient><linearGradient id="s" x1="347.148" y1="389.369" x2="341.241" y2="387.858" gradientUnits="userSpaceOnUse"><stop stop-color="#FFC000"/><stop offset="1" stop-color="#FF8A00"/></linearGradient><linearGradient id="t" x1="338.159" y1="399.834" x2="332.998" y2="400.393" gradientUnits="userSpaceOnUse"><stop stop-color="#FFC000"/><stop offset="1" stop-color="#FF8A00"/></linearGradient><linearGradient id="u" x1="253.726" y1="366.665" x2="216.391" y2="323.679" gradientUnits="userSpaceOnUse"><stop stop-color="#FFC000"/><stop offset="1" stop-color="#FF8A00"/></linearGradient><linearGradient id="v" x1="248.98" y1="329.35" x2="247.337" y2="327.599" gradientUnits="userSpaceOnUse"><stop stop-color="#FFC000"/><stop offset="1" stop-color="#FF8A00"/></linearGradient><linearGradient id="w" x1="240.843" y1="348.928" x2="230.144" y2="334.061" gradientUnits="userSpaceOnUse"><stop stop-color="#FFC000"/><stop offset="1" stop-color="#FF8A00"/></linearGradient><linearGradient id="x" x1="223.25" y1="342.795" x2="221.607" y2="341.045" gradientUnits="userSpaceOnUse"><stop stop-color="#FFC000"/><stop offset="1" stop-color="#FF8A00"/></linearGradient><linearGradient id="y" x1="232.98" y1="348.506" x2="231.337" y2="346.755" gradientUnits="userSpaceOnUse"><stop stop-color="#FFC000"/><stop offset="1" stop-color="#FF8A00"/></linearGradient><linearGradient id="z" x1="242.711" y1="354.217" x2="241.067" y2="352.464" gradientUnits="userSpaceOnUse"><stop stop-color="#FFC000"/><stop offset="1" stop-color="#FF8A00"/></linearGradient><linearGradient id="A" x1="246.866" y1="347.139" x2="245.222" y2="345.387" gradientUnits="userSpaceOnUse"><stop stop-color="#FFC000"/><stop offset="1" stop-color="#FF8A00"/></linearGradient><linearGradient id="B" x1="251.021" y1="340.063" x2="249.377" y2="338.31" gradientUnits="userSpaceOnUse"><stop stop-color="#FFC000"/><stop offset="1" stop-color="#FF8A00"/></linearGradient><linearGradient id="C" x1="231.56" y1="328.64" x2="229.917" y2="326.889" gradientUnits="userSpaceOnUse"><stop stop-color="#FFC000"/><stop offset="1" stop-color="#FF8A00"/></linearGradient><linearGradient id="D" x1="227.405" y1="335.717" x2="225.762" y2="333.966" gradientUnits="userSpaceOnUse"><stop stop-color="#FFC000"/><stop offset="1" stop-color="#FF8A00"/></linearGradient><linearGradient id="E" x1="241.29" y1="334.351" x2="239.647" y2="332.6" gradientUnits="userSpaceOnUse"><stop stop-color="#FFC000"/><stop offset="1" stop-color="#FF8A00"/></linearGradient><linearGradient id="F" x1="378.706" y1="73.918" x2="279.431" y2="55.686" gradientUnits="userSpaceOnUse"><stop stop-color="#FFC000"/><stop offset="1" stop-color="#FF8A00"/></linearGradient><clipPath id="d"><path fill="#fff" transform="scale(1 -1) rotate(10.934 2401.272 1062.658)" d="M0 0h42.067v43.626H0z"/></clipPath><clipPath id="k"><path fill="#fff" transform="scale(-1 1) rotate(71.754 -284.785 -80.475)" d="M0 0h66.62v66.62H0z"/></clipPath></defs></svg>