<svg width="70" height="70" viewBox="0 0 70 70" fill="none" xmlns="http://www.w3.org/2000/svg"><path d="M45.667 44.756h7.389c.034-5.687.052-11.23.016-12.825-1.119 1.647-4.646 7.87-7.405 12.825z" fill="#FFB42D"/><path d="M41.563 14.219a27.344 27.344 0 1 0 27.343 27.343A27.374 27.374 0 0 0 41.562 14.22zm-3.156 40.96c-.978.013-11.66.183-12.567-.12a1.76 1.76 0 0 1-1.146-1.156c-.301-.973.086-1.48 1.53-3.368 1.204-1.574 3.443-4.507 7.197-9.87 2.437-3.484 2.272-5.03 2.327-5.19a4.399 4.399 0 0 0-8.713-.76 1.64 1.64 0 1 1-3.22-.632 7.68 7.68 0 0 1 15.216 1.487c0 2.227-1.641 5.147-2.923 6.977-3.374 4.823-5.542 7.703-6.835 9.406 2.5.016 6.249-.016 9.097-.051a1.641 1.641 0 0 1 .04 3.281l-.003-.003zm19.296-7.142h-1.388a3544.37 3544.37 0 0 1-.041 5.34 1.64 1.64 0 0 1-1.641 1.627h-.014a1.641 1.641 0 0 1-1.627-1.655c.014-1.61.029-3.428.042-5.311H42.883a1.641 1.641 0 0 1-1.436-2.429c1.319-2.406 7.984-14.437 9.303-16.06 2.172-2.663 5.323-1.306 5.578 1.714.071.852.046 7.63.011 13.493h1.365a1.64 1.64 0 0 1 0 3.282h-.001z" fill="#FFB42D"/><path d="M17.5 1.094h-6.563a9.855 9.855 0 0 0-9.843 9.844v35a9.855 9.855 0 0 0 9.844 9.843H17.5a3.282 3.282 0 0 0 3.281-3.281v-8.75a3.282 3.282 0 0 0-3.281-3.281h-5.469V16.406H17.5a3.282 3.282 0 0 0 3.281-3.281v-8.75A3.281 3.281 0 0 0 17.5 1.094zM9.844 53.516a7.668 7.668 0 0 1-6.563-7.578v-35a7.668 7.668 0 0 1 6.563-7.58v50.158zm7.656-10.86a1.094 1.094 0 0 1 1.094 1.094v8.75a1.094 1.094 0 0 1-1.094 1.094h-5.469V42.656H17.5zm1.094-29.531a1.094 1.094 0 0 1-1.094 1.094h-5.469V3.28H17.5a1.094 1.094 0 0 1 1.094 1.094v8.75zm14.062-.411a3.282 3.282 0 0 0-4.73-.847l-2.654 1.991a3.29 3.29 0 0 0-.806 4.368 19.557 19.557 0 0 1 0 20.423 3.29 3.29 0 0 0 .806 4.368l2.654 1.991a3.28 3.28 0 0 0 4.729-.847 29.543 29.543 0 0 0 0-31.447h.001zm-1.852 30.281a1.086 1.086 0 0 1-1.566.263l-2.651-1.99a1.11 1.11 0 0 1-.254-1.478 21.747 21.747 0 0 0 0-22.704 1.11 1.11 0 0 1 .254-1.478l2.65-1.99a1.094 1.094 0 0 1 1.568.262 27.356 27.356 0 0 1 0 29.115z" fill="#6B6B6B"/><path d="M44.906 3.464a3.291 3.291 0 0 0-4.703-.8l-2.625 1.968a3.265 3.265 0 0 0-.766 4.421 35.01 35.01 0 0 1 0 38.765 3.266 3.266 0 0 0 .766 4.42l2.625 1.97a3.292 3.292 0 0 0 4.703-.801 44.86 44.86 0 0 0 0-49.947v.004zm-1.812 48.728a1.103 1.103 0 0 1-1.577.27l-2.625-1.968a1.077 1.077 0 0 1-.262-1.458 37.2 37.2 0 0 0 0-41.19 1.078 1.078 0 0 1 .26-1.458l2.626-1.97a1.102 1.102 0 0 1 1.576.272 42.67 42.67 0 0 1 0 47.508l.002-.006z" fill="#6B6B6B"/></svg>