<svg width="345" height="174" viewBox="0 0 345 174" fill="none" xmlns="http://www.w3.org/2000/svg"><path fill-rule="evenodd" clip-rule="evenodd" d="M196.74 154.434c-20.699-44.024 9.584-91.695 54.874-111.75 45.291-20.056 138.164-50.586 122.942 33.002-11.853 65.089-126.6 187.664-177.816 78.748z" fill="#FFB42D"/><mask id="a" maskUnits="userSpaceOnUse" x="335" y="43" width="90" height="94"><path fill-rule="evenodd" clip-rule="evenodd" d="M415.861 63.68c12.118 20.023 12.202 57.312-8.336 69.2-20.539 11.887-53.922-6.124-66.042-26.137-12.118-20.022-5.292-45.89 15.246-57.778 20.539-11.887 47.012-5.297 59.132 14.716z" fill="#fff"/></mask><g mask="url(#a)" fill-rule="evenodd" clip-rule="evenodd" fill="#fff"><path d="M333.913 49.537c1.136.142 1.866 1.622 1.71 2.737-.154 1.105-1.201 1.893-2.337 1.751-1.136-.141-2.653-1.25-2.499-2.355.156-1.115 1.99-2.275 3.126-2.133zm1.251-9.237c1.136.141 1.867 1.611 1.711 2.726-.155 1.115-1.203 1.903-2.338 1.762-1.136-.142-2.653-1.251-2.498-2.366.156-1.115 1.989-2.265 3.125-2.123zm-1.264 75.061c1.135.142 1.866 1.622 1.711 2.727-.155 1.115-1.203 1.903-2.338 1.762-1.136-.142-2.654-1.251-2.498-2.366.155-1.105 1.989-2.265 3.125-2.123zm1.25-9.238c1.136.142 1.868 1.612 1.712 2.727-.156 1.115-1.203 1.903-2.339 1.761-1.136-.142-2.653-1.25-2.497-2.365.155-1.115 1.989-2.265 3.124-2.123zm3.755-27.733c1.136.141 1.866 1.62 1.711 2.736-.156 1.115-1.203 1.903-2.339 1.761-1.136-.142-2.653-1.25-2.497-2.365.155-1.115 1.99-2.275 3.125-2.133zm3.754-27.726c1.135.142 1.866 1.622 1.71 2.737-.155 1.105-1.202 1.894-2.338 1.752-1.135-.142-2.653-1.25-2.498-2.356.155-1.115 1.99-2.274 3.126-2.133zm1.251-9.238c1.135.142 1.867 1.612 1.711 2.727-.156 1.115-1.203 1.903-2.339 1.762-1.135-.142-2.653-1.251-2.497-2.366.156-1.115 1.989-2.265 3.125-2.123zm-3.768 93.549c1.136.142 1.867 1.612 1.711 2.727-.155 1.115-1.202 1.903-2.338 1.761-1.136-.141-2.653-1.25-2.498-2.365.156-1.115 1.989-2.265 3.125-2.123zm1.252-9.248c1.136.142 1.866 1.622 1.711 2.737-.156 1.115-1.202 1.894-2.338 1.752-1.135-.142-2.654-1.241-2.499-2.356.156-1.115 1.991-2.274 3.126-2.133zm1.251-9.238c1.136.142 1.866 1.622 1.711 2.727-.155 1.115-1.203 1.903-2.338 1.762-1.136-.142-2.653-1.251-2.498-2.366.155-1.105 1.989-2.265 3.125-2.123zm2.503-18.486c1.136.142 1.866 1.621 1.71 2.736-.154 1.106-1.202 1.894-2.337 1.752-1.136-.142-2.654-1.25-2.499-2.356.156-1.115 1.99-2.274 3.126-2.132zm1.251-9.239c1.136.142 1.867 1.613 1.711 2.728-.155 1.114-1.203 1.903-2.338 1.761-1.136-.142-2.654-1.25-2.498-2.366.156-1.115 1.989-2.264 3.125-2.123zm1.252-9.247c1.135.142 1.866 1.621 1.71 2.736-.156 1.115-1.203 1.903-2.339 1.762-1.136-.142-2.653-1.251-2.497-2.366.155-1.115 1.99-2.274 3.126-2.132z"/></g><path fill-rule="evenodd" clip-rule="evenodd" d="M180.476 95.47c-5.663-12.225 2.673-25.487 15.118-31.081 12.445-5.594 37.959-14.12 33.741 9.118-3.285 18.094-34.847 52.211-48.859 21.963z" fill="#6B6B6B"/><ellipse opacity=".2" rx="51.821" ry="7.688" transform="matrix(-1 0 0 1 257.193 161.33)" fill="#6B6B6B"/><path d="M248.31 19.14c-.526-4.223 3.522-8.204 9.042-8.893 5.521-.689 10.423 2.176 10.95 6.398.526 4.223-3.522 8.204-9.042 8.893-5.521.688-10.423-2.176-10.95-6.399z" fill="#2F2F2F"/><path d="M252.47 80.207l-12.449 5.616 7.412 31.234 13.385-4.32-8.348-32.53z" fill="#FFCA99"/><path d="M223.539 81.795l16.483 4.028 7.412 31.235-16.698-3.313-7.197-31.95z" fill="#FFD1A7"/><path d="M251.461 163.37c42.329 0 61.213-6.69 61.213-46.312 0-29.36-3.559-51.199-10.886-66.764-8.831-18.76-23.465-28.274-43.482-28.274-11.146 0-16.743 7.529-20.829 13.034-1.653 2.225-3.085 4.152-4.445 4.874-3.038 1.614-4.776 5.375-4.776 10.333 0 9.195 4.868 13.627 9.572 17.915 6.8 6.195 13.229 12.045 6.852 31.293-.345 1.035-.689 2.102-1.041 3.189-4.002 12.363-8.531 26.386-19.593 26.386-7.086 0-8.661-3.331-10.054-6.279-.943-1.991-1.828-3.872-4.412-3.872-6.233 0-10.255 4.62-10.255 11.772 0 11.634 3.625 19.463 11.401 24.642 8.264 5.499 21.213 8.063 40.735 8.063z" fill="#fff"/><path d="M258.307 22.345c-15.689 0-20.374 15.35-25.125 17.869-2.785 1.477-4.607 5.01-4.607 10.047 0 21.806 27.422 16.06 16.412 49.312-4.185 12.643-8.636 29.796-20.941 29.796s-8.635-10.144-14.465-10.144c-5.831 0-9.93 4.32-9.93 11.446 0 21.805 12.741 32.386 51.817 32.386 40.371-.013 60.881-5.407 60.881-45.999 0-51.388-10.938-94.713-54.042-94.713zm0-.65c10.483 0 19.567 2.583 26.998 7.684 6.859 4.712 12.507 11.7 16.776 20.771C309.428 65.761 313 87.645 313 117.058c0 10.164-1.269 18.194-3.885 24.558-2.544 6.188-6.377 10.834-11.719 14.212-10.353 6.533-25.847 7.873-45.928 7.873-19.594 0-32.595-2.583-40.924-8.127-7.874-5.245-11.544-13.158-11.544-24.91 0-7.236 4.256-12.097 10.581-12.097 2.791 0 3.761 2.063 4.704 4.054 1.354 2.857 2.883 6.091 9.761 6.091 10.828 0 15.318-13.899 19.288-26.159.351-1.087.696-2.154 1.041-3.188 6.305-19.047-.039-24.825-6.761-30.949-4.757-4.334-9.676-8.817-9.676-18.155 0-5.082 1.802-8.954 4.952-10.62 1.295-.683 2.707-2.583 4.333-4.783 4.119-5.557 9.774-13.164 21.084-13.164z" fill="#6B6B6B"/><path d="M239.26 40.214c-1.926.013-3.807-.098-5.512-.365 3.02-2.212 6.195-9.13 12.345-13.58 3.689 1.711 6.162 4.952 6.175 7.977.026 4.38-6.429 5.922-13.008 5.968z" fill="#2F2F2F"/><path opacity=".2" d="M209.574 119.218c5.831 0 2.161 10.145 14.466 10.145s16.756-17.153 20.94-29.797c6.065-18.31.475-24.792-5.778-30.564 13.261 11.205 35.275 4.438 33.414 19.554-1.431 11.576-22.456 28.684-23.536 52.559-.716 15.865-28.125-3.976-46.436-19.079 1.751-1.816 4.139-2.818 6.93-2.818z" fill="#6B6B6B"/><path d="M274.783 101.512c0-16.411-13.581-18.572-19.691-15.116-20.628 11.66-36.011 7.99-36.011-2.805 0-5.935 1.828-7.64.54-8.342-1.288-.703-5.271-1.373-6.728 4.86-.423 1.81-1.269 2.161-2.812 1.406-1.548-.755-4.939-1.88-4.815 7.477.124 9.357 14.752 32.1 43.26 32.1 18.754-.006 26.257-10.223 26.257-19.58zm10.973-66.737c-4.677-3.948-6.021-10.047-3.002-13.623 3.018-3.575 9.256-3.273 13.933.675 4.676 3.948 6.02 10.047 3.002 13.623-3.019 3.575-9.257 3.273-13.933-.675zm-39.879 14.787c-1.84-.833-2.815-2.65-2.178-4.057.638-1.408 2.646-1.874 4.486-1.04 1.84.832 2.815 2.649 2.177 4.057-.637 1.407-2.645 1.873-4.485 1.04zm17.135-10.051c-4.275 2.466-2.564 8.81.657 14.394 3.221 5.583 7.529 9.982 11.798 7.516 4.275-2.466 5.557-11.57 2.329-17.16-3.227-5.59-10.515-7.216-14.784-4.75z" fill="#2F2F2F"/><path d="M247.036 47.014c-2.459 6.058-5.758 11.219 2.649 15.11 3.058 1.418 6.338 1.835 8.277 0 1.939-1.835.729-5.642-2.687-5.05" stroke="#2F2F2F" stroke-width="2" stroke-miterlimit="10" stroke-linecap="round" stroke-linejoin="round"/><path d="M244.277 55.18c-2.525 3.482-10.386.638-8.531-4.925.878-2.649 3.833-1.875 4.158-1.439" stroke="#2F2F2F" stroke-width="2" stroke-miterlimit="10" stroke-linecap="round" stroke-linejoin="round"/><path d="M209.574 119.218c5.83 0 2.16 10.145 14.465 10.145 3.196 0 5.85-1.158 8.121-3.091 17.967-2.18 31.827 3.286 31.827 18.852 0 8.485-5.42 15.311-15.981 17.888-36.376-.618-48.356-11.206-48.356-32.354-.006-7.125 4.1-11.44 9.924-11.44z" fill="#2F2F2F"/><path d="M271.067 50.261c-2.511-3.878-7.132-4.015-7.132-4.015m-17.433-9.116c-1.848-2.512-5.973-2.512-5.973-2.512" stroke="#fff" stroke-width="2" stroke-miterlimit="10" stroke-linecap="round" stroke-linejoin="round"/><path opacity=".2" d="M309.76 130.586c-2.531 13.314-8.349 28.502-42.258 30.226-7.034.358-11.453-.865 0-4.607s24.988-6.911 35.634-23.895c3.709-5.908 9.22-15.402 6.624-1.724z" fill="#6B6B6B"/><mask id="b" maskUnits="userSpaceOnUse" x="-64" y="49" width="184" height="183"><path fill-rule="evenodd" clip-rule="evenodd" d="M14.62 77.787c34.159-4.018 84.444 18.115 88.281 52.259 3.836 34.145-40.224 67.373-74.37 71.398-34.16 4.019-64.96-20.403-68.798-54.547-3.836-34.145 20.74-65.084 54.887-69.11z" fill="#fff"/></mask><g mask="url(#b)" fill-rule="evenodd" clip-rule="evenodd" fill="#6B6B6B"><path d="M14.079 173.386c.868-1.413 3.284-1.506 4.691-.641a2.997 2.997 0 0 1 .976 4.125c-.87 1.413-3.267 2.756-4.674 1.891-1.408-.866-1.862-3.962-.993-5.375zm-11.734-7.215c.869-1.413 3.296-1.499 4.704-.633a2.997 2.997 0 0 1 .975 4.125c-.869 1.413-3.267 2.756-4.674 1.89-1.408-.865-1.874-3.969-1.005-5.382zm30.113 3.594c.869-1.412 3.296-1.498 4.704-.633 1.395.858 1.831 2.705.963 4.118-.869 1.412-3.267 2.756-4.662 1.898-1.408-.866-1.873-3.97-1.005-5.383zm-11.721-7.207c.869-1.413 3.284-1.506 4.692-.641a2.997 2.997 0 0 1 .975 4.125c-.869 1.413-3.267 2.756-4.674 1.891-1.408-.866-1.862-3.962-.993-5.375zm-11.734-7.215c.869-1.413 3.296-1.499 4.704-.633a2.997 2.997 0 0 1 .975 4.125c-.869 1.412-3.267 2.756-4.674 1.89-1.408-.865-1.873-3.969-1.005-5.382zm-11.721-7.208c.868-1.412 3.296-1.498 4.691-.64a2.997 2.997 0 0 1 .975 4.125c-.869 1.413-3.266 2.756-4.674 1.89-1.395-.858-1.861-3.962-.992-5.375zm65.29 25.225c.868-1.413 3.296-1.499 4.691-.641a2.997 2.997 0 0 1 .975 4.125c-.868 1.413-3.267 2.757-4.674 1.892-1.396-.858-1.86-3.963-.992-5.376zm-11.722-7.208c.869-1.412 3.284-1.506 4.692-.64a2.997 2.997 0 0 1 .975 4.125c-.869 1.412-3.268 2.757-4.675 1.891-1.408-.865-1.86-3.963-.992-5.376zm-11.733-7.215c.868-1.412 3.296-1.498 4.703-.633 1.396.858 1.832 2.705.963 4.118-.868 1.413-3.267 2.757-4.662 1.899-1.408-.866-1.873-3.971-1.004-5.384zm-11.722-7.207c.869-1.413 3.284-1.506 4.692-.641a2.997 2.997 0 0 1 .975 4.125c-.869 1.413-3.267 2.757-4.675 1.892-1.408-.866-1.86-3.963-.992-5.376zm-11.734-7.215c.869-1.413 3.296-1.499 4.704-.633a2.997 2.997 0 0 1 .975 4.125c-.869 1.413-3.267 2.757-4.675 1.891-1.407-.865-1.872-3.97-1.004-5.383zM3.94 137.307c.869-1.413 3.296-1.499 4.691-.641a2.998 2.998 0 0 1 .976 4.126c-.869 1.412-3.268 2.757-4.675 1.891-1.396-.858-1.86-3.963-.992-5.376zm65.29 25.225c.869-1.412 3.296-1.498 4.691-.64a2.997 2.997 0 0 1 .976 4.125c-.869 1.412-3.268 2.757-4.675 1.891-1.396-.858-1.86-3.963-.992-5.376zm-11.722-7.208c.869-1.412 3.284-1.506 4.692-.64a2.997 2.997 0 0 1 .975 4.125c-.869 1.412-3.267 2.757-4.675 1.891-1.407-.865-1.86-3.963-.992-5.376zm-11.733-7.215c.869-1.412 3.296-1.498 4.704-.633 1.395.858 1.831 2.705.963 4.118-.87 1.412-3.268 2.757-4.663 1.899-1.408-.866-1.873-3.971-1.004-5.384zm-11.722-7.207c.869-1.413 3.284-1.506 4.692-.641a2.997 2.997 0 0 1 .975 4.125c-.869 1.413-3.267 2.757-4.675 1.892-1.407-.866-1.86-3.963-.992-5.376zm-11.733-7.215c.868-1.413 3.296-1.499 4.703-.633a2.997 2.997 0 0 1 .975 4.125c-.869 1.412-3.267 2.757-4.675 1.891-1.407-.865-1.872-3.97-1.004-5.383zm-11.722-7.208c.869-1.412 3.296-1.498 4.692-.64a2.997 2.997 0 0 1 .975 4.125c-.869 1.413-3.267 2.757-4.675 1.892-1.395-.859-1.86-3.964-.992-5.377zm-11.721-7.207c.868-1.413 3.283-1.506 4.691-.641a2.997 2.997 0 0 1 .975 4.125c-.869 1.413-3.267 2.757-4.675 1.892-1.407-.866-1.86-3.963-.991-5.376zm112.187 54.062c.869-1.413 3.297-1.499 4.704-.633 1.396.858 1.832 2.705.963 4.117-.869 1.413-3.267 2.757-4.663 1.899-1.407-.865-1.872-3.97-1.004-5.383zm-11.721-7.208c.869-1.412 3.284-1.506 4.692-.64a2.997 2.997 0 0 1 .975 4.125c-.869 1.413-3.267 2.757-4.675 1.891-1.407-.865-1.86-3.963-.992-5.376zm-11.733-7.214c.868-1.413 3.296-1.499 4.703-.634 1.408.866 1.832 2.705.963 4.118-.869 1.413-3.255 2.765-4.663 1.899-1.407-.865-1.872-3.971-1.004-5.383zm-11.722-7.208c.869-1.413 3.296-1.499 4.692-.641a2.997 2.997 0 0 1 .975 4.125c-.869 1.413-3.267 2.758-4.675 1.892-1.395-.858-1.86-3.963-.992-5.376zm-11.722-7.207c.87-1.413 3.285-1.507 4.692-.641a2.997 2.997 0 0 1 .975 4.125c-.868 1.413-3.267 2.757-4.675 1.892-1.407-.866-1.86-3.964-.992-5.376zm-11.733-7.216c.868-1.412 3.296-1.498 4.703-.633 1.396.858 1.832 2.705.963 4.118-.868 1.412-3.267 2.757-4.662 1.899-1.408-.866-1.873-3.971-1.004-5.384zm-11.721-7.207c.868-1.413 3.283-1.506 4.69-.641a2.997 2.997 0 0 1 .976 4.125c-.869 1.413-3.267 2.757-4.675 1.892-1.407-.866-1.86-3.964-.992-5.376zm-11.734-7.215c.868-1.413 3.296-1.499 4.703-.633a2.997 2.997 0 0 1 .975 4.125c-.868 1.412-3.267 2.757-4.674 1.891-1.408-.865-1.873-3.971-1.004-5.383zm-11.722-7.208c.869-1.412 3.296-1.498 4.692-.64a2.997 2.997 0 0 1 .975 4.125c-.869 1.412-3.267 2.757-4.675 1.891-1.395-.858-1.86-3.963-.992-5.376zm-11.721-7.207c.868-1.413 3.284-1.506 4.691-.641a2.997 2.997 0 0 1 .975 4.125c-.868 1.413-3.267 2.757-4.674 1.892-1.408-.866-1.86-3.963-.992-5.376zM-6.2 101.229c.87-1.413 3.297-1.5 4.704-.634 1.396.858 1.832 2.705.963 4.118-.868 1.413-3.267 2.757-4.662 1.899-1.408-.866-1.873-3.971-1.004-5.383zm123.923 61.277c.868-1.413 3.296-1.499 4.703-.633 1.396.858 1.832 2.705.963 4.117-.868 1.413-3.267 2.757-4.662 1.899-1.408-.865-1.873-3.97-1.004-5.383zm-11.721-7.208c.868-1.412 3.283-1.506 4.691-.64a2.996 2.996 0 0 1 .975 4.125c-.869 1.412-3.267 2.757-4.675 1.891-1.407-.865-1.86-3.963-.991-5.376zm-23.456-14.422c.87-1.413 3.296-1.499 4.692-.641a2.997 2.997 0 0 1 .975 4.125c-.869 1.413-3.267 2.757-4.675 1.892-1.395-.858-1.86-3.963-.992-5.376zm-11.721-7.208c.868-1.412 3.284-1.506 4.691-.64a2.997 2.997 0 0 1 .975 4.125c-.868 1.413-3.267 2.757-4.674 1.891-1.408-.865-1.86-3.963-.992-5.376zm-11.735-7.214c.87-1.413 3.297-1.499 4.704-.634 1.396.858 1.832 2.705.963 4.118-.868 1.413-3.267 2.757-4.662 1.899-1.408-.865-1.873-3.971-1.004-5.383zm-11.72-7.208c.868-1.413 3.284-1.507 4.691-.641a2.997 2.997 0 0 1 .975 4.125c-.868 1.413-3.267 2.757-4.675 1.892-1.407-.866-1.86-3.964-.991-5.376zm-11.734-7.215c.868-1.413 3.296-1.499 4.703-.634a2.997 2.997 0 0 1 .976 4.125c-.869 1.413-3.268 2.758-4.675 1.892-1.408-.865-1.873-3.971-1.004-5.383zm-11.722-7.208c.869-1.412 3.296-1.498 4.692-.64a2.997 2.997 0 0 1 .975 4.125c-.869 1.412-3.267 2.757-4.675 1.891-1.395-.858-1.86-3.963-.992-5.376zm-11.721-7.207c.869-1.413 3.284-1.506 4.691-.64a2.997 2.997 0 0 1 .976 4.124c-.87 1.413-3.268 2.757-4.675 1.892-1.408-.866-1.86-3.964-.992-5.376zM.459 90.4c.869-1.412 3.296-1.498 4.704-.632 1.395.858 1.831 2.705.963 4.117-.869 1.413-3.268 2.757-4.663 1.9C.055 94.918-.41 91.813.459 90.4zm112.2 54.072c.868-1.413 3.284-1.506 4.691-.641a2.996 2.996 0 0 1 .975 4.125c-.868 1.413-3.267 2.757-4.674 1.892-1.408-.866-1.861-3.964-.992-5.376zm-23.455-14.423c.868-1.412 3.296-1.498 4.691-.64a2.997 2.997 0 0 1 .975 4.125c-.868 1.412-3.267 2.757-4.675 1.891-1.395-.858-1.86-3.963-.991-5.376zm-11.722-7.207c.869-1.413 3.284-1.506 4.692-.641a2.997 2.997 0 0 1 .975 4.125c-.87 1.413-3.268 2.757-4.675 1.892-1.408-.866-1.86-3.964-.992-5.376zm-11.733-7.216c.868-1.412 3.296-1.498 4.703-.633 1.396.858 1.832 2.705.963 4.118-.869 1.413-3.267 2.757-4.662 1.899-1.408-.866-1.873-3.971-1.004-5.384zm-11.722-7.207c.868-1.413 3.284-1.506 4.691-.641a2.997 2.997 0 0 1 .975 4.125c-.868 1.413-3.267 2.757-4.674 1.892-1.408-.866-1.86-3.963-.992-5.376zm-11.734-7.215c.869-1.413 3.296-1.499 4.704-.633a2.997 2.997 0 0 1 .975 4.125c-.869 1.412-3.267 2.757-4.675 1.891-1.407-.865-1.873-3.97-1.004-5.383zm-11.721-7.207c.869-1.413 3.296-1.5 4.691-.641a2.997 2.997 0 0 1 .975 4.125c-.868 1.413-3.267 2.757-4.674 1.892-1.396-.858-1.86-3.964-.992-5.376zM18.85 86.79c.869-1.414 3.284-1.507 4.692-.642a2.997 2.997 0 0 1 .975 4.126c-.869 1.412-3.267 2.757-4.675 1.891-1.408-.865-1.86-3.963-.992-5.376zm100.467 46.854c.869-1.413 3.283-1.505 4.691-.64a2.997 2.997 0 0 1 .976 4.124c-.869 1.413-3.268 2.757-4.675 1.892-1.408-.866-1.861-3.964-.992-5.376zm-11.734-7.215c.869-1.413 3.295-1.498 4.703-.632 1.407.865 1.832 2.703.964 4.116-.869 1.413-3.255 2.765-4.663 1.899-1.408-.865-1.873-3.971-1.004-5.383zM84.14 112.014c.869-1.413 3.283-1.505 4.69-.64a2.996 2.996 0 0 1 .977 4.124c-.869 1.413-3.267 2.757-4.675 1.892-1.407-.866-1.86-3.964-.992-5.376zm-11.733-7.216c.868-1.412 3.295-1.497 4.703-.632 1.395.858 1.832 2.704.963 4.117-.868 1.412-3.267 2.757-4.662 1.899-1.408-.866-1.873-3.971-1.004-5.384zM60.685 97.59c.869-1.412 3.283-1.504 4.69-.639a2.996 2.996 0 0 1 .977 4.124c-.869 1.413-3.268 2.757-4.675 1.892-1.408-.866-1.86-3.963-.992-5.376zm-11.734-7.214c.869-1.413 3.296-1.498 4.703-.632a2.996 2.996 0 0 1 .976 4.124c-.869 1.412-3.267 2.757-4.675 1.891-1.407-.865-1.872-3.97-1.004-5.383zM37.23 83.168c.869-1.412 3.295-1.497 4.69-.639a2.996 2.996 0 0 1 .977 4.124c-.869 1.412-3.268 2.757-4.675 1.891-1.396-.858-1.86-3.963-.992-5.376zM2.053 61.538c.869-1.413 3.283-1.505 4.691-.64a2.996 2.996 0 0 1 .976 4.124c-.869 1.413-3.267 2.758-4.675 1.892-1.407-.865-1.86-3.963-.992-5.376zm112.188 54.063c.869-1.413 3.296-1.498 4.703-.632 1.408.865 1.833 2.703.964 4.116-.869 1.413-3.255 2.765-4.663 1.899-1.407-.865-1.872-3.971-1.004-5.383zm-11.721-7.208c.869-1.413 3.295-1.497 4.691-.639a2.996 2.996 0 0 1 .976 4.123c-.869 1.413-3.268 2.758-4.675 1.892-1.396-.858-1.861-3.963-.992-5.376zm-11.722-7.207c.869-1.413 3.284-1.505 4.691-.64a2.996 2.996 0 0 1 .976 4.124c-.869 1.413-3.267 2.757-4.675 1.892-1.407-.866-1.86-3.964-.992-5.376zM43.888 72.34c.869-1.412 3.296-1.497 4.691-.64a2.996 2.996 0 0 1 .976 4.125c-.869 1.412-3.267 2.757-4.675 1.891-1.395-.858-1.86-3.963-.992-5.376zM20.433 57.918c.868-1.413 3.295-1.498 4.703-.632 1.395.858 1.832 2.704.963 4.116-.868 1.413-3.267 2.757-4.662 1.9-1.408-.866-1.873-3.971-1.004-5.384zM8.711 50.71c.87-1.412 3.284-1.505 4.691-.639a2.996 2.996 0 0 1 .976 4.124c-.869 1.413-3.267 2.757-4.675 1.892-1.407-.866-1.86-3.964-.992-5.377zm-11.733-7.215c.868-1.412 3.295-1.497 4.703-.631a2.996 2.996 0 0 1 .975 4.123C1.788 48.4-.61 49.744-2.018 48.88c-1.408-.866-1.873-3.97-1.004-5.383zm123.921 61.277c.869-1.412 3.296-1.497 4.703-.631 1.408.865 1.833 2.703.964 4.116-.869 1.413-3.255 2.764-4.663 1.899-1.407-.866-1.872-3.971-1.004-5.384zm-11.721-7.207c.868-1.413 3.295-1.498 4.691-.64a2.996 2.996 0 0 1 .975 4.124c-.868 1.413-3.267 2.757-4.674 1.892-1.396-.858-1.861-3.963-.992-5.376zm-11.721-7.208c.868-1.412 3.283-1.504 4.69-.639a2.995 2.995 0 0 1 .976 4.124c-.868 1.412-3.267 2.757-4.675 1.891-1.407-.865-1.86-3.963-.991-5.376zm-11.734-7.214c.868-1.413 3.295-1.498 4.703-.632 1.395.858 1.832 2.703.963 4.116-.868 1.413-3.267 2.757-4.662 1.9-1.408-.867-1.873-3.972-1.004-5.384zm-11.722-7.208c.87-1.413 3.284-1.505 4.691-.64a2.996 2.996 0 0 1 .976 4.124c-.869 1.413-3.267 2.758-4.675 1.892-1.407-.865-1.86-3.963-.992-5.376zM62.268 68.72c.868-1.413 3.295-1.497 4.703-.632a2.996 2.996 0 0 1 .975 4.124c-.868 1.413-3.267 2.757-4.674 1.891-1.408-.865-1.873-3.97-1.004-5.383zM38.825 54.305c.868-1.413 3.283-1.505 4.69-.64a2.996 2.996 0 0 1 .976 4.124c-.868 1.413-3.267 2.757-4.674 1.892-1.408-.866-1.86-3.964-.992-5.376zM27.09 47.09c.87-1.413 3.296-1.498 4.704-.632 1.395.858 1.832 2.704.963 4.116-.868 1.413-3.267 2.757-4.662 1.9-1.408-.866-1.873-3.971-1.004-5.384zm88.746 39.647c.869-1.412 3.295-1.497 4.691-.64a2.997 2.997 0 0 1 .976 4.125c-.869 1.412-3.268 2.757-4.675 1.891-1.396-.858-1.861-3.963-.992-5.376zm-11.721-7.207c.868-1.413 3.283-1.506 4.691-.64a2.996 2.996 0 0 1 .975 4.124c-.868 1.412-3.267 2.757-4.674 1.891-1.408-.865-1.861-3.963-.992-5.376zM92.38 72.314c.87-1.412 3.296-1.497 4.704-.631 1.395.857 1.832 2.703.963 4.116-.868 1.412-3.267 2.757-4.662 1.899-1.408-.866-1.873-3.97-1.004-5.384zm-11.72-7.207c.868-1.413 3.282-1.505 4.69-.64a2.996 2.996 0 0 1 .976 4.124c-.869 1.413-3.267 2.757-4.675 1.892-1.407-.866-1.86-3.963-.992-5.376zM57.204 50.685c.869-1.413 3.295-1.498 4.69-.64a2.996 2.996 0 0 1 .977 4.124c-.869 1.413-3.268 2.757-4.675 1.892-1.395-.858-1.86-3.964-.992-5.376zm-11.721-7.208c.869-1.413 3.283-1.505 4.69-.64a2.996 2.996 0 0 1 .977 4.124c-.87 1.413-3.268 2.758-4.675 1.892-1.408-.865-1.86-3.963-.992-5.376zM-5.087 73.15c.869-1.412 3.284-1.506 4.691-.64a2.997 2.997 0 0 1 .975 4.125c-.868 1.413-3.266 2.756-4.674 1.89-1.407-.865-1.86-3.962-.992-5.374zm18.379-3.619c.868-1.412 3.296-1.498 4.703-.633 1.396.858 1.832 2.705.963 4.118-.868 1.413-3.266 2.756-4.661 1.898-1.408-.866-1.874-3.97-1.005-5.383zm18.391-3.612c.869-1.413 3.284-1.506 4.692-.64a2.997 2.997 0 0 1 .975 4.124c-.869 1.413-3.267 2.756-4.674 1.89-1.408-.865-1.861-3.962-.993-5.374zm18.38-3.621c.869-1.413 3.296-1.499 4.692-.64a2.997 2.997 0 0 1 .975 4.124c-.869 1.413-3.267 2.756-4.674 1.89-1.396-.857-1.861-3.961-.993-5.374zm18.38-3.621c.868-1.412 3.296-1.498 4.703-.633a2.997 2.997 0 0 1 .975 4.125c-.868 1.413-3.266 2.756-4.674 1.89-1.407-.865-1.873-3.969-1.004-5.382z"/></g></svg>