<svg width="83" height="21" viewBox="0 0 83 21" fill="none" xmlns="http://www.w3.org/2000/svg"><path d="M11.524 20.746c-.438 0-.863.03-1.274.017-.44-.014-.861-.078-1.27-.108-.44-.03-.876.04-1.281-.01-.44-.053-.844-.233-1.243-.306-.439-.082-.86-.137-1.25-.245a11.547 11.547 0 0 1-1.213-.392c-.415-.167-.757-.423-1.103-.63-.376-.223-.728-.434-1.028-.705-.32-.286-.552-.62-.787-.962a5.032 5.032 0 0 1-.562-1.1c-.143-.38-.419-.739-.487-1.17-.062-.396.008-.827.008-1.268 0-.425.012-.861.097-1.299.08-.415.227-.827.38-1.245.146-.398.345-.782.552-1.177.198-.375.454-.721.704-1.089.24-.351.502-.688.788-1.027.275-.326.486-.72.8-1.031.305-.3.594-.638.933-.92.338-.28.7-.539 1.057-.79.36-.251.783-.407 1.16-.628a16.22 16.22 0 0 1 1.157-.615c.397-.191.783-.401 1.19-.557.41-.159.854-.202 1.273-.324.423-.122.835-.262 1.261-.345.432-.085.86-.166 1.293-.21.438-.044.873-.034 1.308-.034.429 0 .845-.026 1.252.017.425.046.834.131 1.233.224.415.097.8.253 1.184.4.396.152.76.338 1.12.543.366.208.731.399 1.057.66.325.261.584.584.866.896.307.34.723.604.97.997.243.385.406.83.59 1.26.177.417.22.885.338 1.337.115.439.295.868.352 1.333.056.45.111.91.111 1.38 0 .47-.082.92-.134 1.357-.056.466-.041.936-.155 1.362a8.32 8.32 0 0 1-.472 1.292c-.19.418-.55.732-.81 1.103-.26.37-.454.795-.78 1.117-.319.313-.696.574-1.078.84-.379.265-.817.438-1.251.652-.412.204-.81.465-1.27.623-.433.15-.886.29-1.36.398-.447.101-.918.16-1.4.225-.454.063-.927.055-1.413.085-.457.03-.927.069-1.413.069zm2.464-17.434c-.412 0-.824.059-1.24.1-.41.042-.827.061-1.236.141-.404.08-.778.285-1.178.402-.396.115-.824.137-1.212.287-.385.148-.75.35-1.125.53-.372.18-.731.385-1.09.596-.356.21-.75.366-1.09.605-.339.236-.65.52-.969.784-.366.305-.747.589-1.07.914-.335.339-.66.689-.945 1.045-.3.374-.423.858-.66 1.246-.253.41-.559.772-.737 1.187a7.711 7.711 0 0 0-.41 1.336c-.109.47-.194.93-.194 1.383 0 .482.017.94.102 1.358.095.465.208.92.407 1.31.207.404.482.79.805 1.117.305.31.736.502 1.146.745.379.224.82.369 1.292.543.415.152.852.296 1.341.411.433.101.875.283 1.368.355.443.065.913.12 1.406.16.45.038.922.026 1.413.044.453.016.924.124 1.413.124.456 0 .903-.052 1.335-.078.456-.029.9-.09 1.328-.148.454-.062.9-.108 1.321-.202.449-.1.867-.267 1.274-.403.437-.146.857-.3 1.243-.486.414-.2.823-.395 1.176-.642.344-.24.678-.5.964-.784.294-.291.528-.644.761-.98.232-.335.489-.674.66-1.053.165-.366.138-.812.245-1.218.1-.386.234-.77.284-1.191.045-.395.181-.801.181-1.227 0-.428-.12-.848-.17-1.258a9.59 9.59 0 0 0-.26-1.23c-.108-.415-.189-.831-.35-1.212-.166-.393-.447-.716-.667-1.068a7.095 7.095 0 0 0-.743-1.002c-.308-.34-.541-.765-.908-1.037-.363-.27-.824-.401-1.24-.602-.403-.195-.813-.393-1.261-.52-.428-.122-.866-.287-1.332-.347-.442-.055-.908-.035-1.378-.035z" fill="#fff"/><path d="M9.56 1.667c.155.358.15.733.083 1.128-.06.355-.218.673-.475 1.017a3.54 3.54 0 0 1-.805.81c-.29.204-.593.451-.985.622-.515.224-1.017.283-1.448.385-.58.137-1.078.34-1.49.253-.529-.113-.923-.486-1.136-.979a2.224 2.224 0 0 1-.132-1.224c.06-.375.163-.808.408-1.178.21-.316.53-.612.882-.885.299-.232.697-.37 1.105-.548.525-.227 1-.379 1.435-.454.586-.1 1.075-.067 1.484.075.503.174.866.499 1.073.978zM7.334 15.652c.23.301 1.4.378 1.603.058.206-.326.475-.678.751-1.04.263-.345.502-.72.728-1.059.278-.414.588-.787.648-1.127.074-.422-.158-.816-.733-.998-.302-.096-.73-.132-1.285-.132-.497 0-.957.012-1.344.1a2.455 2.455 0 0 0-1.182.631c-.312.307-.479.725-.43 1.236.036.367.143.815.394 1.289.183.343.543.64.85 1.042z" fill="#fff"/><path fill-rule="evenodd" clip-rule="evenodd" d="M18.452 12.914c.35-.185.52-.536.636-1.107.086-.427.003-.835-.216-1.237-.189-.347-.409-.749-.789-1.038-.253-.192-.576-.32-.914-.452a17.51 17.51 0 0 1-.512-.212c-.306-.134-.63-.274-.984-.346-.497-.1-.94-.055-1.327-.016l-.192.019c-.598.053-1.009.248-1.347.545-.371.326-.704.709-.812 1.246-.091.454.032.899.331 1.218.237.253.632.426 1.056.61l.042.019c.315.138.68.237 1.068.343l.124.033c.3.082.62.145.952.21l.268.053c.513.104.947.155 1.316.192.588.06.997.08 1.3-.08zM15.9 11.486h.044c.015 0 .03.01.043.02.018.013.036.026.054.017a.214.214 0 0 0 .1-.294c-.195-.39-.584-.589-1.065-.65-.625-.081-1.21.16-1.638.649-.084.095-.186.25-.09.333.094.083.275-.005.358-.1.324-.37.85-.534 1.318-.475.333.043.595.185.722.44.033.066.089.063.154.06zM2.833 12.762c-.437-.065-.662-.38-.78-.963-.078-.389-.11-.767.018-1.134.124-.352.306-.712.6-.998.206-.2.488-.317.785-.44.08-.034.16-.067.241-.103l.188-.085c.274-.127.563-.26.898-.311.631-.095 1.11-.069 1.473-.004.616.109.883.411.999.914.107.46.096.799-.064 1.07-.165.28-.433.543-.805.758-.141.082-.303.15-.474.223a6.179 6.179 0 0 0-.987.51c-.26.153-.501.296-.737.388a2.702 2.702 0 0 1-1.355.175zm1.226-1.538c.006.032.013.062.028.062.089 0 .183-.076.22-.162.112-.258.33-.37.619-.404.392-.048.737.136 1.01.493.077.1.237.016.338-.061.1-.077.139-.144.062-.245-.37-.484-.917-.742-1.469-.674-.449.055-.872.271-1.05.677-.05.116.098.197.214.247.014.007.021.037.028.067z" fill="#fff"/><path d="M15.675 1.432c-.165.391-.165.84-.087 1.271.07.385.224.793.508 1.163.232.303.556.59.944.857.319.22.69.432 1.12.611.41.172.789.348 1.15.45.44.126.857.223 1.22.244.471.027.888-.1 1.217-.251.375-.173.613-.495.783-.904.165-.39.162-.817.08-1.288a2.98 2.98 0 0 0-.492-1.199 3.966 3.966 0 0 0-.907-.944c-.328-.249-.649-.584-1.096-.771a7.783 7.783 0 0 0-1.18-.402c-.45-.107-.871 0-1.237.016-.464.02-.902-.016-1.223.178-.354.216-.634.572-.8.969zm12.418 3.009c.084-.365.346-.487 1.086-.487.112 0 .206.019.44.131.047.89.094 1.845.14 2.856.047 1.003.066 1.555.075 1.649h.44c.525 0 .993-.028 1.405-.075V7.307c0-1.274.028-2.285.075-3.184.337-.16.628-.235.937-.235.196.01.384.029.655.103-.009.216-.009.516-.018.9-.038 1.47-.057 2.481-.057 3.034 0 .777 0 2.07.01 3.877s.01 3.23.01 4.27l-.01 2.286c-.347.159-.58.224-.834.224-.159 0-.412-.037-.758-.103-.028-.01-.038-.01-.047-.01.037-1.713.056-3.455.056-5.216 0-.777 0-1.414-.01-1.91 0-.496 0-.993-.009-1.48l-.964.01c-.337 0-.618.018-.88.084v3.718a58.88 58.88 0 0 1-.188 4.889c-.328.102-.627.13-1.002.14h-.206l-.272-.178c.085-1.873.132-3.812.132-5.806 0-2.323-.066-5.03-.206-8.279zm9.589 6.799c.029-.29.047-.665.047-.693 0-.937-.178-1.32-.6-1.32-.346 0-.561.58-.72 2.125l1.273-.112zm1.218 5.966c.01.112.019.206.019.309 0 .711-.59 1.208-1.405 1.208-1.92 0-2.931-1.686-2.931-4.898 0-1.76.271-3.231.805-4.42.543-1.19 1.19-1.79 1.939-1.79.496 0 .908.291 1.217.872.309.58.468 1.348.468 2.294 0 .562-.084 1.077-.243 1.592a3.834 3.834 0 0 1-.75.094c-.028 0-.224-.01-.608-.028-.375-.028-.74-.038-1.096-.047-.075.824-.084 1.152-.084 1.489 0 1.302.15 2.191.44 2.65.3.46.87.693 1.714.693h.187c.15-.01.262-.018.328-.018zm2.79-13.074a198.014 198.014 0 0 0-.074 4.88c0 2.387.01 4.288.028 5.712.028 1.414.065 2.669.122 3.765-.525.103-.797.13-1.012.13-.215 0-.403-.037-.712-.15.029-2.125.038-4.036.038-5.693 0-2.95-.056-5.806-.169-8.579.384-.159.665-.224.918-.224s.515.037.862.159zm3.054 0a198.014 198.014 0 0 0-.075 4.88c0 2.387.01 4.288.028 5.712.028 1.414.065 2.669.122 3.765-.525.103-.797.13-1.012.13-.215 0-.403-.037-.712-.15.029-2.125.038-4.036.038-5.693 0-2.95-.056-5.806-.169-8.579.384-.159.665-.224.918-.224s.515.037.862.159zm3.474 4.898c-.515.234-.768 1.526-.768 3.952 0 1.573.056 2.669.169 3.278.112.608.309.908.58.908.29 0 .487-.3.6-.908.112-.609.168-1.78.168-3.522 0-1.292-.056-2.22-.178-2.781-.112-.562-.3-.871-.57-.927zm-2.323 4.448c0-3.924.918-5.862 2.763-5.862 1.283 0 1.864 1.573 1.864 5.122 0 1.808-.253 3.25-.75 4.346-.496 1.096-1.151 1.639-1.957 1.639-.683 0-1.18-.403-1.48-1.199-.29-.805-.44-2.154-.44-4.046zM53.36 5.64c0 .43 0 .89-.01 1.386-.01.496-.01.768-.01.833 0 .553 0 1.133.01 1.723.01.59.019 1.302.028 2.136.066.009.113.018.253.018.908 0 1.302-.87 1.302-2.93 0-1.097-.122-1.883-.365-2.36-.234-.479-.637-.74-1.209-.806zm.018 7.482c0 2.257.028 3.896.094 5.348-.375.084-.684.131-.937.131-.234 0-.458-.037-.768-.16.01-1.086.02-1.966.028-2.63.01-.666.01-1.293.01-1.883 0-.927-.01-2.248-.019-3.943-.01-1.704-.028-3.605-.056-5.713l.272-.224c1.582 0 2.734.365 3.455 1.105.721.74 1.087 1.91 1.087 3.53 0 2.932-1.04 4.44-3.09 4.44h-.076zm6.93 3.681c0-1.161-.018-2.323-.056-3.53-.065-.01-.122-.02-.262-.02-.74 0-1.114.59-1.114 1.742 0 .778.065 1.283.206 1.527.14.234.383.356.749.356.056 0 .168-.019.328-.047.065-.01.112-.019.15-.028zM58.145 9.76h-.056a.71.71 0 0 1-.525-.243.756.756 0 0 1-.224-.525c0-.046.028-.121.13-.243a25.89 25.89 0 0 1 2.267-1.19c.777.15 1.32.572 1.62 1.274.3.693.45 2.341.45 4.954 0 .871-.019 2.304-.066 4.299-.01.206-.01.356-.01.459-.261.112-.449.159-.636.159a1.33 1.33 0 0 1-.627-.178l-.075-.44c-.525.253-1.096.403-1.48.403-1.02 0-1.517-.993-1.517-3.128 0-1.246.197-2.136.59-2.679.403-.543 1.049-.815 1.948-.815h.3c-.01-.777-.094-1.414-.272-1.91-.178-.496-.384-.75-.628-.75-.112 0-.309.066-.496.17l-.693.383zm4.926-1.264c.337-.384.759-.6 1.33-.646l.169.534a32.715 32.715 0 0 0 1.61-.73c.113-.029.225-.038.384-.038.937 0 1.34.74 1.34 2.528v2.192c0 2.669.046 4.523.159 5.937-.31.216-.59.31-.928.31-.29 0-.57-.085-.898-.244.074-1.808.121-3.53.121-5.18v-.402c0-1.582-.056-2.556-.159-2.912-.103-.366-.3-.544-.59-.544-.365 0-.702.206-.89.534.085 1.508.122 3.016.122 4.59 0 .486 0 1.16-.01 2.013-.009.852-.009 1.451-.009 1.817-.187.234-.412.327-.824.327a1.7 1.7 0 0 1-.908-.243c.14-2.22.196-4.355.196-6.425 0-.758-.018-1.405-.056-1.92a14.703 14.703 0 0 0-.159-1.498zm7.745 8.194c.403.113.702.17.918.17.112 0 .28-.048.515-.132l.019-.01c.046-.795.075-1.797.103-3.006.028-1.217.037-2.8.046-4.738a2.746 2.746 0 0 0-.608-.094c-.787 0-1.133 1.583-1.133 5.216 0 .928.037 1.77.14 2.595zm.056 1.836c-.515 0-.861-.15-1.133-.478-.215-.44-.365-.955-.468-1.554-.103-.6-.15-1.358-.15-2.267 0-1.208.084-2.313.262-3.315.178-1.002.43-1.826.759-2.453.196-.44.815-.75 1.414-.75.253 0 .552.047.861.15l-.037-3.334c.337-.346.674-.496 1.133-.496.075 0 .16.01.571.094-.112 3.493-.168 7.557-.168 12.202v2.014l-.571.318h-.14a1.72 1.72 0 0 1-.844-.197 3.771 3.771 0 0 1-.093-.674c-.366.337-.806.58-1.396.74zm7.155-1.723c0-1.161-.019-2.323-.056-3.53-.066-.01-.122-.02-.262-.02-.74 0-1.115.59-1.115 1.742 0 .778.066 1.283.206 1.527.14.234.384.356.75.356a2.6 2.6 0 0 0 .327-.047c.066-.01.113-.019.15-.028zM75.864 9.76h-.056a.71.71 0 0 1-.525-.243.756.756 0 0 1-.225-.525c0-.046.028-.121.131-.243a25.89 25.89 0 0 1 2.267-1.19c.777.15 1.32.572 1.62 1.274.3.693.45 2.341.45 4.954 0 .871-.02 2.304-.066 4.299-.01.206-.01.356-.01.459-.262.112-.449.159-.636.159a1.33 1.33 0 0 1-.628-.178l-.075-.44c-.524.253-1.095.403-1.48.403-1.02 0-1.516-.993-1.516-3.128 0-1.246.196-2.136.59-2.679.402-.543 1.049-.815 1.948-.815h.3c-.01-.777-.094-1.414-.272-1.91-.178-.496-.384-.75-.628-.75-.112 0-.309.066-.496.17l-.693.383zm5.853 5.657c-.187-2.67-.272-4.86-.272-6.687 0-.946.02-2.21.057-3.774.15-.037.3-.047.421-.047.45 0 .712.103.983.431.01.31.01.646.01 1.011.01.366.01.9.01 1.611 0 2.688-.085 5.18-.235 7.455-.187.159-.356.253-.496.253-.178 0-.29-.056-.478-.253zm-.15 2.903c-.075-.328-.084-.44-.084-.543 0-.056.01-.188.037-.393.019-.132.028-.225.038-.29.187-.085.356-.123.496-.123.103 0 .234 0 .393.01.16.01.253.01.3.01l.15.074c.075.496.103.75.103.909 0 .084-.019.206-.056.365-.01.047-.019.075-.019.093-.29.075-.496.113-.637.113-.196 0-.43-.075-.72-.225z" fill="#fff"/></svg>