<svg width="430" height="156" viewBox="0 0 430 156" fill="none" xmlns="http://www.w3.org/2000/svg"><g opacity=".3"><path d="M214.539 57a17.455 17.455 0 0 0-11.41 5.102c-6.839 6.84-6.839 17.929 0 24.768A17.46 17.46 0 0 0 215.514 92c4.482 0 8.965-1.71 12.384-5.13A17.452 17.452 0 0 0 233 75.46L214.539 57zm-3.938 23.338h-3.468l3.676-6.128 1.688 2.81-1.896 3.318zm1.68 0l5.825-10.194 5.826 10.194h-11.651zm16.987-6.546a15.964 15.964 0 0 1-8.594-4.466 15.913 15.913 0 0 1-3.691-5.732 16.05 16.05 0 0 1-.776-2.863l13.061 13.061zm.949 7.155a16.026 16.026 0 0 1-3.351 4.892 16 16 0 0 1-11.352 4.702 15.996 15.996 0 0 1-11.352-4.702 16.004 16.004 0 0 1-4.703-11.352c0-2.087.395-4.119 1.176-6.043a15.954 15.954 0 0 1 3.527-5.31 15.98 15.98 0 0 1 9.819-4.629l.566.567a17.456 17.456 0 0 0 3.109 8.919l-4.331 7.577-2.516-4.195-6.255 10.424h21.892L220.23 70.92a17.441 17.441 0 0 0 10.698 4.533l.567.567a15.978 15.978 0 0 1-1.278 4.928z" fill="url(#a)" style="mix-blend-mode:multiply"/><path d="M364.875 50l-8.548 10.008-.779.912-8.549 10.009 18.312 15.64 8.548-10.008.779-.913 8.549-10.008L364.875 50zm.308 34.95l-16.565-14.148 7.803-9.136 16.565 14.148-7.803 9.136zM357.2 60.754l7.802-9.135 16.565 14.148-7.802 9.135L357.2 60.754z" fill="#fff"/><path d="M367.021 60.034l.38-2.274-5.433 1.824 1.868 1.596 2.617 2.235 3.362 2.87 1.481-7.786-4.275 1.535zm-2.766-.007l1.7-.574-.172 1.028-.703.25-.825-.704zm1.829 1.563l3.71-1.332-.736 3.872-2.974-2.54zm2.554 5.195l-6.978-5.959a.577.577 0 0 0-.81.066.576.576 0 0 0 .065.807l6.977 5.96a.573.573 0 1 0 .746-.873zm-15.544 4.071a.573.573 0 0 0-.743.87.573.573 0 1 0 .743-.87zm1.743 1.488a.572.572 0 0 0-.743.87.574.574 0 0 0 .81-.06.574.574 0 0 0-.067-.81zm1.747 1.492a.574.574 0 0 0-.81.061.574.574 0 0 0 .874.746.573.573 0 0 0-.064-.807zm1.743 1.489a.574.574 0 0 0-.81.061.573.573 0 1 0 .81-.06zm1.744 1.49a.571.571 0 1 0 .063.806.57.57 0 0 0-.063-.806zm-2.182-3.374l3.362 2.871 1.478-7.784-4.274 1.535.382-2.276-5.433 1.823 1.868 1.596 2.617 2.235zm2.603.718l-2.974-2.54 3.709-1.332-.735 3.872zm-4.804-4.103l1.7-.573-.169 1.025-.706.253-.825-.705zm21.885-1.633a.575.575 0 0 0-.617-.527l-2.859.228-.09-1.144a.575.575 0 0 0-1.144.09l.134 1.713a.575.575 0 0 0 .617.527l3.432-.27a.575.575 0 0 0 .527-.617zm-13.078 10.315a.571.571 0 0 0 .617.527l.002.002 1.142-.092.09 1.144a.575.575 0 0 0 .617.527.575.575 0 0 0 .527-.617l-.093-1.141 1.144-.09a.575.575 0 0 0-.09-1.144l-1.144.09-.087-1.142-.003-.002a.575.575 0 0 0-1.144.09l.09 1.144-1.141.087a.574.574 0 0 0-.527.617z" fill="#fff"/><path d="M344.229 176.896l.694-1.74.232-.58.231-.58c-1.585-.632-2.354-2.448-1.716-4.047.638-1.599 2.446-2.386 4.031-1.753l.232-.581.231-.58.695-1.74-1.357-9.956-7.248-.202-.239 3.939-13.218-5.275-6.482 16.241 13.218 5.276-2.539 3.021 5.396 4.843 7.839-6.286zm-11.509 1.314l1.757-2.09 1.114-1.327-1.595-.636-12.068-4.816 5.556-13.922 12.068 4.817 1.595.636.105-1.728.165-2.726 4.999.139 1.17 8.587-.639 1.601a4.367 4.367 0 0 0-4.426 2.745 4.366 4.366 0 0 0 1.32 5.038l-.639 1.601-6.761 5.422-3.721-3.341z" fill="url(#b)" style="mix-blend-mode:multiply"/><path d="M198 134.05l-8.727-9.05 6.614-6.859c1.318-1.366 1.318-3.582 0-4.949a3.305 3.305 0 0 0-2.387-1.026c-.863 0-1.728.342-2.387 1.026l-6.613 6.858-8.727-9.05-4.773 4.95 8.727 9.05-7.602 7.884v4.95h4.773l7.602-7.884 8.727 9.05 4.773-4.95zm-9.523-9.875l-1.189-1.234 5.022-5.208 1.19 1.233-5.023 5.209zm3.432-10.159c.425-.44.99-.683 1.591-.683s1.166.243 1.591.683c.877.91.877 2.391 0 3.3l-.796.825-3.182-3.3.796-.825zm-1.591 1.65l1.197 1.242-5.023 5.208-1.197-1.241 5.023-5.209zm-14.545-3.016l1.568 1.625-.796.825a.598.598 0 0 0 0 .825c.22.228.576.228.796 0v-.001l.795-.824 1.591 1.65-.795.825a.598.598 0 0 0 0 .825.548.548 0 0 0 .795 0l.796-.825 1.591 1.65-.795.825h-.001a.6.6 0 0 0 0 .825c.22.228.576.228.796 0l.795-.825 1.591 1.65-.795.825a.598.598 0 0 0 0 .825.548.548 0 0 0 .795 0l.795-.825 1.591 1.65-.795.825a.598.598 0 0 0 0 .825.548.548 0 0 0 .795 0h.001l.795-.825 1.591 1.65-.796.825a.6.6 0 0 0 0 .825c.22.228.576.228.796 0l.795-.825 1.592 1.65-.796.825a.598.598 0 0 0 0 .825.55.55 0 0 0 .796 0v-.001l.795-.824 1.591 1.65-.795.824v.001a.598.598 0 0 0 0 .825.55.55 0 0 0 .795 0l.796-.825 1.567 1.625-3.182 3.3-20.636-21.4 3.182-3.3zm-2.524 24.017v-.967l.933.967h-.933zm3.183 0h-.66l-2.523-2.617v-.683l7.274-7.542 1.196 1.241-5.613 5.821a.598.598 0 0 0 0 .825.548.548 0 0 0 .795 0l5.614-5.821 1.19 1.234-7.273 7.542z" fill="#fff"/><path d="M297 35.05L288.273 26l6.614-6.859c1.318-1.366 1.318-3.582 0-4.95a3.306 3.306 0 0 0-2.387-1.025c-.863 0-1.728.342-2.387 1.026L283.5 21.05 274.773 12 270 16.95l8.727 9.05-7.602 7.883v4.95h4.773l7.602-7.883 8.727 9.05L297 35.05zm-9.523-9.875l-1.189-1.234 5.022-5.208 1.19 1.233-5.023 5.209zm3.432-10.159a2.196 2.196 0 0 1 3.182 0c.877.91.877 2.39 0 3.3l-.796.825-3.182-3.3.796-.825zm-1.591 1.65l1.197 1.241-5.023 5.21-1.197-1.242 5.023-5.209zm-14.545-3.016l1.568 1.625-.796.825a.598.598 0 0 0 0 .825.55.55 0 0 0 .796 0l.795-.825 1.591 1.65-.795.825a.598.598 0 0 0 0 .825.548.548 0 0 0 .795 0l.796-.825 1.591 1.65-.795.824-.001.001a.6.6 0 0 0 0 .825c.22.228.576.228.796 0l.795-.825 1.591 1.65-.795.825a.598.598 0 0 0 0 .825.548.548 0 0 0 .795 0l.795-.825 1.591 1.65-.795.825a.598.598 0 0 0 0 .825.548.548 0 0 0 .795 0h.001l.795-.825 1.591 1.65-.796.825a.6.6 0 0 0 0 .825.55.55 0 0 0 .796 0l.795-.825 1.592 1.65-.796.825a.598.598 0 0 0 0 .825.55.55 0 0 0 .796 0l.795-.825 1.591 1.65-.795.824a.598.598 0 0 0 0 .826.55.55 0 0 0 .795 0l.796-.825 1.567 1.625-3.182 3.3-20.636-21.4 3.182-3.3zm-2.524 24.017V36.7l.933.967h-.933zm3.183 0h-.66l-2.523-2.617v-.683l7.274-7.542 1.196 1.241-5.613 5.821a.598.598 0 0 0 0 .825.548.548 0 0 0 .795 0l5.614-5.82 1.19 1.233-7.273 7.542z" fill="url(#c)" style="mix-blend-mode:multiply"/><path d="M252 12.727C252 5.698 246.329 0 239.333 0c-2.307 0-4.469.62-6.333 1.703A12.563 12.563 0 0 0 226.667 0C219.671 0 214 5.698 214 12.727c0 4.75 2.588 8.89 6.425 11.077C221.177 30.11 226.52 35 233 35c6.48 0 11.823-4.89 12.575-11.196A12.731 12.731 0 0 0 252 12.727zm-29.836 11.899c1.4.535 2.917.828 4.503.828 2.307 0 4.469-.62 6.333-1.703a12.562 12.562 0 0 0 6.333 1.703c1.586 0 3.103-.293 4.503-.828a11.133 11.133 0 0 1-2.999 5.521 11.043 11.043 0 0 1-3.523 2.388 10.97 10.97 0 0 1-4.314.875 10.97 10.97 0 0 1-4.314-.875 11.042 11.042 0 0 1-3.523-2.388 11.106 11.106 0 0 1-2.999-5.521zm21.907-1.828a10.969 10.969 0 0 1-4.738 1.066 10.962 10.962 0 0 1-4.851-1.12 12.723 12.723 0 0 0 4.844-9.617c.537.376 1.043.8 1.511 1.271a11.11 11.11 0 0 1 3.246 7.875c0 .176-.004.35-.012.525zm-6.334-10.596a11.099 11.099 0 0 1-.857 4.859 11.124 11.124 0 0 1-3.88 4.807 11.046 11.046 0 0 1-1.504-1.266 11.123 11.123 0 0 1-3.233-8.4A10.972 10.972 0 0 1 233 11.136a10.97 10.97 0 0 1 4.737 1.066zM233 9.546c-1.585 0-3.103.293-4.502.828a11.123 11.123 0 0 1 2.998-5.521c.467-.47.969-.892 1.504-1.266a11.01 11.01 0 0 1 1.504 1.266 11.122 11.122 0 0 1 2.998 5.521A12.583 12.583 0 0 0 233 9.546zm-6.326 3.58a12.723 12.723 0 0 0 4.844 9.618 10.964 10.964 0 0 1-4.851 1.12 10.967 10.967 0 0 1-4.738-1.066 11.099 11.099 0 0 1 .858-4.859 11.107 11.107 0 0 1 2.376-3.54c.468-.472.974-.896 1.511-1.272zm4.844-10.415a12.72 12.72 0 0 0-4.759 8.485 12.731 12.731 0 0 0-6.419 10.677 11.17 11.17 0 0 1-1.51-1.271 11.09 11.09 0 0 1-2.376-3.54 11.1 11.1 0 0 1-.871-4.335c0-1.504.293-2.962.871-4.334a11.09 11.09 0 0 1 2.376-3.54 11.043 11.043 0 0 1 3.523-2.388 10.968 10.968 0 0 1 4.314-.875 10.961 10.961 0 0 1 4.851 1.12zm18.028 5.682a11.1 11.1 0 0 1 .871 4.334 11.1 11.1 0 0 1-.871 4.334 11.09 11.09 0 0 1-2.376 3.54c-.468.472-.973.896-1.51 1.272a12.731 12.731 0 0 0-6.419-10.677 12.719 12.719 0 0 0-4.759-8.485 10.963 10.963 0 0 1 4.851-1.12c1.497 0 2.949.294 4.314.874a11.042 11.042 0 0 1 3.523 2.388 11.09 11.09 0 0 1 2.376 3.54z" fill="url(#d)" style="mix-blend-mode:multiply"/><path d="M142.049 40.907l7.345 5.053 3.148 2.166 7.346 5.053 18.375-24.463L158.326 15l-16.277 25.907zm1.728-.358l1.357-2.158 6.426 4.42-1.444 2.1-6.339-4.362zm7.389 5.084l2.887-4.198 1.05.722-2.888 4.197-1.049-.721zm2.098 1.443l1.444-2.099 6.427 4.422-1.531 2.038-6.34-4.36zm23.183-18.063L161.901 48.38l-6.471-4.451 1.444-2.099a.636.636 0 0 0-1.049-.721.637.637 0 0 0-1.05-.722.636.636 0 1 0-1.049-.722l-1.444 2.098-6.47-4.45 12.885-20.51 17.75 12.211z" fill="#fff"/><path d="M157.295 34.904l5.555-2.677-.195 3.125 7.081-3.227-2.749-1.891-3.847-2.647-4.948-3.404-.897 10.721zm9.864-3.005l-3.1 1.413.106-1.719 1.5-.722 1.494 1.028zm-2.703-1.86l-5.706 2.75.528-6.312 5.178 3.563z" fill="#fff"/><g clip-path="url(#e)"><path d="M403.285 151.636a4.072 4.072 0 0 0-4.949-3.978l-2.7-2.699 7.325-7.326a3.249 3.249 0 1 0-4.595-4.595l-7.325 7.326-8.344-8.344a2.158 2.158 0 0 0-1.531-.634 2.167 2.167 0 0 0-1.532 3.698l8.344 8.343-7.893 7.892v4.595h4.596l7.892-7.892 2.675 2.676a4.081 4.081 0 0 0-.109.938c0 4.613 6.802 4.979 9.052 4.979 2.249 0-.906-2.729-.906-4.979zm-2.621-18.467c.579 0 1.122.226 1.532.635a2.17 2.17 0 0 1 0 3.063l-.766.766-3.064-3.064.766-.765c.41-.409.953-.635 1.532-.635zm-20.265 1.148a1.084 1.084 0 0 1 1.533-1.531l8.343 8.343-1.532 1.532-8.344-8.344zm.77 20.514v-.897l.897.897h-.897zm3.063 0h-.634l-2.429-2.429v-.634l16.432-16.433 1.152 1.153-14.835 14.834a.54.54 0 1 0 .766.766l14.835-14.835 1.145 1.146-16.432 16.432zm9.106-7.575l1.532-1.531 2.355 2.355a4.094 4.094 0 0 0-1.542 1.521l-2.345-2.345zm5.829 7.573c-.942-.318-1.668-.731-2.158-1.229-.529-.537-.786-1.179-.786-1.964 0-.798.31-1.549.875-2.114a2.993 2.993 0 0 1 5.104 2.114c0 1.233.657 2.436 1.186 3.402.078.144.173.318.261.486-1.167-.03-2.933-.173-4.482-.695z" fill="url(#f)" style="mix-blend-mode:multiply"/></g><g clip-path="url(#g)"><path d="M313.686 113.447l47.894 13.57 2.915-10.284-47.895-13.571-2.914 10.285zm46.666 11.372l-3.378-.958.487-1.714a.894.894 0 0 0-.615-1.101.893.893 0 0 0-1.1.615v.001l-.485 1.713-3.429-.971.486-1.714a.89.89 0 0 0-1.714-.486l-.486 1.715-3.428-.972.485-1.714v-.001a.89.89 0 1 0-1.714-.485v.001l-.486 1.713-3.428-.972.486-1.713a.892.892 0 0 0-1.715-.486l-.485 1.714-3.428-.971.486-1.714a.891.891 0 0 0-1.715-.486l-.485 1.715-3.428-.972.485-1.715a.89.89 0 1 0-1.714-.485l-.486 1.714-3.428-.972.486-1.713a.893.893 0 0 0-.615-1.101.893.893 0 0 0-1.1.614l.001.002-.486 1.713-3.429-.971.485-1.713.001-.001a.89.89 0 0 0-1.714-.486l-.486 1.713-3.377-.956 1.942-6.857 44.467 12.6-1.943 6.857z" fill="url(#h)" style="mix-blend-mode:multiply"/></g><path d="M352.243 28.783l-14.047-17.405a.487.487 0 0 0-.684-.073l-12.107 9.772a.485.485 0 0 0-.073.683l5.068 6.28-2.636 1.38-.122-.152a.487.487 0 0 0-.757.61l4.886 6.055a.487.487 0 0 0 .757-.61l-.122-.152 1.904-2.286 5.069 6.28a.486.486 0 0 0 .683.073l12.108-9.771a.486.486 0 0 0 .073-.684zm-23.856 1.408l2.632-1.377 2.666 3.301-1.902 2.284-3.396-4.208zm22.793-1.176l-9.837 7.94-13.435-16.648 9.837-7.94 13.435 16.648zm-18.068.837l-6.718-8.323.757-.61 6.718 8.323 6.717 8.323-.756.61-6.718-8.323z" fill="url(#i)" style="mix-blend-mode:multiply"/><path d="M333.795 29.925a.486.486 0 1 0-.61-.757.486.486 0 0 0 .61.757z" fill="url(#j)" style="mix-blend-mode:multiply"/><path d="M337.149 14.724l9.16 11.35a.487.487 0 0 0 .757-.61l-9.161-11.35a.486.486 0 1 0-.756.61z" fill="url(#k)" style="mix-blend-mode:multiply"/><path d="M335.635 15.946l4.885 6.053h.001a.485.485 0 1 0 .756-.61l-4.885-6.054a.487.487 0 1 0-.757.611z" fill="url(#l)" style="mix-blend-mode:multiply"/><path d="M334.12 17.168l6.717 8.323h.001a.485.485 0 1 0 .757-.61l-6.718-8.324a.486.486 0 1 0-.757.61z" fill="url(#m)" style="mix-blend-mode:multiply"/><path d="M332.608 18.389l4.274 5.296a.486.486 0 1 0 .757-.61l-4.274-5.297a.488.488 0 0 0-.757.61z" fill="url(#n)" style="mix-blend-mode:multiply"/><path d="M331.094 19.61l7.939 9.837a.486.486 0 1 0 .757-.61L331.851 19a.486.486 0 1 0-.757.61z" fill="url(#o)" style="mix-blend-mode:multiply"/><path d="M329.581 20.832l2.442 3.026a.486.486 0 1 0 .757-.61l-2.443-3.027a.486.486 0 1 0-.756.611z" fill="url(#p)" style="mix-blend-mode:multiply"/><path d="M262.714 153.114l-3.8-4-4.325 13.009 5.737-1.28 8.032-1.791 10.326-2.303-12.763-14.016-3.207 10.381zm-5.265 6.426l2.269-6.824 2.354 2.478-1.1 3.56-3.523.786zm5.658-1.262l3.647-11.809 8.323 9.139-11.97 2.67z" fill="#fff"/><path d="M272.288 128.08l-.422-1.894a.959.959 0 0 0-1.137-.739.96.96 0 0 0-.716 1.153l.422 1.893-3.707.827-.422-1.893a.96.96 0 0 0-1.137-.74.958.958 0 0 0-.716 1.153l.422 1.893-3.707.827-.422-1.893a.96.96 0 0 0-1.137-.74.96.96 0 0 0-.717 1.153l.423 1.893-3.707.827-.422-1.893a.96.96 0 0 0-1.138-.74.96.96 0 0 0-.716 1.153l.422 1.893-3.707.827-.422-1.893a.96.96 0 0 0-1.137-.74.961.961 0 0 0-.717 1.154l.423 1.893-5.561 1.24 9.289 41.645 35.215-7.855-9.288-41.645-5.561 1.241zm12.583 38.963l-31.509 7.028-8.462-37.937 3.707-.827.405 1.814a.96.96 0 0 0 1.138.74.959.959 0 0 0 .715-1.153l-.404-1.814 3.707-.827.404 1.814a.96.96 0 0 0 1.138.74.961.961 0 0 0 .716-1.154l-.405-1.813 3.707-.827.405 1.814a.96.96 0 0 0 1.138.74.96.96 0 0 0 .715-1.154l-.404-1.814 3.706-.826.405 1.813a.959.959 0 0 0 1.138.74.959.959 0 0 0 .715-1.153l-.405-1.814 3.708-.826.404 1.813a.96.96 0 0 0 1.139.74.958.958 0 0 0 .714-1.153l-.404-1.814 3.707-.827 8.462 37.937z" fill="#fff"/><path d="M283.231 54.435L260.495 74.44a.659.659 0 0 0-.06.93l13.916 15.816a.66.66 0 0 0 .93.06l8.203-7.219 2.018 3.486-.198.174a.659.659 0 0 0 .87.989l7.909-6.959a.658.658 0 0 0-.87-.988l-.198.174-3.202-2.444 8.205-7.22a.659.659 0 0 0 .059-.928L284.16 54.494a.658.658 0 0 0-.929-.06zm3.279 32.192l-2.015-3.482 4.313-3.797 3.199 2.442-5.497 4.837zm1.446-25.826l-2.966 2.61-4.349-4.943 2.966-2.61 4.349 4.943zm-2.096 3.598l2.965-2.61 6.089 6.92-2.966 2.61-6.088-6.92zm-6.207-5.062l11.307 12.851-17.794 15.656-11.307-12.85 17.794-15.657zm6.126 20.917l-10.873 9.568-.87-.989 10.873-9.567 10.875-9.568.869.989-10.874 9.567z" fill="url(#q)" style="mix-blend-mode:multiply"/><path d="M285.838 79.325a.659.659 0 1 0-.989.87.659.659 0 0 0 .989-.87z" fill="url(#r)" style="mix-blend-mode:multiply"/><path d="M279.14 75.555l3.389-2.982-7.652-2.621.932 4.541-2.243-.715 1.054 5.754 1.884-1.657 2.636-2.32zm-2.51-3.61l3.325 1.139-2.618 2.303-.707-3.443zm-1.133 5.062l-.24-1.308.856.273.085.417-.701.618z" fill="url(#s)" style="mix-blend-mode:multiply"/><path d="M267.551 73.49l-.988.87.87.99.988-.87-.87-.99z" fill="url(#t)" style="mix-blend-mode:multiply"/><path d="M272.987 68.708l-.988.87.87.988.988-.87-.87-.988z" fill="url(#u)" style="mix-blend-mode:multiply"/><path d="M278.424 63.924l-.989.87.87.989.989-.87-.87-.989z" fill="url(#v)" style="mix-blend-mode:multiply"/><path d="M281.904 67.878l-.989.87.87.989.989-.87-.87-.989z" fill="url(#w)" style="mix-blend-mode:multiply"/><path d="M285.384 71.832l-.989.87.87.99.989-.871-.87-.989z" fill="url(#x)" style="mix-blend-mode:multiply"/><path d="M274.511 81.4l-.988.869.87.989.988-.87-.87-.989z" fill="url(#y)" style="mix-blend-mode:multiply"/><path d="M271.031 77.445l-.988.87.869.988.989-.87-.87-.988z" fill="url(#z)" style="mix-blend-mode:multiply"/><path d="M279.947 76.616l-.988.87.87.989.988-.87-.87-.989z" fill="url(#A)" style="mix-blend-mode:multiply"/><circle cx="410.5" cy="94.5" r="10.5" stroke="url(#B)" stroke-width="10" style="mix-blend-mode:multiply"/><path d="M413.197 44.78c-.529.27-4.309 4.008-5.579-2.405-1.27-6.414-4.796-6.788-10.483-5.336s-7.878-1.655-9.125-4.338" stroke="url(#C)" stroke-width="8" stroke-linecap="round" stroke-linejoin="round" style="mix-blend-mode:multiply"/></g><defs><linearGradient id="a" x1="232.545" y1="57.846" x2="193.251" y2="69.428" gradientUnits="userSpaceOnUse"><stop stop-color="#FFC000"/><stop offset="1" stop-color="#FF8A00"/></linearGradient><linearGradient id="b" x1="340.576" y1="184.433" x2="341.845" y2="150.006" gradientUnits="userSpaceOnUse"><stop stop-color="#FFC000"/><stop offset="1" stop-color="#FF8A00"/></linearGradient><linearGradient id="c" x1="296.649" y1="12.677" x2="266.165" y2="21.341" gradientUnits="userSpaceOnUse"><stop stop-color="#FFC000"/><stop offset="1" stop-color="#FF8A00"/></linearGradient><linearGradient id="d" x1="251.506" y1=".846" x2="209.445" y2="14.306" gradientUnits="userSpaceOnUse"><stop stop-color="#FFC000"/><stop offset="1" stop-color="#FF8A00"/></linearGradient><linearGradient id="f" x1="404.662" y1="131.996" x2="375.615" y2="140.819" gradientUnits="userSpaceOnUse"><stop stop-color="#FFC000"/><stop offset="1" stop-color="#FF8A00"/></linearGradient><linearGradient id="h" x1="311.174" y1="106.828" x2="346.932" y2="141.842" gradientUnits="userSpaceOnUse"><stop stop-color="#FFC000"/><stop offset="1" stop-color="#FF8A00"/></linearGradient><linearGradient id="i" x1="351.973" y1="29.235" x2="329.206" y2="14.744" gradientUnits="userSpaceOnUse"><stop stop-color="#FFC000"/><stop offset="1" stop-color="#FF8A00"/></linearGradient><linearGradient id="j" x1="334.147" y1="29.625" x2="333.212" y2="28.977" gradientUnits="userSpaceOnUse"><stop stop-color="#FFC000"/><stop offset="1" stop-color="#FF8A00"/></linearGradient><linearGradient id="k" x1="347.226" y1="25.699" x2="343.714" y2="27.483" gradientUnits="userSpaceOnUse"><stop stop-color="#FFC000"/><stop offset="1" stop-color="#FF8A00"/></linearGradient><linearGradient id="l" x1="341.493" y1="21.693" x2="337.916" y2="22.873" gradientUnits="userSpaceOnUse"><stop stop-color="#FFC000"/><stop offset="1" stop-color="#FF8A00"/></linearGradient><linearGradient id="m" x1="341.786" y1="25.155" x2="338.223" y2="26.676" gradientUnits="userSpaceOnUse"><stop stop-color="#FFC000"/><stop offset="1" stop-color="#FF8A00"/></linearGradient><linearGradient id="n" x1="337.863" y1="23.389" x2="334.299" y2="24.406" gradientUnits="userSpaceOnUse"><stop stop-color="#FFC000"/><stop offset="1" stop-color="#FF8A00"/></linearGradient><linearGradient id="o" x1="339.966" y1="29.093" x2="336.428" y2="30.764" gradientUnits="userSpaceOnUse"><stop stop-color="#FFC000"/><stop offset="1" stop-color="#FF8A00"/></linearGradient><linearGradient id="p" x1="333.028" y1="23.592" x2="329.707" y2="23.868" gradientUnits="userSpaceOnUse"><stop stop-color="#FFC000"/><stop offset="1" stop-color="#FF8A00"/></linearGradient><linearGradient id="q" x1="283.858" y1="54.774" x2="265.564" y2="86.408" gradientUnits="userSpaceOnUse"><stop stop-color="#FFC000"/><stop offset="1" stop-color="#FF8A00"/></linearGradient><linearGradient id="r" x1="285.411" y1="78.866" x2="284.589" y2="80.169" gradientUnits="userSpaceOnUse"><stop stop-color="#FFC000"/><stop offset="1" stop-color="#FF8A00"/></linearGradient><linearGradient id="s" x1="277.899" y1="67.519" x2="272.967" y2="78.191" gradientUnits="userSpaceOnUse"><stop stop-color="#FFC000"/><stop offset="1" stop-color="#FF8A00"/></linearGradient><linearGradient id="t" x1="267.559" y1="73.526" x2="266.738" y2="74.829" gradientUnits="userSpaceOnUse"><stop stop-color="#FFC000"/><stop offset="1" stop-color="#FF8A00"/></linearGradient><linearGradient id="u" x1="272.996" y1="68.743" x2="272.174" y2="70.046" gradientUnits="userSpaceOnUse"><stop stop-color="#FFC000"/><stop offset="1" stop-color="#FF8A00"/></linearGradient><linearGradient id="v" x1="278.433" y1="63.959" x2="277.61" y2="65.263" gradientUnits="userSpaceOnUse"><stop stop-color="#FFC000"/><stop offset="1" stop-color="#FF8A00"/></linearGradient><linearGradient id="w" x1="281.912" y1="67.913" x2="281.09" y2="69.218" gradientUnits="userSpaceOnUse"><stop stop-color="#FFC000"/><stop offset="1" stop-color="#FF8A00"/></linearGradient><linearGradient id="x" x1="285.392" y1="71.867" x2="284.57" y2="73.172" gradientUnits="userSpaceOnUse"><stop stop-color="#FFC000"/><stop offset="1" stop-color="#FF8A00"/></linearGradient><linearGradient id="y" x1="274.519" y1="81.435" x2="273.697" y2="82.738" gradientUnits="userSpaceOnUse"><stop stop-color="#FFC000"/><stop offset="1" stop-color="#FF8A00"/></linearGradient><linearGradient id="z" x1="271.039" y1="77.481" x2="270.218" y2="78.784" gradientUnits="userSpaceOnUse"><stop stop-color="#FFC000"/><stop offset="1" stop-color="#FF8A00"/></linearGradient><linearGradient id="A" x1="279.955" y1="76.652" x2="279.134" y2="77.955" gradientUnits="userSpaceOnUse"><stop stop-color="#FFC000"/><stop offset="1" stop-color="#FF8A00"/></linearGradient><linearGradient id="B" x1="425.597" y1="79.75" x2="390.794" y2="90.008" gradientUnits="userSpaceOnUse"><stop stop-color="#FFC000"/><stop offset="1" stop-color="#FF8A00"/></linearGradient><linearGradient id="C" x1="388.497" y1="32.779" x2="407.501" y2="49.722" gradientUnits="userSpaceOnUse"><stop stop-color="#FFC000"/><stop offset="1" stop-color="#FF8A00"/></linearGradient><clipPath id="e"><path fill="#fff" transform="translate(379 131)" d="M0 0h26v26H0z"/></clipPath><clipPath id="g"><path fill="#fff" transform="rotate(-119.18 207.736 -25.003)" d="M0 0h42.758v42.758H0z"/></clipPath></defs></svg>