<svg width="234" height="281" viewBox="0 0 234 281" fill="none" xmlns="http://www.w3.org/2000/svg"><path d="M72.74 242a17.526 17.526 0 0 1-11.44-5.102c-6.858-6.84-6.858-17.929 0-24.768A17.532 17.532 0 0 1 73.719 207c4.494 0 8.99 1.71 12.418 5.13a17.424 17.424 0 0 1 5.117 11.409L72.74 242zm-3.948-23.338h-3.478l3.687 6.129 1.692-2.812-1.901-3.317zm1.685 0l5.841 10.194 5.842-10.194H70.477zm17.034 6.546a16.043 16.043 0 0 0-8.618 4.465 15.923 15.923 0 0 0-3.701 5.732c-.35.936-.609 1.892-.778 2.864l13.097-13.061zm.951-7.155a16.016 16.016 0 0 0-3.36-4.892 16.013 16.013 0 0 0-5.324-3.526 16.092 16.092 0 0 0-6.06-1.175c-2.091 0-4.13.395-6.058 1.175a16.001 16.001 0 0 0-5.325 3.526 15.953 15.953 0 0 0-3.536 5.311 15.946 15.946 0 0 0-1.18 6.041c0 2.086.397 4.119 1.18 6.043.808 1.99 2 3.777 3.536 5.31a16.04 16.04 0 0 0 9.846 4.629l.568-.567a17.423 17.423 0 0 1 3.117-8.919l-4.342-7.577-2.523 4.195-6.273-10.424h21.953l-6.233 10.878a17.513 17.513 0 0 1 10.728-4.533l.568-.567a15.93 15.93 0 0 0-1.282-4.928z" fill="url(#a)" style="mix-blend-mode:multiply"/><path d="M206.453 220l-8.574-10.01-.782-.912-8.574-10.011 18.359-15.636 8.574 10.011.781.912 8.574 10.01L206.453 220zm.301-34.949l-16.607 14.144 7.826 9.137 16.607-14.144-7.826-9.137zm-8 24.193l7.826 9.137 16.607-14.144-7.826-9.137-16.607 14.144z" fill="#fff"/><path d="M208.601 209.966l.381 2.274-5.449-1.825 1.874-1.596 2.624-2.234 3.37-2.871 1.487 7.788-4.287-1.536zm-2.775.007l1.706.573-.173-1.028-.705-.25-.828.705zm1.835-1.563l3.72 1.333-.738-3.873-2.982 2.54zm2.561-5.195l-6.997 5.959a.58.58 0 0 1-.812-.066.576.576 0 0 1 .064-.808l6.997-5.959a.574.574 0 0 1 .808.065.572.572 0 0 1-.06.809zm-15.587-4.07a.573.573 0 1 1-.746-.871.573.573 0 1 1 .746.871zm1.748-1.489a.572.572 0 1 1-.745-.871.577.577 0 0 1 .812.061.574.574 0 0 1-.067.81zm1.752-1.492a.572.572 0 1 1-.745-.87.572.572 0 1 1 .745.87zm1.747-1.489a.572.572 0 1 1-.745-.87.575.575 0 0 1 .808.064.57.57 0 0 1-.063.806zm1.75-1.49a.574.574 0 1 1-.747-.871.574.574 0 0 1 .747.871zm-2.189 3.373l3.37-2.87 1.484 7.784-4.287-1.535.384 2.276-5.449-1.824 1.874-1.596 2.624-2.235zm2.61-.717l-2.982 2.54 3.72 1.332-.738-3.872zm-4.817 4.102l1.705.574-.17-1.025-.707-.253-.828.704zm21.946 1.634a.576.576 0 0 1-.618.527l-2.868-.228-.09 1.144a.575.575 0 1 1-1.147-.091l.135-1.712a.574.574 0 0 1 .618-.527l3.441.27a.576.576 0 0 1 .529.617zm-13.114-10.315a.572.572 0 0 1 .618-.527l.003-.002 1.144.092.09-1.144a.575.575 0 0 1 1.147.091l-.092 1.141 1.147.09a.575.575 0 0 1 .528.617.575.575 0 0 1-.618.527l-1.147-.09-.088 1.141-.002.002a.576.576 0 0 1-1.147-.09l.09-1.144-1.145-.087a.575.575 0 0 1-.528-.617z" fill="#fff"/><path d="M188.742 75.124l.698 1.741.232.581.232.58c-1.588.631-2.358 2.447-1.717 4.047.641 1.6 2.454 2.388 4.042 1.757l.233.58.232.58.697 1.741-1.352 9.957-7.265.198-.243-3.94-13.246 5.267-6.509-16.25 13.246-5.267-2.547-3.024 5.406-4.84 7.861 6.292zm-11.537-1.322l1.763 2.092 1.117 1.328-1.598.635-12.094 4.81 5.579 13.927 12.094-4.809 1.598-.635.107 1.728.167 2.728 5.011-.137 1.167-8.588-.641-1.601a4.387 4.387 0 0 1-4.44-2.749 4.359 4.359 0 0 1 1.32-5.038l-.641-1.602-6.781-5.428-3.728 3.34z" fill="url(#b)" style="mix-blend-mode:multiply"/><path d="M179.096 86.757l2.193.365-3.324 4.397-.885-2.21-1.24-3.095-1.594-3.98 7.559 1.096-2.709 3.427zm-.801 2.255l.756-1-.837-.14-.249.316.33.824zm-.865-2.161l2.054-2.598-3.285-.476 1.231 3.074z" fill="url(#c)" style="mix-blend-mode:multiply"/><g clip-path="url(#d)"><path d="M35.772 135.95L27.045 145l6.613 6.859c1.319 1.366 1.319 3.582 0 4.949a3.303 3.303 0 0 1-2.386 1.026 3.304 3.304 0 0 1-2.387-1.026l-6.613-6.858-8.727 9.05-4.773-4.95 8.726-9.05-7.601-7.884v-4.95h4.773l7.602 7.884 8.727-9.05 4.773 4.95zm-9.523 9.875l-1.19 1.234 5.023 5.208 1.19-1.233-5.023-5.209zm3.432 10.159c.425.44.99.683 1.591.683a2.2 2.2 0 0 0 1.591-.683 2.399 2.399 0 0 0 0-3.3l-.796-.825-3.182 3.3.796.825zm-1.591-1.65l1.196-1.242-5.022-5.208-1.197 1.241 5.023 5.209zm-14.545 3.016l1.567-1.625-.796-.825a.6.6 0 0 1 0-.825.549.549 0 0 1 .796 0l.001.001.795.824 1.59-1.65-.795-.825a.598.598 0 0 1 0-.825.548.548 0 0 1 .796 0l.796.825 1.59-1.65-.795-.825a.6.6 0 0 1 0-.825.549.549 0 0 1 .796 0l.795.825 1.59-1.65-.794-.825a.598.598 0 0 1 0-.825.548.548 0 0 1 .795 0l.795.825 1.591-1.65-.795-.825a.598.598 0 0 1 0-.825.548.548 0 0 1 .795 0l.796.825 1.591-1.65-.796-.825a.6.6 0 0 1 0-.825.549.549 0 0 1 .796 0l.795.825 1.591-1.65-.795-.825a.598.598 0 0 1 0-.825.548.548 0 0 1 .795 0v.001l.796.824 1.59-1.65-.794-.824v-.001a.598.598 0 0 1 0-.825.55.55 0 0 1 .795 0l.796.825 1.567-1.625-3.182-3.3-20.636 21.4 3.182 3.3zm-2.524-24.017v.967l.933-.967h-.933zm3.182 0h-.659l-2.523 2.617v.683l7.273 7.542 1.197-1.241-5.613-5.821a.598.598 0 0 1 0-.825.548.548 0 0 1 .795 0l5.614 5.821 1.19-1.234-7.274-7.542z" fill="#fff"/></g><g clip-path="url(#e)"><path d="M134.772 234.95l-8.727 9.05 6.613 6.859c1.319 1.366 1.319 3.582 0 4.949a3.301 3.301 0 0 1-2.386 1.026 3.303 3.303 0 0 1-2.387-1.026l-6.613-6.858-8.727 9.05-4.773-4.95 8.726-9.05-7.602-7.884v-4.95h4.774l7.602 7.884 8.726-9.05 4.774 4.95zm-9.523 9.875l-1.19 1.234 5.023 5.208 1.19-1.233-5.023-5.209zm3.432 10.159c.425.44.99.683 1.591.683s1.166-.243 1.591-.683a2.398 2.398 0 0 0 0-3.3l-.796-.825-3.182 3.3.796.825zm-1.591-1.65l1.196-1.242-5.022-5.208-1.197 1.241 5.023 5.209zm-14.545 3.016l1.567-1.625-.796-.825a.6.6 0 0 1 0-.825.549.549 0 0 1 .796 0l.001.001.794.824 1.591-1.65-.795-.825a.598.598 0 0 1 0-.825.548.548 0 0 1 .795 0l.796.825 1.592-1.65-.796-.825a.598.598 0 0 1 0-.825.549.549 0 0 1 .796 0l.795.825 1.591-1.65-.795-.825a.598.598 0 0 1 0-.825.548.548 0 0 1 .795 0l.795.825 1.591-1.65-.795-.825a.598.598 0 0 1 0-.825.548.548 0 0 1 .795 0h.001l.795.825 1.591-1.65-.796-.825a.6.6 0 0 1 0-.825.549.549 0 0 1 .796 0l.795.825 1.591-1.65-.795-.825a.598.598 0 0 1 0-.825.548.548 0 0 1 .795 0v.001l.795.824 1.591-1.65-.794-.824-.001-.001a.598.598 0 0 1 0-.825.55.55 0 0 1 .795 0l.796.825 1.568-1.625-3.183-3.3-20.635 21.4 3.182 3.3zm-2.524-24.017v.967l.933-.967h-.933zm3.182 0h-.659l-2.523 2.617v.683l7.273 7.542 1.197-1.241-5.613-5.821a.598.598 0 0 1 0-.825.548.548 0 0 1 .795 0l5.614 5.821 1.19-1.234-7.274-7.542z" fill="url(#f)" style="mix-blend-mode:multiply"/></g><path d="M125.175 94.393l-5.031-4.86a.581.581 0 0 1-.014-.822.586.586 0 0 1 .827-.014l5.031 4.86a.582.582 0 0 1 .012.823.585.585 0 0 1-.825.013z" fill="url(#g)" style="mix-blend-mode:multiply"/><path d="M119.331 90.37l1.677 1.62a.58.58 0 0 1 .014.823.584.584 0 0 1-.825.012l-1.677-1.62a.58.58 0 0 1-.014-.822.584.584 0 0 1 .825-.013z" fill="url(#h)" style="mix-blend-mode:multiply"/><path d="M131.44 102.511l-2.017.537 1.178-5.037 1.597 1.542 2.236 2.16 2.875 2.777-6.888 1.992 1.019-3.971zm-.171-2.234l-.267 1.146.769-.205.094-.365-.596-.576zm1.561 1.508l-.772 3.011 2.994-.865-2.222-2.146z" fill="url(#i)" style="mix-blend-mode:multiply"/><path d="M128.007 116.576L108.72 97.949a.582.582 0 0 1-.013-.824l11.371-11.708a.585.585 0 0 1 .825-.013l19.287 18.628a.58.58 0 0 1 .013.822l-11.371 11.708a.585.585 0 0 1-.825.014zm-.43-2.037l-3.507-12.861a.532.532 0 0 0-.293-.283l-13.006-3.086 16.806 16.23zm-7.067-27.893L110.425 97.03l13.622 3.233c.259.061.511.211.716.409.206.199.364.445.434.701l3.674 13.476 10.087-10.386-18.448-17.817z" fill="url(#j)" style="mix-blend-mode:multiply"/><path d="M38.106 246.273c0 7.029-5.687 12.727-12.703 12.727-2.313 0-4.481-.62-6.35-1.703a12.625 12.625 0 0 1-6.35 1.703C5.686 259 0 253.302 0 246.273c0-4.749 2.596-8.89 6.442-11.077.755-6.307 6.113-11.196 12.61-11.196 6.5 0 11.857 4.889 12.611 11.196a12.727 12.727 0 0 1 6.443 11.077zm-29.92-11.899a12.647 12.647 0 0 1 4.516-.828c2.313 0 4.482.619 6.35 1.703a12.615 12.615 0 0 1 6.352-1.703c1.59 0 3.111.293 4.515.828a11.103 11.103 0 0 0-3.007-5.521 11.066 11.066 0 0 0-7.86-3.263 11.066 11.066 0 0 0-7.859 3.263 11.095 11.095 0 0 0-3.006 5.521zm21.97 1.828a11.011 11.011 0 0 0-4.752-1.066 11.005 11.005 0 0 0-4.865 1.12 12.714 12.714 0 0 1 4.858 9.617 11.177 11.177 0 0 0 3.898-4.811 11.085 11.085 0 0 0 .86-4.86zm-6.353 10.596a11.15 11.15 0 0 0-.859-4.859 11.118 11.118 0 0 0-2.383-3.541 11.143 11.143 0 0 0-1.508-1.266 11.161 11.161 0 0 0-3.891 4.807 11.08 11.08 0 0 0-.86 4.859 11.015 11.015 0 0 0 4.75 1.066 11.015 11.015 0 0 0 4.751-1.066zm-4.75 2.656c-1.59 0-3.112-.293-4.514-.828a11.1 11.1 0 0 0 4.514 6.787c.536-.374 1.04-.796 1.508-1.266a11.117 11.117 0 0 0 3.006-5.521 12.642 12.642 0 0 1-4.514.828zm-6.344-3.581a12.713 12.713 0 0 1 4.858-9.617 11.005 11.005 0 0 0-4.864-1.12 11.011 11.011 0 0 0-4.752 1.066 11.076 11.076 0 0 0 .86 4.859 11.17 11.17 0 0 0 3.898 4.812zm4.858 10.416a12.712 12.712 0 0 1-4.773-8.485 12.73 12.73 0 0 1-6.436-10.677c-.539.376-1.045.8-1.515 1.271a11.082 11.082 0 0 0-2.382 3.541 11.077 11.077 0 0 0-.874 4.334c0 1.504.295 2.962.874 4.334a11.077 11.077 0 0 0 2.382 3.54 11.067 11.067 0 0 0 7.86 3.263 11.022 11.022 0 0 0 4.864-1.121zm18.078-5.682c.58-1.372.873-2.83.873-4.334 0-1.505-.294-2.963-.873-4.334a11.082 11.082 0 0 0-2.383-3.541c-.47-.471-.975-.895-1.514-1.271a12.73 12.73 0 0 1-6.436 10.677 12.713 12.713 0 0 1-4.773 8.485 11.023 11.023 0 0 0 4.864 1.12c1.502 0 2.958-.294 4.327-.874a11.084 11.084 0 0 0 3.532-2.388 11.079 11.079 0 0 0 2.383-3.54z" fill="url(#k)" style="mix-blend-mode:multiply"/><path d="M75.258 254.986l7.362-5.05 3.155-2.164 7.364-5.051 18.434 24.473-19.984 13.707-16.331-25.915zm1.733.358l1.36 2.159 6.442-4.418-1.449-2.099-6.353 4.358zm7.406-5.08l2.897 4.199 1.051-.722-2.897-4.198-1.051.721zm2.103-1.443l1.448 2.1 6.442-4.419-1.536-2.039-6.354 4.358zm23.253 18.075l-14.595-19.374-6.485 4.449 1.448 2.099c.2.29.127.686-.163.885a.64.64 0 0 1-.888-.164c.2.29.126.687-.164.886a.64.64 0 0 1-.888-.165c.2.29.126.687-.164.886a.64.64 0 0 1-.888-.164l-1.449-2.099-6.485 4.448 12.929 20.516 17.792-12.203z" fill="#fff"/><path d="M90.545 260.994l5.573 2.68-.198-3.125 7.102 3.231-2.755 1.89-3.857 2.646-4.96 3.401-.905-10.723zm9.894 3.01l-3.11-1.414.107 1.719 1.505.723 1.498-1.028zm-2.71 1.859l-5.724-2.752.533 6.312 5.19-3.56z" fill="#fff"/><g clip-path="url(#l)"><path d="M241.057 118.364a4.073 4.073 0 0 1-4.95 3.978l-2.699 2.7 7.325 7.325a3.249 3.249 0 1 1-4.595 4.595l-7.326-7.326-8.343 8.344a2.162 2.162 0 0 1-3.064 0 2.167 2.167 0 0 1 0-3.063l8.344-8.344-7.892-7.892v-4.595h4.596l7.891 7.892 2.676-2.676a4.027 4.027 0 0 1-.11-.938c0-4.613 6.803-4.978 9.052-4.978 2.25 0-.905 2.728-.905 4.978zm-2.621 18.467a2.167 2.167 0 0 0 1.531-3.698l-.765-.766-3.064 3.064.766.765c.409.409.953.635 1.532.635zm-20.265-1.148a1.084 1.084 0 0 0 1.532 1.531l8.344-8.343-1.532-1.532-8.344 8.344zm.77-20.514v.897l.896-.897h-.896zm3.062 0h-.633l-2.429 2.429v.634l16.432 16.433 1.152-1.152-14.835-14.835a.54.54 0 1 1 .766-.766l14.834 14.835 1.146-1.146-16.433-16.432zm9.107 7.575l1.531 1.531 2.356-2.355a4.087 4.087 0 0 1-1.542-1.521l-2.345 2.345zm5.829-7.573c-.942.318-1.668.731-2.158 1.229-.53.537-.787 1.179-.787 1.964 0 .798.31 1.549.875 2.114a2.975 2.975 0 0 0 2.115.876 2.994 2.994 0 0 0 2.99-2.99c0-1.233.657-2.436 1.185-3.402.079-.144.174-.318.261-.486-1.166.03-2.932.173-4.481.695z" fill="url(#m)" style="mix-blend-mode:multiply"/></g><g clip-path="url(#n)"><path d="M134.457 152.732l47.894-13.57 2.915 10.284-47.895 13.571-2.914-10.285zm46.666-11.372l-3.377.958.486 1.714a.894.894 0 0 1-.614 1.101.894.894 0 0 1-1.101-.615l.001-.001-.486-1.713-3.428.971.485 1.713a.89.89 0 1 1-1.714.487l-.485-1.715-3.429.972.485 1.714.001.001a.89.89 0 0 1-1.714.485l-.001-.001-.485-1.713-3.429.971.486 1.714a.892.892 0 0 1-.614 1.101.893.893 0 0 1-1.1-.615l-.486-1.714-3.428.971.486 1.714a.89.89 0 1 1-1.715.486l-.485-1.715-3.428.972.485 1.715a.89.89 0 1 1-1.713.485h-.001l-.485-1.714-3.429.972.486 1.713a.892.892 0 0 1-1.714.487v-.002l-.486-1.713-3.428.971.485 1.713.001.001a.891.891 0 0 1-1.715.486l-.486-1.714-3.377.957 1.942 6.857 44.467-12.6-1.943-6.857z" fill="url(#o)" style="mix-blend-mode:multiply"/></g><path d="M193.782 241.212l-14.091 17.41a.49.49 0 0 1-.686.073l-12.138-9.769a.486.486 0 0 1-.073-.683l5.084-6.281-2.642-1.379-.123.152a.486.486 0 1 1-.759-.611l4.902-6.056a.486.486 0 1 1 .759.611l-.123.152 1.909 2.285 5.084-6.282a.487.487 0 0 1 .685-.073l12.138 9.768c.21.169.242.475.074.683zm-23.921-1.401l2.639 1.377 2.674-3.302-1.907-2.284-3.406 4.209zm22.855 1.17l-9.862-7.937-13.477 16.652 9.862 7.936 13.477-16.651zm-18.118-.832l-6.738 8.325.758.611 6.739-8.326 6.738-8.325-.758-.611-6.739 8.326z" fill="url(#p)" style="mix-blend-mode:multiply"/><path d="M175.283 240.075a.487.487 0 1 1-.686.073.489.489 0 0 1 .686-.073z" fill="url(#q)" style="mix-blend-mode:multiply"/><path d="M178.645 255.276l9.186-11.35.001-.001a.486.486 0 1 1 .758.611l-9.187 11.351a.486.486 0 1 1-.758-.611z" fill="url(#r)" style="mix-blend-mode:multiply"/><path d="M177.127 254.054l4.899-6.053h.001a.487.487 0 0 1 .758.61l-4.899 6.054a.486.486 0 1 1-.759-.611z" fill="url(#s)" style="mix-blend-mode:multiply"/><path d="M175.608 252.833l6.736-8.324h.001a.487.487 0 0 1 .758.61l-6.737 8.324a.488.488 0 0 1-.686.074.485.485 0 0 1-.072-.684z" fill="url(#t)" style="mix-blend-mode:multiply"/><path d="M174.092 251.611l4.286-5.296a.488.488 0 0 1 .759.61l-4.287 5.297a.49.49 0 0 1-.686.074.485.485 0 0 1-.072-.685z" fill="url(#u)" style="mix-blend-mode:multiply"/><path d="M172.574 250.39l7.961-9.837a.489.489 0 0 1 .686-.074c.21.169.242.475.073.684L173.332 251a.488.488 0 0 1-.686.074.485.485 0 0 1-.072-.684z" fill="url(#v)" style="mix-blend-mode:multiply"/><path d="M171.056 249.168l2.449-3.026a.488.488 0 0 1 .759.61l-2.45 3.027a.486.486 0 1 1-.758-.611z" fill="url(#w)" style="mix-blend-mode:multiply"/><path d="M135.091 57.225l-3.812 4.004-4.33-13.013 5.751 1.277 8.053 1.788 10.35 2.299-12.802 14.03-3.21-10.385zm-5.275-6.426l2.271 6.825 2.361-2.48-1.101-3.561-3.531-.784zm5.671 1.26l3.651 11.813 8.349-9.149-12-2.665z" fill="#fff"/><path d="M144.675 82.26l-.424 1.894a.962.962 0 0 1-1.14.741.958.958 0 0 1-.717-1.153l.424-1.894-3.716-.825-.424 1.894a.962.962 0 0 1-1.14.74.958.958 0 0 1-.717-1.153l.424-1.893-3.715-.825-.424 1.894a.963.963 0 0 1-1.141.74.96.96 0 0 1-.717-1.153l.424-1.894-3.715-.825-.424 1.894a.963.963 0 0 1-1.141.74.959.959 0 0 1-.717-1.153l.424-1.893-3.715-.825-.424 1.893a.962.962 0 0 1-1.14.74.959.959 0 0 1-.718-1.152l.425-1.894-5.573-1.237L124.286 34l35.295 7.838-9.333 41.66-5.573-1.237zm12.633-38.98l-31.579-7.012-8.502 37.95 3.715.826.406-1.815a.964.964 0 0 1 1.142-.74c.513.114.833.63.716 1.153l-.406 1.814 3.715.825.406-1.814a.964.964 0 0 1 1.142-.74c.513.113.833.63.716 1.152l-.406 1.815 3.715.825.406-1.815a.964.964 0 0 1 1.142-.74c.513.114.833.63.716 1.153l-.406 1.814 3.715.825.406-1.814a.963.963 0 0 1 1.141-.74c.513.113.833.63.716 1.152l-.406 1.815 3.715.825.407-1.814a.963.963 0 0 1 1.141-.741c.513.114.833.63.716 1.153l-.406 1.814 3.715.825 8.502-37.95z" fill="#fff"/><path d="M124.574 215.565l-22.797-20.001a.659.659 0 0 1-.059-.93l13.958-15.819a.661.661 0 0 1 .932-.059l8.225 7.216 2.024-3.487-.199-.173a.659.659 0 1 1 .873-.989l7.929 6.957c.274.24.3.656.059.929a.66.66 0 0 1-.931.06l-.198-.174-3.212 2.444 8.226 7.218c.274.24.3.656.059.929l-13.958 15.82a.66.66 0 0 1-.931.059zm3.293-32.193l-2.021 3.482 4.325 3.797 3.208-2.443-5.512-4.836zm1.446 25.826l-2.974-2.609-4.362 4.944 2.974 2.609 4.362-4.944zm-2.101-3.598l2.973 2.609 6.106-6.921-2.973-2.609-6.106 6.921zm-6.226 5.063l11.341-12.853-17.841-15.653-11.34 12.853 17.84 15.653zm6.148-20.918l-10.903-9.566-.872.989 10.902 9.565 10.903 9.567.872-.989-10.902-9.566z" fill="url(#x)" style="mix-blend-mode:multiply"/><path d="M127.191 190.675a.661.661 0 0 1-.932.059.656.656 0 0 1-.059-.929.66.66 0 0 1 .931-.06.657.657 0 0 1 .06.93z" fill="url(#y)" style="mix-blend-mode:multiply"/><path d="M120.475 194.444l3.398 2.981-7.673 2.624.935-4.542-2.249.716 1.058-5.755 1.888 1.657 2.643 2.319zm-2.517 3.612l3.334-1.14-2.625-2.304-.709 3.444zm-1.136-5.063l-.24 1.308.857-.273.087-.418-.704-.617z" fill="url(#z)" style="mix-blend-mode:multiply"/><path d="M108.854 196.509l-.991-.869.872-.989.991.869-.872.989z" fill="url(#A)" style="mix-blend-mode:multiply"/><path d="M114.305 201.292l-.991-.869.873-.989.991.869-.873.989z" fill="url(#B)" style="mix-blend-mode:multiply"/><path d="M119.757 206.076l-.991-.87.872-.989.992.87-.873.989z" fill="url(#C)" style="mix-blend-mode:multiply"/><path d="M123.247 202.122l-.992-.87.872-.989.992.871-.872.988z" fill="url(#D)" style="mix-blend-mode:multiply"/><path d="M126.736 198.168l-.991-.87.872-.989.992.87-.873.989z" fill="url(#E)" style="mix-blend-mode:multiply"/><path d="M115.833 188.6l-.991-.869.872-.989.991.87-.872.988z" fill="url(#F)" style="mix-blend-mode:multiply"/><path d="M112.343 192.554l-.991-.869.873-.988.99.869-.872.988z" fill="url(#G)" style="mix-blend-mode:multiply"/><path d="M121.284 193.384l-.991-.87.873-.989.99.87-.872.989z" fill="url(#H)" style="mix-blend-mode:multiply"/><circle r="10.5" transform="matrix(1 0 0 -1 248.272 175.5)" stroke="url(#I)" stroke-width="10" style="mix-blend-mode:multiply"/><path d="M166.772 10.193v3.913h-5.947V21h-4.106v-6.894h-5.947v-3.913h5.947V3h4.106v7.193h5.947z" fill="#fff"/><path d="M180.243 4c0 1.506-4.105 14.35 11.909 9.83 16.013-4.519 20.941 3.013 24.226 17.529s12.866 15.885 20.394 15.611" stroke="url(#J)" stroke-width="8" stroke-linecap="round" stroke-linejoin="round" style="mix-blend-mode:multiply"/><path d="M250.969 225.22c-.529-.27-4.31-4.008-5.58 2.405-1.269 6.414-4.795 6.788-10.482 5.336-5.687-1.452-7.878 1.655-9.125 4.338" stroke="url(#K)" stroke-width="8" stroke-linecap="round" stroke-linejoin="round" style="mix-blend-mode:multiply"/><circle r="10.5" transform="matrix(1 0 0 -1 65.772 56)" stroke="#fff" stroke-width="5"/><defs><linearGradient id="a" x1="90.797" y1="241.154" x2="51.411" y2="229.513" gradientUnits="userSpaceOnUse"><stop stop-color="#FFC000"/><stop offset="1" stop-color="#FF8A00"/></linearGradient><linearGradient id="b" x1="185.076" y1="67.584" x2="186.319" y2="102.021" gradientUnits="userSpaceOnUse"><stop stop-color="#FFC000"/><stop offset="1" stop-color="#FF8A00"/></linearGradient><linearGradient id="c" x1="180.287" y1="79.972" x2="179.835" y2="91.099" gradientUnits="userSpaceOnUse"><stop stop-color="#FFC000"/><stop offset="1" stop-color="#FF8A00"/></linearGradient><linearGradient id="f" x1="134.421" y1="257.323" x2="103.937" y2="248.659" gradientUnits="userSpaceOnUse"><stop stop-color="#FFC000"/><stop offset="1" stop-color="#FF8A00"/></linearGradient><linearGradient id="g" x1="125.538" y1="94.704" x2="126.891" y2="90.58" gradientUnits="userSpaceOnUse"><stop stop-color="#FFC000"/><stop offset="1" stop-color="#FF8A00"/></linearGradient><linearGradient id="h" x1="120.603" y1="93.179" x2="120.359" y2="89.997" gradientUnits="userSpaceOnUse"><stop stop-color="#FFC000"/><stop offset="1" stop-color="#FF8A00"/></linearGradient><linearGradient id="i" x1="132.995" y1="108.758" x2="129.097" y2="99.118" gradientUnits="userSpaceOnUse"><stop stop-color="#FFC000"/><stop offset="1" stop-color="#FF8A00"/></linearGradient><linearGradient id="j" x1="128.459" y1="116.424" x2="117.597" y2="87.555" gradientUnits="userSpaceOnUse"><stop stop-color="#FFC000"/><stop offset="1" stop-color="#FF8A00"/></linearGradient><linearGradient id="k" x1="37.611" y1="258.154" x2="-4.546" y2="244.626" gradientUnits="userSpaceOnUse"><stop stop-color="#FFC000"/><stop offset="1" stop-color="#FF8A00"/></linearGradient><linearGradient id="m" x1="242.433" y1="138.004" x2="213.387" y2="129.181" gradientUnits="userSpaceOnUse"><stop stop-color="#FFC000"/><stop offset="1" stop-color="#FF8A00"/></linearGradient><linearGradient id="o" x1="131.945" y1="159.35" x2="167.704" y2="124.337" gradientUnits="userSpaceOnUse"><stop stop-color="#FFC000"/><stop offset="1" stop-color="#FF8A00"/></linearGradient><linearGradient id="p" x1="193.511" y1="240.76" x2="170.71" y2="255.31" gradientUnits="userSpaceOnUse"><stop stop-color="#FFC000"/><stop offset="1" stop-color="#FF8A00"/></linearGradient><linearGradient id="q" x1="175.636" y1="240.375" x2="174.699" y2="241.025" gradientUnits="userSpaceOnUse"><stop stop-color="#FFC000"/><stop offset="1" stop-color="#FF8A00"/></linearGradient><linearGradient id="r" x1="188.75" y1="244.3" x2="185.235" y2="242.509" gradientUnits="userSpaceOnUse"><stop stop-color="#FFC000"/><stop offset="1" stop-color="#FF8A00"/></linearGradient><linearGradient id="s" x1="183.001" y1="248.307" x2="179.418" y2="247.121" gradientUnits="userSpaceOnUse"><stop stop-color="#FFC000"/><stop offset="1" stop-color="#FF8A00"/></linearGradient><linearGradient id="t" x1="183.295" y1="244.845" x2="179.727" y2="243.316" gradientUnits="userSpaceOnUse"><stop stop-color="#FFC000"/><stop offset="1" stop-color="#FF8A00"/></linearGradient><linearGradient id="u" x1="179.362" y1="246.61" x2="175.79" y2="245.588" gradientUnits="userSpaceOnUse"><stop stop-color="#FFC000"/><stop offset="1" stop-color="#FF8A00"/></linearGradient><linearGradient id="v" x1="181.471" y1="240.907" x2="177.928" y2="239.229" gradientUnits="userSpaceOnUse"><stop stop-color="#FFC000"/><stop offset="1" stop-color="#FF8A00"/></linearGradient><linearGradient id="w" x1="174.512" y1="246.408" x2="171.184" y2="246.13" gradientUnits="userSpaceOnUse"><stop stop-color="#FFC000"/><stop offset="1" stop-color="#FF8A00"/></linearGradient><linearGradient id="x" x1="125.203" y1="215.226" x2="106.934" y2="183.554" gradientUnits="userSpaceOnUse"><stop stop-color="#FFC000"/><stop offset="1" stop-color="#FF8A00"/></linearGradient><linearGradient id="y" x1="126.763" y1="191.134" x2="125.942" y2="189.829" gradientUnits="userSpaceOnUse"><stop stop-color="#FFC000"/><stop offset="1" stop-color="#FF8A00"/></linearGradient><linearGradient id="z" x1="119.23" y1="202.481" x2="114.305" y2="191.801" gradientUnits="userSpaceOnUse"><stop stop-color="#FFC000"/><stop offset="1" stop-color="#FF8A00"/></linearGradient><linearGradient id="A" x1="108.862" y1="196.474" x2="108.041" y2="195.169" gradientUnits="userSpaceOnUse"><stop stop-color="#FFC000"/><stop offset="1" stop-color="#FF8A00"/></linearGradient><linearGradient id="B" x1="114.313" y1="201.257" x2="113.492" y2="199.952" gradientUnits="userSpaceOnUse"><stop stop-color="#FFC000"/><stop offset="1" stop-color="#FF8A00"/></linearGradient><linearGradient id="C" x1="119.765" y1="206.041" x2="118.944" y2="204.735" gradientUnits="userSpaceOnUse"><stop stop-color="#FFC000"/><stop offset="1" stop-color="#FF8A00"/></linearGradient><linearGradient id="D" x1="123.255" y1="202.087" x2="122.434" y2="200.781" gradientUnits="userSpaceOnUse"><stop stop-color="#FFC000"/><stop offset="1" stop-color="#FF8A00"/></linearGradient><linearGradient id="E" x1="126.744" y1="198.133" x2="125.923" y2="196.827" gradientUnits="userSpaceOnUse"><stop stop-color="#FFC000"/><stop offset="1" stop-color="#FF8A00"/></linearGradient><linearGradient id="F" x1="115.841" y1="188.565" x2="115.02" y2="187.26" gradientUnits="userSpaceOnUse"><stop stop-color="#FFC000"/><stop offset="1" stop-color="#FF8A00"/></linearGradient><linearGradient id="G" x1="112.351" y1="192.519" x2="111.531" y2="191.214" gradientUnits="userSpaceOnUse"><stop stop-color="#FFC000"/><stop offset="1" stop-color="#FF8A00"/></linearGradient><linearGradient id="H" x1="121.292" y1="193.348" x2="120.471" y2="192.043" gradientUnits="userSpaceOnUse"><stop stop-color="#FFC000"/><stop offset="1" stop-color="#FF8A00"/></linearGradient><linearGradient id="I" x1="30.597" y1=".75" x2="-4.206" y2="11.008" gradientUnits="userSpaceOnUse"><stop stop-color="#FFC000"/><stop offset="1" stop-color="#FF8A00"/></linearGradient><linearGradient id="J" x1="236.031" y1="45.96" x2="175.689" y2="22.384" gradientUnits="userSpaceOnUse"><stop stop-color="#FFC000"/><stop offset="1" stop-color="#FF8A00"/></linearGradient><linearGradient id="K" x1="226.269" y1="237.221" x2="245.273" y2="220.278" gradientUnits="userSpaceOnUse"><stop stop-color="#FFC000"/><stop offset="1" stop-color="#FF8A00"/></linearGradient><clipPath id="d"><path fill="#fff" transform="matrix(1 0 0 -1 8.772 159)" d="M0 0h27v28H0z"/></clipPath><clipPath id="e"><path fill="#fff" transform="matrix(1 0 0 -1 107.772 258)" d="M0 0h27v28H0z"/></clipPath><clipPath id="l"><path fill="#fff" transform="matrix(1 0 0 -1 216.772 139)" d="M0 0h26v26H0z"/></clipPath><clipPath id="n"><path fill="#fff" transform="scale(-1 1) rotate(60.82 -179.741 -68.164)" d="M0 0h42.758v42.758H0z"/></clipPath></defs></svg>