<svg width="395" height="310" viewBox="0 0 395 310" fill="none" xmlns="http://www.w3.org/2000/svg"><ellipse opacity=".2" rx="151.771" ry="14.531" transform="matrix(-1 0 0 1 211.334 295.469)" fill="#6B6B6B"/><path d="M164.9 37.103c-1.91-8.611 5.669-17.617 16.93-20.116 11.26-2.498 21.937 2.458 23.848 11.07 1.91 8.61-5.669 17.617-16.93 20.115-11.26 2.498-21.937-2.457-23.848-11.069zm42.937 46.74c42.824-1.467 67.33-29.111 76.877-50.714 6.086-13.756 19.872 7.069 10.222 36.605-5.47 16.705-19.623 38.762-40.492 47.693-2.141.909-46.607-33.584-46.607-33.584zm59.161 40.609c32.499 6.687 55.084 4.341 70.292-8.682 16.029-13.742 45.801 7.347 54.497 27.395 7.465 17.203-3.109 22.219-11.806 17.203-8.696-5.016-17.877-11.821-27.204 0-25.694 32.587-47.619 44.613-79.737 47.619-48.426 4.532-6.042-83.535-6.042-83.535z" fill="#2F2F2F"/><path d="M370.262 134.954c10.882 8.492 17.452 25.724 20.796 16.484 1.408-3.915-4.649-17.613-15.37-26.295-10.896-8.814-21.045-11.923-23.362-7.347-1.393 2.713 7.054 8.667 17.936 17.158z" fill="#FFAA5B"/><path d="M227.622 298.679c29.346 0 42.911-3.3 57.166-81.702 14.021-77.082 1.995-108.716-45.962-120.874-21.309-5.396-31.487-25.078-41.327-44.099-11.322-21.88-23.01-44.51-51.579-46.636a75.568 75.568 0 0 0-5.382-.206c-12.363 0-19.74 3.476-25.665 6.263-3.886 1.833-7.259 3.417-10.955 3.417-.777 0-1.54-.059-2.332-.206a19.891 19.891 0 0 0-3.432-.308c-11.82 0-17.98 11.293-18.845 22.497C77.667 58.12 91.203 77.67 101.102 91.94c5.5 7.934 10.237 14.782 10.75 19.505 1.246 11.615 34.317 87.304 97.541 102.013 13.213 13.331 21.426 37.574 16.924 50.01-1.746 4.81-5.207 7.494-10.296 7.949-10.368.938-18.552 7.303-18.244 14.181.162 3.08 2.728 13.082 29.845 13.082z" fill="#fff"/><path d="M140.552 5.896c-20.517 0-27.088 9.664-36.62 9.664-.792 0-1.599-.073-2.449-.205a20.12 20.12 0 0 0-3.3-.293c-11.351 0-17.262 10.882-18.112 21.822-2.537 32.851 31.076 60.862 32.543 74.487 1.466 13.624 35.872 87.304 97.189 101.427 18.009 18.009 27.732 57.415 6.32 59.366-21.411 1.95-29.272 25.797 11.513 25.797 28.554 0 42.178-2.596 56.448-81.101 14.269-78.505.645-108.349-45.42-120.023C192.6 85.163 198.979 10.09 145.89 6.116a69.162 69.162 0 0 0-5.338-.22zm0-1.467c1.745 0 3.578.074 5.441.206 28.964 2.17 40.77 24.975 52.165 47.032 10.207 19.754 19.857 38.394 40.858 43.718 24.756 6.277 39.055 17.335 46.344 35.843 7.362 18.684 7.42 45.976.161 85.867-6.996 38.482-13.932 59.615-23.186 70.673-9.049 10.794-20.092 11.63-34.699 11.63-9.811 0-17.496-1.335-22.834-3.989-4.811-2.376-7.553-5.866-7.729-9.797-.338-7.391 7.978-13.947 18.918-14.944 4.781-.44 8.037-2.948 9.68-7.48 4.399-12.172-3.652-35.901-16.616-49.1-32.983-7.743-57.064-32.176-71.466-51.344-17.261-22.966-25.738-44.715-26.427-51.256-.484-4.532-5.177-11.307-10.618-19.153-9.958-14.373-23.582-34.04-21.91-55.598.894-11.541 7.288-23.171 19.578-23.171 1.144 0 2.347.102 3.549.308.748.132 1.467.19 2.2.19 3.549 0 6.673-1.48 10.647-3.343 5.955-2.787 13.419-6.292 25.944-6.292z" fill="#6B6B6B"/><path opacity=".2" d="M112.598 111.37c-.586-5.411-6.247-13.11-12.686-22.467 14.343 13.917 31.942 3.387 55.216 19.27 26.032 67.154 117.926 61.156 117.926 61.156s-35.241 50.464-48.396 67.696c-3.3-9.02-8.58-17.936-14.871-24.228-61.317-14.123-95.722-87.802-97.189-101.427z" fill="#6B6B6B"/><path d="M161.344 68.876c-7.906-3.91-10.169-15.462-5.055-25.8 5.114-10.337 15.669-15.547 23.575-11.636 7.905 3.911 10.168 15.462 5.054 25.8-5.114 10.337-15.668 15.547-23.574 11.636zM90.995 24.141c-1.042-1.977.209-4.686 2.795-6.05 2.586-1.364 5.528-.867 6.571 1.11 1.043 1.978-.208 4.686-2.794 6.05-2.587 1.364-5.529.867-6.572-1.11zm85.033 112.176c-6.57 21.763-51.99 33.73-91.88 2.918-47.722-36.855-43.395-42.09-70.145-35.285-4.87-3.168-3.872-9.577 10.221-14.358 15.091-5.103 14.754-9.474 14.563-16.865-.205-7.465 4.708-8.697 9.826-8.697-.454 20.693 32.631 45.669 89.724 40.8 38.057-3.227 41.196 19.842 37.691 31.487zM109.621 23.89c-10.208 2.743-9.43 31.634-.294 33.555 9.137 1.921 16.88-21.822 12.305-28.451-4.576-6.644-7.89-6.204-12.011-5.104zm106.487 248.273c21.412-1.95 11.674-41.357-6.321-59.366-15.575-36.488 1.951-69.588 35.52-70.072 25.43-.367 39.406 17.129 43.381 40.961-.851 9.958-2.391 20.972-4.605 33.159-14.27 78.504-27.894 81.1-56.448 81.1-40.8 0-32.939-23.846-11.527-25.782z" fill="#2F2F2F"/><path d="M22.978 79.634a.736.736 0 0 0 .704-.763l-3.007-68.59A9.954 9.954 0 0 0 10.718.732c-.147 0-.294 0-.44.015C4.777.982.51 5.66.745 11.16L3.75 79.751c.015.19.088.381.235.513a.75.75 0 0 0 .499.191l18.493-.821z" fill="#FF7A00"/><path d="M10.717 1.481c-.132 0-.279 0-.41.015-5.104.22-9.05 4.546-8.83 9.635l3.007 68.591 18.479-.807-3.007-68.59c-.235-4.972-4.326-8.844-9.24-8.844zm0-1.466A10.681 10.681 0 0 1 21.408 10.25l3.006 68.591c.015.381-.117.763-.38 1.056a1.436 1.436 0 0 1-1.013.47l-18.478.806h-.059a1.479 1.479 0 0 1-1.467-1.408L.011 11.176C-.253 5.28 4.337.263 10.248 0c.146.015.308.015.469.015z" fill="#FFAA5B"/><path d="M14.443 15.428l2.61 59.557M7.389 15.736l2.61 59.557" stroke="#fff" stroke-miterlimit="10" stroke-linecap="round" stroke-linejoin="round"/><path d="M14.295 94.784c.748 0 1.423-.411 1.775-1.071l7.523-14.46a.766.766 0 0 0-.029-.734.74.74 0 0 0-.616-.337L4.44 78.99a.726.726 0 0 0-.616.396.766.766 0 0 0 .03.733l8.755 13.742a2 2 0 0 0 1.686.924z" fill="#fff"/><path d="M22.948 78.915l-18.479.807 8.756 13.742c.25.396.66.586 1.07.586.44 0 .895-.234 1.13-.689l7.523-14.446zm0-1.466c.499 0 .968.25 1.232.675.279.44.308.997.059 1.466l-7.524 14.46a2.719 2.719 0 0 1-2.42 1.467c-.938 0-1.803-.47-2.302-1.261L3.238 80.514a1.457 1.457 0 0 1-.06-1.466 1.49 1.49 0 0 1 1.233-.792l18.478-.807h.06z" fill="#FFAA5B"/><path d="M13.224 93.464L8.43 85.94l11.101-.484-4.12 7.905c-.44.865-1.658.924-2.186.103z" fill="#FF7A00"/><path d="M1.463 11.132l18.479-.807c-.22-5.104-4.546-9.049-9.635-8.829-5.104.22-9.064 4.532-8.844 9.636z" fill="#fff"/><path d="M87.081 30.108c-12.23-6.203-12.964 11.63 1.144 12.495-1.57-4.473-1.144-12.495-1.144-12.495z" fill="#FFADB0"/><path d="M110.238 37.75c-2.024.014-3.916 1.32-3.916 1.32" stroke="#fff" stroke-width="2" stroke-miterlimit="10" stroke-linecap="round" stroke-linejoin="round"/><path opacity=".2" d="M210.36 83.183c-8.272-9.973-12.217-.836-23.876 11.439-5.323 5.602-6.321 14.108 16.866 6.291 11.541-3.9 12.099-11.585 7.01-17.73z" fill="#6B6B6B"/></svg>