<svg width="35" height="33" viewBox="0 0 35 33" fill="none" xmlns="http://www.w3.org/2000/svg"><path d="M22.419.818H2.335c-.616 0-1.116.489-1.116 1.091v29.454c0 .603.5 1.091 1.116 1.091h20.084c.616 0 1.116-.488 1.116-1.09V1.909c0-.602-.5-1.09-1.116-1.09z" fill="#FFDAAA"/><path d="M23.535 1.91v29.453c-.001.29-.12.567-.328.771-.21.204-.493.32-.788.32h-1.116c.296 0 .579-.116.788-.32.209-.204.327-.481.328-.77V1.909a1.081 1.081 0 0 0-.328-.77 1.132 1.132 0 0 0-.788-.32h1.116c.295 0 .579.115.788.32.209.204.327.481.328.77z" fill="#FFC477"/><path d="M9.03 5.182v4.364L6.24 7.364 3.45 9.546V.818h5.58v4.364z" fill="#FF7956"/><path d="M9.03.818v8.728l-1.116-.873V.818h1.115z" fill="#FF6243"/><path d="M32.31 1.784a1.103 1.103 0 0 1 .521.662 1.06 1.06 0 0 1-.114.827l-.279.475-3.626 6.142-.965-.546-1.93-1.09-.966-.546 3.906-6.617c.148-.25.391-.432.677-.507a1.14 1.14 0 0 1 .846.11l1.93 1.09z" fill="#57A4FF"/><path d="M24.235 11.074l1.672-2.832 1.93 1.09-1.672 2.832-1.93-1.09z" fill="#00D7DF"/><path d="M27.138 12.72l-3.604 6.103-3.648 6.18-3.86-2.181 7.252-12.284.256.147.709.399 1.93 1.09.965.546z" fill="#57A4FF"/><path d="M32.717 3.273l-.279.475-3.626 6.142-.965-.546-.709-.398 3.069-5.198.279-.475a1.067 1.067 0 0 0-.408-1.489l-1.221-.693c.148-.25.391-.432.677-.507.286-.074.59-.035.846.11l1.93 1.09a1.103 1.103 0 0 1 .521.662 1.06 1.06 0 0 1-.114.827zm-5.578 9.447l-3.604 6.103-3.649 6.18-1.674-.943 3.091-5.236 3.604-6.104-.965-.546-1.222-.692.558-.944.257.147.708.399 1.93 1.09.966.546z" fill="#2488FF"/><path d="M19.886 25.004l-4.72 3.632.86-5.814 3.86 2.182z" fill="#00D7DF"/><path d="M2.893 12.273h12.273v1.09H2.893v-1.09zm0 13.091h10.042v1.09H2.893v-1.09zm0 3.272h10.042v1.091H2.893v-1.09zm0-13.09h12.273v1.09H2.893v-1.09zm0 3.272h12.273v1.091H2.893v-1.09zm0 3.273h10.042v1.091H2.893v-1.09z" fill="#000"/><path d="M33.688 3.818l-.485-.272a1.61 1.61 0 0 0-.614-2.237L30.657.22a1.707 1.707 0 0 0-1.27-.163 1.669 1.669 0 0 0-1.016.762l-3.905 6.614a.535.535 0 0 0 .204.745l.483.273-1.06 1.798v-8.34c0-.434-.177-.85-.49-1.157a1.693 1.693 0 0 0-1.184-.479H2.335c-.444 0-.87.172-1.184.48-.314.306-.49.722-.49 1.156v29.455c0 .434.176.85.49 1.157.314.307.74.479 1.184.479h20.084c.444 0 .87-.172 1.183-.48.314-.306.49-.722.49-1.156v-12.39l3.532-5.98a.534.534 0 0 0 .056-.413.547.547 0 0 0-.26-.332l-.484-.272 1.116-1.89.483.273a.566.566 0 0 0 .762-.2l3.348-5.668.483.273a.547.547 0 0 1 .26.331.535.535 0 0 1-.056.414l-5.02 8.502.965.546 5.021-8.503a1.611 1.611 0 0 0-.61-2.237zM4.008 1.364h4.464V8.41L6.589 6.938a.566.566 0 0 0-.698 0L4.008 8.41V1.364zm18.969 30a.54.54 0 0 1-.164.385.564.564 0 0 1-.394.16H2.335a.564.564 0 0 1-.395-.16.54.54 0 0 1-.163-.385V1.909a.54.54 0 0 1 .163-.385.564.564 0 0 1 .395-.16h.558v8.182c0 .102.03.203.085.29a.569.569 0 0 0 .821.136l2.441-1.91 2.44 1.91a.564.564 0 0 0 .822-.136.537.537 0 0 0 .085-.29V1.364H22.42a.56.56 0 0 1 .394.16.54.54 0 0 1 .164.385v8.179a.547.547 0 0 0-.184.18l-7.254 12.28a.522.522 0 0 0-.067.195v.01l-.86 5.804a.534.534 0 0 0 .051.317.55.55 0 0 0 .223.234.568.568 0 0 0 .624-.044l4.716-3.628.005-.004a.55.55 0 0 0 .139-.155l2.606-4.414v10.5zm-6.52-7.667l2.439 1.377-2.979 2.29.54-3.667zm3.228.562l-2.901-1.637 6.695-11.337 2.9 1.636-6.694 11.338zM25.97 11.43l-.966-.545 1.116-1.89.966.546-1.116 1.89zm2.64-2.29l-2.9-1.637 3.627-6.14a.57.57 0 0 1 .762-.2l1.932 1.092a.555.555 0 0 1 .261.33.534.534 0 0 1-.055.414L28.61 9.14z" fill="#000"/><path d="M20.745 2.455h1.116v1.09h-1.116v-1.09zm-5.579 0h4.463v1.09h-4.463v-1.09zm2.232 2.182h4.463v1.09h-4.463v-1.09zm-6.695-2.182h3.347v1.09h-3.347v-1.09zm0 2.182h5.579v1.09h-5.579v-1.09z" fill="#000"/></svg>