<svg width="30" height="30" viewBox="0 0 30 30" fill="none" xmlns="http://www.w3.org/2000/svg"><path d="M28.5 11.5h-27a1 1 0 0 0-1 1v16a1 1 0 0 0 1 1h27a1 1 0 0 0 1-1v-16a1 1 0 0 0-1-1z" fill="#57A4FF"/><path d="M29.5 12.5v16a1.003 1.003 0 0 1-1 1h-2a1.003 1.003 0 0 0 1-1v-16a1.003 1.003 0 0 0-1-1h2a1.003 1.003 0 0 1 1 1z" fill="#2488FF"/><path d="M29.5 1.5v4a1.003 1.003 0 0 1-1 1H25l-2 2v-2h-1a1.003 1.003 0 0 1-1-1v-4a1.003 1.003 0 0 1 1-1h6.5a1.003 1.003 0 0 1 1 1zm-7.5 28a5.5 5.5 0 1 0 0-11 5.5 5.5 0 0 0 0 11z" fill="#00D7DF"/><path d="M27.5 24a5.5 5.5 0 0 1-10.26 2.76 5.503 5.503 0 0 0 7.52-7.52A5.49 5.49 0 0 1 27.5 24z" fill="#00B6BD"/><path d="M22 25a3.486 3.486 0 0 1 3.485 3.255 5.5 5.5 0 0 1-6.97 0A3.486 3.486 0 0 1 22 25z" fill="#FFDAAA"/><path d="M22 25a2 2 0 1 0 0-4 2 2 0 0 0 0 4z" fill="#FFDAAA"/><path d="M23 17.5v1.09A5.508 5.508 0 0 0 16.5 24h-3A5.507 5.507 0 0 0 7 18.59V17.5a4 4 0 0 1 4-4h1.165l-.665.5 1 3.5h5l1-3.5-.665-.5H19a4 4 0 0 1 4 4z" fill="#C0AB91"/><path d="M23 17.5v1.09a5.6 5.6 0 0 0-2 0V17.5a4.003 4.003 0 0 0-3-3.875l-.165-.125H19a4 4 0 0 1 4 4z" fill="#B39A7C"/><path d="M19.5 7v.5a.5.5 0 0 1-.5.5h-1V6.5h1a.5.5 0 0 1 .5.5z" fill="#FFDAAA"/><path d="M19.5 1.5v1A2.992 2.992 0 0 1 18 5.095V5l-1.55-.39a1.905 1.905 0 0 1-.45.89c-.665.715-1.85.78-2 .5-.095-.18.29-.395.5-1a3.04 3.04 0 0 0 0-1H14l-2 1v.5h-.5a1.003 1.003 0 0 1-1-1v-1a2 2 0 0 1 2-2h7z" fill="#FFDE55"/><path d="M18.5 14l-1 3.5h-5l-1-3.5.665-.5 1.335-1v-1.905a2.98 2.98 0 0 0 3 0V12.5l1.335 1 .665.5z" fill="#FFDAAA"/><path d="M18 5v3a2.992 2.992 0 0 1-1.5 2.595 2.98 2.98 0 0 1-3 0A2.992 2.992 0 0 1 12 8V5l2-1h.5a3.04 3.04 0 0 1 0 1c-.21.605-.595.82-.5 1 .15.28 1.335.215 2-.5.226-.251.382-.559.45-.89L18 5z" fill="#FFDAAA"/><path d="M8 29.5a5.5 5.5 0 1 0 0-11 5.5 5.5 0 0 0 0 11z" fill="#00D7DF"/><path d="M13.5 24a5.5 5.5 0 0 1-10.26 2.76 5.503 5.503 0 0 0 7.52-7.52A5.49 5.49 0 0 1 13.5 24z" fill="#00B6BD"/><path d="M12 6.5V8h-1a.5.5 0 0 1-.5-.5V7a.5.5 0 0 1 .5-.5h1zM8 25a3.486 3.486 0 0 1 3.485 3.255 5.5 5.5 0 0 1-6.97 0A3.486 3.486 0 0 1 8 25z" fill="#FFDAAA"/><path d="M8 25a2 2 0 1 0 0-4 2 2 0 0 0 0 4z" fill="#FFDAAA"/><path d="M9 2.5v4a1.003 1.003 0 0 1-1 1H7v2l-2-2H1.5a1.003 1.003 0 0 1-1-1v-4a1.003 1.003 0 0 1 1-1H8a1.003 1.003 0 0 1 1 1z" fill="#FF7956"/><path d="M29.5 1.5v4a1.003 1.003 0 0 1-1 1h-2a1.003 1.003 0 0 0 1-1v-4a1.003 1.003 0 0 0-1-1h2a1.003 1.003 0 0 1 1 1z" fill="#00D7DF"/><path d="M9 2.5v4a1.003 1.003 0 0 1-1 1H7v2l-2-2h1a1.003 1.003 0 0 0 1-1v-4a1.003 1.003 0 0 0-1-1h2a1.003 1.003 0 0 1 1 1z" fill="#FF6243"/><path d="M18.5 14l-1 3.5h-1l1-3.5-.665-.5-1.335-1v-1.54a2.894 2.894 0 0 0 1-.365V12.5l1.335 1 .665.5z" fill="#FFC477"/><path d="M19.5 1.5v1A2.992 2.992 0 0 1 18 5.095V5l-.63-.16A2.987 2.987 0 0 0 18.5 2.5v-1h1z" fill="#FFCD00"/><path d="M18 5v3a2.992 2.992 0 0 1-1.5 2.594 2.896 2.896 0 0 1-1 .365v-.365A2.993 2.993 0 0 0 17 8V5l-.615-.155a2.33 2.33 0 0 0 .065-.235L18 5zm-6.515 23.255A5.52 5.52 0 0 1 7 29.41a5.45 5.45 0 0 0 2.485-1.155A3.481 3.481 0 0 0 7 25.145a3.498 3.498 0 0 1 4.485 3.11z" fill="#FFC477"/><path d="M10 23a2 2 0 0 1-2.5 1.935 2 2 0 0 0 0-3.87A2 2 0 0 1 10 23zm15.485 5.255A5.52 5.52 0 0 1 21 29.41a5.45 5.45 0 0 0 2.485-1.155A3.48 3.48 0 0 0 21 25.145a3.498 3.498 0 0 1 4.485 3.11z" fill="#FFC477"/><path d="M24 23a2 2 0 0 1-2.5 1.935 2 2 0 0 0 0-3.87A2 2 0 0 1 24 23z" fill="#FFC477"/><path d="M28.5 11H17v-.13a3.503 3.503 0 0 0 1.46-2.37H19a1.003 1.003 0 0 0 1-1V7a1.003 1.003 0 0 0-1-1h-.5v-.64A3.491 3.491 0 0 0 20 2.5v-1a.5.5 0 0 0-.5-.5h-7A2.5 2.5 0 0 0 10 3.5v1A1.504 1.504 0 0 0 11.5 6H11a1.003 1.003 0 0 0-1 1v.5a1.003 1.003 0 0 0 1 1h.54A3.503 3.503 0 0 0 13 10.87V11H1.5A1.504 1.504 0 0 0 0 12.5v16A1.504 1.504 0 0 0 1.5 30h27a1.504 1.504 0 0 0 1.5-1.5v-16a1.504 1.504 0 0 0-1.5-1.5zm-17-3.5H11V7h.5v.5zM19 7v.5h-.5V7h.5zm-7.225-2.445A.494.494 0 0 0 11.5 5a.5.5 0 0 1-.5-.5v-1A1.504 1.504 0 0 1 12.5 2H19v.5a2.48 2.48 0 0 1-.99 1.985l-1.44-.36a.497.497 0 0 0-.61.38c-.05.243-.161.469-.325.655-.24.238-.544.4-.875.465.085-.146.156-.3.21-.46a3.17 3.17 0 0 0 .025-1.24.497.497 0 0 0-.495-.425H14a.5.5 0 0 0-.225.055l-2 1zM12.5 8V5.31l1.545-.775c.008.1.003.201-.015.3a1.97 1.97 0 0 1-.3.53.794.794 0 0 0-.17.87.834.834 0 0 0 .685.405 2.666 2.666 0 0 0 2.125-.805c.169-.185.307-.396.41-.625l.72.18V8a2.5 2.5 0 0 1-5 0zm1.3 4.9a.507.507 0 0 0 .2-.4v-1.145a3.521 3.521 0 0 0 2 0V12.5a.506.506 0 0 0 .2.4l1.725 1.295-.8 2.805h-4.25l-.8-2.805L13.8 12.9zm8.2 7.6a2.49 2.49 0 0 0-1.65 4.365 3.992 3.992 0 0 0-2.14 2.385A4.957 4.957 0 0 1 17 24a5 5 0 1 1 10 0 4.957 4.957 0 0 1-1.21 3.25 3.992 3.992 0 0 0-2.14-2.385A2.491 2.491 0 0 0 22 20.5zm1.5 2.5a1.5 1.5 0 1 1-3 0 1.5 1.5 0 0 1 3 0zm-1-4.975A5.488 5.488 0 0 0 22 18a6.005 6.005 0 0 0-5.975 5.5h-2.05A6.004 6.004 0 0 0 8 18c-.17 0-.335.01-.5.025V17.5A3.504 3.504 0 0 1 11 14a.42.42 0 0 0 .02.135l1 3.5a.5.5 0 0 0 .48.365h5a.5.5 0 0 0 .48-.365l1-3.5A.42.42 0 0 0 19 14a3.504 3.504 0 0 1 3.5 3.5v.525zM8 20.5a2.49 2.49 0 0 0-1.65 4.365 3.993 3.993 0 0 0-2.14 2.385A4.957 4.957 0 0 1 3 24a5 5 0 1 1 10 0 4.957 4.957 0 0 1-1.21 3.25 3.992 3.992 0 0 0-2.14-2.385A2.491 2.491 0 0 0 8 20.5zM9.5 23a1.5 1.5 0 1 1-3 0 1.5 1.5 0 0 1 3 0zm-8 6a.5.5 0 0 1-.5-.5v-16a.5.5 0 0 1 .5-.5H13v.25L12 13h-1a4.507 4.507 0 0 0-4.5 4.5v.695A5.993 5.993 0 0 0 4.69 29H1.5zM8 29c-1.064 0-2.1-.342-2.955-.975a2.991 2.991 0 0 1 5.91 0A4.974 4.974 0 0 1 8 29zm3.31 0a5.999 5.999 0 0 0 2.665-4.5h2.05A6 6 0 0 0 18.69 29h-7.38zM22 29c-1.064 0-2.1-.342-2.955-.975a2.991 2.991 0 0 1 5.91 0A4.974 4.974 0 0 1 22 29zm7-.5a.5.5 0 0 1-.5.5h-3.19a5.994 5.994 0 0 0-1.81-10.805V17.5A4.507 4.507 0 0 0 19 13h-1l-1-.75V12h11.5a.5.5 0 0 1 .5.5v16z" fill="#000"/><path d="M28.5 0H22a1.504 1.504 0 0 0-1.5 1.5v4A1.504 1.504 0 0 0 22 7h.5v1.5a.493.493 0 0 0 .31.46.504.504 0 0 0 .545-.105L25.205 7H28.5A1.504 1.504 0 0 0 30 5.5v-4A1.504 1.504 0 0 0 28.5 0zm.5 5.5a.5.5 0 0 1-.5.5H25a.516.516 0 0 0-.355.145L23.5 7.295V6.5A.5.5 0 0 0 23 6h-1a.5.5 0 0 1-.5-.5v-4A.5.5 0 0 1 22 1h6.5a.5.5 0 0 1 .5.5v4z" fill="#000"/><path d="M22.5 2H28v1h-5.5V2zm0 2H28v1h-5.5V4zM8 1H1.5A1.505 1.505 0 0 0 0 2.5v4A1.505 1.505 0 0 0 1.5 8h3.295l1.85 1.855A.503.503 0 0 0 7.5 9.5V8H8a1.505 1.505 0 0 0 1.5-1.5v-4A1.505 1.505 0 0 0 8 1zm.5 5.5A.5.5 0 0 1 8 7H7a.5.5 0 0 0-.5.5v.795l-1.145-1.15A.516.516 0 0 0 5 7H1.5a.5.5 0 0 1-.5-.5v-4a.5.5 0 0 1 .5-.5H8a.5.5 0 0 1 .5.5v4z" fill="#000"/><path d="M2 3h5.5v1H2V3zm0 2h5.5v1H2V5z" fill="#000"/></svg>