<svg width="35" height="33" viewBox="0 0 35 33" fill="none" xmlns="http://www.w3.org/2000/svg"><path d="M13.554 1.65v4.4c0 .292-.12.571-.33.777a1.144 1.144 0 0 1-.795.323h-2.25l.562 2.2-2.812-2.2H2.303c-.298 0-.583-.117-.794-.323a1.091 1.091 0 0 1-.33-.777v-4.4c0-.291.119-.57.33-.777A1.14 1.14 0 0 1 2.303.55H12.43c.298.001.584.117.795.323.21.207.33.486.33.777z" fill="#FF7956"/><path d="M31.555 18.15v9.9c.001.291.12.57.33.777.212.206.497.322.796.323h1.125v2.2c-.001.291-.12.57-.33.777a1.146 1.146 0 0 1-.795.323h-6.284a6.552 6.552 0 0 0-2.295-3.944 6.828 6.828 0 0 0-4.36-1.556h-4.5a6.827 6.827 0 0 0-4.357 1.558 6.551 6.551 0 0 0-2.292 3.942h-6.29c-.298 0-.583-.117-.794-.323a1.091 1.091 0 0 1-.33-.777v-16.5c0-.291.119-.57.33-.777a1.14 1.14 0 0 1 .794-.323h30.378c.298 0 .583.117.794.323.21.206.33.486.33.777v2.2h-1.124c-.299 0-.584.117-.795.323a1.09 1.09 0 0 0-.33.777z" fill="#57A4FF"/><path d="M33.806 17.05v12.1H32.68c-.299 0-.584-.117-.795-.323a1.09 1.09 0 0 1-.33-.777v-9.9c0-.291.12-.57.33-.777a1.14 1.14 0 0 1 .795-.323h1.125zm0-13.2v4.4c-.001.291-.12.57-.33.777a1.146 1.146 0 0 1-.795.323h-5.626l-2.813 2.2.563-2.2h-2.25a1.14 1.14 0 0 1-.795-.323 1.091 1.091 0 0 1-.33-.777v-4.4c0-.291.12-.57.33-.777.211-.206.497-.322.795-.323H32.68c.298 0 .583.117.794.323.21.206.33.486.33.777z" fill="#FFEB99"/><path d="M26.397 32.45H8.593a6.551 6.551 0 0 1 2.293-3.942 6.827 6.827 0 0 1 4.356-1.558l.698 3.3h3.105l.697-3.3a6.828 6.828 0 0 1 4.36 1.556 6.552 6.552 0 0 1 2.295 3.944z" fill="#FF7956"/><path d="M22.555 22v.55a.55.55 0 0 1-.165.39.569.569 0 0 1-.398.16h-1.125v-1.65h1.125c.15 0 .293.058.398.161a.544.544 0 0 1 .165.39z" fill="#FFC477"/><path d="M22.555 19.25v.55l-1.688 1.65V19.8l-4.5-1.1-2.25 1.1v1.65l-1.688-1.65v-.55c0-.875.356-1.715.989-2.334a3.415 3.415 0 0 1 2.386-.966h3.376c.895 0 1.753.347 2.386.966.633.62.989 1.459.989 2.334z" fill="#C0AB91"/><path d="M20.867 21.45v1.65c0 .875-.356 1.715-.989 2.334a3.415 3.415 0 0 1-2.386.966 3.415 3.415 0 0 1-2.387-.966 3.263 3.263 0 0 1-.989-2.334v-3.3l2.25-1.1 4.5 1.1v1.65z" fill="#FFDAAA"/><path d="M19.742 26.95l-.698 3.3H15.94l-.697-3.3h4.5z" fill="#FFEB99"/><path d="M14.117 21.45v1.65h-1.125a.569.569 0 0 1-.398-.16.544.544 0 0 1-.165-.39V22c0-.146.06-.286.165-.389a.569.569 0 0 1 .398-.16h1.125z" fill="#FFC477"/><path d="M32.68 13.2H2.304c-.447 0-.876.174-1.193.484a1.632 1.632 0 0 0-.494 1.166v16.5c0 .438.178.858.494 1.167.317.31.746.483 1.193.483h30.378a1.71 1.71 0 0 0 1.193-.483c.316-.31.494-.73.494-1.167v-16.5c0-.437-.178-.857-.494-1.166a1.707 1.707 0 0 0-1.194-.484zm-19.126 9.35h-.562V22h.562v.55zm.311-3.245a.558.558 0 0 0-.228.204.54.54 0 0 0-.083.291v.322l-.562-.55v-.322c0-.729.297-1.428.824-1.943a2.85 2.85 0 0 1 1.988-.807h3.376a2.85 2.85 0 0 1 1.988.807c.527.515.823 1.214.824 1.943v.323l-.562.55V19.8a.543.543 0 0 0-.12-.338.564.564 0 0 0-.306-.195l-4.5-1.1a.57.57 0 0 0-.389.04l-2.25 1.098zM21.43 22h.562v.55h-.562V22zm-6.75-1.86l1.752-.857 3.873.947v2.87a2.72 2.72 0 0 1-.824 1.945 2.845 2.845 0 0 1-1.99.805c-.745 0-1.46-.29-1.988-.805a2.72 2.72 0 0 1-.824-1.945v-2.96zm4.371 7.36l-.465 2.2h-2.188l-.465-2.2h3.118zm-4.263.02l.601 2.84a.548.548 0 0 0 .195.316c.1.08.226.124.356.124h3.104a.57.57 0 0 0 .355-.124c.1-.08.17-.192.196-.316l.6-2.84a6.226 6.226 0 0 1 3.46 1.337 6.001 6.001 0 0 1 2.037 3.043H9.296a5.993 5.993 0 0 1 2.034-3.043 6.219 6.219 0 0 1 3.458-1.337zM32.68 31.9h-5.826a7.113 7.113 0 0 0-2.576-3.962 7.398 7.398 0 0 0-4.537-1.538h-.232c.502-.293.93-.692 1.254-1.168a3.8 3.8 0 0 0 .62-1.582h.608c.299 0 .585-.116.796-.322.21-.206.33-.486.33-.778V22a1.09 1.09 0 0 0-.259-.7 1.13 1.13 0 0 0-.655-.379l.748-.732a.544.544 0 0 0 .165-.389v-.55c0-1.02-.416-2-1.154-2.72a3.989 3.989 0 0 0-2.783-1.13h-3.376a3.989 3.989 0 0 0-2.783 1.13 3.812 3.812 0 0 0-1.155 2.72v.55c0 .146.06.286.165.389l.75.732a1.13 1.13 0 0 0-.656.38 1.085 1.085 0 0 0-.258.7v.55c0 .29.118.57.33.777.21.206.496.322.795.322h.607a3.8 3.8 0 0 0 .62 1.582c.325.476.753.875 1.255 1.168h-.232a7.371 7.371 0 0 0-4.537 1.535A7.087 7.087 0 0 0 8.137 31.9H2.303a.57.57 0 0 1-.397-.16.544.544 0 0 1-.165-.39v-16.5c0-.146.06-.286.165-.389a.569.569 0 0 1 .397-.16h30.378c.149 0 .292.057.397.16a.544.544 0 0 1 .165.39v1.65h-.563a1.71 1.71 0 0 0-1.193.482c-.316.31-.494.73-.494 1.167v9.9c0 .438.178.857.494 1.167.317.31.746.483 1.194.483h.562v1.65a.55.55 0 0 1-.165.39.57.57 0 0 1-.398.16zm.562-14.3v11h-.563a.57.57 0 0 1-.397-.16.544.544 0 0 1-.165-.39v-9.9c0-.146.06-.286.165-.389a.569.569 0 0 1 .398-.16h.562zM2.866 2.2h9v1.1h-9V2.2zm0 2.2h9v1.1h-9V4.4z" fill="#000"/><path d="M2.303 7.7h5.428l2.659 2.08a.57.57 0 0 0 .874-.227.538.538 0 0 0 .023-.337L10.9 7.7h1.53c.448 0 .877-.174 1.193-.483.317-.31.495-.73.495-1.167v-4.4c0-.438-.178-.857-.495-1.167A1.707 1.707 0 0 0 12.43 0H2.303A1.71 1.71 0 0 0 1.11.483c-.316.31-.494.73-.494 1.167v4.4c0 .438.178.857.494 1.167.317.31.746.483 1.193.483zm-.562-6.05c0-.146.06-.286.165-.389a.57.57 0 0 1 .397-.161H12.43a.57.57 0 0 1 .398.161.544.544 0 0 1 .165.389v4.4c0 .146-.06.286-.165.389a.57.57 0 0 1-.398.161h-2.25a.573.573 0 0 0-.444.212.545.545 0 0 0-.102.472l.159.619L8.28 6.72a.57.57 0 0 0-.351-.12H2.303a.57.57 0 0 1-.397-.161.544.544 0 0 1-.165-.389v-4.4zM23.117 4.4h9v1.1h-9V4.4zm0 2.2h9v1.1h-9V6.6z" fill="#000"/><path d="M32.68 2.2H22.556c-.447 0-.877.174-1.193.483-.317.31-.495.73-.495 1.167v4.4c0 .438.178.857.495 1.167.316.31.746.483 1.193.483h1.53l-.388 1.516a.538.538 0 0 0 .023.337.55.55 0 0 0 .219.26.573.573 0 0 0 .655-.033l2.659-2.08h5.428c.447 0 .877-.174 1.193-.483.317-.31.494-.73.494-1.167v-4.4c0-.437-.177-.857-.494-1.167a1.707 1.707 0 0 0-1.193-.483zm.563 6.05a.549.549 0 0 1-.164.39.57.57 0 0 1-.398.16h-5.626a.57.57 0 0 0-.351.12l-1.512 1.183.159-.62a.536.536 0 0 0-.102-.471.56.56 0 0 0-.444-.212h-2.25a.57.57 0 0 1-.398-.16.544.544 0 0 1-.165-.39v-4.4c0-.146.06-.286.165-.389a.57.57 0 0 1 .398-.16h10.126a.57.57 0 0 1 .398.16.544.544 0 0 1 .164.39v4.4z" fill="#000"/></svg>