<svg width="258" height="383" viewBox="0 0 258 383" fill="none" xmlns="http://www.w3.org/2000/svg"><g opacity=".5"><path d="M48.379 305.88a17.521 17.521 0 0 0 12.046 3.441c9.65-.835 16.774-9.332 15.913-18.979a17.533 17.533 0 0 0-6.22-11.91 17.528 17.528 0 0 0-12.812-4.048 17.428 17.428 0 0 0-11.252 5.455l2.325 26.041zm18.02-15.346l2.666 2.234-6.763 2.328.51-3.242 3.588-1.32zm-1.29-1.083l-11.026 4.058 2.073-11.564 8.953 7.506zm-17.259-5.929a16.049 16.049 0 0 1 3.735 8.959 15.919 15.919 0 0 1-.847 6.771c-.333.941-.749 1.84-1.243 2.693l-1.645-18.423zm3.868-6.093a15.988 15.988 0 0 1 5.718-1.59 16.08 16.08 0 0 1 11.744 3.711 16.085 16.085 0 0 1 3.887 4.794 15.99 15.99 0 0 1 1.815 6.123 15.944 15.944 0 0 1-.702 6.341 15.944 15.944 0 0 1-2.978 5.388 15.956 15.956 0 0 1-4.786 3.872 15.933 15.933 0 0 1-6.122 1.797 15.999 15.999 0 0 1-5.91-.585 16.023 16.023 0 0 1-4.61-2.195l-.07-.798a17.423 17.423 0 0 0 3.342-8.837l8.196-3.017-.762 4.836 11.504-3.958-4.005-3.358-5.608-4.702-7.21-6.045-2.212 12.341a17.515 17.515 0 0 0-5.308-10.366l-.071-.8a15.894 15.894 0 0 1 4.148-2.952z" fill="url(#a)" style="mix-blend-mode:multiply"/><path d="M66.71 103.475l-1.654.886-.551.295-.55.295c.81 1.505.234 3.391-1.285 4.205-1.52.814-3.415.253-4.226-1.251l-.551.295-.551.296-1.653.886-5.36 8.499 5.44 4.819 2.717-2.863 6.766 12.547 15.428-8.27-6.766-12.547 3.895-.681-1.033-7.182-10.067-.229zm9.69 6.399l-2.695.471-1.71.299.817 1.514 6.177 11.455-13.224 7.089-6.177-11.456-.817-1.514-1.192 1.256-1.88 1.982-3.753-3.324 4.624-7.33 1.52-.815a4.386 4.386 0 0 0 5.168.746 4.358 4.358 0 0 0 2.226-4.709l1.52-.815 8.684.197.711 4.954z" fill="url(#b)" style="mix-blend-mode:multiply"/><path d="M66.627 118.586l-1.915-1.129-.279 5.506 2.1-1.125 2.938-1.576 3.778-2.025-6.496-4.017-.126 4.366zm-.835 2.243l.063-1.251.73.43-.011.401-.782.42zm2.051-1.1l.095-3.31 2.824 1.745-2.919 1.565z" fill="url(#c)" style="mix-blend-mode:multiply"/><g clip-path="url(#d)"><path d="M5.376 260.622l.872 12.542-9.474 1.006c-1.888.2-3.312 1.899-3.18 3.793a3.305 3.305 0 0 0 1.17 2.319 3.306 3.306 0 0 0 2.488.748l9.474-1.007.872 12.542 6.838-.725-.872-12.543 10.89-1.156 3.18-3.793-3.657-3.067-10.89 1.157-.873-12.542-6.838.726zm.952 13.685l.12 1.71-7.196.764-.12-1.71 7.196-.764zm-9.157 5.58a2.197 2.197 0 0 1-2.438-2.045 2.4 2.4 0 0 1 2.12-2.529l1.14-.121.318 4.574-1.14.121zm2.28-.242l-.12-1.72 7.195-.765.12 1.72-7.195.765zm9.207 11.656l-.157-2.252 1.14-.121a.6.6 0 0 0 .53-.632.55.55 0 0 0-.61-.512s0 .001 0 0l-1.139.122-.159-2.287 1.14-.121a.6.6 0 0 0 .53-.633.547.547 0 0 0-.61-.51l-1.14.12-.159-2.286 1.139-.121h.001a.6.6 0 0 0 .53-.632.548.548 0 0 0-.61-.511v-.001l-1.139.122-.16-2.287 1.14-.121a.598.598 0 0 0 .53-.632.549.549 0 0 0-.61-.511l-1.139.121-.159-2.286 1.14-.122a.598.598 0 0 0 .53-.632.549.549 0 0 0-.61-.511l-1.14.121-.159-2.287 1.14-.12a.6.6 0 0 0 .53-.633.549.549 0 0 0-.61-.511l-1.139.121-.159-2.286 1.14-.121a.6.6 0 0 0 .53-.633.548.548 0 0 0-.61-.511v.001l-1.14.121-.158-2.287 1.138-.121h.001a.598.598 0 0 0 .53-.632.548.548 0 0 0-.61-.511l-1.14.121-.156-2.253 4.559-.484 2.063 29.657-4.559.484zm17.365-16.782l-.62.741-.095-1.34.715.599zm-2.438-2.044l.505.423.252 3.626-.439.524-10.42 1.106-.119-1.72 8.042-.854a.598.598 0 0 0 .53-.632.548.548 0 0 0-.61-.511l-8.041.853-.12-1.709 10.42-1.106z" fill="url(#e)" style="mix-blend-mode:multiply"/></g><path d="M103.039 159.082l6.978-.491a.58.58 0 0 0 .538-.621.584.584 0 0 0-.624-.542l-6.977.491a.581.581 0 0 0-.539.623c.024.32.303.563.624.54z" fill="url(#f)" style="mix-blend-mode:multiply"/><path d="M110.102 159.754l-2.326.164a.58.58 0 0 0-.539.622.585.585 0 0 0 .624.54l2.326-.164a.58.58 0 0 0 .538-.622.584.584 0 0 0-.623-.54z" fill="url(#g)" style="mix-blend-mode:multiply"/><path d="M93.023 161.277l1.2 1.708 2.334-4.617-2.215.156-3.1.218-3.988.281 3.998 5.952 1.77-3.698zm1.566-1.601l-.531 1.049-.458-.651.162-.34.827-.058zm-2.165.152l-1.343 2.803-1.738-2.586 3.08-.217z" fill="url(#h)" style="mix-blend-mode:multiply"/><path d="M86.616 174.261l26.747-1.882a.582.582 0 0 0 .54-.622l-1.191-16.278a.586.586 0 0 0-.624-.54l-26.747 1.882a.582.582 0 0 0-.539.622l1.19 16.278a.584.584 0 0 0 .624.54zm1.638-1.284l10.95-7.602a.531.531 0 0 1 .407-.029l11.949 5.991-23.306 1.64zm23.337-16.834l1.056 14.437-12.515-6.275a1.59 1.59 0 0 0-.812-.146c-.285.02-.565.107-.782.258l-11.474 7.966-1.057-14.44 25.584-1.8z" fill="url(#i)" style="mix-blend-mode:multiply"/><path d="M72.174 331.407c-4.517 5.386-3.82 13.406 1.556 17.914a12.617 12.617 0 0 0 5.96 2.775c.737 2.031 2 3.9 3.773 5.386 5.376 4.507 13.394 3.795 17.91-1.592a12.726 12.726 0 0 0 2.181-12.627c3.473-5.317 2.51-12.506-2.47-16.681-4.98-4.176-12.226-3.871-16.857.477a12.725 12.725 0 0 0-12.053 4.348zm30.571 10.106a12.65 12.65 0 0 0-2.928-3.536 12.619 12.619 0 0 0-5.96-2.776c-.736-2.03-2-3.899-3.772-5.385a12.674 12.674 0 0 0-3.993-2.267 11.126 11.126 0 0 1 5.852-2.298c1.44-.128 2.867.02 4.241.44a11.04 11.04 0 0 1 3.877 2.109 11.073 11.073 0 0 1 3.926 7.55 11.088 11.088 0 0 1-1.243 6.163zm-18.008-12.714a11.022 11.022 0 0 1 4.326 2.236 11 11 0 0 1 3.007 3.984 12.71 12.71 0 0 0-9.9 4.248 11.132 11.132 0 0 1-.345-1.948 11.106 11.106 0 0 1 2.912-8.52zm-1.94 12.2a11.078 11.078 0 0 1 3.78-3.171 11.118 11.118 0 0 1 4.1-1.182 11.07 11.07 0 0 1 1.97-.001c.17.631.285 1.278.342 1.939a11.118 11.118 0 0 1-.449 4.244 11.081 11.081 0 0 1-2.464 4.275 11.012 11.012 0 0 1-4.325-2.235 11.029 11.029 0 0 1-2.955-3.869zm1.932 5.088a12.669 12.669 0 0 0 3.992 2.266 11.118 11.118 0 0 1-5.851 2.299c-.661.059-1.318.059-1.97.001a11.115 11.115 0 0 1-.342-1.939 11.116 11.116 0 0 1 1.244-6.163 12.657 12.657 0 0 0 2.927 3.536zm7.162 1.331a12.71 12.71 0 0 0 2.457-10.49 11.014 11.014 0 0 1 4.447 2.267 11.03 11.03 0 0 1 2.956 3.87 11.086 11.086 0 0 1-3.781 3.171 11.166 11.166 0 0 1-6.079 1.182zm-10.414 4.861a12.71 12.71 0 0 0 9.109-3.436c4.23.774 8.74-.627 11.792-4.046.171.634.286 1.284.344 1.947a11.104 11.104 0 0 1-2.565 8.127 11.094 11.094 0 0 1-7.555 3.942 11.068 11.068 0 0 1-8.118-2.55 11.022 11.022 0 0 1-3.007-3.984zm-10.202-15.97a11.085 11.085 0 0 1 2.115-3.882 11.08 11.08 0 0 1 3.454-2.76 11.07 11.07 0 0 1 4.1-1.182 11.159 11.159 0 0 1 1.978-.001 12.728 12.728 0 0 0-1.928 12.317 12.712 12.712 0 0 0-1.795 9.568 11.016 11.016 0 0 1-4.447-2.267 11.017 11.017 0 0 1-2.753-3.449 11.083 11.083 0 0 1-1.173-4.1c-.126-1.44.025-2.868.449-4.244z" fill="url(#j)" style="mix-blend-mode:multiply"/><path d="M38.107 314.213l-2.397-8.6-1.027-3.686-2.398-8.601-29.85 6.909 6.507 23.343 29.165-9.365zm-1.558-.839l-2.43.78-2.097-7.524 2.459-.678 2.068 7.422zm-2.411-8.651l-4.918 1.356-.342-1.228 4.917-1.356.343 1.228zm-.685-2.457l-2.459.678-2.097-7.524 2.487-.576 2.07 7.422zm-29.43-1.09l23.63-5.468 2.112 7.575-2.459.678a.636.636 0 0 0-.444.784.64.64 0 0 0 .786.445.635.635 0 0 0-.443.784.639.639 0 0 0 .786.444.636.636 0 0 0-.444.784.64.64 0 0 0 .786.445l2.46-.678 2.11 7.575-23.088 7.414-5.793-20.782z" fill="#fff"/><path d="M22.532 308.995l-5.992-1.527 2.16-2.268-7.519-2.086.898 3.218 1.255 4.505 1.615 5.794 7.583-7.636zm-9.515-4.05l3.292.914-1.187 1.249-1.617-.413-.488-1.75zm.882 3.166l6.154 1.568-4.464 4.495-1.69-6.063z" fill="#fff"/><g clip-path="url(#k)"><path d="M-1.16 102.995a4.073 4.073 0 0 0 1.237 6.229l.333 3.803-10.32.907a3.249 3.249 0 1 0 .57 6.473L.98 119.5l1.032 11.755a2.163 2.163 0 0 0 2.348 1.968 2.167 2.167 0 0 0 1.968-2.348l-1.033-11.754 11.119-.976 2.952-3.521-3.522-2.953-11.118.977-.33-3.77a4.04 4.04 0 0 0 .686-.649c2.964-3.534-2.014-8.185-3.737-9.63-1.724-1.446-1.06 2.672-2.505 4.396zm-9.857 15.835a2.154 2.154 0 0 1-.766-1.47 2.17 2.17 0 0 1 1.968-2.348l1.079-.094.38 4.315-1.08.095a2.15 2.15 0 0 1-1.581-.498zm16.266 12.141a1.084 1.084 0 0 1-2.158.189l-1.033-11.754 2.158-.19 1.033 11.755zm12.59-16.214l-.576.687-.11-1.263.686.576zm-2.346-1.968l.485.408.3 3.421-.407.486-23.149 2.034-.142-1.623 20.898-1.836a.541.541 0 1 0-.094-1.079l-20.9 1.837-.141-1.614 23.15-2.034zm-11.845-.047l-2.158.19-.292-3.318c.722.136 1.47.076 2.16-.175l.29 3.303zm.399-9.547c.517.848.808 1.631.864 2.328.06.752-.155 1.409-.66 2.01a2.97 2.97 0 0 1-2.028 1.058 2.976 2.976 0 0 1-2.183-.688 2.993 2.993 0 0 1-.37-4.212c.792-.945 1.061-2.288 1.277-3.368.032-.161.071-.356.112-.54.875.772 2.136 2.016 2.988 3.412z" fill="url(#l)" style="mix-blend-mode:multiply"/></g><g clip-path="url(#m)"><path d="M58.443 197.822l-27.981-41.17-8.841 6.007 27.981 41.173 8.841-6.01zM29.99 159.125l1.973 2.905-1.474 1a.894.894 0 0 0-.236 1.239.894.894 0 0 0 1.238.236v-.002l1.473-1 2.003 2.947-1.473 1.001a.89.89 0 1 0 1 1.474l1.474-1.002 2.003 2.947-1.473 1.002a.89.89 0 1 0 1.001 1.473h.001l1.473-1.001 2.003 2.947-1.474 1.001a.892.892 0 0 0 1.002 1.474l1.474-1.002 2.002 2.948-1.473 1a.892.892 0 0 0 1.001 1.475l1.474-1.003 2.002 2.948-1.473 1.002a.89.89 0 1 0 1.001 1.473h.001l1.473-1.001 2.003 2.947-1.474 1.001a.892.892 0 0 0 1.002 1.474v-.001l1.473-1.001 2.004 2.947-1.473 1.001a.892.892 0 0 0 1 1.474l1.474-1.001 1.973 2.903-5.894 4.007-25.978-38.225 5.894-4.007z" fill="url(#n)" style="mix-blend-mode:multiply"/></g><path d="M119.321 124.23l.348 5.518 11.68-7.19-5.228-2.717-7.319-3.803-9.408-4.889.796 18.976 9.131-5.895zm8.172-1.535l-6.126 3.771-.216-3.417 3.132-2.022 3.21 1.668zm-5.155-2.679l-10.388 6.707-.52-12.375 10.908 5.668z" fill="#fff"/><path d="M95.891 137.256L95 138.98a.962.962 0 0 0 .397 1.3.958.958 0 0 0 1.29-.423l.893-1.723 3.377 1.755-.892 1.723a.963.963 0 0 0 .398 1.3.958.958 0 0 0 1.29-.422l.892-1.724 3.377 1.755-.892 1.723a.964.964 0 0 0 .398 1.301.96.96 0 0 0 1.291-.423l.892-1.724 3.376 1.755-.891 1.724a.962.962 0 0 0 .398 1.3.959.959 0 0 0 1.29-.423l.892-1.724 3.377 1.755-.892 1.724a.963.963 0 0 0 .398 1.3.959.959 0 0 0 1.291-.423l.892-1.723 5.065 2.632 19.616-37.92-32.081-16.67-19.616 37.919 5.066 2.632zm15.366-37.986l28.704 14.916-17.87 34.544-3.376-1.755.854-1.652a.964.964 0 0 0-.399-1.301.96.96 0 0 0-1.29.424l-.854 1.651-3.377-1.754.854-1.652a.962.962 0 0 0-.398-1.301.96.96 0 0 0-1.29.424l-.855 1.651-3.376-1.755.854-1.651a.963.963 0 0 0-.399-1.301.958.958 0 0 0-1.29.423l-.854 1.652-3.377-1.755.855-1.652a.964.964 0 0 0-.399-1.301.96.96 0 0 0-1.29.424l-.854 1.652-3.377-1.755.854-1.652a.963.963 0 0 0-.399-1.301.959.959 0 0 0-1.289.424l-.854 1.651-3.378-1.755 17.87-34.543z" fill="#fff"/><path d="M25.645 252.32l30.32-.68a.657.657 0 0 0 .643-.673l-.532-21.091a.662.662 0 0 0-.676-.644l-10.94.245.69-3.972.264-.006a.657.657 0 0 0 .642-.674.662.662 0 0 0-.676-.644l-10.546.236a.657.657 0 0 0-.642.674c.01.364.311.653.675.645l.264-.006.89 3.936-10.94.246a.656.656 0 0 0-.643.673l.532 21.091a.66.66 0 0 0 .675.644zm18.161-26.785l-.688 3.967-5.754.13-.889-3.932 7.331-.165zm-17.7 18.861l3.954-.088.166 6.59-3.955.089-.166-6.591zm3.92-1.407l-3.954.089-.233-9.227 3.955-.088.233 9.226zm1.518 7.88l-.432-17.136 23.728-.532.432 17.136-23.728.532zm8.73-19.979l14.5-.325.033 1.318-14.5.325-14.5.325-.034-1.318 14.5-.325z" fill="url(#o)" style="mix-blend-mode:multiply"/><path d="M39.632 231.565c.01.364.311.653.676.645a.657.657 0 0 0 .642-.674.662.662 0 0 0-.675-.645.657.657 0 0 0-.643.674z" fill="url(#p)" style="mix-blend-mode:multiply"/><path d="M42.357 238.769l-4.52.101 4.195 6.94 2.201-4.081 1.264 1.994 2.887-5.089-2.512.056-3.515.079zm-.392 4.385l-1.823-3.017 3.492-.078-1.67 3.095zm4.123-3.15l-.656 1.157-.482-.761.202-.375.936-.021z" fill="url(#q)" style="mix-blend-mode:multiply"/><path d="M49.935 247.818l1.318-.029-.033-1.319-1.318.03.033 1.318z" fill="url(#r)" style="mix-blend-mode:multiply"/><path d="M42.684 247.981l1.318-.03-.033-1.318-1.318.029.033 1.319z" fill="url(#s)" style="mix-blend-mode:multiply"/><path d="M35.433 248.143l1.319-.029-.033-1.319-1.32.03.034 1.318z" fill="url(#t)" style="mix-blend-mode:multiply"/><path d="M35.3 242.871l1.319-.029-.034-1.318-1.319.029.034 1.318z" fill="url(#u)" style="mix-blend-mode:multiply"/><path d="M35.166 237.599l1.32-.029-.034-1.318-1.319.029.033 1.318z" fill="url(#v)" style="mix-blend-mode:multiply"/><path d="M49.668 237.274l1.318-.03-.033-1.318-1.318.029.033 1.319z" fill="url(#w)" style="mix-blend-mode:multiply"/><path d="M49.802 242.546l1.318-.03-.033-1.318-1.318.03.033 1.318z" fill="url(#x)" style="mix-blend-mode:multiply"/><path d="M42.418 237.436l1.318-.029-.033-1.319-1.318.03.033 1.318z" fill="url(#y)" style="mix-blend-mode:multiply"/><path d="M125.264 67.835l-2.514 2.998 4.557 3.821-4.43 5.283 3.146 2.639 4.43-5.283 4.557 3.82 2.514-2.998-4.557-3.821 4.622-5.511-3.147-2.639-4.621 5.512-4.557-3.821z" fill="#fff"/><path d="M118.92 54.434c-.968 1.154-6.074 13.634-15.441-.118-9.368-13.752-17.983-11.147-29.827-2.134-11.843 9.013-20.065 3.906-25.658-1.14" stroke="url(#z)" stroke-width="8" stroke-linecap="round" stroke-linejoin="round" style="mix-blend-mode:multiply"/><circle cx="173.226" cy="167.83" r="10.5" transform="rotate(-140.021 173.226 167.83)" stroke="#fff" stroke-width="5"/></g><defs><linearGradient id="a" x1="35.087" y1="293.63" x2="72.747" y2="310.015" gradientUnits="userSpaceOnUse"><stop stop-color="#FFC000"/><stop offset="1" stop-color="#FF8A00"/></linearGradient><linearGradient id="b" x1="74.364" y1="100.052" x2="51.285" y2="125.642" gradientUnits="userSpaceOnUse"><stop stop-color="#FFC000"/><stop offset="1" stop-color="#FF8A00"/></linearGradient><linearGradient id="c" x1="70.073" y1="112.622" x2="63.271" y2="121.439" gradientUnits="userSpaceOnUse"><stop stop-color="#FFC000"/><stop offset="1" stop-color="#FF8A00"/></linearGradient><linearGradient id="e" x1="-8.73" y1="277.991" x2="20.196" y2="290.938" gradientUnits="userSpaceOnUse"><stop stop-color="#FFC000"/><stop offset="1" stop-color="#FF8A00"/></linearGradient><linearGradient id="f" x1="102.561" y1="159.087" x2="104.174" y2="155.058" gradientUnits="userSpaceOnUse"><stop stop-color="#FFC000"/><stop offset="1" stop-color="#FF8A00"/></linearGradient><linearGradient id="g" x1="107.322" y1="161.089" x2="109.554" y2="158.808" gradientUnits="userSpaceOnUse"><stop stop-color="#FFC000"/><stop offset="1" stop-color="#FF8A00"/></linearGradient><linearGradient id="h" x1="87.817" y1="165.066" x2="96.997" y2="160.183" gradientUnits="userSpaceOnUse"><stop stop-color="#FFC000"/><stop offset="1" stop-color="#FF8A00"/></linearGradient><linearGradient id="i" x1="86.367" y1="173.855" x2="113.24" y2="158.711" gradientUnits="userSpaceOnUse"><stop stop-color="#FFC000"/><stop offset="1" stop-color="#FF8A00"/></linearGradient><linearGradient id="j" x1="64.92" y1="340.829" x2="105.915" y2="357.549" gradientUnits="userSpaceOnUse"><stop stop-color="#FFC000"/><stop offset="1" stop-color="#FF8A00"/></linearGradient><linearGradient id="l" x1="-14.834" y1="117.161" x2="13.092" y2="129.062" gradientUnits="userSpaceOnUse"><stop stop-color="#FFC000"/><stop offset="1" stop-color="#FF8A00"/></linearGradient><linearGradient id="n" x1="56.115" y1="204.508" x2="51.211" y2="154.703" gradientUnits="userSpaceOnUse"><stop stop-color="#FFC000"/><stop offset="1" stop-color="#FF8A00"/></linearGradient><linearGradient id="o" x1="25.381" y1="251.656" x2="59.73" y2="239.125" gradientUnits="userSpaceOnUse"><stop stop-color="#FFC000"/><stop offset="1" stop-color="#FF8A00"/></linearGradient><linearGradient id="p" x1="39.665" y1="232.192" x2="41.133" y2="231.72" gradientUnits="userSpaceOnUse"><stop stop-color="#FFC000"/><stop offset="1" stop-color="#FF8A00"/></linearGradient><linearGradient id="q" x1="38.147" y1="245.727" x2="48.783" y2="240.707" gradientUnits="userSpaceOnUse"><stop stop-color="#FFC000"/><stop offset="1" stop-color="#FF8A00"/></linearGradient><linearGradient id="r" x1="49.951" y1="247.786" x2="51.419" y2="247.313" gradientUnits="userSpaceOnUse"><stop stop-color="#FFC000"/><stop offset="1" stop-color="#FF8A00"/></linearGradient><linearGradient id="s" x1="42.701" y1="247.948" x2="44.168" y2="247.476" gradientUnits="userSpaceOnUse"><stop stop-color="#FFC000"/><stop offset="1" stop-color="#FF8A00"/></linearGradient><linearGradient id="t" x1="35.449" y1="248.111" x2="36.918" y2="247.638" gradientUnits="userSpaceOnUse"><stop stop-color="#FFC000"/><stop offset="1" stop-color="#FF8A00"/></linearGradient><linearGradient id="u" x1="35.316" y1="242.839" x2="36.785" y2="242.366" gradientUnits="userSpaceOnUse"><stop stop-color="#FFC000"/><stop offset="1" stop-color="#FF8A00"/></linearGradient><linearGradient id="v" x1="35.183" y1="237.567" x2="36.651" y2="237.094" gradientUnits="userSpaceOnUse"><stop stop-color="#FFC000"/><stop offset="1" stop-color="#FF8A00"/></linearGradient><linearGradient id="w" x1="49.685" y1="237.241" x2="51.152" y2="236.769" gradientUnits="userSpaceOnUse"><stop stop-color="#FFC000"/><stop offset="1" stop-color="#FF8A00"/></linearGradient><linearGradient id="x" x1="49.818" y1="242.513" x2="51.286" y2="242.041" gradientUnits="userSpaceOnUse"><stop stop-color="#FFC000"/><stop offset="1" stop-color="#FF8A00"/></linearGradient><linearGradient id="y" x1="42.434" y1="237.404" x2="43.902" y2="236.932" gradientUnits="userSpaceOnUse"><stop stop-color="#FFC000"/><stop offset="1" stop-color="#FF8A00"/></linearGradient><linearGradient id="z" x1="49.211" y1="50.743" x2="110.597" y2="71.448" gradientUnits="userSpaceOnUse"><stop stop-color="#FFC000"/><stop offset="1" stop-color="#FF8A00"/></linearGradient><clipPath id="d"><path fill="#fff" transform="rotate(-140.021 59.398 145.769)" d="M0 0h27v28H0z"/></clipPath><clipPath id="k"><path fill="#fff" transform="rotate(-140.021 26.542 66.444)" d="M0 0h26v26H0z"/></clipPath><clipPath id="m"><path fill="#fff" transform="rotate(100.799 -35.007 108.526)" d="M0 0h42.758v42.758H0z"/></clipPath></defs></svg>