<svg width="33" height="33" viewBox="0 0 33 33" fill="none" xmlns="http://www.w3.org/2000/svg"><path d="M14.85 10.45H1.65a1.1 1.1 0 0 0-1.1 1.1v19.8a1.1 1.1 0 0 0 1.1 1.1h13.2a1.1 1.1 0 0 0 1.1-1.1v-19.8a1.1 1.1 0 0 0-1.1-1.1z" fill="#FFDAAA"/><path d="M15.95 11.55v19.8a1.104 1.104 0 0 1-1.1 1.1h-1.1a1.103 1.103 0 0 0 1.1-1.1v-19.8a1.103 1.103 0 0 0-1.1-1.1h1.1a1.103 1.103 0 0 1 1.1 1.1z" fill="#FFC477"/><path d="M6.05 10.45v5.5L4.4 14.3l-1.65 1.65v-5.5h3.3z" fill="#FF7956"/><path d="M6.05 10.45v5.5l-1.1-1.1v-4.4h1.1z" fill="#FF6243"/><path d="M2.75 19.25H8.8v4.4H2.75v-4.4z" fill="#57A4FF"/><path d="M23.1 5.5H9.9a1.1 1.1 0 0 0-1.1 1.1v19.8a1.1 1.1 0 0 0 1.1 1.1h13.2a1.1 1.1 0 0 0 1.1-1.1V6.6a1.1 1.1 0 0 0-1.1-1.1z" fill="#FFDAAA"/><path d="M24.2 6.6v19.8a1.103 1.103 0 0 1-1.1 1.1H22a1.103 1.103 0 0 0 1.1-1.1V6.6A1.103 1.103 0 0 0 22 5.5h1.1a1.103 1.103 0 0 1 1.1 1.1z" fill="#FFC477"/><path d="M14.3 5.5V11l-1.65-1.65L11 11V5.5h3.3z" fill="#FF7956"/><path d="M14.3 5.5V11l-1.1-1.1V5.5h1.1z" fill="#FF6243"/><path d="M11 14.3h6.05v4.4H11v-4.4z" fill="#57A4FF"/><path d="M31.35.55h-13.2a1.1 1.1 0 0 0-1.1 1.1v19.8a1.1 1.1 0 0 0 1.1 1.1h13.2a1.1 1.1 0 0 0 1.1-1.1V1.65a1.1 1.1 0 0 0-1.1-1.1z" fill="#FFDAAA"/><path d="M32.45 1.65v19.8a1.103 1.103 0 0 1-1.1 1.1h-1.1a1.103 1.103 0 0 0 1.1-1.1V1.65a1.103 1.103 0 0 0-1.1-1.1h1.1a1.103 1.103 0 0 1 1.1 1.1z" fill="#FFC477"/><path d="M19.25 9.35h11v4.4h-11v-4.4z" fill="#57A4FF"/><path d="M24.75 2.75h5.5v3.3h-5.5v-3.3z" fill="#00D7DF"/><path d="M22.55.55v5.5L20.9 4.4l-1.65 1.65V.55h3.3z" fill="#FF7956"/><path d="M22.55.55v5.5l-1.1-1.1V.55h1.1z" fill="#FF6243"/><path d="M10.45 22.55h2.2v1.1h-2.2v-1.1zm0 2.2h5.5v1.1h-5.5v-1.1zm6.6 0h5.5v1.1h-5.5v-1.1z" fill="#000"/><path d="M31.35 0h-13.2a1.65 1.65 0 0 0-1.65 1.65v3.3H9.9A1.65 1.65 0 0 0 8.25 6.6v3.3h-6.6A1.65 1.65 0 0 0 0 11.55v19.8A1.65 1.65 0 0 0 1.65 33h13.2a1.65 1.65 0 0 0 1.65-1.65v-3.3h6.6a1.65 1.65 0 0 0 1.65-1.65v-3.3h6.6A1.65 1.65 0 0 0 33 21.45V1.65A1.65 1.65 0 0 0 31.35 0zM19.8 1.1H22v3.622l-.711-.71a.55.55 0 0 0-.778 0l-.711.71V1.1zm-3.3 17.05h-4.95v-3.3h4.95v3.3zm-4.95-12.1h2.2v3.622l-.711-.71a.55.55 0 0 0-.778 0l-.711.71V6.05zM8.25 23.1H3.3v-3.3h4.95v3.3zM3.3 11h2.2v3.622l-.711-.71a.55.55 0 0 0-.778 0l-.711.71V11zm12.1 20.35a.55.55 0 0 1-.55.55H1.65a.55.55 0 0 1-.55-.55v-19.8a.55.55 0 0 1 .55-.55h.55v4.95a.55.55 0 0 0 .939.389L4.4 15.078l1.261 1.26a.55.55 0 0 0 .939-.388V11h1.65v7.7h-5.5a.55.55 0 0 0-.55.55v4.4a.55.55 0 0 0 .55.55h5.5v1.1H2.2v1.1h6.05c.001.407.154.8.429 1.1H5.5v1.1h8.8v-.55h1.1v3.3zm8.25-4.95a.55.55 0 0 1-.55.55H9.9a.55.55 0 0 1-.55-.55V6.6a.55.55 0 0 1 .55-.55h.55V11a.55.55 0 0 0 .939.389l1.261-1.261 1.261 1.26A.551.551 0 0 0 14.85 11V6.05h1.65v7.7H11a.55.55 0 0 0-.55.55v4.4a.55.55 0 0 0 .55.55h5.5v1.1h-6.05v1.1h6.05c.001.407.154.8.429 1.1H13.75v1.1h8.8v-.55h1.1v3.3zm8.25-4.95a.55.55 0 0 1-.55.55h-13.2a.55.55 0 0 1-.55-.55V1.65a.55.55 0 0 1 .55-.55h.55v4.95a.55.55 0 0 0 .939.389L20.9 5.178l1.261 1.26a.55.55 0 0 0 .939-.388V1.1h8.25a.55.55 0 0 1 .55.55v19.8z" fill="#000"/><path d="M30.25 2.2h-5.5a.55.55 0 0 0-.55.55v3.3a.55.55 0 0 0 .55.55h5.5a.55.55 0 0 0 .55-.55v-3.3a.55.55 0 0 0-.55-.55zm-.55 3.3h-4.4V3.3h4.4v2.2zm.55 3.3h-11a.55.55 0 0 0-.55.55v4.4a.55.55 0 0 0 .55.55h11a.55.55 0 0 0 .55-.55v-4.4a.55.55 0 0 0-.55-.55zm-.55 4.4h-9.9V9.9h9.9v3.3zm-11 2.2h8.25v1.1H18.7v-1.1zm9.35 0h2.75v1.1h-2.75v-1.1zm-9.35 2.2h2.2v1.1h-2.2v-1.1zm3.3 0h8.8v1.1H22v-1.1zm-3.3 2.2h5.5v1.1h-5.5v-1.1zm6.6 0h5.5v1.1h-5.5v-1.1zM2.2 27.5h2.2v1.1H2.2v-1.1zm0 2.2h5.5v1.1H2.2v-1.1zm6.6 0h5.5v1.1H8.8v-1.1z" fill="#000"/></svg>