<svg width="35" height="33" viewBox="0 0 35 33" fill="none" xmlns="http://www.w3.org/2000/svg"><path d="M33.806 14.85v16.5c-.001.291-.12.57-.33.777a1.146 1.146 0 0 1-.795.323H2.303c-.298 0-.583-.117-.794-.323a1.091 1.091 0 0 1-.33-.777v-16.5c0-.291.119-.57.33-.777a1.14 1.14 0 0 1 .794-.323h11.42a5.048 5.048 0 0 0 1.704 1.219 5.151 5.151 0 0 0 4.13 0c.65-.285 1.23-.7 1.704-1.219h11.42c.298 0 .583.117.794.323.21.206.33.486.33.777z" fill="#57A4FF"/><path d="M33.806 1.65v4.4c-.001.292-.12.571-.33.777a1.146 1.146 0 0 1-.795.323h-.563l-2.813 2.2.563-2.2H28.18c-.298 0-.584-.117-.794-.323a1.091 1.091 0 0 1-.33-.777v-4.4c0-.291.119-.57.33-.777A1.14 1.14 0 0 1 28.18.55h4.5c.299.001.584.117.795.323.211.207.33.486.33.777zm-3.376 24.2h-7.425a5.381 5.381 0 0 0-.052-2.415 5.454 5.454 0 0 0-1.105-2.16 5.61 5.61 0 0 0-1.946-1.49 5.733 5.733 0 0 0-4.82 0 5.61 5.61 0 0 0-1.946 1.49 5.454 5.454 0 0 0-1.105 2.16 5.381 5.381 0 0 0-.052 2.415H4.553a9.245 9.245 0 0 1 2.801-6.611 9.675 9.675 0 0 1 6.763-2.739h6.75a9.67 9.67 0 0 1 6.762 2.739 9.245 9.245 0 0 1 2.801 6.611z" fill="#FF7956"/><path d="M28.18 30.25c.622 0 1.125-.492 1.125-1.1 0-.607-.503-1.1-1.125-1.1-.621 0-1.125.493-1.125 1.1 0 .608.504 1.1 1.125 1.1z" fill="#FFEB99"/><path d="M24.242 8.8v.55c0 .291-.12.57-.33.777a1.144 1.144 0 0 1-.795.323h-.562V7.7h.562c.298 0 .584.117.795.323.21.206.33.485.33.777z" fill="#FFC477"/><path d="M24.242 4.95v1.1L22.555 7.7V6.05L16.367 4.4l-3.938 1.65V7.7l-1.688-1.65v-1.1a4.35 4.35 0 0 1 1.319-3.11A4.553 4.553 0 0 1 15.242.55h4.5c1.194 0 2.338.464 3.182 1.289a4.35 4.35 0 0 1 1.318 3.111z" fill="#C0AB91"/><path d="M23.117 24.75a5.353 5.353 0 0 1-.894 2.976 5.577 5.577 0 0 1-2.036 1.851 5.727 5.727 0 0 1-5.39 0 5.577 5.577 0 0 1-2.036-1.852A5.379 5.379 0 0 1 12 23.57c.17-.75.498-1.457.964-2.076a5.587 5.587 0 0 1 1.742-1.515 5.747 5.747 0 0 1 4.54-.448 5.657 5.657 0 0 1 2.018 1.144 5.507 5.507 0 0 1 1.369 1.846c.32.702.485 1.461.485 2.23z" fill="#FFEB99"/><path d="M22.555 7.7v2.75a4.895 4.895 0 0 1-1.483 3.5 5.122 5.122 0 0 1-3.58 1.45 5.122 5.122 0 0 1-3.58-1.45 4.895 4.895 0 0 1-1.483-3.5v-4.4l3.938-1.65 6.188 1.65V7.7z" fill="#FFDAAA"/><path d="M20.867 24.75l-5.625 2.75V22l5.625 2.75z" fill="#FF7956"/><path d="M12.43 7.7v2.75h-.563a1.142 1.142 0 0 1-.795-.323 1.09 1.09 0 0 1-.33-.777V8.8c0-.292.12-.571.33-.777a1.14 1.14 0 0 1 .795-.323h.562z" fill="#FFC477"/><path d="M7.929 3.85v4.4c-.001.291-.12.57-.33.777a1.146 1.146 0 0 1-.795.323H5.679l.562 2.2-3.375-2.2h-.563c-.298 0-.583-.117-.794-.323a1.091 1.091 0 0 1-.33-.777v-4.4c0-.291.119-.57.33-.777a1.14 1.14 0 0 1 .794-.323h4.5c.299 0 .584.117.795.323.211.206.33.486.33.777zm-1.125 26.4c.62 0 1.125-.492 1.125-1.1 0-.607-.504-1.1-1.125-1.1-.622 0-1.126.493-1.126 1.1 0 .608.504 1.1 1.126 1.1z" fill="#FFEB99"/><path d="M32.68 13.2H22.357a5.359 5.359 0 0 0 .731-2.2h.03a1.71 1.71 0 0 0 1.194-.483c.316-.31.494-.73.494-1.167V8.8c0-.324-.098-.64-.28-.91a1.679 1.679 0 0 0-.747-.608l.862-.843a.544.544 0 0 0 .165-.389v-1.1a4.9 4.9 0 0 0-1.485-3.499A5.128 5.128 0 0 0 19.742 0h-4.5a5.128 5.128 0 0 0-3.579 1.451A4.9 4.9 0 0 0 10.18 4.95v1.1c0 .146.06.286.165.389l.862.843a1.679 1.679 0 0 0-.747.608 1.62 1.62 0 0 0-.28.91v.55c0 .438.178.857.494 1.167.317.31.746.483 1.194.483h.028c.08.776.33 1.526.732 2.2H2.303a1.71 1.71 0 0 0-1.193.483c-.316.31-.494.73-.494 1.167v16.5c0 .438.178.857.494 1.167.317.31.746.483 1.193.483h30.378a1.71 1.71 0 0 0 1.193-.483c.316-.31.494-.73.494-1.167v-16.5c0-.438-.178-.857-.494-1.167a1.707 1.707 0 0 0-1.194-.483zm-15.188 1.65a4.558 4.558 0 0 1-3.18-1.29 4.356 4.356 0 0 1-1.32-3.11V6.412l3.416-1.43 5.584 1.488v3.98a4.356 4.356 0 0 1-1.32 3.11 4.558 4.558 0 0 1-3.18 1.29zm6.188-5.5c0 .146-.06.286-.165.389a.57.57 0 0 1-.398.161V8.25a.57.57 0 0 1 .398.161.544.544 0 0 1 .165.389v.55zm-12.376-4.4c.001-1.02.417-2 1.155-2.72a3.989 3.989 0 0 1 2.783-1.13h4.5a3.989 3.989 0 0 1 2.783 1.13 3.812 3.812 0 0 1 1.155 2.72v.872l-.563.55V6.05c0-.12-.04-.238-.115-.334a.563.563 0 0 0-.3-.197l-6.187-1.65a.575.575 0 0 0-.37.026l-3.938 1.65a.543.543 0 0 0-.34.505v.322l-.563-.55V4.95zm0 4.4V8.8c0-.146.06-.286.165-.389a.569.569 0 0 1 .398-.161V9.9a.569.569 0 0 1-.398-.161.544.544 0 0 1-.165-.389zm21.94 22c0 .146-.06.286-.166.389a.569.569 0 0 1-.398.161H2.304a.569.569 0 0 1-.397-.161.544.544 0 0 1-.165-.389v-16.5c0-.146.06-.286.165-.389a.569.569 0 0 1 .397-.161h11.179a5.616 5.616 0 0 0 1.834 1.22 5.72 5.72 0 0 0 4.351 0 5.616 5.616 0 0 0 1.835-1.22h11.179c.149 0 .292.058.397.161a.544.544 0 0 1 .165.389v16.5zM28.743 2.2h3.375v1.1h-3.375V2.2zm0 2.2h3.375v1.1h-3.375V4.4z" fill="#000"/><path d="M32.68 0h-4.5c-.447 0-.877.174-1.193.483-.316.31-.494.73-.494 1.167v4.4c0 .438.178.857.494 1.167.317.31.746.483 1.193.483h.967l-.387 1.517a.538.538 0 0 0 .023.336.55.55 0 0 0 .219.26.572.572 0 0 0 .655-.033l2.659-2.08h.365c.447 0 .877-.174 1.193-.483.316-.31.494-.73.494-1.167v-4.4c0-.438-.178-.857-.494-1.167A1.707 1.707 0 0 0 32.681 0zm.563 6.05c0 .146-.06.286-.165.389a.57.57 0 0 1-.397.161h-.563a.57.57 0 0 0-.352.12l-1.511 1.182.159-.619a.537.537 0 0 0-.103-.472.56.56 0 0 0-.443-.211H28.18a.57.57 0 0 1-.398-.161.544.544 0 0 1-.164-.389v-4.4c0-.146.059-.286.165-.389a.57.57 0 0 1 .397-.161h4.5a.57.57 0 0 1 .398.161.544.544 0 0 1 .165.389v4.4zM2.866 4.4h3.375v1.1H2.866V4.4zm0 2.2h3.375v1.1H2.866V6.6z" fill="#000"/><path d="M2.303 9.9h.394l3.234 2.108a.572.572 0 0 0 .839-.266.538.538 0 0 0 .018-.325L6.4 9.9h.405c.447 0 .877-.174 1.193-.483.316-.31.494-.73.494-1.167v-4.4c0-.437-.178-.857-.494-1.167A1.707 1.707 0 0 0 6.804 2.2h-4.5a1.71 1.71 0 0 0-1.194.483c-.316.31-.494.73-.494 1.167v4.4c0 .438.178.857.494 1.167.317.31.746.483 1.193.483zm-.562-6.05c0-.146.06-.286.165-.389a.57.57 0 0 1 .397-.16h4.5a.57.57 0 0 1 .398.16.544.544 0 0 1 .165.39v4.4c0 .145-.06.285-.165.388a.57.57 0 0 1-.397.161H5.679a.573.573 0 0 0-.444.212.545.545 0 0 0-.102.471l.21.82-2.165-1.41a.575.575 0 0 0-.312-.093h-.563a.57.57 0 0 1-.397-.16.544.544 0 0 1-.165-.39v-4.4zm19.378 20.408l-5.626-2.75a.573.573 0 0 0-.743.224.54.54 0 0 0-.07.268v5.5a.54.54 0 0 0 .265.47.573.573 0 0 0 .548.025l5.626-2.75a.559.559 0 0 0 .227-.203.54.54 0 0 0-.227-.782v-.002zm-5.315 2.352v-3.72l3.805 1.86-3.805 1.86z" fill="#000"/><path d="M3.991 25.85c0 .146.06.285.165.389a.569.569 0 0 0 .398.16h6.99c.123.43.294.845.511 1.238l-.817.798a.564.564 0 0 1-.4.165h-2.45a1.66 1.66 0 0 0-.737-.873 1.72 1.72 0 0 0-1.14-.204 1.697 1.697 0 0 0-1.005.563 1.628 1.628 0 0 0-.397 1.064c0 .389.14.766.397 1.063.257.298.613.497 1.005.563a1.72 1.72 0 0 0 1.14-.203c.343-.197.604-.506.737-.873h2.45a1.711 1.711 0 0 0 1.196-.486l.662-.648a6.156 6.156 0 0 0 2.14 1.647 6.294 6.294 0 0 0 5.312 0 6.156 6.156 0 0 0 2.14-1.647l.66.648a1.684 1.684 0 0 0 1.199.486h2.45c.132.367.393.676.736.873a1.72 1.72 0 0 0 1.14.203 1.696 1.696 0 0 0 1.005-.563 1.622 1.622 0 0 0-.001-2.127 1.696 1.696 0 0 0-1.004-.563 1.72 1.72 0 0 0-1.14.204 1.66 1.66 0 0 0-.737.873h-2.45a.574.574 0 0 1-.4-.165l-.818-.798c.217-.393.39-.808.512-1.237h6.99c.15 0 .293-.058.398-.161a.544.544 0 0 0 .165-.39 9.79 9.79 0 0 0-2.966-7 10.244 10.244 0 0 0-7.16-2.9h-6.75a10.256 10.256 0 0 0-7.157 2.904 9.801 9.801 0 0 0-2.969 6.997zm2.813 3.85a.572.572 0 0 1-.313-.093.539.539 0 0 1-.085-.846.567.567 0 0 1 .613-.12.56.56 0 0 1 .252.203.542.542 0 0 1-.07.695.569.569 0 0 1-.397.16zm21.376-1.1c.111 0 .22.032.313.092a.552.552 0 0 1 .239.565.546.546 0 0 1-.154.282.567.567 0 0 1-.613.119.56.56 0 0 1-.253-.203.542.542 0 0 1 .07-.694.57.57 0 0 1 .398-.161zm-10.688 1.1c-1.001 0-1.98-.29-2.813-.834a4.976 4.976 0 0 1-1.864-2.222 4.847 4.847 0 0 1-.289-2.86 4.916 4.916 0 0 1 1.386-2.534 5.1 5.1 0 0 1 2.592-1.355 5.17 5.17 0 0 1 2.925.282A5.041 5.041 0 0 1 21.702 22c.556.814.853 1.77.853 2.75a4.9 4.9 0 0 1-1.485 3.498 5.128 5.128 0 0 1-3.578 1.452zm3.375-12.65a9.118 9.118 0 0 1 6.162 2.387A8.726 8.726 0 0 1 29.85 25.3h-6.2c.017-.182.029-.364.029-.55a5.983 5.983 0 0 0-1.813-4.278 6.26 6.26 0 0 0-4.375-1.772 6.26 6.26 0 0 0-4.376 1.772 5.982 5.982 0 0 0-1.812 4.278c0 .186.012.368.029.55h-6.2a8.732 8.732 0 0 1 2.824-5.861 9.125 9.125 0 0 1 6.16-2.39h6.75z" fill="#000"/></svg>