<?xml version="1.0" encoding="UTF-8" standalone="no"?>
<svg
   xmlns:dc="http://purl.org/dc/elements/1.1/"
   xmlns:cc="http://creativecommons.org/ns#"
   xmlns:rdf="http://www.w3.org/1999/02/22-rdf-syntax-ns#"
   xmlns:svg="http://www.w3.org/2000/svg"
   xmlns="http://www.w3.org/2000/svg"
   xmlns:sodipodi="http://sodipodi.sourceforge.net/DTD/sodipodi-0.dtd"
   xmlns:inkscape="http://www.inkscape.org/namespaces/inkscape"
   width="360"
   height="158"
   viewBox="0 0 360 158"
   fill="none"
   version="1.1"
   id="svg211"
   sodipodi:docname="mission-mob-2_r.svg"
   inkscape:version="0.92.4 (5da689c313, 2019-01-14)">
  <metadata
     id="metadata215">
    <rdf:RDF>
      <cc:Work
         rdf:about="">
        <dc:format>image/svg+xml</dc:format>
        <dc:type
           rdf:resource="http://purl.org/dc/dcmitype/StillImage" />
        <dc:title></dc:title>
      </cc:Work>
    </rdf:RDF>
  </metadata>
  <sodipodi:namedview
     pagecolor="#ffffff"
     bordercolor="#666666"
     borderopacity="1"
     objecttolerance="10"
     gridtolerance="10"
     guidetolerance="10"
     inkscape:pageopacity="0"
     inkscape:pageshadow="2"
     inkscape:window-width="1920"
     inkscape:window-height="1016"
     id="namedview213"
     showgrid="true"
     inkscape:zoom="1.4142136"
     inkscape:cx="107.24068"
     inkscape:cy="61.945739"
     inkscape:window-x="1280"
     inkscape:window-y="27"
     inkscape:window-maximized="1"
     inkscape:current-layer="g54"
     showguides="true"
     inkscape:guide-bbox="true">
    <inkscape:grid
       type="xygrid"
       id="grid1041" />
    <sodipodi:guide
       position="16,87"
       orientation="1,0"
       id="guide1043"
       inkscape:locked="false" />
    <sodipodi:guide
       position="348,169"
       orientation="1,0"
       id="guide1045"
       inkscape:locked="false" />
  </sodipodi:namedview>
  <g
     clip-path="url(#a)"
     id="g54">
    <path
       d="M38.632 39.243A17.453 17.453 0 0 1 40.608 26.9c4.836-8.376 15.547-11.246 23.924-6.41a17.46 17.46 0 0 1 8.16 10.635 17.458 17.458 0 0 1-1.75 13.29 17.45 17.45 0 0 1-9.7 7.881l-22.61-13.054zm21.523-9.844l-.897-3.35-4.968 5.137 3.152.903 2.713-2.69zm.435 1.623l-8.338 8.265 11.354 2.989-3.016-11.254zm-1.926 18.102a15.982 15.982 0 0 0-6.537-7.145 15.92 15.92 0 0 0-6.492-2.082 16.08 16.08 0 0 0-2.967-.008l15.996 9.235zm7.156-.936a16 16 0 0 0 3.859-4.502 16.005 16.005 0 0 0 1.603-12.182 16.002 16.002 0 0 0-7.48-9.748A15.988 15.988 0 0 0 51.62 20.15a15.989 15.989 0 0 0-9.748 7.481 15.972 15.972 0 0 0-1.93 10.683l.693.4a17.453 17.453 0 0 1 9.42.694l6.199-6.144-4.704-1.345L60 23.18l1.35 5.035 1.888 7.049 2.428 9.062-12.116-3.189a17.442 17.442 0 0 1 7.147 9.16l.695.402a15.963 15.963 0 0 0 4.428-2.51z"
       style="mix-blend-mode:multiply"
       id="path2"
       fill="url(#b)" />
    <path
       d="M219.35 181.945l-1.501 1.121-.501.374-.5.374c-1.021-1.367-2.974-1.64-4.353-.61-1.38 1.03-1.672 2.98-.651 4.347l-.5.374-.5.374-1.502 1.121-9.967 1.266-2.072-6.948 3.743-1.251-8.516-11.402 14.01-10.465 8.517 11.402 2.261-3.234 6.075 3.959-4.043 9.198zm-1.709-11.456l-1.565 2.238-.993 1.419-1.027-1.376-7.776-10.41-12.009 8.969 7.776 10.411 1.027 1.376-1.642.548-2.59.866 1.428 4.792 8.597-1.092 1.381-1.032a4.367 4.367 0 0 1 1.506-4.986 4.367 4.367 0 0 1 5.208-.028l1.381-1.032 3.488-7.934-4.19-2.729z"
       style="mix-blend-mode:multiply"
       id="path4"
       fill="url(#c)" />
    <g
       clip-path="url(#d)"
       id="g8">
      <path
         d="M102.247 100.983l-11-6.087-4.914 8.163c-.979 1.627-3.12 2.201-4.78 1.281a3.303 3.303 0 0 1-1.609-2.04 3.304 3.304 0 0 1 .373-2.57l4.913-8.164-11-6.087 3.545-5.891 11 6.087 5.648-9.384 4.781-1.28 1.236 4.61-5.648 9.383 11.001 6.087-3.546 5.892zm-12.003-6.642l-1.5-.83-3.731 6.2 1.5.83 3.73-6.2zm-8.925 5.944a2.196 2.196 0 0 0 .824 3.074 2.399 2.399 0 0 0 3.188-.855l.59-.982-4.01-2.22-.592.983zm1.182-1.964l1.509.834 3.731-6.199-1.508-.835-3.732 6.2zm-6.678-13.269l1.976 1.093.59-.982a.6.6 0 0 1 .798-.213.55.55 0 0 1 .206.769l-.591.981 2.005 1.11.591-.982a.598.598 0 0 1 .797-.213.548.548 0 0 1 .206.768l-.59.982 2.005 1.11.59-.981v-.001a.6.6 0 0 1 .797-.214.55.55 0 0 1 .206.77v-.001l-.59.981 2.004 1.11.592-.981a.598.598 0 0 1 .797-.214.548.548 0 0 1 .205.768l-.59.982 2.005 1.11.591-.982a.598.598 0 0 1 .797-.213.548.548 0 0 1 .206.768l-.591.982 2.005 1.11.59-.982h.001a.6.6 0 0 1 .797-.214.55.55 0 0 1 .206.769l-.59.981 2.005 1.11.59-.981a.598.598 0 0 1 .797-.214c.277.153.37.497.206.768l-.591.982 2.006 1.11.59-.981a.599.599 0 0 1 .798-.214.547.547 0 0 1 .205.768l-.59.982 1.975 1.093 2.364-3.928-26.012-14.393-2.364 3.927zm22.546-8.654l-.934.25 1.175.651-.241-.9zm.823 3.074l-.17-.636-3.18-1.76-.66.177-5.403 8.977 1.508.834 4.17-6.928a.598.598 0 0 1 .797-.213.548.548 0 0 1 .206.768l-4.17 6.929 1.5.83 5.402-8.978z"
         id="path6"
         fill="#fff" />
    </g>
    <g
       clip-path="url(#e)"
       id="g12">
      <path
         d="M49.552 159.234l-11-6.087-4.914 8.163c-.979 1.627-3.12 2.201-4.781 1.281a3.304 3.304 0 0 1-1.608-2.039 3.305 3.305 0 0 1 .373-2.571l4.913-8.163-11-6.087 3.545-5.892 11 6.087 5.648-9.383 4.781-1.282 1.236 4.611-5.648 9.383 11 6.087-3.545 5.892zm-12.004-6.642l-1.5-.83-3.73 6.2 1.5.83 3.73-6.2zm-8.924 5.944a2.197 2.197 0 0 0 .824 3.074 2.4 2.4 0 0 0 3.187-.854l.591-.983-4.011-2.219-.59.982zm1.182-1.964l1.509.835 3.73-6.2-1.508-.835-3.73 6.2zm-6.678-13.268l1.976 1.093.59-.983a.6.6 0 0 1 .797-.213.549.549 0 0 1 .206.769v.001l-.59.98 2.005 1.11.591-.981a.597.597 0 0 1 .797-.214.548.548 0 0 1 .206.768l-.591.982 2.005 1.11.59-.981.001-.001a.6.6 0 0 1 .797-.214c.277.154.37.498.206.769l-.59.982 2.004 1.11.591-.982a.598.598 0 0 1 .797-.213.548.548 0 0 1 .206.768l-.591.981 2.005 1.11.592-.982a.598.598 0 0 1 .797-.213.548.548 0 0 1 .205.768v.001l-.59.981 2.005 1.11.59-.982h.001a.6.6 0 0 1 .797-.214.55.55 0 0 1 .206.769l-.591.982 2.005 1.109.591-.981a.598.598 0 0 1 .797-.214c.277.153.37.497.206.769l-.591.981 2.005 1.11.591-.981v-.001a.598.598 0 0 1 .797-.213.548.548 0 0 1 .206.768l-.59.982 1.975 1.093 2.364-3.928-26.012-14.393-2.364 3.928zm22.545-8.654l-.933.25 1.175.651-.242-.901zm.824 3.073l-.17-.636-3.181-1.76-.66.177-5.403 8.977 1.509.835 4.17-6.929a.598.598 0 0 1 .797-.213.548.548 0 0 1 .206.768l-4.17 6.929 1.5.83 5.402-8.978z"
         style="mix-blend-mode:multiply"
         id="path10"
         fill="url(#f)" />
    </g>
    <path
       d="M240.197 117.689l3.395-6.104a.582.582 0 1 1 1.018.566l-3.395 6.104a.583.583 0 0 1-1.018-.566z"
       style="mix-blend-mode:multiply"
       id="path14"
       fill="url(#g)" />
    <path
       d="M242.574 111.019l-1.132 2.034a.58.58 0 1 1-1.016-.565l1.131-2.035a.583.583 0 0 1 1.017.566z"
       style="mix-blend-mode:multiply"
       id="path16"
       fill="url(#h)" />
    <path
       d="M233.973 125.825l-1.04-1.804 5.169-.17-1.078 1.938-1.508 2.713-1.941 3.488-3.701-6.119 4.099-.046zm2.112-.743l-1.175.039.396.687.377-.004.402-.722zm-1.053 1.894l-3.107.036 1.608 2.659 1.499-2.695z"
       style="mix-blend-mode:multiply"
       id="path18"
       fill="url(#i)" />
    <path
       d="M219.5 126.159l13.015-23.4a.583.583 0 0 1 .792-.226l14.243 7.923c.28.155.382.51.225.791l-13.015 23.4a.582.582 0 0 1-.791.225l-14.243-7.922a.582.582 0 0 1-.226-.791zm1.856-.942l11.518-6.707a.53.53 0 0 0 .197-.355l-.374-13.327-11.341 20.389zm25.119-14.027l-12.633-7.027.393 13.959a1.58 1.58 0 0 1-.211.795c-.138.25-.336.466-.564.599l-12.069 7.028 12.634 7.028 12.45-22.382z"
       style="mix-blend-mode:multiply"
       id="path20"
       fill="url(#j)" />
    <path
       d="m 35.282281,110.388 c -6.79,1.819 -13.76,-2.184 -15.572,-8.941 a 12.563,12.563 0 0 1 0.006,-6.558 12.562,12.562 0 0 1 -3.284,-5.677 c -1.81,-6.758 2.225,-13.71 9.015,-15.53 4.587,-1.228 9.257,0.2 12.362,3.34 6.287,-0.906 12.392,2.99 14.07,9.249 1.677,6.26 -1.663,12.685 -7.56,15.044 a 12.732,12.732 0 0 1 -9.037,9.073 z m 3.772,-31.899 a 12.585,12.585 0 0 1 1.965,4.135 12.563,12.563 0 0 1 -0.006,6.558 12.563,12.563 0 0 1 3.284,5.676 c 0.411,1.533 0.52,3.074 0.366,4.564 a 11.106,11.106 0 0 0 4.557,-4.325 11.049,11.049 0 0 0 1.394,-4.021 c 0.207,-1.47 0.116,-2.948 -0.272,-4.394 a 10.968,10.968 0 0 0 -1.96,-3.94 11.048,11.048 0 0 0 -3.219,-2.785 11.101,11.101 0 0 0 -6.11,-1.468 z m 3.904,21.634 a 10.967,10.967 0 0 0 -0.197,-4.853 10.96,10.96 0 0 0 -2.338,-4.395 12.724,12.724 0 0 1 -8.035,7.167 c 0.502,0.422 1.043,0.8 1.62,1.13 a 11.11,11.11 0 0 0 8.446,1.098 c 0.17,-0.045 0.337,-0.094 0.504,-0.147 z m -11.874,-3.376 a 11.107,11.107 0 0 0 7.277,-5.297 c 0.332,-0.573 0.61,-1.167 0.833,-1.78 a 11.12,11.12 0 0 0 -10.562,-2.074 10.97,10.97 0 0 0 0.196,4.852 10.968,10.968 0 0 0 2.256,4.299 z m -3.793,-3.888 a 12.58,12.58 0 0 1 -0.364,-4.563 11.106,11.106 0 0 0 -5.391,6.105 c 0.5,0.42 1.037,0.796 1.612,1.125 a 11.118,11.118 0 0 0 6.109,1.467 12.582,12.582 0 0 1 -1.966,-4.134 z m 1.823,-7.037 c 3.8,-0.895 7.626,0.014 10.542,2.19 a 10.96,10.96 0 0 0 -0.173,-4.975 10.964,10.964 0 0 0 -2.256,-4.302 11.108,11.108 0 0 0 -7.276,5.298 11.11,11.11 0 0 0 -0.838,1.788 z m -8.808,7.374 a 12.722,12.722 0 0 1 6.965,-6.793 12.734,12.734 0 0 1 8.651,-8.964 11.12,11.12 0 0 0 -1.618,-1.129 11.081,11.081 0 0 0 -4.035,-1.379 11.108,11.108 0 0 0 -4.412,0.28 11.107,11.107 0 0 0 -3.961,1.964 11.082,11.082 0 0 0 -2.805,3.211 11.05,11.05 0 0 0 -1.394,4.021 10.967,10.967 0 0 0 0.271,4.394 10.959,10.959 0 0 0 2.338,4.395 z m 10.155,15.943 c 1.474,0.203 2.959,0.109 4.412,-0.28 a 11.098,11.098 0 0 0 3.96,-1.963 11.076,11.076 0 0 0 2.806,-3.212 c 0.334,-0.574 0.613,-1.171 0.837,-1.787 a 12.735,12.735 0 0 1 -11.975,-3.437 12.721,12.721 0 0 1 -9.428,-2.4 10.964,10.964 0 0 0 0.173,4.976 10.975,10.975 0 0 0 1.962,3.94 11.06,11.06 0 0 0 3.218,2.785 11.084,11.084 0 0 0 4.035,1.378 z"
       style="mix-blend-mode:multiply;fill:url(#k)"
       id="path22"
       inkscape:connector-curvature="0" />
    <path
       d="M8.342.633l6.782 5.787L18.03 8.9l6.782 5.788L5.94 38.768-12.47 23.06 8.343.633zm.102 1.761L6.71 4.264l5.934 5.062 1.653-1.937-5.853-4.995zm6.822 5.822L11.96 12.09l.968.827 3.307-3.876-.969-.826zm1.938 1.653l-1.654 1.938 5.934 5.063 1.573-2.006-5.853-4.995zM5.757 36.937l14.94-19.063-5.974-5.098-1.653 1.937a.636.636 0 1 1-.969-.826.637.637 0 0 1-.968-.827.637.637 0 0 1-.97-.827l1.654-1.938-5.974-5.097-16.475 17.754L5.757 36.937z"
       id="path24"
       fill="#fff" />
    <path
       d="M6.49 16.913l-1.148 6.059 2.968-.998-1.285 7.675-2.538-2.166-3.552-3.031-4.568-3.898L6.49 16.913zm-.35 10.306l.563-3.361-1.633.548-.31 1.636 1.38 1.177zm-2.495-2.13l1.178-6.223-5.96 2.144 4.782 4.08zM158.5 117.083l-4.848-2.636 11.446-7.545.249 5.873.349 8.222.448 10.57-16.841-8.7 9.197-5.784zm4.844-6.749l-6.004 3.957 3.002 1.632 3.154-1.983-.152-3.606zm.245 5.791l-10.463 6.58 10.982 5.674-.519-12.254z"
       id="path26"
       fill="#fff" />
    <path
       d="M136.796 132.81l-1.938.082a.958.958 0 0 1-1.008-.907.959.959 0 0 1 .928-.99l1.938-.082-.161-3.795-1.938.082a.96.96 0 0 1-1.009-.907.96.96 0 0 1 .929-.99l1.938-.082-.161-3.794-1.938.082a.96.96 0 0 1-1.009-.908.96.96 0 0 1 .929-.99l1.937-.082-.16-3.794-1.938.082a.96.96 0 0 1-1.009-.908.96.96 0 0 1 .928-.99l1.938-.082-.161-3.794-1.937.082a.96.96 0 0 1-1.009-.908.96.96 0 0 1 .928-.99l1.938-.082-.241-5.692 42.63-1.806 1.527 36.048-42.63 1.807-.241-5.692zm40.893 2.069l-1.367-32.254-38.834 1.645.16 3.795 1.857-.079a.96.96 0 0 1 1.01.908.961.961 0 0 1-.93.99l-1.856.078.161 3.795 1.856-.079a.96.96 0 0 1 1.01.908.96.96 0 0 1-.929.989l-1.857.079.161 3.795 1.856-.079a.96.96 0 0 1 1.01.908.96.96 0 0 1-.929.989l-1.857.079.161 3.795 1.857-.079a.959.959 0 0 1 1.009.908.96.96 0 0 1-.929.989l-1.856.078.16 3.795 1.857-.078a.959.959 0 0 1 1.009.908.96.96 0 0 1-.929.989l-1.856.078.161 3.795 38.834-1.645z"
       id="path28"
       fill="#fff" />
    <path
       d="M74.507 161.135l13.439-27.14a.659.659 0 0 1 .882-.299l18.88 9.349a.658.658 0 0 1 .297.883l-4.848 9.791 3.889 1.047.117-.236a.66.66 0 0 1 1.18.585l-4.674 9.44a.658.658 0 0 1-1.18-.585l.117-.236-3.19-2.46-4.85 9.793a.658.658 0 0 1-.881.298l-18.88-9.349a.657.657 0 0 1-.298-.881zm31.944-5.166l-3.885-1.045-2.551 5.149 3.186 2.458 3.25-6.562zm-24.572 8.081l1.753-3.54-5.9-2.921-1.752 3.54 5.9 2.921zm2.933-2.956l-1.753 3.54 8.26 4.09 1.753-3.54-8.26-4.09zm-6.495-4.685l15.339 7.596 10.517-21.24-15.34-7.596-10.516 21.24zm21.79.504l6.427-12.979-1.181-.585-6.426 12.98-6.428 12.98 1.18.584 6.428-12.98z"
       style="mix-blend-mode:multiply"
       id="path30"
       fill="url(#l)" />
    <path
       d="M99.224 157.21a.659.659 0 1 1 .585-1.18.659.659 0 0 1-.585 1.18z"
       style="mix-blend-mode:multiply"
       id="path32"
       fill="url(#m)" />
    <path
       d="M93.85 151.716l-2.004 4.045-4.513-6.712 4.628-.275-1.272-1.981 5.832-.472-1.114 2.248-1.558 3.147zm-4.138-1.489l1.96 2.916 1.548-3.125-3.508.209zm4.596-2.406l-1.325.107.485.756.425-.025.415-.838z"
       style="mix-blend-mode:multiply"
       id="path34"
       fill="url(#n)" />
    <path
       d="M88.856 141.057l.584-1.18 1.18.584-.584 1.18-1.18-.584z"
       style="mix-blend-mode:multiply"
       id="path36"
       fill="url(#o)" />
    <path
       d="M85.643 147.546l.584-1.18 1.18.584-.584 1.18-1.18-.584z"
       style="mix-blend-mode:multiply"
       id="path38"
       fill="url(#p)" />
    <path
       d="M82.43 154.035l.584-1.18 1.18.584-.585 1.181-1.18-.585z"
       style="mix-blend-mode:multiply"
       id="path40"
       fill="url(#q)" />
    <path
       d="M87.15 156.373l.584-1.18 1.18.584-.585 1.18-1.18-.584z"
       style="mix-blend-mode:multiply"
       id="path42"
       fill="url(#r)" />
    <path
       d="M91.869 158.711l.585-1.18 1.18.584-.585 1.181-1.18-.585z"
       style="mix-blend-mode:multiply"
       id="path44"
       fill="url(#s)" />
    <path
       d="M98.296 145.732l.584-1.179 1.18.584-.584 1.18-1.18-.585z"
       style="mix-blend-mode:multiply"
       id="path46"
       fill="url(#t)" />
    <path
       d="M93.576 143.394l.584-1.179 1.18.584-.584 1.18-1.18-.585z"
       style="mix-blend-mode:multiply"
       id="path48"
       fill="url(#u)" />
    <path
       d="M95.083 152.221l.584-1.179 1.18.584-.584 1.18-1.18-.585z"
       style="mix-blend-mode:multiply"
       id="path50"
       fill="url(#v)" />
    <path
       d="M288.297 138.935l-3.78 1.013-1.539-5.745-6.659 1.785-1.063-3.967 6.659-1.784-1.539-5.744 3.78-1.013 1.539 5.744 6.948-1.861 1.062 3.966-6.947 1.861 1.539 5.745z"
       id="path52"
       fill="#fff" />
  </g>
  <ellipse
     cx="292.297"
     cy="133.209"
     rx="52.042999"
     ry="7.7210002"
     id="ellipse56"
     style="opacity:0.2;fill:#6b6b6b" />
  <ellipse
     cx="196.226"
     cy="133.209"
     rx="20.226"
     ry="7.7210002"
     id="ellipse58"
     style="opacity:0.2;fill:#6b6b6b" />
  <path
     d="m 195.102,77.649 v 30.974 c 0,0 -7.709,-19.77 -8.006,-20.056 -0.298,-0.286 2.356,-7.687 2.356,-7.687 z"
     id="path60"
     inkscape:connector-curvature="0"
     style="fill:#ffc289" />
  <path
     d="m 240.134,75.304 c 11.896,5.444 17.472,12.336 23.133,18.981 5.662,6.646 15.133,-12.519 14.956,-12.993 C 278.045,80.817 257.36,57.18 257.36,57.18 Z m 28.54,55.371 c 0.7,-2.954 -2.639,-6.274 -7.458,-7.416 -4.82,-1.142 -9.294,0.326 -9.994,3.28 -0.7,2.954 2.639,6.274 7.459,7.416 4.819,1.142 9.293,-0.326 9.993,-3.28 z"
     id="path62"
     inkscape:connector-curvature="0"
     style="fill:#2f2f2f" />
  <path
     d="m 282.706,134.839 c -19.101,0 -30.963,-10.42 -30.963,-27.188 0,-10.455 4.89,-15.041 9.202,-19.09 1.293,-1.213 2.517,-2.362 3.518,-3.592 -0.143,-9.905 -6.337,-11.386 -10.02,-11.386 -3.615,0 -7.835,1.48 -10.266,3.608 -2.093,1.83 -2.287,5.136 -2.476,8.333 -0.269,4.57 -0.549,9.293 -6.571,9.293 -6.205,0 -15.213,-8.258 -15.213,-21.2 0,-20.537 7.446,-37.42 21.532,-48.829 11.398,-9.236 26.84,-14.532 42.367,-14.532 7.16,0 25.524,1.287 41.342,13.234 14.967,11.295 22.55,28.16 22.55,50.127 0,20.76 -6.411,36.619 -19.05,47.147 -11.066,9.208 -26.953,14.075 -45.952,14.075 z"
     id="path64"
     inkscape:connector-curvature="0"
     style="fill:#ffffff" />
  <mask
     id="w"
     fill="#fff">
    <path
       d="M295.81 10.536c24.975 0 63.607 14.109 63.607 63.075 0 43.882-28.956 60.942-64.717 60.942-17.06 0-30.676-8.859-30.676-26.902 0-13.549 8.384-17.197 12.724-22.585-.091-8.881-5.061-11.77-10.311-11.77-4.009 0-8.178 1.688-10.454 3.678-5.25 4.592.983 17.552-8.859 17.552-6.234 0-14.927-8.201-14.927-20.915.006-45.523 35.933-63.075 63.613-63.075zm0-.572c-15.59 0-31.094 5.319-42.544 14.595-14.154 11.467-21.635 28.43-21.635 49.052 0 5.874 1.865 11.41 5.256 15.584 2.997 3.695 6.828 5.903 10.248 5.903 6.291 0 6.594-5.079 6.857-9.563.183-3.14.378-6.382 2.38-8.132 1.944-1.704 5.93-3.535 10.076-3.535 3.569 0 9.551 1.436 9.734 10.998-.984 1.19-2.173 2.305-3.426 3.483-4.357 4.09-9.293 8.721-9.293 19.296 0 8.681 3.163 15.83 9.15 20.663 5.519 4.455 13.16 6.811 22.099 6.811 19.067 0 35.023-4.89 46.135-14.149C353.555 110.384 360 94.451 360 73.606c0-11.61-2.179-21.961-6.485-30.763-3.792-7.755-9.237-14.35-16.18-19.593-15.898-11.993-34.336-13.286-41.525-13.286z"
       id="path66" />
  </mask>
  <path
     d="m 283.81,10.536 c 24.975,0 63.607,14.109 63.607,63.075 0,43.882 -28.956,60.942 -64.717,60.942 -17.06,0 -30.676,-8.859 -30.676,-26.902 0,-13.549 8.384,-17.197 12.724,-22.585 -0.091,-8.881 -5.061,-11.77 -10.311,-11.77 -4.009,0 -8.178,1.688 -10.454,3.678 -5.25,4.592 0.983,17.552 -8.859,17.552 -6.234,0 -14.927,-8.201 -14.927,-20.915 0.006,-45.523 35.933,-63.075 63.613,-63.075 z m 0,-0.572 c -15.59,0 -31.094,5.319 -42.544,14.595 -14.154,11.467 -21.635,28.43 -21.635,49.052 0,5.874 1.865,11.41 5.256,15.584 2.997,3.695 6.828,5.903 10.248,5.903 6.291,0 6.594,-5.079 6.857,-9.563 0.183,-3.14 0.378,-6.382 2.38,-8.132 1.944,-1.704 5.93,-3.535 10.076,-3.535 3.569,0 9.551,1.436 9.734,10.998 -0.984,1.19 -2.173,2.305 -3.426,3.483 -4.357,4.09 -9.293,8.721 -9.293,19.296 0,8.681 3.163,15.83 9.15,20.663 5.519,4.455 13.16,6.811 22.099,6.811 19.067,0 35.023,-4.89 46.135,-14.149 C 341.555,110.384 348,94.451 348,73.606 348,61.996 345.821,51.645 341.515,42.843 337.723,35.088 332.278,28.493 325.335,23.25 309.437,11.257 290.999,9.964 283.81,9.964 Z"
     id="path69"
     inkscape:connector-curvature="0"
     style="fill:#0064da" />
  <path
     d="m 276.748,85.066 0.779,0.628 0.225,-0.28 -0.004,-0.358 z m -20.765,-8.092 -0.659,-0.753 z m -23.786,-3.363 h -1 z m 21.069,-49.052 0.63,0.777 z m -16.379,64.636 0.776,-0.63 z m 17.105,-3.66 0.999,0.059 z m 2.38,-8.132 0.658,0.753 0.001,-0.001 z m 19.81,7.463 0.771,0.637 0.236,-0.285 -0.007,-0.371 -1,0.02 z m -3.426,3.483 0.685,0.73 0.001,-0.002 z m -0.143,39.959 0.629,-0.778 z m 68.234,-7.338 -0.64,-0.768 z m 12.668,-78.127 -0.899,0.44 z m -16.18,-19.593 0.603,-0.798 z M 295.81,11.536 c 12.327,0 28.001,3.487 40.566,12.973 12.521,9.453 22.041,24.922 22.041,49.102 h 2 c 0,-24.785 -9.797,-40.854 -22.836,-50.698 C 324.587,13.103 308.457,9.536 295.81,9.536 Z m 62.607,62.075 c 0,21.705 -7.15,36.634 -18.588,46.158 -11.469,9.551 -27.39,13.784 -45.129,13.784 v 2 c 18.022,0 34.46,-4.297 46.409,-14.247 11.98,-9.976 19.308,-25.518 19.308,-47.695 z M 294.7,133.553 c -8.37,0 -15.796,-2.174 -21.107,-6.463 -5.284,-4.266 -8.569,-10.696 -8.569,-19.439 h -2 c 0,9.299 3.522,16.32 9.312,20.995 5.762,4.652 13.675,6.907 22.364,6.907 z m -29.676,-25.902 c 0,-13.078 7.868,-16.205 12.503,-21.957 l -1.557,-1.255 c -4.047,5.022 -12.946,9.193 -12.946,23.212 z m 12.724,-22.595 c -0.047,-4.625 -1.371,-7.857 -3.529,-9.927 -2.149,-2.061 -4.983,-2.832 -7.782,-2.832 v 2 c 2.451,0 4.727,0.673 6.398,2.276 1.663,1.595 2.87,4.247 2.913,8.504 z m -11.311,-12.76 c -4.24,0 -8.646,1.768 -11.113,3.925 l 1.317,1.506 c 2.086,-1.824 6.018,-3.43 9.796,-3.43 v -2 z m -11.113,3.925 c -1.572,1.375 -2.221,3.324 -2.543,5.27 -0.315,1.904 -0.348,4.103 -0.502,5.895 -0.163,1.9 -0.461,3.426 -1.182,4.478 -0.655,0.955 -1.764,1.662 -3.973,1.662 v 2 c 2.711,0 4.514,-0.914 5.623,-2.532 1.043,-1.522 1.36,-3.523 1.525,-5.436 0.174,-2.022 0.182,-3.924 0.482,-5.741 0.294,-1.776 0.834,-3.17 1.887,-4.09 z m -8.2,17.305 c -2.714,0 -6.187,-1.822 -9.024,-5.32 -2.81,-3.464 -4.903,-8.47 -4.903,-14.595 h -2 c 0,6.59 2.254,12.04 5.349,15.855 3.068,3.78 7.058,6.06 10.578,6.06 z M 233.197,73.61 c 0.003,-22.465 8.854,-37.946 21.058,-47.832 12.236,-9.91 27.905,-14.243 41.555,-14.243 v -2 c -14.03,0 -30.165,4.444 -42.814,14.69 C 240.315,34.496 231.2,50.552 231.197,73.61 Z M 295.81,8.964 c -15.805,0 -31.535,5.389 -43.173,14.818 l 1.259,1.554 c 11.26,-9.123 26.539,-14.372 41.914,-14.372 z m -43.173,14.818 c -14.422,11.683 -22.006,28.95 -22.006,49.83 h 2 c 0,-20.367 7.377,-37.026 21.265,-48.276 z m -22.006,49.83 c 0,6.08 1.93,11.844 5.48,16.214 l 1.552,-1.261 c -3.233,-3.98 -5.032,-9.287 -5.032,-14.954 h -2 z m 5.479,16.213 c 3.109,3.832 7.198,6.272 11.025,6.272 v -2 c -3.013,0 -6.586,-1.974 -9.472,-5.531 l -1.553,1.26 z m 11.025,6.272 c 1.707,0 3.093,-0.345 4.2,-1.004 1.113,-0.663 1.871,-1.599 2.388,-2.656 1,-2.046 1.14,-4.659 1.268,-6.843 l -1.997,-0.117 c -0.135,2.299 -0.279,4.468 -1.068,6.081 -0.378,0.774 -0.892,1.387 -1.614,1.817 -0.727,0.433 -1.738,0.722 -3.177,0.722 z m 7.856,-10.503 c 0.092,-1.589 0.184,-3.099 0.484,-4.425 0.299,-1.321 0.779,-2.335 1.555,-3.013 l -1.317,-1.506 c -1.226,1.072 -1.844,2.554 -2.188,4.077 -0.344,1.517 -0.44,3.199 -0.531,4.75 z m 2.04,-7.44 c 1.767,-1.548 5.52,-3.285 9.417,-3.285 v -2 c -4.395,0 -8.614,1.922 -10.736,3.782 l 1.319,1.504 z m 9.417,-3.285 c 1.675,0 3.802,0.34 5.516,1.697 1.675,1.325 3.131,3.758 3.218,8.32 l 2,-0.039 c -0.096,-5.001 -1.722,-8.066 -3.977,-9.85 -2.214,-1.752 -4.863,-2.129 -6.757,-2.129 v 2 z m 8.963,9.36 c -0.936,1.132 -2.076,2.203 -3.34,3.392 l 1.371,1.456 c 1.241,-1.167 2.48,-2.326 3.511,-3.574 z m -3.339,3.39 c -2.169,2.036 -4.595,4.306 -6.456,7.435 -1.875,3.154 -3.153,7.134 -3.153,12.591 h 2 c 0,-5.117 1.19,-8.74 2.872,-11.569 1.697,-2.853 3.917,-4.944 6.106,-6.998 l -1.369,-1.458 z m -9.609,20.026 c 0,8.939 3.267,16.392 9.522,21.441 l 1.257,-1.556 c -5.721,-4.617 -8.779,-11.462 -8.779,-19.885 z m 9.522,21.441 c 5.739,4.632 13.62,7.033 22.727,7.033 v -2 c -8.771,0 -16.171,-2.312 -21.47,-6.589 z m 22.727,7.033 c 19.225,0 35.433,-4.93 46.775,-14.38 l -1.28,-1.537 c -10.882,9.067 -26.587,13.917 -45.495,13.917 z m 46.775,-14.38 C 354.48,110.915 361,94.664 361,73.606 h -2 c 0,20.632 -6.371,36.248 -18.793,46.596 z M 361,73.606 c 0,-11.734 -2.202,-22.24 -6.587,-31.203 l -1.797,0.88 C 356.844,51.922 359,62.12 359,73.605 h 2 z M 354.413,42.404 C 350.552,34.506 345.005,27.79 337.938,22.452 l -1.205,1.596 c 6.818,5.15 12.161,11.621 15.883,19.234 z M 337.938,22.45 C 321.782,10.265 303.082,8.964 295.81,8.964 v 2 c 7.105,0 25.281,1.285 40.923,13.084 l 1.205,-1.597 z"
     mask="url(#w)"
     id="path71"
     inkscape:connector-curvature="0"
     transform="translate(-12)"
     style="fill:#6b6b6b" />
  <path
     d="m 312.067,108.966 c 1.619,-28.36 -20.594,-36.716 -38.683,-32.724 -3.088,0.68 -10.3,1.887 -13.468,7.337 -1.298,2.237 0.509,5.245 -0.24,6.177"
     id="path73"
     inkscape:connector-curvature="0"
     style="fill:#ffffff" />
  <path
     d="m 312.067,108.966 c 1.619,-28.36 -20.594,-36.716 -38.683,-32.724 -3.088,0.68 -10.3,1.887 -13.468,7.337 -1.298,2.237 0.509,5.245 -0.24,6.177"
     stroke-miterlimit="10"
     id="path75"
     inkscape:connector-curvature="0"
     style="stroke:#6b6b6b;stroke-linecap:round;stroke-linejoin:round;stroke-miterlimit:10" />
  <path
     d="m 264.606,88.052 c 2.173,0 3.934,-1.002 3.934,-2.237 0,-1.234 -1.761,-2.236 -3.934,-2.236 -2.173,0 -3.935,1.002 -3.935,2.237 0,1.234 1.762,2.236 3.935,2.236 z M 289.3,104.7 c -0.6,4.735 -5.25,3.214 -9.791,5.702 -3.545,1.944 -5.936,5.284 -8.612,5.284 -3.312,0 -4.742,-3.963 -2.768,-9.19 2.339,-6.2 7.383,-8.402 11.506,-8.402 6.097,0 10.146,2.814 9.665,6.606 z m -37.019,7.005 c 2.911,0.91 5.525,-2.081 5.685,-7.36 0.114,-3.729 -1.098,-6.611 -2.86,-8.698 -1.807,2.962 -3.082,6.731 -3.082,12.004 0.005,1.412 0.097,2.756 0.257,4.054 z m 32.776,25.284 c 6.159,0 11.152,-3.062 11.152,-6.84 0,-3.777 -4.993,-6.84 -11.152,-6.84 -6.159,0 -11.152,3.063 -11.152,6.84 0,3.778 4.993,6.84 11.152,6.84 z"
     id="path77"
     inkscape:connector-curvature="0"
     style="fill:#2f2f2f" />
  <path
     d="m 191.122,81.938 c 2.253,-0.778 3.98,-4.29 3.98,-4.29 h -3.98 c -4.015,5.148 -8.052,5.931 -8.052,5.931 0,0 16.282,0.71 32.215,6.892 v 44.825 l 2.602,-1.727 V 88.784 C 212.94,86.49 201.336,82.882 191.122,81.938 Z"
     id="path79"
     inkscape:connector-curvature="0"
     style="fill:#ffd1a7" />
  <path
     d="M 336.042,34.894 C 322.688,16.673 300.281,10.53 283.81,10.53 c -27.686,0 -63.607,17.551 -63.607,63.075 0,12.713 8.693,20.914 14.927,20.914 9.842,0 3.608,-12.96 8.858,-17.552 4.25,-3.717 15.11,-6.376 19.182,1.047 -1.63,-10.563 0.458,-16.837 5.627,-17.7 5.17,-0.864 8.979,5.17 8.979,5.17 -0.446,10.088 -1.847,18.083 4.924,19.439 6.766,1.355 14.887,-6.028 20.669,-15.259 5.782,-9.23 15.516,-20.33 30.391,-24.363 6.211,-1.67 5.141,-6.148 2.282,-10.408 z"
     id="path81"
     inkscape:connector-curvature="0"
     style="fill:#2f2f2f" />
  <path
     d="m 245.189,76.065 c 4.221,-2.785 11.964,-4.404 16.334,-0.212"
     stroke-miterlimit="10"
     id="path83"
     inkscape:connector-curvature="0"
     style="stroke:#ffffff;stroke-linecap:round;stroke-linejoin:round;stroke-miterlimit:10" />
  <path
     d="m 235.869,91.837 c 3.08,-1.779 3.018,-7.653 -0.139,-13.12 -3.157,-5.468 -8.213,-8.46 -11.293,-6.681 -3.08,1.778 -3.018,7.652 0.139,13.12 3.157,5.468 8.213,8.459 11.293,6.68 z m 56.773,-21.069 c 1.57,-6.627 0.038,-12.663 -3.423,-13.484 -3.461,-0.82 -7.539,3.887 -9.11,10.514 -1.57,6.626 -0.038,12.663 3.423,13.483 3.461,0.82 7.54,-3.887 9.11,-10.513 z"
     id="path85"
     inkscape:connector-curvature="0"
     style="fill:#ffaa5b" />
  <path
     d="m 286.344,53.309 c 19.347,-5.188 17.151,44.785 40.404,44.785 7.875,0 13.411,-5.965 13.411,-17.225 0,-17.838 -18.581,-40.48 -44.905,-40.48 -10.214,0 -15.259,7.813 -14.058,11.604 0.618,1.968 2.614,1.996 5.148,1.316 z"
     id="path87"
     inkscape:connector-curvature="0"
     style="fill:#2f2f2f" />
  <path
     d="m 322.968,49.906 c -7.44,-5.713 -16.928,-9.517 -27.714,-9.517 -10.214,0 -15.259,7.813 -14.058,11.604 0.618,1.968 2.62,1.99 5.148,1.31 8.544,-2.293 12.884,6.176 17.076,16.345"
     stroke-miterlimit="10"
     id="path89"
     inkscape:connector-curvature="0"
     style="stroke:#ffffff;stroke-linecap:round;stroke-linejoin:round;stroke-miterlimit:10" />
  <path
     d="m 220.295,54.79 c -2.683,3.597 -3.203,7.738 -1.173,9.253 2.036,1.516 4.655,-1.515 8.539,-3.763 4.026,-2.333 3.271,-7.83 1.172,-9.253 -4.158,-2.825 -5.862,0.166 -8.538,3.763 z"
     id="path91"
     inkscape:connector-curvature="0"
     style="fill:#2f2f2f" />
  <path
     d="m 220.718,64.42 c 1.784,-0.285 4.003,-2.436 6.937,-4.14 4.026,-2.333 3.271,-7.83 1.172,-9.253 -2.076,-1.413 -3.54,-1.367 -4.821,-0.526"
     stroke-miterlimit="10"
     id="path93"
     inkscape:connector-curvature="0"
     style="stroke:#ffffff;stroke-linecap:round;stroke-linejoin:round;stroke-miterlimit:10" />
  <path
     d="m 270.839,108.24 c -0.537,0.823 -0.446,1.979 -0.446,1.979 m -15.441,-5.456 c -0.538,0.823 -0.446,1.978 -0.446,1.978"
     stroke-miterlimit="10"
     id="path95"
     inkscape:connector-curvature="0"
     style="stroke:#ffffff;stroke-width:2;stroke-linecap:round;stroke-linejoin:round;stroke-miterlimit:10" />
  <path
     d="M 215.279,135.296 V 90.471 c -15.927,-6.183 -32.215,-6.892 -32.215,-6.892 v 45.049 c 15.933,0.618 32.215,6.668 32.215,6.668 z"
     stroke-miterlimit="10"
     id="path97"
     inkscape:connector-curvature="0"
     style="fill:#ffaa5b;stroke:#ff7a00;stroke-linecap:round;stroke-linejoin:round;stroke-miterlimit:10" />
  <path
     d="m 183.064,83.58 c 3.98,-0.618 8.052,-5.931 8.052,-5.931"
     stroke-miterlimit="10"
     id="path99"
     inkscape:connector-curvature="0"
     style="stroke:#ff7a00;stroke-linecap:round;stroke-linejoin:round;stroke-miterlimit:10" />
  <path
     d="m 201.416,121.719 c -0.12,0 -0.251,-0.017 -0.377,-0.04 l -4.215,-0.721 c -0.544,-0.091 -1.058,-0.263 -1.333,-1.338 L 190.07,97.213 c -0.058,-0.234 -0.166,-0.686 0.085,-0.995 0.098,-0.12 0.281,-0.263 0.63,-0.263 0.08,0 0.177,0.006 0.28,0.029 l 3.277,0.56 c 0.966,0.166 1.155,0.904 1.258,1.298 l 0.675,2.688 c 0.091,0.343 0.24,0.372 0.44,0.406 l 4.581,0.784 c 0.029,0.005 0.057,0.005 0.086,0.005 0.097,0 0.223,-0.028 0.257,-0.177 l 0.635,-2.54 c 0.154,-0.748 0.641,-0.908 1.018,-0.908 0.086,0 0.177,0.005 0.274,0.023 l 3.243,0.554 c 0.32,0.057 0.555,0.195 0.704,0.412 0.251,0.377 0.137,0.852 0.097,1.035 l -5.153,20.594 c -0.149,0.669 -0.492,1.001 -1.041,1.001 z m -3.797,-15.493 1.441,6.034 1.252,-5.468 c 0.029,-0.108 0.035,-0.171 0.029,-0.194 l -2.739,-0.463 c 0,0.028 0.005,0.057 0.017,0.091 z"
     id="path101"
     inkscape:connector-curvature="0"
     style="fill:#ffffff" />
  <path
     d="m 190.784,96.236 c 0.069,0 0.143,0.005 0.235,0.022 l 3.277,0.56 c 0.801,0.138 0.938,0.727 1.035,1.116 l 0.669,2.659 c 0.132,0.492 0.4,0.572 0.669,0.618 l 4.581,0.784 c 0.046,0.005 0.092,0.011 0.137,0.011 0.269,0 0.475,-0.149 0.532,-0.4 l 0.635,-2.534 c 0.057,-0.286 0.2,-0.692 0.744,-0.692 0.068,0 0.143,0.006 0.228,0.023 l 3.243,0.555 c 0.772,0.131 0.635,0.812 0.566,1.098 l -5.153,20.588 c -0.154,0.635 -0.44,0.784 -0.772,0.784 -0.108,0 -0.217,-0.017 -0.331,-0.035 l -4.215,-0.72 c -0.504,-0.086 -0.87,-0.218 -1.104,-1.127 l -5.416,-22.401 c -0.057,-0.252 -0.223,-0.91 0.44,-0.91 z m 8.287,16.619 c 0.086,0 0.149,-0.092 0.212,-0.297 l 1.304,-5.697 c 0.034,-0.125 0.131,-0.48 -0.235,-0.543 l -2.773,-0.475 c -0.029,-0.005 -0.052,-0.005 -0.075,-0.005 -0.28,0 -0.188,0.337 -0.16,0.469 l 1.47,6.17 c 0.069,0.246 0.131,0.355 0.234,0.372 0.006,0.006 0.018,0.006 0.023,0.006 z m -8.287,-17.191 c -0.463,0 -0.72,0.206 -0.857,0.377 -0.332,0.423 -0.201,0.984 -0.138,1.224 l 5.422,22.418 c 0.286,1.121 0.835,1.43 1.561,1.556 l 4.215,0.721 c 0.126,0.022 0.269,0.045 0.429,0.045 0.475,0 1.087,-0.211 1.327,-1.218 l 5.147,-20.583 c 0.051,-0.223 0.183,-0.789 -0.137,-1.263 -0.132,-0.2 -0.395,-0.452 -0.892,-0.538 l -3.243,-0.555 a 2.234,2.234 0 0 0 -0.326,-0.028 c -0.395,0 -1.092,0.148 -1.304,1.15 l -0.623,2.475 h -0.029 l -4.581,-0.783 c -0.166,-0.029 -0.166,-0.029 -0.212,-0.206 l -0.663,-2.648 -0.006,-0.034 c -0.103,-0.395 -0.337,-1.31 -1.487,-1.504 l -3.277,-0.56 a 0.935,0.935 0 0 0 -0.326,-0.046 z m 8.264,15.344 -1.075,-4.518 2.03,0.349 z"
     id="path103"
     inkscape:connector-curvature="0"
     style="fill:#ff7a00" />
  <defs
     id="defs209">
    <linearGradient
       id="b"
       x1="44.11"
       y1="56.416"
       x2="45.127"
       y2="15.464"
       gradientUnits="userSpaceOnUse">
      <stop
         stop-color="#FFC000"
         id="stop105" />
      <stop
         offset="1"
         stop-color="#FF8A00"
         id="stop107" />
    </linearGradient>
    <linearGradient
       id="c"
       x1="225.684"
       y1="176.467"
       x2="192.759"
       y2="186.603"
       gradientUnits="userSpaceOnUse">
      <stop
         stop-color="#FFC000"
         id="stop110" />
      <stop
         offset="1"
         stop-color="#FF8A00"
         id="stop112" />
    </linearGradient>
    <linearGradient
       id="f"
       x1="27.85"
       y1="164.686"
       x2="28.329"
       y2="132.999"
       gradientUnits="userSpaceOnUse">
      <stop
         stop-color="#FFC000"
         id="stop115" />
      <stop
         offset="1"
         stop-color="#FF8A00"
         id="stop117" />
    </linearGradient>
    <linearGradient
       id="g"
       x1="239.99"
       y1="118.119"
       x2="244.322"
       y2="118.362"
       gradientUnits="userSpaceOnUse">
      <stop
         stop-color="#FFC000"
         id="stop120" />
      <stop
         offset="1"
         stop-color="#FF8A00"
         id="stop122" />
    </linearGradient>
    <linearGradient
       id="h"
       x1="240.189"
       y1="112.971"
       x2="243.199"
       y2="111.911"
       gradientUnits="userSpaceOnUse">
      <stop
         stop-color="#FFC000"
         id="stop125" />
      <stop
         offset="1"
         stop-color="#FF8A00"
         id="stop127" />
    </linearGradient>
    <linearGradient
       id="i"
       x1="228.339"
       y1="128.939"
       x2="236.633"
       y2="122.674"
       gradientUnits="userSpaceOnUse">
      <stop
         stop-color="#FFC000"
         id="stop130" />
      <stop
         offset="1"
         stop-color="#FF8A00"
         id="stop132" />
    </linearGradient>
    <linearGradient
       id="j"
       x1="219.763"
       y1="126.555"
       x2="244.814"
       y2="108.575"
       gradientUnits="userSpaceOnUse">
      <stop
         stop-color="#FFC000"
         id="stop135" />
      <stop
         offset="1"
         stop-color="#FF8A00"
         id="stop137" />
    </linearGradient>
    <linearGradient
       id="k"
       x1="25.32"
       y1="112.986"
       x2="27.435"
       y2="68.874"
       gradientUnits="userSpaceOnUse">
      <stop
         stop-color="#FFC000"
         id="stop140" />
      <stop
         offset="1"
         stop-color="#FF8A00"
         id="stop142" />
    </linearGradient>
    <linearGradient
       id="l"
       x1="74.997"
       y1="161.652"
       x2="100.818"
       y2="135.794"
       gradientUnits="userSpaceOnUse">
      <stop
         stop-color="#FFC000"
         id="stop145" />
      <stop
         offset="1"
         stop-color="#FF8A00"
         id="stop147" />
    </linearGradient>
    <linearGradient
       id="m"
       x1="98.67"
       y1="156.916"
       x2="99.716"
       y2="155.785"
       gradientUnits="userSpaceOnUse">
      <stop
         stop-color="#FFC000"
         id="stop150" />
      <stop
         offset="1"
         stop-color="#FF8A00"
         id="stop152" />
    </linearGradient>
    <linearGradient
       id="n"
       x1="85.766"
       y1="152.598"
       x2="94.797"
       y2="145.072"
       gradientUnits="userSpaceOnUse">
      <stop
         stop-color="#FFC000"
         id="stop155" />
      <stop
         offset="1"
         stop-color="#FF8A00"
         id="stop157" />
    </linearGradient>
    <linearGradient
       id="o"
       x1="88.892"
       y1="141.055"
       x2="89.938"
       y2="139.924"
       gradientUnits="userSpaceOnUse">
      <stop
         stop-color="#FFC000"
         id="stop160" />
      <stop
         offset="1"
         stop-color="#FF8A00"
         id="stop162" />
    </linearGradient>
    <linearGradient
       id="p"
       x1="85.679"
       y1="147.544"
       x2="86.725"
       y2="146.413"
       gradientUnits="userSpaceOnUse">
      <stop
         stop-color="#FFC000"
         id="stop165" />
      <stop
         offset="1"
         stop-color="#FF8A00"
         id="stop167" />
    </linearGradient>
    <linearGradient
       id="q"
       x1="82.465"
       y1="154.034"
       x2="83.512"
       y2="152.902"
       gradientUnits="userSpaceOnUse">
      <stop
         stop-color="#FFC000"
         id="stop170" />
      <stop
         offset="1"
         stop-color="#FF8A00"
         id="stop172" />
    </linearGradient>
    <linearGradient
       id="r"
       x1="87.185"
       y1="156.372"
       x2="88.232"
       y2="155.24"
       gradientUnits="userSpaceOnUse">
      <stop
         stop-color="#FFC000"
         id="stop175" />
      <stop
         offset="1"
         stop-color="#FF8A00"
         id="stop177" />
    </linearGradient>
    <linearGradient
       id="s"
       x1="91.905"
       y1="158.71"
       x2="92.952"
       y2="157.578"
       gradientUnits="userSpaceOnUse">
      <stop
         stop-color="#FFC000"
         id="stop180" />
      <stop
         offset="1"
         stop-color="#FF8A00"
         id="stop182" />
    </linearGradient>
    <linearGradient
       id="t"
       x1="98.332"
       y1="145.731"
       x2="99.378"
       y2="144.6"
       gradientUnits="userSpaceOnUse">
      <stop
         stop-color="#FFC000"
         id="stop185" />
      <stop
         offset="1"
         stop-color="#FF8A00"
         id="stop187" />
    </linearGradient>
    <linearGradient
       id="u"
       x1="93.612"
       y1="143.393"
       x2="94.659"
       y2="142.262"
       gradientUnits="userSpaceOnUse">
      <stop
         stop-color="#FFC000"
         id="stop190" />
      <stop
         offset="1"
         stop-color="#FF8A00"
         id="stop192" />
    </linearGradient>
    <linearGradient
       id="v"
       x1="95.119"
       y1="152.22"
       x2="96.165"
       y2="151.089"
       gradientUnits="userSpaceOnUse">
      <stop
         stop-color="#FFC000"
         id="stop195" />
      <stop
         offset="1"
         stop-color="#FF8A00"
         id="stop197" />
    </linearGradient>
    <clipPath
       id="a">
      <path
         fill="#fff"
         transform="rotate(180 147.5 79)"
         d="M0 0h295v158H0z"
         id="path200" />
    </clipPath>
    <clipPath
       id="d">
      <path
         fill="#fff"
         transform="scale(1 -1) rotate(-75 -16.198 -87.998)"
         d="M0 0h27v28H0z"
         id="path203" />
    </clipPath>
    <clipPath
       id="e">
      <path
         fill="#fff"
         transform="scale(1 -1) rotate(-75 -80.503 -82.787)"
         d="M0 0h27v28H0z"
         id="path206" />
    </clipPath>
  </defs>
</svg>
