<svg width="360" height="158" viewBox="0 0 360 158" fill="none" xmlns="http://www.w3.org/2000/svg"><g clip-path="url(#a)"><path d="M38.632 39.243A17.453 17.453 0 0 1 40.608 26.9c4.836-8.376 15.547-11.246 23.924-6.41a17.46 17.46 0 0 1 8.16 10.635 17.458 17.458 0 0 1-1.75 13.29 17.45 17.45 0 0 1-9.7 7.881l-22.61-13.054zm21.523-9.844l-.897-3.35-4.968 5.137 3.152.903 2.713-2.69zm.435 1.623l-8.338 8.265 11.354 2.989-3.016-11.254zm-1.926 18.102a15.982 15.982 0 0 0-6.537-7.145 15.92 15.92 0 0 0-6.492-2.082 16.08 16.08 0 0 0-2.967-.008l15.996 9.235zm7.156-.936a16 16 0 0 0 3.859-4.502 16.005 16.005 0 0 0 1.603-12.182 16.002 16.002 0 0 0-7.48-9.748A15.988 15.988 0 0 0 51.62 20.15a15.989 15.989 0 0 0-9.748 7.481 15.972 15.972 0 0 0-1.93 10.683l.693.4a17.453 17.453 0 0 1 9.42.694l6.199-6.144-4.704-1.345L60 23.18l1.35 5.035 1.888 7.049 2.428 9.062-12.116-3.189a17.442 17.442 0 0 1 7.147 9.16l.695.402a15.963 15.963 0 0 0 4.428-2.51z" fill="url(#b)" style="mix-blend-mode:multiply"/><path d="M219.35 181.945l-1.501 1.121-.501.374-.5.374c-1.021-1.367-2.974-1.64-4.353-.61-1.38 1.03-1.672 2.98-.651 4.347l-.5.374-.5.374-1.502 1.121-9.967 1.266-2.072-6.948 3.743-1.251-8.516-11.402 14.01-10.465 8.517 11.402 2.261-3.234 6.075 3.959-4.043 9.198zm-1.709-11.456l-1.565 2.238-.993 1.419-1.027-1.376-7.776-10.41-12.009 8.969 7.776 10.411 1.027 1.376-1.642.548-2.59.866 1.428 4.792 8.597-1.092 1.381-1.032a4.367 4.367 0 0 1 1.506-4.986 4.367 4.367 0 0 1 5.208-.028l1.381-1.032 3.488-7.934-4.19-2.729z" fill="url(#c)" style="mix-blend-mode:multiply"/><g clip-path="url(#d)"><path d="M102.247 100.983l-11-6.087-4.914 8.163c-.979 1.627-3.12 2.201-4.78 1.281a3.303 3.303 0 0 1-1.609-2.04 3.304 3.304 0 0 1 .373-2.57l4.913-8.164-11-6.087 3.545-5.891 11 6.087 5.648-9.384 4.781-1.28 1.236 4.61-5.648 9.383 11.001 6.087-3.546 5.892zm-12.003-6.642l-1.5-.83-3.731 6.2 1.5.83 3.73-6.2zm-8.925 5.944a2.196 2.196 0 0 0 .824 3.074 2.399 2.399 0 0 0 3.188-.855l.59-.982-4.01-2.22-.592.983zm1.182-1.964l1.509.834 3.731-6.199-1.508-.835-3.732 6.2zm-6.678-13.269l1.976 1.093.59-.982a.6.6 0 0 1 .798-.213.55.55 0 0 1 .206.769l-.591.981 2.005 1.11.591-.982a.598.598 0 0 1 .797-.213.548.548 0 0 1 .206.768l-.59.982 2.005 1.11.59-.981v-.001a.6.6 0 0 1 .797-.214.55.55 0 0 1 .206.77v-.001l-.59.981 2.004 1.11.592-.981a.598.598 0 0 1 .797-.214.548.548 0 0 1 .205.768l-.59.982 2.005 1.11.591-.982a.598.598 0 0 1 .797-.213.548.548 0 0 1 .206.768l-.591.982 2.005 1.11.59-.982h.001a.6.6 0 0 1 .797-.214.55.55 0 0 1 .206.769l-.59.981 2.005 1.11.59-.981a.598.598 0 0 1 .797-.214c.277.153.37.497.206.768l-.591.982 2.006 1.11.59-.981a.599.599 0 0 1 .798-.214.547.547 0 0 1 .205.768l-.59.982 1.975 1.093 2.364-3.928-26.012-14.393-2.364 3.927zm22.546-8.654l-.934.25 1.175.651-.241-.9zm.823 3.074l-.17-.636-3.18-1.76-.66.177-5.403 8.977 1.508.834 4.17-6.928a.598.598 0 0 1 .797-.213.548.548 0 0 1 .206.768l-4.17 6.929 1.5.83 5.402-8.978z" fill="#fff"/></g><g clip-path="url(#e)"><path d="M49.552 159.234l-11-6.087-4.914 8.163c-.979 1.627-3.12 2.201-4.781 1.281a3.304 3.304 0 0 1-1.608-2.039 3.305 3.305 0 0 1 .373-2.571l4.913-8.163-11-6.087 3.545-5.892 11 6.087 5.648-9.383 4.781-1.282 1.236 4.611-5.648 9.383 11 6.087-3.545 5.892zm-12.004-6.642l-1.5-.83-3.73 6.2 1.5.83 3.73-6.2zm-8.924 5.944a2.197 2.197 0 0 0 .824 3.074 2.4 2.4 0 0 0 3.187-.854l.591-.983-4.011-2.219-.59.982zm1.182-1.964l1.509.835 3.73-6.2-1.508-.835-3.73 6.2zm-6.678-13.268l1.976 1.093.59-.983a.6.6 0 0 1 .797-.213.549.549 0 0 1 .206.769v.001l-.59.98 2.005 1.11.591-.981a.597.597 0 0 1 .797-.214.548.548 0 0 1 .206.768l-.591.982 2.005 1.11.59-.981.001-.001a.6.6 0 0 1 .797-.214c.277.154.37.498.206.769l-.59.982 2.004 1.11.591-.982a.598.598 0 0 1 .797-.213.548.548 0 0 1 .206.768l-.591.981 2.005 1.11.592-.982a.598.598 0 0 1 .797-.213.548.548 0 0 1 .205.768v.001l-.59.981 2.005 1.11.59-.982h.001a.6.6 0 0 1 .797-.214.55.55 0 0 1 .206.769l-.591.982 2.005 1.109.591-.981a.598.598 0 0 1 .797-.214c.277.153.37.497.206.769l-.591.981 2.005 1.11.591-.981v-.001a.598.598 0 0 1 .797-.213.548.548 0 0 1 .206.768l-.59.982 1.975 1.093 2.364-3.928-26.012-14.393-2.364 3.928zm22.545-8.654l-.933.25 1.175.651-.242-.901zm.824 3.073l-.17-.636-3.181-1.76-.66.177-5.403 8.977 1.509.835 4.17-6.929a.598.598 0 0 1 .797-.213.548.548 0 0 1 .206.768l-4.17 6.929 1.5.83 5.402-8.978z" fill="url(#f)" style="mix-blend-mode:multiply"/></g><path d="M240.197 117.689l3.395-6.104a.582.582 0 1 1 1.018.566l-3.395 6.104a.583.583 0 0 1-1.018-.566z" fill="url(#g)" style="mix-blend-mode:multiply"/><path d="M242.574 111.019l-1.132 2.034a.58.58 0 1 1-1.016-.565l1.131-2.035a.583.583 0 0 1 1.017.566z" fill="url(#h)" style="mix-blend-mode:multiply"/><path d="M233.973 125.825l-1.04-1.804 5.169-.17-1.078 1.938-1.508 2.713-1.941 3.488-3.701-6.119 4.099-.046zm2.112-.743l-1.175.039.396.687.377-.004.402-.722zm-1.053 1.894l-3.107.036 1.608 2.659 1.499-2.695z" fill="url(#i)" style="mix-blend-mode:multiply"/><path d="M219.5 126.159l13.015-23.4a.583.583 0 0 1 .792-.226l14.243 7.923c.28.155.382.51.225.791l-13.015 23.4a.582.582 0 0 1-.791.225l-14.243-7.922a.582.582 0 0 1-.226-.791zm1.856-.942l11.518-6.707a.53.53 0 0 0 .197-.355l-.374-13.327-11.341 20.389zm25.119-14.027l-12.633-7.027.393 13.959a1.58 1.58 0 0 1-.211.795c-.138.25-.336.466-.564.599l-12.069 7.028 12.634 7.028 12.45-22.382z" fill="url(#j)" style="mix-blend-mode:multiply"/><path d="M36.924 110.388c-6.79 1.819-13.76-2.184-15.572-8.941a12.563 12.563 0 0 1 .006-6.558 12.562 12.562 0 0 1-3.284-5.677c-1.81-6.758 2.225-13.71 9.015-15.53 4.587-1.228 9.257.2 12.362 3.34 6.287-.906 12.392 2.99 14.07 9.249 1.677 6.26-1.663 12.685-7.56 15.044a12.732 12.732 0 0 1-9.037 9.073zm3.772-31.899a12.585 12.585 0 0 1 1.965 4.135 12.563 12.563 0 0 1-.006 6.558 12.563 12.563 0 0 1 3.284 5.676c.411 1.533.52 3.074.366 4.564a11.106 11.106 0 0 0 4.557-4.325 11.049 11.049 0 0 0 1.394-4.021c.207-1.47.116-2.948-.272-4.394a10.968 10.968 0 0 0-1.96-3.94 11.048 11.048 0 0 0-3.219-2.785 11.101 11.101 0 0 0-6.11-1.468zm3.904 21.634a10.967 10.967 0 0 0-.197-4.853 10.96 10.96 0 0 0-2.338-4.395 12.724 12.724 0 0 1-8.035 7.167c.502.422 1.043.8 1.62 1.13a11.11 11.11 0 0 0 8.446 1.098c.17-.045.337-.094.504-.147zm-11.874-3.376a11.107 11.107 0 0 0 7.277-5.297c.332-.573.61-1.167.833-1.78a11.12 11.12 0 0 0-10.562-2.074 10.97 10.97 0 0 0 .196 4.852 10.968 10.968 0 0 0 2.256 4.299zm-3.793-3.888a12.58 12.58 0 0 1-.364-4.563 11.106 11.106 0 0 0-5.391 6.105c.5.42 1.037.796 1.612 1.125a11.118 11.118 0 0 0 6.109 1.467 12.582 12.582 0 0 1-1.966-4.134zm1.823-7.037c3.8-.895 7.626.014 10.542 2.19a10.96 10.96 0 0 0-.173-4.975 10.964 10.964 0 0 0-2.256-4.302 11.108 11.108 0 0 0-7.276 5.298 11.11 11.11 0 0 0-.838 1.788zm-8.808 7.374a12.722 12.722 0 0 1 6.965-6.793 12.734 12.734 0 0 1 8.651-8.964 11.12 11.12 0 0 0-1.618-1.129 11.081 11.081 0 0 0-4.035-1.379 11.108 11.108 0 0 0-4.412.28 11.107 11.107 0 0 0-3.961 1.964 11.082 11.082 0 0 0-2.805 3.211 11.05 11.05 0 0 0-1.394 4.021 10.967 10.967 0 0 0 .271 4.394 10.959 10.959 0 0 0 2.338 4.395zm10.155 15.943c1.474.203 2.959.109 4.412-.28a11.098 11.098 0 0 0 3.96-1.963 11.076 11.076 0 0 0 2.806-3.212c.334-.574.613-1.171.837-1.787a12.735 12.735 0 0 1-11.975-3.437 12.721 12.721 0 0 1-9.428-2.4 10.964 10.964 0 0 0 .173 4.976 10.975 10.975 0 0 0 1.962 3.94 11.06 11.06 0 0 0 3.218 2.785 11.084 11.084 0 0 0 4.035 1.378z" fill="url(#k)" style="mix-blend-mode:multiply"/><path d="M8.342.633l6.782 5.787L18.03 8.9l6.782 5.788L5.94 38.768-12.47 23.06 8.343.633zm.102 1.761L6.71 4.264l5.934 5.062 1.653-1.937-5.853-4.995zm6.822 5.822L11.96 12.09l.968.827 3.307-3.876-.969-.826zm1.938 1.653l-1.654 1.938 5.934 5.063 1.573-2.006-5.853-4.995zM5.757 36.937l14.94-19.063-5.974-5.098-1.653 1.937a.636.636 0 1 1-.969-.826.637.637 0 0 1-.968-.827.637.637 0 0 1-.97-.827l1.654-1.938-5.974-5.097-16.475 17.754L5.757 36.937z" fill="#fff"/><path d="M6.49 16.913l-1.148 6.059 2.968-.998-1.285 7.675-2.538-2.166-3.552-3.031-4.568-3.898L6.49 16.913zm-.35 10.306l.563-3.361-1.633.548-.31 1.636 1.38 1.177zm-2.495-2.13l1.178-6.223-5.96 2.144 4.782 4.08zM158.5 117.083l-4.848-2.636 11.446-7.545.249 5.873.349 8.222.448 10.57-16.841-8.7 9.197-5.784zm4.844-6.749l-6.004 3.957 3.002 1.632 3.154-1.983-.152-3.606zm.245 5.791l-10.463 6.58 10.982 5.674-.519-12.254z" fill="#fff"/><path d="M136.796 132.81l-1.938.082a.958.958 0 0 1-1.008-.907.959.959 0 0 1 .928-.99l1.938-.082-.161-3.795-1.938.082a.96.96 0 0 1-1.009-.907.96.96 0 0 1 .929-.99l1.938-.082-.161-3.794-1.938.082a.96.96 0 0 1-1.009-.908.96.96 0 0 1 .929-.99l1.937-.082-.16-3.794-1.938.082a.96.96 0 0 1-1.009-.908.96.96 0 0 1 .928-.99l1.938-.082-.161-3.794-1.937.082a.96.96 0 0 1-1.009-.908.96.96 0 0 1 .928-.99l1.938-.082-.241-5.692 42.63-1.806 1.527 36.048-42.63 1.807-.241-5.692zm40.893 2.069l-1.367-32.254-38.834 1.645.16 3.795 1.857-.079a.96.96 0 0 1 1.01.908.961.961 0 0 1-.93.99l-1.856.078.161 3.795 1.856-.079a.96.96 0 0 1 1.01.908.96.96 0 0 1-.929.989l-1.857.079.161 3.795 1.856-.079a.96.96 0 0 1 1.01.908.96.96 0 0 1-.929.989l-1.857.079.161 3.795 1.857-.079a.959.959 0 0 1 1.009.908.96.96 0 0 1-.929.989l-1.856.078.16 3.795 1.857-.078a.959.959 0 0 1 1.009.908.96.96 0 0 1-.929.989l-1.856.078.161 3.795 38.834-1.645z" fill="#fff"/><path d="M74.507 161.135l13.439-27.14a.659.659 0 0 1 .882-.299l18.88 9.349a.658.658 0 0 1 .297.883l-4.848 9.791 3.889 1.047.117-.236a.66.66 0 0 1 1.18.585l-4.674 9.44a.658.658 0 0 1-1.18-.585l.117-.236-3.19-2.46-4.85 9.793a.658.658 0 0 1-.881.298l-18.88-9.349a.657.657 0 0 1-.298-.881zm31.944-5.166l-3.885-1.045-2.551 5.149 3.186 2.458 3.25-6.562zm-24.572 8.081l1.753-3.54-5.9-2.921-1.752 3.54 5.9 2.921zm2.933-2.956l-1.753 3.54 8.26 4.09 1.753-3.54-8.26-4.09zm-6.495-4.685l15.339 7.596 10.517-21.24-15.34-7.596-10.516 21.24zm21.79.504l6.427-12.979-1.181-.585-6.426 12.98-6.428 12.98 1.18.584 6.428-12.98z" fill="url(#l)" style="mix-blend-mode:multiply"/><path d="M99.224 157.21a.659.659 0 1 1 .585-1.18.659.659 0 0 1-.585 1.18z" fill="url(#m)" style="mix-blend-mode:multiply"/><path d="M93.85 151.716l-2.004 4.045-4.513-6.712 4.628-.275-1.272-1.981 5.832-.472-1.114 2.248-1.558 3.147zm-4.138-1.489l1.96 2.916 1.548-3.125-3.508.209zm4.596-2.406l-1.325.107.485.756.425-.025.415-.838z" fill="url(#n)" style="mix-blend-mode:multiply"/><path d="M88.856 141.057l.584-1.18 1.18.584-.584 1.18-1.18-.584z" fill="url(#o)" style="mix-blend-mode:multiply"/><path d="M85.643 147.546l.584-1.18 1.18.584-.584 1.18-1.18-.584z" fill="url(#p)" style="mix-blend-mode:multiply"/><path d="M82.43 154.035l.584-1.18 1.18.584-.585 1.181-1.18-.585z" fill="url(#q)" style="mix-blend-mode:multiply"/><path d="M87.15 156.373l.584-1.18 1.18.584-.585 1.18-1.18-.584z" fill="url(#r)" style="mix-blend-mode:multiply"/><path d="M91.869 158.711l.585-1.18 1.18.584-.585 1.181-1.18-.585z" fill="url(#s)" style="mix-blend-mode:multiply"/><path d="M98.296 145.732l.584-1.179 1.18.584-.584 1.18-1.18-.585z" fill="url(#t)" style="mix-blend-mode:multiply"/><path d="M93.576 143.394l.584-1.179 1.18.584-.584 1.18-1.18-.585z" fill="url(#u)" style="mix-blend-mode:multiply"/><path d="M95.083 152.221l.584-1.179 1.18.584-.584 1.18-1.18-.585z" fill="url(#v)" style="mix-blend-mode:multiply"/><path d="M288.297 138.935l-3.78 1.013-1.539-5.745-6.659 1.785-1.063-3.967 6.659-1.784-1.539-5.744 3.78-1.013 1.539 5.744 6.948-1.861 1.062 3.966-6.947 1.861 1.539 5.745z" fill="#fff"/></g><ellipse opacity=".2" cx="304.297" cy="133.209" rx="52.043" ry="7.721" fill="#6B6B6B"/><ellipse opacity=".2" cx="208.226" cy="133.209" rx="20.226" ry="7.721" fill="#6B6B6B"/><path d="M207.102 77.649v30.974s-7.709-19.77-8.006-20.056c-.298-.286 2.356-7.687 2.356-7.687l5.65-3.231z" fill="#FFC289"/><path d="M252.134 75.304c11.896 5.444 17.472 12.336 23.133 18.981 5.662 6.646 15.133-12.519 14.956-12.993-.178-.475-20.863-24.112-20.863-24.112l-17.226 18.124zm28.54 55.371c.7-2.954-2.639-6.274-7.458-7.416-4.82-1.142-9.294.326-9.994 3.28-.7 2.954 2.639 6.274 7.459 7.416 4.819 1.142 9.293-.326 9.993-3.28z" fill="#2F2F2F"/><path d="M294.706 134.839c-19.101 0-30.963-10.42-30.963-27.188 0-10.455 4.89-15.041 9.202-19.09 1.293-1.213 2.517-2.362 3.518-3.592-.143-9.905-6.337-11.386-10.02-11.386-3.615 0-7.835 1.48-10.266 3.608-2.093 1.83-2.287 5.136-2.476 8.333-.269 4.57-.549 9.293-6.571 9.293-6.205 0-15.213-8.258-15.213-21.2 0-20.537 7.446-37.42 21.532-48.829 11.398-9.236 26.84-14.532 42.367-14.532 7.16 0 25.524 1.287 41.342 13.234 14.967 11.295 22.55 28.16 22.55 50.127 0 20.76-6.411 36.619-19.05 47.147-11.066 9.208-26.953 14.075-45.952 14.075z" fill="#fff"/><mask id="w" fill="#fff"><path d="M295.81 10.536c24.975 0 63.607 14.109 63.607 63.075 0 43.882-28.956 60.942-64.717 60.942-17.06 0-30.676-8.859-30.676-26.902 0-13.549 8.384-17.197 12.724-22.585-.091-8.881-5.061-11.77-10.311-11.77-4.009 0-8.178 1.688-10.454 3.678-5.25 4.592.983 17.552-8.859 17.552-6.234 0-14.927-8.201-14.927-20.915.006-45.523 35.933-63.075 63.613-63.075zm0-.572c-15.59 0-31.094 5.319-42.544 14.595-14.154 11.467-21.635 28.43-21.635 49.052 0 5.874 1.865 11.41 5.256 15.584 2.997 3.695 6.828 5.903 10.248 5.903 6.291 0 6.594-5.079 6.857-9.563.183-3.14.378-6.382 2.38-8.132 1.944-1.704 5.93-3.535 10.076-3.535 3.569 0 9.551 1.436 9.734 10.998-.984 1.19-2.173 2.305-3.426 3.483-4.357 4.09-9.293 8.721-9.293 19.296 0 8.681 3.163 15.83 9.15 20.663 5.519 4.455 13.16 6.811 22.099 6.811 19.067 0 35.023-4.89 46.135-14.149C353.555 110.384 360 94.451 360 73.606c0-11.61-2.179-21.961-6.485-30.763-3.792-7.755-9.237-14.35-16.18-19.593-15.898-11.993-34.336-13.286-41.525-13.286z"/></mask><path d="M295.81 10.536c24.975 0 63.607 14.109 63.607 63.075 0 43.882-28.956 60.942-64.717 60.942-17.06 0-30.676-8.859-30.676-26.902 0-13.549 8.384-17.197 12.724-22.585-.091-8.881-5.061-11.77-10.311-11.77-4.009 0-8.178 1.688-10.454 3.678-5.25 4.592.983 17.552-8.859 17.552-6.234 0-14.927-8.201-14.927-20.915.006-45.523 35.933-63.075 63.613-63.075zm0-.572c-15.59 0-31.094 5.319-42.544 14.595-14.154 11.467-21.635 28.43-21.635 49.052 0 5.874 1.865 11.41 5.256 15.584 2.997 3.695 6.828 5.903 10.248 5.903 6.291 0 6.594-5.079 6.857-9.563.183-3.14.378-6.382 2.38-8.132 1.944-1.704 5.93-3.535 10.076-3.535 3.569 0 9.551 1.436 9.734 10.998-.984 1.19-2.173 2.305-3.426 3.483-4.357 4.09-9.293 8.721-9.293 19.296 0 8.681 3.163 15.83 9.15 20.663 5.519 4.455 13.16 6.811 22.099 6.811 19.067 0 35.023-4.89 46.135-14.149C353.555 110.384 360 94.451 360 73.606c0-11.61-2.179-21.961-6.485-30.763-3.792-7.755-9.237-14.35-16.18-19.593-15.898-11.993-34.336-13.286-41.525-13.286z" fill="#0064DA"/><path d="M276.748 85.066l.779.628.225-.28-.004-.358-1 .01zm-20.765-8.092l-.659-.753.659.753zm-23.786-3.363h-1 1zm21.069-49.052l.63.777-.63-.777zm-16.379 64.636l.776-.63-.776.63zm17.105-3.66l.999.059-.999-.059zm2.38-8.132l.658.753.001-.001-.659-.752zm19.81 7.463l.771.637.236-.285-.007-.371-1 .02zm-3.426 3.483l.685.73.001-.002-.686-.728zm-.143 39.959l.629-.778-.629.778zm68.234-7.338l-.64-.768.64.768zm12.668-78.127l-.899.44.899-.44zm-16.18-19.593l.603-.798-.603.798zM295.81 11.536c12.327 0 28.001 3.487 40.566 12.973 12.521 9.453 22.041 24.922 22.041 49.102h2c0-24.785-9.797-40.854-22.836-50.698-12.994-9.81-29.124-13.377-41.771-13.377v2zm62.607 62.075c0 21.705-7.15 36.634-18.588 46.158-11.469 9.551-27.39 13.784-45.129 13.784v2c18.022 0 34.46-4.297 46.409-14.247 11.98-9.976 19.308-25.518 19.308-47.695h-2zM294.7 133.553c-8.37 0-15.796-2.174-21.107-6.463-5.284-4.266-8.569-10.696-8.569-19.439h-2c0 9.299 3.522 16.32 9.312 20.995 5.762 4.652 13.675 6.907 22.364 6.907v-2zm-29.676-25.902c0-13.078 7.868-16.205 12.503-21.957l-1.557-1.255c-4.047 5.022-12.946 9.193-12.946 23.212h2zm12.724-22.595c-.047-4.625-1.371-7.857-3.529-9.927-2.149-2.061-4.983-2.832-7.782-2.832v2c2.451 0 4.727.673 6.398 2.276 1.663 1.595 2.87 4.247 2.913 8.504l2-.021zm-11.311-12.76c-4.24 0-8.646 1.768-11.113 3.925l1.317 1.506c2.086-1.824 6.018-3.43 9.796-3.43v-2zm-11.113 3.925c-1.572 1.375-2.221 3.324-2.543 5.27-.315 1.904-.348 4.103-.502 5.895-.163 1.9-.461 3.426-1.182 4.478-.655.955-1.764 1.662-3.973 1.662v2c2.711 0 4.514-.914 5.623-2.532 1.043-1.522 1.36-3.523 1.525-5.436.174-2.022.182-3.924.482-5.741.294-1.776.834-3.17 1.887-4.09l-1.317-1.506zm-8.2 17.305c-2.714 0-6.187-1.822-9.024-5.32-2.81-3.464-4.903-8.47-4.903-14.595h-2c0 6.59 2.254 12.04 5.349 15.855 3.068 3.78 7.058 6.06 10.578 6.06v-2zM233.197 73.61c.003-22.465 8.854-37.946 21.058-47.832 12.236-9.91 27.905-14.243 41.555-14.243v-2c-14.03 0-30.165 4.444-42.814 14.69-12.681 10.271-21.796 26.327-21.799 49.385h2zM295.81 8.964c-15.805 0-31.535 5.389-43.173 14.818l1.259 1.554c11.26-9.123 26.539-14.372 41.914-14.372v-2zm-43.173 14.818c-14.422 11.683-22.006 28.95-22.006 49.83h2c0-20.367 7.377-37.026 21.265-48.276l-1.259-1.554zm-22.006 49.83c0 6.08 1.93 11.844 5.48 16.214l1.552-1.261c-3.233-3.98-5.032-9.287-5.032-14.954h-2zm5.479 16.213c3.109 3.832 7.198 6.272 11.025 6.272v-2c-3.013 0-6.586-1.974-9.472-5.531l-1.553 1.26zm11.025 6.272c1.707 0 3.093-.345 4.2-1.004 1.113-.663 1.871-1.599 2.388-2.656 1-2.046 1.14-4.659 1.268-6.843l-1.997-.117c-.135 2.299-.279 4.468-1.068 6.081-.378.774-.892 1.387-1.614 1.817-.727.433-1.738.722-3.177.722v2zm7.856-10.503c.092-1.589.184-3.099.484-4.425.299-1.321.779-2.335 1.555-3.013l-1.317-1.506c-1.226 1.072-1.844 2.554-2.188 4.077-.344 1.517-.44 3.199-.531 4.75l1.997.117zm2.04-7.44c1.767-1.548 5.52-3.285 9.417-3.285v-2c-4.395 0-8.614 1.922-10.736 3.782l1.319 1.504zm9.417-3.285c1.675 0 3.802.34 5.516 1.697 1.675 1.325 3.131 3.758 3.218 8.32l2-.039c-.096-5.001-1.722-8.066-3.977-9.85-2.214-1.752-4.863-2.129-6.757-2.129v2zm8.963 9.36c-.936 1.132-2.076 2.203-3.34 3.392l1.371 1.456c1.241-1.167 2.48-2.326 3.511-3.574l-1.542-1.274zm-3.339 3.39c-2.169 2.036-4.595 4.306-6.456 7.435-1.875 3.154-3.153 7.134-3.153 12.591h2c0-5.117 1.19-8.74 2.872-11.569 1.697-2.853 3.917-4.944 6.106-6.998l-1.369-1.458zm-9.609 20.026c0 8.939 3.267 16.392 9.522 21.441l1.257-1.556c-5.721-4.617-8.779-11.462-8.779-19.885h-2zm9.522 21.441c5.739 4.632 13.62 7.033 22.727 7.033v-2c-8.771 0-16.171-2.312-21.47-6.589l-1.257 1.556zm22.727 7.033c19.225 0 35.433-4.93 46.775-14.38l-1.28-1.537c-10.882 9.067-26.587 13.917-45.495 13.917v2zm46.775-14.38C354.48 110.915 361 94.664 361 73.606h-2c0 20.632-6.371 36.248-18.793 46.596l1.28 1.537zM361 73.606c0-11.734-2.202-22.24-6.587-31.203l-1.797.88C356.844 51.922 359 62.12 359 73.605h2zm-6.587-31.202c-3.861-7.898-9.408-14.614-16.475-19.952l-1.205 1.596c6.818 5.15 12.161 11.621 15.883 19.234l1.797-.878zM337.938 22.45C321.782 10.265 303.082 8.964 295.81 8.964v2c7.105 0 25.281 1.285 40.923 13.084l1.205-1.597z" fill="#6B6B6B" mask="url(#w)"/><path d="M324.067 108.966c1.619-28.36-20.594-36.716-38.683-32.724-3.088.68-10.3 1.887-13.468 7.337-1.298 2.237.509 5.245-.24 6.177" fill="#fff"/><path d="M324.067 108.966c1.619-28.36-20.594-36.716-38.683-32.724-3.088.68-10.3 1.887-13.468 7.337-1.298 2.237.509 5.245-.24 6.177" stroke="#6B6B6B" stroke-miterlimit="10" stroke-linecap="round" stroke-linejoin="round"/><path d="M276.606 88.052c2.173 0 3.934-1.002 3.934-2.237 0-1.234-1.761-2.236-3.934-2.236s-3.935 1.002-3.935 2.237c0 1.234 1.762 2.236 3.935 2.236zM301.3 104.7c-.6 4.735-5.25 3.214-9.791 5.702-3.545 1.944-5.936 5.284-8.612 5.284-3.312 0-4.742-3.963-2.768-9.19 2.339-6.2 7.383-8.402 11.506-8.402 6.097 0 10.146 2.814 9.665 6.606zm-37.019 7.005c2.911.91 5.525-2.081 5.685-7.36.114-3.729-1.098-6.611-2.86-8.698-1.807 2.962-3.082 6.731-3.082 12.004.005 1.412.097 2.756.257 4.054zm32.776 25.284c6.159 0 11.152-3.062 11.152-6.84 0-3.777-4.993-6.84-11.152-6.84-6.159 0-11.152 3.063-11.152 6.84 0 3.778 4.993 6.84 11.152 6.84z" fill="#2F2F2F"/><path d="M203.122 81.938c2.253-.778 3.98-4.29 3.98-4.29h-3.98c-4.015 5.148-8.052 5.931-8.052 5.931s16.282.71 32.215 6.892v44.825l2.602-1.727V88.784c-4.947-2.294-16.551-5.902-26.765-6.846z" fill="#FFD1A7"/><path d="M348.042 34.894C334.688 16.673 312.281 10.53 295.81 10.53c-27.686 0-63.607 17.551-63.607 63.075 0 12.713 8.693 20.914 14.927 20.914 9.842 0 3.608-12.96 8.858-17.552 4.25-3.717 15.11-6.376 19.182 1.047-1.63-10.563.458-16.837 5.627-17.7 5.17-.864 8.979 5.17 8.979 5.17-.446 10.088-1.847 18.083 4.924 19.439 6.766 1.355 14.887-6.028 20.669-15.259 5.782-9.23 15.516-20.33 30.391-24.363 6.211-1.67 5.141-6.148 2.282-10.408z" fill="#2F2F2F"/><path d="M257.189 76.065c4.221-2.785 11.964-4.404 16.334-.212" stroke="#fff" stroke-miterlimit="10" stroke-linecap="round" stroke-linejoin="round"/><path d="M247.869 91.837c3.08-1.779 3.018-7.653-.139-13.12-3.157-5.468-8.213-8.46-11.293-6.681-3.08 1.778-3.018 7.652.139 13.12 3.157 5.468 8.213 8.459 11.293 6.68zm56.773-21.069c1.57-6.627.038-12.663-3.423-13.484-3.461-.82-7.539 3.887-9.11 10.514-1.57 6.626-.038 12.663 3.423 13.483 3.461.82 7.54-3.887 9.11-10.513z" fill="#FFAA5B"/><path d="M298.344 53.309c19.347-5.188 17.151 44.785 40.404 44.785 7.875 0 13.411-5.965 13.411-17.225 0-17.838-18.581-40.48-44.905-40.48-10.214 0-15.259 7.813-14.058 11.604.618 1.968 2.614 1.996 5.148 1.316z" fill="#2F2F2F"/><path d="M334.968 49.906c-7.44-5.713-16.928-9.517-27.714-9.517-10.214 0-15.259 7.813-14.058 11.604.618 1.968 2.62 1.99 5.148 1.31 8.544-2.293 12.884 6.176 17.076 16.345" stroke="#fff" stroke-miterlimit="10" stroke-linecap="round" stroke-linejoin="round"/><path d="M232.295 54.79c-2.683 3.597-3.203 7.738-1.173 9.253 2.036 1.516 4.655-1.515 8.539-3.763 4.026-2.333 3.271-7.83 1.172-9.253-4.158-2.825-5.862.166-8.538 3.763z" fill="#2F2F2F"/><path d="M232.718 64.42c1.784-.285 4.003-2.436 6.937-4.14 4.026-2.333 3.271-7.83 1.172-9.253-2.076-1.413-3.54-1.367-4.821-.526" stroke="#fff" stroke-miterlimit="10" stroke-linecap="round" stroke-linejoin="round"/><path d="M282.839 108.24c-.537.823-.446 1.979-.446 1.979m-15.441-5.456c-.538.823-.446 1.978-.446 1.978" stroke="#fff" stroke-width="2" stroke-miterlimit="10" stroke-linecap="round" stroke-linejoin="round"/><path d="M227.279 135.296V90.471c-15.927-6.183-32.215-6.892-32.215-6.892v45.049c15.933.618 32.215 6.668 32.215 6.668z" fill="#FFAA5B" stroke="#FF7A00" stroke-miterlimit="10" stroke-linecap="round" stroke-linejoin="round"/><path d="M195.064 83.58c3.98-.618 8.052-5.931 8.052-5.931" stroke="#FF7A00" stroke-miterlimit="10" stroke-linecap="round" stroke-linejoin="round"/><path d="M213.416 121.719c-.12 0-.251-.017-.377-.04l-4.215-.721c-.544-.091-1.058-.263-1.333-1.338l-5.421-22.407c-.058-.234-.166-.686.085-.995.098-.12.281-.263.63-.263.08 0 .177.006.28.029l3.277.56c.966.166 1.155.904 1.258 1.298l.675 2.688c.091.343.24.372.44.406l4.581.784c.029.005.057.005.086.005.097 0 .223-.028.257-.177l.635-2.54c.154-.748.641-.908 1.018-.908.086 0 .177.005.274.023l3.243.554c.32.057.555.195.704.412.251.377.137.852.097 1.035l-5.153 20.594c-.149.669-.492 1.001-1.041 1.001zm-3.797-15.493l1.441 6.034 1.252-5.468c.029-.108.035-.171.029-.194l-2.739-.463c0 .028.005.057.017.091z" fill="#fff"/><path d="M202.784 96.236c.069 0 .143.005.235.022l3.277.56c.801.138.938.727 1.035 1.116l.669 2.659c.132.492.4.572.669.618l4.581.784c.046.005.092.011.137.011.269 0 .475-.149.532-.4l.635-2.534c.057-.286.2-.692.744-.692.068 0 .143.006.228.023l3.243.555c.772.131.635.812.566 1.098l-5.153 20.588c-.154.635-.44.784-.772.784-.108 0-.217-.017-.331-.035l-4.215-.72c-.504-.086-.87-.218-1.104-1.127l-5.416-22.401c-.057-.252-.223-.91.44-.91zm8.287 16.619c.086 0 .149-.092.212-.297l1.304-5.697c.034-.125.131-.48-.235-.543l-2.773-.475c-.029-.005-.052-.005-.075-.005-.28 0-.188.337-.16.469l1.47 6.17c.069.246.131.355.234.372.006.006.018.006.023.006zm-8.287-17.191c-.463 0-.72.206-.857.377-.332.423-.201.984-.138 1.224l5.422 22.418c.286 1.121.835 1.43 1.561 1.556l4.215.721c.126.022.269.045.429.045.475 0 1.087-.211 1.327-1.218l5.147-20.583c.051-.223.183-.789-.137-1.263-.132-.2-.395-.452-.892-.538l-3.243-.555a2.234 2.234 0 0 0-.326-.028c-.395 0-1.092.148-1.304 1.15l-.623 2.475h-.029l-4.581-.783c-.166-.029-.166-.029-.212-.206l-.663-2.648-.006-.034c-.103-.395-.337-1.31-1.487-1.504l-3.277-.56a.935.935 0 0 0-.326-.046zm8.264 15.344l-1.075-4.518 2.03.349-.955 4.169z" fill="#FF7A00"/><defs><linearGradient id="b" x1="44.11" y1="56.416" x2="45.127" y2="15.464" gradientUnits="userSpaceOnUse"><stop stop-color="#FFC000"/><stop offset="1" stop-color="#FF8A00"/></linearGradient><linearGradient id="c" x1="225.684" y1="176.467" x2="192.759" y2="186.603" gradientUnits="userSpaceOnUse"><stop stop-color="#FFC000"/><stop offset="1" stop-color="#FF8A00"/></linearGradient><linearGradient id="f" x1="27.85" y1="164.686" x2="28.329" y2="132.999" gradientUnits="userSpaceOnUse"><stop stop-color="#FFC000"/><stop offset="1" stop-color="#FF8A00"/></linearGradient><linearGradient id="g" x1="239.99" y1="118.119" x2="244.322" y2="118.362" gradientUnits="userSpaceOnUse"><stop stop-color="#FFC000"/><stop offset="1" stop-color="#FF8A00"/></linearGradient><linearGradient id="h" x1="240.189" y1="112.971" x2="243.199" y2="111.911" gradientUnits="userSpaceOnUse"><stop stop-color="#FFC000"/><stop offset="1" stop-color="#FF8A00"/></linearGradient><linearGradient id="i" x1="228.339" y1="128.939" x2="236.633" y2="122.674" gradientUnits="userSpaceOnUse"><stop stop-color="#FFC000"/><stop offset="1" stop-color="#FF8A00"/></linearGradient><linearGradient id="j" x1="219.763" y1="126.555" x2="244.814" y2="108.575" gradientUnits="userSpaceOnUse"><stop stop-color="#FFC000"/><stop offset="1" stop-color="#FF8A00"/></linearGradient><linearGradient id="k" x1="25.32" y1="112.986" x2="27.435" y2="68.874" gradientUnits="userSpaceOnUse"><stop stop-color="#FFC000"/><stop offset="1" stop-color="#FF8A00"/></linearGradient><linearGradient id="l" x1="74.997" y1="161.652" x2="100.818" y2="135.794" gradientUnits="userSpaceOnUse"><stop stop-color="#FFC000"/><stop offset="1" stop-color="#FF8A00"/></linearGradient><linearGradient id="m" x1="98.67" y1="156.916" x2="99.716" y2="155.785" gradientUnits="userSpaceOnUse"><stop stop-color="#FFC000"/><stop offset="1" stop-color="#FF8A00"/></linearGradient><linearGradient id="n" x1="85.766" y1="152.598" x2="94.797" y2="145.072" gradientUnits="userSpaceOnUse"><stop stop-color="#FFC000"/><stop offset="1" stop-color="#FF8A00"/></linearGradient><linearGradient id="o" x1="88.892" y1="141.055" x2="89.938" y2="139.924" gradientUnits="userSpaceOnUse"><stop stop-color="#FFC000"/><stop offset="1" stop-color="#FF8A00"/></linearGradient><linearGradient id="p" x1="85.679" y1="147.544" x2="86.725" y2="146.413" gradientUnits="userSpaceOnUse"><stop stop-color="#FFC000"/><stop offset="1" stop-color="#FF8A00"/></linearGradient><linearGradient id="q" x1="82.465" y1="154.034" x2="83.512" y2="152.902" gradientUnits="userSpaceOnUse"><stop stop-color="#FFC000"/><stop offset="1" stop-color="#FF8A00"/></linearGradient><linearGradient id="r" x1="87.185" y1="156.372" x2="88.232" y2="155.24" gradientUnits="userSpaceOnUse"><stop stop-color="#FFC000"/><stop offset="1" stop-color="#FF8A00"/></linearGradient><linearGradient id="s" x1="91.905" y1="158.71" x2="92.952" y2="157.578" gradientUnits="userSpaceOnUse"><stop stop-color="#FFC000"/><stop offset="1" stop-color="#FF8A00"/></linearGradient><linearGradient id="t" x1="98.332" y1="145.731" x2="99.378" y2="144.6" gradientUnits="userSpaceOnUse"><stop stop-color="#FFC000"/><stop offset="1" stop-color="#FF8A00"/></linearGradient><linearGradient id="u" x1="93.612" y1="143.393" x2="94.659" y2="142.262" gradientUnits="userSpaceOnUse"><stop stop-color="#FFC000"/><stop offset="1" stop-color="#FF8A00"/></linearGradient><linearGradient id="v" x1="95.119" y1="152.22" x2="96.165" y2="151.089" gradientUnits="userSpaceOnUse"><stop stop-color="#FFC000"/><stop offset="1" stop-color="#FF8A00"/></linearGradient><clipPath id="a"><path fill="#fff" transform="rotate(180 147.5 79)" d="M0 0h295v158H0z"/></clipPath><clipPath id="d"><path fill="#fff" transform="scale(1 -1) rotate(-75 -16.198 -87.998)" d="M0 0h27v28H0z"/></clipPath><clipPath id="e"><path fill="#fff" transform="scale(1 -1) rotate(-75 -80.503 -82.787)" d="M0 0h27v28H0z"/></clipPath></defs></svg>