<svg width="259" height="203" viewBox="0 0 259 203" fill="none" xmlns="http://www.w3.org/2000/svg"><ellipse opacity=".2" cx="119.826" cy="193.484" rx="99.385" ry="9.516" fill="#6B6B6B"/><path d="M150.233 24.297c1.251-5.64-3.712-11.537-11.086-13.173-7.374-1.636-14.366 1.61-15.617 7.248-1.251 5.64 3.713 11.537 11.086 13.173 7.374 1.636 14.366-1.61 15.617-7.248zm-28.117 30.607c-28.042-.96-44.09-19.064-50.342-33.21-3.985-9.008-13.012 4.63-6.693 23.97 3.582 10.94 12.85 25.383 26.515 31.232 1.402.595 30.52-21.992 30.52-21.992zm-38.74 26.592c-21.282 4.38-36.072 2.843-46.03-5.685-10.497-8.999-29.992 4.811-35.687 17.94-4.889 11.264 2.036 14.549 7.73 11.264 5.696-3.284 11.707-7.74 17.815 0 16.826 21.339 31.183 29.214 52.215 31.183 31.711 2.967 3.957-54.702 3.957-54.702z" fill="#2F2F2F"/><path d="M15.754 88.373c-7.126 5.56-11.428 16.845-13.618 10.795-.922-2.564 3.044-11.534 10.065-17.22 7.135-5.771 13.78-7.807 15.298-4.81.913 1.776-4.62 5.675-11.745 11.235z" fill="#FFAA5B"/><path d="M109.16 195.587c-19.216 0-28.1-2.161-37.434-53.502-9.181-50.477-1.306-71.191 30.097-79.153 13.954-3.534 20.619-16.422 27.063-28.878 7.414-14.328 15.068-29.147 33.776-30.54 1.2-.086 2.391-.134 3.525-.134 8.095 0 12.926 2.276 16.806 4.101 2.545 1.2 4.754 2.238 7.174 2.238a8.28 8.28 0 0 0 1.527-.135 13.02 13.02 0 0 1 2.247-.201c7.74 0 11.774 7.394 12.34 14.732 1.076 13.944-7.788 26.746-14.27 36.09-3.602 5.195-6.704 9.68-7.04 12.773-.816 7.606-22.472 57.17-63.873 66.802-8.653 8.73-14.031 24.604-11.083 32.748 1.143 3.15 3.409 4.908 6.742 5.205 6.79.615 12.148 4.783 11.947 9.287-.106 2.017-1.787 8.567-19.544 8.567z" fill="#fff"/><path d="M166.177 3.86c13.436 0 17.738 6.33 23.981 6.33.518 0 1.046-.049 1.603-.135.749-.125 1.47-.192 2.161-.192 7.433 0 11.304 7.126 11.861 14.29 1.661 21.512-20.35 39.855-21.311 48.777-.96 8.921-23.49 57.17-63.643 66.418-11.793 11.793-18.16 37.598-4.139 38.875 14.021 1.278 19.169 16.893-7.539 16.893-18.698 0-27.62-1.7-36.964-53.108-9.344-51.408-.422-70.951 29.742-78.596 30.165-7.644 25.988-56.805 60.753-59.407a45.3 45.3 0 0 1 3.495-.144zm0-.96a50.46 50.46 0 0 0-3.563.135c-18.967 1.421-26.698 16.355-34.16 30.799-6.684 12.935-13.003 25.142-26.755 28.628-16.211 4.11-25.575 11.351-30.347 23.47-4.821 12.236-4.86 30.108-.106 56.23 4.58 25.2 9.123 39.038 15.183 46.28 5.926 7.068 13.157 7.615 22.722 7.615 6.425 0 11.457-.874 14.953-2.612 3.15-1.556 4.946-3.841 5.061-6.415.221-4.84-5.224-9.133-12.388-9.786-3.131-.288-5.263-1.931-6.339-4.898-2.881-7.971 2.391-23.51 10.881-32.153 21.598-5.071 37.368-21.07 46.798-33.622 11.304-15.04 16.855-29.281 17.306-33.564.317-2.968 3.39-7.405 6.953-12.543 6.521-9.411 15.442-22.29 14.348-36.407-.586-7.558-4.773-15.174-12.821-15.174-.749 0-1.537.068-2.324.202-.49.086-.961.125-1.441.125-2.324 0-4.369-.97-6.972-2.19-3.899-1.824-8.787-4.12-16.989-4.12z" fill="#6B6B6B"/><path opacity=".2" d="M184.482 72.93c.384-3.544 4.091-8.586 8.307-14.713-9.392 9.114-20.916 2.218-36.157 12.62-17.046 43.974-77.223 40.046-77.223 40.046s23.078 33.046 31.692 44.33c2.161-5.906 5.618-11.745 9.738-15.865 40.153-9.248 62.683-57.497 63.643-66.418z" fill="#6B6B6B"/><path d="M152.562 45.103c5.177-2.561 6.659-10.125 3.31-16.895-3.349-6.77-10.26-10.18-15.437-7.62-5.177 2.561-6.659 10.125-3.31 16.895 3.348 6.77 10.26 10.18 15.437 7.62zm46.067-29.294c.683-1.295-.136-3.069-1.83-3.962-1.694-.893-3.62-.568-4.303.727-.683 1.295.136 3.069 1.83 3.962 1.694.893 3.62.567 4.303-.727zm-55.683 73.456c4.303 14.252 34.045 22.089 60.167 1.912 31.25-24.134 28.417-27.563 45.934-23.107 3.188-2.074 2.535-6.27-6.694-9.402-9.882-3.342-9.661-6.203-9.536-11.044.134-4.888-3.083-5.695-6.435-5.695.298 13.551-21.368 29.906-58.754 26.718-24.922-2.113-26.977 12.993-24.682 20.618zm43.486-73.621c6.684 1.796 6.175 20.715.192 21.973-5.983 1.258-11.054-14.29-8.057-18.63 2.996-4.351 5.167-4.063 7.865-3.343zM116.7 178.223c-14.021-1.277-7.644-27.082 4.139-38.875 10.199-23.894-1.277-45.57-23.26-45.886-16.652-.24-25.804 11.217-28.407 26.823.557 6.52 1.566 13.733 3.016 21.713 9.344 51.408 18.266 53.108 36.964 53.108 26.717 0 21.569-15.615 7.548-16.883z" fill="#2F2F2F"/><path d="M243.169 52.147a.482.482 0 0 1-.461-.499l1.969-44.916A6.518 6.518 0 0 1 251.198.48c.096 0 .192 0 .288.01 3.601.153 6.396 3.217 6.242 6.818l-1.969 44.916a.496.496 0 0 1-.153.336.495.495 0 0 1-.327.125l-12.11-.538z" fill="#FFB42D"/><path d="M251.198.97c.087 0 .183 0 .269.01a6.054 6.054 0 0 1 5.782 6.31l-1.969 44.915-12.101-.528 1.969-44.916c.154-3.256 2.833-5.791 6.05-5.791zm0-.96a6.995 6.995 0 0 0-7.001 6.703l-1.968 44.916c-.01.25.076.5.249.691a.936.936 0 0 0 .663.308l12.1.528h.039a.968.968 0 0 0 .96-.922l1.969-44.916c.173-3.86-2.833-7.145-6.703-7.318-.096.01-.202.01-.308.01z" fill="#FFAA5B"/><path d="M248.759 10.103l-1.71 39m6.329-38.798l-1.71 39" stroke="#fff" stroke-miterlimit="10" stroke-linecap="round" stroke-linejoin="round"/><path d="M248.855 62.068c-.49 0-.932-.269-1.162-.701l-4.927-9.47a.502.502 0 0 1 .019-.48.486.486 0 0 1 .404-.22l12.119.528c.173.01.327.106.404.26a.502.502 0 0 1-.019.48l-5.734 8.998a1.31 1.31 0 0 1-1.104.605z" fill="#fff"/><path d="M243.189 51.677l12.1.528-5.733 8.999a.833.833 0 0 1-1.441-.067l-4.926-9.46zm0-.96a.954.954 0 0 0-.845 1.402l4.926 9.469c.308.595.922.96 1.585.96.614 0 1.181-.307 1.508-.826l5.733-8.998a.954.954 0 0 0 .038-.96.975.975 0 0 0-.806-.52l-12.101-.527h-.038z" fill="#FFAA5B"/><path d="M249.556 61.204l3.141-4.927-7.27-.317 2.698 5.176a.826.826 0 0 0 1.431.068z" fill="#FFB42D"/><path d="M257.258 7.29l-12.101-.529a6.054 6.054 0 0 1 6.31-5.781 6.055 6.055 0 0 1 5.791 6.31z" fill="#fff"/><path d="M201.192 19.716c8.009-4.062 8.489 7.616-.749 8.182 1.027-2.929.749-8.182.749-8.182z" fill="#FFBCBE"/><path d="M186.028 24.72c1.325.01 2.564.864 2.564.864" stroke="#fff" stroke-width="2" stroke-miterlimit="10" stroke-linecap="round" stroke-linejoin="round"/><path opacity=".2" d="M120.464 54.471c5.417-6.53 8-.547 15.635 7.491 3.486 3.669 4.139 9.239-11.044 4.12-7.558-2.554-7.923-7.587-4.591-11.61z" fill="#6B6B6B"/></svg>