<svg width="340" height="141" viewBox="0 0 340 141" fill="none" xmlns="http://www.w3.org/2000/svg"><path d="M214.982-2a14.165 14.165 0 0 1 9.259 4.14c5.55 5.551 5.55 14.55 0 20.1a14.171 14.171 0 0 1-10.051 4.163 14.165 14.165 0 0 1-10.049-4.163A14.162 14.162 0 0 1 200 12.981L214.982-2zm3.196 18.939h2.814l-2.983-4.973-1.37 2.281 1.539 2.692zm-1.364 0l-4.727-8.272-4.728 8.272h9.455zm-13.785-5.312a12.952 12.952 0 0 0 6.974-3.624 12.91 12.91 0 0 0 2.995-4.651c.283-.76.493-1.535.63-2.324l-10.599 10.6zm-.77 5.806a12.992 12.992 0 0 0 2.719 3.97 12.99 12.99 0 0 0 9.212 3.816 12.987 12.987 0 0 0 9.213-3.816 12.987 12.987 0 0 0 3.816-9.212 12.987 12.987 0 0 0-3.816-9.213 12.973 12.973 0 0 0-7.969-3.756l-.459.46c-.159 2.545-1 5.057-2.522 7.237l3.513 6.15 2.043-3.405 5.075 8.46h-17.765l5.044-8.828a14.15 14.15 0 0 1-8.681 3.678l-.46.46c.13 1.385.479 2.728 1.037 4z" fill="url(#a)" style="mix-blend-mode:multiply"/><path d="M56.86 18l6.938 8.122.632.74 6.937 8.122-14.86 12.692-6.938-8.122-.632-.74L42 30.692 56.86 18zm-.25 28.362l13.443-11.481-6.332-7.414L50.28 38.95l6.331 7.413zm6.479-19.635l-6.332-7.413-13.443 11.481 6.332 7.414L63.09 26.727z" fill="#fff"/><path d="M55.119 26.142l-.309-1.844 4.41 1.48-1.517 1.295-2.123 1.813-2.728 2.33-1.202-6.319 3.469 1.245zm2.245-.005l-1.38-.466.14.835.57.203.67-.572zm-1.485 1.268l-3.01-1.08.597 3.141 2.413-2.06zm-2.072 4.217l5.662-4.836a.468.468 0 0 1 .657.053.467.467 0 0 1-.051.655l-5.663 4.836a.465.465 0 1 1-.605-.709zm12.613 3.303a.465.465 0 1 1 .605.707.465.465 0 0 1-.604-.707zm-1.414 1.208a.465.465 0 1 1 .603.708.465.465 0 0 1-.603-.708zm-1.418 1.21zm-1.414 1.209a.466.466 0 0 1 .657.05.466.466 0 0 1-.708.604.465.465 0 0 1 .051-.654zm-1.415 1.208a.463.463 0 1 1 .603.707.462.462 0 0 1-.654-.052.462.462 0 0 1 .05-.654zm1.771-2.737l-2.729 2.33-1.2-6.317 3.47 1.246-.31-1.848 4.408 1.48-1.516 1.295-2.124 1.814zm-2.113.582l2.413-2.06-3.01-1.081.597 3.141zm3.898-3.33l-1.38-.464.138.831.573.206.67-.572zM46.556 32.95a.467.467 0 0 1 .5-.427l2.32.185.074-.928a.467.467 0 0 1 .928.073l-.109 1.39a.467.467 0 0 1-.5.427l-2.785-.218a.467.467 0 0 1-.428-.501zm10.613 8.371a.464.464 0 0 1-.5.428l-.003.002-.926-.075-.073.928a.467.467 0 0 1-.929-.073l.075-.926-.928-.073a.466.466 0 0 1 .073-.928l.929.073.07-.927.003-.001a.467.467 0 0 1 .928.072l-.073.929.926.07a.467.467 0 0 1 .428.501z" fill="#fff"/><path d="M309.387 55.45l-.563-1.412-.188-.471-.188-.47c1.286-.514 1.911-1.988 1.393-3.285-.518-1.298-1.985-1.936-3.272-1.423l-.187-.47-.188-.471-.564-1.413 1.101-8.079 5.882-.164.194 3.197 10.727-4.282 5.26 13.18-10.727 4.282 2.06 2.452-4.379 3.93-6.361-5.101zm9.34 1.066l-1.426-1.696-.904-1.077 1.294-.516 9.794-3.909-4.509-11.297-9.793 3.909-1.295.516-.085-1.402-.134-2.213-4.057.114-.949 6.968.518 1.3a3.544 3.544 0 0 1 3.592 2.227 3.543 3.543 0 0 1-1.071 4.088l.518 1.3 5.487 4.4 3.02-2.712z" fill="url(#b)" style="mix-blend-mode:multiply"/><path d="M317.203 46.007l-1.775-.295 2.693-3.57.716 1.793 1.002 2.51 1.288 3.229-6.119-.885 2.195-2.782zm.65-1.83l-.613.811.678.113.201-.256-.266-.668zm.699 1.753l-1.664 2.109 2.659.384-.995-2.493z" fill="url(#c)" style="mix-blend-mode:multiply"/><g clip-path="url(#d)"><path d="M113 99.706l7.082-7.345-5.367-5.566a2.914 2.914 0 0 1 0-4.016 2.682 2.682 0 0 1 1.937-.832 2.68 2.68 0 0 1 1.937.832l5.367 5.566L131.038 81l3.873 4.017-7.082 7.344 6.169 6.398v4.017h-3.873l-6.169-6.398-7.082 7.345L113 99.706zm7.728-8.014l.965-1.002-4.076-4.226-.965 1 4.076 4.228zm-2.785-8.244a1.782 1.782 0 0 0-2.582 0 1.946 1.946 0 0 0 0 2.678l.645.67 2.583-2.679-.646-.67zm1.291 1.339l-.971 1.007 4.076 4.227.971-1.007-4.076-4.227zm11.804-2.448l-1.272 1.319.646.67a.488.488 0 0 1 0 .669.446.446 0 0 1-.646 0h-.001l-.645-.67-1.291 1.34.645.669a.484.484 0 0 1 0 .67.445.445 0 0 1-.645 0l-.646-.67-1.291 1.339.645.669h.001a.486.486 0 0 1 0 .67.445.445 0 0 1-.646 0l-.645-.67-1.291 1.34.645.669a.486.486 0 0 1 0 .67.445.445 0 0 1-.645 0l-.646-.67-1.291 1.339.645.67a.484.484 0 0 1 0 .669.445.445 0 0 1-.645 0h-.001l-.645-.67-1.291 1.34.646.668a.486.486 0 0 1 0 .67.446.446 0 0 1-.646 0l-.645-.67-1.291 1.34.645.669a.486.486 0 0 1 0 .67.444.444 0 0 1-.645 0l-.646-.67-1.291 1.339.645.67a.485.485 0 0 1 0 .67.445.445 0 0 1-.645 0l-.646-.67-1.272 1.319 2.583 2.678 16.746-17.367-2.582-2.678zm2.048 19.49v-.784l-.757.784h.757zm-2.583 0h.535l2.048-2.123v-.555l-5.903-6.12-.971 1.007 4.555 4.724a.485.485 0 0 1 0 .67.445.445 0 0 1-.645 0l-4.556-4.725-.965 1.002 5.902 6.12z" fill="#fff"/></g><g clip-path="url(#e)"><path d="M145 13.706l7.082-7.345-5.367-5.566a2.914 2.914 0 0 1 0-4.016 2.682 2.682 0 0 1 1.937-.832 2.68 2.68 0 0 1 1.937.832l5.367 5.566L163.038-5l3.873 4.017-7.082 7.344 6.169 6.398v4.017h-3.873l-6.169-6.398-7.082 7.345L145 13.706zm7.728-8.014l.965-1.002-4.076-4.226-.965 1 4.076 4.228zm-2.785-8.244a1.782 1.782 0 0 0-2.582 0 1.946 1.946 0 0 0 0 2.678l.645.67 2.583-2.679-.646-.67zm1.291 1.339l-.971 1.007 4.076 4.227.971-1.007-4.076-4.227zm11.804-2.448l-1.272 1.319.646.67a.488.488 0 0 1 0 .669.446.446 0 0 1-.646 0h-.001l-.645-.67-1.291 1.34.645.669a.484.484 0 0 1 0 .67.445.445 0 0 1-.645 0l-.646-.67-1.291 1.339.645.669h.001a.486.486 0 0 1 0 .67.445.445 0 0 1-.646 0l-.645-.67-1.291 1.34.645.669a.486.486 0 0 1 0 .67.445.445 0 0 1-.645 0l-.646-.67-1.291 1.339.645.67a.484.484 0 0 1 0 .669.445.445 0 0 1-.645 0h-.001l-.645-.67-1.291 1.34.646.668a.486.486 0 0 1 0 .67.446.446 0 0 1-.646 0l-.645-.67-1.291 1.34.645.669a.486.486 0 0 1 0 .67.444.444 0 0 1-.645 0l-.646-.67-1.291 1.339.645.67a.485.485 0 0 1 0 .67.445.445 0 0 1-.645 0l-.646-.67-1.272 1.319 2.583 2.678L165.62-.983l-2.582-2.678zm2.048 19.49v-.784l-.757.784h.757zm-2.583 0h.535l2.048-2.123v-.555l-5.903-6.12-.971 1.007 4.555 4.724a.485.485 0 0 1 0 .67.445.445 0 0 1-.645 0l-4.556-4.724-.965 1 5.902 6.121z" fill="url(#f)" style="mix-blend-mode:multiply"/></g><path d="M224.49 106.331l4.072 3.943a.473.473 0 0 1-.658.679l-4.072-3.943a.474.474 0 0 1 .658-.679z" fill="url(#g)" style="mix-blend-mode:multiply"/><path d="M229.22 109.595l-1.358-1.314a.472.472 0 0 1 .657-.678l1.357 1.314a.472.472 0 1 1-.656.678z" fill="url(#h)" style="mix-blend-mode:multiply"/><path d="M219.42 99.743l1.633-.436-.953 4.088-1.293-1.252-1.809-1.752-2.327-2.254 5.574-1.616-.825 3.222zm.139 1.812l.216-.929-.622.166-.076.296.482.467zm-1.263-1.223l.624-2.443-2.422.702 1.798 1.741z" fill="url(#i)" style="mix-blend-mode:multiply"/><path d="M222.198 88.328l15.609 15.117a.472.472 0 0 1 .01.668l-9.201 9.501a.472.472 0 0 1-.668.01l-15.609-15.117a.473.473 0 0 1-.01-.667l9.202-9.5a.472.472 0 0 1 .667-.012zm.348 1.653l2.839 10.437c.022.083.153.21.237.23l10.525 2.505-13.601-13.172zm5.72 22.636l8.161-8.426-11.024-2.624a1.285 1.285 0 0 1-.579-.333 1.275 1.275 0 0 1-.351-.568l-2.974-10.937-8.163 8.428 14.93 14.46z" fill="url(#j)" style="mix-blend-mode:multiply"/><path d="M248-3.672C248-9.376 252.602-14 258.28-14c1.872 0 3.627.503 5.139 1.382A10.195 10.195 0 0 1 268.558-14c5.678 0 10.28 4.624 10.28 10.328 0 3.854-2.101 7.214-5.214 8.99-.611 5.117-4.946 9.085-10.205 9.085s-9.594-3.968-10.205-9.086A10.333 10.333 0 0 1 248-3.672zm24.213 9.656a10.215 10.215 0 0 1-3.655.673c-1.871 0-3.627-.503-5.139-1.382a10.192 10.192 0 0 1-5.139 1.382c-1.288 0-2.519-.239-3.655-.673a9.018 9.018 0 0 0 2.434 4.48 8.965 8.965 0 0 0 2.859 1.939c1.109.47 2.286.71 3.501.71a8.905 8.905 0 0 0 3.501-.71 8.963 8.963 0 0 0 2.859-1.938 9.001 9.001 0 0 0 2.434-4.48zm-17.779-1.483a8.901 8.901 0 0 0 3.846.865 8.895 8.895 0 0 0 3.936-.91 10.326 10.326 0 0 1-3.931-7.803 9.085 9.085 0 0 0-1.226 1.031 9.011 9.011 0 0 0-2.625 6.816zm5.141-8.599a9.025 9.025 0 0 0 3.844 7.844 9.04 9.04 0 0 0 3.149-3.9 9.007 9.007 0 0 0 .695-3.944 8.905 8.905 0 0 0-3.844-.865 8.904 8.904 0 0 0-3.844.865zm3.844-2.156c1.286 0 2.518.239 3.653.673a8.984 8.984 0 0 0-2.432-4.481 9.042 9.042 0 0 0-1.221-1.027 9.042 9.042 0 0 0-3.653 5.508 10.208 10.208 0 0 1 3.653-.673zm5.134 2.907a10.326 10.326 0 0 1-3.931 7.804 8.897 8.897 0 0 0 3.936.91 8.9 8.9 0 0 0 3.846-.866 9.007 9.007 0 0 0-.697-3.943 9.052 9.052 0 0 0-3.154-3.905zm-3.931-8.453a10.322 10.322 0 0 1 3.862 6.886 10.333 10.333 0 0 1 5.209 8.664 8.944 8.944 0 0 0 1.225-1.031 9.025 9.025 0 0 0 2.635-6.39 9.025 9.025 0 0 0-2.635-6.391A8.962 8.962 0 0 0 272.059-12a8.898 8.898 0 0 0-3.501-.71 8.895 8.895 0 0 0-3.936.91zm-14.63 4.611a9.008 9.008 0 0 0-.707 3.517c0 1.221.238 2.405.707 3.518a8.985 8.985 0 0 0 1.928 2.873c.38.382.789.727 1.225 1.031a10.333 10.333 0 0 1 5.209-8.664 10.322 10.322 0 0 1 3.862-6.886 8.898 8.898 0 0 0-3.936-.91 8.901 8.901 0 0 0-3.501.71 8.963 8.963 0 0 0-2.859 1.938 8.984 8.984 0 0 0-1.928 2.873z" fill="url(#k)" style="mix-blend-mode:multiply"/><path d="M331.389 9.024l-5.961 4.1-2.555 1.758-5.961 4.101L302-.869 318.18-12l13.209 21.024zm-1.402-.29l-1.101-1.752-5.215 3.588 1.171 1.703 5.145-3.54zm-5.997 4.125l-2.343-3.406-.851.586 2.343 3.406.851-.586zm-1.703 1.171l-1.171-1.703-5.216 3.588 1.243 1.654 5.144-3.539zM303.474-.628l11.805 15.716 5.251-3.612-1.172-1.703a.517.517 0 0 1 .852-.586.517.517 0 0 1 .851-.586.517.517 0 0 1 .852-.586l1.172 1.703 5.25-3.612-10.456-16.643-14.405 9.91z" fill="#fff"/><path d="M319.017 4.153l-4.509-2.172.159 2.535-5.746-2.619 2.23-1.534 3.123-2.148 4.015-2.762.728 8.7zm-8.005-2.439l2.516 1.147-.087-1.395-1.217-.586-1.212.834zm2.193-1.509l4.631 2.231-.429-5.122-4.202 2.891z" fill="#fff"/><g clip-path="url(#l)"><path d="M18.434 100.056a3.305 3.305 0 0 1 4.016-3.229l2.19-2.19-5.944-5.945a2.637 2.637 0 1 1 3.73-3.73l5.944 5.946 6.771-6.771a1.753 1.753 0 0 1 1.243-.515 1.758 1.758 0 0 1 1.243 3.001l-6.771 6.77 6.405 6.405v3.729h-3.73l-6.404-6.404-2.171 2.17c.058.246.089.5.089.763 0 3.743-5.52 4.04-7.346 4.04-1.826 0 .735-2.215.735-4.04zm2.127-14.987c-.47 0-.911.183-1.243.515a1.76 1.76 0 0 0 0 2.486l.621.622 2.486-2.486-.621-.622a1.747 1.747 0 0 0-1.243-.515zm16.445.932a.88.88 0 0 0-.622-1.5.874.874 0 0 0-.621.257l-6.771 6.771 1.242 1.243 6.772-6.77zm-.625 16.647v-.728l-.727.728h.727zm-2.485 0h.514l1.971-1.971v-.515L23.047 86.827l-.935.935L34.15 99.801a.439.439 0 1 1-.621.621L21.49 88.384l-.93.929 13.336 13.335zm-7.39-6.147l-1.243-1.243-1.912 1.912c.52.291.954.718 1.252 1.234l1.903-1.903zm-4.73 6.145c.764-.257 1.353-.593 1.751-.997.43-.436.638-.957.638-1.593a2.41 2.41 0 0 0-.71-1.716 2.43 2.43 0 0 0-4.142 1.716c0 1-.534 1.976-.963 2.76-.063.117-.14.258-.211.395.946-.025 2.38-.141 3.637-.565z" fill="url(#m)" style="mix-blend-mode:multiply"/></g><g clip-path="url(#n)"><path d="M91.145 69.065L52.278 80.077l-2.365-8.346L88.78 60.718l2.365 8.347zm-37.87 9.228l2.74-.778-.394-1.39a.725.725 0 0 1 .498-.894.725.725 0 0 1 .894.499l.393 1.391 2.782-.788-.394-1.39a.723.723 0 1 1 1.391-.395l.394 1.391 2.783-.788-.394-1.391a.723.723 0 1 1 1.39-.394l.395 1.39 2.782-.788-.394-1.39a.724.724 0 0 1 1.391-.395l.394 1.391 2.782-.788-.394-1.39A.723.723 0 0 1 73.705 71l.394 1.391 2.782-.788-.394-1.392a.723.723 0 1 1 1.39-.394h.001l.394 1.391 2.783-.788-.395-1.39a.724.724 0 0 1 1.392-.396v.001l.393 1.391 2.783-.788-.394-1.39v-.001a.724.724 0 0 1 1.39-.395l.395 1.391 2.74-.776-1.575-5.565-36.086 10.225 1.577 5.565z" fill="url(#o)" style="mix-blend-mode:multiply"/></g><path d="M86.248 6.431l11.4-14.124a.394.394 0 0 1 .554-.06l9.826 7.93a.395.395 0 0 1 .059.555l-4.113 5.096 2.139 1.12.099-.123a.395.395 0 0 1 .614.495l-3.965 4.914a.395.395 0 0 1-.614-.496l.099-.123-1.545-1.855-4.114 5.097a.394.394 0 0 1-.554.059l-9.826-7.93a.395.395 0 0 1-.06-.555zm19.359 1.143l-2.136-1.118-2.163 2.68 1.543 1.853 2.756-3.415zM87.11 6.62l7.983 6.443 10.903-13.51-7.983-6.443L87.11 6.62zm14.663.68l5.452-6.755-.614-.495-5.452 6.754-5.452 6.755.615.496 5.451-6.755z" fill="url(#p)" style="mix-blend-mode:multiply"/><path d="M101.218 7.358a.394.394 0 1 1 .496-.614.394.394 0 0 1-.496.614z" fill="url(#q)" style="mix-blend-mode:multiply"/><path d="M98.497-4.978l-7.433 9.21-.001.001a.394.394 0 0 1-.614-.495l7.434-9.212a.395.395 0 1 1 .614.496z" fill="url(#r)" style="mix-blend-mode:multiply"/><path d="M99.725-3.986L95.761.926a.394.394 0 0 1-.614-.495l3.965-4.913a.395.395 0 1 1 .614.496z" fill="url(#s)" style="mix-blend-mode:multiply"/><path d="M100.955-2.995L95.504 3.76a.394.394 0 1 1-.615-.495l5.452-6.755a.394.394 0 1 1 .614.496z" fill="url(#t)" style="mix-blend-mode:multiply"/><path d="M102.182-2.004l-3.469 4.298A.395.395 0 1 1 98.1 1.8l3.468-4.299a.395.395 0 0 1 .614.496z" fill="url(#u)" style="mix-blend-mode:multiply"/><path d="M103.41-1.013L96.968 6.97a.395.395 0 1 1-.614-.496l6.442-7.982a.395.395 0 1 1 .614.495z" fill="url(#v)" style="mix-blend-mode:multiply"/><path d="M104.639-.021l-1.982 2.456a.395.395 0 1 1-.614-.496l1.982-2.456a.394.394 0 1 1 .614.496z" fill="url(#w)" style="mix-blend-mode:multiply"/><path d="M168.82 72.626l3.084-3.246 3.51 10.557-4.656-1.038-6.518-1.454-8.379-1.869 10.356-11.374 2.603 8.424zm4.273 5.215l-1.842-5.537-1.91 2.01.893 2.89 2.859.637zm-4.592-1.024l-2.96-9.583-6.754 7.416 9.714 2.167z" fill="#fff"/><path d="M161.05 52.31l.343-1.536a.777.777 0 0 1 .922-.6.779.779 0 0 1 .582.936l-.343 1.536 3.009.671.342-1.536a.779.779 0 0 1 .923-.6.778.778 0 0 1 .581.935l-.343 1.536 3.008.671.343-1.536a.779.779 0 0 1 .923-.6.778.778 0 0 1 .581.936l-.342 1.536 3.008.67.343-1.535a.778.778 0 0 1 .923-.6.78.78 0 0 1 .581.935l-.343 1.536 3.008.671.343-1.536a.779.779 0 0 1 .923-.6.778.778 0 0 1 .581.935l-.342 1.537 4.512 1.006-7.538 33.796L149 85.1l7.538-33.796 4.512 1.007zm-10.21 31.62l25.57 5.703 6.866-30.786-3.008-.671-.328 1.472a.78.78 0 0 1-.924.6.78.78 0 0 1-.581-.936l.329-1.471-3.008-.671-.329 1.471a.778.778 0 0 1-.923.601.779.779 0 0 1-.581-.936l.328-1.472-3.008-.67-.328 1.471a.78.78 0 0 1-.924.6.779.779 0 0 1-.58-.935l.328-1.472-3.008-.671-.328 1.472a.78.78 0 0 1-.924.6.778.778 0 0 1-.58-.936l.328-1.472-3.009-.67-.328 1.471a.778.778 0 0 1-.924.6.78.78 0 0 1-.58-.935l.329-1.472-3.009-.671-6.866 30.786z" fill="#fff"/><path d="M119.224 32.353l18.451 16.234a.535.535 0 0 1 .048.754L126.43 62.177a.534.534 0 0 1-.754.048l-6.658-5.857-1.637 2.829.16.14a.534.534 0 1 1-.706.803l-6.418-5.647a.534.534 0 0 1 .706-.802l.161.141 2.599-1.983-6.659-5.859a.534.534 0 0 1-.048-.753L118.47 32.4a.534.534 0 0 1 .754-.048zm-2.661 26.124l1.635-2.825-3.5-3.082-2.596 1.982 4.461 3.925zm-1.173-20.958l2.406 2.118 3.53-4.011-2.407-2.118-3.529 4.011zm1.7 2.92l-2.406-2.118-4.941 5.616 2.407 2.117 4.94-5.615zm5.038-4.108l-9.176 10.429 14.44 12.705 9.176-10.429-14.44-12.705zm-4.972 16.975l8.824 7.764.706-.803-8.824-7.764-8.825-7.764-.706.802 8.825 7.765z" fill="url(#x)" style="mix-blend-mode:multiply"/><path d="M117.108 52.552a.534.534 0 1 1 .802.704.534.534 0 0 1-.802-.704z" fill="url(#y)" style="mix-blend-mode:multiply"/><path d="M122.544 49.492l-2.751-2.42 6.21-2.127-.757 3.685 1.821-.58-.856 4.67-1.528-1.345-2.139-1.883zm2.036-2.93l-2.698.925 2.125 1.869.573-2.794zm.92 4.108l.195-1.06-.695.22-.069.34.569.5z" fill="url(#z)" style="mix-blend-mode:multiply"/><path d="M131.948 47.817l.802.706-.706.802-.802-.706.706-.802z" fill="url(#A)" style="mix-blend-mode:multiply"/><path d="M127.537 43.936l.802.705-.706.803-.802-.706.706-.802z" fill="url(#B)" style="mix-blend-mode:multiply"/><path d="M123.125 40.053l.802.707-.706.802-.802-.706.706-.803z" fill="url(#C)" style="mix-blend-mode:multiply"/><path d="M120.3 43.262l.803.706-.706.802-.802-.706.705-.802z" fill="url(#D)" style="mix-blend-mode:multiply"/><path d="M117.477 46.47l.802.707-.706.802-.802-.706.706-.802z" fill="url(#E)" style="mix-blend-mode:multiply"/><path d="M126.3 54.235l.802.706-.706.802-.802-.706.706-.802z" fill="url(#F)" style="mix-blend-mode:multiply"/><path d="M129.124 51.026l.802.706-.705.802-.802-.706.705-.802z" fill="url(#G)" style="mix-blend-mode:multiply"/><path d="M121.888 50.353l.802.706-.706.802-.802-.705.706-.803z" fill="url(#H)" style="mix-blend-mode:multiply"/><circle r="10.079" transform="matrix(-1 0 0 1 12.579 53.688)" stroke="url(#I)" stroke-width="5" style="mix-blend-mode:multiply"/><path d="M19 134.77v-3.175h4.826V126h3.332v5.595h4.826v3.175h-4.826v5.837h-3.332v-5.837H19z" fill="#fff"/><path d="M334.874 126.895c0-1.222 3.332-11.645-9.664-7.977-12.995 3.667-16.994-2.445-19.66-14.225-2.666-11.78-10.441-12.891-16.55-12.67" stroke="url(#J)" stroke-width="8" stroke-linecap="round" stroke-linejoin="round" style="mix-blend-mode:multiply"/><path d="M7.069 2.051c.429.22 3.497 3.253 4.527-1.951 1.03-5.205 3.892-5.509 8.507-4.33 4.615 1.178 6.393-1.343 7.405-3.52" stroke="url(#K)" stroke-width="8" stroke-linecap="round" stroke-linejoin="round" style="mix-blend-mode:multiply"/><circle r="8.05" transform="matrix(-1 0 0 1 243.55 65.55)" stroke="#fff" stroke-width="5"/><defs><linearGradient id="a" x1="200.369" y1="-1.313" x2="232.257" y2="8.086" gradientUnits="userSpaceOnUse"><stop stop-color="#FFC000"/><stop offset="1" stop-color="#FF8A00"/></linearGradient><linearGradient id="b" x1="312.351" y1="61.566" x2="311.322" y2="33.628" gradientUnits="userSpaceOnUse"><stop stop-color="#FFC000"/><stop offset="1" stop-color="#FF8A00"/></linearGradient><linearGradient id="c" x1="316.235" y1="51.513" x2="316.596" y2="42.484" gradientUnits="userSpaceOnUse"><stop stop-color="#FFC000"/><stop offset="1" stop-color="#FF8A00"/></linearGradient><linearGradient id="f" x1="145.285" y1="-4.45" x2="170.023" y2="2.58" gradientUnits="userSpaceOnUse"><stop stop-color="#FFC000"/><stop offset="1" stop-color="#FF8A00"/></linearGradient><linearGradient id="g" x1="224.197" y1="106.078" x2="223.096" y2="109.423" gradientUnits="userSpaceOnUse"><stop stop-color="#FFC000"/><stop offset="1" stop-color="#FF8A00"/></linearGradient><linearGradient id="h" x1="228.19" y1="107.316" x2="228.389" y2="109.898" gradientUnits="userSpaceOnUse"><stop stop-color="#FFC000"/><stop offset="1" stop-color="#FF8A00"/></linearGradient><linearGradient id="i" x1="218.162" y1="94.673" x2="221.331" y2="102.49" gradientUnits="userSpaceOnUse"><stop stop-color="#FFC000"/><stop offset="1" stop-color="#FF8A00"/></linearGradient><linearGradient id="j" x1="221.832" y1="88.451" x2="230.665" y2="111.864" gradientUnits="userSpaceOnUse"><stop stop-color="#FFC000"/><stop offset="1" stop-color="#FF8A00"/></linearGradient><linearGradient id="k" x1="248.401" y1="-13.313" x2="282.534" y2="-2.39" gradientUnits="userSpaceOnUse"><stop stop-color="#FFC000"/><stop offset="1" stop-color="#FF8A00"/></linearGradient><linearGradient id="m" x1="17.317" y1="84.117" x2="40.888" y2="91.277" gradientUnits="userSpaceOnUse"><stop stop-color="#FFC000"/><stop offset="1" stop-color="#FF8A00"/></linearGradient><linearGradient id="o" x1="93.183" y1="63.693" x2="64.165" y2="92.108" gradientUnits="userSpaceOnUse"><stop stop-color="#FFC000"/><stop offset="1" stop-color="#FF8A00"/></linearGradient><linearGradient id="p" x1="86.467" y1="6.798" x2="104.942" y2="-4.962" gradientUnits="userSpaceOnUse"><stop stop-color="#FFC000"/><stop offset="1" stop-color="#FF8A00"/></linearGradient><linearGradient id="q" x1="100.932" y1="7.114" x2="101.691" y2="6.589" gradientUnits="userSpaceOnUse"><stop stop-color="#FFC000"/><stop offset="1" stop-color="#FF8A00"/></linearGradient><linearGradient id="r" x1="90.319" y1="3.929" x2="93.169" y2="5.377" gradientUnits="userSpaceOnUse"><stop stop-color="#FFC000"/><stop offset="1" stop-color="#FF8A00"/></linearGradient><linearGradient id="s" x1="94.972" y1=".678" x2="97.875" y2="1.635" gradientUnits="userSpaceOnUse"><stop stop-color="#FFC000"/><stop offset="1" stop-color="#FF8A00"/></linearGradient><linearGradient id="t" x1="94.734" y1="3.487" x2="97.625" y2="4.722" gradientUnits="userSpaceOnUse"><stop stop-color="#FFC000"/><stop offset="1" stop-color="#FF8A00"/></linearGradient><linearGradient id="u" x1="97.917" y1="2.054" x2="100.81" y2="2.88" gradientUnits="userSpaceOnUse"><stop stop-color="#FFC000"/><stop offset="1" stop-color="#FF8A00"/></linearGradient><linearGradient id="v" x1="96.21" y1="6.682" x2="99.082" y2="8.039" gradientUnits="userSpaceOnUse"><stop stop-color="#FFC000"/><stop offset="1" stop-color="#FF8A00"/></linearGradient><linearGradient id="w" x1="101.841" y1="2.219" x2="104.536" y2="2.442" gradientUnits="userSpaceOnUse"><stop stop-color="#FFC000"/><stop offset="1" stop-color="#FF8A00"/></linearGradient><linearGradient id="x" x1="118.715" y1="32.628" x2="133.561" y2="58.299" gradientUnits="userSpaceOnUse"><stop stop-color="#FFC000"/><stop offset="1" stop-color="#FF8A00"/></linearGradient><linearGradient id="y" x1="117.455" y1="52.179" x2="118.122" y2="53.237" gradientUnits="userSpaceOnUse"><stop stop-color="#FFC000"/><stop offset="1" stop-color="#FF8A00"/></linearGradient><linearGradient id="z" x1="123.55" y1="42.971" x2="127.553" y2="51.631" gradientUnits="userSpaceOnUse"><stop stop-color="#FFC000"/><stop offset="1" stop-color="#FF8A00"/></linearGradient><linearGradient id="A" x1="131.941" y1="47.846" x2="132.608" y2="48.903" gradientUnits="userSpaceOnUse"><stop stop-color="#FFC000"/><stop offset="1" stop-color="#FF8A00"/></linearGradient><linearGradient id="B" x1="127.53" y1="43.964" x2="128.197" y2="45.022" gradientUnits="userSpaceOnUse"><stop stop-color="#FFC000"/><stop offset="1" stop-color="#FF8A00"/></linearGradient><linearGradient id="C" x1="123.118" y1="40.082" x2="123.785" y2="41.14" gradientUnits="userSpaceOnUse"><stop stop-color="#FFC000"/><stop offset="1" stop-color="#FF8A00"/></linearGradient><linearGradient id="D" x1="120.294" y1="43.291" x2="120.961" y2="44.349" gradientUnits="userSpaceOnUse"><stop stop-color="#FFC000"/><stop offset="1" stop-color="#FF8A00"/></linearGradient><linearGradient id="E" x1="117.47" y1="46.499" x2="118.137" y2="47.558" gradientUnits="userSpaceOnUse"><stop stop-color="#FFC000"/><stop offset="1" stop-color="#FF8A00"/></linearGradient><linearGradient id="F" x1="126.293" y1="54.264" x2="126.96" y2="55.321" gradientUnits="userSpaceOnUse"><stop stop-color="#FFC000"/><stop offset="1" stop-color="#FF8A00"/></linearGradient><linearGradient id="G" x1="129.118" y1="51.055" x2="129.785" y2="52.112" gradientUnits="userSpaceOnUse"><stop stop-color="#FFC000"/><stop offset="1" stop-color="#FF8A00"/></linearGradient><linearGradient id="H" x1="121.882" y1="50.382" x2="122.549" y2="51.44" gradientUnits="userSpaceOnUse"><stop stop-color="#FFC000"/><stop offset="1" stop-color="#FF8A00"/></linearGradient><linearGradient id="I" x1="24.83" y1=".608" x2="-3.414" y2="8.933" gradientUnits="userSpaceOnUse"><stop stop-color="#FFC000"/><stop offset="1" stop-color="#FF8A00"/></linearGradient><linearGradient id="J" x1="289.602" y1="92.844" x2="338.57" y2="111.976" gradientUnits="userSpaceOnUse"><stop stop-color="#FFC000"/><stop offset="1" stop-color="#FF8A00"/></linearGradient><linearGradient id="K" x1="27.113" y1="-7.687" x2="11.691" y2="6.062" gradientUnits="userSpaceOnUse"><stop stop-color="#FFC000"/><stop offset="1" stop-color="#FF8A00"/></linearGradient><clipPath id="d"><path fill="#fff" transform="matrix(-1 0 0 1 134.911 81)" d="M0 0h21.911v22.723H0z"/></clipPath><clipPath id="e"><path fill="#fff" transform="matrix(-1 0 0 1 166.911 -5)" d="M0 0h21.911v22.723H0z"/></clipPath><clipPath id="l"><path fill="#fff" transform="matrix(-1 0 0 1 38.142 83.309)" d="M0 0h21.099v21.099H0z"/></clipPath><clipPath id="n"><path fill="#fff" transform="scale(1 -1) rotate(60.82 118.69 18.78)" d="M0 0h34.699v34.699H0z"/></clipPath></defs></svg>