<svg width="380" height="680" viewBox="0 0 380 680" fill="none" xmlns="http://www.w3.org/2000/svg"><path fill-rule="evenodd" clip-rule="evenodd" d="M70.04 297.182c30.365-78.294 96.686-126.256 169.572-132.312 45.827-3.81 180.725 34.392 226.004 126.206 63.156 128.087-42.618 178.466-134.626 142.112-126.678-50.054-42.239 94.823-145.366 146.676-81.77 41.096-37.257-63.293-108.921-115.673-52.735-38.536-30.269-106.157-6.663-167.009z" fill="#FFB42D"/><path fill-rule="evenodd" clip-rule="evenodd" d="M532.953 540.669c7.621 46.458-57.428 121.52-132.409 102.7-74.968-18.816-121.429-113.465-129.05-159.923-7.634-46.461 49.306 18.388 121.074-.394s132.75 11.156 140.385 57.617z" fill="#FFD049"/><path fill-rule="evenodd" clip-rule="evenodd" d="M214.772 59.05c68.163-21.661 132.699 30.245 154.122 98.633 21.422 68.388 49.82 206.716-70.005 169.87-93.308-28.691-252.757-214.902-84.117-268.503z" fill="#6B6B6B"/><path fill-rule="evenodd" clip-rule="evenodd" d="M92.304 376.843c18.915-5.894 36.884 8.421 42.892 27.227 6.008 18.806 14.012 56.833-19.301 46.609-25.942-7.961-70.387-59.252-23.59-73.836z" fill="#F2C94C"/><mask id="a" maskUnits="userSpaceOnUse" x="196" y="252" width="164" height="162"><path fill-rule="evenodd" clip-rule="evenodd" d="M308.973 388.771c-31.48 13.855-86.044 7.434-99.721-24.085-13.677-31.521 18.707-76.204 50.174-90.063 31.481-13.854 68.088.466 81.765 31.985 13.677 31.521-.751 68.304-32.218 82.163z" fill="#fff"/></mask><g mask="url(#a)" fill-rule="evenodd" clip-rule="evenodd" fill="#fff"><path d="M307.567 251.455c-.416 1.605-2.711 2.399-4.311 1.984a2.996 2.996 0 0 1-2.141-3.658c.416-1.605 2.315-3.592 3.914-3.177 1.6.415 2.955 3.246 2.538 4.851zm13.32 3.455c-.417 1.606-2.712 2.399-4.298 1.988a2.997 2.997 0 0 1-2.141-3.658c.416-1.605 2.315-3.592 3.914-3.177 1.586.411 2.941 3.242 2.525 4.847zm13.319 3.455c-.416 1.606-2.698 2.403-4.297 1.988a2.998 2.998 0 0 1-2.142-3.658c.417-1.605 2.315-3.592 3.915-3.177 1.599.414 2.941 3.242 2.524 4.847zm13.333 3.459c-.416 1.605-2.712 2.399-4.311 1.984-1.586-.411-2.544-2.049-2.128-3.654.417-1.606 2.315-3.593 3.901-3.181 1.6.414 2.955 3.246 2.538 4.851zm13.32 3.455c-.417 1.605-2.698 2.402-4.298 1.988a2.997 2.997 0 0 1-2.141-3.658c.416-1.606 2.315-3.593 3.914-3.178 1.6.415 2.941 3.243 2.525 4.848zm-153.083-12.907c-.416 1.605-2.712 2.399-4.311 1.984-1.586-.411-2.544-2.049-2.128-3.654.417-1.605 2.315-3.592 3.901-3.181 1.599.415 2.955 3.246 2.538 4.851zm56.614 1.015c-.416 1.605-2.698 2.403-4.297 1.988a2.998 2.998 0 0 1-2.142-3.658c.416-1.605 2.315-3.592 3.915-3.178 1.599.415 2.941 3.243 2.524 4.848zm13.333 3.459c-.416 1.605-2.712 2.399-4.311 1.984-1.586-.411-2.544-2.049-2.128-3.655.417-1.605 2.315-3.592 3.901-3.181 1.6.415 2.955 3.247 2.538 4.852zm13.32 3.455c-.417 1.605-2.698 2.402-4.298 1.987a2.996 2.996 0 0 1-2.141-3.658c.416-1.605 2.315-3.592 3.914-3.177 1.6.415 2.941 3.242 2.525 4.848zm13.333 3.458c-.417 1.606-2.712 2.399-4.312 1.984a2.997 2.997 0 0 1-2.141-3.658c.416-1.605 2.315-3.592 3.915-3.177 1.599.415 2.954 3.246 2.538 4.851zm13.319 3.455c-.416 1.606-2.712 2.399-4.297 1.988a2.998 2.998 0 0 1-2.142-3.658c.417-1.605 2.315-3.592 3.915-3.177 1.585.411 2.941 3.242 2.524 4.847zm13.32 3.455c-.417 1.606-2.699 2.403-4.298 1.988a2.997 2.997 0 0 1-2.141-3.658c.416-1.605 2.315-3.592 3.914-3.177 1.6.415 2.941 3.242 2.525 4.847zm13.333 3.459c-.417 1.605-2.712 2.399-4.312 1.984-1.585-.411-2.544-2.049-2.127-3.654.416-1.606 2.315-3.593 3.9-3.181 1.6.415 2.955 3.246 2.539 4.851zm13.319 3.455c-.416 1.605-2.698 2.403-4.297 1.988a2.998 2.998 0 0 1-2.142-3.658c.417-1.606 2.315-3.593 3.915-3.178 1.599.415 2.941 3.243 2.524 4.848zm-136.44-22.26c-.417 1.605-2.699 2.402-4.298 1.987a2.998 2.998 0 0 1-2.142-3.658c.417-1.605 2.316-3.592 3.915-3.177 1.599.415 2.941 3.242 2.525 4.848zm13.333 3.458c-.417 1.605-2.712 2.399-4.312 1.984-1.599-.415-2.544-2.049-2.127-3.654.416-1.605 2.301-3.596 3.9-3.181 1.6.415 2.955 3.246 2.539 4.851zm13.319 3.455c-.416 1.605-2.712 2.399-4.297 1.988a2.998 2.998 0 0 1-2.142-3.658c.416-1.605 2.315-3.592 3.915-3.178 1.585.412 2.941 3.243 2.524 4.848zm13.319 3.455c-.416 1.605-2.698 2.403-4.297 1.988a2.998 2.998 0 0 1-2.142-3.658c.417-1.605 2.316-3.592 3.915-3.178 1.599.415 2.941 3.243 2.524 4.848zm39.986 10.372c-.416 1.606-2.712 2.399-4.311 1.985a2.998 2.998 0 0 1-2.142-3.658c.417-1.606 2.315-3.593 3.915-3.178 1.599.415 2.955 3.246 2.538 4.851zm39.972 10.369c-.416 1.605-2.712 2.399-4.311 1.984-1.586-.411-2.544-2.049-2.128-3.654.416-1.606 2.315-3.593 3.901-3.181 1.599.415 2.955 3.246 2.538 4.851zm13.32 3.455c-.417 1.605-2.699 2.403-4.298 1.988a2.998 2.998 0 0 1-2.142-3.658c.417-1.605 2.316-3.593 3.915-3.178 1.599.415 2.941 3.243 2.525 4.848zm-149.76-25.715c-.417 1.605-2.712 2.399-4.312 1.984-1.585-.411-2.544-2.049-2.128-3.655.417-1.605 2.316-3.592 3.901-3.181 1.6.415 2.955 3.246 2.539 4.852zm13.319 3.455c-.416 1.605-2.698 2.402-4.298 1.987a2.997 2.997 0 0 1-2.141-3.658c.416-1.605 2.315-3.592 3.915-3.177 1.599.415 2.94 3.242 2.524 4.848zm13.333 3.458c-.416 1.606-2.712 2.399-4.311 1.984-1.6-.414-2.544-2.049-2.128-3.654.416-1.605 2.301-3.596 3.901-3.181 1.599.415 2.955 3.246 2.538 4.851zm13.319 3.455c-.416 1.606-2.711 2.399-4.297 1.988a2.998 2.998 0 0 1-2.142-3.658c.417-1.605 2.316-3.592 3.915-3.177 1.586.411 2.941 3.242 2.524 4.847zm26.653 6.914c-.416 1.605-2.712 2.399-4.311 1.984-1.586-.411-2.544-2.049-2.128-3.654.416-1.606 2.315-3.593 3.901-3.181 1.599.414 2.954 3.246 2.538 4.851zm13.319 3.455c-.416 1.605-2.698 2.402-4.297 1.988a2.998 2.998 0 0 1-2.142-3.658c.417-1.606 2.315-3.593 3.915-3.178 1.599.415 2.941 3.243 2.524 4.848zm13.334 3.458c-.417 1.606-2.712 2.399-4.312 1.985a2.997 2.997 0 0 1-2.141-3.658c.416-1.606 2.315-3.593 3.914-3.178 1.6.415 2.955 3.246 2.539 4.851zm53.291 13.824c-.416 1.605-2.698 2.403-4.298 1.988a2.997 2.997 0 0 1-2.141-3.658c.416-1.605 2.315-3.593 3.914-3.178 1.6.415 2.941 3.243 2.525 4.848zm13.333 3.459c-.416 1.605-2.712 2.399-4.311 1.984a2.998 2.998 0 0 1-2.142-3.658c.417-1.605 2.315-3.593 3.915-3.178 1.599.415 2.954 3.246 2.538 4.852zm-163.093-29.174c-.416 1.605-2.712 2.399-4.311 1.984-1.586-.411-2.545-2.049-2.128-3.655.416-1.605 2.315-3.592 3.901-3.181 1.599.415 2.954 3.247 2.538 4.852zm13.319 3.455c-.416 1.605-2.698 2.402-4.297 1.988a2.998 2.998 0 0 1-2.142-3.658c.417-1.606 2.315-3.593 3.915-3.178 1.599.415 2.941 3.243 2.524 4.848zm13.333 3.458c-.416 1.606-2.711 2.399-4.311 1.984-1.599-.414-2.544-2.049-2.128-3.654.417-1.605 2.302-3.596 3.901-3.181 1.6.415 2.955 3.246 2.538 4.851zm26.639 6.91c-.416 1.606-2.698 2.403-4.297 1.988a2.998 2.998 0 0 1-2.142-3.658c.416-1.605 2.315-3.592 3.915-3.177 1.599.415 2.941 3.242 2.524 4.847zm13.333 3.459c-.416 1.605-2.712 2.399-4.311 1.984-1.586-.411-2.544-2.049-2.128-3.654.417-1.606 2.315-3.593 3.901-3.181 1.6.415 2.955 3.246 2.538 4.851zm13.32 3.455c-.417 1.605-2.698 2.403-4.298 1.988a2.997 2.997 0 0 1-2.141-3.658c.416-1.606 2.315-3.593 3.914-3.178 1.6.415 2.941 3.243 2.525 4.848zm13.333 3.459c-.417 1.605-2.712 2.399-4.312 1.984a2.998 2.998 0 0 1-2.141-3.658c.416-1.605 2.315-3.593 3.915-3.178 1.599.415 2.954 3.246 2.538 4.852zm13.319 3.455c-.416 1.605-2.712 2.399-4.297 1.987a2.998 2.998 0 0 1-2.142-3.658c.417-1.605 2.315-3.592 3.915-3.177 1.585.411 2.941 3.242 2.524 4.848zm13.32 3.455c-.417 1.605-2.698 2.402-4.298 1.987a2.996 2.996 0 0 1-2.141-3.658c.416-1.605 2.315-3.592 3.914-3.177 1.6.415 2.941 3.242 2.525 4.848zm39.985 10.372c-.416 1.605-2.712 2.399-4.311 1.984a2.997 2.997 0 0 1-2.141-3.658c.416-1.605 2.315-3.592 3.914-3.178 1.6.415 2.955 3.246 2.538 4.852zM198.332 288.78c-.416 1.605-2.712 2.399-4.311 1.984-1.586-.411-2.544-2.049-2.128-3.654.417-1.606 2.315-3.593 3.901-3.181 1.599.414 2.955 3.246 2.538 4.851zm13.32 3.455c-.417 1.605-2.698 2.402-4.298 1.988a2.997 2.997 0 0 1-2.141-3.658c.416-1.606 2.315-3.593 3.914-3.178 1.6.415 2.941 3.243 2.525 4.848zm13.333 3.458c-.417 1.606-2.712 2.399-4.312 1.985-1.599-.415-2.544-2.05-2.127-3.655.416-1.605 2.301-3.596 3.901-3.181 1.599.415 2.954 3.246 2.538 4.851zm13.319 3.455c-.416 1.606-2.712 2.399-4.297 1.988a2.998 2.998 0 0 1-2.142-3.658c.416-1.605 2.315-3.592 3.915-3.177 1.585.411 2.941 3.242 2.524 4.847zm13.32 3.455c-.417 1.606-2.699 2.403-4.298 1.988a2.997 2.997 0 0 1-2.141-3.658c.416-1.605 2.315-3.592 3.914-3.177 1.6.415 2.941 3.242 2.525 4.847zm13.333 3.459c-.417 1.605-2.712 2.399-4.312 1.984-1.585-.411-2.544-2.049-2.127-3.654.416-1.605 2.315-3.593 3.9-3.181 1.6.415 2.955 3.246 2.539 4.851zm13.319 3.455c-.416 1.605-2.698 2.403-4.297 1.988a2.998 2.998 0 0 1-2.142-3.658c.416-1.605 2.315-3.593 3.915-3.178 1.599.415 2.94 3.243 2.524 4.848zm13.333 3.459c-.416 1.605-2.712 2.399-4.311 1.984a2.998 2.998 0 0 1-2.142-3.658c.417-1.605 2.316-3.593 3.915-3.178 1.599.415 2.955 3.246 2.538 4.852zm13.32 3.455c-.417 1.605-2.712 2.399-4.298 1.987a2.996 2.996 0 0 1-2.141-3.658c.416-1.605 2.315-3.592 3.914-3.177 1.586.411 2.941 3.242 2.525 4.848zm13.319 3.455c-.416 1.605-2.698 2.402-4.298 1.987a2.997 2.997 0 0 1-2.141-3.658c.416-1.605 2.315-3.592 3.915-3.177 1.599.415 2.94 3.242 2.524 4.848zm13.333 3.458c-.416 1.606-2.712 2.399-4.311 1.984-1.586-.411-2.544-2.049-2.128-3.654.416-1.605 2.315-3.592 3.901-3.181 1.599.415 2.955 3.246 2.538 4.851zm13.32 3.455c-.417 1.606-2.699 2.403-4.298 1.988a2.997 2.997 0 0 1-2.141-3.658c.416-1.605 2.315-3.592 3.914-3.177 1.6.414 2.941 3.242 2.525 4.847zm-33.72-34.472c-.416 1.605-2.712 2.399-4.298 1.988a2.998 2.998 0 0 1-2.141-3.658c.416-1.605 2.315-3.593 3.915-3.178 1.585.412 2.94 3.243 2.524 4.848zm13.319 3.455c-.416 1.605-2.698 2.403-4.297 1.988a2.998 2.998 0 0 1-2.142-3.658c.417-1.605 2.316-3.593 3.915-3.178 1.599.415 2.941 3.243 2.524 4.848zm10.142 15.763c-.416 1.605-2.712 2.399-4.311 1.984-1.586-.411-2.545-2.049-2.128-3.655.416-1.605 2.315-3.592 3.901-3.181 1.599.415 2.954 3.247 2.538 4.852zm23.461 19.216c-.416 1.605-2.712 2.399-4.311 1.984a2.998 2.998 0 0 1-2.142-3.658c.417-1.605 2.316-3.592 3.915-3.177 1.599.415 2.955 3.246 2.538 4.851zM208.46 304.539c-.416 1.605-2.698 2.403-4.298 1.988a2.998 2.998 0 0 1-2.141-3.658c.416-1.606 2.315-3.594 3.915-3.179 1.599.415 2.94 3.244 2.524 4.849zm26.653 6.914c-.417 1.605-2.712 2.399-4.298 1.987a2.998 2.998 0 0 1-2.142-3.658c.417-1.605 2.316-3.594 3.915-3.179 1.586.412 2.941 3.244 2.525 4.85zm13.319 3.455c-.416 1.605-2.698 2.402-4.298 1.987a2.997 2.997 0 0 1-2.141-3.658c.416-1.605 2.315-3.593 3.915-3.179 1.599.415 2.94 3.244 2.524 4.85zm13.333 3.458c-.416 1.605-2.712 2.399-4.311 1.984-1.586-.411-2.544-2.049-2.128-3.654.416-1.605 2.316-3.594 3.901-3.183 1.6.415 2.955 3.248 2.538 4.853zm13.319 3.455c-.416 1.605-2.698 2.403-4.297 1.988a2.998 2.998 0 0 1-2.142-3.658c.417-1.605 2.316-3.594 3.915-3.179 1.6.415 2.941 3.244 2.524 4.849zm13.334 3.459c-.417 1.605-2.712 2.399-4.312 1.984a2.997 2.997 0 0 1-2.141-3.658c.416-1.605 2.315-3.594 3.915-3.179 1.599.415 2.954 3.247 2.538 4.853zm13.319 3.455c-.416 1.605-2.712 2.399-4.298 1.987a2.997 2.997 0 0 1-2.141-3.658c.416-1.605 2.315-3.593 3.915-3.178 1.586.411 2.94 3.243 2.524 4.849zm13.319 3.455c-.416 1.605-2.698 2.402-4.297 1.987a2.997 2.997 0 0 1-2.142-3.658c.417-1.605 2.316-3.593 3.915-3.178 1.6.414 2.941 3.243 2.524 4.849zm13.334 3.458c-.417 1.606-2.712 2.399-4.312 1.984-1.586-.411-2.544-2.049-2.128-3.654.417-1.605 2.316-3.594 3.902-3.182 1.599.414 2.954 3.247 2.538 4.852zm13.319 3.455c-.416 1.606-2.698 2.403-4.298 1.988a2.997 2.997 0 0 1-2.141-3.658c.416-1.605 2.315-3.594 3.915-3.179 1.599.415 2.94 3.244 2.524 4.849zm13.333 3.459c-.416 1.605-2.712 2.399-4.311 1.984a2.998 2.998 0 0 1-2.142-3.658c.417-1.605 2.316-3.594 3.915-3.179 1.6.415 2.954 3.248 2.538 4.853zm-149.774-25.719c-.416 1.605-2.698 2.403-4.297 1.988a2.998 2.998 0 0 1-2.142-3.658c.417-1.606 2.316-3.594 3.915-3.179 1.6.415 2.941 3.244 2.524 4.849zm26.653 6.914c-.417 1.605-2.712 2.399-4.298 1.987a2.996 2.996 0 0 1-2.141-3.658c.416-1.605 2.315-3.593 3.915-3.179 1.585.412 2.94 3.244 2.524 4.85zm13.319 3.455c-.416 1.605-2.698 2.402-4.297 1.987a2.997 2.997 0 0 1-2.142-3.658c.417-1.605 2.316-3.593 3.915-3.178 1.6.414 2.941 3.243 2.524 4.849zm13.333 3.458c-.416 1.605-2.711 2.399-4.311 1.984-1.586-.411-2.544-2.049-2.128-3.654.417-1.605 2.316-3.594 3.902-3.183 1.599.415 2.954 3.248 2.537 4.853zm13.32 3.455c-.417 1.605-2.698 2.403-4.298 1.988a2.997 2.997 0 0 1-2.141-3.658c.416-1.605 2.315-3.594 3.915-3.179 1.599.415 2.94 3.244 2.524 4.849zm13.333 3.459c-.416 1.605-2.712 2.399-4.311 1.984a2.998 2.998 0 0 1-2.142-3.658c.417-1.605 2.316-3.594 3.915-3.179 1.6.415 2.954 3.248 2.538 4.853zm13.319 3.455c-.416 1.605-2.712 2.399-4.297 1.988a2.998 2.998 0 0 1-2.142-3.658c.417-1.606 2.316-3.594 3.915-3.179 1.586.411 2.941 3.244 2.524 4.849zm13.32 3.455c-.417 1.605-2.698 2.402-4.298 1.987a2.996 2.996 0 0 1-2.141-3.658c.416-1.605 2.315-3.593 3.915-3.178 1.599.415 2.94 3.244 2.524 4.849zm13.333 3.458c-.416 1.606-2.712 2.399-4.311 1.985-1.586-.412-2.544-2.05-2.128-3.655.416-1.605 2.315-3.594 3.901-3.182 1.599.415 2.954 3.247 2.538 4.852zm13.319 3.455c-.416 1.606-2.698 2.403-4.297 1.988a2.998 2.998 0 0 1-2.142-3.658c.417-1.605 2.316-3.594 3.915-3.179 1.6.415 2.941 3.244 2.524 4.849zm13.333 3.459c-.416 1.605-2.712 2.399-4.311 1.984a2.997 2.997 0 0 1-2.141-3.658c.416-1.605 2.315-3.594 3.915-3.179 1.599.415 2.954 3.248 2.537 4.853zm13.32 3.455c-.416 1.605-2.712 2.399-4.298 1.988a2.997 2.997 0 0 1-2.141-3.658c.416-1.605 2.315-3.594 3.915-3.179 1.585.411 2.94 3.244 2.524 4.849zm-163.093-29.174c-.417 1.605-2.698 2.403-4.298 1.988a2.997 2.997 0 0 1-2.141-3.658c.416-1.605 2.315-3.594 3.915-3.179 1.599.415 2.94 3.244 2.524 4.849zm13.333 3.459c-.416 1.605-2.712 2.399-4.311 1.984-1.6-.415-2.545-2.049-2.128-3.655.416-1.605 2.302-3.597 3.901-3.182 1.599.415 2.954 3.247 2.538 4.853zm13.319 3.455c-.416 1.605-2.712 2.399-4.297 1.987a2.997 2.997 0 0 1-2.142-3.658c.417-1.605 2.316-3.593 3.915-3.178 1.586.411 2.941 3.243 2.524 4.849zm13.32 3.455c-.417 1.605-2.698 2.402-4.298 1.987a2.996 2.996 0 0 1-2.141-3.658c.416-1.605 2.315-3.593 3.915-3.178 1.599.415 2.94 3.243 2.524 4.849zm13.333 3.458c-.417 1.605-2.712 2.399-4.312 1.984-1.585-.411-2.544-2.049-2.127-3.654.416-1.605 2.315-3.594 3.901-3.182 1.599.414 2.954 3.247 2.538 4.852zm13.319 3.455c-.416 1.606-2.698 2.403-4.297 1.988a2.998 2.998 0 0 1-2.142-3.658c.416-1.605 2.316-3.594 3.915-3.179 1.599.415 2.941 3.244 2.524 4.849zm13.333 3.459c-.416 1.605-2.712 2.399-4.311 1.984a2.997 2.997 0 0 1-2.141-3.658c.416-1.605 2.315-3.594 3.914-3.179 1.6.415 2.955 3.248 2.538 4.853zm13.32 3.455c-.417 1.605-2.712 2.399-4.298 1.988a2.997 2.997 0 0 1-2.141-3.658c.416-1.606 2.315-3.594 3.915-3.179 1.585.411 2.94 3.244 2.524 4.849zm13.319 3.455c-.416 1.605-2.698 2.402-4.298 1.988a2.998 2.998 0 0 1-2.141-3.658c.416-1.606 2.316-3.594 3.915-3.179 1.599.415 2.94 3.244 2.524 4.849zm13.333 3.458c-.416 1.606-2.712 2.399-4.311 1.985-1.586-.412-2.544-2.05-2.128-3.655.417-1.605 2.316-3.594 3.901-3.182 1.6.415 2.955 3.247 2.538 4.852zm13.32 3.456c-.417 1.605-2.699 2.402-4.298 1.987a2.997 2.997 0 0 1-2.141-3.658c.416-1.605 2.315-3.593 3.915-3.179 1.599.415 2.94 3.244 2.524 4.85zm13.333 3.458c-.417 1.605-2.712 2.399-4.312 1.984a2.998 2.998 0 0 1-2.141-3.658c.416-1.605 2.315-3.594 3.915-3.179 1.599.415 2.954 3.248 2.538 4.853zm13.319 3.455c-.416 1.605-2.712 2.399-4.297 1.988a2.998 2.998 0 0 1-2.142-3.658c.417-1.605 2.316-3.594 3.915-3.179 1.586.411 2.941 3.244 2.524 4.849zm-163.093-29.174c-.416 1.605-2.698 2.403-4.297 1.988a2.998 2.998 0 0 1-2.142-3.658c.416-1.605 2.316-3.594 3.915-3.179 1.599.415 2.941 3.244 2.524 4.849zm26.653 6.914c-.417 1.605-2.712 2.399-4.298 1.987a2.996 2.996 0 0 1-2.141-3.658c.416-1.605 2.315-3.593 3.914-3.178 1.586.411 2.941 3.243 2.525 4.849zm13.319 3.455c-.416 1.605-2.698 2.402-4.298 1.988a2.998 2.998 0 0 1-2.141-3.658c.416-1.606 2.315-3.594 3.915-3.179 1.599.415 2.94 3.244 2.524 4.849zm13.333 3.458c-.416 1.606-2.712 2.399-4.311 1.984-1.586-.411-2.544-2.049-2.128-3.654.416-1.605 2.316-3.594 3.901-3.182 1.6.415 2.955 3.247 2.538 4.852zm13.32 3.455c-.417 1.606-2.699 2.403-4.298 1.988a2.998 2.998 0 0 1-2.142-3.658c.417-1.605 2.316-3.594 3.915-3.179 1.6.415 2.941 3.244 2.525 4.849zm13.333 3.459c-.417 1.605-2.712 2.399-4.312 1.984a2.997 2.997 0 0 1-2.141-3.658c.416-1.605 2.315-3.594 3.915-3.179 1.599.415 2.954 3.248 2.538 4.853zm13.319 3.455c-.416 1.605-2.712 2.399-4.298 1.988a2.998 2.998 0 0 1-2.141-3.658c.416-1.606 2.316-3.594 3.915-3.179 1.586.411 2.94 3.244 2.524 4.849zm13.319 3.455c-.416 1.605-2.698 2.403-4.297 1.988a2.998 2.998 0 0 1-2.142-3.658c.417-1.606 2.316-3.594 3.915-3.179 1.6.415 2.941 3.244 2.524 4.849zm13.334 3.459c-.417 1.605-2.712 2.399-4.312 1.984-1.585-.412-2.544-2.05-2.127-3.655.416-1.605 2.315-3.593 3.901-3.182 1.599.415 2.954 3.247 2.538 4.853zm26.652 6.913c-.416 1.605-2.712 2.399-4.311 1.984a2.997 2.997 0 0 1-2.142-3.658c.417-1.605 2.316-3.593 3.915-3.179 1.6.415 2.955 3.248 2.538 4.853zm13.32 3.455c-.417 1.605-2.712 2.399-4.298 1.988a2.997 2.997 0 0 1-2.141-3.658c.416-1.605 2.315-3.594 3.914-3.179 1.586.411 2.941 3.244 2.525 4.849zm-163.093-29.175c-.417 1.605-2.698 2.402-4.298 1.988a2.997 2.997 0 0 1-2.141-3.658c.416-1.606 2.315-3.594 3.915-3.179 1.599.415 2.94 3.244 2.524 4.849zm26.652 6.913c-.416 1.606-2.712 2.399-4.297 1.988a2.998 2.998 0 0 1-2.142-3.658c.417-1.605 2.316-3.594 3.915-3.179 1.586.412 2.941 3.244 2.524 4.849zm13.32 3.455c-.417 1.606-2.698 2.403-4.298 1.988a2.997 2.997 0 0 1-2.141-3.658c.416-1.605 2.315-3.594 3.915-3.179 1.599.415 2.94 3.244 2.524 4.849zm13.333 3.459c-.417 1.605-2.712 2.399-4.312 1.984-1.585-.411-2.544-2.049-2.127-3.654.416-1.605 2.315-3.594 3.901-3.183 1.599.415 2.954 3.248 2.538 4.853zm13.319 3.455c-.416 1.605-2.698 2.403-4.297 1.988a2.998 2.998 0 0 1-2.142-3.658c.417-1.606 2.316-3.594 3.915-3.179 1.6.415 2.941 3.244 2.524 4.849zm13.333 3.459c-.416 1.605-2.711 2.399-4.311 1.984a2.997 2.997 0 0 1-2.141-3.658c.416-1.605 2.315-3.594 3.915-3.179 1.599.415 2.954 3.247 2.537 4.853zm13.32 3.455c-.417 1.605-2.712 2.399-4.298 1.987a2.996 2.996 0 0 1-2.141-3.658c.416-1.605 2.315-3.593 3.915-3.179 1.585.412 2.94 3.244 2.524 4.85zm13.319 3.455c-.416 1.605-2.698 2.402-4.297 1.987a2.997 2.997 0 0 1-2.142-3.658c.416-1.605 2.316-3.593 3.915-3.178 1.599.414 2.941 3.243 2.524 4.849zm39.986 10.372c-.417 1.605-2.712 2.399-4.312 1.984a2.998 2.998 0 0 1-2.141-3.658c.416-1.605 2.315-3.594 3.915-3.179 1.599.415 2.954 3.248 2.538 4.853zm13.319 3.455c-.416 1.605-2.712 2.399-4.297 1.988a2.998 2.998 0 0 1-2.142-3.658c.417-1.606 2.316-3.594 3.915-3.179 1.586.411 2.941 3.244 2.524 4.849zm-149.76-25.716c-.416 1.606-2.711 2.398-4.311 1.983-1.599-.415-2.544-2.048-2.128-3.653.417-1.605 2.302-3.597 3.901-3.182 1.6.415 2.955 3.247 2.538 4.852zm26.639 6.911c-.416 1.605-2.698 2.401-4.297 1.986a2.997 2.997 0 0 1-2.142-3.657c.416-1.605 2.316-3.594 3.915-3.179 1.599.415 2.941 3.244 2.524 4.85zm13.333 3.458c-.416 1.605-2.711 2.398-4.311 1.983-1.585-.411-2.544-2.048-2.128-3.653.417-1.605 2.316-3.594 3.901-3.183 1.6.415 2.955 3.248 2.538 4.853zm13.32 3.455c-.417 1.605-2.698 2.401-4.298 1.986a2.996 2.996 0 0 1-2.142-3.656c.417-1.605 2.316-3.594 3.915-3.179 1.6.415 2.941 3.244 2.525 4.849zm13.333 3.459c-.417 1.605-2.712 2.397-4.311 1.982a2.995 2.995 0 0 1-2.142-3.656c.416-1.605 2.315-3.594 3.915-3.179 1.599.415 2.954 3.247 2.538 4.853zm13.319 3.455c-.416 1.605-2.711 2.397-4.297 1.986a2.996 2.996 0 0 1-2.142-3.657c.416-1.605 2.316-3.593 3.915-3.178 1.586.411 2.941 3.243 2.524 4.849zm39.972 10.368c-.416 1.606-2.698 2.402-4.297 1.987a2.997 2.997 0 0 1-2.142-3.657c.416-1.605 2.316-3.594 3.915-3.179 1.599.415 2.94 3.244 2.524 4.849zm13.333 3.459c-.416 1.605-2.711 2.398-4.311 1.983a2.997 2.997 0 0 1-2.142-3.657c.417-1.605 2.316-3.594 3.915-3.179 1.6.415 2.955 3.248 2.538 4.853zm13.32 3.455c-.417 1.605-2.712 2.398-4.298 1.986a2.995 2.995 0 0 1-2.141-3.656c.416-1.606 2.315-3.594 3.915-3.179 1.585.411 2.94 3.244 2.524 4.849zm-149.76-25.715c-.417 1.605-2.712 2.397-4.311 1.982a2.983 2.983 0 0 1-2.128-3.653c.416-1.605 2.301-3.597 3.901-3.182 1.599.415 2.954 3.247 2.538 4.853zm13.319 3.455c-.416 1.605-2.712 2.397-4.297 1.986a2.996 2.996 0 0 1-2.142-3.657c.416-1.605 2.315-3.593 3.915-3.178 1.585.411 2.94 3.243 2.524 4.849zm13.319 3.455c-.416 1.605-2.697 2.401-4.297 1.986a2.997 2.997 0 0 1-2.142-3.657c.417-1.605 2.316-3.593 3.915-3.179 1.6.415 2.941 3.244 2.524 4.85zm53.306 13.827c-.417 1.605-2.712 2.397-4.298 1.986a2.997 2.997 0 0 1-2.142-3.657c.417-1.605 2.316-3.593 3.915-3.178 1.586.411 2.941 3.243 2.525 4.849zm26.652 6.913c-.416 1.606-2.712 2.398-4.311 1.983-1.586-.411-2.544-2.048-2.128-3.653.416-1.605 2.316-3.594 3.901-3.182 1.6.415 2.954 3.247 2.538 4.852zm13.319 3.455c-.416 1.606-2.697 2.402-4.297 1.987a2.997 2.997 0 0 1-2.142-3.657c.417-1.605 2.316-3.594 3.915-3.179 1.6.415 2.941 3.244 2.524 4.849zm13.334 3.459c-.417 1.605-2.712 2.398-4.311 1.983a2.996 2.996 0 0 1-2.142-3.657c.416-1.605 2.315-3.594 3.915-3.179 1.599.415 2.954 3.248 2.538 4.853zm-136.441-22.26c-.416 1.605-2.712 2.397-4.311 1.982-1.599-.415-2.544-2.047-2.128-3.653.416-1.605 2.302-3.597 3.901-3.182 1.6.415 2.954 3.247 2.538 4.853zm13.319 3.455c-.416 1.605-2.711 2.397-4.297 1.986a2.997 2.997 0 0 1-2.142-3.657c.417-1.605 2.316-3.593 3.915-3.178 1.586.411 2.941 3.243 2.524 4.849zm13.32 3.455c-.417 1.605-2.698 2.401-4.297 1.986a2.995 2.995 0 0 1-2.142-3.657c.416-1.605 2.315-3.593 3.915-3.178 1.599.414 2.94 3.243 2.524 4.849zm13.333 3.458c-.416 1.606-2.712 2.398-4.311 1.983-1.586-.411-2.545-2.048-2.128-3.653.416-1.605 2.315-3.594 3.901-3.182 1.599.414 2.954 3.247 2.538 4.852zm13.319 3.455c-.416 1.605-2.697 2.401-4.297 1.987a2.997 2.997 0 0 1-2.142-3.657c.417-1.605 2.316-3.594 3.915-3.179 1.6.415 2.941 3.244 2.524 4.849zm13.334 3.459c-.417 1.605-2.712 2.398-4.312 1.983a2.996 2.996 0 0 1-2.141-3.657c.416-1.605 2.315-3.594 3.915-3.179 1.599.415 2.954 3.248 2.538 4.853zm26.638 6.91c-.416 1.605-2.698 2.401-4.297 1.986a2.996 2.996 0 0 1-2.142-3.656c.417-1.606 2.316-3.594 3.915-3.179 1.599.415 2.941 3.244 2.524 4.849zm-96.455-11.888c-.416 1.605-2.711 2.397-4.311 1.982-1.599-.414-2.544-2.047-2.128-3.653.417-1.605 2.302-3.597 3.901-3.182 1.6.415 2.955 3.247 2.538 4.853zm13.32 3.455c-.417 1.605-2.712 2.397-4.297 1.986a2.995 2.995 0 0 1-2.142-3.657c.416-1.605 2.315-3.593 3.915-3.178 1.585.411 2.94 3.244 2.524 4.849zm13.319 3.455c-.416 1.605-2.698 2.401-4.297 1.986a2.996 2.996 0 0 1-2.142-3.657c.416-1.605 2.316-3.593 3.915-3.178 1.599.415 2.941 3.243 2.524 4.849zm13.333 3.458c-.416 1.606-2.711 2.398-4.311 1.983-1.585-.411-2.544-2.048-2.128-3.653.417-1.605 2.316-3.594 3.901-3.182 1.6.415 2.955 3.247 2.538 4.852zm92.942-29.37c-.416 1.605-2.698 2.403-4.298 1.988a2.997 2.997 0 0 1-2.141-3.658c.416-1.606 2.315-3.593 3.914-3.178 1.6.415 2.941 3.243 2.525 4.848zm-16.511 8.848c-.416 1.605-2.712 2.399-4.311 1.984-1.586-.412-2.544-2.049-2.128-3.655.417-1.605 2.315-3.592 3.901-3.181 1.599.415 2.955 3.246 2.538 4.852zm-16.525 8.845c-.416 1.605-2.698 2.403-4.297 1.988a2.998 2.998 0 0 1-2.142-3.658c.417-1.605 2.315-3.593 3.915-3.178 1.599.415 2.941 3.243 2.524 4.848zm-16.511 8.849c-.416 1.605-2.712 2.399-4.297 1.988a2.998 2.998 0 0 1-2.142-3.658c.417-1.605 2.315-3.592 3.915-3.178 1.586.412 2.941 3.243 2.524 4.848z"/></g><path fill-rule="evenodd" clip-rule="evenodd" d="M304.052 46.425c18.914-5.894 36.883 8.42 42.891 27.227 6.008 18.806 14.013 56.833-19.301 46.609-25.941-7.961-70.387-59.253-23.59-73.836z" fill="#213154"/></svg>