<svg width="86" height="87" viewBox="0 0 86 87" fill="none" xmlns="http://www.w3.org/2000/svg"><circle cx="43" cy="43.654" r="43" fill="#FFB42D"/><g clip-path="url(#a)"><path d="M46.152 54.515l-2.134 2.134a1.508 1.508 0 1 1-2.133-2.134l2.133-2.133a1.51 1.51 0 0 0 0-2.134l-1.962-1.961a1.508 1.508 0 1 1 2.134-2.134l1.962 1.962a4.53 4.53 0 0 1 0 6.4z" fill="#713708"/><path d="M49.352 64.116a3.017 3.017 0 0 1-4.267 0L34.417 53.45l4.267-4.268L49.352 59.85a3.017 3.017 0 0 1 0 4.267z" fill="#994C0F"/><path d="M34.332 40.562l6.614 6.614-.128 4.139-7.468 7.467c-1.77 1.771-4.672 1.729-6.443-.042l-4.267-4.268c-1.75-1.75-1.728-4.587.043-6.358l7.467-7.467 4.182-.085z" fill="#FE318F"/><path d="M37.617 43.848l3.329 3.328-.128 4.139-7.468 7.467c-1.77 1.771-4.672 1.729-6.443-.042l-2.09-2.091 12.8-12.801z" fill="#FD0F7F"/><path d="M53.081 21.035a1.508 1.508 0 0 1-1.508-1.508l-.001-3.018a1.508 1.508 0 1 1 3.017 0v3.017c0 .834-.674 1.509-1.508 1.509zm12.069 9.052l-3.018-.001a1.508 1.508 0 1 1 0-3.017l3.018.001a1.508 1.508 0 1 1 0 3.017zm-1.93-11.842a1.494 1.494 0 0 1 0 2.134l-3.2 3.2a1.494 1.494 0 0 1-2.134 0 1.494 1.494 0 0 1 0-2.134l3.2-3.2a1.494 1.494 0 0 1 2.134 0z" fill="#1BD9DE"/><path d="M45.085 21.445L60.02 36.38c.426.427.96 4.929 1.514 5.014l-4.202.875c-6.23 1.237-12.14 4.672-16.151 8.683l-.363.363L30.15 40.647l.363-.362c4.224-4.225 7.34-9.815 8.62-16.215l.874-4.374 5.078 1.75z" fill="#CAE8F9"/><path d="M33.35 48.115a1.494 1.494 0 0 1 0 2.133l-2.133 2.134a1.494 1.494 0 0 1-2.134 0 1.494 1.494 0 0 1 0-2.134l2.134-2.133a1.494 1.494 0 0 1 2.133 0z" fill="#E1E4FB"/><path d="M52.552 28.913l7.468 7.467c.426.427.96 4.929 1.514 5.014l-4.202.875c-6.23 1.237-12.14 4.672-16.151 8.683l-.363.363-5.334-5.334 17.068-17.068z" fill="#B7E0F6"/><path d="M33.35 48.115a1.494 1.494 0 0 1 0 2.133l-2.133 2.134a1.494 1.494 0 0 1-2.134 0l4.267-4.267z" fill="#C5C9F7"/><path d="M45.085 17.178L64.287 36.38a3.026 3.026 0 0 1 0 4.267c-.129.128-.3.214-.47.299-.683.47-1.493.64-2.283.448a2.687 2.687 0 0 1-1.515-.747L40.818 21.445c-.491-.49-.726-1.11-.811-1.75-.086-.64.043-1.28.363-1.855.149-.235.255-.47.448-.662a3.026 3.026 0 0 1 4.267 0z" fill="#FE318F"/><path d="M54.686 26.78l9.6 9.6a3.026 3.026 0 0 1 0 4.267c-.127.128-.298.214-.469.299-.683.47-1.493.64-2.283.448a2.688 2.688 0 0 1-1.515-.747l-9.6-9.6 4.267-4.268z" fill="#FD0F7F"/></g><defs><clipPath id="a"><path fill="#fff" transform="translate(19 15)" d="M0 0h50v50H0z"/></clipPath></defs></svg>