<svg width="35" height="33" viewBox="0 0 35 33" fill="none" xmlns="http://www.w3.org/2000/svg"><path d="M33.807 14.85v16.5c0 .291-.12.57-.33.777a1.144 1.144 0 0 1-.795.323H2.305a1.14 1.14 0 0 1-.795-.323 1.091 1.091 0 0 1-.33-.777v-16.5c0-.291.12-.57.33-.777.211-.206.497-.322.795-.323h11.42a5.049 5.049 0 0 0 1.704 1.219 5.151 5.151 0 0 0 4.13 0 5.05 5.05 0 0 0 1.703-1.219h11.42c.298 0 .584.117.794.323.211.206.33.486.331.777z" fill="#57A4FF"/><path d="M30.432 25.85h-7.426a5.38 5.38 0 0 0-.052-2.415 5.453 5.453 0 0 0-1.105-2.16 5.61 5.61 0 0 0-1.946-1.49 5.733 5.733 0 0 0-4.82 0 5.61 5.61 0 0 0-1.946 1.49 5.454 5.454 0 0 0-1.105 2.16 5.381 5.381 0 0 0-.052 2.415H4.555a9.245 9.245 0 0 1 2.8-6.611 9.675 9.675 0 0 1 6.763-2.739h6.75c2.537 0 4.97.985 6.763 2.739a9.245 9.245 0 0 1 2.8 6.611z" fill="#FF7956"/><path d="M28.18 30.25c.621 0 1.125-.492 1.125-1.1 0-.607-.504-1.1-1.125-1.1-.622 0-1.125.493-1.125 1.1 0 .608.503 1.1 1.125 1.1z" fill="#FFEB99"/><path d="M24.242 8.8v.55c0 .291-.12.57-.33.777a1.144 1.144 0 0 1-.795.323h-.562V7.7h.562c.298 0 .584.117.795.323.21.206.33.485.33.777z" fill="#FFC477"/><path d="M24.243 4.95v1.1L22.555 7.7V6.05L16.368 4.4 12.43 6.05V7.7l-1.688-1.65v-1.1a4.35 4.35 0 0 1 1.318-3.11A4.553 4.553 0 0 1 15.242.55h4.5c1.194 0 2.34.464 3.183 1.289a4.35 4.35 0 0 1 1.318 3.111z" fill="#C0AB91"/><path d="M23.118 24.75a5.353 5.353 0 0 1-.894 2.976 5.577 5.577 0 0 1-2.037 1.851 5.728 5.728 0 0 1-5.39 0 5.577 5.577 0 0 1-2.035-1.852A5.379 5.379 0 0 1 12 23.57a5.44 5.44 0 0 1 .963-2.076 5.587 5.587 0 0 1 1.743-1.515 5.746 5.746 0 0 1 4.54-.448 5.644 5.644 0 0 1 2.017 1.144 5.507 5.507 0 0 1 1.37 1.846c.319.702.484 1.461.485 2.23z" fill="#FFEB99"/><path d="M22.555 7.7v2.75a4.895 4.895 0 0 1-1.482 3.5 5.122 5.122 0 0 1-3.58 1.45 5.122 5.122 0 0 1-3.58-1.45 4.895 4.895 0 0 1-1.483-3.5v-4.4l3.938-1.65 6.187 1.65V7.7z" fill="#FFDAAA"/><path d="M20.868 24.75l-5.626 2.75V22l5.626 2.75z" fill="#FF7956"/><path d="M12.43 7.7v2.75h-.563a1.14 1.14 0 0 1-.794-.323 1.091 1.091 0 0 1-.33-.777V8.8c0-.292.119-.571.33-.777a1.14 1.14 0 0 1 .794-.323h.563z" fill="#FFC477"/><path d="M6.805 30.25c.621 0 1.125-.492 1.125-1.1 0-.607-.504-1.1-1.125-1.1-.622 0-1.125.493-1.125 1.1 0 .608.503 1.1 1.125 1.1z" fill="#FFEB99"/><path d="M32.682 13.2H22.358a5.362 5.362 0 0 0 .731-2.2h.03c.447 0 .877-.174 1.193-.483.317-.31.494-.73.494-1.167V8.8c0-.324-.097-.64-.28-.91a1.68 1.68 0 0 0-.747-.608l.863-.843a.544.544 0 0 0 .164-.389v-1.1a4.9 4.9 0 0 0-1.484-3.499A5.127 5.127 0 0 0 19.744 0h-4.5a5.128 5.128 0 0 0-3.58 1.451A4.9 4.9 0 0 0 10.18 4.95v1.1c0 .146.06.286.165.389l.863.843a1.68 1.68 0 0 0-.748.608c-.182.27-.28.586-.28.91v.55c0 .438.178.857.495 1.167.316.31.745.483 1.193.483h.029c.08.776.329 1.526.731 2.2H2.305a1.71 1.71 0 0 0-1.194.483c-.316.31-.494.73-.494 1.167v16.5c0 .438.178.857.494 1.167.317.31.746.483 1.194.483h30.377c.448 0 .877-.174 1.193-.483.317-.31.495-.73.495-1.167v-16.5c0-.438-.178-.857-.495-1.167a1.707 1.707 0 0 0-1.193-.483zm-15.189 1.65a4.558 4.558 0 0 1-3.18-1.29 4.356 4.356 0 0 1-1.32-3.11V6.412l3.416-1.43 5.585 1.488v3.98a4.356 4.356 0 0 1-1.32 3.11 4.557 4.557 0 0 1-3.18 1.29zm6.188-5.5a.545.545 0 0 1-.164.389.57.57 0 0 1-.398.161V8.25a.57.57 0 0 1 .398.161.544.544 0 0 1 .164.389v.55zm-12.376-4.4c.002-1.02.417-2 1.155-2.72a3.989 3.989 0 0 1 2.783-1.13h4.5a3.989 3.989 0 0 1 2.784 1.13 3.812 3.812 0 0 1 1.154 2.72v.872l-.562.55V6.05c0-.12-.04-.238-.116-.334a.563.563 0 0 0-.299-.197l-6.188-1.65a.575.575 0 0 0-.37.026l-3.937 1.65a.56.56 0 0 0-.248.202.541.541 0 0 0-.093.303v.322l-.563-.55V4.95zm0 4.4V8.8c0-.146.06-.286.165-.389a.57.57 0 0 1 .398-.161V9.9a.57.57 0 0 1-.398-.161.544.544 0 0 1-.165-.389zm21.94 22c0 .146-.06.286-.165.389a.569.569 0 0 1-.398.161H2.305a.569.569 0 0 1-.398-.161.544.544 0 0 1-.165-.389v-16.5c0-.146.06-.286.165-.389a.569.569 0 0 1 .398-.161h11.178a5.615 5.615 0 0 0 1.835 1.22 5.72 5.72 0 0 0 4.35 0 5.616 5.616 0 0 0 1.836-1.22h11.178a.57.57 0 0 1 .398.161.544.544 0 0 1 .165.389v16.5z" fill="#000"/><path d="M21.12 24.258l-5.626-2.75a.573.573 0 0 0-.743.224.54.54 0 0 0-.071.268v5.5a.54.54 0 0 0 .265.47.573.573 0 0 0 .549.025l5.625-2.75a.541.541 0 0 0 0-.985v-.002zm-5.315 2.352v-3.72l3.805 1.86-3.805 1.86z" fill="#000"/><path d="M3.992 25.85c0 .146.06.285.165.389a.569.569 0 0 0 .398.16h6.99c.123.43.295.845.512 1.238l-.818.798a.564.564 0 0 1-.4.165h-2.45a1.66 1.66 0 0 0-.737-.873 1.72 1.72 0 0 0-1.14-.204 1.697 1.697 0 0 0-1.004.563 1.628 1.628 0 0 0-.398 1.064c0 .389.141.766.398 1.063.256.298.612.497 1.005.563a1.72 1.72 0 0 0 1.139-.203c.343-.197.604-.506.737-.873h2.45a1.711 1.711 0 0 0 1.196-.486l.662-.648a6.156 6.156 0 0 0 2.14 1.647 6.294 6.294 0 0 0 5.312 0 6.156 6.156 0 0 0 2.14-1.647l.66.648a1.684 1.684 0 0 0 1.199.486h2.45c.132.367.393.676.736.873a1.72 1.72 0 0 0 1.14.203 1.696 1.696 0 0 0 1.005-.563 1.626 1.626 0 0 0 0-2.127 1.696 1.696 0 0 0-1.005-.563 1.72 1.72 0 0 0-1.14.204 1.66 1.66 0 0 0-.737.873h-2.449a.575.575 0 0 1-.401-.165l-.817-.798c.217-.393.388-.808.512-1.237h6.99a.567.567 0 0 0 .397-.161.544.544 0 0 0 .165-.39 9.79 9.79 0 0 0-2.966-7 10.244 10.244 0 0 0-7.16-2.9h-6.75a10.256 10.256 0 0 0-7.157 2.904 9.801 9.801 0 0 0-2.969 6.997zm2.813 3.85a.572.572 0 0 1-.313-.093.539.539 0 0 1-.085-.846.567.567 0 0 1 .613-.12.56.56 0 0 1 .253.203.542.542 0 0 1-.07.695.569.569 0 0 1-.398.16zm21.376-1.1c.112 0 .22.032.313.092s.165.147.207.247a.54.54 0 0 1-.122.6.567.567 0 0 1-.613.119.56.56 0 0 1-.252-.203.542.542 0 0 1 .07-.694.57.57 0 0 1 .397-.161zm-10.688 1.1c-1.001 0-1.98-.29-2.813-.834a4.976 4.976 0 0 1-1.864-2.222 4.847 4.847 0 0 1-.288-2.86 4.916 4.916 0 0 1 1.385-2.534 5.1 5.1 0 0 1 2.592-1.355 5.17 5.17 0 0 1 2.926.282A5.04 5.04 0 0 1 21.703 22c.556.814.853 1.77.853 2.75a4.9 4.9 0 0 1-1.485 3.498 5.127 5.127 0 0 1-3.578 1.452zm3.375-12.65a9.118 9.118 0 0 1 6.162 2.387 8.726 8.726 0 0 1 2.822 5.863h-6.2c.017-.182.03-.364.03-.55a5.982 5.982 0 0 0-1.813-4.278 6.26 6.26 0 0 0-4.376-1.772 6.26 6.26 0 0 0-4.375 1.772 5.983 5.983 0 0 0-1.813 4.278c0 .186.012.368.029.55h-6.2a8.732 8.732 0 0 1 2.824-5.861 9.125 9.125 0 0 1 6.16-2.39h6.75z" fill="#000"/></svg>