<svg width="50" height="50" viewBox="0 0 50 50" fill="none" xmlns="http://www.w3.org/2000/svg"><path d="M43.555 49.023H6.445a5.469 5.469 0 0 1-5.468-5.468V6.445A5.469 5.469 0 0 1 6.445.977h37.11a5.469 5.469 0 0 1 5.468 5.468v37.11a5.469 5.469 0 0 1-5.468 5.468z" fill="#FFB42D"/><path d="M9.219 15.918h4.238c.66 0 1.242.427 1.441 1.056.426 1.34 1.27 3.731 2.453 5.813.96 1.69 2.125 3.107 2.984 4.046.43.47 1.215.164 1.215-.474v-6.115c0-.898-.282-1.772-.805-2.5l-.414-.578a.788.788 0 0 1 .64-1.248h5.926c.535 0 .968.434.968.968v7.84c0 .51.527.848.99.636l.402-.184a.588.588 0 0 0 .185-.132 26.015 26.015 0 0 0 4.883-7.38l.443-1.01c.197-.448.64-.737 1.13-.737l4.184.005c.785 0 1.285.838.915 1.53l-1.933 3.617c-.25.467-.528.92-.833 1.354l-2.262 3.223a1.413 1.413 0 0 0 .182 1.835l1.657 1.577a20.364 20.364 0 0 1 3.324 4.114l.496.81a1.134 1.134 0 0 1-.968 1.726h-3.612c-.73 0-1.43-.296-1.94-.82l-3.611-3.714a5.24 5.24 0 0 0-2.634-1.465.822.822 0 0 0-.998.803v3.65c0 .853-.692 1.546-1.546 1.546-3.03 0-5.975-.998-8.382-2.838a24.818 24.818 0 0 1-8.81-12.983l-.79-2.806a.917.917 0 0 1 .882-1.165z" fill="#fff"/></svg>