<svg width="262" height="505" viewBox="0 0 262 505" fill="none" xmlns="http://www.w3.org/2000/svg"><path fill-rule="evenodd" clip-rule="evenodd" d="M156.169 64.344c54.784 5.588 134.488 43.833 113.784 83.422-42.992 82.211 57.527 51.56 86.115 108.754 28.589 57.194-38.904 51.389-19.642 125.388 19.262 73.998-94.44 120.897-109.617 48.629-15.177-72.268-52.981-41.389-81.511-66.013-28.528-24.623 11.837-48.416-28.668-89.503-39.832-40.404-101.703-94.932-93.096-145.055 7-40.77 75.122-71.488 132.635-65.622z" fill="#FFB42D"/><g opacity=".5"><mask id="a" maskUnits="userSpaceOnUse" x="79" y="35" width="168" height="208"><path fill-rule="evenodd" clip-rule="evenodd" d="M79.251 151.109c-5.189-40.397 71.002-127.258 130.788-114.92 69.402 14.322 21.771 159.441 0 187.426-21.77 27.983-31.178 25.879-52.948-13.466-21.769-39.345-72.65-18.643-77.84-59.04z" fill="#fff"/></mask><g mask="url(#a)" fill-rule="evenodd" clip-rule="evenodd" fill="#F8FFFC"><path d="M84.63 35.038c0 1.643-2.016 2.977-3.663 2.977a2.98 2.98 0 0 1-2.984-2.977c0-1.644 1.335-4.023 2.984-4.023 1.647 0 3.663 2.379 3.663 4.023zm13.753 0c0 1.643-2.014 2.977-3.663 2.977a2.981 2.981 0 0 1-2.984-2.977c0-1.644 1.337-4.023 2.984-4.023 1.649 0 3.663 2.379 3.663 4.023zm13.754 0c0 1.643-2.015 2.977-3.663 2.977a2.981 2.981 0 0 1-2.985-2.977c0-1.644 1.336-4.023 2.985-4.023 1.648 0 3.663 2.379 3.663 4.023zm13.754 0c0 1.643-2.016 2.977-3.663 2.977a2.98 2.98 0 0 1-2.984-2.977c0-1.644 1.335-4.023 2.984-4.023 1.647 0 3.663 2.379 3.663 4.023zm13.754 0c0 1.643-2.016 2.977-3.664 2.977a2.98 2.98 0 0 1-2.984-2.977c0-1.644 1.336-4.023 2.984-4.023s3.664 2.379 3.664 4.023zm13.751 0c0 1.643-2.014 2.977-3.663 2.977a2.981 2.981 0 0 1-2.984-2.977c0-1.644 1.337-4.023 2.984-4.023 1.649 0 3.663 2.379 3.663 4.023zm13.754 0c0 1.643-2.015 2.977-3.664 2.977a2.981 2.981 0 0 1-2.984-2.977c0-1.644 1.337-4.023 2.984-4.023 1.649 0 3.664 2.379 3.664 4.023zm13.754 0c0 1.643-2.016 2.977-3.663 2.977a2.98 2.98 0 0 1-2.984-2.977c0-1.644 1.335-4.023 2.984-4.023 1.647 0 3.663 2.379 3.663 4.023zm41.26 0c0 1.643-2.015 2.977-3.663 2.977a2.98 2.98 0 0 1-2.984-2.977c0-1.644 1.336-4.023 2.984-4.023s3.663 2.379 3.663 4.023zm13.753 0c0 1.643-2.016 2.977-3.663 2.977a2.98 2.98 0 0 1-2.984-2.977c0-1.644 1.335-4.023 2.984-4.023 1.647 0 3.663 2.379 3.663 4.023zm13.753 0c0 1.643-2.014 2.977-3.663 2.977a2.98 2.98 0 0 1-2.984-2.977c0-1.644 1.335-4.023 2.984-4.023s3.663 2.379 3.663 4.023zM84.63 47.637c0 1.643-2.016 2.976-3.663 2.976a2.98 2.98 0 0 1-2.984-2.976c0-1.645 1.335-4.023 2.984-4.023 1.647 0 3.663 2.378 3.663 4.023zm13.753 0c0 1.643-2.014 2.976-3.663 2.976a2.981 2.981 0 0 1-2.984-2.976c0-1.645 1.337-4.023 2.984-4.023 1.649 0 3.663 2.378 3.663 4.023zm13.754 0c0 1.643-2.015 2.976-3.663 2.976a2.981 2.981 0 0 1-2.985-2.976c0-1.645 1.336-4.023 2.985-4.023 1.648 0 3.663 2.378 3.663 4.023zm13.754 0c0 1.643-2.016 2.976-3.663 2.976a2.98 2.98 0 0 1-2.984-2.976c0-1.645 1.335-4.023 2.984-4.023 1.647 0 3.663 2.378 3.663 4.023zm13.754 0c0 1.643-2.016 2.976-3.664 2.976a2.98 2.98 0 0 1-2.984-2.976c0-1.645 1.336-4.023 2.984-4.023s3.664 2.378 3.664 4.023zm27.505 0c0 1.643-2.015 2.976-3.664 2.976a2.981 2.981 0 0 1-2.984-2.976c0-1.645 1.337-4.023 2.984-4.023 1.649 0 3.664 2.378 3.664 4.023zm13.754 0c0 1.643-2.016 2.976-3.663 2.976a2.98 2.98 0 0 1-2.984-2.976c0-1.645 1.335-4.023 2.984-4.023 1.647 0 3.663 2.378 3.663 4.023zm13.754 0c0 1.643-2.016 2.976-3.664 2.976a2.98 2.98 0 0 1-2.984-2.976c0-1.645 1.336-4.023 2.984-4.023s3.664 2.378 3.664 4.023zm13.753 0c0 1.643-2.016 2.976-3.664 2.976a2.98 2.98 0 0 1-2.984-2.976c0-1.645 1.336-4.023 2.984-4.023s3.664 2.378 3.664 4.023zm13.753 0c0 1.643-2.015 2.976-3.663 2.976a2.98 2.98 0 0 1-2.984-2.976c0-1.645 1.336-4.023 2.984-4.023s3.663 2.378 3.663 4.023zm27.506 0c0 1.643-2.014 2.976-3.663 2.976a2.98 2.98 0 0 1-2.984-2.976c0-1.645 1.335-4.023 2.984-4.023s3.663 2.378 3.663 4.023zm-165.04 12.6c0 1.643-2.016 2.976-3.663 2.976a2.98 2.98 0 0 1-2.984-2.976c0-1.645 1.335-4.023 2.984-4.023 1.647 0 3.663 2.378 3.663 4.023zm13.753 0c0 1.643-2.014 2.976-3.663 2.976a2.981 2.981 0 0 1-2.984-2.976c0-1.645 1.337-4.023 2.984-4.023 1.649 0 3.663 2.378 3.663 4.023zm13.754 0c0 1.643-2.015 2.976-3.663 2.976a2.981 2.981 0 0 1-2.985-2.976c0-1.645 1.336-4.023 2.985-4.023 1.648 0 3.663 2.378 3.663 4.023zm13.754 0c0 1.643-2.016 2.976-3.663 2.976a2.98 2.98 0 0 1-2.984-2.976c0-1.645 1.335-4.023 2.984-4.023 1.647 0 3.663 2.378 3.663 4.023zm27.505 0c0 1.643-2.014 2.976-3.663 2.976a2.981 2.981 0 0 1-2.984-2.976c0-1.645 1.337-4.023 2.984-4.023 1.649 0 3.663 2.378 3.663 4.023zm13.754 0c0 1.643-2.015 2.976-3.664 2.976a2.981 2.981 0 0 1-2.984-2.976c0-1.645 1.337-4.023 2.984-4.023 1.649 0 3.664 2.378 3.664 4.023zm13.754 0c0 1.643-2.016 2.976-3.663 2.976a2.98 2.98 0 0 1-2.984-2.976c0-1.645 1.335-4.023 2.984-4.023 1.647 0 3.663 2.378 3.663 4.023zm13.754 0c0 1.643-2.016 2.976-3.664 2.976a2.98 2.98 0 0 1-2.984-2.976c0-1.645 1.336-4.023 2.984-4.023s3.664 2.378 3.664 4.023zm13.753 0c0 1.643-2.016 2.976-3.664 2.976a2.98 2.98 0 0 1-2.984-2.976c0-1.645 1.336-4.023 2.984-4.023s3.664 2.378 3.664 4.023zm13.753 0c0 1.643-2.015 2.976-3.663 2.976a2.98 2.98 0 0 1-2.984-2.976c0-1.645 1.336-4.023 2.984-4.023s3.663 2.378 3.663 4.023zm13.753 0c0 1.643-2.016 2.976-3.663 2.976a2.98 2.98 0 0 1-2.984-2.976c0-1.645 1.335-4.023 2.984-4.023 1.647 0 3.663 2.378 3.663 4.023zm13.753 0c0 1.643-2.014 2.976-3.663 2.976a2.98 2.98 0 0 1-2.984-2.976c0-1.645 1.335-4.023 2.984-4.023s3.663 2.378 3.663 4.023zM84.63 72.835c0 1.643-2.014 2.977-3.663 2.977a2.981 2.981 0 0 1-2.984-2.977c0-1.644 1.337-4.023 2.984-4.023 1.649 0 3.663 2.379 3.663 4.023zm13.753.002c0 1.643-2.014 2.976-3.663 2.976a2.981 2.981 0 0 1-2.984-2.976c0-1.645 1.337-4.023 2.984-4.023 1.649 0 3.663 2.378 3.663 4.023zm13.754-.002c0 1.643-2.015 2.977-3.663 2.977a2.981 2.981 0 0 1-2.985-2.977c0-1.644 1.336-4.023 2.985-4.023 1.648 0 3.663 2.379 3.663 4.023zm27.508 0c0 1.643-2.016 2.977-3.664 2.977a2.98 2.98 0 0 1-2.984-2.977c0-1.644 1.336-4.023 2.984-4.023s3.664 2.379 3.664 4.023zm13.751 0c0 1.643-2.014 2.977-3.663 2.977a2.981 2.981 0 0 1-2.984-2.977c0-1.644 1.337-4.023 2.984-4.023 1.649 0 3.663 2.379 3.663 4.023zm13.754 0c0 1.643-2.015 2.977-3.664 2.977a2.981 2.981 0 0 1-2.984-2.977c0-1.644 1.337-4.023 2.984-4.023 1.649 0 3.664 2.379 3.664 4.023zm13.754 0c0 1.643-2.016 2.977-3.663 2.977a2.98 2.98 0 0 1-2.984-2.977c0-1.644 1.335-4.023 2.984-4.023 1.647 0 3.663 2.379 3.663 4.023zm13.754 0c0 1.643-2.016 2.977-3.664 2.977a2.98 2.98 0 0 1-2.984-2.977c0-1.644 1.336-4.023 2.984-4.023s3.664 2.379 3.664 4.023zm13.753 0c0 1.643-2.016 2.977-3.664 2.977a2.98 2.98 0 0 1-2.984-2.977c0-1.644 1.336-4.023 2.984-4.023s3.664 2.379 3.664 4.023zm13.753 0c0 1.643-2.015 2.977-3.663 2.977a2.98 2.98 0 0 1-2.984-2.977c0-1.644 1.336-4.023 2.984-4.023s3.663 2.379 3.663 4.023zm13.753 0c0 1.643-2.016 2.977-3.663 2.977a2.98 2.98 0 0 1-2.984-2.977c0-1.644 1.335-4.023 2.984-4.023 1.647 0 3.663 2.379 3.663 4.023zM84.63 85.434c0 1.644-2.016 2.976-3.663 2.976a2.98 2.98 0 0 1-2.984-2.976c0-1.644 1.335-4.023 2.984-4.023 1.647 0 3.663 2.379 3.663 4.023zm13.753 0c0 1.644-2.014 2.976-3.663 2.976a2.98 2.98 0 0 1-2.984-2.976c0-1.644 1.337-4.023 2.984-4.023 1.649 0 3.663 2.379 3.663 4.023zm27.508 0c0 1.644-2.016 2.976-3.663 2.976a2.98 2.98 0 0 1-2.984-2.976c0-1.644 1.335-4.023 2.984-4.023 1.647 0 3.663 2.379 3.663 4.023zm13.754 0c0 1.644-2.016 2.976-3.664 2.976a2.98 2.98 0 0 1-2.984-2.976c0-1.644 1.336-4.023 2.984-4.023s3.664 2.379 3.664 4.023zm13.751 0c0 1.644-2.014 2.976-3.663 2.976a2.98 2.98 0 0 1-2.984-2.976c0-1.644 1.337-4.023 2.984-4.023 1.649 0 3.663 2.379 3.663 4.023zm13.754 0c0 1.644-2.015 2.976-3.664 2.976a2.98 2.98 0 0 1-2.984-2.976c0-1.644 1.337-4.023 2.984-4.023 1.649 0 3.664 2.379 3.664 4.023zm13.754 0c0 1.644-2.016 2.976-3.663 2.976a2.98 2.98 0 0 1-2.984-2.976c0-1.644 1.335-4.023 2.984-4.023 1.647 0 3.663 2.379 3.663 4.023zm13.754.001c0 1.645-2.016 2.977-3.664 2.977a2.98 2.98 0 0 1-2.984-2.977c0-1.644 1.336-4.023 2.984-4.023s3.664 2.379 3.664 4.023zm13.753-.001c0 1.644-2.015 2.976-3.664 2.976a2.98 2.98 0 0 1-2.984-2.976c0-1.644 1.336-4.023 2.984-4.023 1.649 0 3.664 2.379 3.664 4.023zm13.753 0c0 1.644-2.015 2.976-3.663 2.976a2.98 2.98 0 0 1-2.984-2.976c0-1.644 1.336-4.023 2.984-4.023s3.663 2.379 3.663 4.023zm13.753 0c0 1.644-2.016 2.976-3.663 2.976a2.98 2.98 0 0 1-2.984-2.976c0-1.644 1.335-4.023 2.984-4.023 1.647 0 3.663 2.379 3.663 4.023zM84.63 98.034c0 1.644-2.016 2.976-3.663 2.976a2.98 2.98 0 0 1-2.984-2.976c0-1.645 1.335-4.023 2.984-4.023 1.647 0 3.663 2.379 3.663 4.023zm13.753 0c0 1.644-2.014 2.976-3.663 2.976a2.98 2.98 0 0 1-2.984-2.976c0-1.645 1.337-4.023 2.984-4.023 1.649 0 3.663 2.379 3.663 4.023zm13.754 0c0 1.644-2.015 2.976-3.663 2.976a2.98 2.98 0 0 1-2.985-2.976c0-1.645 1.336-4.023 2.985-4.023 1.648 0 3.663 2.379 3.663 4.023zm13.754 0c0 1.644-2.016 2.976-3.663 2.976a2.979 2.979 0 0 1-2.984-2.976c0-1.645 1.335-4.023 2.984-4.023 1.647 0 3.663 2.379 3.663 4.023zm13.754.001c0 1.645-2.016 2.977-3.664 2.977a2.98 2.98 0 0 1-2.984-2.977c0-1.644 1.336-4.023 2.984-4.023s3.664 2.379 3.664 4.023zm13.751-.001c0 1.644-2.014 2.976-3.663 2.976a2.98 2.98 0 0 1-2.984-2.976c0-1.645 1.337-4.023 2.984-4.023 1.649 0 3.663 2.379 3.663 4.023zm13.754 0c0 1.644-2.015 2.976-3.664 2.976a2.98 2.98 0 0 1-2.984-2.976c0-1.645 1.337-4.023 2.984-4.023 1.649 0 3.664 2.379 3.664 4.023zm13.754.001c0 1.645-2.016 2.977-3.663 2.977a2.98 2.98 0 0 1-2.984-2.977c0-1.644 1.335-4.023 2.984-4.023 1.647 0 3.663 2.379 3.663 4.023zm13.754 0c0 1.645-2.016 2.977-3.664 2.977a2.98 2.98 0 0 1-2.984-2.977c0-1.644 1.336-4.023 2.984-4.023s3.664 2.379 3.664 4.023zm13.753-.001c0 1.644-2.016 2.976-3.664 2.976a2.98 2.98 0 0 1-2.984-2.976c0-1.645 1.336-4.023 2.984-4.023s3.664 2.379 3.664 4.023zm13.753.001c0 1.645-2.015 2.977-3.663 2.977a2.98 2.98 0 0 1-2.984-2.977c0-1.644 1.336-4.023 2.984-4.023s3.663 2.379 3.663 4.023zm13.753 0c0 1.645-2.016 2.977-3.663 2.977a2.98 2.98 0 0 1-2.984-2.977c0-1.644 1.335-4.023 2.984-4.023 1.647 0 3.663 2.379 3.663 4.023zM84.63 110.633c0 1.644-2.014 2.976-3.663 2.976a2.98 2.98 0 0 1-2.984-2.976c0-1.643 1.337-4.023 2.984-4.023 1.649 0 3.663 2.38 3.663 4.023zm13.753 0c0 1.644-2.015 2.976-3.663 2.976a2.98 2.98 0 0 1-2.984-2.976c0-1.643 1.335-4.023 2.984-4.023 1.648 0 3.663 2.38 3.663 4.023zm13.754 0c0 1.644-2.015 2.976-3.663 2.976a2.98 2.98 0 0 1-2.985-2.976c0-1.643 1.336-4.023 2.985-4.023 1.648 0 3.663 2.38 3.663 4.023zm13.754 0c0 1.644-2.016 2.976-3.663 2.976a2.98 2.98 0 0 1-2.984-2.976c0-1.643 1.335-4.023 2.984-4.023 1.647 0 3.663 2.38 3.663 4.023zm13.754 0c0 1.644-2.016 2.976-3.664 2.976a2.98 2.98 0 0 1-2.984-2.976c0-1.643 1.336-4.023 2.984-4.023s3.664 2.38 3.664 4.023zm13.751 0c0 1.644-2.014 2.976-3.663 2.976a2.98 2.98 0 0 1-2.984-2.976c0-1.643 1.337-4.023 2.984-4.023 1.649 0 3.663 2.38 3.663 4.023zm13.754 0c0 1.644-2.015 2.976-3.664 2.976a2.98 2.98 0 0 1-2.984-2.976c0-1.643 1.337-4.023 2.984-4.023 1.649 0 3.664 2.38 3.664 4.023zm13.754 0c0 1.644-2.016 2.976-3.663 2.976a2.98 2.98 0 0 1-2.984-2.976c0-1.643 1.335-4.023 2.984-4.023 1.647 0 3.663 2.38 3.663 4.023zm13.754 0c0 1.644-2.016 2.976-3.664 2.976a2.98 2.98 0 0 1-2.984-2.976c0-1.643 1.336-4.023 2.984-4.023s3.664 2.38 3.664 4.023zm13.753 0c0 1.644-2.015 2.976-3.664 2.976a2.98 2.98 0 0 1-2.984-2.976c0-1.643 1.336-4.023 2.984-4.023 1.649 0 3.664 2.38 3.664 4.023zm13.753 0c0 1.644-2.015 2.976-3.663 2.976a2.98 2.98 0 0 1-2.984-2.976c0-1.643 1.336-4.023 2.984-4.023s3.663 2.38 3.663 4.023zm13.753 0c0 1.644-2.016 2.976-3.663 2.976a2.98 2.98 0 0 1-2.984-2.976c0-1.643 1.335-4.023 2.984-4.023 1.647 0 3.663 2.38 3.663 4.023zm-151.287 12.6c0 1.644-2.014 2.976-3.663 2.976a2.98 2.98 0 0 1-2.984-2.976c0-1.643 1.337-4.023 2.984-4.023 1.649 0 3.663 2.38 3.663 4.023zm13.753 0c0 1.644-2.015 2.976-3.663 2.976a2.98 2.98 0 0 1-2.984-2.976c0-1.643 1.335-4.023 2.984-4.023 1.648 0 3.663 2.38 3.663 4.023zm13.754 0c0 1.644-2.015 2.976-3.663 2.976a2.98 2.98 0 0 1-2.985-2.976c0-1.643 1.336-4.023 2.985-4.023 1.648 0 3.663 2.38 3.663 4.023zm13.754 0c0 1.644-2.016 2.976-3.663 2.976a2.98 2.98 0 0 1-2.984-2.976c0-1.643 1.335-4.023 2.984-4.023 1.647 0 3.663 2.38 3.663 4.023zm13.754 0c0 1.644-2.016 2.976-3.664 2.976a2.98 2.98 0 0 1-2.984-2.976c0-1.643 1.336-4.023 2.984-4.023s3.664 2.38 3.664 4.023zm13.751 0c0 1.644-2.014 2.976-3.663 2.976a2.98 2.98 0 0 1-2.984-2.976c0-1.643 1.337-4.023 2.984-4.023 1.649 0 3.663 2.38 3.663 4.023zm13.755 0c0 1.644-2.016 2.976-3.663 2.976a2.98 2.98 0 0 1-2.984-2.976c0-1.643 1.335-4.023 2.984-4.023 1.647 0 3.663 2.38 3.663 4.023zm13.753 0c0 1.644-2.016 2.976-3.663 2.976a2.98 2.98 0 0 1-2.984-2.976c0-1.643 1.335-4.023 2.984-4.023 1.647 0 3.663 2.38 3.663 4.023zm13.754 0c0 1.644-2.016 2.976-3.664 2.976a2.98 2.98 0 0 1-2.984-2.976c0-1.643 1.336-4.023 2.984-4.023s3.664 2.38 3.664 4.023zm13.753 0c0 1.644-2.015 2.976-3.664 2.976a2.98 2.98 0 0 1-2.984-2.976c0-1.643 1.336-4.023 2.984-4.023 1.649 0 3.664 2.38 3.664 4.023zm13.753 0c0 1.644-2.015 2.976-3.663 2.976a2.98 2.98 0 0 1-2.984-2.976c0-1.643 1.336-4.023 2.984-4.023s3.663 2.38 3.663 4.023zm13.753 0c0 1.644-2.016 2.976-3.663 2.976a2.98 2.98 0 0 1-2.984-2.976c0-1.643 1.335-4.023 2.984-4.023 1.647 0 3.663 2.38 3.663 4.023zM98.383 135.831c0 1.644-2.014 2.976-3.663 2.976a2.98 2.98 0 0 1-2.984-2.976c0-1.643 1.337-4.023 2.984-4.023 1.649 0 3.663 2.38 3.663 4.023zm13.754 0c0 1.644-2.015 2.976-3.663 2.976a2.98 2.98 0 0 1-2.985-2.976c0-1.643 1.336-4.023 2.985-4.023 1.648 0 3.663 2.38 3.663 4.023zm13.754 0c0 1.644-2.016 2.976-3.663 2.976a2.98 2.98 0 0 1-2.984-2.976c0-1.643 1.335-4.023 2.984-4.023 1.647 0 3.663 2.38 3.663 4.023zm13.754 0c0 1.644-2.016 2.976-3.664 2.976a2.98 2.98 0 0 1-2.984-2.976c0-1.643 1.336-4.023 2.984-4.023s3.664 2.38 3.664 4.023zm13.751 0c0 1.644-2.014 2.976-3.663 2.976a2.98 2.98 0 0 1-2.984-2.976c0-1.643 1.337-4.023 2.984-4.023 1.649 0 3.663 2.38 3.663 4.023zm13.755 0c0 1.644-2.016 2.976-3.663 2.976a2.98 2.98 0 0 1-2.984-2.976c0-1.643 1.335-4.023 2.984-4.023 1.647 0 3.663 2.38 3.663 4.023zm13.753 0c0 1.644-2.016 2.976-3.663 2.976a2.98 2.98 0 0 1-2.984-2.976c0-1.643 1.335-4.023 2.984-4.023 1.647 0 3.663 2.38 3.663 4.023zm13.754 0c0 1.644-2.016 2.976-3.664 2.976a2.98 2.98 0 0 1-2.984-2.976c0-1.643 1.336-4.023 2.984-4.023s3.664 2.38 3.664 4.023zm13.753 0c0 1.644-2.015 2.976-3.664 2.976a2.98 2.98 0 0 1-2.984-2.976c0-1.643 1.336-4.023 2.984-4.023 1.649 0 3.664 2.38 3.664 4.023zm13.753 0c0 1.644-2.015 2.976-3.663 2.976a2.98 2.98 0 0 1-2.984-2.976c0-1.643 1.336-4.023 2.984-4.023s3.663 2.38 3.663 4.023zm13.753 0c0 1.644-2.016 2.976-3.663 2.976a2.98 2.98 0 0 1-2.984-2.976c0-1.643 1.335-4.023 2.984-4.023 1.647 0 3.663 2.38 3.663 4.023zm13.753 0c0 1.644-2.014 2.976-3.663 2.976a2.98 2.98 0 0 1-2.984-2.976c0-1.643 1.335-4.023 2.984-4.023s3.663 2.38 3.663 4.023zm-151.287 12.6c0 1.644-2.014 2.976-3.663 2.976a2.98 2.98 0 0 1-2.984-2.976c0-1.643 1.337-4.023 2.984-4.023 1.649 0 3.663 2.38 3.663 4.023zm13.754 0c0 1.644-2.015 2.976-3.663 2.976a2.98 2.98 0 0 1-2.985-2.976c0-1.643 1.336-4.023 2.985-4.023 1.648 0 3.663 2.38 3.663 4.023zm13.754 0c0 1.644-2.016 2.976-3.663 2.976a2.98 2.98 0 0 1-2.984-2.976c0-1.643 1.335-4.023 2.984-4.023 1.647 0 3.663 2.38 3.663 4.023zm13.754 0c0 1.644-2.016 2.976-3.664 2.976a2.98 2.98 0 0 1-2.984-2.976c0-1.643 1.336-4.023 2.984-4.023s3.664 2.38 3.664 4.023zm13.751 0c0 1.644-2.014 2.976-3.663 2.976a2.98 2.98 0 0 1-2.984-2.976c0-1.643 1.337-4.023 2.984-4.023 1.649 0 3.663 2.38 3.663 4.023zm13.755 0c0 1.644-2.016 2.976-3.663 2.976a2.98 2.98 0 0 1-2.984-2.976c0-1.643 1.335-4.023 2.984-4.023 1.647 0 3.663 2.38 3.663 4.023zm13.753 0c0 1.644-2.016 2.976-3.663 2.976a2.98 2.98 0 0 1-2.984-2.976c0-1.643 1.335-4.023 2.984-4.023 1.647 0 3.663 2.38 3.663 4.023zm13.754 0c0 1.644-2.016 2.976-3.664 2.976a2.98 2.98 0 0 1-2.984-2.976c0-1.643 1.336-4.023 2.984-4.023s3.664 2.38 3.664 4.023zm13.753 0c0 1.644-2.015 2.976-3.664 2.976a2.98 2.98 0 0 1-2.984-2.976c0-1.643 1.336-4.023 2.984-4.023 1.649 0 3.664 2.38 3.664 4.023zm13.753 0c0 1.644-2.015 2.976-3.663 2.976a2.98 2.98 0 0 1-2.984-2.976c0-1.643 1.336-4.023 2.984-4.023s3.663 2.38 3.663 4.023zm13.753 0c0 1.644-2.016 2.976-3.663 2.976a2.98 2.98 0 0 1-2.984-2.976c0-1.643 1.335-4.023 2.984-4.023 1.647 0 3.663 2.38 3.663 4.023zm13.753 0c0 1.644-2.014 2.976-3.663 2.976a2.98 2.98 0 0 1-2.984-2.976c0-1.643 1.335-4.023 2.984-4.023s3.663 2.38 3.663 4.023zM98.383 161.03c0 1.644-2.015 2.976-3.663 2.976a2.98 2.98 0 0 1-2.984-2.976c0-1.643 1.335-4.023 2.984-4.023 1.648 0 3.663 2.38 3.663 4.023zm13.754 0c0 1.644-2.015 2.976-3.663 2.976a2.98 2.98 0 0 1-2.985-2.976c0-1.643 1.336-4.023 2.985-4.023 1.648 0 3.663 2.38 3.663 4.023zm13.754 0c0 1.644-2.016 2.976-3.663 2.976a2.98 2.98 0 0 1-2.984-2.976c0-1.643 1.335-4.023 2.984-4.023 1.647 0 3.663 2.38 3.663 4.023zm13.754 0c0 1.644-2.016 2.976-3.664 2.976a2.98 2.98 0 0 1-2.984-2.976c0-1.643 1.336-4.023 2.984-4.023s3.664 2.38 3.664 4.023zm13.751 0c0 1.644-2.014 2.976-3.663 2.976a2.98 2.98 0 0 1-2.984-2.976c0-1.643 1.337-4.023 2.984-4.023 1.649 0 3.663 2.38 3.663 4.023zm13.755 0c0 1.644-2.016 2.976-3.663 2.976a2.98 2.98 0 0 1-2.984-2.976c0-1.643 1.335-4.023 2.984-4.023 1.647 0 3.663 2.38 3.663 4.023zm13.753 0c0 1.644-2.016 2.976-3.663 2.976a2.98 2.98 0 0 1-2.984-2.976c0-1.643 1.335-4.023 2.984-4.023 1.647 0 3.663 2.38 3.663 4.023zm13.754 0c0 1.644-2.016 2.976-3.664 2.976a2.98 2.98 0 0 1-2.984-2.976c0-1.643 1.336-4.023 2.984-4.023s3.664 2.38 3.664 4.023zm13.753 0c0 1.644-2.015 2.976-3.664 2.976a2.98 2.98 0 0 1-2.984-2.976c0-1.643 1.336-4.023 2.984-4.023 1.649 0 3.664 2.38 3.664 4.023zm13.753 0c0 1.644-2.015 2.976-3.663 2.976a2.98 2.98 0 0 1-2.984-2.976c0-1.643 1.336-4.023 2.984-4.023s3.663 2.38 3.663 4.023zm13.753 0c0 1.644-2.016 2.976-3.663 2.976a2.98 2.98 0 0 1-2.984-2.976c0-1.643 1.335-4.023 2.984-4.023 1.647 0 3.663 2.38 3.663 4.023zm13.753 0c0 1.644-2.014 2.976-3.663 2.976a2.98 2.98 0 0 1-2.984-2.976c0-1.643 1.335-4.023 2.984-4.023s3.663 2.38 3.663 4.023zm-165.04 12.6c0 1.644-2.016 2.976-3.663 2.976a2.98 2.98 0 0 1-2.984-2.976c0-1.643 1.335-4.023 2.984-4.023 1.647 0 3.663 2.38 3.663 4.023zm27.507 0c0 1.644-2.015 2.976-3.663 2.976a2.98 2.98 0 0 1-2.985-2.976c0-1.643 1.336-4.023 2.985-4.023 1.648 0 3.663 2.38 3.663 4.023zm13.754 0c0 1.644-2.016 2.976-3.663 2.976a2.98 2.98 0 0 1-2.984-2.976c0-1.643 1.335-4.023 2.984-4.023 1.647 0 3.663 2.38 3.663 4.023zm13.754 0c0 1.644-2.016 2.976-3.664 2.976a2.98 2.98 0 0 1-2.984-2.976c0-1.643 1.336-4.023 2.984-4.023s3.664 2.38 3.664 4.023zm13.751 0c0 1.644-2.014 2.976-3.663 2.976a2.98 2.98 0 0 1-2.984-2.976c0-1.643 1.337-4.023 2.984-4.023 1.649 0 3.663 2.38 3.663 4.023zm13.755 0c0 1.644-2.016 2.976-3.663 2.976a2.98 2.98 0 0 1-2.984-2.976c0-1.643 1.335-4.023 2.984-4.023 1.647 0 3.663 2.38 3.663 4.023zm13.753 0c0 1.644-2.016 2.976-3.663 2.976a2.98 2.98 0 0 1-2.984-2.976c0-1.643 1.335-4.023 2.984-4.023 1.647 0 3.663 2.38 3.663 4.023zm13.754 0c0 1.644-2.016 2.976-3.664 2.976a2.98 2.98 0 0 1-2.984-2.976c0-1.643 1.336-4.023 2.984-4.023s3.664 2.38 3.664 4.023zm13.753 0c0 1.644-2.015 2.976-3.664 2.976a2.98 2.98 0 0 1-2.984-2.976c0-1.643 1.336-4.023 2.984-4.023 1.649 0 3.664 2.38 3.664 4.023zm13.753 0c0 1.644-2.015 2.976-3.663 2.976a2.98 2.98 0 0 1-2.984-2.976c0-1.643 1.336-4.023 2.984-4.023s3.663 2.38 3.663 4.023zm27.506 0c0 1.644-2.014 2.976-3.663 2.976a2.98 2.98 0 0 1-2.984-2.976c0-1.643 1.335-4.023 2.984-4.023s3.663 2.38 3.663 4.023zM84.63 186.228c0 1.645-2.014 2.977-3.663 2.977a2.98 2.98 0 0 1-2.984-2.977c0-1.643 1.337-4.023 2.984-4.023 1.649 0 3.663 2.38 3.663 4.023zm13.753 0c0 1.645-2.014 2.977-3.663 2.977a2.98 2.98 0 0 1-2.984-2.977c0-1.643 1.337-4.023 2.984-4.023 1.649 0 3.663 2.38 3.663 4.023zm13.754 0c0 1.645-2.015 2.977-3.663 2.977a2.98 2.98 0 0 1-2.985-2.977c0-1.643 1.336-4.023 2.985-4.023 1.648 0 3.663 2.38 3.663 4.023zm27.508 0c0 1.645-2.016 2.977-3.664 2.977a2.98 2.98 0 0 1-2.984-2.977c0-1.643 1.336-4.023 2.984-4.023s3.664 2.38 3.664 4.023zm13.751 0c0 1.645-2.014 2.977-3.663 2.977a2.98 2.98 0 0 1-2.984-2.977c0-1.643 1.337-4.023 2.984-4.023 1.649 0 3.663 2.38 3.663 4.023zm13.755 0c0 1.645-2.016 2.977-3.663 2.977a2.98 2.98 0 0 1-2.984-2.977c0-1.643 1.335-4.023 2.984-4.023 1.647 0 3.663 2.38 3.663 4.023zm13.753 0c0 1.645-2.016 2.977-3.663 2.977a2.98 2.98 0 0 1-2.984-2.977c0-1.643 1.335-4.023 2.984-4.023 1.647 0 3.663 2.38 3.663 4.023zm13.754 0c0 1.645-2.016 2.977-3.664 2.977a2.98 2.98 0 0 1-2.984-2.977c0-1.643 1.336-4.023 2.984-4.023s3.664 2.38 3.664 4.023zm13.753 0c0 1.645-2.016 2.977-3.664 2.977a2.98 2.98 0 0 1-2.984-2.977c0-1.643 1.336-4.023 2.984-4.023s3.664 2.38 3.664 4.023zm13.753 0c0 1.645-2.015 2.977-3.663 2.977a2.98 2.98 0 0 1-2.984-2.977c0-1.643 1.336-4.023 2.984-4.023s3.663 2.38 3.663 4.023zm13.753 0c0 1.645-2.016 2.977-3.663 2.977a2.98 2.98 0 0 1-2.984-2.977c0-1.643 1.335-4.023 2.984-4.023 1.647 0 3.663 2.38 3.663 4.023zm13.753 0c0 1.645-2.014 2.977-3.663 2.977a2.98 2.98 0 0 1-2.984-2.977c0-1.643 1.335-4.023 2.984-4.023s3.663 2.38 3.663 4.023zm-165.04 12.6c0 1.645-2.014 2.977-3.663 2.977a2.98 2.98 0 0 1-2.984-2.977c0-1.643 1.337-4.023 2.984-4.023 1.649 0 3.663 2.38 3.663 4.023zm13.753 0c0 1.645-2.014 2.977-3.663 2.977a2.98 2.98 0 0 1-2.984-2.977c0-1.643 1.337-4.023 2.984-4.023 1.649 0 3.663 2.38 3.663 4.023zm13.754 0c0 1.645-2.015 2.977-3.663 2.977a2.98 2.98 0 0 1-2.985-2.977c0-1.643 1.336-4.023 2.985-4.023 1.648 0 3.663 2.38 3.663 4.023zm13.754 0c0 1.645-2.016 2.977-3.663 2.977a2.98 2.98 0 0 1-2.984-2.977c0-1.643 1.335-4.023 2.984-4.023 1.647 0 3.663 2.38 3.663 4.023zm13.754 0c0 1.645-2.016 2.977-3.664 2.977a2.98 2.98 0 0 1-2.984-2.977c0-1.643 1.336-4.023 2.984-4.023s3.664 2.38 3.664 4.023zm27.506 0c0 1.645-2.016 2.977-3.663 2.977a2.98 2.98 0 0 1-2.984-2.977c0-1.643 1.335-4.023 2.984-4.023 1.647 0 3.663 2.38 3.663 4.023zm13.753 0c0 1.645-2.016 2.977-3.663 2.977a2.98 2.98 0 0 1-2.984-2.977c0-1.643 1.335-4.023 2.984-4.023 1.647 0 3.663 2.38 3.663 4.023zm13.754 0c0 1.645-2.016 2.977-3.664 2.977a2.98 2.98 0 0 1-2.984-2.977c0-1.643 1.336-4.023 2.984-4.023s3.664 2.38 3.664 4.023zm13.753 0c0 1.645-2.015 2.977-3.664 2.977a2.98 2.98 0 0 1-2.984-2.977c0-1.643 1.336-4.023 2.984-4.023 1.649 0 3.664 2.38 3.664 4.023zm13.753 0c0 1.645-2.015 2.977-3.663 2.977a2.98 2.98 0 0 1-2.984-2.977c0-1.643 1.336-4.023 2.984-4.023s3.663 2.38 3.663 4.023zm13.753 0c0 1.645-2.016 2.977-3.663 2.977a2.98 2.98 0 0 1-2.984-2.977c0-1.643 1.335-4.023 2.984-4.023 1.647 0 3.663 2.38 3.663 4.023zm13.753 0c0 1.645-2.014 2.977-3.663 2.977a2.98 2.98 0 0 1-2.984-2.977c0-1.643 1.335-4.023 2.984-4.023s3.663 2.38 3.663 4.023zm-165.04 12.6c0 1.643-2.016 2.977-3.663 2.977a2.981 2.981 0 0 1-2.984-2.977c0-1.644 1.335-4.024 2.984-4.024 1.647 0 3.663 2.38 3.663 4.024zm13.753 0c0 1.643-2.014 2.977-3.663 2.977a2.982 2.982 0 0 1-2.984-2.977c0-1.644 1.337-4.024 2.984-4.024 1.649 0 3.663 2.38 3.663 4.024zm13.754 0c0 1.643-2.015 2.977-3.663 2.977a2.981 2.981 0 0 1-2.985-2.977c0-1.644 1.336-4.024 2.985-4.024 1.648 0 3.663 2.38 3.663 4.024zm13.754 0c0 1.643-2.016 2.977-3.663 2.977a2.98 2.98 0 0 1-2.984-2.977c0-1.644 1.335-4.024 2.984-4.024 1.647 0 3.663 2.38 3.663 4.024zm13.754 0c0 1.643-2.016 2.977-3.664 2.977a2.981 2.981 0 0 1-2.984-2.977c0-1.644 1.336-4.024 2.984-4.024s3.664 2.38 3.664 4.024zm13.751 0c0 1.643-2.014 2.977-3.663 2.977a2.982 2.982 0 0 1-2.984-2.977c0-1.644 1.337-4.024 2.984-4.024 1.649 0 3.663 2.38 3.663 4.024zm13.755 0c0 1.643-2.016 2.977-3.663 2.977a2.98 2.98 0 0 1-2.984-2.977c0-1.644 1.335-4.024 2.984-4.024 1.647 0 3.663 2.38 3.663 4.024zm13.753 0c0 1.643-2.016 2.977-3.663 2.977a2.98 2.98 0 0 1-2.984-2.977c0-1.644 1.335-4.024 2.984-4.024 1.647 0 3.663 2.38 3.663 4.024zm13.754 0c0 1.643-2.016 2.977-3.664 2.977a2.981 2.981 0 0 1-2.984-2.977c0-1.644 1.336-4.024 2.984-4.024s3.664 2.38 3.664 4.024zm13.753 0c0 1.643-2.015 2.977-3.664 2.977a2.981 2.981 0 0 1-2.984-2.977c0-1.644 1.336-4.024 2.984-4.024 1.649 0 3.664 2.38 3.664 4.024zm27.506 0c0 1.643-2.016 2.977-3.663 2.977a2.98 2.98 0 0 1-2.984-2.977c0-1.644 1.335-4.024 2.984-4.024 1.647 0 3.663 2.38 3.663 4.024zm13.753 0c0 1.643-2.014 2.977-3.663 2.977a2.98 2.98 0 0 1-2.984-2.977c0-1.644 1.335-4.024 2.984-4.024s3.663 2.38 3.663 4.024zm-165.04 12.6c0 1.643-2.016 2.977-3.663 2.977a2.981 2.981 0 0 1-2.984-2.977c0-1.644 1.335-4.024 2.984-4.024 1.647 0 3.663 2.38 3.663 4.024zm13.753 0c0 1.643-2.014 2.977-3.663 2.977a2.982 2.982 0 0 1-2.984-2.977c0-1.644 1.337-4.024 2.984-4.024 1.649 0 3.663 2.38 3.663 4.024zm13.754 0c0 1.643-2.015 2.977-3.663 2.977a2.981 2.981 0 0 1-2.985-2.977c0-1.644 1.336-4.024 2.985-4.024 1.648 0 3.663 2.38 3.663 4.024zm13.754 0c0 1.643-2.016 2.977-3.663 2.977a2.98 2.98 0 0 1-2.984-2.977c0-1.644 1.335-4.024 2.984-4.024 1.647 0 3.663 2.38 3.663 4.024zm13.754 0c0 1.643-2.016 2.977-3.664 2.977a2.981 2.981 0 0 1-2.984-2.977c0-1.644 1.336-4.024 2.984-4.024s3.664 2.38 3.664 4.024zm13.751 0c0 1.643-2.014 2.977-3.663 2.977a2.982 2.982 0 0 1-2.984-2.977c0-1.644 1.337-4.024 2.984-4.024 1.649 0 3.663 2.38 3.663 4.024zm27.508 0c0 1.643-2.016 2.977-3.663 2.977a2.98 2.98 0 0 1-2.984-2.977c0-1.644 1.335-4.024 2.984-4.024 1.647 0 3.663 2.38 3.663 4.024zm13.754 0c0 1.643-2.016 2.977-3.664 2.977a2.981 2.981 0 0 1-2.984-2.977c0-1.644 1.336-4.024 2.984-4.024s3.664 2.38 3.664 4.024zm13.753 0c0 1.643-2.015 2.977-3.664 2.977a2.981 2.981 0 0 1-2.984-2.977c0-1.644 1.336-4.024 2.984-4.024 1.649 0 3.664 2.38 3.664 4.024zm13.753 0c0 1.643-2.015 2.977-3.663 2.977a2.981 2.981 0 0 1-2.984-2.977c0-1.644 1.336-4.024 2.984-4.024s3.663 2.38 3.663 4.024zm13.753 0c0 1.643-2.016 2.977-3.663 2.977a2.98 2.98 0 0 1-2.984-2.977c0-1.644 1.335-4.024 2.984-4.024 1.647 0 3.663 2.38 3.663 4.024zm13.753 0c0 1.643-2.014 2.977-3.663 2.977a2.98 2.98 0 0 1-2.984-2.977c0-1.644 1.335-4.024 2.984-4.024s3.663 2.38 3.663 4.024zM84.63 236.627c0 1.643-2.016 2.976-3.663 2.976a2.98 2.98 0 0 1-2.984-2.976c0-1.645 1.335-4.025 2.984-4.025 1.647 0 3.663 2.38 3.663 4.025zm13.753 0c0 1.643-2.014 2.976-3.663 2.976a2.981 2.981 0 0 1-2.984-2.976c0-1.645 1.337-4.025 2.984-4.025 1.649 0 3.663 2.38 3.663 4.025zm13.754 0c0 1.643-2.015 2.976-3.663 2.976a2.98 2.98 0 0 1-2.985-2.976c0-1.645 1.336-4.025 2.985-4.025 1.648 0 3.663 2.38 3.663 4.025zm13.753 0c0 1.643-2.016 2.976-3.663 2.976a2.98 2.98 0 0 1-2.984-2.976c0-1.645 1.335-4.025 2.984-4.025 1.647 0 3.663 2.38 3.663 4.025zm13.755 0c0 1.643-2.016 2.976-3.664 2.976a2.98 2.98 0 0 1-2.984-2.976c0-1.645 1.336-4.025 2.984-4.025s3.664 2.38 3.664 4.025zm13.751 0c0 1.643-2.014 2.976-3.663 2.976a2.981 2.981 0 0 1-2.984-2.976c0-1.645 1.337-4.025 2.984-4.025 1.649 0 3.663 2.38 3.663 4.025zm13.755 0c0 1.643-2.016 2.976-3.663 2.976a2.98 2.98 0 0 1-2.984-2.976c0-1.645 1.335-4.025 2.984-4.025 1.647 0 3.663 2.38 3.663 4.025zm27.507 0c0 1.643-2.016 2.976-3.664 2.976a2.98 2.98 0 0 1-2.984-2.976c0-1.645 1.336-4.025 2.984-4.025s3.664 2.38 3.664 4.025zm13.753 0c0 1.643-2.016 2.976-3.664 2.976a2.98 2.98 0 0 1-2.984-2.976c0-1.645 1.336-4.025 2.984-4.025s3.664 2.38 3.664 4.025zm13.753 0c0 1.643-2.015 2.976-3.663 2.976a2.98 2.98 0 0 1-2.984-2.976c0-1.645 1.336-4.025 2.984-4.025s3.663 2.38 3.663 4.025zm13.753 0c0 1.643-2.016 2.976-3.663 2.976a2.98 2.98 0 0 1-2.984-2.976c0-1.645 1.335-4.025 2.984-4.025 1.647 0 3.663 2.38 3.663 4.025zm13.753 0c0 1.643-2.014 2.976-3.663 2.976a2.98 2.98 0 0 1-2.984-2.976c0-1.645 1.335-4.025 2.984-4.025s3.663 2.38 3.663 4.025z"/></g></g></svg>