<svg width="95" height="95" viewBox="0 0 95 95" fill="none" xmlns="http://www.w3.org/2000/svg"><path d="M47.5 95C73.734 95 95 73.734 95 47.5 95 21.267 73.734 0 47.5 0 21.267 0 0 21.267 0 47.5 0 73.734 21.267 95 47.5 95z" fill="#FDB556"/><path d="M95 47.5a47.35 47.35 0 0 0-3.791-18.622L79.463 17.132 15.537 27.616 29.91 41.989l.477 34.819 18.179 18.179C74.306 94.42 95 73.377 95 47.5z" fill="#FD9126"/><path d="M73.897 27.314h5.566v16.973h-5.566V27.314z" fill="#FEDD55"/><path d="M24.34 58.492c0-2.8-1.45-5.493-.602-8.008 3.34-9.919 12.718-17.062 23.763-17.062 7.668 0 14.532 3.443 19.13 8.867 1.074 1.266.363 4.303 1.171 5.768.808 1.464 3.136 1.356 3.642 2.98a25.06 25.06 0 0 1 1.097 8.681c-.162 3.371-2.679 4.879-4.044 7.772-1.148 2.434-.989 6.341-2.82 8.269-4.568 4.806-11.022 7.803-18.176 7.803-11.045 0-20.422-7.144-23.763-17.062-.848-2.515.602-5.208.602-8.008z" fill="#238CF8"/><path d="M72.57 58.492c0 .41-.009.82-.03 1.226-.161 3.37-2.679 4.88-4.042 7.772-1.15 2.433-.99 6.342-2.821 8.27-4.459 4.687-10.71 7.654-17.655 7.796V33.428c7.457.152 14.115 3.559 18.608 8.86 1.075 1.268.364 4.304 1.171 5.768.809 1.465 3.138 1.357 3.643 2.98a25.112 25.112 0 0 1 1.126 7.456z" fill="#0768DD"/><path d="M62.763 59.718a3.98 3.98 0 0 0-3.968 3.968v1.324c0 .526.105 1.029.293 1.49h-3.626a3.98 3.98 0 0 0-3.967 3.967v1.324a3.98 3.98 0 0 0 3.967 3.967h10.214a24.979 24.979 0 0 0 6.864-16.04h-9.777zm-8.98-13.461v1.324a3.98 3.98 0 0 0 3.968 3.968h13.845a25.01 25.01 0 0 0-4.966-9.26h-8.88a3.98 3.98 0 0 0-3.967 3.968z" fill="#54C9FC"/><path d="M34.591 62.532v-1.324c0-.517-.1-1.01-.283-1.465h3.662a3.98 3.98 0 0 0 3.967-3.967v-1.324a3.98 3.98 0 0 0-3.967-3.968H23.738a25.04 25.04 0 0 0-1.307 8.008c0 2.8.46 5.493 1.307 8.007h6.886a3.979 3.979 0 0 0 3.967-3.967z" fill="#5EEFEE"/><path d="M26.842 27.063h41.316v17.224H26.842V27.063z" fill="#57555C"/><path d="M47.5 27.062h20.659v17.224H47.5V27.062z" fill="#48464C"/><path d="M15.537 17.132h63.926v10.484H15.537V17.132z" fill="#8E8382"/><path d="M47.5 17.132h31.963v10.484H47.5V17.132z" fill="#776D6B"/></svg>