<svg width="95" height="95" viewBox="0 0 95 95" fill="none" xmlns="http://www.w3.org/2000/svg"><path d="M47.5 95C73.734 95 95 73.734 95 47.5 95 21.267 73.734 0 47.5 0 21.267 0 0 21.267 0 47.5 0 73.734 21.267 95 47.5 95z" fill="#7797FB"/><path d="M93.165 60.614a8.487 8.487 0 0 0-1.179-1.428c-.06-.063-35.068-35.068-35.068-35.068l-17.844-2.564c-.01 0-3.37-3.308-3.37-3.37l-1.808 18.818 1.808 1.81 3.55 13.193 3.363 3.364-17.024 20.334 19.22 19.22c.89.05 1.785.077 2.687.077 21.684 0 39.974-14.53 45.665-34.386z" fill="#6666FA"/><path d="M25.593 63.795v11.908h6.74l3.371-3.09V59.16l-3.37-3.62c-3.841.783-6.74 4.186-6.74 8.255z" fill="#F1F1FA"/><path d="M62.666 55.54l-3.37 3.2v13.48l3.37 3.483h6.74V63.795c0-4.069-2.899-7.472-6.74-8.255z" fill="#DFE5F2"/><path d="M60.981 55.369H34.02c-.577 0-1.14.06-1.685.17v20.164h30.332V55.54a8.438 8.438 0 0 0-1.685-.17z" fill="#4B5055"/><path d="M62.666 55.54a8.424 8.424 0 0 0-1.685-.171H47.5v20.334h15.166V55.54z" fill="#373C41"/><path d="M56.452 29.98H35.704v13.593c0 6.515 5.281 11.796 11.796 11.796s11.796-5.281 11.796-11.796v-5.168l-2.844-8.425z" fill="#F5DBCA"/><path d="M59.296 43.573v-5.168l-2.844-8.425H47.5v25.389c6.515 0 11.796-5.281 11.796-11.796z" fill="#EFBEAA"/><path d="M47.5 59.582l-8.426-4.213v12.194L47.5 63.35l8.426 4.213V55.37L47.5 59.582z" fill="#DD4E4E"/><path d="M55.926 55.369L47.5 59.582v3.768l8.426 4.213V55.37z" fill="#C53232"/><path d="M50.87 21.554H39.074a3.38 3.38 0 0 1-3.37-3.37h-3.37V33.35a5.049 5.049 0 0 0 5.055 5.055h3.37a3.38 3.38 0 0 0 3.37-3.37 3.38 3.38 0 0 1 3.371-3.37 3.38 3.38 0 0 1 3.37 3.37 3.38 3.38 0 0 0 3.37 3.37h5.056V29.98a8.429 8.429 0 0 0-8.426-8.426z" fill="#F0CA6C"/><path d="M50.87 35.035a3.38 3.38 0 0 0 3.37 3.37h5.056V29.98a8.429 8.429 0 0 0-8.426-8.426H47.5v10.11a3.38 3.38 0 0 1 3.37 3.371z" fill="#E6973E"/></svg>