<svg width="285" height="318" viewBox="0 0 285 318" fill="none" xmlns="http://www.w3.org/2000/svg"><path d="M73.539 47c-4.15.23-8.237 1.93-11.41 5.102-6.839 6.84-6.839 17.929 0 24.768A17.46 17.46 0 0 0 74.514 82c4.482 0 8.965-1.71 12.384-5.13A17.45 17.45 0 0 0 92 65.46L73.539 47zM69.6 70.338h-3.468l3.676-6.128 1.688 2.81-1.896 3.318zm1.68 0l5.825-10.194 5.826 10.194H71.28zm16.987-6.546a15.983 15.983 0 0 1-8.594-4.465 15.92 15.92 0 0 1-3.691-5.733 16.082 16.082 0 0 1-.776-2.863l13.061 13.061zm.948 7.155a15.999 15.999 0 0 1-3.35 4.892 16.004 16.004 0 0 1-11.352 4.702 16 16 0 0 1-11.352-4.702 15.988 15.988 0 0 1-4.703-11.352 15.989 15.989 0 0 1 4.703-11.353 15.973 15.973 0 0 1 9.82-4.629l.565.567a17.453 17.453 0 0 0 3.109 8.919l-4.33 7.577-2.517-4.195-6.255 10.424h21.892L79.23 60.92a17.443 17.443 0 0 0 10.698 4.533l.567.567a15.959 15.959 0 0 1-1.279 4.928z" fill="url(#a)" style="mix-blend-mode:multiply"/><path d="M223.875 40l-8.548 10.008-.779.912-8.549 10.009 18.312 15.64 8.548-10.008.779-.913 8.549-10.008L223.875 40zm.308 34.95l-16.565-14.148 7.803-9.136 16.565 14.148-7.803 9.136zM216.2 50.754l7.802-9.135 16.565 14.148-7.802 9.135L216.2 50.754z" fill="#fff"/><path d="M226.021 50.034l.38-2.274-5.433 1.824 1.868 1.596 2.617 2.235 3.362 2.87 1.481-7.786-4.275 1.535zm-2.766-.007l1.7-.574-.172 1.028-.703.25-.825-.704zm1.829 1.563l3.71-1.332-.736 3.872-2.974-2.54zm2.554 5.196l-6.978-5.96a.577.577 0 0 0-.81.066.576.576 0 0 0 .065.807l6.977 5.96a.573.573 0 1 0 .746-.873zm-15.544 4.07a.573.573 0 0 0-.743.87.573.573 0 1 0 .743-.87zm1.743 1.488a.572.572 0 0 0-.743.87.574.574 0 0 0 .81-.06.574.574 0 0 0-.067-.81zm1.747 1.492a.574.574 0 0 0-.81.061.574.574 0 0 0 .874.746.573.573 0 0 0-.064-.807zm1.743 1.489a.574.574 0 0 0-.81.061.573.573 0 1 0 .81-.06zm1.744 1.49a.571.571 0 1 0 .063.806.57.57 0 0 0-.063-.806zm-2.182-3.374l3.362 2.871 1.478-7.783-4.274 1.534.382-2.276-5.433 1.823 1.868 1.596 2.617 2.235zm2.603.718l-2.974-2.54 3.709-1.332-.735 3.872zm-4.804-4.103l1.7-.573-.169 1.025-.706.253-.825-.705zm21.885-1.633a.575.575 0 0 0-.617-.527l-2.859.228-.09-1.144a.575.575 0 0 0-1.144.09l.134 1.713a.575.575 0 0 0 .617.527l3.432-.27a.575.575 0 0 0 .527-.617zm-13.078 10.315a.57.57 0 0 0 .617.527l.002.002 1.142-.092.09 1.144a.575.575 0 0 0 .617.527.575.575 0 0 0 .527-.617l-.093-1.141 1.144-.09a.575.575 0 0 0-.09-1.144l-1.144.09-.087-1.142-.003-.002a.575.575 0 0 0-1.144.09l.09 1.144-1.141.087a.574.574 0 0 0-.527.617z" fill="#fff"/><path d="M203.229 166.896l.694-1.74.232-.58.231-.58c-1.585-.632-2.354-2.448-1.716-4.047.638-1.599 2.446-2.386 4.031-1.753l.232-.581.231-.58.695-1.74-1.357-9.956-7.248-.202-.239 3.939-13.218-5.275-6.482 16.241 13.218 5.276-2.539 3.021 5.396 4.843 7.839-6.286zm-11.509 1.314l1.757-2.09 1.114-1.326-1.595-.637-12.068-4.816 5.556-13.922 12.068 4.817 1.595.636.105-1.728.165-2.726 4.999.139 1.17 8.587-.639 1.601a4.367 4.367 0 0 0-4.426 2.745 4.366 4.366 0 0 0 1.32 5.038l-.639 1.601-6.761 5.422-3.721-3.341z" fill="url(#b)" style="mix-blend-mode:multiply"/><path d="M193.598 155.26l2.187-.364-3.319-4.399-.882 2.21-1.235 3.093-1.587 3.978 7.541-1.09-2.705-3.428zm-.801-2.255l.755.999-.835.139-.248-.314.328-.824zm-.862 2.16l2.051 2.599-3.277.473 1.226-3.072z" fill="url(#c)" style="mix-blend-mode:multiply"/><path d="M151 313.05l-8.727-9.05 6.614-6.859c1.318-1.366 1.318-3.582 0-4.949a3.305 3.305 0 0 0-2.387-1.026c-.863 0-1.728.342-2.387 1.026l-6.613 6.858-8.727-9.05-4.773 4.95 8.727 9.05-7.602 7.884v4.95h4.773l7.602-7.884 8.727 9.05 4.773-4.95zm-9.523-9.875l-1.189-1.234 5.022-5.208 1.19 1.233-5.023 5.209zm3.432-10.159c.425-.44.99-.683 1.591-.683s1.166.243 1.591.683c.877.91.877 2.391 0 3.3l-.796.825-3.182-3.3.796-.825zm-1.591 1.65l1.197 1.242-5.023 5.208-1.197-1.241 5.023-5.209zm-14.545-3.016l1.568 1.625-.796.825a.598.598 0 0 0 0 .825c.22.228.576.228.796 0v-.001l.795-.824 1.591 1.65-.795.825a.598.598 0 0 0 0 .825.548.548 0 0 0 .795 0l.796-.825 1.591 1.65-.795.825h-.001a.6.6 0 0 0 0 .825c.22.228.576.228.796 0l.795-.825 1.591 1.65-.795.825a.598.598 0 0 0 0 .825.548.548 0 0 0 .795 0l.795-.825 1.591 1.65-.795.825a.598.598 0 0 0 0 .825.548.548 0 0 0 .795 0h.001l.795-.825 1.591 1.65-.796.825a.6.6 0 0 0 0 .825c.22.228.576.228.796 0l.795-.825 1.592 1.65-.796.825a.598.598 0 0 0 0 .825.55.55 0 0 0 .796 0v-.001l.795-.824 1.591 1.65-.795.824v.001a.598.598 0 0 0 0 .825.55.55 0 0 0 .795 0l.796-.825 1.567 1.625-3.182 3.3-20.636-21.4 3.182-3.3zm-2.524 24.017v-.967l.933.967h-.933zm3.183 0h-.66l-2.523-2.617v-.683l7.274-7.542 1.196 1.241-5.613 5.821a.598.598 0 0 0 0 .825.548.548 0 0 0 .795 0l5.614-5.821 1.19 1.234-7.273 7.542z" fill="#fff"/><path d="M156 25.05L147.273 16l6.614-6.859c1.318-1.366 1.318-3.582 0-4.95a3.306 3.306 0 0 0-2.387-1.025c-.863 0-1.728.342-2.387 1.026L142.5 11.05 133.773 2 129 6.95l8.727 9.05-7.602 7.884v4.95h4.773l7.602-7.884 8.727 9.05L156 25.05zm-9.523-9.875l-1.189-1.234 5.022-5.208 1.19 1.233-5.023 5.209zm3.432-10.159a2.196 2.196 0 0 1 3.182 0c.877.91.877 2.39 0 3.3l-.796.825-3.182-3.3.796-.825zm-1.591 1.65l1.197 1.242-5.023 5.208-1.197-1.24 5.023-5.21zM133.773 3.65l1.568 1.625-.796.825a.598.598 0 0 0 0 .825.55.55 0 0 0 .796 0l.795-.825 1.591 1.65-.795.825a.598.598 0 0 0 0 .825.548.548 0 0 0 .795 0l.796-.825 1.591 1.65-.795.825h-.001a.6.6 0 0 0 0 .825c.22.228.576.228.796 0l.795-.825 1.591 1.65-.795.825a.598.598 0 0 0 0 .825.548.548 0 0 0 .795 0l.795-.825 1.591 1.65-.795.825a.598.598 0 0 0 0 .825.548.548 0 0 0 .795 0h.001l.795-.825 1.591 1.65-.796.825a.6.6 0 0 0 0 .825.55.55 0 0 0 .796 0l.795-.825 1.592 1.65-.796.825a.598.598 0 0 0 0 .825.55.55 0 0 0 .796 0l.795-.825 1.591 1.65-.795.824a.598.598 0 0 0 0 .826.55.55 0 0 0 .795 0l.796-.825 1.567 1.625-3.182 3.3-20.636-21.4 3.182-3.3zm-2.524 24.017V26.7l.933.967h-.933zm3.183 0h-.66l-2.523-2.617v-.683l7.274-7.542 1.196 1.241-5.613 5.821a.598.598 0 0 0 0 .825.548.548 0 0 0 .795 0l5.614-5.82 1.19 1.233-7.273 7.542z" fill="url(#d)" style="mix-blend-mode:multiply"/><path d="M150.827 210.588l-5.017 4.86a.581.581 0 1 0 .81.836l5.018-4.859a.583.583 0 0 0-.811-.837z" fill="url(#e)" style="mix-blend-mode:multiply"/><path d="M145 214.611l1.672-1.62a.583.583 0 1 0-.809-.835l-1.672 1.619a.583.583 0 0 0 .809.836z" fill="url(#f)" style="mix-blend-mode:multiply"/><path d="M157.075 202.47l-2.011-.537 1.174 5.037 1.593-1.543 2.229-2.159 2.868-2.777-6.869-1.992 1.016 3.971zm-.171 2.234l-.266-1.146.767.205.093.365-.594.576zm1.557-1.508l-.769-3.011 2.984.865-2.215 2.146z" fill="url(#g)" style="mix-blend-mode:multiply"/><path d="M153.652 188.404l-19.234 18.628a.583.583 0 0 0-.013.824l11.339 11.707a.582.582 0 0 0 .823.013l19.233-18.628a.581.581 0 0 0 .014-.822l-11.34-11.708a.581.581 0 0 0-.822-.014zm-.429 2.037l-3.498 12.861a.53.53 0 0 1-.292.283l-12.969 3.087 16.759-16.231zm-7.048 27.893l-10.057-10.383 13.585-3.234c.257-.061.509-.211.714-.409.204-.198.363-.445.432-.7l3.664-13.477 10.059 10.385-18.397 17.818z" fill="url(#h)" style="mix-blend-mode:multiply"/><path d="M111 2.727C111-4.302 105.329-10 98.333-10c-2.307 0-4.47.62-6.333 1.703A12.563 12.563 0 0 0 85.667-10C78.671-10 73-4.302 73 2.727c0 4.75 2.588 8.89 6.424 11.077C80.177 20.11 85.52 25 92 25s11.823-4.89 12.575-11.196A12.731 12.731 0 0 0 111 2.727zM81.164 14.626c1.4.535 2.917.828 4.503.828 2.307 0 4.47-.62 6.333-1.703a12.562 12.562 0 0 0 6.333 1.703c1.586 0 3.103-.293 4.503-.828a11.133 11.133 0 0 1-6.522 7.909A10.97 10.97 0 0 1 92 23.41a10.97 10.97 0 0 1-4.314-.875 11.048 11.048 0 0 1-3.523-2.388 11.1 11.1 0 0 1-2.999-5.521zm21.907-1.828a10.968 10.968 0 0 1-4.738 1.066 10.96 10.96 0 0 1-4.85-1.12 12.724 12.724 0 0 0 4.843-9.617c.537.376 1.043.8 1.511 1.271a11.111 11.111 0 0 1 3.246 7.875c0 .176-.004.35-.012.525zM96.737 2.202a11.107 11.107 0 0 1-3.233 8.4c-.467.47-.97.892-1.504 1.266a11.096 11.096 0 0 1-1.504-1.266 11.12 11.12 0 0 1-3.233-8.4A10.971 10.971 0 0 1 92 1.136a10.97 10.97 0 0 1 4.737 1.066zM92-.454a12.58 12.58 0 0 0-4.502.828 11.096 11.096 0 0 1 2.998-5.521c.467-.47.97-.892 1.504-1.266a11.01 11.01 0 0 1 1.504 1.266A11.12 11.12 0 0 1 96.502.374 12.58 12.58 0 0 0 92-.454zm-6.326 3.58a12.724 12.724 0 0 0 4.844 9.617 10.962 10.962 0 0 1-4.85 1.12 10.966 10.966 0 0 1-4.74-1.065 11.107 11.107 0 0 1 3.234-8.4c.47-.471.975-.895 1.512-1.271zm4.844-10.415a12.721 12.721 0 0 0-4.76 8.485 12.734 12.734 0 0 0-6.418 10.677 11.11 11.11 0 0 1-1.51-1.271 11.083 11.083 0 0 1-2.376-3.54 11.108 11.108 0 0 1-.871-4.335c0-1.504.293-2.962.87-4.334a11.081 11.081 0 0 1 2.377-3.54 11.05 11.05 0 0 1 3.523-2.388 10.967 10.967 0 0 1 4.314-.875 10.959 10.959 0 0 1 4.85 1.12zm18.028 5.682a11.1 11.1 0 0 1 .871 4.334c0 1.505-.293 2.963-.871 4.334a11.091 11.091 0 0 1-2.376 3.54c-.468.472-.973.896-1.51 1.272a12.732 12.732 0 0 0-6.419-10.677 12.721 12.721 0 0 0-4.759-8.485 10.96 10.96 0 0 1 4.85-1.12c1.498 0 2.95.294 4.315.874a11.042 11.042 0 0 1 3.523 2.388 11.09 11.09 0 0 1 2.376 3.54z" fill="url(#i)" style="mix-blend-mode:multiply"/><path d="M1.049 30.907l7.345 5.053 3.148 2.166 7.346 5.053 18.375-24.463L17.326 5 1.049 30.907zm1.728-.358l1.357-2.158 6.426 4.42-1.444 2.1-6.339-4.362zm7.39 5.084l2.886-4.198 1.05.722-2.888 4.197-1.049-.721zm2.097 1.443l1.444-2.099 6.427 4.422-1.532 2.038-6.339-4.36zm23.183-18.063L20.901 38.38l-6.471-4.451 1.444-2.099a.636.636 0 1 0-1.05-.721.637.637 0 0 0-1.049-.722.637.637 0 0 0-1.05-.722l-1.443 2.098-6.47-4.45 12.885-20.51 17.75 12.211z" fill="#fff"/><path d="M16.295 24.904l5.555-2.677-.195 3.125 7.08-3.227-2.748-1.891-3.847-2.647-4.948-3.403-.897 10.72zM26.16 21.9l-3.1 1.413.106-1.719 1.5-.722L26.16 21.9zm-2.703-1.86l-5.706 2.75.529-6.312 5.177 3.563z" fill="#fff"/><g clip-path="url(#j)"><path d="M262.285 141.636a4.073 4.073 0 0 0-4.949-3.978l-2.7-2.699 7.325-7.326a3.249 3.249 0 1 0-4.595-4.595l-7.325 7.326-8.344-8.344a2.158 2.158 0 0 0-1.531-.634 2.167 2.167 0 0 0-1.532 3.698l8.344 8.343-7.893 7.892v4.595h4.596l7.892-7.892 2.675 2.676a4.081 4.081 0 0 0-.109.938c0 4.613 6.802 4.978 9.052 4.978 2.249.001-.906-2.728-.906-4.978zm-2.621-18.467c.579 0 1.122.226 1.532.635a2.17 2.17 0 0 1 0 3.063l-.766.766-3.064-3.064.766-.765c.41-.409.953-.635 1.532-.635zm-20.265 1.148a1.084 1.084 0 0 1 1.533-1.531l8.343 8.343-1.532 1.532-8.344-8.344zm.77 20.514v-.897l.897.897h-.897zm3.063 0h-.634l-2.429-2.429v-.634l16.432-16.433 1.152 1.153-14.835 14.834a.54.54 0 1 0 .766.766l14.835-14.835 1.145 1.146-16.432 16.432zm9.106-7.575l1.532-1.531 2.355 2.355a4.094 4.094 0 0 0-1.542 1.521l-2.345-2.345zm5.829 7.573c-.942-.318-1.668-.731-2.158-1.229-.529-.537-.786-1.179-.786-1.964 0-.798.31-1.549.875-2.114a2.993 2.993 0 0 1 5.104 2.114c0 1.233.657 2.436 1.186 3.402.078.144.173.318.261.486-1.167-.03-2.933-.173-4.482-.695z" fill="url(#k)" style="mix-blend-mode:multiply"/></g><g clip-path="url(#l)"><path d="M172.686 103.447l47.894 13.57 2.915-10.284-47.895-13.57-2.914 10.284zm46.666 11.372l-3.378-.958.487-1.714a.894.894 0 0 0-.615-1.101.893.893 0 0 0-1.1.615v.001l-.485 1.713-3.429-.971.486-1.714a.89.89 0 0 0-1.714-.486l-.486 1.715-3.428-.972.485-1.714v-.001a.89.89 0 1 0-1.714-.485v.001l-.486 1.713-3.428-.972.486-1.713a.892.892 0 0 0-1.715-.486l-.485 1.714-3.428-.971.486-1.714a.891.891 0 0 0-1.715-.486l-.485 1.715-3.428-.972.485-1.715a.89.89 0 1 0-1.714-.485l-.486 1.714-3.428-.972.486-1.713a.893.893 0 0 0-.615-1.101.893.893 0 0 0-1.1.614l.001.002-.486 1.713-3.429-.971.485-1.713.001-.001a.89.89 0 0 0-1.714-.486l-.486 1.713-3.377-.956 1.942-6.857 44.467 12.6-1.943 6.857z" fill="url(#m)" style="mix-blend-mode:multiply"/></g><path d="M211.243 18.783L197.196 1.378a.487.487 0 0 0-.684-.073l-12.107 9.772a.485.485 0 0 0-.073.683l5.068 6.28-2.636 1.38-.122-.152a.487.487 0 0 0-.757.61l4.886 6.055a.487.487 0 0 0 .757-.61l-.122-.152 1.904-2.286 5.069 6.28a.486.486 0 0 0 .683.073l12.108-9.771a.486.486 0 0 0 .073-.684zm-23.856 1.408l2.632-1.377 2.666 3.301-1.902 2.284-3.396-4.208zm22.793-1.176l-9.837 7.94-13.435-16.648 9.837-7.94 13.435 16.648zm-18.068.837l-6.718-8.323.757-.61 6.718 8.323 6.717 8.323-.756.61-6.718-8.323z" fill="url(#n)" style="mix-blend-mode:multiply"/><path d="M192.795 19.925a.486.486 0 1 0-.61-.757.486.486 0 0 0 .61.757z" fill="url(#o)" style="mix-blend-mode:multiply"/><path d="M196.149 4.724l9.16 11.35a.487.487 0 0 0 .757-.61l-9.161-11.35a.486.486 0 1 0-.756.61z" fill="url(#p)" style="mix-blend-mode:multiply"/><path d="M194.635 5.946l4.885 6.053h.001a.485.485 0 1 0 .756-.61l-4.885-6.054a.487.487 0 1 0-.757.611z" fill="url(#q)" style="mix-blend-mode:multiply"/><path d="M193.12 7.168l6.717 8.323h.001a.485.485 0 1 0 .757-.61l-6.718-8.324a.486.486 0 1 0-.757.61z" fill="url(#r)" style="mix-blend-mode:multiply"/><path d="M191.608 8.389l4.274 5.296a.486.486 0 1 0 .757-.61l-4.274-5.297a.487.487 0 0 0-.757.61z" fill="url(#s)" style="mix-blend-mode:multiply"/><path d="M190.094 9.61l7.939 9.837a.486.486 0 1 0 .757-.61L190.851 9a.486.486 0 1 0-.757.61z" fill="url(#t)" style="mix-blend-mode:multiply"/><path d="M188.581 10.832l2.442 3.026a.486.486 0 1 0 .757-.61l-2.443-3.027a.486.486 0 1 0-.756.611z" fill="url(#u)" style="mix-blend-mode:multiply"/><path d="M121.714 143.114l-3.8-4-4.325 13.009 5.737-1.28 8.032-1.791 10.326-2.303-12.763-14.016-3.207 10.381zm-5.265 6.426l2.269-6.824 2.354 2.478-1.1 3.56-3.523.786zm5.658-1.262l3.647-11.809 8.323 9.139-11.97 2.67z" fill="#fff"/><path d="M131.288 118.08l-.422-1.894a.959.959 0 0 0-1.137-.739.96.96 0 0 0-.716 1.153l.422 1.893-3.707.827-.422-1.893a.96.96 0 0 0-1.137-.74.958.958 0 0 0-.716 1.153l.422 1.893-3.707.827-.422-1.893a.96.96 0 0 0-1.137-.74.96.96 0 0 0-.717 1.153l.423 1.893-3.707.827-.422-1.893a.96.96 0 0 0-1.138-.74.96.96 0 0 0-.716 1.153l.422 1.893-3.707.827-.422-1.893a.96.96 0 0 0-1.137-.74.961.961 0 0 0-.717 1.154l.423 1.893-5.561 1.24 9.289 41.645 35.215-7.855-9.288-41.645-5.561 1.241zm12.583 38.963l-31.509 7.028-8.462-37.937 3.707-.827.405 1.814a.96.96 0 0 0 1.138.74.959.959 0 0 0 .715-1.153l-.404-1.814 3.707-.827.404 1.814a.96.96 0 0 0 1.138.74.961.961 0 0 0 .716-1.154l-.405-1.813 3.707-.827.405 1.814a.96.96 0 0 0 1.138.74.96.96 0 0 0 .715-1.154l-.404-1.814 3.706-.826.405 1.813a.959.959 0 0 0 1.138.74.959.959 0 0 0 .715-1.153l-.405-1.814 3.708-.826.404 1.813a.96.96 0 0 0 1.139.74.958.958 0 0 0 .714-1.153l-.404-1.814 3.707-.827 8.462 37.937z" fill="#fff"/><path d="M142.231 44.435L119.495 64.44a.659.659 0 0 0-.06.93l13.916 15.816a.66.66 0 0 0 .93.06l8.203-7.219 2.018 3.486-.198.174a.659.659 0 0 0 .87.989l7.909-6.959a.658.658 0 0 0-.87-.988l-.198.174-3.202-2.444 8.205-7.22a.659.659 0 0 0 .059-.928L143.16 44.494a.658.658 0 0 0-.929-.06zm3.279 32.192l-2.015-3.482 4.313-3.797 3.199 2.442-5.497 4.837zm1.446-25.826l-2.966 2.61-4.349-4.943 2.966-2.61 4.349 4.943zm-2.096 3.598l2.965-2.61 6.089 6.92-2.966 2.61-6.088-6.92zm-6.207-5.062l11.307 12.851-17.794 15.656-11.307-12.85 17.794-15.657zm6.126 20.917l-10.873 9.568-.87-.989 10.873-9.567 10.875-9.568.869.989-10.874 9.567z" fill="url(#v)" style="mix-blend-mode:multiply"/><path d="M144.838 69.325a.659.659 0 1 0-.989.87.659.659 0 0 0 .989-.87z" fill="url(#w)" style="mix-blend-mode:multiply"/><path d="M138.14 65.555l3.389-2.982-7.652-2.621.932 4.541-2.243-.715 1.054 5.754 1.884-1.657 2.636-2.32zm-2.51-3.61l3.325 1.139-2.618 2.303-.707-3.443zm-1.133 5.062l-.24-1.308.856.273.085.417-.701.618z" fill="url(#x)" style="mix-blend-mode:multiply"/><path d="M126.551 63.49l-.988.87.87.99.988-.87-.87-.99z" fill="url(#y)" style="mix-blend-mode:multiply"/><path d="M131.987 58.708l-.988.87.87.988.988-.87-.87-.988z" fill="url(#z)" style="mix-blend-mode:multiply"/><path d="M137.424 53.924l-.989.87.87.989.989-.87-.87-.989z" fill="url(#A)" style="mix-blend-mode:multiply"/><path d="M140.904 57.878l-.989.87.87.989.989-.87-.87-.989z" fill="url(#B)" style="mix-blend-mode:multiply"/><path d="M144.384 61.832l-.989.87.87.989.989-.87-.87-.989z" fill="url(#C)" style="mix-blend-mode:multiply"/><path d="M133.511 71.4l-.988.87.87.988.988-.87-.87-.989z" fill="url(#D)" style="mix-blend-mode:multiply"/><path d="M130.031 67.445l-.988.87.869.988.989-.87-.87-.988z" fill="url(#E)" style="mix-blend-mode:multiply"/><path d="M138.947 66.616l-.988.87.87.989.988-.87-.87-.989z" fill="url(#F)" style="mix-blend-mode:multiply"/><circle cx="269.5" cy="84.5" r="10.5" stroke="url(#G)" stroke-width="10" style="mix-blend-mode:multiply"/><path d="M188 249.807v-3.913h-5.947V239h-4.106v6.894H172v3.913h5.947V257h4.106v-7.193H188z" fill="#fff"/><path d="M228.472 282c0-1.506-4.106-14.35 11.908-9.83 16.014 4.519 20.941-3.013 24.226-17.529s12.866-15.885 20.394-15.612" stroke="url(#H)" stroke-width="8" stroke-linecap="round" stroke-linejoin="round" style="mix-blend-mode:multiply"/><path d="M272.197 34.78c-.529.27-4.309 4.008-5.579-2.405-1.27-6.414-4.796-6.788-10.483-5.336s-7.878-1.655-9.125-4.338" stroke="url(#I)" stroke-width="8" stroke-linecap="round" stroke-linejoin="round" style="mix-blend-mode:multiply"/><circle cx="92" cy="236" r="8" stroke="#fff" stroke-width="10"/><defs><linearGradient id="a" x1="91.545" y1="47.846" x2="52.251" y2="59.428" gradientUnits="userSpaceOnUse"><stop stop-color="#FFC000"/><stop offset="1" stop-color="#FF8A00"/></linearGradient><linearGradient id="b" x1="199.576" y1="174.433" x2="200.845" y2="140.006" gradientUnits="userSpaceOnUse"><stop stop-color="#FFC000"/><stop offset="1" stop-color="#FF8A00"/></linearGradient><linearGradient id="c" x1="194.791" y1="162.045" x2="194.345" y2="150.919" gradientUnits="userSpaceOnUse"><stop stop-color="#FFC000"/><stop offset="1" stop-color="#FF8A00"/></linearGradient><linearGradient id="d" x1="155.649" y1="2.677" x2="125.165" y2="11.341" gradientUnits="userSpaceOnUse"><stop stop-color="#FFC000"/><stop offset="1" stop-color="#FF8A00"/></linearGradient><linearGradient id="e" x1="151.189" y1="210.277" x2="152.545" y2="214.398" gradientUnits="userSpaceOnUse"><stop stop-color="#FFC000"/><stop offset="1" stop-color="#FF8A00"/></linearGradient><linearGradient id="f" x1="146.268" y1="211.802" x2="146.023" y2="214.984" gradientUnits="userSpaceOnUse"><stop stop-color="#FFC000"/><stop offset="1" stop-color="#FF8A00"/></linearGradient><linearGradient id="g" x1="158.625" y1="196.223" x2="154.72" y2="205.855" gradientUnits="userSpaceOnUse"><stop stop-color="#FFC000"/><stop offset="1" stop-color="#FF8A00"/></linearGradient><linearGradient id="h" x1="154.102" y1="188.556" x2="143.219" y2="217.407" gradientUnits="userSpaceOnUse"><stop stop-color="#FFC000"/><stop offset="1" stop-color="#FF8A00"/></linearGradient><linearGradient id="i" x1="110.506" y1="-9.154" x2="68.445" y2="4.306" gradientUnits="userSpaceOnUse"><stop stop-color="#FFC000"/><stop offset="1" stop-color="#FF8A00"/></linearGradient><linearGradient id="k" x1="263.662" y1="121.996" x2="234.615" y2="130.819" gradientUnits="userSpaceOnUse"><stop stop-color="#FFC000"/><stop offset="1" stop-color="#FF8A00"/></linearGradient><linearGradient id="m" x1="170.174" y1="96.829" x2="205.932" y2="131.842" gradientUnits="userSpaceOnUse"><stop stop-color="#FFC000"/><stop offset="1" stop-color="#FF8A00"/></linearGradient><linearGradient id="n" x1="210.973" y1="19.235" x2="188.206" y2="4.744" gradientUnits="userSpaceOnUse"><stop stop-color="#FFC000"/><stop offset="1" stop-color="#FF8A00"/></linearGradient><linearGradient id="o" x1="193.147" y1="19.625" x2="192.212" y2="18.977" gradientUnits="userSpaceOnUse"><stop stop-color="#FFC000"/><stop offset="1" stop-color="#FF8A00"/></linearGradient><linearGradient id="p" x1="206.226" y1="15.7" x2="202.714" y2="17.483" gradientUnits="userSpaceOnUse"><stop stop-color="#FFC000"/><stop offset="1" stop-color="#FF8A00"/></linearGradient><linearGradient id="q" x1="200.493" y1="11.693" x2="196.916" y2="12.873" gradientUnits="userSpaceOnUse"><stop stop-color="#FFC000"/><stop offset="1" stop-color="#FF8A00"/></linearGradient><linearGradient id="r" x1="200.786" y1="15.155" x2="197.223" y2="16.676" gradientUnits="userSpaceOnUse"><stop stop-color="#FFC000"/><stop offset="1" stop-color="#FF8A00"/></linearGradient><linearGradient id="s" x1="196.863" y1="13.389" x2="193.299" y2="14.406" gradientUnits="userSpaceOnUse"><stop stop-color="#FFC000"/><stop offset="1" stop-color="#FF8A00"/></linearGradient><linearGradient id="t" x1="198.966" y1="19.093" x2="195.428" y2="20.764" gradientUnits="userSpaceOnUse"><stop stop-color="#FFC000"/><stop offset="1" stop-color="#FF8A00"/></linearGradient><linearGradient id="u" x1="192.028" y1="13.592" x2="188.707" y2="13.868" gradientUnits="userSpaceOnUse"><stop stop-color="#FFC000"/><stop offset="1" stop-color="#FF8A00"/></linearGradient><linearGradient id="v" x1="142.858" y1="44.774" x2="124.564" y2="76.408" gradientUnits="userSpaceOnUse"><stop stop-color="#FFC000"/><stop offset="1" stop-color="#FF8A00"/></linearGradient><linearGradient id="w" x1="144.411" y1="68.866" x2="143.589" y2="70.169" gradientUnits="userSpaceOnUse"><stop stop-color="#FFC000"/><stop offset="1" stop-color="#FF8A00"/></linearGradient><linearGradient id="x" x1="136.899" y1="57.519" x2="131.967" y2="68.191" gradientUnits="userSpaceOnUse"><stop stop-color="#FFC000"/><stop offset="1" stop-color="#FF8A00"/></linearGradient><linearGradient id="y" x1="126.559" y1="63.526" x2="125.738" y2="64.829" gradientUnits="userSpaceOnUse"><stop stop-color="#FFC000"/><stop offset="1" stop-color="#FF8A00"/></linearGradient><linearGradient id="z" x1="131.996" y1="58.743" x2="131.174" y2="60.046" gradientUnits="userSpaceOnUse"><stop stop-color="#FFC000"/><stop offset="1" stop-color="#FF8A00"/></linearGradient><linearGradient id="A" x1="137.433" y1="53.959" x2="136.61" y2="55.264" gradientUnits="userSpaceOnUse"><stop stop-color="#FFC000"/><stop offset="1" stop-color="#FF8A00"/></linearGradient><linearGradient id="B" x1="140.912" y1="57.913" x2="140.09" y2="59.218" gradientUnits="userSpaceOnUse"><stop stop-color="#FFC000"/><stop offset="1" stop-color="#FF8A00"/></linearGradient><linearGradient id="C" x1="144.392" y1="61.867" x2="143.57" y2="63.172" gradientUnits="userSpaceOnUse"><stop stop-color="#FFC000"/><stop offset="1" stop-color="#FF8A00"/></linearGradient><linearGradient id="D" x1="133.519" y1="71.435" x2="132.697" y2="72.738" gradientUnits="userSpaceOnUse"><stop stop-color="#FFC000"/><stop offset="1" stop-color="#FF8A00"/></linearGradient><linearGradient id="E" x1="130.039" y1="67.481" x2="129.218" y2="68.784" gradientUnits="userSpaceOnUse"><stop stop-color="#FFC000"/><stop offset="1" stop-color="#FF8A00"/></linearGradient><linearGradient id="F" x1="138.955" y1="66.652" x2="138.134" y2="67.955" gradientUnits="userSpaceOnUse"><stop stop-color="#FFC000"/><stop offset="1" stop-color="#FF8A00"/></linearGradient><linearGradient id="G" x1="284.597" y1="69.75" x2="249.794" y2="80.008" gradientUnits="userSpaceOnUse"><stop stop-color="#FFC000"/><stop offset="1" stop-color="#FF8A00"/></linearGradient><linearGradient id="H" x1="284.259" y1="240.04" x2="223.918" y2="263.616" gradientUnits="userSpaceOnUse"><stop stop-color="#FFC000"/><stop offset="1" stop-color="#FF8A00"/></linearGradient><linearGradient id="I" x1="247.497" y1="22.779" x2="266.501" y2="39.722" gradientUnits="userSpaceOnUse"><stop stop-color="#FFC000"/><stop offset="1" stop-color="#FF8A00"/></linearGradient><clipPath id="j"><path fill="#fff" transform="translate(238 121)" d="M0 0h26v26H0z"/></clipPath><clipPath id="l"><path fill="#fff" transform="rotate(-119.18 134.3 11.376)" d="M0 0h42.758v42.758H0z"/></clipPath></defs></svg>