<svg width="262" height="211" viewBox="0 0 262 211" fill="none" xmlns="http://www.w3.org/2000/svg"><path d="M72.539 192a17.455 17.455 0 0 1-11.41-5.102c-6.839-6.84-6.839-17.929 0-24.768A17.459 17.459 0 0 1 73.514 157c4.482 0 8.965 1.71 12.384 5.13A17.447 17.447 0 0 1 91 173.539L72.539 192zM68.6 168.662h-3.468l3.676 6.129 1.688-2.812-1.896-3.317zm1.68 0l5.825 10.194 5.826-10.194H70.28zm16.987 6.546a15.979 15.979 0 0 0-8.594 4.465 15.929 15.929 0 0 0-3.691 5.732 16.09 16.09 0 0 0-.776 2.864l13.061-13.061zm.948-7.155a16.02 16.02 0 0 0-3.35-4.892 16.008 16.008 0 0 0-11.352-4.701 16.003 16.003 0 0 0-11.352 4.701 15.954 15.954 0 0 0-3.527 5.311 15.984 15.984 0 0 0-1.176 6.041 15.994 15.994 0 0 0 4.703 11.353 15.965 15.965 0 0 0 4.891 3.349 15.96 15.96 0 0 0 4.928 1.28l.566-.567a17.453 17.453 0 0 1 3.109-8.919l-4.33-7.577-2.517 4.195-6.255-10.424h21.892l-6.216 10.878a17.44 17.44 0 0 1 10.698-4.533l.567-.567a15.963 15.963 0 0 0-1.279-4.928z" fill="url(#a)" style="mix-blend-mode:multiply"/><path d="M205.875 170l-8.548-10.008-.779-.913L188 149.071l18.311-15.64 8.549 10.008.779.912 8.548 10.009L205.875 170zm.308-34.95l-16.565 14.148 7.803 9.136 16.565-14.148-7.803-9.136zm-7.983 24.196l7.803 9.135 16.564-14.148-7.802-9.135-16.565 14.148z" fill="#fff"/><path d="M208.022 159.966l.379 2.274-5.433-1.824 1.869-1.596 2.616-2.235 3.362-2.871 1.481 7.787-4.274-1.535zm-2.767.007l1.7.574-.172-1.029-.703-.25-.825.705zm1.83-1.563l3.709 1.332-.736-3.872-2.973 2.54zm2.553-5.195l-6.977 5.959a.575.575 0 0 1-.746-.873l6.977-5.96a.575.575 0 1 1 .746.874zm-15.544-4.07a.572.572 0 1 1-.743-.871.575.575 0 0 1 .81.061.574.574 0 0 1-.067.81zm1.744-1.49a.573.573 0 1 1-.744-.872.573.573 0 0 1 .744.872zm1.747-1.491a.575.575 0 0 1-.81-.061.574.574 0 0 1 .873-.746.574.574 0 0 1-.063.807zm1.742-1.489a.575.575 0 0 1-.81-.061.574.574 0 0 1 .873-.746.574.574 0 0 1-.063.807zm1.745-1.49a.572.572 0 1 1-.745-.869.572.572 0 0 1 .745.869zm-2.182 3.374l3.361-2.871 1.478 7.783-4.274-1.534.382 2.276-5.433-1.823 1.869-1.596 2.617-2.235zm2.602-.718l-2.974 2.54 3.709 1.332-.735-3.872zm-4.804 4.103l1.701.573-.17-1.025-.705-.253-.826.705zm21.885 1.632a.575.575 0 0 1-.617.527l-2.859-.227-.09 1.143a.575.575 0 0 1-1.144-.09l.135-1.712a.575.575 0 0 1 .617-.527l3.431.269a.575.575 0 0 1 .527.617zm-13.078-10.314a.573.573 0 0 1 .617-.527l.003-.002 1.141.092.09-1.144a.576.576 0 0 1 .617-.527c.315.025.549.3.527.617l-.092 1.142 1.144.09a.573.573 0 1 1-.091 1.143l-1.143-.089-.088 1.141-.003.002a.574.574 0 0 1-1.143-.09l.09-1.144-1.142-.087a.575.575 0 0 1-.527-.617z" fill="#fff"/><path d="M188.229 25.12l.694 1.74.232.58.231.58c-1.585.633-2.354 2.449-1.716 4.048.638 1.599 2.446 2.386 4.031 1.753l.232.58.231.58.695 1.74-1.357 9.956-7.248.203-.239-3.94-13.218 5.276-6.482-16.242 13.218-5.275-2.539-3.022 5.396-4.842 7.839 6.285zm-11.509-1.314l1.757 2.09 1.114 1.327-1.595.637-12.068 4.816 5.556 13.921 12.068-4.816 1.595-.637.105 1.728.165 2.727 4.999-.14 1.17-8.587-.639-1.6a4.367 4.367 0 0 1-4.426-2.745 4.367 4.367 0 0 1 1.32-5.039l-.639-1.6-6.761-5.423-3.721 3.341z" fill="url(#b)" style="mix-blend-mode:multiply"/><path d="M178.598 36.757l2.187.363-3.319 4.4-.882-2.21-1.235-3.094-1.587-3.978 7.541 1.09-2.705 3.429zm-.801 2.255l.755-1-.835-.139-.248.315.328.824zm-.862-2.16l2.051-2.599-3.277-.474 1.226 3.073z" fill="url(#c)" style="mix-blend-mode:multiply"/><g clip-path="url(#d)"><path d="M39 85.95L30.273 95l6.614 6.859c1.318 1.366 1.318 3.582 0 4.949a3.303 3.303 0 0 1-2.386 1.026 3.304 3.304 0 0 1-2.387-1.026L25.5 99.95 16.773 109 12 104.05 20.727 95l-7.602-7.883v-4.95h4.773L25.5 90.05 34.227 81 39 85.95zm-9.522 9.875l-1.19 1.234 5.023 5.208 1.19-1.233-5.023-5.209zm3.431 10.159a2.2 2.2 0 0 0 1.592.683 2.2 2.2 0 0 0 1.59-.683 2.399 2.399 0 0 0 0-3.3l-.795-.825-3.182 3.3.795.825zm-1.59-1.65l1.196-1.242-5.022-5.208-1.198 1.24 5.023 5.21zm-14.546 3.016l1.568-1.625-.796-.825a.6.6 0 0 1 0-.825.549.549 0 0 1 .796 0v.001l.795.824 1.591-1.65-.795-.825a.598.598 0 0 1 0-.825.548.548 0 0 1 .795 0l.796.825 1.591-1.65-.795-.825a.6.6 0 0 1 0-.825.549.549 0 0 1 .795 0l.795.825L25.5 98.3l-.795-.825a.598.598 0 0 1 0-.825.548.548 0 0 1 .795 0l.795.825 1.591-1.65-.795-.825a.598.598 0 0 1 0-.825.548.548 0 0 1 .796 0l.795.825 1.591-1.65-.795-.825a.6.6 0 0 1 0-.825.55.55 0 0 1 .795 0l.796.825 1.59-1.65-.794-.825a.598.598 0 0 1 0-.825.548.548 0 0 1 .795 0l.795.825 1.591-1.65-.794-.824h-.001a.598.598 0 0 1 0-.826.548.548 0 0 1 .795 0l.796.825 1.567-1.625-3.182-3.3-20.636 21.4 3.182 3.3zM14.25 83.333v.967l.932-.967h-.932zm3.182 0h-.66L14.25 85.95v.683l7.273 7.542 1.196-1.241-5.613-5.821a.598.598 0 0 1 0-.825.548.548 0 0 1 .795 0l5.614 5.82 1.19-1.233-7.273-7.542z" fill="#fff"/></g><g clip-path="url(#e)"><path d="M138 184.95l-8.726 9.05 6.613 6.859c1.318 1.366 1.318 3.582 0 4.949a3.303 3.303 0 0 1-2.386 1.026 3.307 3.307 0 0 1-2.388-1.026l-6.613-6.858-8.726 9.05-4.774-4.95 8.727-9.05-7.602-7.884v-4.95h4.773l7.602 7.884 8.727-9.05 4.773 4.95zm-9.522 9.875l-1.19 1.234 5.023 5.208 1.19-1.233-5.023-5.209zm3.431 10.159a2.2 2.2 0 0 0 1.592.683c.6 0 1.165-.243 1.591-.683a2.4 2.4 0 0 0 0-3.3l-.796-.825-3.183 3.3.796.825zm-1.591-1.65l1.197-1.242-5.022-5.208-1.198 1.241 5.023 5.209zm-14.544 3.016l1.567-1.625-.796-.825a.6.6 0 0 1 0-.825.549.549 0 0 1 .796 0l.001.001.794.824 1.591-1.65-.795-.825a.598.598 0 0 1 0-.825.548.548 0 0 1 .795 0l.796.825 1.591-1.65-.795-.825h-.001a.6.6 0 0 1 0-.825.549.549 0 0 1 .796 0l.795.825 1.591-1.65-.795-.825a.598.598 0 0 1 0-.825.548.548 0 0 1 .795 0l.795.825 1.591-1.65-.795-.825a.598.598 0 0 1 0-.825.548.548 0 0 1 .795 0h.001l.795.825 1.592-1.65-.796-.825a.598.598 0 0 1 0-.825.549.549 0 0 1 .796 0l.795.825 1.591-1.65-.795-.825a.598.598 0 0 1 0-.825.548.548 0 0 1 .795 0v.001l.795.824 1.591-1.65-.794-.824-.001-.001a.598.598 0 0 1 0-.825.55.55 0 0 1 .795 0l.796.825 1.567-1.625-3.182-3.3-20.636 21.4 3.183 3.3zm-2.524-24.017v.967l.932-.967h-.932zm3.182 0h-.659l-2.523 2.617v.683l7.273 7.542 1.196-1.241-5.613-5.821a.598.598 0 0 1 0-.825.549.549 0 0 1 .796 0l5.613 5.821 1.19-1.234-7.273-7.542z" fill="url(#f)" style="mix-blend-mode:multiply"/></g><path d="M124.827 44.393l-5.017-4.86a.582.582 0 0 1 .81-.836l5.018 4.859a.583.583 0 0 1-.811.837z" fill="url(#g)" style="mix-blend-mode:multiply"/><path d="M119 40.37l1.672 1.62a.582.582 0 1 1-.809.835l-1.672-1.62a.582.582 0 1 1 .809-.835z" fill="url(#h)" style="mix-blend-mode:multiply"/><path d="M131.075 52.51l-2.011.538 1.174-5.038 1.593 1.543 2.229 2.16 2.868 2.777-6.869 1.991 1.016-3.97zm-.171-2.233l-.266 1.145.767-.204.093-.365-.594-.576zm1.557 1.508l-.769 3.01 2.984-.864-2.215-2.146z" fill="url(#i)" style="mix-blend-mode:multiply"/><path d="M127.652 66.576L108.418 47.95a.582.582 0 0 1-.013-.824l11.339-11.707a.583.583 0 0 1 .823-.013L139.8 54.033a.582.582 0 0 1 .014.822l-11.34 11.708a.581.581 0 0 1-.822.013zm-.429-2.036l-3.498-12.861a.527.527 0 0 0-.292-.283l-12.969-3.087 16.759 16.231zm-7.048-27.893L110.118 47.03l13.585 3.233c.257.062.509.212.714.41.204.198.363.445.432.7l3.664 13.477 10.059-10.385-18.397-17.818z" fill="url(#j)" style="mix-blend-mode:multiply"/><path d="M38 196.273C38 203.302 32.33 209 25.333 209c-2.307 0-4.47-.62-6.333-1.703A12.563 12.563 0 0 1 12.667 209C5.671 209 0 203.302 0 196.273c0-4.749 2.588-8.89 6.425-11.077C7.177 178.889 12.52 174 19 174c6.48 0 11.823 4.889 12.576 11.196A12.733 12.733 0 0 1 38 196.273zM8.164 184.374c1.4-.535 2.917-.828 4.503-.828 2.307 0 4.47.619 6.333 1.703a12.563 12.563 0 0 1 6.333-1.703c1.586 0 3.103.293 4.503.828a11.13 11.13 0 0 0-6.522-7.909A10.976 10.976 0 0 0 19 175.59c-1.497 0-2.948.295-4.314.875a11.034 11.034 0 0 0-3.523 2.388 11.098 11.098 0 0 0-2.999 5.521zm21.907 1.828a10.954 10.954 0 0 0-4.739-1.066 10.948 10.948 0 0 0-4.85 1.121 12.722 12.722 0 0 1 4.844 9.616 11.155 11.155 0 0 0 4.745-9.671zm-6.334 10.596a11.103 11.103 0 0 0-.857-4.859 11.118 11.118 0 0 0-2.376-3.541A11.12 11.12 0 0 0 19 187.132c-.535.374-1.037.797-1.504 1.266a11.122 11.122 0 0 0-3.233 8.4A10.958 10.958 0 0 0 19 197.864a10.958 10.958 0 0 0 4.737-1.066zM19 199.454c-1.585 0-3.103-.293-4.502-.828a11.116 11.116 0 0 0 2.998 5.521c.467.47.97.892 1.504 1.266a11.06 11.06 0 0 0 1.504-1.266 11.117 11.117 0 0 0 2.998-5.521 12.577 12.577 0 0 1-4.502.828zm-6.326-3.581a12.722 12.722 0 0 1 4.844-9.616 10.948 10.948 0 0 0-4.85-1.121 10.954 10.954 0 0 0-4.74 1.066c-.007.174-.01.349-.01.525a11.102 11.102 0 0 0 3.246 7.875c.467.471.973.895 1.51 1.271zm4.844 10.416a12.72 12.72 0 0 1-4.76-8.485 12.735 12.735 0 0 1-6.418-10.677c-.537.376-1.041.8-1.51 1.271a11.084 11.084 0 0 0-2.376 3.541 11.104 11.104 0 0 0-.871 4.334 11.11 11.11 0 0 0 3.247 7.874 11.034 11.034 0 0 0 3.523 2.388c1.365.58 2.817.875 4.314.875a10.965 10.965 0 0 0 4.85-1.121zm18.028-5.682c.578-1.372.871-2.83.871-4.334 0-1.505-.293-2.963-.87-4.334a11.084 11.084 0 0 0-2.377-3.541 11.14 11.14 0 0 0-1.51-1.271 12.735 12.735 0 0 1-6.419 10.677 12.72 12.72 0 0 1-4.759 8.485 10.965 10.965 0 0 0 4.85 1.12c1.498 0 2.95-.294 4.315-.874a11.05 11.05 0 0 0 3.523-2.388 11.081 11.081 0 0 0 2.376-3.54z" fill="url(#k)" style="mix-blend-mode:multiply"/><path d="M75.05 204.994l7.344-5.053 3.149-2.166 7.346-5.053 18.374 24.463-19.937 13.716-16.277-25.907zm1.727.357l1.357 2.159 6.426-4.421-1.444-2.099-6.339 4.361zm7.39-5.083l2.887 4.197 1.049-.721-2.888-4.197-1.049.721zm2.097-1.443l1.444 2.098 6.427-4.421-1.531-2.038-6.34 4.361zm23.184 18.063l-14.547-19.366-6.47 4.451 1.443 2.099a.636.636 0 1 1-1.05.721.637.637 0 0 1-1.048.722.637.637 0 0 1-1.05.722l-1.444-2.098-6.47 4.45 12.885 20.51 17.751-12.211z" fill="#fff"/><path d="M90.295 210.997l5.556 2.676-.195-3.124 7.08 3.227-2.749 1.891-3.847 2.647-4.948 3.403-.897-10.72zm9.865 3.005l-3.101-1.413.107 1.719 1.5.722 1.494-1.028zm-2.703 1.859l-5.707-2.749.529 6.311 5.178-3.562z" fill="#fff"/><g clip-path="url(#l)"><path d="M244.285 68.364a4.072 4.072 0 0 1-4.949 3.978l-2.7 2.7 7.326 7.325a3.25 3.25 0 0 1-2.297 5.547 3.239 3.239 0 0 1-2.298-.952l-7.326-7.326-8.344 8.344a2.157 2.157 0 0 1-1.531.634 2.166 2.166 0 0 1-1.532-3.698l8.344-8.343-7.893-7.892v-4.595h4.596l7.892 7.892 2.675-2.676a4.09 4.09 0 0 1-.109-.938c0-4.613 6.802-4.979 9.052-4.979 2.249 0-.906 2.73-.906 4.979zm-2.62 18.467c.578 0 1.122-.226 1.531-.635a2.17 2.17 0 0 0 0-3.063l-.766-.766-3.063 3.063.765.766c.41.41.953.635 1.533.635zM221.4 85.682a1.085 1.085 0 0 0 .766 1.85c.289 0 .561-.114.766-.318l8.343-8.343-1.531-1.532-8.344 8.343zm.769-20.513v.897l.897-.897h-.897zm3.063 0h-.634l-2.429 2.429v.634l16.432 16.432 1.152-1.152-14.834-14.834a.54.54 0 1 1 .765-.766l14.835 14.835 1.146-1.146-16.433-16.432zm9.107 7.574l1.531 1.532 2.356-2.355a4.1 4.1 0 0 1-1.543-1.521l-2.344 2.344zm5.828-7.572c-.942.317-1.668.73-2.158 1.229-.529.537-.786 1.18-.786 1.963 0 .8.31 1.55.875 2.115a2.971 2.971 0 0 0 2.115.875 2.993 2.993 0 0 0 2.989-2.99c0-1.233.657-2.435 1.186-3.401.078-.145.174-.318.261-.487-1.167.031-2.933.174-4.482.696z" fill="url(#m)" style="mix-blend-mode:multiply"/></g><g clip-path="url(#n)"><path d="M137.686 102.732l47.893-13.57 2.915 10.284-47.895 13.571-2.913-10.285zm46.666-11.371l-3.378.957.487 1.715a.894.894 0 0 1-.615 1.1.894.894 0 0 1-1.101-.614l.001-.002-.485-1.713-3.429.971.486 1.714a.891.891 0 0 1-1.714.486l-.486-1.715-3.428.972.484 1.715h.001a.89.89 0 1 1-1.714.485l-.486-1.714-3.428.972.486 1.713a.892.892 0 0 1-1.715.487l-.485-1.715-3.429.971.486 1.714a.89.89 0 1 1-1.714.486l-.486-1.715-3.428.972.486 1.715a.89.89 0 1 1-1.714.485h-.001l-.485-1.714-3.429.972.486 1.714a.892.892 0 0 1-1.714.486l.001-.001-.486-1.714-3.429.971.485 1.713.001.001a.89.89 0 1 1-1.714.486l-.487-1.713-3.377.957 1.943 6.856 44.466-12.6-1.942-6.856z" fill="url(#o)" style="mix-blend-mode:multiply"/></g><path d="M193.243 191.217l-14.047 17.405a.487.487 0 0 1-.683.073l-12.108-9.772a.486.486 0 0 1-.073-.683l5.068-6.28-2.636-1.379-.122.151a.487.487 0 0 1-.757-.611l4.887-6.054a.487.487 0 0 1 .757.611l-.123.151 1.904 2.286 5.069-6.281a.487.487 0 0 1 .684-.072l12.107 9.771a.486.486 0 0 1 .073.684zm-23.856-1.408l2.632 1.377 2.666-3.301-1.902-2.284-3.396 4.208zm22.794 1.176l-9.838-7.939-13.435 16.647 9.837 7.939 13.436-16.647zm-18.069-.837l-6.718 8.323.757.611 6.718-8.324 6.718-8.323-.757-.611-6.718 8.324z" fill="url(#p)" style="mix-blend-mode:multiply"/><path d="M174.796 190.075a.485.485 0 1 1-.61.756.486.486 0 1 1 .61-.756z" fill="url(#q)" style="mix-blend-mode:multiply"/><path d="M178.149 205.276l9.16-11.35.001-.001a.487.487 0 0 1 .757.611l-9.161 11.351a.487.487 0 0 1-.757-.611z" fill="url(#r)" style="mix-blend-mode:multiply"/><path d="M176.635 204.054l4.885-6.053.001-.001a.485.485 0 1 1 .756.611l-4.885 6.053a.485.485 0 1 1-.757-.61z" fill="url(#s)" style="mix-blend-mode:multiply"/><path d="M175.12 202.832l6.718-8.323a.487.487 0 0 1 .757.611l-6.718 8.323a.485.485 0 1 1-.757-.611z" fill="url(#t)" style="mix-blend-mode:multiply"/><path d="M173.608 201.611l4.275-5.296a.485.485 0 1 1 .756.61l-4.274 5.297a.487.487 0 0 1-.757-.611z" fill="url(#u)" style="mix-blend-mode:multiply"/><path d="M172.095 200.39l7.938-9.837a.488.488 0 1 1 .757.611L172.851 201a.485.485 0 1 1-.756-.61z" fill="url(#v)" style="mix-blend-mode:multiply"/><path d="M170.581 199.168l2.442-3.026a.485.485 0 1 1 .757.61l-2.442 3.027a.487.487 0 0 1-.757-.611z" fill="url(#w)" style="mix-blend-mode:multiply"/><path d="M134.714 7.224l-3.8 4-4.325-13.009 5.737 1.28 8.032 1.791 10.326 2.303-12.763 14.016-3.207-10.38zM129.449.8l2.269 6.823 2.354-2.478-1.1-3.56L129.449.8zm5.658 1.261l3.647 11.81 8.323-9.14-11.97-2.67z" fill="#fff"/><path d="M144.288 32.259l-.422 1.893a.958.958 0 0 1-1.137.74.96.96 0 0 1-.716-1.153l.422-1.893-3.707-.827-.422 1.893a.96.96 0 0 1-1.137.74.959.959 0 0 1-.716-1.154l.422-1.893-3.707-.826-.422 1.893a.96.96 0 0 1-1.137.74.96.96 0 0 1-.717-1.154l.423-1.893-3.707-.827-.422 1.893a.96.96 0 0 1-1.138.74.96.96 0 0 1-.716-1.153l.422-1.893-3.707-.827-.422 1.893a.959.959 0 0 1-1.137.74.96.96 0 0 1-.717-1.153l.423-1.893-5.561-1.24L123.922-16l35.215 7.854-9.288 41.645-5.561-1.24zm12.583-38.964l-31.509-7.027-8.462 37.936 3.707.827.405-1.814a.96.96 0 0 1 1.138-.74.96.96 0 0 1 .715 1.154l-.404 1.814 3.707.826.404-1.813a.96.96 0 0 1 1.138-.74.96.96 0 0 1 .716 1.153l-.405 1.814 3.707.827.405-1.814a.96.96 0 0 1 1.138-.74.96.96 0 0 1 .715 1.153l-.404 1.814 3.706.827.405-1.814a.96.96 0 0 1 1.138-.74.96.96 0 0 1 .715 1.153l-.405 1.814 3.708.827.404-1.814a.96.96 0 0 1 1.139-.74c.512.114.831.63.714 1.154l-.404 1.813 3.707.827 8.462-37.937z" fill="#fff"/><path d="M124.232 165.565l-22.737-20.005a.658.658 0 0 1-.06-.929l13.917-15.817a.658.658 0 0 1 .929-.059l8.203 7.218 2.018-3.486-.198-.174a.66.66 0 0 1 .87-.989l7.909 6.958a.658.658 0 0 1-.87.989l-.198-.174-3.202 2.444 8.205 7.219c.273.24.299.656.059.929l-13.917 15.817a.657.657 0 0 1-.928.059zm3.278-32.192l-2.015 3.482 4.313 3.797 3.2-2.442-5.498-4.837zm1.446 25.826l-2.966-2.609-4.349 4.942 2.966 2.61 4.349-4.943zm-2.096-3.598l2.966 2.609 6.088-6.919-2.966-2.61-6.088 6.92zm-6.207 5.062l11.307-12.851-17.794-15.656-11.307 12.851 17.794 15.656zm6.126-20.917l-10.873-9.568-.87.989 10.874 9.567 10.874 9.568.87-.989-10.875-9.567z" fill="url(#x)" style="mix-blend-mode:multiply"/><path d="M126.838 140.675a.659.659 0 1 1-.989-.87.659.659 0 0 1 .989.87z" fill="url(#y)" style="mix-blend-mode:multiply"/><path d="M120.14 144.444l3.389 2.982-7.652 2.622.933-4.542-2.243.716 1.054-5.754 1.883 1.657 2.636 2.319zm-2.509 3.611l3.325-1.139-2.618-2.304-.707 3.443zm-1.134-5.062l-.24 1.308.856-.273.086-.418-.702-.617z" fill="url(#z)" style="mix-blend-mode:multiply"/><path d="M108.552 146.509l-.989-.869.87-.989.988.87-.869.988z" fill="url(#A)" style="mix-blend-mode:multiply"/><path d="M113.988 151.292l-.989-.869.87-.989.989.87-.87.988z" fill="url(#B)" style="mix-blend-mode:multiply"/><path d="M119.425 156.076l-.989-.87.87-.989.989.87-.87.989z" fill="url(#C)" style="mix-blend-mode:multiply"/><path d="M122.905 152.122l-.989-.871.869-.988.989.87-.869.989z" fill="url(#D)" style="mix-blend-mode:multiply"/><path d="M126.384 148.168l-.989-.87.87-.989.989.87-.87.989z" fill="url(#E)" style="mix-blend-mode:multiply"/><path d="M115.511 138.601l-.988-.87.87-.989.988.87-.87.989z" fill="url(#F)" style="mix-blend-mode:multiply"/><path d="M112.031 142.555l-.988-.87.87-.988.988.869-.87.989z" fill="url(#G)" style="mix-blend-mode:multiply"/><path d="M120.948 143.384l-.989-.87.87-.989.988.87-.869.989z" fill="url(#H)" style="mix-blend-mode:multiply"/><circle r="10.5" transform="matrix(1 0 0 -1 251.5 125.5)" stroke="url(#I)" stroke-width="10" style="mix-blend-mode:multiply"/><path d="M183.472-46c0 1.506-4.106 14.35 11.908 9.83 16.014-4.519 20.941 3.013 24.226 17.53C222.891-4.126 232.472-2.757 240-3.03" stroke="url(#J)" stroke-width="8" stroke-linecap="round" stroke-linejoin="round" style="mix-blend-mode:multiply"/><path d="M254.197 175.22c-.529-.27-4.309-4.008-5.579 2.405-1.27 6.414-4.796 6.788-10.483 5.336s-7.878 1.655-9.125 4.338" stroke="url(#K)" stroke-width="8" stroke-linecap="round" stroke-linejoin="round" style="mix-blend-mode:multiply"/><circle r="10.5" transform="matrix(1 0 0 -1 69 6)" stroke="#fff" stroke-width="5"/><ellipse opacity=".2" rx="45.338" ry="6.726" transform="matrix(-1 0 0 1 84.913 152.274)" fill="#6B6B6B"/><path d="M77.142 27.87c-.461-3.693 3.08-7.177 7.91-7.78 4.83-.602 9.12 1.904 9.58 5.599.46 3.694-3.08 7.177-7.91 7.78-4.83.602-9.12-1.904-9.58-5.598z" fill="#2F2F2F"/><path d="M80.78 81.3l-10.89 4.913 6.484 27.327 11.711-3.78-7.304-28.46z" fill="#FFCA99"/><path d="M55.47 82.689l14.42 3.524 6.484 27.327-14.608-2.898-6.297-27.953z" fill="#FFD1A7"/><path d="M79.898 154.058c37.034 0 53.556-5.852 53.556-40.518 0-25.688-3.114-44.794-9.525-58.412-7.725-16.413-20.529-24.737-38.041-24.737-9.753 0-14.649 6.587-18.224 11.404-1.446 1.947-2.699 3.632-3.889 4.264-2.658 1.412-4.178 4.702-4.178 9.04 0 8.045 4.258 11.922 8.374 15.674 5.95 5.42 11.574 10.538 5.995 27.378-.302.906-.603 1.84-.91 2.79-3.502 10.817-7.465 23.086-17.143 23.086-6.2 0-7.578-2.915-8.796-5.494-.825-1.742-1.6-3.388-3.86-3.388-5.454 0-8.972 4.043-8.972 10.299 0 10.18 3.17 17.029 9.974 21.56 7.23 4.811 18.56 7.054 35.64 7.054z" fill="#fff"/><path d="M85.888 30.675c-13.727 0-17.826 13.43-21.982 15.634-2.436 1.292-4.03 4.384-4.03 8.79 0 19.078 23.99 14.05 14.358 43.143-3.661 11.062-7.555 26.069-18.321 26.069-10.766 0-7.555-8.876-12.656-8.876-5.101 0-8.688 3.781-8.688 10.015 0 19.077 11.148 28.335 45.335 28.335 35.321-.012 53.265-4.731 53.265-40.245 0-44.96-9.57-82.865-47.281-82.865zm0-.569c9.171 0 17.119 2.26 23.621 6.724 6 4.122 10.942 10.236 14.677 18.172 6.427 13.658 9.553 32.804 9.553 58.538 0 8.892-1.11 15.918-3.399 21.486-2.226 5.414-5.579 9.479-10.253 12.433-9.058 5.716-22.614 6.889-40.183 6.889-17.142 0-28.517-2.26-35.804-7.111-6.89-4.588-10.1-11.511-10.1-21.793 0-6.331 3.723-10.584 9.257-10.584 2.442 0 3.29 1.805 4.116 3.547 1.184 2.499 2.522 5.329 8.54 5.329 9.474 0 13.402-12.161 16.875-22.887.307-.95.609-1.884.91-2.79 5.517-16.663-.034-21.719-5.915-27.076-4.161-3.792-8.465-7.714-8.465-15.884 0-4.446 1.577-7.834 4.332-9.291 1.133-.598 2.368-2.26 3.792-4.185 3.604-4.862 8.55-11.517 18.446-11.517z" fill="#6B6B6B"/><path d="M69.224 46.309c-1.686.011-3.331-.085-4.823-.319 2.642-1.936 5.42-7.988 10.8-11.882 3.228 1.498 5.392 4.333 5.403 6.98.023 3.832-5.625 5.181-11.38 5.22z" fill="#2F2F2F"/><path opacity=".2" d="M43.251 115.43c5.102 0 1.89 8.876 12.656 8.876s14.66-15.008 18.321-26.07c5.306-16.02.416-21.69-5.055-26.74 11.602 9.803 30.862 3.882 29.234 17.108-1.252 10.128-19.647 25.095-20.592 45.983-.626 13.88-24.606-3.478-40.627-16.692 1.532-1.588 3.621-2.465 6.063-2.465z" fill="#6B6B6B"/><path d="M100.302 99.939c0-14.358-11.881-16.248-17.227-13.225-18.047 10.202-31.506 6.991-31.506-2.454 0-5.192 1.6-6.684.472-7.299-1.127-.614-4.611-1.2-5.886 4.253-.37 1.583-1.11 1.89-2.46 1.23-1.355-.66-4.32-1.645-4.213 6.541.108 8.187 12.907 28.085 37.849 28.085 16.407-.006 22.971-8.944 22.971-17.131zm9.601-58.389c-4.092-3.454-5.268-8.79-2.627-11.918s8.099-2.864 12.19.59c4.092 3.455 5.268 8.79 2.627 11.919-2.641 3.128-8.099 2.864-12.19-.59zm-34.89 12.938c-1.61-.729-2.463-2.318-1.905-3.55.557-1.232 2.314-1.64 3.924-.91 1.61.729 2.463 2.318 1.905 3.55-.558 1.232-2.315 1.64-3.924.91zm14.991-8.794c-3.74 2.158-2.243 7.709.575 12.593 2.818 4.885 6.587 8.734 10.322 6.576 3.74-2.158 4.862-10.123 2.038-15.013-2.824-4.89-9.2-6.314-12.935-4.156z" fill="#2F2F2F"/><path d="M76.027 52.258c-2.152 5.3-5.038 9.815 2.317 13.22 2.676 1.241 5.545 1.605 7.242 0 1.697-1.606.638-4.936-2.351-4.418" stroke="#2F2F2F" stroke-width="2" stroke-miterlimit="10" stroke-linecap="round" stroke-linejoin="round"/><path d="M73.613 59.404c-2.209 3.045-9.086.557-7.464-4.31.769-2.317 3.353-1.64 3.638-1.258" stroke="#2F2F2F" stroke-width="2" stroke-miterlimit="10" stroke-linecap="round" stroke-linejoin="round"/><path d="M43.251 115.43c5.101 0 1.89 8.876 12.656 8.876 2.796 0 5.118-1.014 7.105-2.704 15.72-1.908 27.846 2.875 27.846 16.493 0 7.424-4.743 13.396-13.983 15.65-31.825-.541-42.306-9.803-42.306-28.306-.006-6.234 3.587-10.009 8.682-10.009z" fill="#2F2F2F"/><path d="M97.052 55.1c-2.198-3.394-6.24-3.514-6.24-3.514M75.56 43.61c-1.617-2.197-5.226-2.197-5.226-2.197" stroke="#fff" stroke-width="2" stroke-miterlimit="10" stroke-linecap="round" stroke-linejoin="round"/><path opacity=".2" d="M130.904 125.376c-2.215 11.648-7.305 24.936-36.972 26.445-6.154.313-10.02-.758 0-4.031 10.02-3.274 21.862-6.046 31.176-20.906 3.245-5.169 8.067-13.475 5.796-1.508z" fill="#6B6B6B"/><defs><linearGradient id="a" x1="90.545" y1="191.154" x2="51.251" y2="179.572" gradientUnits="userSpaceOnUse"><stop stop-color="#FFC000"/><stop offset="1" stop-color="#FF8A00"/></linearGradient><linearGradient id="b" x1="184.576" y1="17.584" x2="185.845" y2="52.011" gradientUnits="userSpaceOnUse"><stop stop-color="#FFC000"/><stop offset="1" stop-color="#FF8A00"/></linearGradient><linearGradient id="c" x1="179.791" y1="29.972" x2="179.345" y2="41.098" gradientUnits="userSpaceOnUse"><stop stop-color="#FFC000"/><stop offset="1" stop-color="#FF8A00"/></linearGradient><linearGradient id="f" x1="137.649" y1="207.323" x2="107.166" y2="198.659" gradientUnits="userSpaceOnUse"><stop stop-color="#FFC000"/><stop offset="1" stop-color="#FF8A00"/></linearGradient><linearGradient id="g" x1="125.189" y1="44.704" x2="126.545" y2="40.582" gradientUnits="userSpaceOnUse"><stop stop-color="#FFC000"/><stop offset="1" stop-color="#FF8A00"/></linearGradient><linearGradient id="h" x1="120.268" y1="43.179" x2="120.023" y2="39.997" gradientUnits="userSpaceOnUse"><stop stop-color="#FFC000"/><stop offset="1" stop-color="#FF8A00"/></linearGradient><linearGradient id="i" x1="132.625" y1="58.758" x2="128.72" y2="49.125" gradientUnits="userSpaceOnUse"><stop stop-color="#FFC000"/><stop offset="1" stop-color="#FF8A00"/></linearGradient><linearGradient id="j" x1="128.102" y1="66.425" x2="117.219" y2="37.574" gradientUnits="userSpaceOnUse"><stop stop-color="#FFC000"/><stop offset="1" stop-color="#FF8A00"/></linearGradient><linearGradient id="k" x1="37.506" y1="208.154" x2="-4.555" y2="194.694" gradientUnits="userSpaceOnUse"><stop stop-color="#FFC000"/><stop offset="1" stop-color="#FF8A00"/></linearGradient><linearGradient id="m" x1="245.662" y1="88.004" x2="216.616" y2="79.181" gradientUnits="userSpaceOnUse"><stop stop-color="#FFC000"/><stop offset="1" stop-color="#FF8A00"/></linearGradient><linearGradient id="o" x1="135.174" y1="109.351" x2="170.932" y2="74.337" gradientUnits="userSpaceOnUse"><stop stop-color="#FFC000"/><stop offset="1" stop-color="#FF8A00"/></linearGradient><linearGradient id="p" x1="192.974" y1="190.765" x2="170.207" y2="205.256" gradientUnits="userSpaceOnUse"><stop stop-color="#FFC000"/><stop offset="1" stop-color="#FF8A00"/></linearGradient><linearGradient id="q" x1="175.148" y1="190.375" x2="174.213" y2="191.022" gradientUnits="userSpaceOnUse"><stop stop-color="#FFC000"/><stop offset="1" stop-color="#FF8A00"/></linearGradient><linearGradient id="r" x1="188.226" y1="194.3" x2="184.715" y2="192.516" gradientUnits="userSpaceOnUse"><stop stop-color="#FFC000"/><stop offset="1" stop-color="#FF8A00"/></linearGradient><linearGradient id="s" x1="182.493" y1="198.307" x2="178.916" y2="197.127" gradientUnits="userSpaceOnUse"><stop stop-color="#FFC000"/><stop offset="1" stop-color="#FF8A00"/></linearGradient><linearGradient id="t" x1="182.786" y1="194.845" x2="179.223" y2="193.324" gradientUnits="userSpaceOnUse"><stop stop-color="#FFC000"/><stop offset="1" stop-color="#FF8A00"/></linearGradient><linearGradient id="u" x1="178.863" y1="196.61" x2="175.299" y2="195.593" gradientUnits="userSpaceOnUse"><stop stop-color="#FFC000"/><stop offset="1" stop-color="#FF8A00"/></linearGradient><linearGradient id="v" x1="180.967" y1="190.908" x2="177.428" y2="189.236" gradientUnits="userSpaceOnUse"><stop stop-color="#FFC000"/><stop offset="1" stop-color="#FF8A00"/></linearGradient><linearGradient id="w" x1="174.028" y1="196.408" x2="170.708" y2="196.132" gradientUnits="userSpaceOnUse"><stop stop-color="#FFC000"/><stop offset="1" stop-color="#FF8A00"/></linearGradient><linearGradient id="x" x1="124.859" y1="165.226" x2="106.565" y2="133.592" gradientUnits="userSpaceOnUse"><stop stop-color="#FFC000"/><stop offset="1" stop-color="#FF8A00"/></linearGradient><linearGradient id="y" x1="126.411" y1="141.134" x2="125.589" y2="139.83" gradientUnits="userSpaceOnUse"><stop stop-color="#FFC000"/><stop offset="1" stop-color="#FF8A00"/></linearGradient><linearGradient id="z" x1="118.9" y1="152.481" x2="113.967" y2="141.809" gradientUnits="userSpaceOnUse"><stop stop-color="#FFC000"/><stop offset="1" stop-color="#FF8A00"/></linearGradient><linearGradient id="A" x1="108.56" y1="146.474" x2="107.738" y2="145.171" gradientUnits="userSpaceOnUse"><stop stop-color="#FFC000"/><stop offset="1" stop-color="#FF8A00"/></linearGradient><linearGradient id="B" x1="113.996" y1="151.257" x2="113.174" y2="149.954" gradientUnits="userSpaceOnUse"><stop stop-color="#FFC000"/><stop offset="1" stop-color="#FF8A00"/></linearGradient><linearGradient id="C" x1="119.433" y1="156.041" x2="118.611" y2="154.736" gradientUnits="userSpaceOnUse"><stop stop-color="#FFC000"/><stop offset="1" stop-color="#FF8A00"/></linearGradient><linearGradient id="D" x1="122.913" y1="152.086" x2="122.091" y2="150.782" gradientUnits="userSpaceOnUse"><stop stop-color="#FFC000"/><stop offset="1" stop-color="#FF8A00"/></linearGradient><linearGradient id="E" x1="126.393" y1="148.133" x2="125.57" y2="146.829" gradientUnits="userSpaceOnUse"><stop stop-color="#FFC000"/><stop offset="1" stop-color="#FF8A00"/></linearGradient><linearGradient id="F" x1="115.519" y1="138.565" x2="114.697" y2="137.262" gradientUnits="userSpaceOnUse"><stop stop-color="#FFC000"/><stop offset="1" stop-color="#FF8A00"/></linearGradient><linearGradient id="G" x1="112.04" y1="142.519" x2="111.218" y2="141.216" gradientUnits="userSpaceOnUse"><stop stop-color="#FFC000"/><stop offset="1" stop-color="#FF8A00"/></linearGradient><linearGradient id="H" x1="120.956" y1="143.349" x2="120.134" y2="142.045" gradientUnits="userSpaceOnUse"><stop stop-color="#FFC000"/><stop offset="1" stop-color="#FF8A00"/></linearGradient><linearGradient id="I" x1="30.597" y1=".75" x2="-4.206" y2="11.008" gradientUnits="userSpaceOnUse"><stop stop-color="#FFC000"/><stop offset="1" stop-color="#FF8A00"/></linearGradient><linearGradient id="J" x1="239.259" y1="-4.04" x2="178.918" y2="-27.616" gradientUnits="userSpaceOnUse"><stop stop-color="#FFC000"/><stop offset="1" stop-color="#FF8A00"/></linearGradient><linearGradient id="K" x1="229.498" y1="187.221" x2="248.502" y2="170.278" gradientUnits="userSpaceOnUse"><stop stop-color="#FFC000"/><stop offset="1" stop-color="#FF8A00"/></linearGradient><clipPath id="d"><path fill="#fff" transform="matrix(1 0 0 -1 12 109)" d="M0 0h27v28H0z"/></clipPath><clipPath id="e"><path fill="#fff" transform="matrix(1 0 0 -1 111 208)" d="M0 0h27v28H0z"/></clipPath><clipPath id="l"><path fill="#fff" transform="matrix(1 0 0 -1 220 89)" d="M0 0h26v26H0z"/></clipPath><clipPath id="n"><path fill="#fff" transform="scale(-1 1) rotate(60.82 -138.76 -95.914)" d="M0 0h42.758v42.758H0z"/></clipPath></defs></svg>