<svg width="70" height="70" viewBox="0 0 70 70" fill="none" xmlns="http://www.w3.org/2000/svg"><path d="M54.26 60.452c5.317-5.218 13.553-15.291 13.553-27.64a18.594 18.594 0 0 0-37.188 0c0 12.349 8.236 22.422 13.552 27.64-4.08.503-8.083 1.673-8.083 4.08 0 3.456 8.247 4.374 13.125 4.374s13.125-.919 13.125-4.375c0-2.406-4.003-3.576-8.083-4.08zm-13.79-27.64a8.75 8.75 0 1 1 17.499 0 8.75 8.75 0 0 1-17.5 0zm8.75 33.907c-6.563 0-10.642-1.455-10.938-2.188.263-.656 3.172-1.794 8.04-2.133 1.246 1.094 2.1 1.761 2.252 1.87a1.094 1.094 0 0 0 1.313 0c.153-.109 1.006-.765 2.253-1.87 4.758.34 7.656 1.422 8.017 2.09-.46.83-4.451 2.23-10.937 2.23z" fill="#FFB42D"/><path d="M49.219 39.375a6.562 6.562 0 1 0 0-13.125 6.562 6.562 0 0 0 0 13.125z" fill="#FFB42D"/><path d="M38.281 19.688a3.28 3.28 0 0 0 3.282-3.282V9.844a3.281 3.281 0 0 0-3.282-3.281H26.25V4.374a3.281 3.281 0 0 0-3.281-3.281H20.78a3.281 3.281 0 0 0-3.28 3.282v2.188H8.75a3.281 3.281 0 0 0-2.603 1.235L3.522 11.08a3.281 3.281 0 0 0 0 4.09l2.625 3.282a3.282 3.282 0 0 0 2.603 1.235h8.75v5.47H5.469a3.282 3.282 0 0 0-3.282 3.28V35a3.281 3.281 0 0 0 3.282 3.281H17.5v16.407a1.093 1.093 0 0 0 1.094 1.093h6.562a1.094 1.094 0 0 0 1.094-1.093V38.28H35a3.281 3.281 0 0 0 2.56-1.236l2.624-3.28a3.281 3.281 0 0 0 0-4.092l-2.625-3.28A3.283 3.283 0 0 0 35 25.155h-8.75v-5.468h12.031zM19.688 4.374a1.093 1.093 0 0 1 1.093-1.094h2.188a1.094 1.094 0 0 1 1.093 1.094v2.188h-4.375V4.374zM7.852 17.095l-2.625-3.28a1.094 1.094 0 0 1 0-1.357l2.625-3.281a1.094 1.094 0 0 1 .897-.427H38.28a1.094 1.094 0 0 1 1.094 1.094v6.562A1.093 1.093 0 0 1 38.28 17.5H8.75a1.093 1.093 0 0 1-.897-.405zm16.21 36.499h-4.375V38.28h4.375v15.313zm11.834-25.835l2.625 3.282a1.094 1.094 0 0 1 0 1.367l-2.625 3.281a1.094 1.094 0 0 1-.897.405H5.469A1.094 1.094 0 0 1 4.375 35v-6.563a1.094 1.094 0 0 1 1.094-1.093H35a1.094 1.094 0 0 1 .897.415zm-11.834-2.603h-4.375v-5.468h4.375v5.468z" fill="#6B6B6B"/></svg>