<svg width="601" height="876" viewBox="0 0 601 876" fill="none" xmlns="http://www.w3.org/2000/svg"><g filter="url(#a)"><path fill-rule="evenodd" clip-rule="evenodd" d="M479.025 46c33.987-36.405 90.872-26.915 127.209 7.29s100.77 108.485 15.461 127.001c-66.43 14.419-226.751-44.216-142.67-134.29z" fill="#FFB42D"/><mask id="b" maskUnits="userSpaceOnUse" x="413" y="84" width="124" height="122"><path fill-rule="evenodd" clip-rule="evenodd" d="M489.976 186.981c-23.214 5.893-59.948-4.793-65.715-28.013-5.767-23.221 21.614-50.183 44.819-56.081 23.214-5.893 46.707 8.153 52.474 31.373 5.767 23.221-8.373 46.823-31.578 52.721z" fill="#fff"/></mask><g mask="url(#b)" fill-rule="evenodd" clip-rule="evenodd" fill="#fff"><path d="M487.298 84.7c-.47 1.055-2.138 1.336-3.189.867a2.086 2.086 0 0 1-1.041-2.755c.471-1.054 2.004-2.2 3.045-1.736 1.051.47 1.656 2.57 1.185 3.624zm8.75 3.905c-.47 1.055-2.129 1.34-3.18.871a2.088 2.088 0 0 1-1.05-2.758c.471-1.055 2.004-2.201 3.054-1.732 1.051.469 1.647 2.565 1.176 3.62zm8.76 3.91c-.471 1.054-2.139 1.335-3.19.866a2.088 2.088 0 0 1-1.05-2.758c.471-1.055 2.004-2.201 3.054-1.732 1.051.469 1.656 2.57 1.186 3.624zm8.749 3.905c-.47 1.054-2.138 1.335-3.18.87a2.087 2.087 0 0 1-1.05-2.758c.471-1.055 2.003-2.2 3.054-1.732 1.042.465 1.647 2.565 1.176 3.62zm8.75 3.905c-.47 1.054-2.129 1.339-3.18.87a2.087 2.087 0 0 1-1.05-2.758c.471-1.055 2.003-2.201 3.054-1.732 1.051.469 1.647 2.565 1.176 3.62zm8.76 3.909c-.471 1.054-2.139 1.335-3.19.866a2.085 2.085 0 0 1-1.041-2.754c.471-1.055 2.004-2.201 3.045-1.736 1.051.469 1.656 2.569 1.186 3.624zm8.749 3.905c-.471 1.055-2.129 1.34-3.18.871a2.087 2.087 0 0 1-1.05-2.759c.471-1.054 2.003-2.201 3.054-1.732 1.051.469 1.647 2.566 1.176 3.62zM466.182 84.97c-.47 1.054-2.138 1.335-3.18.87a2.087 2.087 0 0 1-1.05-2.759c.471-1.054 2.003-2.2 3.054-1.732 1.042.465 1.647 2.566 1.176 3.62zm8.75 3.904c-.47 1.055-2.129 1.34-3.18.871a2.087 2.087 0 0 1-1.05-2.758c.471-1.055 2.003-2.201 3.054-1.732 1.051.469 1.647 2.565 1.176 3.62zm8.759 3.909c-.471 1.055-2.138 1.336-3.189.867a2.085 2.085 0 0 1-1.041-2.755c.471-1.054 2.003-2.2 3.045-1.736 1.051.47 1.656 2.57 1.185 3.624zm8.75 3.905c-.471 1.055-2.129 1.34-3.18.871a2.087 2.087 0 0 1-1.05-2.758c.471-1.055 2.003-2.201 3.054-1.732 1.051.469 1.647 2.565 1.176 3.62zm8.759 3.91c-.471 1.054-2.138 1.335-3.189.866a2.086 2.086 0 0 1-1.05-2.758c.471-1.055 2.003-2.201 3.054-1.732 1.051.469 1.656 2.57 1.185 3.624zm8.75 3.905c-.471 1.054-2.139 1.335-3.18.871a2.087 2.087 0 0 1-1.05-2.759c.47-1.055 2.003-2.201 3.054-1.732 1.041.465 1.646 2.565 1.176 3.62zm8.75 3.905c-.471 1.054-2.13 1.339-3.18.87a2.086 2.086 0 0 1-1.05-2.758c.47-1.055 2.003-2.201 3.054-1.732 1.05.469 1.646 2.565 1.176 3.62zm8.759 3.909c-.471 1.054-2.138 1.335-3.189.866a2.084 2.084 0 0 1-1.041-2.754c.471-1.055 2.003-2.201 3.045-1.736 1.051.469 1.656 2.569 1.185 3.624zm8.75 3.905c-.471 1.055-2.13 1.34-3.181.871a2.087 2.087 0 0 1-1.049-2.759c.47-1.054 2.003-2.201 3.054-1.732 1.05.469 1.646 2.566 1.176 3.62zm-91.143-30.984c-.471 1.054-2.129 1.34-3.18.87a2.087 2.087 0 0 1-1.05-2.758c.471-1.055 2.003-2.201 3.054-1.732 1.051.469 1.647 2.565 1.176 3.62zm8.759 3.909c-.471 1.054-2.139 1.335-3.189.866a2.078 2.078 0 0 1-1.041-2.754c.47-1.055 1.994-2.205 3.045-1.736 1.05.469 1.655 2.57 1.185 3.624zm8.75 3.905c-.471 1.055-2.139 1.336-3.18.87a2.086 2.086 0 0 1-1.05-2.758c.47-1.054 2.003-2.2 3.054-1.732 1.041.465 1.646 2.566 1.176 3.62zm8.75 3.905c-.471 1.055-2.13 1.34-3.18.87a2.086 2.086 0 0 1-1.05-2.758c.47-1.055 2.003-2.2 3.054-1.732 1.05.47 1.646 2.565 1.176 3.62zm26.268 11.724c-.471 1.054-2.139 1.335-3.19.866a2.087 2.087 0 0 1-1.049-2.758c.47-1.055 2.003-2.201 3.054-1.732 1.05.469 1.655 2.569 1.185 3.624zm26.259 11.719c-.471 1.054-2.139 1.335-3.19.866a2.084 2.084 0 0 1-1.04-2.754c.47-1.055 2.003-2.201 3.045-1.736 1.05.469 1.655 2.569 1.185 3.624zm8.749 3.905c-.47 1.054-2.129 1.339-3.18.87a2.087 2.087 0 0 1-1.05-2.758c.471-1.055 2.003-2.201 3.054-1.732 1.051.469 1.647 2.565 1.176 3.62zm8.759 3.909c-.47 1.054-2.138 1.335-3.189.867a2.088 2.088 0 0 1-1.05-2.759c.471-1.055 2.003-2.201 3.054-1.732 1.051.469 1.656 2.569 1.185 3.624zM432.709 89.415c-.471 1.055-2.139 1.336-3.19.867a2.085 2.085 0 0 1-1.04-2.754c.47-1.055 2.003-2.201 3.044-1.736 1.051.469 1.656 2.569 1.186 3.623zm8.75 3.905c-.471 1.055-2.13 1.34-3.181.871a2.087 2.087 0 0 1-1.049-2.758c.47-1.055 2.003-2.201 3.054-1.732 1.05.469 1.646 2.565 1.176 3.62zm8.758 3.91c-.47 1.054-2.138 1.335-3.189.867a2.079 2.079 0 0 1-1.041-2.755c.471-1.055 1.995-2.205 3.045-1.736 1.051.47 1.656 2.57 1.185 3.624zm8.75 3.905c-.47 1.055-2.138 1.336-3.18.871a2.088 2.088 0 0 1-1.05-2.759c.471-1.054 2.004-2.2 3.054-1.732 1.042.465 1.647 2.566 1.176 3.62zm17.509 7.814c-.47 1.055-2.138 1.336-3.189.867a2.086 2.086 0 0 1-1.041-2.755c.471-1.054 2.003-2.201 3.045-1.736 1.051.469 1.656 2.57 1.185 3.624zm8.75 3.905c-.47 1.055-2.129 1.34-3.18.871a2.087 2.087 0 0 1-1.05-2.758c.471-1.055 2.003-2.201 3.054-1.732 1.051.469 1.647 2.565 1.176 3.619zm8.759 3.909c-.47 1.055-2.138 1.336-3.189.867a2.088 2.088 0 0 1-1.05-2.759c.471-1.054 2.003-2.2 3.054-1.732 1.051.469 1.656 2.57 1.185 3.624zm35.009 15.625c-.471 1.054-2.13 1.339-3.18.87a2.086 2.086 0 0 1-1.05-2.758c.47-1.055 2.003-2.201 3.054-1.732 1.05.469 1.646 2.565 1.176 3.62zm8.759 3.909c-.471 1.054-2.139 1.336-3.189.867a2.087 2.087 0 0 1-1.05-2.759c.47-1.055 2.003-2.201 3.054-1.732 1.05.469 1.655 2.569 1.185 3.624zM429.101 97.498c-.47 1.055-2.138 1.336-3.189.867a2.085 2.085 0 0 1-1.041-2.754c.471-1.055 2.003-2.201 3.045-1.736 1.051.469 1.656 2.569 1.185 3.623zm8.75 3.906c-.47 1.054-2.129 1.339-3.18.87a2.087 2.087 0 0 1-1.05-2.758c.471-1.055 2.003-2.2 3.054-1.732 1.051.469 1.647 2.565 1.176 3.62zm8.759 3.909c-.471 1.054-2.139 1.335-3.189.867a2.079 2.079 0 0 1-1.041-2.755c.471-1.055 1.994-2.205 3.045-1.736 1.051.469 1.656 2.569 1.185 3.624zm17.5 7.81c-.471 1.054-2.129 1.34-3.18.871a2.087 2.087 0 0 1-1.05-2.759c.471-1.054 2.003-2.201 3.054-1.732 1.051.469 1.647 2.565 1.176 3.62zm8.759 3.909c-.471 1.055-2.139 1.336-3.189.867a2.085 2.085 0 0 1-1.041-2.755c.47-1.054 2.003-2.201 3.045-1.736 1.05.469 1.655 2.57 1.185 3.624zm8.75 3.905c-.471 1.055-2.13 1.34-3.18.871a2.086 2.086 0 0 1-1.05-2.758c.47-1.055 2.003-2.201 3.054-1.732 1.05.469 1.646 2.565 1.176 3.619zm8.759 3.909c-.471 1.055-2.139 1.336-3.189.867a2.087 2.087 0 0 1-1.05-2.759c.47-1.054 2.003-2.2 3.054-1.732 1.05.469 1.655 2.57 1.185 3.624zm8.75 3.905c-.471 1.055-2.139 1.336-3.181.871a2.087 2.087 0 0 1-1.049-2.759c.47-1.054 2.003-2.2 3.053-1.731 1.042.465 1.647 2.565 1.177 3.619zm8.75 3.906c-.471 1.054-2.13 1.339-3.181.87a2.087 2.087 0 0 1-1.049-2.758c.47-1.055 2.003-2.201 3.053-1.732 1.051.469 1.647 2.565 1.177 3.62zm26.267 11.723c-.47 1.054-2.138 1.336-3.189.867a2.088 2.088 0 0 1-1.05-2.759c.471-1.055 2.004-2.201 3.054-1.732 1.051.469 1.656 2.569 1.185 3.624zm-108.651-38.799c-.471 1.055-2.139 1.336-3.189.867a2.084 2.084 0 0 1-1.041-2.754c.47-1.055 2.003-2.201 3.045-1.736 1.05.469 1.655 2.569 1.185 3.623zm8.75 3.906c-.471 1.054-2.13 1.339-3.18.87a2.086 2.086 0 0 1-1.05-2.758c.47-1.055 2.003-2.201 3.054-1.732 1.05.469 1.646 2.565 1.176 3.62zm8.759 3.909c-.471 1.054-2.139 1.335-3.19.867a2.079 2.079 0 0 1-1.04-2.755c.47-1.055 1.994-2.205 3.044-1.736 1.051.469 1.656 2.569 1.186 3.624zm8.75 3.905c-.471 1.054-2.139 1.335-3.181.87a2.087 2.087 0 0 1-1.049-2.758c.47-1.055 2.003-2.201 3.053-1.732 1.042.465 1.647 2.565 1.177 3.62zm8.75 3.905c-.471 1.054-2.13 1.34-3.181.871a2.087 2.087 0 0 1-1.049-2.759c.47-1.054 2.003-2.201 3.053-1.732 1.051.469 1.647 2.565 1.177 3.62zm8.758 3.909c-.47 1.055-2.138 1.336-3.189.867a2.086 2.086 0 0 1-1.041-2.755c.471-1.054 2.004-2.201 3.045-1.736 1.051.469 1.656 2.57 1.185 3.624zm8.75 3.905c-.47 1.054-2.129 1.34-3.18.871a2.088 2.088 0 0 1-1.05-2.759c.471-1.054 2.004-2.201 3.054-1.732 1.051.469 1.647 2.565 1.176 3.62zm8.759 3.909c-.47 1.055-2.138 1.336-3.189.867a2.088 2.088 0 0 1-1.05-2.759c.471-1.054 2.004-2.2 3.054-1.732 1.051.469 1.656 2.57 1.185 3.624zm8.75 3.905c-.471 1.055-2.138 1.336-3.18.871a2.086 2.086 0 0 1-1.05-2.758c.471-1.055 2.003-2.201 3.054-1.732 1.042.465 1.647 2.565 1.176 3.619zm8.75 3.906c-.471 1.054-2.129 1.339-3.18.87a2.086 2.086 0 0 1-1.05-2.758c.471-1.055 2.003-2.201 3.054-1.732 1.051.469 1.647 2.565 1.176 3.62zm8.759 3.908c-.47 1.055-2.138 1.336-3.189.867a2.087 2.087 0 0 1-1.041-2.755c.471-1.054 2.004-2.2 3.045-1.735 1.051.469 1.656 2.569 1.185 3.623zm8.75 3.906c-.471 1.054-2.13 1.339-3.18.87a2.086 2.086 0 0 1-1.05-2.758c.471-1.055 2.003-2.201 3.054-1.732 1.051.469 1.647 2.565 1.176 3.62zm17.509 7.814c-.47 1.055-2.138 1.336-3.18.871a2.088 2.088 0 0 1-1.05-2.759c.471-1.054 2.003-2.201 3.054-1.732 1.042.465 1.647 2.566 1.176 3.62zM502.587 121c-.471 1.054-2.138 1.335-3.18.871a2.087 2.087 0 0 1-1.05-2.759c.471-1.054 2.003-2.201 3.054-1.732 1.042.465 1.647 2.565 1.176 3.62zm8.75 3.905c-.471 1.055-2.129 1.34-3.18.871a2.087 2.087 0 0 1-1.05-2.759c.471-1.054 2.003-2.2 3.054-1.732 1.051.469 1.647 2.566 1.176 3.62zm5.152 11.992c-.471 1.054-2.139 1.335-3.189.867a2.085 2.085 0 0 1-1.041-2.755c.47-1.055 2.003-2.201 3.045-1.736 1.05.469 1.656 2.569 1.185 3.624zm13.902 15.896c-.471 1.055-2.139 1.336-3.19.867a2.088 2.088 0 0 1-1.05-2.758c.471-1.055 2.004-2.201 3.054-1.732 1.051.469 1.656 2.569 1.186 3.623zm5.142 11.989c-.471 1.055-2.139 1.336-3.18.871a2.087 2.087 0 0 1-1.05-2.759c.47-1.054 2.003-2.201 3.054-1.732 1.041.465 1.646 2.566 1.176 3.62zm-113.647-51.118c-.47 1.055-2.138 1.336-3.189.867a2.086 2.086 0 0 1-1.041-2.754c.471-1.055 2.004-2.202 3.046-1.737 1.05.469 1.655 2.57 1.184 3.624zm8.75 3.906c-.47 1.054-2.129 1.339-3.18.87a2.088 2.088 0 0 1-1.05-2.758c.471-1.055 2.004-2.202 3.055-1.733 1.05.469 1.646 2.566 1.175 3.621zm17.509 7.814c-.47 1.054-2.138 1.335-3.18.87a2.087 2.087 0 0 1-1.05-2.758c.471-1.055 2.004-2.202 3.055-1.733 1.041.465 1.646 2.566 1.175 3.621zm8.75 3.905c-.47 1.054-2.129 1.34-3.18.871a2.088 2.088 0 0 1-1.05-2.759c.471-1.055 2.004-2.202 3.055-1.733 1.05.469 1.646 2.566 1.175 3.621zm8.759 3.909c-.471 1.055-2.138 1.336-3.189.867a2.085 2.085 0 0 1-1.041-2.755c.471-1.054 2.004-2.201 3.045-1.737 1.051.469 1.656 2.571 1.185 3.625zm8.75 3.905c-.471 1.054-2.129 1.339-3.18.871a2.087 2.087 0 0 1-1.05-2.759c.471-1.055 2.004-2.202 3.054-1.733 1.051.469 1.647 2.566 1.176 3.621zm8.759 3.909c-.471 1.055-2.138 1.336-3.189.867a2.087 2.087 0 0 1-1.05-2.759c.471-1.054 2.004-2.201 3.054-1.732 1.051.468 1.656 2.57 1.185 3.624zm8.75 3.905c-.471 1.055-2.139 1.336-3.18.871a2.087 2.087 0 0 1-1.05-2.759c.47-1.054 2.003-2.201 3.054-1.732 1.042.465 1.646 2.566 1.176 3.62zm8.75 3.906c-.471 1.054-2.13 1.339-3.18.87a2.086 2.086 0 0 1-1.05-2.758c.47-1.055 2.003-2.202 3.054-1.733 1.051.469 1.646 2.566 1.176 3.621zm8.759 3.908c-.471 1.055-2.138 1.336-3.189.867a2.085 2.085 0 0 1-1.041-2.755c.471-1.054 2.004-2.201 3.045-1.736 1.051.469 1.656 2.57 1.185 3.624zm8.75 3.906c-.471 1.054-2.13 1.339-3.181.87a2.087 2.087 0 0 1-1.049-2.758c.47-1.055 2.003-2.202 3.054-1.733 1.051.469 1.646 2.566 1.176 3.621zm8.759 3.909c-.471 1.054-2.139 1.335-3.19.867a2.088 2.088 0 0 1-1.049-2.759c.47-1.055 2.003-2.202 3.054-1.733 1.051.469 1.655 2.57 1.185 3.625zm-108.652-38.799c-.471 1.055-2.138 1.336-3.189.867a2.084 2.084 0 0 1-1.041-2.754c.471-1.055 2.004-2.202 3.045-1.737 1.051.469 1.656 2.57 1.185 3.624zm8.75 3.906c-.471 1.054-2.129 1.339-3.18.87a2.086 2.086 0 0 1-1.05-2.758c.471-1.055 2.004-2.202 3.054-1.733 1.051.469 1.647 2.566 1.176 3.621zm17.509 7.814c-.471 1.054-2.139 1.335-3.18.87a2.086 2.086 0 0 1-1.05-2.758c.47-1.055 2.003-2.202 3.054-1.733 1.042.465 1.646 2.566 1.176 3.621zm8.75 3.905c-.471 1.054-2.13 1.34-3.18.871a2.087 2.087 0 0 1-1.05-2.759c.47-1.054 2.003-2.202 3.054-1.733 1.051.469 1.646 2.566 1.176 3.621zm8.759 3.909c-.471 1.055-2.139 1.336-3.19.867a2.085 2.085 0 0 1-1.04-2.755c.47-1.054 2.003-2.201 3.045-1.737 1.051.469 1.655 2.571 1.185 3.625zm8.75 3.905c-.471 1.054-2.13 1.34-3.181.871a2.087 2.087 0 0 1-1.049-2.759c.47-1.055 2.003-2.202 3.054-1.733 1.051.469 1.646 2.566 1.176 3.621zm8.759 3.909c-.471 1.055-2.139 1.336-3.19.867a2.087 2.087 0 0 1-1.049-2.759c.47-1.054 2.003-2.201 3.054-1.732 1.051.468 1.655 2.57 1.185 3.624zm8.749 3.905c-.47 1.055-2.138 1.336-3.18.871a2.089 2.089 0 0 1-1.05-2.759c.471-1.054 2.004-2.201 3.055-1.732 1.041.465 1.646 2.566 1.175 3.62zm8.75 3.905c-.47 1.055-2.129 1.34-3.18.871a2.089 2.089 0 0 1-1.05-2.759c.471-1.054 2.004-2.201 3.055-1.733 1.05.469 1.646 2.567 1.175 3.621zm8.76 3.909c-.471 1.055-2.139 1.336-3.19.867a2.085 2.085 0 0 1-1.04-2.755c.47-1.054 2.003-2.201 3.045-1.736 1.051.469 1.655 2.57 1.185 3.624zm8.749 3.906c-.47 1.054-2.129 1.339-3.18.87a2.086 2.086 0 0 1-1.05-2.758c.471-1.055 2.004-2.202 3.054-1.733 1.051.469 1.647 2.566 1.176 3.621zm8.759 3.909c-.47 1.054-2.138 1.335-3.189.867a2.087 2.087 0 0 1-1.05-2.759c.471-1.055 2.004-2.202 3.054-1.733 1.051.469 1.656 2.57 1.185 3.625zm8.75 3.905c-.47 1.054-2.138 1.335-3.18.87a2.088 2.088 0 0 1-1.05-2.758c.471-1.055 2.004-2.202 3.055-1.733 1.041.465 1.646 2.566 1.175 3.621zM414.672 129.83c-.471 1.055-2.139 1.336-3.19.867a2.085 2.085 0 0 1-1.04-2.754c.47-1.055 2.003-2.202 3.045-1.737 1.051.469 1.655 2.57 1.185 3.624zm8.75 3.905c-.471 1.055-2.13 1.34-3.181.871a2.087 2.087 0 0 1-1.049-2.759c.47-1.054 2.003-2.201 3.054-1.732 1.051.468 1.646 2.566 1.176 3.62zm8.758 3.909c-.47 1.055-2.138 1.336-3.189.867a2.08 2.08 0 0 1-1.041-2.755c.471-1.054 1.995-2.205 3.046-1.736 1.05.469 1.655 2.57 1.184 3.624zm8.75 3.906c-.47 1.054-2.138 1.335-3.18.87a2.088 2.088 0 0 1-1.05-2.758c.471-1.055 2.004-2.202 3.055-1.733 1.041.465 1.646 2.566 1.175 3.621zm8.75 3.905c-.47 1.054-2.129 1.34-3.18.871a2.089 2.089 0 0 1-1.05-2.759c.471-1.054 2.004-2.202 3.055-1.733 1.05.469 1.646 2.566 1.175 3.621zm8.759 3.909c-.47 1.054-2.138 1.335-3.189.866a2.084 2.084 0 0 1-1.041-2.754c.471-1.055 2.004-2.202 3.045-1.737 1.051.469 1.656 2.57 1.185 3.625zm8.75 3.905c-.47 1.054-2.129 1.34-3.18.871a2.087 2.087 0 0 1-1.05-2.759c.471-1.055 2.004-2.202 3.054-1.733 1.051.469 1.647 2.566 1.176 3.621zm8.759 3.909c-.47 1.055-2.138 1.336-3.189.867a2.087 2.087 0 0 1-1.05-2.759c.471-1.054 2.004-2.201 3.054-1.732 1.051.468 1.656 2.57 1.185 3.624zm8.75 3.905c-.471 1.055-2.139 1.336-3.18.871a2.087 2.087 0 0 1-1.05-2.759c.471-1.054 2.004-2.201 3.054-1.732 1.042.465 1.647 2.566 1.176 3.62zm8.75 3.905c-.471 1.055-2.129 1.34-3.18.871a2.087 2.087 0 0 1-1.05-2.759c.471-1.054 2.004-2.201 3.054-1.733 1.051.469 1.647 2.567 1.176 3.621zm8.759 3.909c-.47 1.055-2.138 1.336-3.189.867a2.086 2.086 0 0 1-1.041-2.755c.471-1.054 2.004-2.201 3.045-1.736 1.051.469 1.656 2.57 1.185 3.624zm8.75 3.906c-.471 1.054-2.13 1.339-3.18.87a2.086 2.086 0 0 1-1.05-2.758c.47-1.055 2.003-2.202 3.054-1.733 1.051.469 1.646 2.566 1.176 3.621zm8.759 3.908c-.471 1.055-2.139 1.336-3.189.867a2.087 2.087 0 0 1-1.05-2.759c.47-1.054 2.003-2.201 3.054-1.732 1.051.469 1.655 2.57 1.185 3.624zm8.75 3.906c-.471 1.054-2.138 1.335-3.18.87a2.086 2.086 0 0 1-1.05-2.758c.471-1.055 2.004-2.202 3.054-1.733 1.042.465 1.647 2.566 1.176 3.621zm-108.652-38.799c-.47 1.055-2.129 1.34-3.18.871a2.087 2.087 0 0 1-1.05-2.759c.471-1.054 2.004-2.201 3.054-1.732 1.051.468 1.647 2.566 1.176 3.62zm17.509 7.815c-.471 1.054-2.139 1.335-3.18.87a2.086 2.086 0 0 1-1.05-2.758c.471-1.055 2.004-2.202 3.054-1.733 1.042.465 1.647 2.566 1.176 3.621zm8.75 3.904c-.471 1.055-2.129 1.34-3.18.871a2.086 2.086 0 0 1-1.05-2.758c.471-1.055 2.004-2.202 3.054-1.733 1.051.469 1.647 2.566 1.176 3.62zm8.759 3.91c-.471 1.054-2.139 1.335-3.189.866a2.084 2.084 0 0 1-1.041-2.754c.47-1.055 2.003-2.202 3.045-1.737 1.051.469 1.655 2.57 1.185 3.625zm8.75 3.905c-.471 1.054-2.13 1.34-3.18.871a2.087 2.087 0 0 1-1.05-2.759c.47-1.055 2.003-2.202 3.054-1.733 1.051.469 1.646 2.566 1.176 3.621zm8.759 3.909c-.471 1.055-2.139 1.336-3.189.867a2.087 2.087 0 0 1-1.05-2.759c.47-1.054 2.003-2.201 3.054-1.732 1.051.468 1.655 2.57 1.185 3.624zm8.75 3.905c-.471 1.054-2.139 1.335-3.181.871a2.089 2.089 0 0 1-1.05-2.759c.471-1.055 2.004-2.202 3.055-1.733 1.042.465 1.646 2.566 1.176 3.621zm8.75 3.905c-.471 1.055-2.13 1.34-3.181.871a2.089 2.089 0 0 1-1.05-2.759c.471-1.054 2.004-2.201 3.055-1.733 1.051.469 1.646 2.567 1.176 3.621zm8.759 3.909c-.471 1.055-2.139 1.336-3.189.867a2.085 2.085 0 0 1-1.041-2.755c.47-1.054 2.003-2.201 3.045-1.736 1.051.469 1.655 2.57 1.185 3.624zm17.508 7.814c-.47 1.055-2.138 1.336-3.189.867a2.088 2.088 0 0 1-1.05-2.759c.471-1.054 2.004-2.201 3.055-1.732 1.05.469 1.655 2.57 1.184 3.624zm8.751 3.906c-.471 1.054-2.139 1.335-3.181.87a2.087 2.087 0 0 1-1.049-2.758c.47-1.055 2.003-2.202 3.054-1.733 1.042.465 1.646 2.566 1.176 3.621zm-108.652-38.8c-.47 1.055-2.129 1.34-3.18.871a2.088 2.088 0 0 1-1.05-2.759c.471-1.054 2.004-2.201 3.055-1.732 1.05.469 1.646 2.566 1.175 3.62zm17.509 7.815c-.471 1.054-2.138 1.335-3.18.87a2.086 2.086 0 0 1-1.05-2.758c.471-1.055 2.004-2.202 3.054-1.733 1.042.465 1.647 2.566 1.176 3.621zm8.75 3.904c-.471 1.055-2.129 1.34-3.18.871a2.086 2.086 0 0 1-1.05-2.758c.471-1.055 2.004-2.202 3.054-1.733 1.051.469 1.647 2.566 1.176 3.62zm8.759 3.91c-.471 1.054-2.139 1.335-3.189.866a2.084 2.084 0 0 1-1.041-2.754c.47-1.055 2.003-2.202 3.045-1.737 1.051.469 1.655 2.57 1.185 3.625zm8.75 3.905c-.471 1.054-2.13 1.34-3.18.871a2.087 2.087 0 0 1-1.05-2.759c.47-1.054 2.003-2.202 3.054-1.733 1.051.469 1.646 2.566 1.176 3.621zm8.759 3.909c-.471 1.055-2.139 1.336-3.189.867a2.087 2.087 0 0 1-1.05-2.759c.47-1.054 2.003-2.201 3.054-1.732 1.051.468 1.655 2.57 1.185 3.624zm8.75 3.905c-.471 1.054-2.139 1.335-3.181.871a2.087 2.087 0 0 1-1.049-2.759c.47-1.055 2.003-2.202 3.054-1.733 1.042.465 1.646 2.566 1.176 3.621zm8.75 3.905c-.471 1.055-2.13 1.34-3.181.871a2.087 2.087 0 0 1-1.049-2.759c.47-1.054 2.003-2.201 3.054-1.732 1.051.468 1.646 2.566 1.176 3.62zm26.267 11.723c-.47 1.055-2.138 1.336-3.189.867a2.088 2.088 0 0 1-1.05-2.758c.471-1.055 2.004-2.202 3.055-1.733 1.05.469 1.655 2.57 1.184 3.624zm8.75 3.906c-.47 1.054-2.138 1.335-3.18.87a2.086 2.086 0 0 1-1.05-2.758c.471-1.055 2.004-2.202 3.054-1.733 1.042.465 1.647 2.566 1.176 3.621zM412.6 157.983c-.471 1.055-2.129 1.339-3.18.87a2.086 2.086 0 0 1-1.05-2.758c.47-1.054 2.003-2.201 3.054-1.732 1.051.469 1.646 2.566 1.176 3.62zm8.759 3.909c-.471 1.055-2.138 1.335-3.189.866a2.077 2.077 0 0 1-1.041-2.753c.47-1.055 1.994-2.206 3.045-1.737 1.051.469 1.655 2.57 1.185 3.624zm17.5 7.81c-.471 1.055-2.129 1.339-3.18.87a2.085 2.085 0 0 1-1.05-2.757c.47-1.055 2.003-2.202 3.054-1.733 1.051.469 1.646 2.566 1.176 3.62zm8.758 3.91c-.47 1.054-2.138 1.334-3.188.865a2.084 2.084 0 0 1-1.042-2.753c.471-1.055 2.004-2.202 3.046-1.737 1.05.469 1.655 2.57 1.184 3.625zm8.75 3.905c-.47 1.054-2.129 1.339-3.179.87a2.087 2.087 0 0 1-1.051-2.758c.471-1.054 2.004-2.202 3.055-1.733 1.05.469 1.646 2.566 1.175 3.621zm8.759 3.909c-.47 1.054-2.138 1.334-3.188.865a2.086 2.086 0 0 1-1.051-2.757c.471-1.055 2.004-2.202 3.055-1.733 1.05.469 1.655 2.57 1.184 3.625zm8.75 3.905c-.47 1.054-2.138 1.335-3.18.87a2.087 2.087 0 0 1-1.05-2.758c.471-1.055 2.004-2.202 3.054-1.733 1.042.465 1.647 2.566 1.176 3.621zm26.259 11.719c-.471 1.055-2.129 1.339-3.18.87a2.086 2.086 0 0 1-1.05-2.758c.471-1.054 2.004-2.201 3.054-1.733 1.051.469 1.647 2.567 1.176 3.621zm8.759 3.909c-.471 1.055-2.138 1.335-3.189.866a2.085 2.085 0 0 1-1.05-2.757c.471-1.055 2.004-2.202 3.054-1.733 1.051.469 1.656 2.57 1.185 3.624zm8.75 3.906c-.47 1.054-2.138 1.334-3.18.869a2.087 2.087 0 0 1-1.05-2.757c.471-1.055 2.004-2.202 3.055-1.733 1.041.465 1.646 2.566 1.175 3.621zm-99.893-34.89c-.47 1.055-2.138 1.335-3.189.866a2.077 2.077 0 0 1-1.041-2.753c.471-1.055 1.995-2.206 3.045-1.737 1.051.469 1.656 2.57 1.185 3.624zm8.75 3.906c-.47 1.054-2.138 1.334-3.18.869a2.086 2.086 0 0 1-1.05-2.757c.471-1.055 2.004-2.202 3.054-1.733 1.042.465 1.647 2.566 1.176 3.621zm8.75 3.904c-.47 1.055-2.129 1.339-3.18.87a2.086 2.086 0 0 1-1.05-2.757c.471-1.055 2.004-2.202 3.054-1.733 1.051.469 1.647 2.566 1.176 3.62zm35.018 15.629c-.471 1.054-2.138 1.335-3.18.87a2.086 2.086 0 0 1-1.05-2.758c.47-1.055 2.003-2.202 3.054-1.733 1.042.465 1.646 2.566 1.176 3.621zm17.509 7.814c-.471 1.055-2.138 1.335-3.189.866a2.085 2.085 0 0 1-1.041-2.754c.471-1.054 2.004-2.201 3.045-1.736 1.051.469 1.656 2.57 1.185 3.624zm8.75 3.905c-.471 1.055-2.129 1.339-3.18.87a2.087 2.087 0 0 1-1.051-2.758c.471-1.054 2.004-2.201 3.055-1.732 1.051.468 1.646 2.566 1.176 3.62zm8.759 3.909c-.471 1.055-2.138 1.335-3.189.866a2.086 2.086 0 0 1-1.051-2.757c.471-1.055 2.004-2.202 3.055-1.733 1.051.469 1.655 2.57 1.185 3.624zm-91.143-30.984c-.471 1.055-2.138 1.335-3.189.866a2.077 2.077 0 0 1-1.041-2.753c.47-1.055 1.994-2.206 3.045-1.737 1.051.469 1.655 2.57 1.185 3.624zm8.75 3.905c-.471 1.055-2.138 1.335-3.18.87a2.086 2.086 0 0 1-1.05-2.758c.47-1.054 2.003-2.201 3.054-1.732 1.042.464 1.646 2.566 1.176 3.62zm8.75 3.905c-.471 1.055-2.129 1.339-3.18.87a2.085 2.085 0 0 1-1.05-2.757c.47-1.055 2.003-2.202 3.054-1.733 1.051.469 1.646 2.566 1.176 3.62zm8.759 3.91c-.471 1.054-2.139 1.334-3.189.865a2.084 2.084 0 0 1-1.042-2.753c.471-1.055 2.004-2.202 3.046-1.737 1.051.469 1.655 2.57 1.185 3.625zm8.75 3.904c-.471 1.055-2.129 1.339-3.18.87a2.086 2.086 0 0 1-1.051-2.757c.471-1.055 2.004-2.202 3.055-1.733 1.051.469 1.646 2.566 1.176 3.62zm8.759 3.91c-.471 1.054-2.138 1.334-3.189.866a2.087 2.087 0 0 1-1.051-2.758c.471-1.055 2.004-2.202 3.055-1.733 1.051.469 1.655 2.57 1.185 3.625zm17.499 7.81c-.47 1.055-2.129 1.339-3.179.87a2.087 2.087 0 0 1-1.051-2.758c.471-1.054 2.004-2.201 3.055-1.732 1.05.468 1.646 2.566 1.175 3.62zm8.76 3.909c-.471 1.054-2.138 1.335-3.189.866a2.084 2.084 0 0 1-1.041-2.754c.47-1.055 2.003-2.202 3.045-1.737 1.051.469 1.655 2.57 1.185 3.625zm-64.885-19.265c-.47 1.055-2.138 1.335-3.179.87a2.087 2.087 0 0 1-1.051-2.758c.471-1.054 2.004-2.201 3.055-1.732 1.041.464 1.646 2.566 1.175 3.62zm8.75 3.905c-.47 1.055-2.129 1.339-3.179.87a2.086 2.086 0 0 1-1.051-2.757c.471-1.055 2.004-2.202 3.055-1.733 1.05.469 1.646 2.566 1.175 3.62zm8.759 3.91c-.471 1.054-2.138 1.334-3.189.865a2.083 2.083 0 0 1-1.041-2.753c.471-1.055 2.004-2.202 3.045-1.737 1.051.469 1.656 2.57 1.185 3.625zm8.75 3.904c-.471 1.055-2.129 1.339-3.18.87a2.086 2.086 0 0 1-1.05-2.757c.471-1.055 2.004-2.202 3.054-1.733 1.051.469 1.647 2.566 1.176 3.62zm17.509 7.815c-.471 1.054-2.138 1.335-3.18.87a2.086 2.086 0 0 1-1.05-2.758c.471-1.054 2.004-2.202 3.054-1.733 1.042.465 1.647 2.566 1.176 3.621zm40.95-21.198c-.471 1.054-2.129 1.339-3.18.87a2.086 2.086 0 0 1-1.05-2.758c.471-1.055 2.003-2.201 3.054-1.732 1.051.469 1.647 2.565 1.176 3.62zm-12.357 4.177c-.471 1.055-2.138 1.336-3.189.867a2.085 2.085 0 0 1-1.041-2.755c.471-1.054 2.003-2.201 3.045-1.736 1.051.469 1.656 2.569 1.185 3.624zm-12.367 4.173c-.47 1.055-2.129 1.34-3.18.871a2.089 2.089 0 0 1-1.05-2.759c.471-1.054 2.004-2.2 3.054-1.731 1.051.469 1.647 2.565 1.176 3.619zm-12.357 4.179c-.47 1.054-2.138 1.335-3.18.87a2.088 2.088 0 0 1-1.05-2.758c.471-1.055 2.004-2.201 3.054-1.732 1.042.465 1.647 2.565 1.176 3.62zm-12.357 4.177c-.471 1.055-2.139 1.336-3.189.867a2.086 2.086 0 0 1-1.05-2.758c.47-1.055 2.003-2.201 3.054-1.732 1.05.469 1.655 2.569 1.185 3.623z"/></g><path fill-rule="evenodd" clip-rule="evenodd" d="M528.913 7.876c9.471-10.03 25.263-7.472 35.326 1.894 10.064 9.366 27.897 29.718 4.186 34.878-18.463 4.018-62.943-11.953-39.512-36.772z" fill="#6B6B6B"/></g><mask id="c" maskUnits="userSpaceOnUse" x="458" y="469" width="184" height="184"><path fill-rule="evenodd" clip-rule="evenodd" d="M536.619 498.787c34.159-4.019 84.445 18.114 88.282 52.258 3.836 34.145-40.224 67.373-74.371 71.399-34.159 4.018-64.96-20.404-68.797-54.548-3.836-34.145 20.74-65.084 54.886-69.109z" fill="#fff"/></mask><g mask="url(#c)" fill-rule="evenodd" clip-rule="evenodd" fill="#6B6B6B"><path d="M532.901 652.12c.869-1.413 3.284-1.506 4.692-.641a2.998 2.998 0 0 1 .975 4.125c-.869 1.413-3.267 2.756-4.674 1.891-1.408-.866-1.862-3.962-.993-5.375zm-11.733-7.215c.868-1.413 3.296-1.499 4.703-.633 1.396.858 1.832 2.705.963 4.117-.868 1.413-3.266 2.756-4.662 1.898-1.407-.865-1.873-3.969-1.004-5.382zm-11.722-7.207c.869-1.413 3.284-1.507 4.692-.641a2.998 2.998 0 0 1 .975 4.125c-.869 1.413-3.267 2.756-4.674 1.89-1.408-.865-1.862-3.962-.993-5.374zm-11.733-7.215c.868-1.413 3.296-1.499 4.703-.634a2.997 2.997 0 0 1 .975 4.125c-.868 1.413-3.266 2.756-4.674 1.891-1.407-.866-1.873-3.97-1.004-5.382zm-11.722-7.208c.869-1.413 3.296-1.499 4.691-.64a2.997 2.997 0 0 1 .976 4.125c-.869 1.412-3.267 2.755-4.674 1.89-1.396-.858-1.862-3.962-.993-5.375zm-11.722-7.208c.869-1.413 3.284-1.506 4.692-.641a2.998 2.998 0 0 1 .975 4.126c-.869 1.412-3.267 2.755-4.674 1.89-1.408-.866-1.861-3.962-.993-5.375zm-11.733-7.215c.869-1.412 3.296-1.498 4.704-.633 1.395.858 1.831 2.705.963 4.118-.869 1.412-3.267 2.756-4.662 1.898-1.408-.866-1.874-3.97-1.005-5.383zm-11.722-7.207c.869-1.413 3.284-1.506 4.692-.641a2.998 2.998 0 0 1 .975 4.125c-.869 1.413-3.267 2.756-4.674 1.891-1.408-.866-1.861-3.963-.993-5.375zM551.281 648.5c.869-1.413 3.296-1.499 4.692-.641a2.998 2.998 0 0 1 .975 4.125c-.869 1.413-3.267 2.756-4.674 1.891-1.396-.858-1.862-3.963-.993-5.375zm-11.722-7.208c.869-1.412 3.284-1.506 4.692-.64a2.997 2.997 0 0 1 .975 4.125c-.869 1.412-3.267 2.756-4.674 1.89-1.408-.865-1.861-3.962-.993-5.375zm-11.733-7.215c.869-1.413 3.296-1.499 4.704-.633 1.395.858 1.831 2.705.963 4.117-.869 1.413-3.267 2.756-4.662 1.898-1.408-.865-1.874-3.969-1.005-5.382zm-11.722-7.208c.869-1.412 3.284-1.506 4.692-.64a2.997 2.997 0 0 1 .975 4.125c-.869 1.412-3.267 2.756-4.674 1.89-1.408-.865-1.861-3.962-.993-5.375zm-11.734-7.215c.869-1.412 3.297-1.498 4.704-.633a2.997 2.997 0 0 1 .975 4.125c-.868 1.413-3.266 2.756-4.674 1.891-1.407-.866-1.873-3.97-1.005-5.383zm-11.721-7.207c.869-1.413 3.296-1.499 4.692-.641a2.998 2.998 0 0 1 .975 4.125c-.869 1.413-3.267 2.756-4.674 1.891-1.396-.858-1.861-3.962-.993-5.375zm-11.721-7.208c.868-1.412 3.283-1.506 4.691-.64a2.996 2.996 0 0 1 .975 4.125c-.869 1.413-3.266 2.756-4.674 1.89-1.407-.865-1.861-3.962-.992-5.375zm-11.734-7.215c.869-1.413 3.296-1.499 4.704-.633 1.395.858 1.831 2.705.963 4.118-.869 1.412-3.267 2.755-4.662 1.897-1.408-.865-1.874-3.969-1.005-5.382zm-11.722-7.207c.869-1.413 3.284-1.506 4.692-.641a2.997 2.997 0 0 1 .975 4.125c-.869 1.413-3.266 2.756-4.674 1.89-1.408-.865-1.861-3.962-.993-5.374zm123.922 61.277c.869-1.413 3.284-1.506 4.692-.641a2.998 2.998 0 0 1 .975 4.125c-.869 1.413-3.267 2.756-4.674 1.891-1.408-.866-1.861-3.962-.993-5.375zm-11.733-7.215c.869-1.413 3.296-1.499 4.704-.633 1.407.865 1.831 2.705.963 4.118-.869 1.412-3.255 2.763-4.662 1.897-1.408-.865-1.874-3.969-1.005-5.382zm-11.722-7.207c.869-1.413 3.296-1.499 4.692-.641a2.998 2.998 0 0 1 .975 4.125c-.869 1.413-3.267 2.756-4.674 1.89-1.396-.858-1.861-3.962-.993-5.374zm-11.721-7.208c.868-1.413 3.283-1.506 4.691-.641a2.998 2.998 0 0 1 .975 4.126c-.868 1.412-3.266 2.755-4.674 1.89-1.407-.866-1.861-3.962-.992-5.375zm-35.189-21.638c.868-1.412 3.296-1.498 4.703-.633a2.996 2.996 0 0 1 .975 4.125c-.868 1.413-3.266 2.756-4.674 1.891-1.407-.866-1.873-3.97-1.004-5.383zm-35.177-21.629c.869-1.413 3.296-1.499 4.704-.634 1.395.858 1.832 2.705.963 4.118-.869 1.413-3.267 2.756-4.662 1.898-1.408-.866-1.873-3.97-1.005-5.382zm-11.721-7.208c.868-1.413 3.284-1.507 4.691-.641a2.996 2.996 0 0 1 .975 4.125c-.868 1.413-3.266 2.756-4.674 1.89-1.407-.865-1.861-3.962-.992-5.374zm-11.734-7.215c.868-1.413 3.296-1.499 4.703-.634a2.998 2.998 0 0 1 .976 4.125c-.869 1.413-3.267 2.756-4.674 1.891-1.408-.866-1.874-3.97-1.005-5.382zm147.377 75.7c.869-1.413 3.296-1.499 4.704-.633 1.395.858 1.831 2.705.963 4.117-.869 1.413-3.267 2.756-4.662 1.898-1.408-.865-1.873-3.969-1.005-5.382zm-11.721-7.208c.868-1.412 3.283-1.506 4.691-.64a2.996 2.996 0 0 1 .975 4.125c-.869 1.412-3.266 2.756-4.674 1.89-1.407-.865-1.861-3.962-.992-5.375zm-11.734-7.215c.868-1.413 3.296-1.499 4.703-.633 1.408.865 1.832 2.705.963 4.117-.868 1.413-3.254 2.764-4.662 1.898-1.407-.865-1.873-3.969-1.004-5.382zm-11.722-7.207c.869-1.413 3.296-1.499 4.692-.641a2.997 2.997 0 0 1 .975 4.125c-.869 1.413-3.266 2.756-4.674 1.89-1.395-.858-1.861-3.962-.993-5.374zm-23.455-14.423c.869-1.413 3.296-1.499 4.704-.633 1.395.858 1.832 2.705.963 4.118-.869 1.412-3.266 2.755-4.662 1.897-1.407-.865-1.873-3.969-1.005-5.382zm-11.721-7.207c.868-1.413 3.284-1.507 4.691-.641a2.996 2.996 0 0 1 .975 4.125c-.868 1.413-3.266 2.756-4.674 1.89-1.407-.865-1.861-3.962-.992-5.374zm-11.734-7.215c.869-1.413 3.296-1.499 4.703-.634a2.998 2.998 0 0 1 .976 4.125c-.869 1.413-3.267 2.756-4.674 1.891-1.408-.866-1.874-3.97-1.005-5.382zm-46.898-28.838c.868-1.413 3.284-1.506 4.691-.641a2.997 2.997 0 0 1 .975 4.125c-.868 1.413-3.266 2.756-4.674 1.891-1.407-.866-1.861-3.962-.992-5.375zm-11.734-7.215c.869-1.413 3.296-1.499 4.704-.633a2.998 2.998 0 0 1 .975 4.125c-.869 1.412-3.267 2.756-4.674 1.89-1.408-.865-1.874-3.969-1.005-5.382zm135.656 68.492c.868-1.412 3.284-1.506 4.691-.64a2.996 2.996 0 0 1 .975 4.125c-.868 1.412-3.266 2.756-4.674 1.89-1.407-.865-1.861-3.962-.992-5.375zm-11.734-7.215c.868-1.413 3.296-1.499 4.703-.633 1.408.865 1.832 2.705.963 4.117-.868 1.413-3.254 2.764-4.661 1.898-1.408-.865-1.874-3.969-1.005-5.382zm-23.443-14.415c.869-1.413 3.284-1.506 4.691-.641a2.998 2.998 0 0 1 .976 4.125c-.869 1.413-3.267 2.756-4.674 1.891-1.408-.866-1.862-3.962-.993-5.375zm-11.734-7.215c.869-1.413 3.296-1.499 4.704-.633 1.395.858 1.831 2.705.963 4.117-.869 1.413-3.267 2.756-4.662 1.898-1.408-.865-1.874-3.969-1.005-5.382zm-11.721-7.208c.869-1.412 3.284-1.506 4.691-.64a2.996 2.996 0 0 1 .975 4.125c-.868 1.413-3.266 2.756-4.674 1.89-1.407-.865-1.861-3.962-.992-5.375zm-11.734-7.214c.869-1.413 3.296-1.499 4.704-.634a2.998 2.998 0 0 1 .975 4.125c-.869 1.413-3.267 2.756-4.674 1.891-1.408-.866-1.874-3.97-1.005-5.382zm-11.721-7.208c.868-1.413 3.296-1.499 4.691-.641a2.996 2.996 0 0 1 .975 4.125c-.868 1.413-3.266 2.756-4.674 1.89-1.395-.858-1.861-3.962-.992-5.374zm-11.722-7.208c.869-1.413 3.284-1.506 4.692-.641a3 3 0 0 1 .975 4.126c-.869 1.412-3.267 2.755-4.674 1.89-1.408-.866-1.862-3.962-.993-5.375zm-35.189-21.637c.869-1.413 3.296-1.499 4.704-.633a2.997 2.997 0 0 1 .975 4.125c-.869 1.412-3.266 2.756-4.674 1.89-1.408-.865-1.873-3.97-1.005-5.382zm-11.721-7.208c.869-1.413 3.296-1.499 4.691-.641a2.998 2.998 0 0 1 .976 4.125c-.869 1.413-3.267 2.756-4.674 1.891-1.396-.858-1.862-3.962-.993-5.375zm147.377 75.7c.869-1.413 3.284-1.506 4.691-.641a2.999 2.999 0 0 1 .976 4.126c-.869 1.412-3.267 2.755-4.674 1.89-1.408-.866-1.862-3.962-.993-5.375zm-11.734-7.215c.869-1.412 3.296-1.498 4.704-.633 1.407.866 1.831 2.705.963 4.118-.869 1.412-3.255 2.763-4.662 1.898-1.408-.866-1.874-3.97-1.005-5.383zm-11.721-7.207c.868-1.413 3.296-1.499 4.691-.641a2.996 2.996 0 0 1 .975 4.125c-.868 1.413-3.266 2.756-4.674 1.891-1.395-.859-1.861-3.963-.992-5.375zm-11.722-7.208c.869-1.412 3.284-1.506 4.692-.64a2.998 2.998 0 0 1 .975 4.125c-.869 1.412-3.267 2.756-4.674 1.89-1.408-.865-1.861-3.962-.993-5.375zm-11.734-7.215c.869-1.413 3.296-1.499 4.704-.633 1.395.858 1.832 2.705.963 4.117-.869 1.413-3.267 2.756-4.662 1.898-1.408-.865-1.873-3.969-1.005-5.382zm-11.721-7.208c.869-1.412 3.284-1.506 4.692-.64a2.998 2.998 0 0 1 .975 4.125c-.869 1.412-3.267 2.756-4.674 1.89-1.408-.865-1.862-3.962-.993-5.375zm-11.734-7.215c.869-1.412 3.296-1.498 4.704-.633a2.998 2.998 0 0 1 .975 4.125c-.869 1.413-3.266 2.756-4.674 1.891-1.408-.866-1.873-3.97-1.005-5.383zm-11.721-7.207c.868-1.413 3.296-1.499 4.691-.641a2.997 2.997 0 0 1 .975 4.125c-.869 1.413-3.266 2.756-4.674 1.891-1.395-.858-1.861-3.962-.992-5.375zm-11.722-7.208c.869-1.412 3.284-1.506 4.692-.64a2.997 2.997 0 0 1 .975 4.125c-.869 1.413-3.267 2.756-4.674 1.89-1.408-.865-1.861-3.962-.993-5.375zm-11.734-7.215c.869-1.413 3.296-1.499 4.704-.633 1.395.858 1.832 2.705.963 4.118-.869 1.412-3.266 2.755-4.662 1.897-1.407-.865-1.873-3.969-1.005-5.382zm-11.721-7.207c.869-1.413 3.284-1.507 4.692-.641a2.997 2.997 0 0 1 .975 4.125c-.869 1.413-3.267 2.756-4.674 1.89-1.408-.865-1.861-3.962-.993-5.374zm-23.455-14.423c.868-1.412 3.296-1.498 4.691-.64a2.996 2.996 0 0 1 .975 4.125c-.868 1.412-3.266 2.756-4.674 1.89-1.395-.858-1.861-3.962-.992-5.375zm45.589 57.265c.868-1.413 3.296-1.499 4.691-.641a2.997 2.997 0 0 1 .975 4.125c-.868 1.413-3.266 2.756-4.674 1.891-1.395-.858-1.861-3.962-.992-5.375zm-11.722-7.208c.869-1.412 3.284-1.506 4.691-.64a2.996 2.996 0 0 1 .975 4.125c-.868 1.412-3.266 2.756-4.674 1.89-1.407-.865-1.861-3.962-.992-5.375zm-5.075-18.043c.868-1.412 3.296-1.498 4.703-.633 1.396.858 1.832 2.705.963 4.118-.868 1.412-3.266 2.756-4.662 1.898-1.407-.866-1.873-3.97-1.004-5.383zm-16.798-25.249c.869-1.413 3.296-1.499 4.704-.633a2.998 2.998 0 0 1 .975 4.125c-.869 1.412-3.267 2.756-4.674 1.89-1.408-.865-1.874-3.97-1.005-5.382zm-5.063-18.037c.868-1.413 3.296-1.499 4.691-.641a2.997 2.997 0 0 1 .975 4.125c-.868 1.413-3.266 2.756-4.674 1.891-1.395-.858-1.861-3.963-.992-5.375zm116.991 72.549c.868-1.412 3.296-1.498 4.691-.64a2.996 2.996 0 0 1 .975 4.125c-.868 1.412-3.267 2.757-4.674 1.891-1.396-.858-1.861-3.963-.992-5.376zm-11.722-7.207c.869-1.413 3.284-1.506 4.692-.641a2.998 2.998 0 0 1 .975 4.125c-.869 1.413-3.267 2.757-4.675 1.892-1.408-.866-1.861-3.963-.992-5.376zm-11.733-7.215c.868-1.413 3.296-1.499 4.703-.633 1.396.858 1.832 2.705.963 4.117-.868 1.413-3.267 2.758-4.662 1.899-1.408-.865-1.873-3.97-1.004-5.383zm-11.722-7.208c.869-1.412 3.284-1.506 4.692-.64a2.998 2.998 0 0 1 .975 4.125c-.869 1.413-3.268 2.757-4.675 1.892-1.408-.866-1.861-3.964-.992-5.377zm-11.734-7.214c.869-1.413 3.296-1.499 4.704-.634a2.998 2.998 0 0 1 .975 4.125c-.869 1.413-3.267 2.757-4.675 1.892-1.407-.866-1.872-3.971-1.004-5.383zm-11.721-7.208c.869-1.413 3.296-1.499 4.691-.641a2.998 2.998 0 0 1 .976 4.125c-.869 1.413-3.268 2.757-4.675 1.892-1.396-.858-1.861-3.964-.992-5.376zm-11.722-7.208c.869-1.413 3.284-1.506 4.692-.641a2.998 2.998 0 0 1 .975 4.126c-.869 1.412-3.267 2.757-4.675 1.891-1.407-.865-1.86-3.963-.992-5.376zm-11.733-7.215c.869-1.412 3.296-1.498 4.704-.633 1.395.858 1.831 2.705.963 4.118-.869 1.412-3.268 2.757-4.663 1.899-1.408-.866-1.873-3.971-1.004-5.384zm-11.722-7.207c.869-1.413 3.284-1.506 4.692-.641a2.998 2.998 0 0 1 .975 4.125c-.869 1.413-3.267 2.757-4.675 1.892-1.407-.866-1.86-3.964-.992-5.376zm-11.734-7.215c.869-1.413 3.296-1.499 4.704-.633a2.996 2.996 0 0 1 .975 4.125c-.868 1.412-3.267 2.757-4.675 1.891-1.407-.865-1.872-3.971-1.004-5.383zm112.201 54.07c.869-1.413 3.296-1.499 4.691-.641a2.998 2.998 0 0 1 .976 4.125c-.869 1.413-3.268 2.757-4.675 1.892-1.396-.858-1.861-3.964-.992-5.376zm-11.722-7.208c.869-1.413 3.284-1.506 4.692-.641a2.997 2.997 0 0 1 .975 4.125c-.869 1.413-3.267 2.757-4.675 1.892-1.407-.866-1.86-3.964-.992-5.376zm-11.733-7.215c.869-1.413 3.296-1.499 4.704-.633 1.395.858 1.831 2.705.963 4.117-.869 1.413-3.268 2.757-4.663 1.899-1.408-.865-1.873-3.97-1.004-5.383zm-11.722-7.208c.869-1.412 3.284-1.506 4.692-.64a2.997 2.997 0 0 1 .975 4.125c-.869 1.412-3.267 2.757-4.675 1.891-1.407-.865-1.86-3.963-.992-5.376zm-11.734-7.215c.869-1.412 3.297-1.498 4.704-.633a2.997 2.997 0 0 1 .975 4.125c-.868 1.413-3.267 2.757-4.675 1.892-1.407-.866-1.872-3.971-1.004-5.384zm-11.721-7.207c.869-1.413 3.296-1.499 4.692-.641a2.998 2.998 0 0 1 .975 4.125c-.869 1.413-3.267 2.758-4.675 1.892-1.395-.858-1.86-3.963-.992-5.376zm-11.721-7.208c.868-1.412 3.283-1.506 4.691-.64a2.996 2.996 0 0 1 .975 4.125c-.869 1.413-3.267 2.757-4.675 1.891-1.407-.865-1.86-3.963-.991-5.376zm-11.734-7.215c.868-1.413 3.296-1.499 4.703-.633 1.396.858 1.832 2.705.963 4.118-.868 1.412-3.267 2.757-4.662 1.899-1.408-.866-1.873-3.971-1.004-5.384zm-11.722-7.207c.869-1.413 3.284-1.507 4.692-.641a2.997 2.997 0 0 1 .975 4.125c-.869 1.413-3.267 2.757-4.675 1.892-1.407-.866-1.86-3.964-.992-5.376zm-11.733-7.215c.868-1.413 3.296-1.499 4.703-.634a2.998 2.998 0 0 1 .975 4.126c-.868 1.412-3.267 2.757-4.674 1.891-1.408-.865-1.873-3.971-1.004-5.383zm-11.722-7.208c.869-1.412 3.296-1.498 4.692-.64a2.997 2.997 0 0 1 .975 4.125c-.869 1.412-3.267 2.757-4.675 1.891-1.395-.858-1.86-3.963-.992-5.376zm123.922 61.278c.869-1.413 3.296-1.499 4.692-.641a2.998 2.998 0 0 1 .975 4.125c-.869 1.413-3.267 2.757-4.675 1.892-1.395-.858-1.86-3.964-.992-5.376zm-11.721-7.208c.868-1.413 3.283-1.506 4.691-.641a2.997 2.997 0 0 1 .975 4.125c-.868 1.413-3.267 2.758-4.675 1.892-1.407-.865-1.86-3.963-.991-5.376zm-11.734-7.215c.868-1.413 3.296-1.499 4.703-.633 1.396.858 1.832 2.704.963 4.117-.868 1.413-3.267 2.757-4.662 1.899-1.408-.865-1.873-3.971-1.004-5.383zm-11.722-7.208c.869-1.412 3.284-1.506 4.692-.64a2.997 2.997 0 0 1 .975 4.125c-.869 1.412-3.267 2.757-4.675 1.891-1.407-.865-1.86-3.963-.992-5.376zm-11.733-7.215c.868-1.412 3.296-1.498 4.703-.633a2.996 2.996 0 0 1 .975 4.125c-.868 1.413-3.267 2.757-4.674 1.892-1.408-.866-1.873-3.971-1.004-5.384zm-11.722-7.207c.869-1.413 3.296-1.499 4.692-.641a2.998 2.998 0 0 1 .975 4.125c-.869 1.413-3.267 2.757-4.675 1.892-1.395-.858-1.86-3.963-.992-5.376zm-11.721-7.208c.868-1.412 3.284-1.506 4.691-.64a2.996 2.996 0 0 1 .975 4.125c-.868 1.412-3.267 2.757-4.674 1.891-1.408-.865-1.861-3.963-.992-5.376zm-11.734-7.215c.868-1.413 3.296-1.499 4.703-.633 1.396.858 1.832 2.705.963 4.117-.868 1.413-3.267 2.758-4.662 1.899-1.408-.865-1.873-3.97-1.004-5.383zm-11.721-7.207c.868-1.413 3.284-1.507 4.691-.641a2.996 2.996 0 0 1 .975 4.125c-.868 1.413-3.267 2.757-4.675 1.892-1.407-.866-1.86-3.964-.991-5.376zm-11.734-7.215c.868-1.413 3.296-1.499 4.703-.634a2.998 2.998 0 0 1 .976 4.125c-.869 1.413-3.268 2.758-4.675 1.892-1.408-.866-1.873-3.971-1.004-5.383zm-11.722-7.208c.869-1.413 3.296-1.499 4.692-.64a2.998 2.998 0 0 1 .975 4.125c-.869 1.412-3.268 2.757-4.675 1.891-1.396-.858-1.861-3.963-.992-5.376zm112.201 54.07c.868-1.413 3.284-1.506 4.691-.641a2.997 2.997 0 0 1 .975 4.125c-.868 1.413-3.267 2.757-4.674 1.892-1.408-.866-1.861-3.963-.992-5.376zm-11.734-7.215c.869-1.413 3.296-1.499 4.703-.633 1.396.858 1.832 2.705.963 4.118-.868 1.412-3.267 2.757-4.662 1.899-1.408-.866-1.873-3.971-1.004-5.384zm-11.721-7.208c.868-1.413 3.284-1.506 4.691-.641a2.998 2.998 0 0 1 .975 4.126c-.868 1.412-3.267 2.757-4.674 1.891-1.408-.865-1.861-3.963-.992-5.376zm-11.734-7.215c.869-1.413 3.296-1.499 4.703-.633a2.997 2.997 0 0 1 .976 4.125c-.869 1.413-3.268 2.757-4.675 1.892-1.408-.866-1.873-3.971-1.004-5.384zm-11.722-7.207c.869-1.413 3.296-1.499 4.692-.641a2.998 2.998 0 0 1 .975 4.125c-.869 1.413-3.268 2.757-4.675 1.892-1.395-.858-1.861-3.964-.992-5.376zm-11.721-7.208c.869-1.412 3.284-1.506 4.691-.64a2.997 2.997 0 0 1 .976 4.125c-.869 1.412-3.268 2.757-4.675 1.891-1.408-.865-1.861-3.963-.992-5.376zm-11.734-7.215c.869-1.412 3.296-1.498 4.704-.633 1.395.858 1.831 2.705.963 4.118-.869 1.412-3.268 2.757-4.663 1.899-1.408-.866-1.873-3.971-1.004-5.384zm-23.455-14.423c.869-1.412 3.296-1.498 4.704-.633a2.998 2.998 0 0 1 .975 4.125c-.869 1.413-3.267 2.757-4.675 1.892-1.408-.866-1.873-3.971-1.004-5.384zm-11.722-7.207c.869-1.413 3.296-1.499 4.692-.641a2.998 2.998 0 0 1 .975 4.125c-.869 1.413-3.267 2.758-4.675 1.892-1.395-.858-1.86-3.963-.992-5.376zm112.2 54.071c.869-1.412 3.284-1.506 4.691-.64a2.997 2.997 0 0 1 .976 4.125c-.869 1.412-3.268 2.757-4.675 1.891-1.408-.865-1.861-3.963-.992-5.376zm-11.733-7.215c.868-1.413 3.296-1.499 4.703-.633 1.396.858 1.832 2.705.963 4.117-.868 1.413-3.267 2.757-4.662 1.899-1.408-.865-1.873-3.97-1.004-5.383zm-11.722-7.208c.869-1.412 3.284-1.506 4.691-.64a2.997 2.997 0 0 1 .976 4.125c-.869 1.413-3.268 2.757-4.675 1.891-1.408-.865-1.861-3.963-.992-5.376zm-11.734-7.215c.869-1.412 3.296-1.498 4.704-.633a2.998 2.998 0 0 1 .975 4.125c-.869 1.413-3.267 2.757-4.675 1.892-1.407-.866-1.873-3.971-1.004-5.384zm-11.721-7.207c.868-1.413 3.296-1.499 4.691-.641a2.997 2.997 0 0 1 .975 4.125c-.868 1.413-3.267 2.758-4.674 1.892-1.396-.858-1.861-3.963-.992-5.376zm-11.722-7.207c.869-1.413 3.284-1.507 4.692-.641a2.998 2.998 0 0 1 .975 4.125c-.869 1.413-3.267 2.757-4.675 1.892-1.408-.866-1.861-3.964-.992-5.376zm-35.189-21.638c.869-1.413 3.296-1.499 4.704-.633a2.997 2.997 0 0 1 .975 4.125c-.869 1.412-3.267 2.757-4.675 1.891-1.407-.865-1.872-3.971-1.004-5.383zm-11.721-7.208c.869-1.412 3.296-1.498 4.691-.64a2.997 2.997 0 0 1 .976 4.125c-.869 1.412-3.268 2.757-4.675 1.891-1.396-.858-1.861-3.963-.992-5.376zm100.467 46.855c.868-1.413 3.295-1.498 4.703-.632 1.395.858 1.832 2.704.963 4.116-.868 1.413-3.267 2.757-4.662 1.899-1.408-.865-1.873-3.97-1.004-5.383zm-11.722-7.208c.869-1.412 3.283-1.505 4.691-.639a2.997 2.997 0 0 1 .976 4.124c-.869 1.412-3.268 2.757-4.675 1.891-1.408-.865-1.861-3.963-.992-5.376zm-11.734-7.215c.869-1.412 3.296-1.497 4.703-.632a2.996 2.996 0 0 1 .976 4.124c-.869 1.413-3.267 2.757-4.675 1.892-1.407-.866-1.872-3.971-1.004-5.384zm-11.721-7.207c.869-1.413 3.295-1.497 4.691-.639a2.996 2.996 0 0 1 .976 4.123c-.869 1.413-3.268 2.757-4.675 1.892-1.396-.858-1.861-3.963-.992-5.376zm-35.177-21.63c.869-1.413 3.283-1.505 4.691-.64a2.996 2.996 0 0 1 .976 4.124c-.869 1.413-3.267 2.757-4.675 1.892-1.407-.866-1.86-3.964-.992-5.376zm-11.734-7.215c.869-1.413 3.296-1.498 4.703-.632a2.994 2.994 0 0 1 .976 4.123c-.868 1.413-3.267 2.758-4.675 1.892-1.407-.865-1.872-3.971-1.004-5.383zm-11.721-7.208c.869-1.412 3.295-1.497 4.691-.639a2.997 2.997 0 0 1 .976 4.124c-.869 1.412-3.267 2.757-4.675 1.891-1.395-.858-1.86-3.963-.992-5.376zm65.29 25.225c.869-1.413 3.296-1.498 4.691-.64a2.997 2.997 0 0 1 .976 4.124c-.869 1.413-3.267 2.757-4.675 1.892-1.395-.858-1.86-3.963-.992-5.376zm-23.455-14.423c.868-1.412 3.295-1.497 4.703-.631 1.395.858 1.832 2.703.963 4.116-.868 1.413-3.267 2.757-4.662 1.899-1.408-.866-1.873-3.971-1.004-5.384zm-11.722-7.207c.869-1.413 3.284-1.505 4.691-.639a2.994 2.994 0 0 1 .976 4.123c-.869 1.413-3.267 2.757-4.675 1.892-1.407-.866-1.86-3.963-.992-5.376zm-11.733-7.215c.868-1.413 3.295-1.497 4.703-.632a2.996 2.996 0 0 1 .975 4.124c-.868 1.413-3.267 2.757-4.674 1.891-1.408-.865-1.873-3.97-1.004-5.383zm77.024 32.44c.868-1.413 3.283-1.505 4.69-.64a2.996 2.996 0 0 1 .976 4.124c-.869 1.413-3.267 2.757-4.675 1.892-1.407-.866-1.86-3.964-.991-5.376zm-11.734-7.215c.868-1.413 3.295-1.498 4.703-.632a2.995 2.995 0 0 1 .975 4.123c-.868 1.413-3.267 2.758-4.674 1.892-1.408-.865-1.873-3.971-1.004-5.383zm-23.443-14.416c.868-1.412 3.283-1.505 4.69-.639a2.995 2.995 0 0 1 .976 4.124c-.868 1.412-3.267 2.757-4.674 1.891-1.408-.865-1.861-3.963-.992-5.376zm-11.734-7.215c.869-1.412 3.295-1.497 4.703-.632 1.395.858 1.832 2.704.963 4.117-.868 1.412-3.267 2.757-4.662 1.899-1.408-.866-1.873-3.971-1.004-5.384zm53.568 18.017c.869-1.412 3.283-1.504 4.691-.639a2.996 2.996 0 0 1 .976 4.124c-.869 1.413-3.267 2.757-4.675 1.891-1.407-.865-1.86-3.963-.992-5.376zm-23.455-14.422c.869-1.413 3.295-1.497 4.691-.639a2.996 2.996 0 0 1 .976 4.123c-.869 1.413-3.267 2.758-4.675 1.892-1.395-.858-1.861-3.963-.992-5.376zm-11.721-7.207c.869-1.413 3.283-1.505 4.691-.64a2.997 2.997 0 0 1 .976 4.124c-.869 1.413-3.268 2.757-4.675 1.892-1.408-.866-1.861-3.964-.992-5.376zm-50.57 29.673c.869-1.413 3.284-1.506 4.691-.64a2.996 2.996 0 0 1 .975 4.125c-.868 1.412-3.266 2.755-4.674 1.89-1.407-.866-1.861-3.962-.992-5.375zm18.379-3.619c.868-1.413 3.296-1.499 4.703-.633 1.396.858 1.832 2.705.963 4.117-.868 1.413-3.266 2.756-4.662 1.898-1.407-.865-1.873-3.969-1.004-5.382zm18.391-3.613c.869-1.412 3.284-1.506 4.692-.64a2.997 2.997 0 0 1 .975 4.125c-.869 1.412-3.266 2.756-4.674 1.89-1.408-.866-1.861-3.962-.993-5.375zm18.38-3.62c.869-1.413 3.296-1.499 4.692-.641a2.997 2.997 0 0 1 .975 4.125c-.869 1.413-3.267 2.756-4.674 1.89-1.396-.858-1.861-3.962-.993-5.374zm18.38-3.621c.868-1.413 3.296-1.499 4.703-.633a2.996 2.996 0 0 1 .975 4.125c-.868 1.412-3.266 2.756-4.674 1.89-1.407-.865-1.873-3.969-1.004-5.382z"/></g><path fill-rule="evenodd" clip-rule="evenodd" d="M370.734 861.519c-29.825-65.007 13.81-135.4 79.069-165.015 65.26-29.615 199.083-74.696 177.149 48.732-17.079 96.114-182.419 277.114-256.218 116.283z" fill="#FFB42D"/><mask id="d" maskUnits="userSpaceOnUse" x="561" y="689" width="148" height="152"><path fill-rule="evenodd" clip-rule="evenodd" d="M686.48 727.749c17.596 29.553 17.888 84.493-11.724 101.918-29.614 17.424-77.919-9.26-95.517-38.798-17.596-29.553-7.854-67.635 21.758-85.06 29.614-17.424 67.885-7.598 85.483 21.94z" fill="#fff"/></mask><g mask="url(#d)" fill-rule="evenodd" clip-rule="evenodd" fill="#fff"><path d="M559.36 774.88c1.644.217 2.712 2.398 2.496 4.036-.215 1.624-1.723 2.776-3.368 2.558-1.644-.217-3.848-1.859-3.633-3.483.216-1.638 2.861-3.329 4.505-3.111zm1.802-13.642c1.644.217 2.714 2.384 2.498 4.023a2.998 2.998 0 0 1-3.369 2.572c-1.644-.217-3.849-1.859-3.632-3.497.216-1.638 2.859-3.315 4.503-3.098zm1.804-13.656c1.644.217 2.712 2.399 2.496 4.037a2.997 2.997 0 0 1-3.369 2.572c-1.644-.217-3.848-1.859-3.632-3.497.217-1.638 2.861-3.329 4.505-3.112zm1.802-13.641c1.644.217 2.713 2.398 2.498 4.022a2.996 2.996 0 0 1-3.369 2.572c-1.644-.217-3.848-1.859-3.632-3.497.215-1.624 2.859-3.315 4.503-3.097zm1.803-13.642c1.644.217 2.714 2.385 2.497 4.023a2.997 2.997 0 0 1-3.369 2.572c-1.644-.217-3.848-1.859-3.631-3.497.216-1.638 2.859-3.315 4.503-3.098zm1.804-13.656c1.644.217 2.712 2.399 2.496 4.037-.215 1.624-1.723 2.775-3.367 2.558-1.645-.217-3.849-1.859-3.634-3.483.216-1.638 2.861-3.329 4.505-3.112zm1.802-13.641c1.644.217 2.714 2.384 2.498 4.022a2.998 2.998 0 0 1-3.369 2.573c-1.644-.218-3.848-1.86-3.632-3.498.216-1.638 2.859-3.315 4.503-3.097zm-5.428 138.137c1.644.218 2.714 2.385 2.498 4.023a2.998 2.998 0 0 1-3.369 2.572c-1.644-.217-3.849-1.859-3.632-3.497.216-1.638 2.859-3.315 4.503-3.098zm1.804-13.655c1.644.217 2.712 2.398 2.496 4.036-.216 1.638-1.723 2.776-3.367 2.558-1.644-.217-3.85-1.844-3.634-3.483.217-1.638 2.861-3.329 4.505-3.111zm1.802-13.642c1.644.217 2.713 2.399 2.498 4.023a2.997 2.997 0 0 1-3.369 2.572c-1.644-.217-3.848-1.859-3.632-3.497.215-1.624 2.859-3.315 4.503-3.098zm1.803-13.642c1.644.218 2.714 2.385 2.497 4.023a2.997 2.997 0 0 1-3.369 2.572c-1.644-.217-3.848-1.859-3.632-3.497.217-1.638 2.859-3.315 4.504-3.098zm5.41-40.953c1.644.217 2.712 2.399 2.496 4.037a2.997 2.997 0 0 1-3.369 2.572c-1.644-.217-3.848-1.859-3.632-3.497.217-1.638 2.861-3.329 4.505-3.112zm5.408-40.939c1.644.217 2.713 2.398 2.496 4.037-.214 1.624-1.723 2.775-3.367 2.558-1.644-.218-3.848-1.859-3.634-3.483.217-1.638 2.861-3.329 4.505-3.112zm1.803-13.642c1.644.217 2.714 2.385 2.497 4.023a2.997 2.997 0 0 1-3.369 2.572c-1.644-.217-3.848-1.859-3.631-3.497.216-1.638 2.859-3.315 4.503-3.098zm-5.429 138.138c1.645.218 2.715 2.385 2.498 4.023a2.997 2.997 0 0 1-3.369 2.572c-1.644-.217-3.848-1.859-3.632-3.497.217-1.638 2.859-3.315 4.503-3.098zm1.805-13.655c1.644.217 2.712 2.398 2.496 4.036-.217 1.638-1.724 2.776-3.368 2.558-1.644-.217-3.85-1.844-3.633-3.483.216-1.638 2.861-3.329 4.505-3.111zm1.802-13.642c1.644.217 2.712 2.399 2.498 4.023a2.998 2.998 0 0 1-3.369 2.572c-1.644-.217-3.849-1.859-3.632-3.497.214-1.624 2.859-3.315 4.503-3.098zm3.606-27.298c1.644.217 2.713 2.399 2.496 4.037-.214 1.624-1.723 2.775-3.367 2.558-1.644-.217-3.848-1.859-3.634-3.483.217-1.638 2.861-3.329 4.505-3.112zm1.803-13.641c1.644.217 2.714 2.384 2.497 4.022a2.996 2.996 0 0 1-3.369 2.572c-1.644-.217-3.848-1.859-3.632-3.497.217-1.638 2.859-3.315 4.504-3.097zm1.804-13.656c1.644.217 2.712 2.398 2.496 4.037a2.998 2.998 0 0 1-3.369 2.572c-1.645-.217-3.849-1.859-3.632-3.497.216-1.638 2.861-3.329 4.505-3.112zm7.211-54.581c1.644.217 2.714 2.385 2.497 4.023a2.996 2.996 0 0 1-3.369 2.572c-1.644-.217-3.848-1.859-3.631-3.497.216-1.638 2.859-3.315 4.503-3.098zm1.804-13.656c1.644.218 2.712 2.399 2.496 4.037a2.997 2.997 0 0 1-3.369 2.572c-1.644-.217-3.849-1.859-3.632-3.497.216-1.638 2.861-3.329 4.505-3.112zm-7.233 151.794c1.645.217 2.715 2.384 2.498 4.023a2.997 2.997 0 0 1-3.369 2.572c-1.644-.217-3.848-1.859-3.632-3.497.217-1.638 2.859-3.315 4.503-3.098zm1.805-13.656c1.644.217 2.712 2.399 2.496 4.037-.217 1.638-1.724 2.775-3.368 2.558-1.644-.217-3.85-1.845-3.633-3.483.216-1.638 2.861-3.329 4.505-3.112zm3.604-27.283c1.644.217 2.714 2.384 2.498 4.023a2.997 2.997 0 0 1-3.369 2.572c-1.644-.217-3.848-1.859-3.632-3.497.217-1.638 2.859-3.315 4.503-3.098zm1.804-13.656c1.644.217 2.712 2.399 2.496 4.037-.215 1.624-1.723 2.775-3.367 2.558-1.644-.217-3.849-1.859-3.634-3.483.216-1.638 2.861-3.329 4.505-3.112zm1.802-13.641c1.644.217 2.714 2.384 2.498 4.022a2.997 2.997 0 0 1-3.369 2.572c-1.644-.217-3.848-1.859-3.632-3.497.216-1.638 2.859-3.315 4.503-3.097zm1.804-13.656c1.644.217 2.713 2.398 2.496 4.037a2.997 2.997 0 0 1-3.369 2.572c-1.644-.217-3.848-1.859-3.632-3.497.217-1.638 2.861-3.329 4.505-3.112zm1.803-13.642c1.644.217 2.712 2.399 2.497 4.023a2.997 2.997 0 0 1-3.369 2.572c-1.644-.217-3.848-1.859-3.631-3.497.214-1.624 2.858-3.315 4.503-3.098zm1.802-13.641c1.644.217 2.714 2.384 2.498 4.022a2.998 2.998 0 0 1-3.369 2.573c-1.645-.218-3.849-1.86-3.632-3.498.216-1.638 2.859-3.315 4.503-3.097zm-1.822 110.84c1.644.217 2.714 2.384 2.498 4.023a2.998 2.998 0 0 1-3.369 2.572c-1.644-.217-3.848-1.859-3.632-3.497.216-1.638 2.859-3.315 4.503-3.098zm1.804-13.656c1.644.217 2.713 2.399 2.496 4.037-.216 1.638-1.723 2.775-3.367 2.558-1.644-.217-3.85-1.845-3.634-3.483.217-1.638 2.861-3.329 4.505-3.112zm-13.869-85.139c1.644.217 2.712 2.398 2.497 4.022a2.996 2.996 0 0 1-3.369 2.572c-1.644-.217-3.848-1.859-3.631-3.497.214-1.624 2.859-3.315 4.503-3.097zm1.802-13.642c1.644.217 2.714 2.384 2.498 4.023a2.998 2.998 0 0 1-3.369 2.572c-1.644-.217-3.849-1.859-3.632-3.497.216-1.638 2.859-3.315 4.503-3.098z"/></g><path fill-rule="evenodd" clip-rule="evenodd" d="M347.299 774.45c-8.16-18.053 3.852-37.636 21.784-45.896 17.932-8.26 54.695-20.849 48.617 13.464-4.732 26.719-50.211 77.097-70.401 32.432z" fill="#6B6B6B"/><path d="M473.186 282.674a27.187 27.187 0 0 1 1.809 19.389c-4.047 14.517-19.095 23.004-33.612 18.958a27.21 27.21 0 0 1-16.441-12.88c-3.43-6.082-4.541-13.475-2.517-20.732a27.193 27.193 0 0 1 11.578-15.658l39.183 10.923zm-28.656 23.208l2.654 4.706 5.503-9.68-5.107-.138-3.05 5.112zm-1.286-2.28l9.374-15.708-18.292-.103 8.918 15.811zm-4.12-28.063a24.855 24.855 0 0 0 3.789 3.738 24.86 24.86 0 0 0 8.849 4.506 24.8 24.8 0 0 0 10.605.622 24.976 24.976 0 0 0 4.478-1.139l-27.721-7.727zm-10.435 4.189a24.93 24.93 0 0 0-4.074 8.291 24.875 24.875 0 0 0-.722 9.905 24.963 24.963 0 0 0 3.03 9.1 24.955 24.955 0 0 0 6.22 7.3 24.848 24.848 0 0 0 8.85 4.506 24.919 24.919 0 0 0 19.005-2.307 24.918 24.918 0 0 0 7.3-6.221 24.854 24.854 0 0 0 4.507-8.851 24.904 24.904 0 0 0-1.235-16.868l-1.201-.335a27.187 27.187 0 0 1-14.484 2.609l-6.968 11.676 7.62.204-9.36 16.468-3.99-7.074-5.585-9.903-7.182-12.732 19.521.109a27.176 27.176 0 0 1-14.34-11.048l-1.204-.336a24.89 24.89 0 0 0-5.708 5.507z" fill="url(#e)" style="mix-blend-mode:multiply"/><path d="M341.271 118.566l-7.039 19.262-.641 1.755-7.039 19.261-35.241-12.878 7.039-19.262.641-1.755 7.04-19.261 35.24 12.878zM293.607 144.9l31.879 11.65 6.425-17.581-31.879-11.65-6.425 17.581zm38.945-7.686l6.425-17.581-31.879-11.651-6.425 17.581 31.879 11.651z" fill="#fff"/><path d="M326.012 123.334l2.794-2.255 1.685 8.768-3.597-1.314-5.036-1.84-6.469-2.365 9.434-7.969 1.189 6.975zm2.127 3.749l-.523-2.747-1.264 1.021.199 1.146 1.588.58zm-3.522-1.287l-1.031-6.053-4.692 3.962 5.723 2.091zm-9.005.512l13.428 4.908c.46.168.7.685.53 1.149a.896.896 0 0 1-1.144.531l-13.428-4.907a.894.894 0 1 1 .614-1.681zm6.374 24.209c.46.168.702.68.533 1.144a.893.893 0 0 1-1.145.531.894.894 0 0 1-.537-1.145.895.895 0 0 1 1.149-.53zm-3.355-1.225a.892.892 0 0 1-.612 1.675.894.894 0 0 1-.537-1.146.894.894 0 0 1 1.149-.529zm-3.361-1.23c.465.17.707.682.537 1.146a.893.893 0 0 1-1.149.529.892.892 0 0 1 .612-1.675zm-3.355-1.225c.465.17.707.682.537 1.146a.893.893 0 0 1-1.679-.613.893.893 0 0 1 1.142-.533zm-3.356-1.227a.89.89 0 0 1 .532 1.144.889.889 0 0 1-1.144.531.887.887 0 0 1-.53-1.143.888.888 0 0 1 1.142-.532zm6.248.379l-6.469-2.364 9.431-7.965 1.189 6.976 2.797-2.261 1.684 8.769-3.596-1.315-5.036-1.84zm-2.966-2.983l5.723 2.092-1.032-6.053-4.691 3.961zm9.244 3.379l-.523-2.746-1.261 1.015.196 1.151 1.588.58zm-14.535-30.949a.897.897 0 0 1 1.188.434l1.879 4.055 1.621-.754a.896.896 0 0 1 1.187.434.896.896 0 0 1-.433 1.188l-2.428 1.128a.895.895 0 0 1-1.187-.434l-2.261-4.863a.897.897 0 0 1 .434-1.188zm-3.986 25.643a.892.892 0 0 1-1.188-.434l-.005-.002-.748-1.62-1.622.754a.895.895 0 0 1-.753-1.621l1.619-.748-.753-1.622a.893.893 0 0 1 1.621-.753l.754 1.621 1.616-.754.005.001a.894.894 0 0 1 .753 1.621l-1.621.754.755 1.615a.896.896 0 0 1-.433 1.188z" fill="#fff"/><path d="M158.166 253.409l1.83-2.275.61-.758.61-.758c2.071 1.667 5.125 1.321 6.806-.769 1.682-2.091 1.365-5.146-.706-6.813l.61-.758.61-.758 1.83-2.274 14.549-5.78 5.822 9.681-5.162 3.34 17.277 13.9-17.08 21.228-17.277-13.9-2.157 5.758-10.702-3.616 2.53-15.448zm7.026 16.623l1.492-3.984.947-2.527 2.085 1.677 15.774 12.691 14.639-18.195-15.774-12.691-2.084-1.677 2.265-1.466 3.573-2.311-4.016-6.677-12.549 4.985-1.683 2.092a6.805 6.805 0 0 1-.336 8.108 6.804 6.804 0 0 1-7.849 2.065l-1.683 2.092-2.183 13.326 7.382 2.492z" fill="url(#f)" style="mix-blend-mode:multiply"/><path d="M181.329 257.572l-1.181-3.248 8.511 1.138-2.324 2.888-3.253 4.044-4.183 5.199-4.292-11.068 6.722 1.047zm3.673-.64l-1.934-.259.451 1.24.617.095.866-1.076zm-2.271 2.823l-5.097-.794 1.866 4.81 3.231-4.016z" fill="url(#g)" style="mix-blend-mode:multiply"/><g clip-path="url(#h)"><path d="M413.513 199.235l18.962 4.915 4.245-14.224c.846-2.835 3.853-4.532 6.717-3.789a5.148 5.148 0 0 1 3.218 2.454 5.15 5.15 0 0 1 .436 4.024l-4.246 14.224 18.962 4.916-3.064 10.266-18.961-4.915-4.88 16.35-6.718 3.789-3.653-6.477 4.88-16.351-18.962-4.916 3.064-10.266zm20.69 5.364l2.586.67 3.223-10.803-2.585-.67-3.224 10.803zm11.16-12.433a3.424 3.424 0 0 0-.291-2.682 3.427 3.427 0 0 0-2.145-1.637c-1.906-.493-3.915.64-4.479 2.526l-.51 1.712 6.914 1.793.511-1.712zm-1.022 3.422l-2.6-.674-3.224 10.803 2.6.675 3.224-10.804zm15.227 17.43l-3.406-.883-.51 1.712a.935.935 0 0 1-1.12.631.856.856 0 0 1-.609-1.08l.001-.002.51-1.709-3.457-.896-.511 1.711a.932.932 0 0 1-1.119.631.854.854 0 0 1-.609-1.079h.001l.509-1.712-3.457-.896-.51 1.71v.002a.934.934 0 0 1-1.119.631.854.854 0 0 1-.609-1.08h-.001l.511-1.71-3.456-.897-.511 1.71a.933.933 0 0 1-1.12.632.854.854 0 0 1-.609-1.079l.511-1.711-3.457-.896-.511 1.711a.931.931 0 0 1-1.119.631.854.854 0 0 1-.609-1.079v-.001l.51-1.711-3.457-.896-.509 1.712h-.001a.934.934 0 0 1-1.12.631.855.855 0 0 1-.609-1.08l.511-1.71-3.457-.897-.51 1.711a.933.933 0 0 1-1.12.631.854.854 0 0 1-.609-1.079h.001l.51-1.711-3.457-.896-.511 1.709v.002a.931.931 0 0 1-1.119.631.854.854 0 0 1-.609-1.079l.51-1.712-3.405-.882-2.042 6.844 44.837 11.624 2.042-6.844zm-30.661 21.808l1.311-.74-2.025-.526.714 1.266zm-2.436-4.319l.505.895 5.482 1.421.927-.523 4.668-15.643-2.6-.674-3.604 12.073a.932.932 0 0 1-1.119.632.854.854 0 0 1-.609-1.079l3.603-12.074-2.585-.671-4.668 15.643z" fill="url(#i)" style="mix-blend-mode:multiply"/></g><path d="M232.849 324.697l-2.754 10.529a.908.908 0 0 1-1.756-.459l2.754-10.529a.908.908 0 0 1 1.756.459z" fill="url(#j)" style="mix-blend-mode:multiply"/><path d="M231.851 335.685l.918-3.509a.907.907 0 1 1 1.753.458l-.918 3.509a.906.906 0 1 1-1.753-.458z" fill="url(#k)" style="mix-blend-mode:multiply"/><path d="M239.084 310.005l2.269 2.318-7.735 2.262.874-3.343 1.224-4.678 1.574-6.017 7.961 7.797-6.167 1.661zm-2.9 1.941l1.758-.515-.865-.884-.567.152-.326 1.247zm.855-3.267l4.674-1.26-3.458-3.389-1.216 4.649z" fill="url(#l)" style="mix-blend-mode:multiply"/><path d="M260.793 303.884l-10.558 40.36a.907.907 0 0 1-1.107.648l-24.567-6.426a.908.908 0 0 1-.647-1.108l10.557-40.359a.907.907 0 0 1 1.106-.647l24.568 6.426a.908.908 0 0 1 .648 1.106zm-2.436 2.141l-14.776 14.591c-.118.116-.206.454-.161.613l5.738 19.963 9.199-35.167zm-32.458 30.916l21.788 5.699-6.01-20.91c-.114-.397-.103-.852.01-1.282.112-.43.326-.834.619-1.123l15.484-15.288-21.793-5.701-10.098 38.605z" fill="url(#m)" style="mix-blend-mode:multiply"/><path d="M505.422 326.276c9.539-5.381 21.612-2.047 26.967 7.448a19.573 19.573 0 0 1 2.537 9.898 19.569 19.569 0 0 1 7.158 7.29c5.355 9.495 1.963 21.552-7.576 26.932a19.837 19.837 0 0 1-19.949-.24c-9.135 3.806-19.86.298-24.82-8.496-4.96-8.794-2.414-19.787 5.568-25.636a19.835 19.835 0 0 1 10.115-17.196zm6.69 49.597a19.587 19.587 0 0 1-4.571-5.477 19.573 19.573 0 0 1-2.537-9.898 19.564 19.564 0 0 1-7.158-7.291 19.604 19.604 0 0 1-2.323-6.745 17.305 17.305 0 0 0-2.211 2.362 17.292 17.292 0 0 0-2.986 5.934 17.233 17.233 0 0 0-.544 6.609c.258 2.298.97 4.492 2.116 6.524a17.079 17.079 0 0 0 4.488 5.185 17.213 17.213 0 0 0 5.937 2.953 17.29 17.29 0 0 0 9.789-.156zm-14.288-31.13a17.08 17.08 0 0 0 2.18 7.247 17.075 17.075 0 0 0 5.234 5.725 19.822 19.822 0 0 1 9.342-13.934 17.288 17.288 0 0 0-2.881-1.078 17.326 17.326 0 0 0-13.875 2.04zm19.227.486a17.297 17.297 0 0 0-5.938 4.883 17.397 17.397 0 0 0-3.553 8.945c.917.439 1.875.797 2.87 1.072a17.325 17.325 0 0 0 13.873-2.042 17.091 17.091 0 0 0-2.179-7.245 17.082 17.082 0 0 0-5.073-5.613zm7.232 4.396a19.61 19.61 0 0 1 2.321 6.743 17.307 17.307 0 0 0 5.765-11.305 17.282 17.282 0 0 0-2.869-1.072 17.308 17.308 0 0 0-9.788.158 19.6 19.6 0 0 1 4.571 5.476zm-.018 11.326a19.828 19.828 0 0 1-16.759.787 17.063 17.063 0 0 0 2.193 7.44 17.072 17.072 0 0 0 5.074 5.615c.242-.123.482-.252.721-.386a17.325 17.325 0 0 0 8.202-10.433c.281-.996.47-2.007.569-3.023zm10.427-14.547a19.82 19.82 0 0 1-7.872 12.954 19.842 19.842 0 0 1-9.576 16.883 17.28 17.28 0 0 0 2.881 1.076c2.168.6 4.397.773 6.623.515a17.295 17.295 0 0 0 6.548-2.136 17.298 17.298 0 0 0 5.215-4.499 17.252 17.252 0 0 0 2.986-5.935c.61-2.165.793-4.388.544-6.608a17.08 17.08 0 0 0-2.115-6.524 17.079 17.079 0 0 0-5.234-5.726zm-21.51-20.116a17.3 17.3 0 0 0-6.549 2.136 17.296 17.296 0 0 0-5.215 4.499 17.27 17.27 0 0 0-2.986 5.935c-.281.996-.47 2.005-.569 3.022a19.838 19.838 0 0 1 19.402.538 19.82 19.82 0 0 1 15.158-.036 17.075 17.075 0 0 0-2.192-7.441 17.097 17.097 0 0 0-4.489-5.185 17.204 17.204 0 0 0-5.937-2.953 17.267 17.267 0 0 0-6.623-.515z" fill="url(#n)" style="mix-blend-mode:multiply"/><path d="M488.899 269.321l-12.48-6.1-5.348-2.614-12.481-6.101 19.134-43.661 33.874 16.558-22.699 41.918zm-.838-2.618l1.891-3.494-10.918-5.337-1.743 3.566 10.77 5.265zm-12.554-6.137l3.486-7.131-1.783-.871-3.485 7.131 1.782.871zm-3.565-1.743l1.743-3.565-10.919-5.338-1.594 3.639 10.77 5.264zm6.768-45.286l-15.147 34.564 10.994 5.374 1.743-3.566a.992.992 0 1 1 1.782.872.992.992 0 1 1 1.782.871.993.993 0 0 1 1.784.872l-1.743 3.565 10.993 5.374 17.97-33.184-30.158-14.742z" fill="#fff"/><path d="M485.375 244.037l-.62-9.588-4.091 2.656-1.039-12.079 4.669 2.283 6.537 3.195 8.406 4.109-13.862 9.424zm-3.472-15.687l.455 5.29 2.251-1.461-.168-2.588-2.538-1.241zm4.592 2.245l.637 9.848 8.16-5.548-8.797-4.3z" fill="#fff"/><g clip-path="url(#o)"><path d="M173.943 144.236a6.346 6.346 0 0 1 9.187 3.672l5.73 1.597 4.335-15.548a5.062 5.062 0 1 1 9.753 2.718l-4.334 15.55 17.709 4.936c.897.25 1.609.841 2.033 1.592a3.377 3.377 0 0 1-3.846 4.91l-17.709-4.937-4.669 16.751-6.236 3.517-3.517-6.236 4.669-16.751-5.679-1.583a6.34 6.34 0 0 1-1.19.867c-6.26 3.531-11.963-5.42-13.684-8.473-1.722-3.053 4.396-.86 7.448-2.582zm27.068-10.579a3.352 3.352 0 0 0-2.034-1.592 3.38 3.38 0 0 0-4.157 2.345l-.453 1.625 6.502 1.813.453-1.626a3.356 3.356 0 0 0-.311-2.565zm13.953 28.38a1.69 1.69 0 0 0 2.079-1.172c.12-.434.065-.89-.157-1.283a1.676 1.676 0 0 0-1.016-.796l-17.709-4.936-.907 3.25 17.71 4.937zm-28.428 14.657l1.218-.686-1.904-.53.686 1.216zm-2.344-4.156l.485.86 5.156 1.437.86-.485 9.723-34.877-2.446-.682-8.776 31.487a.843.843 0 1 1-1.626-.453l8.777-31.487-2.431-.678-9.722 34.878zm3.309-18.156l.906-3.25-4.999-1.395a6.377 6.377 0 0 1-.884 3.258l4.977 1.387zm-14.738-2.114c1.152 1.036 2.268 1.704 3.319 1.989 1.134.307 2.203.164 3.267-.436a4.627 4.627 0 0 0 2.199-2.806 4.627 4.627 0 0 0-.43-3.54 4.663 4.663 0 0 0-6.346-1.769c-1.673.944-3.808.973-5.523.995-.256.004-.565.007-.86.018.934 1.559 2.48 3.847 4.374 5.549z" fill="url(#p)" style="mix-blend-mode:multiply"/></g><g clip-path="url(#q)"><path d="M302.178 262.593l-55.075-54.608 11.726-11.828 55.077 54.61-11.728 11.826zm-51.151-54.625l3.885 3.851 1.954-1.973a1.392 1.392 0 0 1 1.964-.008c.543.541.547 1.419.008 1.964h-.002l-1.954 1.97 3.943 3.909 1.954-1.97a1.388 1.388 0 1 1 1.972 1.954l-1.956 1.971 3.943 3.909 1.955-1.97v-.001a1.387 1.387 0 1 1 1.971 1.954v.002l-1.954 1.97 3.943 3.909 1.953-1.972a1.39 1.39 0 0 1 1.964-.008 1.39 1.39 0 0 1 .009 1.963l-1.956 1.971 3.942 3.909 1.954-1.971a1.388 1.388 0 0 1 1.972 1.955l-1.955 1.971 3.942 3.908 1.956-1.971a1.387 1.387 0 1 1 1.97 1.954v.002l-1.953 1.97 3.942 3.909 1.954-1.971a1.39 1.39 0 0 1 1.964-.009 1.39 1.39 0 0 1 .008 1.963h-.002l-1.954 1.971 3.943 3.91 1.953-1.97v-.002a1.39 1.39 0 0 1 1.964-.008c.546.54.549 1.419.009 1.963l-1.954 1.971 3.884 3.851 7.818-7.884-51.135-50.701-7.818 7.885z" fill="url(#r)" style="mix-blend-mode:multiply"/></g><path d="M379.733 119.469l34.373 5.741c.411.069.69.459.621.871l-3.993 23.911a.757.757 0 0 1-.871.622l-12.401-2.071.145 4.633.299.05a.757.757 0 0 1-.25 1.494l-11.956-1.997a.758.758 0 0 1 .249-1.494l.3.05 1.644-4.334-12.403-2.072a.757.757 0 0 1-.622-.871l3.994-23.911a.758.758 0 0 1 .871-.622zm16.349 33.452l-.145-4.626-6.521-1.091-1.643 4.329 8.309 1.388zm-15.85-31.832l-3.245 19.426 32.876 5.491 3.244-19.427-32.875-5.49zm12.694 25.161l16.437 2.745.25-1.494-16.438-2.746-16.437-2.745-.25 1.494 16.438 2.746z" fill="url(#s)" style="mix-blend-mode:multiply"/><path d="M392.304 145.378a.756.756 0 1 1 1.493.249.758.758 0 1 1-1.493-.249z" fill="url(#t)" style="mix-blend-mode:multiply"/><path d="M410.366 129.192l-22.414-3.743-.002-.001a.757.757 0 1 1 .25-1.494l22.416 3.744a.758.758 0 1 1-.25 1.494z" fill="url(#u)" style="mix-blend-mode:multiply"/><path d="M409.866 132.181l-11.953-1.996h-.001a.757.757 0 1 1 .249-1.494l11.955 1.996c.413.07.692.46.623.873a.756.756 0 0 1-.873.621z" fill="url(#v)" style="mix-blend-mode:multiply"/><path d="M409.368 135.172l-16.437-2.745h-.001a.757.757 0 0 1 .25-1.495l16.438 2.746a.758.758 0 1 1-.25 1.494z" fill="url(#w)" style="mix-blend-mode:multiply"/><path d="M408.868 138.16l-10.459-1.747a.758.758 0 1 1 .25-1.494l10.459 1.746a.758.758 0 1 1-.25 1.495z" fill="url(#x)" style="mix-blend-mode:multiply"/><path d="M408.369 141.148l-19.426-3.244a.758.758 0 0 1 .25-1.494l19.425 3.244a.758.758 0 1 1-.249 1.494z" fill="url(#y)" style="mix-blend-mode:multiply"/><path d="M407.869 144.138l-5.976-.999a.758.758 0 1 1 .25-1.494l5.976.998a.758.758 0 1 1-.25 1.495z" fill="url(#z)" style="mix-blend-mode:multiply"/><path d="M397.746 232.757l-9.745 46.168a1.027 1.027 0 0 1-1.216.792l-32.117-6.779a1.026 1.026 0 0 1-.791-1.216l3.516-16.657-6.275-.07-.085.402a1.027 1.027 0 0 1-2.008-.424l3.39-16.059a1.025 1.025 0 0 1 2.008.424l-.085.401 5.767 2.475 3.517-16.66a1.025 1.025 0 0 1 1.215-.791l32.117 6.78c.554.117.909.66.792 1.214zm-46.196 20.192l6.267.069 1.851-8.76-5.762-2.472-2.357 11.163h.001zm33.94-21.73l-1.271 6.022 10.036 2.118 1.271-6.022-10.036-2.118zm-3.279 5.598l1.272-6.022-14.051-2.966-1.271 6.022 14.05 2.966zm11.621 4.549l-26.095-5.508-7.626 36.131 26.094 5.508 7.627-36.131zm-33.076 7.697l-4.66 22.079 2.007.423 4.661-22.079 4.66-22.08-2.007-.424-4.661 22.081z" fill="url(#A)" style="mix-blend-mode:multiply"/><path d="M361.972 248.272a1.025 1.025 0 1 1-.423 2.007 1.026 1.026 0 1 1 .423-2.007z" fill="url(#B)" style="mix-blend-mode:multiply"/><path d="M372.215 254.476l1.452-6.881 9.415 8.377-6.877 2.211 2.688 2.496-8.615 2.974.807-3.824 1.13-5.353zm6.821.642l-4.091-3.64-1.123 5.316 5.214-1.676zm-6.002 5.413l1.957-.676-1.025-.952-.632.203-.3 1.425z" fill="url(#C)" style="mix-blend-mode:multiply"/><path d="M383.887 268.622l-.424 2.007-2.007-.424.423-2.007 2.008.424z" fill="url(#D)" style="mix-blend-mode:multiply"/><path d="M386.217 257.584l-.424 2.006-2.007-.423.424-2.007 2.007.424z" fill="url(#E)" style="mix-blend-mode:multiply"/><path d="M388.547 246.544l-.424 2.008-2.007-.424.423-2.008 2.008.424z" fill="url(#F)" style="mix-blend-mode:multiply"/><path d="M380.517 244.848l-.424 2.008-2.007-.423.424-2.008 2.007.423z" fill="url(#G)" style="mix-blend-mode:multiply"/><path d="M372.488 243.151l-.424 2.009-2.007-.424.424-2.008 2.007.423z" fill="url(#H)" style="mix-blend-mode:multiply"/><path d="M367.827 265.231l-.424 2.006-2.007-.423.423-2.007 2.008.424z" fill="url(#I)" style="mix-blend-mode:multiply"/><path d="M375.857 266.926l-.424 2.007-2.007-.423.424-2.007 2.007.423z" fill="url(#J)" style="mix-blend-mode:multiply"/><path d="M370.157 254.192l-.424 2.007-2.007-.424.423-2.007 2.008.424z" fill="url(#K)" style="mix-blend-mode:multiply"/><circle r="19.15" transform="scale(-1 1) rotate(-60.576 -45.325 255.912)" stroke="url(#L)" stroke-width="10" style="mix-blend-mode:multiply"/><path d="M84.007 327.843l5.31-2.995 4.552 8.071 9.357-5.278 3.142 5.573-9.356 5.277 4.552 8.07-5.31 2.995-4.552-8.07-9.76 5.505-3.144-5.572 9.761-5.505-4.552-8.071z" fill="#fff"/><path d="M311.369 48.994c.039.925-2.141 8.916 7.534 5.73 9.676-3.185 12.882 1.314 15.265 10.143 2.382 8.829 8.276 9.424 12.871 9.063" stroke="url(#M)" stroke-width="8" stroke-linecap="round" stroke-linejoin="round" style="mix-blend-mode:multiply"/><ellipse opacity=".2" rx="146.371" ry="21.714" transform="matrix(-1 0 0 1 348.37 766.266)" fill="#6B6B6B"/><path d="M323.28 364.639c-1.488-11.926 9.946-23.171 25.539-25.116 15.593-1.946 29.439 6.145 30.927 18.072 1.488 11.926-9.946 23.171-25.539 25.116-15.593 1.946-29.439-6.145-30.927-18.072z" fill="#2F2F2F"/><path d="M335.028 537.129l-35.161 15.862 20.935 88.224 37.808-12.204-23.582-91.882z" fill="#FFCA99"/><path d="M253.311 541.614l46.557 11.377 20.935 88.224-47.163-9.355-20.329-90.246z" fill="#FFD1A7"/><path d="M332.18 772.026c119.562 0 172.901-18.894 172.901-130.811 0-82.93-10.054-144.614-30.75-188.579-24.942-52.989-66.279-79.861-122.816-79.861-31.485 0-47.292 21.266-58.834 36.815-4.669 6.286-8.712 11.727-12.554 13.767-8.583 4.558-13.491 15.182-13.491 29.187 0 25.971 13.749 38.488 27.037 50.601 19.207 17.497 37.367 34.021 19.354 88.389-.974 2.923-1.948 5.937-2.94 9.006-11.304 34.922-24.097 74.531-55.343 74.531-20.015 0-24.463-9.41-28.397-17.736-2.665-5.625-5.165-10.936-12.461-10.936-17.609 0-28.967 13.049-28.967 33.249 0 32.864 10.237 54.975 32.201 69.605 23.343 15.531 59.919 22.773 115.06 22.773z" fill="#fff"/><path d="M351.516 373.693c-44.315 0-57.548 43.359-70.966 50.472-7.866 4.172-13.013 14.153-13.013 28.379 0 61.591 77.454 45.362 46.355 139.284-11.819 35.712-24.391 84.162-59.147 84.162-34.757 0-24.391-28.654-40.859-28.654-16.469 0-28.048 12.204-28.048 32.33 0 61.592 35.988 91.478 146.36 91.478 114.03-.037 171.964-15.274 171.964-129.929 0-145.147-30.897-267.522-152.646-267.522zm0-1.838c29.61 0 55.269 7.297 76.259 21.707 19.372 13.307 35.326 33.048 47.383 58.669C495.909 496.325 506 558.137 506 641.215c0 28.71-3.584 51.391-10.973 69.366-7.186 17.48-18.012 30.603-33.102 40.142-29.243 18.454-73.006 22.24-129.727 22.24-55.342 0-92.065-7.297-115.592-22.956C194.366 735.192 184 712.842 184 679.648c0-20.439 12.021-34.169 29.886-34.169 7.885 0 10.624 5.827 13.289 11.451 3.823 8.069 8.142 17.204 27.57 17.204 30.584 0 43.266-39.26 54.478-73.888.993-3.07 1.967-6.084 2.941-9.006 17.81-53.799-.11-70.12-19.097-87.416-13.436-12.241-27.331-24.905-27.331-51.28 0-14.355 5.091-25.291 13.987-29.996 3.658-1.93 7.646-7.297 12.241-13.51 11.635-15.696 27.607-37.183 59.552-37.183z" fill="#6B6B6B"/><path d="M297.717 424.165c-5.44.037-10.752-.275-15.568-1.029 8.528-6.249 17.498-25.787 34.867-38.359 10.422 4.834 17.406 13.987 17.443 22.534.073 12.37-18.16 16.726-36.742 16.854z" fill="#2F2F2F"/><path opacity=".2" d="M213.868 647.318c16.468 0 6.102 28.654 40.859 28.654 34.756 0 47.328-48.449 59.147-84.162 17.13-51.721 1.341-70.028-16.322-86.331 37.459 31.65 99.638 12.535 94.382 55.232-4.044 32.698-63.43 81.019-66.481 148.456-2.022 44.81-79.439-11.231-131.16-53.891 4.944-5.128 11.69-7.958 19.575-7.958z" fill="#6B6B6B"/><path d="M398.053 597.306c0-46.355-38.359-52.457-55.618-42.697-58.265 32.937-101.715 22.57-101.715-7.922 0-16.763 5.165-21.578 1.526-23.563-3.64-1.985-14.888-3.879-19.005 13.73-1.195 5.109-3.584 6.102-7.941 3.97-4.374-2.132-13.95-5.312-13.601 21.118.349 26.431 41.668 90.669 122.191 90.669 52.971-.018 74.163-28.875 74.163-55.305zm30.994-188.503c-13.21-11.152-17.006-28.379-8.48-38.478s26.146-9.245 39.355 1.907c13.209 11.152 17.006 28.379 8.48 38.478s-26.146 9.245-39.355-1.907zm-112.64 41.768c-5.197-2.354-7.951-7.485-6.15-11.461 1.8-3.977 7.473-5.293 12.67-2.939 5.197 2.353 7.951 7.484 6.15 11.461-1.8 3.976-7.473 5.292-12.67 2.939zm48.398-28.391c-12.076 6.966-7.242 24.886 1.857 40.656 9.098 15.77 21.265 28.195 33.323 21.229 12.075-6.966 15.696-32.68 6.58-48.468-9.117-15.788-29.703-20.383-41.76-13.417z" fill="#2F2F2F"/><path d="M319.682 443.373c-6.947 17.111-16.266 31.687 7.481 42.678 8.639 4.007 17.902 5.183 23.379 0 5.478-5.183 2.059-15.935-7.591-14.263" stroke="#2F2F2F" stroke-width="2" stroke-miterlimit="10" stroke-linecap="round" stroke-linejoin="round"/><path d="M311.888 466.439c-7.131 9.834-29.334 1.802-24.096-13.913 2.481-7.481 10.826-5.294 11.745-4.062" stroke="#2F2F2F" stroke-width="2" stroke-miterlimit="10" stroke-linecap="round" stroke-linejoin="round"/><path d="M213.867 647.317c16.469 0 6.102 28.655 40.859 28.655 9.025 0 16.524-3.272 22.938-8.731 50.748-6.157 89.897 9.282 89.897 53.247 0 23.968-15.311 43.249-45.141 50.527-102.745-1.746-136.582-31.65-136.582-91.385-.019-20.127 11.579-32.313 28.029-32.313z" fill="#2F2F2F"/><path d="M387.558 452.544c-7.095-10.954-20.144-11.34-20.144-11.34m-49.241-25.751c-5.22-7.095-16.873-7.095-16.873-7.095" stroke="#fff" stroke-width="2" stroke-miterlimit="10" stroke-linecap="round" stroke-linejoin="round"/><path opacity=".2" d="M496.848 679.428c-7.15 37.605-23.582 80.504-119.36 85.375-19.869 1.011-32.349-2.445 0-13.013 32.349-10.569 70.579-19.52 100.649-67.492 10.476-16.689 26.044-43.505 18.711-4.87z" fill="#6B6B6B"/><defs><filter id="a" x="407.696" y="-12.129" width="270.182" height="234.553" filterUnits="userSpaceOnUse" color-interpolation-filters="sRGB"><feFlood flood-opacity="0" result="BackgroundImageFix"/><feBlend in="SourceGraphic" in2="BackgroundImageFix" result="shape"/><feGaussianBlur stdDeviation="3" result="effect1_foregroundBlur"/></filter><linearGradient id="e" x1="458.255" y1="258.886" x2="472.615" y2="321.076" gradientUnits="userSpaceOnUse"><stop stop-color="#FFC000"/><stop offset="1" stop-color="#FF8A00"/></linearGradient><linearGradient id="f" x1="150.734" y1="264.134" x2="196.483" y2="236.06" gradientUnits="userSpaceOnUse"><stop stop-color="#FFC000"/><stop offset="1" stop-color="#FF8A00"/></linearGradient><linearGradient id="g" x1="171.209" y1="261.145" x2="186.649" y2="253.234" gradientUnits="userSpaceOnUse"><stop stop-color="#FFC000"/><stop offset="1" stop-color="#FF8A00"/></linearGradient><linearGradient id="i" x1="444.144" y1="182.586" x2="455.719" y2="230.586" gradientUnits="userSpaceOnUse"><stop stop-color="#FFC000"/><stop offset="1" stop-color="#FF8A00"/></linearGradient><linearGradient id="j" x1="232.994" y1="323.969" x2="226.363" y2="325.283" gradientUnits="userSpaceOnUse"><stop stop-color="#FFC000"/><stop offset="1" stop-color="#FF8A00"/></linearGradient><linearGradient id="k" x1="234.691" y1="331.814" x2="230.561" y2="334.581" gradientUnits="userSpaceOnUse"><stop stop-color="#FFC000"/><stop offset="1" stop-color="#FF8A00"/></linearGradient><linearGradient id="l" x1="246.376" y1="303.119" x2="236.293" y2="315.791" gradientUnits="userSpaceOnUse"><stop stop-color="#FFC000"/><stop offset="1" stop-color="#FF8A00"/></linearGradient><linearGradient id="m" x1="260.242" y1="303.389" x2="229.42" y2="340.242" gradientUnits="userSpaceOnUse"><stop stop-color="#FFC000"/><stop offset="1" stop-color="#FF8A00"/></linearGradient><linearGradient id="n" x1="521.923" y1="317.852" x2="535.852" y2="385.235" gradientUnits="userSpaceOnUse"><stop stop-color="#FFC000"/><stop offset="1" stop-color="#FF8A00"/></linearGradient><linearGradient id="p" x1="199.544" y1="127.335" x2="209.803" y2="173.506" gradientUnits="userSpaceOnUse"><stop stop-color="#FFC000"/><stop offset="1" stop-color="#FF8A00"/></linearGradient><linearGradient id="r" x1="313.083" y1="260.936" x2="238.196" y2="239.21" gradientUnits="userSpaceOnUse"><stop stop-color="#FFC000"/><stop offset="1" stop-color="#FF8A00"/></linearGradient><linearGradient id="s" x1="379.326" y1="120.181" x2="416.419" y2="139.985" gradientUnits="userSpaceOnUse"><stop stop-color="#FFC000"/><stop offset="1" stop-color="#FF8A00"/></linearGradient><linearGradient id="t" x1="392.442" y1="144.67" x2="394.036" y2="145.444" gradientUnits="userSpaceOnUse"><stop stop-color="#FFC000"/><stop offset="1" stop-color="#FF8A00"/></linearGradient><linearGradient id="u" x1="387.758" y1="123.917" x2="388.025" y2="130.048" gradientUnits="userSpaceOnUse"><stop stop-color="#FFC000"/><stop offset="1" stop-color="#FF8A00"/></linearGradient><linearGradient id="v" x1="397.583" y1="128.631" x2="398.72" y2="134.388" gradientUnits="userSpaceOnUse"><stop stop-color="#FFC000"/><stop offset="1" stop-color="#FF8A00"/></linearGradient><linearGradient id="w" x1="392.661" y1="130.883" x2="393.324" y2="136.883" gradientUnits="userSpaceOnUse"><stop stop-color="#FFC000"/><stop offset="1" stop-color="#FF8A00"/></linearGradient><linearGradient id="x" x1="398.059" y1="134.855" x2="399.408" y2="140.471" gradientUnits="userSpaceOnUse"><stop stop-color="#FFC000"/><stop offset="1" stop-color="#FF8A00"/></linearGradient><linearGradient id="y" x1="388.71" y1="136.366" x2="389.15" y2="142.447" gradientUnits="userSpaceOnUse"><stop stop-color="#FFC000"/><stop offset="1" stop-color="#FF8A00"/></linearGradient><linearGradient id="z" x1="401.485" y1="141.572" x2="403.652" y2="146.289" gradientUnits="userSpaceOnUse"><stop stop-color="#FFC000"/><stop offset="1" stop-color="#FF8A00"/></linearGradient><linearGradient id="A" x1="396.806" y1="232.166" x2="367.879" y2="281.205" gradientUnits="userSpaceOnUse"><stop stop-color="#FFC000"/><stop offset="1" stop-color="#FF8A00"/></linearGradient><linearGradient id="B" x1="362.922" y1="248.5" x2="361.782" y2="250.613" gradientUnits="userSpaceOnUse"><stop stop-color="#FFC000"/><stop offset="1" stop-color="#FF8A00"/></linearGradient><linearGradient id="C" x1="384.07" y1="250.008" x2="373.363" y2="264.87" gradientUnits="userSpaceOnUse"><stop stop-color="#FFC000"/><stop offset="1" stop-color="#FF8A00"/></linearGradient><linearGradient id="D" x1="383.833" y1="268.638" x2="382.693" y2="270.751" gradientUnits="userSpaceOnUse"><stop stop-color="#FFC000"/><stop offset="1" stop-color="#FF8A00"/></linearGradient><linearGradient id="E" x1="386.163" y1="257.599" x2="385.024" y2="259.712" gradientUnits="userSpaceOnUse"><stop stop-color="#FFC000"/><stop offset="1" stop-color="#FF8A00"/></linearGradient><linearGradient id="F" x1="388.493" y1="246.56" x2="387.352" y2="248.674" gradientUnits="userSpaceOnUse"><stop stop-color="#FFC000"/><stop offset="1" stop-color="#FF8A00"/></linearGradient><linearGradient id="G" x1="380.463" y1="244.864" x2="379.322" y2="246.978" gradientUnits="userSpaceOnUse"><stop stop-color="#FFC000"/><stop offset="1" stop-color="#FF8A00"/></linearGradient><linearGradient id="H" x1="372.434" y1="243.167" x2="371.294" y2="245.281" gradientUnits="userSpaceOnUse"><stop stop-color="#FFC000"/><stop offset="1" stop-color="#FF8A00"/></linearGradient><linearGradient id="I" x1="367.773" y1="265.246" x2="366.633" y2="267.359" gradientUnits="userSpaceOnUse"><stop stop-color="#FFC000"/><stop offset="1" stop-color="#FF8A00"/></linearGradient><linearGradient id="J" x1="375.803" y1="266.942" x2="374.663" y2="269.055" gradientUnits="userSpaceOnUse"><stop stop-color="#FFC000"/><stop offset="1" stop-color="#FF8A00"/></linearGradient><linearGradient id="K" x1="370.103" y1="254.208" x2="368.964" y2="256.321" gradientUnits="userSpaceOnUse"><stop stop-color="#FFC000"/><stop offset="1" stop-color="#FF8A00"/></linearGradient><linearGradient id="L" x1="47.672" y1="1.168" x2="-6.554" y2="17.151" gradientUnits="userSpaceOnUse"><stop stop-color="#FFC000"/><stop offset="1" stop-color="#FF8A00"/></linearGradient><linearGradient id="M" x1="346.56" y1="73.328" x2="309.021" y2="60.507" gradientUnits="userSpaceOnUse"><stop stop-color="#FFC000"/><stop offset="1" stop-color="#FF8A00"/></linearGradient><clipPath id="h"><path fill="#fff" transform="scale(-1 1) rotate(-60.576 -45.91 507.58)" d="M0 0h42.067v43.626H0z"/></clipPath><clipPath id="o"><path fill="#fff" transform="scale(-1 1) rotate(-60.576 27.897 269.492)" d="M0 0h40.509v40.509H0z"/></clipPath><clipPath id="q"><path fill="#fff" transform="matrix(1 -.00426 -.00426 -1 247.632 263.14)" d="M0 0h66.62v66.62H0z"/></clipPath></defs></svg>