<svg width="70" height="70" viewBox="0 0 70 70" fill="none" xmlns="http://www.w3.org/2000/svg"><path d="M50.313 44.844a5.469 5.469 0 1 1-5.47-5.469 5.475 5.475 0 0 1 5.47 5.469zm18.593 0A24.063 24.063 0 1 1 44.844 20.78a24.09 24.09 0 0 1 24.062 24.063zm-6.562 0a17.5 17.5 0 1 0-5.127 12.373 1.093 1.093 0 0 0-1.545-1.545 15.312 15.312 0 1 1 4.484-11.003c-.024.142-.01.103-.014 1.823a3.821 3.821 0 0 1-7.64 0v-1.648a7.685 7.685 0 1 0-1.47 4.492 6.007 6.007 0 0 0 11.298-2.844c0-.125.014-1.52.014-1.648z" fill="#FFB42D"/><path d="M55.46 21.102l-6.24-6.242V4.375a3.282 3.282 0 0 0-3.282-3.281h-35a3.281 3.281 0 0 0-3.28 3.281V14.86l-6.243 6.242a1.214 1.214 0 0 0-.32.773V52.5a3.281 3.281 0 0 0 3.281 3.281H52.5a3.282 3.282 0 0 0 3.281-3.281V21.875a1.224 1.224 0 0 0-.32-.773zm-2.437.656l-3.804 2.851v-6.656l3.804 3.805zM9.843 4.375a1.094 1.094 0 0 1 1.095-1.094h35a1.094 1.094 0 0 1 1.093 1.094V26.25L29.094 39.703a1.102 1.102 0 0 1-1.313 0L9.844 26.25V4.375zM7.657 24.609l-3.804-2.852 3.804-3.804v6.656zM53.594 52.5a1.094 1.094 0 0 1-1.094 1.094H4.375A1.094 1.094 0 0 1 3.281 52.5V24.062L26.47 41.453a3.293 3.293 0 0 0 3.937 0l23.188-17.39V52.5zM20.78 8.75a1.094 1.094 0 0 1 1.094-1.094H35a1.094 1.094 0 1 1 0 2.188H21.875a1.094 1.094 0 0 1-1.094-1.094zm-6.562 6.563a1.094 1.094 0 0 1 1.094-1.094h26.25a1.094 1.094 0 1 1 0 2.187h-26.25a1.094 1.094 0 0 1-1.094-1.093zm0 6.562a1.094 1.094 0 0 1 1.094-1.094h26.25a1.094 1.094 0 0 1 0 2.188h-26.25a1.094 1.094 0 0 1-1.094-1.094z" fill="#6B6B6B"/></svg>