<svg width="205" height="301" viewBox="0 0 205 301" fill="none" xmlns="http://www.w3.org/2000/svg"><path d="M66 276.461a17.455 17.455 0 0 0 5.103 11.41c6.84 6.839 17.928 6.839 24.767 0a17.46 17.46 0 0 0 5.13-12.385c0-4.482-1.71-8.965-5.13-12.384A17.452 17.452 0 0 0 84.46 258L66 276.461zm23.338 3.938v3.468l-6.128-3.676 2.81-1.688 3.318 1.896zm0-1.68l-10.194-5.825 10.194-5.826v11.651zm-6.546-16.987a15.989 15.989 0 0 1-4.465 8.594 15.913 15.913 0 0 1-5.733 3.691 16.05 16.05 0 0 1-2.862.776l13.06-13.061zm7.155-.949c1.823.802 3.47 1.93 4.892 3.351a16 16 0 0 1 4.702 11.352 15.996 15.996 0 0 1-4.702 11.352 16.004 16.004 0 0 1-11.352 4.703c-2.087 0-4.119-.395-6.043-1.176a15.954 15.954 0 0 1-5.31-3.527 15.98 15.98 0 0 1-4.629-9.819l.567-.566a17.456 17.456 0 0 0 8.919-3.109l7.577 4.331-4.195 2.516 10.424 6.255v-21.892L79.92 270.77a17.441 17.441 0 0 0 4.533-10.698l.567-.567a15.99 15.99 0 0 1 4.928 1.278z" fill="url(#a)" style="mix-blend-mode:multiply"/><path d="M39 77.125l10.008 8.548.912.78L59.93 95l15.64-18.312-10.008-8.548-.913-.78-10.008-8.548L39 77.125zm34.95-.308L59.802 93.382l-9.136-7.803 14.148-16.564 9.136 7.802zM49.754 84.8l-9.135-7.802 14.148-16.565 9.135 7.803L49.754 84.8z" fill="#fff"/><path d="M49.034 74.979l-2.274-.38 1.824 5.433 1.596-1.869 2.235-2.616 2.87-3.362-7.786-1.48 1.535 4.274zm-.007 2.766l-.574-1.7 1.028.172.25.703-.704.825zm1.563-1.83l-1.332-3.709 3.872.736-2.54 2.973zm5.195-2.553l-5.959 6.978a.576.576 0 0 0 .066.81.576.576 0 0 0 .807-.065l5.96-6.977a.572.572 0 0 0-.064-.806.573.573 0 0 0-.81.06zm4.071 15.544a.573.573 0 0 0 .87.743.573.573 0 0 0-.061-.81.574.574 0 0 0-.81.067zm1.488-1.743a.573.573 0 1 0 .873.742.573.573 0 0 0-.873-.742zm1.492-1.747a.574.574 0 0 0 .061.81.574.574 0 0 0 .746-.874.573.573 0 0 0-.807.064zm1.489-1.743a.574.574 0 0 0 .061.81.574.574 0 0 0 .745-.872.573.573 0 0 0-.806.062zm1.49-1.744a.571.571 0 1 0 .87.743.57.57 0 0 0-.064-.806.57.57 0 0 0-.806.063zm-3.374 2.181l2.871-3.36-7.783-1.48 1.534 4.275-2.276-.382 1.823 5.433 1.596-1.869 2.235-2.616zm.718-2.602l-2.54 2.974-1.332-3.71 3.872.736zm-4.103 4.804l-.573-1.7 1.025.17.253.705-.705.825zm-1.633-21.885a.575.575 0 0 0-.527.617l.228 2.86-1.144.09a.575.575 0 0 0 .09 1.144l1.713-.135a.575.575 0 0 0 .527-.617l-.27-3.432a.575.575 0 0 0-.617-.527zm10.315 13.078a.571.571 0 0 0 .527-.617l.002-.003-.092-1.14 1.144-.09a.575.575 0 0 0-.09-1.144l-1.141.092-.09-1.144a.574.574 0 0 0-1.144.09l.09 1.144-1.142.087-.002.003a.574.574 0 0 0 .09 1.144l1.144-.09.087 1.141a.575.575 0 0 0 .617.527z" fill="#fff"/><path d="M180.896 98.871l-1.74-.694-.58-.232-.58-.231c-.632 1.584-2.448 2.354-4.047 1.715-1.599-.638-2.386-2.446-1.753-4.03l-.581-.232-.58-.231-1.74-.695-9.955 1.357-.203 7.247 3.939.24-5.275 13.218 16.241 6.482 5.276-13.218 3.021 2.538 4.843-5.396-6.286-7.838zm1.314 11.509l-2.09-1.757-1.326-1.114-.637 1.595-4.816 12.068-13.921-5.556 4.816-12.068.636-1.595-1.728-.105-2.726-.166.14-4.999 8.587-1.17 1.6.64a4.368 4.368 0 0 0 2.745 4.426 4.367 4.367 0 0 0 5.038-1.32l1.601.638 5.422 6.761-3.341 3.722z" fill="url(#b)" style="mix-blend-mode:multiply"/><path d="M169.26 108.502l-.364-2.188-4.399 3.32 2.21.882 3.094 1.234 3.977 1.588-1.09-7.541-3.428 2.705zm-2.255.8l.999-.754.139.835-.314.248-.824-.329zm2.16.862l2.599-2.051.474 3.278-3.073-1.227z" fill="url(#c)" style="mix-blend-mode:multiply"/><g clip-path="url(#d)"><path d="M123.05 244l-9.05 8.727-6.859-6.614c-1.366-1.318-3.582-1.318-4.949 0a3.305 3.305 0 0 0-1.026 2.387c0 .863.342 1.728 1.026 2.387l6.858 6.613-9.05 8.727 4.95 4.773 9.05-8.727 7.884 7.602h4.95v-4.773l-7.884-7.602 9.05-8.727-4.95-4.773zm-9.875 9.523l-1.234 1.189-5.208-5.022 1.233-1.19 5.209 5.023zm-10.159-3.432a2.198 2.198 0 0 1-.683-1.591c0-.601.243-1.166.683-1.591a2.398 2.398 0 0 1 3.3 0l.825.796-3.3 3.182-.825-.796zm1.65 1.591l1.242-1.197 5.208 5.023-1.241 1.197-5.209-5.023zm-3.016 14.545l1.625-1.568.825.796c.228.22.598.22.825 0a.549.549 0 0 0 0-.796h-.001l-.824-.795 1.65-1.591.825.795c.228.22.598.22.825 0a.548.548 0 0 0 0-.795l-.825-.796 1.65-1.591.825.795v.001a.6.6 0 0 0 .825 0 .549.549 0 0 0 0-.796l-.825-.795 1.65-1.591.825.795c.228.22.597.22.825 0a.548.548 0 0 0 0-.795l-.825-.795 1.65-1.591.825.795c.228.22.597.22.825 0a.548.548 0 0 0 0-.795v-.001l-.825-.795 1.65-1.591.825.796a.6.6 0 0 0 .825 0 .549.549 0 0 0 0-.796l-.825-.795 1.65-1.592.825.796c.228.22.597.22.825 0a.55.55 0 0 0 0-.796h-.001l-.824-.795 1.65-1.591.824.795h.001c.227.22.597.22.825 0a.55.55 0 0 0 0-.795l-.825-.796 1.625-1.567 3.3 3.182-21.4 20.636-3.3-3.182zm24.017 2.524h-.967l.967-.933v.933zm0-3.183v.66l-2.617 2.523h-.683l-7.542-7.274 1.241-1.196 5.821 5.613c.228.22.598.22.825 0a.548.548 0 0 0 0-.795l-5.821-5.614 1.234-1.19 7.542 7.273z" fill="#fff"/></g><g clip-path="url(#e)"><path d="M24.05 145L15 153.727l-6.859-6.614c-1.366-1.318-3.582-1.318-4.95 0a3.306 3.306 0 0 0-1.025 2.387c0 .863.342 1.728 1.026 2.387l6.858 6.613L1 167.227 5.95 172l9.05-8.727 7.884 7.602h4.95v-4.773L19.95 158.5l9.05-8.727L24.05 145zm-9.875 9.523l-1.234 1.189-5.208-5.022 1.233-1.19 5.209 5.023zm-10.159-3.432a2.196 2.196 0 0 1 0-3.182 2.399 2.399 0 0 1 3.3 0l.825.796-3.3 3.182-.825-.796zm1.65 1.591l1.242-1.197 5.208 5.023-1.24 1.197-5.21-5.023zM2.65 167.227l1.625-1.568.825.796c.228.22.598.22.825 0a.55.55 0 0 0 0-.796l-.825-.795 1.65-1.591.825.795c.228.22.598.22.825 0a.548.548 0 0 0 0-.795l-.825-.796 1.65-1.591.825.795v.001a.6.6 0 0 0 .825 0 .549.549 0 0 0 0-.796l-.825-.795 1.65-1.591.825.795c.228.22.597.22.825 0a.548.548 0 0 0 0-.795l-.825-.795 1.65-1.591.825.795c.228.22.597.22.825 0a.548.548 0 0 0 0-.795v-.001l-.825-.795 1.65-1.591.825.796a.6.6 0 0 0 .825 0 .55.55 0 0 0 0-.796l-.825-.795 1.65-1.592.825.796c.228.22.597.22.825 0a.549.549 0 0 0 0-.796l-.825-.795 1.65-1.591.824.795a.6.6 0 0 0 .826 0 .548.548 0 0 0 0-.795l-.825-.796 1.625-1.567 3.3 3.182-21.4 20.636-3.3-3.182zm24.017 2.524H25.7l.967-.933v.933zm0-3.183v.66l-2.617 2.523h-.683l-7.542-7.274 1.241-1.196 5.821 5.613c.228.22.598.22.825 0a.548.548 0 0 0 0-.795l-5.82-5.614 1.233-1.19 7.542 7.273z" fill="url(#f)" style="mix-blend-mode:multiply"/></g><path d="M188.588 169.391l4.86 5.017a.581.581 0 1 0 .836-.81l-4.859-5.018a.583.583 0 0 0-.837.811z" fill="url(#g)" style="mix-blend-mode:multiply"/><path d="M192.611 175.218l-1.62-1.672a.582.582 0 1 0-.835.809l1.619 1.672a.583.583 0 0 0 .836-.809z" fill="url(#h)" style="mix-blend-mode:multiply"/><path d="M180.471 163.143l-.538 2.011 5.037-1.174-1.542-1.593-2.16-2.229-2.777-2.868-1.991 6.869 3.971-1.016zm2.233.171l-1.145.266.204-.767.365-.093.576.594zm-1.508-1.557l-3.011.769.865-2.985 2.146 2.216z" fill="url(#i)" style="mix-blend-mode:multiply"/><path d="M166.405 166.566l18.627 19.234a.583.583 0 0 0 .824.013l11.707-11.339a.582.582 0 0 0 .013-.823l-18.628-19.233a.581.581 0 0 0-.822-.014l-11.708 11.34a.581.581 0 0 0-.013.822zm2.036.429l12.861 3.498a.523.523 0 0 1 .283.292l3.087 12.969-16.231-16.759zm27.893 7.048L185.951 184.1l-3.233-13.585a1.588 1.588 0 0 0-.41-.714 1.584 1.584 0 0 0-.7-.432l-13.477-3.664 10.386-10.059 17.817 18.397z" fill="url(#j)" style="mix-blend-mode:multiply"/><path d="M25.727 207C18.698 207 13 212.671 13 219.667c0 2.307.62 4.469 1.703 6.333A12.562 12.562 0 0 0 13 232.333C13 239.329 18.698 245 25.727 245c4.75 0 8.89-2.588 11.077-6.425C43.11 237.823 48 232.48 48 226c0-6.48-4.89-11.823-11.196-12.575A12.731 12.731 0 0 0 25.727 207zm11.899 29.836c.535-1.4.828-2.917.828-4.503 0-2.307-.62-4.469-1.703-6.333a12.562 12.562 0 0 0 1.703-6.333c0-1.586-.293-3.103-.828-4.503a11.133 11.133 0 0 1 5.521 2.999 11.043 11.043 0 0 1 2.388 3.523A10.97 10.97 0 0 1 46.41 226a10.97 10.97 0 0 1-.875 4.314 11.042 11.042 0 0 1-2.388 3.523 11.106 11.106 0 0 1-5.521 2.999zm-1.828-21.907a10.969 10.969 0 0 1 1.066 4.738 10.962 10.962 0 0 1-1.12 4.851 12.723 12.723 0 0 0-9.617-4.844c.376-.537.8-1.043 1.271-1.511a11.11 11.11 0 0 1 7.875-3.246c.176 0 .35.004.525.012zm-10.596 6.334a11.099 11.099 0 0 1 4.859.857 11.124 11.124 0 0 1 4.807 3.88 11.046 11.046 0 0 1-1.266 1.504 11.123 11.123 0 0 1-8.4 3.233A10.972 10.972 0 0 1 24.136 226a10.97 10.97 0 0 1 1.066-4.737zM22.546 226c0 1.585.293 3.103.828 4.502a11.123 11.123 0 0 1-5.521-2.998A11.01 11.01 0 0 1 16.587 226a11.01 11.01 0 0 1 1.266-1.504 11.123 11.123 0 0 1 5.521-2.998 12.583 12.583 0 0 0-.828 4.502zm3.58 6.326a12.723 12.723 0 0 0 9.617-4.844 10.964 10.964 0 0 1 1.12 4.851 10.967 10.967 0 0 1-1.065 4.738 11.099 11.099 0 0 1-4.859-.858 11.107 11.107 0 0 1-3.54-2.376 11.076 11.076 0 0 1-1.272-1.511zm-10.415-4.844a12.72 12.72 0 0 0 8.485 4.759 12.731 12.731 0 0 0 10.677 6.419 11.17 11.17 0 0 1-1.271 1.51 11.09 11.09 0 0 1-3.54 2.376 11.1 11.1 0 0 1-4.335.871c-1.504 0-2.962-.293-4.334-.871a11.09 11.09 0 0 1-3.54-2.376 11.043 11.043 0 0 1-2.388-3.523 10.967 10.967 0 0 1-.874-4.314 10.962 10.962 0 0 1 1.12-4.851zm5.682-18.028a11.1 11.1 0 0 1 4.334-.871 11.1 11.1 0 0 1 4.334.871 11.09 11.09 0 0 1 3.54 2.376c.472.468.896.973 1.272 1.51a12.731 12.731 0 0 0-10.677 6.419 12.72 12.72 0 0 0-8.485 4.759 10.962 10.962 0 0 1-1.12-4.851c0-1.497.294-2.949.874-4.314a11.043 11.043 0 0 1 2.388-3.523 11.09 11.09 0 0 1 3.54-2.376z" fill="url(#k)" style="mix-blend-mode:multiply"/><path d="M29.907 299.951l5.053-7.345 2.166-3.148 5.053-7.346-24.463-18.375L4 283.674l25.907 16.277zm-.358-1.728l-2.158-1.357 4.42-6.426 2.1 1.444-4.362 6.339zm5.084-7.389l-4.198-2.887.722-1.05 4.197 2.888-.721 1.049zm1.443-2.098l-2.099-1.444 4.422-6.427 2.038 1.531-4.36 6.34zm-18.063-23.183l19.366 14.546-4.451 6.471-2.099-1.444a.636.636 0 0 0-.721 1.049.637.637 0 0 0-.722 1.05.636.636 0 1 0-.722 1.049l2.098 1.444-4.45 6.47-20.51-12.885 12.211-17.75z" fill="#fff"/><path d="M23.904 284.705l-2.677-5.555 3.125.195-3.227-7.081-1.891 2.749-2.647 3.847-3.403 4.948 10.72.897zm-3.005-9.864l1.413 3.1-1.719-.106-.722-1.5 1.028-1.494zm-1.86 2.703l2.75 5.706-6.312-.528 3.563-5.178z" fill="#fff"/><g clip-path="url(#l)"><path d="M144.636 50.715a4.072 4.072 0 0 0-3.978 4.95l-2.699 2.699-7.326-7.325a3.25 3.25 0 0 0-4.595 4.594l7.326 7.326-8.344 8.344a2.159 2.159 0 0 0-.634 1.531 2.167 2.167 0 0 0 3.698 1.532l8.343-8.344 7.892 7.893h4.595v-4.596l-7.892-7.892 2.676-2.675c.301.071.615.11.938.11 4.613 0 4.979-6.803 4.979-9.053 0-2.249-2.729.906-4.979.906zm-18.467 2.62a2.169 2.169 0 0 1 3.698-1.531l.766.766-3.064 3.063-.765-.765a2.154 2.154 0 0 1-.635-1.532zm1.148 20.266a1.084 1.084 0 0 1-1.531-1.533l8.343-8.343 1.532 1.532-8.344 8.344zm20.514-.77h-.897l.897-.897v.897zm0-3.063v.634l-2.429 2.429h-.634l-16.433-16.432 1.153-1.152 14.834 14.835a.541.541 0 1 0 .766-.766l-14.835-14.835 1.146-1.145 16.432 16.432zm-7.575-9.106l-1.531-1.532 2.355-2.355a4.096 4.096 0 0 0 1.521 1.542l-2.345 2.345zm7.573-5.829c-.318.942-.731 1.668-1.229 2.158-.537.53-1.179.787-1.964.787a2.97 2.97 0 0 1-2.114-.876 2.993 2.993 0 0 1 2.114-5.104c1.233 0 2.436-.657 3.402-1.186.144-.078.318-.173.486-.26-.03 1.166-.173 2.932-.695 4.481z" fill="url(#m)" style="mix-blend-mode:multiply"/></g><g clip-path="url(#n)"><path d="M116.447 190.494l13.57-47.894-10.284-2.915-13.571 47.895 10.285 2.914zm11.372-46.666l-.958 3.377-1.714-.486a.893.893 0 0 0-1.101.614.894.894 0 0 0 .615 1.101l.001-.001 1.713.486-.971 3.428-1.714-.485a.89.89 0 0 0-.486 1.714l1.715.485-.972 3.429-1.714-.485-.001-.001a.89.89 0 0 0-.485 1.714l.001.001 1.713.485-.972 3.428-1.713-.486a.894.894 0 0 0-1.101.615.893.893 0 0 0 .615 1.1l1.714.485-.971 3.429-1.714-.486a.89.89 0 0 0-.486 1.714l1.715.486-.972 3.428-1.715-.486a.89.89 0 1 0-.485 1.714v.001l1.714.485-.972 3.429-1.713-.486a.892.892 0 0 0-1.101.614.893.893 0 0 0 .614 1.1h.002l1.713.486-.971 3.428-1.713-.485-.001-.001a.89.89 0 1 0-.486 1.715l1.713.486-.956 3.377-6.857-1.943 12.6-44.466 6.857 1.943z" fill="url(#o)" style="mix-blend-mode:multiply"/></g><path d="M17.783 89.757L.378 103.804a.487.487 0 0 0-.073.684l9.772 12.107a.485.485 0 0 0 .683.073l6.28-5.068 1.38 2.636-.152.122a.487.487 0 0 0 .61.757l6.055-4.886a.487.487 0 0 0-.61-.757l-.152.122-2.286-1.904 6.28-5.069a.486.486 0 0 0 .073-.683L18.467 89.83a.486.486 0 0 0-.684-.073zm1.408 23.856l-1.377-2.632 3.301-2.666 2.284 1.902-4.208 3.396zM18.015 90.82l7.94 9.837-16.648 13.435-7.94-9.837L18.016 90.82zm.837 18.068l-8.323 6.718-.611-.757 8.324-6.718 8.323-6.717.61.756-8.323 6.718z" fill="url(#p)" style="mix-blend-mode:multiply"/><path d="M18.925 108.205a.486.486 0 1 0-.757.61.486.486 0 0 0 .757-.61z" fill="url(#q)" style="mix-blend-mode:multiply"/><path d="M3.724 104.851l11.35-9.16a.486.486 0 0 0-.61-.757l-11.35 9.161a.486.486 0 1 0 .61.756z" fill="url(#r)" style="mix-blend-mode:multiply"/><path d="M4.946 106.365l6.053-4.885v-.001a.485.485 0 1 0-.61-.756l-6.054 4.885a.487.487 0 1 0 .611.757z" fill="url(#s)" style="mix-blend-mode:multiply"/><path d="M6.168 107.88l8.323-6.717v-.001a.485.485 0 1 0-.61-.757l-8.324 6.718a.486.486 0 1 0 .61.757z" fill="url(#t)" style="mix-blend-mode:multiply"/><path d="M7.389 109.392l5.296-4.274a.486.486 0 1 0-.61-.757l-5.297 4.274a.487.487 0 0 0 .61.757z" fill="url(#u)" style="mix-blend-mode:multiply"/><path d="M8.61 110.906l9.837-7.939a.486.486 0 1 0-.61-.757L8 110.149a.486.486 0 1 0 .61.757z" fill="url(#v)" style="mix-blend-mode:multiply"/><path d="M9.832 112.419l3.026-2.442a.486.486 0 1 0-.61-.757l-3.027 2.443a.486.486 0 1 0 .611.756z" fill="url(#w)" style="mix-blend-mode:multiply"/><path d="M151.114 224.423l-4 3.8 13.009 4.325-1.28-5.736-1.791-8.033-2.303-10.325-14.016 12.762 10.381 3.207zm6.426 5.265l-6.824-2.269 2.478-2.354 3.56 1.1.786 3.523zm-1.262-5.657l-11.809-3.648 9.139-8.323 2.67 11.971z" fill="#fff"/><path d="M126.08 214.849l-1.894.422a.96.96 0 0 0-.739 1.137.958.958 0 0 0 1.153.716l1.893-.422.827 3.707-1.893.422a.96.96 0 0 0-.74 1.137.958.958 0 0 0 1.153.716l1.893-.422.827 3.707-1.893.422a.96.96 0 0 0-.74 1.138.96.96 0 0 0 1.153.716l1.893-.422.827 3.706-1.893.423a.959.959 0 0 0-.74 1.137.96.96 0 0 0 1.153.716l1.893-.422.827 3.707-1.893.422a.96.96 0 0 0-.74 1.138.961.961 0 0 0 1.154.716l1.893-.423 1.24 5.561 41.645-9.288L166.484 200l-41.645 9.288 1.241 5.561zm38.963-12.582l7.028 31.508-37.937 8.462-.827-3.707 1.814-.404a.96.96 0 0 0 .74-1.139.959.959 0 0 0-1.153-.715l-1.814.404-.827-3.706 1.814-.405a.96.96 0 0 0 .74-1.138.961.961 0 0 0-1.154-.716l-1.813.405-.827-3.707 1.814-.404a.961.961 0 0 0 .74-1.139.96.96 0 0 0-1.154-.715l-1.814.404-.826-3.706 1.813-.405a.958.958 0 0 0 .74-1.138.96.96 0 0 0-1.153-.715l-1.814.405-.826-3.708 1.813-.404a.96.96 0 0 0 .74-1.139.959.959 0 0 0-1.153-.714l-1.814.404-.827-3.707 37.937-8.461z" fill="#fff"/><path d="M55.434 145.759l20.006 22.737c.24.273.656.3.929.06l15.817-13.917a.658.658 0 0 0 .059-.929l-7.218-8.204 3.486-2.017.174.197a.66.66 0 1 0 .989-.87l-6.959-7.908a.658.658 0 0 0-.988.87l.174.197-2.444 3.203-7.22-8.205a.658.658 0 0 0-.928-.059l-15.817 13.917a.657.657 0 0 0-.06.928zm32.192-3.278l-3.481 2.015-3.797-4.314 2.441-3.199 4.837 5.498zm-25.825-1.446l2.61 2.966-4.944 4.348-2.609-2.965 4.943-4.349zm3.598 2.096l-2.61-2.966 6.92-6.088 2.61 2.965-6.92 6.089zm-5.062 6.207l12.851-11.307 15.656 17.794-12.85 11.307-15.657-17.794zm20.917-6.127l9.567 10.874-.988.87-9.567-10.874-9.568-10.874.988-.87 9.568 10.874z" fill="url(#x)" style="mix-blend-mode:multiply"/><path d="M80.325 143.153a.658.658 0 1 0 .868.988.658.658 0 0 0-.868-.988z" fill="url(#y)" style="mix-blend-mode:multiply"/><path d="M76.555 149.851l-2.982-3.389-2.621 7.651 4.541-.932-.716 2.243 5.755-1.054-1.657-1.883-2.32-2.636zm-3.61 2.509l1.139-3.325 2.303 2.618-3.443.707zm5.061 1.134l-1.307.239.273-.855.417-.086.617.702z" fill="url(#z)" style="mix-blend-mode:multiply"/><path d="M74.49 161.439l.87.988.989-.869-.87-.989-.988.87z" fill="url(#A)" style="mix-blend-mode:multiply"/><path d="M69.708 156.003l.87.988.988-.87-.87-.988-.988.87z" fill="url(#B)" style="mix-blend-mode:multiply"/><path d="M64.924 150.566l.87.989.989-.87-.87-.989-.99.87z" fill="url(#C)" style="mix-blend-mode:multiply"/><path d="M68.878 147.086l.87.989.988-.869-.87-.989-.988.869z" fill="url(#D)" style="mix-blend-mode:multiply"/><path d="M72.832 143.606l.87.989.989-.87-.87-.989-.99.87z" fill="url(#E)" style="mix-blend-mode:multiply"/><path d="M82.4 154.479l.869.989.988-.87-.87-.988-.988.869z" fill="url(#F)" style="mix-blend-mode:multiply"/><path d="M78.445 157.959l.87.989.988-.87-.87-.988-.988.869z" fill="url(#G)" style="mix-blend-mode:multiply"/><path d="M77.616 149.043l.87.988.988-.869-.87-.989-.988.87z" fill="url(#H)" style="mix-blend-mode:multiply"/><circle cx="81.5" cy="75.5" r="10.5" transform="rotate(-90 81.5 75.5)" stroke="url(#I)" stroke-width="10" style="mix-blend-mode:multiply"/><path d="M54.78 6.084c.27.53 4.008 4.31-2.406 5.58-6.413 1.27-6.787 4.795-5.335 10.482 1.452 5.687-1.655 7.878-4.338 9.125" stroke="url(#J)" stroke-width="8" stroke-linecap="round" stroke-linejoin="round" style="mix-blend-mode:multiply"/><circle cx="203" cy="214" r="10.5" transform="rotate(-90 203 214)" stroke="#fff" stroke-width="5"/><defs><linearGradient id="a" x1="66.846" y1="258.455" x2="78.428" y2="297.749" gradientUnits="userSpaceOnUse"><stop stop-color="#FFC000"/><stop offset="1" stop-color="#FF8A00"/></linearGradient><linearGradient id="b" x1="188.433" y1="102.523" x2="154.006" y2="101.254" gradientUnits="userSpaceOnUse"><stop stop-color="#FFC000"/><stop offset="1" stop-color="#FF8A00"/></linearGradient><linearGradient id="c" x1="176.045" y1="107.309" x2="164.919" y2="107.754" gradientUnits="userSpaceOnUse"><stop stop-color="#FFC000"/><stop offset="1" stop-color="#FF8A00"/></linearGradient><linearGradient id="f" x1="1.677" y1="145.351" x2="10.341" y2="175.835" gradientUnits="userSpaceOnUse"><stop stop-color="#FFC000"/><stop offset="1" stop-color="#FF8A00"/></linearGradient><linearGradient id="g" x1="188.277" y1="169.029" x2="192.399" y2="167.673" gradientUnits="userSpaceOnUse"><stop stop-color="#FFC000"/><stop offset="1" stop-color="#FF8A00"/></linearGradient><linearGradient id="h" x1="189.802" y1="173.95" x2="192.984" y2="174.195" gradientUnits="userSpaceOnUse"><stop stop-color="#FFC000"/><stop offset="1" stop-color="#FF8A00"/></linearGradient><linearGradient id="i" x1="174.223" y1="161.592" x2="183.855" y2="165.497" gradientUnits="userSpaceOnUse"><stop stop-color="#FFC000"/><stop offset="1" stop-color="#FF8A00"/></linearGradient><linearGradient id="j" x1="166.556" y1="166.116" x2="195.407" y2="176.999" gradientUnits="userSpaceOnUse"><stop stop-color="#FFC000"/><stop offset="1" stop-color="#FF8A00"/></linearGradient><linearGradient id="k" x1="13.846" y1="207.494" x2="27.306" y2="249.555" gradientUnits="userSpaceOnUse"><stop stop-color="#FFC000"/><stop offset="1" stop-color="#FF8A00"/></linearGradient><linearGradient id="m" x1="124.996" y1="49.338" x2="133.819" y2="78.385" gradientUnits="userSpaceOnUse"><stop stop-color="#FFC000"/><stop offset="1" stop-color="#FF8A00"/></linearGradient><linearGradient id="o" x1="109.828" y1="193.005" x2="144.842" y2="157.247" gradientUnits="userSpaceOnUse"><stop stop-color="#FFC000"/><stop offset="1" stop-color="#FF8A00"/></linearGradient><linearGradient id="p" x1="18.235" y1="90.027" x2="3.744" y2="112.794" gradientUnits="userSpaceOnUse"><stop stop-color="#FFC000"/><stop offset="1" stop-color="#FF8A00"/></linearGradient><linearGradient id="q" x1="18.625" y1="107.853" x2="17.977" y2="108.788" gradientUnits="userSpaceOnUse"><stop stop-color="#FFC000"/><stop offset="1" stop-color="#FF8A00"/></linearGradient><linearGradient id="r" x1="14.699" y1="94.774" x2="16.483" y2="98.285" gradientUnits="userSpaceOnUse"><stop stop-color="#FFC000"/><stop offset="1" stop-color="#FF8A00"/></linearGradient><linearGradient id="s" x1="10.693" y1="100.507" x2="11.873" y2="104.084" gradientUnits="userSpaceOnUse"><stop stop-color="#FFC000"/><stop offset="1" stop-color="#FF8A00"/></linearGradient><linearGradient id="t" x1="14.155" y1="100.214" x2="15.676" y2="103.777" gradientUnits="userSpaceOnUse"><stop stop-color="#FFC000"/><stop offset="1" stop-color="#FF8A00"/></linearGradient><linearGradient id="u" x1="12.389" y1="104.137" x2="13.406" y2="107.701" gradientUnits="userSpaceOnUse"><stop stop-color="#FFC000"/><stop offset="1" stop-color="#FF8A00"/></linearGradient><linearGradient id="v" x1="18.093" y1="102.034" x2="19.764" y2="105.572" gradientUnits="userSpaceOnUse"><stop stop-color="#FFC000"/><stop offset="1" stop-color="#FF8A00"/></linearGradient><linearGradient id="w" x1="12.592" y1="108.972" x2="12.868" y2="112.293" gradientUnits="userSpaceOnUse"><stop stop-color="#FFC000"/><stop offset="1" stop-color="#FF8A00"/></linearGradient><linearGradient id="x" x1="55.773" y1="145.132" x2="87.407" y2="163.426" gradientUnits="userSpaceOnUse"><stop stop-color="#FFC000"/><stop offset="1" stop-color="#FF8A00"/></linearGradient><linearGradient id="y" x1="79.866" y1="143.58" x2="81.169" y2="144.402" gradientUnits="userSpaceOnUse"><stop stop-color="#FFC000"/><stop offset="1" stop-color="#FF8A00"/></linearGradient><linearGradient id="z" x1="68.519" y1="151.091" x2="79.19" y2="156.024" gradientUnits="userSpaceOnUse"><stop stop-color="#FFC000"/><stop offset="1" stop-color="#FF8A00"/></linearGradient><linearGradient id="A" x1="74.526" y1="161.431" x2="75.829" y2="162.253" gradientUnits="userSpaceOnUse"><stop stop-color="#FFC000"/><stop offset="1" stop-color="#FF8A00"/></linearGradient><linearGradient id="B" x1="69.743" y1="155.995" x2="71.046" y2="156.817" gradientUnits="userSpaceOnUse"><stop stop-color="#FFC000"/><stop offset="1" stop-color="#FF8A00"/></linearGradient><linearGradient id="C" x1="64.959" y1="150.558" x2="66.263" y2="151.38" gradientUnits="userSpaceOnUse"><stop stop-color="#FFC000"/><stop offset="1" stop-color="#FF8A00"/></linearGradient><linearGradient id="D" x1="68.913" y1="147.078" x2="70.217" y2="147.9" gradientUnits="userSpaceOnUse"><stop stop-color="#FFC000"/><stop offset="1" stop-color="#FF8A00"/></linearGradient><linearGradient id="E" x1="72.867" y1="143.598" x2="74.171" y2="144.42" gradientUnits="userSpaceOnUse"><stop stop-color="#FFC000"/><stop offset="1" stop-color="#FF8A00"/></linearGradient><linearGradient id="F" x1="82.434" y1="154.471" x2="83.738" y2="155.293" gradientUnits="userSpaceOnUse"><stop stop-color="#FFC000"/><stop offset="1" stop-color="#FF8A00"/></linearGradient><linearGradient id="G" x1="78.481" y1="157.951" x2="79.784" y2="158.773" gradientUnits="userSpaceOnUse"><stop stop-color="#FFC000"/><stop offset="1" stop-color="#FF8A00"/></linearGradient><linearGradient id="H" x1="77.651" y1="149.035" x2="78.955" y2="149.857" gradientUnits="userSpaceOnUse"><stop stop-color="#FFC000"/><stop offset="1" stop-color="#FF8A00"/></linearGradient><linearGradient id="I" x1="96.597" y1="60.75" x2="61.794" y2="71.008" gradientUnits="userSpaceOnUse"><stop stop-color="#FFC000"/><stop offset="1" stop-color="#FF8A00"/></linearGradient><linearGradient id="J" x1="42.779" y1="30.784" x2="59.722" y2="11.78" gradientUnits="userSpaceOnUse"><stop stop-color="#FFC000"/><stop offset="1" stop-color="#FF8A00"/></linearGradient><clipPath id="d"><path fill="#fff" transform="rotate(-90 185.5 85.5)" d="M0 0h27v28H0z"/></clipPath><clipPath id="e"><path fill="#fff" transform="rotate(-90 86.5 85.5)" d="M0 0h27v28H0z"/></clipPath><clipPath id="l"><path fill="#fff" transform="rotate(-90 99.5 -24.5)" d="M0 0h26v26H0z"/></clipPath><clipPath id="n"><path fill="#fff" transform="rotate(150.82 51.03 105.82)" d="M0 0h42.758v42.758H0z"/></clipPath></defs></svg>