<svg width="426" height="156" viewBox="0 0 426 156" fill="none" xmlns="http://www.w3.org/2000/svg"><g opacity=".3"><path d="M211.461 57c4.151.23 8.237 1.93 11.41 5.102 6.839 6.84 6.839 17.929 0 24.768A17.46 17.46 0 0 1 210.486 92c-4.482 0-8.965-1.71-12.384-5.13A17.452 17.452 0 0 1 193 75.46L211.461 57zm3.938 23.338h3.468l-3.676-6.128-1.688 2.81 1.896 3.318zm-1.68 0l-5.825-10.194-5.826 10.194h11.651zm-16.987-6.546a15.964 15.964 0 0 0 8.594-4.466 15.913 15.913 0 0 0 3.691-5.732 16.05 16.05 0 0 0 .776-2.863l-13.061 13.061zm-.949 7.155a16.026 16.026 0 0 0 3.351 4.892 16 16 0 0 0 11.352 4.702 15.996 15.996 0 0 0 11.352-4.702 16.004 16.004 0 0 0 4.703-11.352c0-2.087-.395-4.119-1.176-6.043a15.954 15.954 0 0 0-3.527-5.31 15.98 15.98 0 0 0-9.819-4.629l-.566.567a17.456 17.456 0 0 1-3.109 8.919l4.331 7.577 2.516-4.195 6.255 10.424h-21.892l6.216-10.878a17.441 17.441 0 0 1-10.698 4.533l-.567.567a15.99 15.99 0 0 0 1.278 4.928z" fill="url(#a)" style="mix-blend-mode:multiply"/><path d="M61.125 50l8.548 10.008.78.912L79 70.93 60.688 86.57 52.14 76.562l-.78-.913-8.548-10.008L61.125 50zm-.308 34.95l16.565-14.148-7.803-9.136-16.564 14.148 7.802 9.136zM68.8 60.754l-7.802-9.135-16.565 14.148 7.803 9.135L68.8 60.754z" fill="#fff"/><path d="M58.979 60.034l-.38-2.274 5.433 1.824-1.869 1.596-2.616 2.235-3.362 2.87-1.48-7.786 4.274 1.535zm2.766-.007l-1.7-.574.172 1.028.703.25.825-.704zm-1.83 1.563l-3.709-1.332.736 3.872 2.973-2.54zm-2.553 5.195l6.978-5.959a.576.576 0 0 1 .81.066.576.576 0 0 1-.065.807l-6.977 5.96a.572.572 0 0 1-.806-.064.573.573 0 0 1 .06-.81zm15.544 4.071a.573.573 0 0 1 .743.87.573.573 0 0 1-.81-.061.574.574 0 0 1 .067-.81zm-1.743 1.488a.573.573 0 1 1 .742.873.573.573 0 0 1-.742-.873zm-1.747 1.492a.574.574 0 0 1 .81.061.574.574 0 0 1-.874.746.573.573 0 0 1 .064-.807zm-1.743 1.489a.574.574 0 0 1 .81.061.574.574 0 0 1-.872.745.573.573 0 0 1 .062-.806zm-1.744 1.49a.571.571 0 1 1 .743.87.57.57 0 0 1-.806-.064.57.57 0 0 1 .063-.806zm2.181-3.374l-3.36 2.871-1.48-7.784 4.275 1.535-.382-2.276 5.433 1.823-1.869 1.596-2.616 2.235zm-2.602.718l2.974-2.54-3.71-1.332.736 3.872zm4.804-4.103l-1.7-.573.17 1.025.705.253.825-.705zm-21.885-1.633a.575.575 0 0 1 .617-.527l2.86.228.09-1.144a.575.575 0 0 1 1.144.09l-.135 1.713a.575.575 0 0 1-.617.527l-3.432-.27a.575.575 0 0 1-.527-.617zm13.078 10.315a.571.571 0 0 1-.617.527l-.002.002-1.142-.092-.09 1.144a.575.575 0 0 1-1.144-.09l.093-1.141-1.144-.09a.574.574 0 0 1 .09-1.144l1.144.09.087-1.142.003-.002a.574.574 0 0 1 1.144.09l-.09 1.144 1.141.087a.575.575 0 0 1 .527.617z" fill="#fff"/><path d="M81.771 176.896l-.694-1.74-.232-.58-.231-.58c1.585-.632 2.354-2.448 1.716-4.047-.638-1.599-2.446-2.386-4.031-1.753l-.232-.581-.231-.58-.695-1.74 1.357-9.956 7.248-.202.24 3.939 13.217-5.275 6.482 16.241-13.218 5.276 2.539 3.021-5.396 4.843-7.839-6.286zm11.509 1.314l-1.757-2.09-1.114-1.327 1.595-.636 12.068-4.816-5.556-13.922-12.068 4.817-1.595.636-.105-1.728-.165-2.726-5 .139-1.17 8.587.64 1.601a4.368 4.368 0 0 1 4.426 2.745 4.367 4.367 0 0 1-1.32 5.038l.639 1.601 6.76 5.422 3.722-3.341z" fill="url(#b)" style="mix-blend-mode:multiply"/><path d="M228 134.05l8.727-9.05-6.614-6.859c-1.318-1.366-1.318-3.582 0-4.949a3.305 3.305 0 0 1 2.387-1.026c.863 0 1.728.342 2.387 1.026l6.613 6.858 8.727-9.05 4.773 4.95-8.727 9.05 7.602 7.884v4.95h-4.773l-7.602-7.884-8.727 9.05-4.773-4.95zm9.523-9.875l1.189-1.234-5.022-5.208-1.19 1.233 5.023 5.209zm-3.432-10.159a2.198 2.198 0 0 0-1.591-.683c-.601 0-1.166.243-1.591.683a2.398 2.398 0 0 0 0 3.3l.796.825 3.182-3.3-.796-.825zm1.591 1.65l-1.197 1.242 5.023 5.208 1.197-1.241-5.023-5.209zm14.545-3.016l-1.568 1.625.796.825c.22.228.22.598 0 .825a.549.549 0 0 1-.796 0v-.001l-.795-.824-1.591 1.65.795.825c.22.228.22.598 0 .825a.548.548 0 0 1-.795 0l-.796-.825-1.591 1.65.795.825h.001a.6.6 0 0 1 0 .825.549.549 0 0 1-.796 0l-.795-.825-1.591 1.65.795.825c.22.228.22.597 0 .825a.548.548 0 0 1-.795 0l-.795-.825-1.591 1.65.795.825c.22.228.22.597 0 .825a.548.548 0 0 1-.795 0h-.001l-.795-.825-1.591 1.65.796.825a.6.6 0 0 1 0 .825.549.549 0 0 1-.796 0l-.795-.825-1.592 1.65.796.825c.22.228.22.597 0 .825a.55.55 0 0 1-.796 0v-.001l-.795-.824-1.591 1.65.795.824v.001c.22.227.22.597 0 .825a.55.55 0 0 1-.795 0l-.796-.825-1.567 1.625 3.182 3.3 20.636-21.4-3.182-3.3zm2.524 24.017v-.967l-.933.967h.933zm-3.183 0h.66l2.523-2.617v-.683l-7.274-7.542-1.196 1.241 5.613 5.821c.22.228.22.598 0 .825a.548.548 0 0 1-.795 0l-5.614-5.821-1.19 1.234 7.273 7.542z" fill="#fff"/><path d="M129 35.05l8.727-9.05-6.614-6.859c-1.318-1.366-1.318-3.582 0-4.95a3.306 3.306 0 0 1 2.387-1.025c.863 0 1.728.342 2.387 1.026l6.613 6.858 8.727-9.05L156 16.95 147.273 26l7.602 7.883v4.95h-4.773L142.5 30.95 133.773 40 129 35.05zm9.523-9.875l1.189-1.234-5.022-5.208-1.19 1.233 5.023 5.209zm-3.432-10.159a2.196 2.196 0 0 0-3.182 0 2.399 2.399 0 0 0 0 3.3l.796.825 3.182-3.3-.796-.825zm1.591 1.65l-1.197 1.241 5.023 5.21 1.197-1.242-5.023-5.209zm14.545-3.016l-1.568 1.625.796.825c.22.228.22.598 0 .825a.55.55 0 0 1-.796 0l-.795-.825-1.591 1.65.795.825c.22.228.22.598 0 .825a.548.548 0 0 1-.795 0l-.796-.825-1.591 1.65.795.824.001.001a.6.6 0 0 1 0 .825.549.549 0 0 1-.796 0l-.795-.825-1.591 1.65.795.825c.22.228.22.597 0 .825a.548.548 0 0 1-.795 0l-.795-.825-1.591 1.65.795.825c.22.228.22.597 0 .825a.548.548 0 0 1-.795 0h-.001l-.795-.825-1.591 1.65.796.825a.6.6 0 0 1 0 .825.55.55 0 0 1-.796 0l-.795-.825-1.592 1.65.796.825c.22.228.22.597 0 .825a.549.549 0 0 1-.796 0l-.795-.825-1.591 1.65.795.824a.6.6 0 0 1 0 .826.548.548 0 0 1-.795 0l-.796-.825-1.567 1.625 3.182 3.3 20.636-21.4-3.182-3.3zm2.524 24.017V36.7l-.933.967h.933zm-3.183 0h.66l2.523-2.617v-.683l-7.274-7.542-1.196 1.241 5.613 5.821c.22.228.22.598 0 .825a.548.548 0 0 1-.795 0l-5.614-5.82-1.19 1.233 7.273 7.542z" fill="url(#c)" style="mix-blend-mode:multiply"/><path d="M174 12.727C174 5.698 179.671 0 186.667 0c2.307 0 4.469.62 6.333 1.703A12.563 12.563 0 0 1 199.333 0C206.329 0 212 5.698 212 12.727c0 4.75-2.588 8.89-6.425 11.077C204.823 30.11 199.48 35 193 35c-6.48 0-11.823-4.89-12.575-11.196A12.731 12.731 0 0 1 174 12.727zm29.836 11.899c-1.4.535-2.917.828-4.503.828-2.307 0-4.469-.62-6.333-1.703a12.562 12.562 0 0 1-6.333 1.703c-1.586 0-3.103-.293-4.503-.828a11.133 11.133 0 0 0 2.999 5.521 11.043 11.043 0 0 0 3.523 2.388 10.97 10.97 0 0 0 4.314.875 10.97 10.97 0 0 0 4.314-.875 11.042 11.042 0 0 0 3.523-2.388 11.106 11.106 0 0 0 2.999-5.521zm-21.907-1.828a10.969 10.969 0 0 0 4.738 1.066 10.962 10.962 0 0 0 4.851-1.12 12.723 12.723 0 0 1-4.844-9.617c-.537.376-1.043.8-1.511 1.271a11.11 11.11 0 0 0-3.246 7.875c0 .176.004.35.012.525zm6.334-10.596a11.099 11.099 0 0 0 .857 4.859 11.124 11.124 0 0 0 3.88 4.807 11.046 11.046 0 0 0 1.504-1.266 11.123 11.123 0 0 0 3.233-8.4A10.972 10.972 0 0 0 193 11.136a10.97 10.97 0 0 0-4.737 1.066zM193 9.546c1.585 0 3.103.293 4.502.828a11.123 11.123 0 0 0-2.998-5.521A11.01 11.01 0 0 0 193 3.587a11.01 11.01 0 0 0-1.504 1.266 11.122 11.122 0 0 0-2.998 5.521A12.583 12.583 0 0 1 193 9.546zm6.326 3.58a12.723 12.723 0 0 1-4.844 9.618 10.964 10.964 0 0 0 4.851 1.12 10.967 10.967 0 0 0 4.738-1.066 11.099 11.099 0 0 0-.858-4.859 11.107 11.107 0 0 0-2.376-3.54 11.076 11.076 0 0 0-1.511-1.272zm-4.844-10.415a12.72 12.72 0 0 1 4.759 8.485 12.731 12.731 0 0 1 6.419 10.677 11.17 11.17 0 0 0 1.51-1.271 11.09 11.09 0 0 0 2.376-3.54 11.1 11.1 0 0 0 .871-4.335c0-1.504-.293-2.962-.871-4.334a11.09 11.09 0 0 0-2.376-3.54 11.043 11.043 0 0 0-3.523-2.388 10.968 10.968 0 0 0-4.314-.875 10.961 10.961 0 0 0-4.851 1.12zm-18.028 5.682a11.1 11.1 0 0 0-.871 4.334 11.1 11.1 0 0 0 .871 4.334 11.09 11.09 0 0 0 2.376 3.54c.468.472.973.896 1.51 1.272a12.731 12.731 0 0 1 6.419-10.677 12.719 12.719 0 0 1 4.759-8.485 10.963 10.963 0 0 0-4.851-1.12c-1.497 0-2.949.294-4.314.874a11.042 11.042 0 0 0-3.523 2.388 11.09 11.09 0 0 0-2.376 3.54z" fill="url(#d)" style="mix-blend-mode:multiply"/><path d="M283.951 40.907l-7.345 5.053-3.148 2.166-7.346 5.053-18.375-24.463L267.674 15l16.277 25.907zm-1.728-.358l-1.357-2.158-6.426 4.42 1.444 2.1 6.339-4.362zm-7.389 5.084l-2.887-4.198-1.05.722 2.888 4.197 1.049-.721zm-2.098 1.443l-1.444-2.099-6.427 4.422 1.531 2.038 6.34-4.36zm-23.183-18.063l14.546 19.366 6.471-4.451-1.444-2.099a.636.636 0 0 1 1.049-.721.637.637 0 0 1 1.05-.722.636.636 0 1 1 1.049-.722l1.444 2.098 6.47-4.45-12.885-20.51-17.75 12.211z" fill="#fff"/><path d="M268.705 34.904l-5.555-2.677.195 3.125-7.081-3.227 2.749-1.891 3.847-2.647 4.948-3.404.897 10.721zm-9.864-3.005l3.1 1.413-.106-1.719-1.5-.722-1.494 1.028zm2.703-1.86l5.706 2.75-.528-6.312-5.178 3.563z" fill="#fff"/><g clip-path="url(#e)"><path d="M22.715 151.636a4.072 4.072 0 0 1 4.95-3.978l2.699-2.699-7.325-7.326a3.25 3.25 0 0 1 4.595-4.595l7.325 7.326 8.344-8.344a2.159 2.159 0 0 1 1.531-.634 2.167 2.167 0 0 1 1.532 3.698l-8.344 8.343 7.893 7.892v4.595h-4.596l-7.892-7.892-2.675 2.676c.071.301.11.615.11.938 0 4.613-6.803 4.979-9.052 4.979-2.25 0 .905-2.729.905-4.979zm2.62-18.467a2.169 2.169 0 0 0-1.531 3.698l.766.766 3.064-3.064-.766-.765a2.154 2.154 0 0 0-1.532-.635zm20.266 1.148a1.084 1.084 0 0 0-1.533-1.531l-8.343 8.343 1.532 1.532 8.344-8.344zm-.77 20.514v-.897l-.897.897h.897zm-3.063 0h.634l2.429-2.429v-.634l-16.432-16.433-1.152 1.153 14.835 14.834a.541.541 0 1 1-.766.766l-14.835-14.835-1.145 1.146 16.432 16.432zm-9.106-7.575l-1.532-1.531-2.355 2.355a4.096 4.096 0 0 1 1.542 1.521l2.345-2.345zm-5.829 7.573c.942-.318 1.668-.731 2.158-1.229.53-.537.787-1.179.787-1.964a2.97 2.97 0 0 0-.876-2.114 2.993 2.993 0 0 0-5.104 2.114c0 1.233-.657 2.436-1.186 3.402-.078.144-.173.318-.26.486 1.166-.03 2.932-.173 4.481-.695z" fill="url(#f)" style="mix-blend-mode:multiply"/></g><g clip-path="url(#g)"><path d="M112.314 113.447l-47.894 13.57-2.915-10.284 47.895-13.571 2.914 10.285zm-46.666 11.372l3.378-.958-.487-1.714a.893.893 0 0 1 .615-1.101.894.894 0 0 1 1.1.615v.001l.485 1.713 3.429-.971-.486-1.714a.89.89 0 1 1 1.714-.486l.486 1.715 3.428-.972-.485-1.714v-.001a.89.89 0 0 1 1.714-.485v.001l.486 1.713 3.428-.972-.486-1.713a.892.892 0 0 1 .615-1.101.893.893 0 0 1 1.1.615l.485 1.714 3.428-.971-.486-1.714a.89.89 0 1 1 1.715-.486l.485 1.715 3.428-.972-.485-1.715a.89.89 0 1 1 1.714-.485l.486 1.714 3.428-.972-.486-1.713a.892.892 0 0 1 1.715-.487l-.001.002.486 1.713 3.429-.971-.485-1.713-.001-.001a.89.89 0 0 1 1.714-.486l.486 1.713 3.377-.956-1.942-6.857-44.467 12.6 1.943 6.857z" fill="url(#h)" style="mix-blend-mode:multiply"/></g><path d="M73.757 28.783l14.047-17.405a.486.486 0 0 1 .684-.073l12.107 9.772a.485.485 0 0 1 .073.683L95.6 28.04l2.636 1.38.122-.152a.487.487 0 0 1 .757.61l-4.886 6.055a.486.486 0 0 1-.757-.61l.122-.152-1.904-2.286-5.069 6.28a.486.486 0 0 1-.683.073L73.83 29.467a.486.486 0 0 1-.073-.684zm23.856 1.408l-2.632-1.377-2.666 3.301 1.902 2.284 3.396-4.208zM74.82 29.015l9.837 7.94 13.435-16.648-9.837-7.94L74.82 29.016zm18.068.837l6.718-8.323-.757-.61-6.718 8.323-6.717 8.323.757.61 6.717-8.323z" fill="url(#i)" style="mix-blend-mode:multiply"/><path d="M92.205 29.925a.486.486 0 1 1 .609-.756.486.486 0 0 1-.61.756z" fill="url(#j)" style="mix-blend-mode:multiply"/><path d="M88.852 14.724l-9.16 11.35h-.001a.486.486 0 0 1-.757-.61l9.16-11.35a.487.487 0 1 1 .758.61z" fill="url(#k)" style="mix-blend-mode:multiply"/><path d="M90.365 15.946l-4.885 6.053a.486.486 0 1 1-.757-.61l4.885-6.054a.487.487 0 1 1 .757.611z" fill="url(#l)" style="mix-blend-mode:multiply"/><path d="M91.88 17.168l-6.717 8.323a.486.486 0 1 1-.757-.61l6.717-8.324a.487.487 0 1 1 .757.61z" fill="url(#m)" style="mix-blend-mode:multiply"/><path d="M93.392 18.389l-4.274 5.296a.486.486 0 1 1-.757-.61l4.274-5.297a.487.487 0 1 1 .757.61z" fill="url(#n)" style="mix-blend-mode:multiply"/><path d="M94.906 19.61l-7.94 9.837h.001a.487.487 0 1 1-.757-.61L94.15 19a.486.486 0 1 1 .756.61z" fill="url(#o)" style="mix-blend-mode:multiply"/><path d="M96.42 20.832l-2.443 3.026a.486.486 0 1 1-.757-.61l2.442-3.027a.487.487 0 1 1 .757.611z" fill="url(#p)" style="mix-blend-mode:multiply"/><path d="M163.286 153.114l3.8-4 4.325 13.009-5.737-1.28-8.032-1.791-10.326-2.303 12.763-14.016 3.207 10.381zm5.265 6.426l-2.269-6.824-2.354 2.478 1.1 3.56 3.523.786zm-5.658-1.262l-3.647-11.809-8.323 9.139 11.97 2.67z" fill="#fff"/><path d="M153.712 128.08l.422-1.894a.959.959 0 0 1 1.137-.739.96.96 0 0 1 .716 1.153l-.422 1.893 3.707.827.422-1.893a.96.96 0 0 1 1.137-.74c.513.114.833.63.716 1.153l-.422 1.893 3.707.827.422-1.893a.96.96 0 0 1 1.137-.74.96.96 0 0 1 .717 1.153l-.423 1.893 3.707.827.422-1.893a.96.96 0 0 1 1.138-.74.96.96 0 0 1 .716 1.153l-.422 1.893 3.707.827.422-1.893a.96.96 0 0 1 1.137-.74.961.961 0 0 1 .717 1.154l-.423 1.893 5.561 1.24-9.289 41.645-35.215-7.855 9.288-41.645 5.561 1.241zm-12.583 38.963l31.509 7.028 8.462-37.937-3.707-.827-.405 1.814a.96.96 0 0 1-1.138.74.959.959 0 0 1-.715-1.153l.404-1.814-3.707-.827-.404 1.814a.96.96 0 0 1-1.138.74.961.961 0 0 1-.716-1.154l.405-1.813-3.707-.827-.405 1.814a.96.96 0 0 1-1.138.74.96.96 0 0 1-.715-1.154l.404-1.814-3.706-.826-.405 1.813a.959.959 0 0 1-1.138.74.959.959 0 0 1-.715-1.153l.405-1.814-3.708-.826-.404 1.813a.96.96 0 0 1-1.139.74.958.958 0 0 1-.714-1.153l.404-1.814-3.707-.827-8.462 37.937z" fill="#fff"/><path d="M142.769 54.435l22.736 20.005c.273.24.3.656.06.93l-13.916 15.816a.66.66 0 0 1-.93.06l-8.203-7.219-2.018 3.486.198.174a.659.659 0 0 1-.87.989l-7.909-6.959a.658.658 0 0 1 .87-.988l.198.174 3.202-2.444-8.205-7.22a.659.659 0 0 1-.059-.928l13.917-15.817c.24-.273.656-.3.929-.06zm-3.279 32.192l2.015-3.482-4.313-3.797-3.199 2.442 5.497 4.837zM138.044 60.8l2.966 2.61 4.349-4.943-2.966-2.61-4.349 4.943zm2.096 3.598l-2.965-2.61-6.089 6.92 2.966 2.61 6.088-6.92zm6.207-5.062L135.04 72.188l17.794 15.656 11.307-12.85-17.794-15.657zm-6.126 20.917l10.873 9.568.87-.989-10.873-9.567-10.875-9.568-.869.989 10.874 9.567z" fill="url(#q)" style="mix-blend-mode:multiply"/><path d="M140.163 79.325a.658.658 0 1 1 .988.868.658.658 0 0 1-.988-.868z" fill="url(#r)" style="mix-blend-mode:multiply"/><path d="M146.86 75.555l-3.389-2.982 7.652-2.621-.932 4.541 2.243-.715-1.054 5.754-1.883-1.657-2.637-2.32zm2.51-3.61l-3.325 1.139 2.618 2.303.707-3.443zm1.133 5.062l.24-1.308-.856.273-.085.417.701.618z" fill="url(#s)" style="mix-blend-mode:multiply"/><path d="M158.449 73.49l.988.87-.87.99-.988-.87.87-.99z" fill="url(#t)" style="mix-blend-mode:multiply"/><path d="M153.012 68.708l.989.87-.87.988-.988-.87.869-.988z" fill="url(#u)" style="mix-blend-mode:multiply"/><path d="M147.576 63.924l.989.87-.87.989-.989-.87.87-.989z" fill="url(#v)" style="mix-blend-mode:multiply"/><path d="M144.096 67.878l.989.87-.87.989-.989-.87.87-.989z" fill="url(#w)" style="mix-blend-mode:multiply"/><path d="M140.616 71.832l.989.87-.87.99-.989-.871.87-.989z" fill="url(#x)" style="mix-blend-mode:multiply"/><path d="M151.489 81.4l.988.869-.87.989-.988-.87.87-.989z" fill="url(#y)" style="mix-blend-mode:multiply"/><path d="M154.969 77.445l.988.87-.87.988-.988-.87.87-.988z" fill="url(#z)" style="mix-blend-mode:multiply"/><path d="M146.053 76.616l.988.87-.87.989-.988-.87.87-.989z" fill="url(#A)" style="mix-blend-mode:multiply"/><circle r="10.5" transform="matrix(-1 0 0 1 15.5 94.5)" stroke="url(#B)" stroke-width="10" style="mix-blend-mode:multiply"/><path d="M12.803 44.78c.53.27 4.31 4.008 5.58-2.405 1.27-6.414 4.795-6.788 10.482-5.336 5.687 1.452 7.878-1.655 9.125-4.338" stroke="url(#C)" stroke-width="8" stroke-linecap="round" stroke-linejoin="round" style="mix-blend-mode:multiply"/></g><defs><linearGradient id="a" x1="193.455" y1="57.846" x2="232.749" y2="69.428" gradientUnits="userSpaceOnUse"><stop stop-color="#FFC000"/><stop offset="1" stop-color="#FF8A00"/></linearGradient><linearGradient id="b" x1="85.424" y1="184.433" x2="84.155" y2="150.006" gradientUnits="userSpaceOnUse"><stop stop-color="#FFC000"/><stop offset="1" stop-color="#FF8A00"/></linearGradient><linearGradient id="c" x1="129.351" y1="12.677" x2="159.835" y2="21.341" gradientUnits="userSpaceOnUse"><stop stop-color="#FFC000"/><stop offset="1" stop-color="#FF8A00"/></linearGradient><linearGradient id="d" x1="174.494" y1=".846" x2="216.555" y2="14.306" gradientUnits="userSpaceOnUse"><stop stop-color="#FFC000"/><stop offset="1" stop-color="#FF8A00"/></linearGradient><linearGradient id="f" x1="21.338" y1="131.996" x2="50.385" y2="140.819" gradientUnits="userSpaceOnUse"><stop stop-color="#FFC000"/><stop offset="1" stop-color="#FF8A00"/></linearGradient><linearGradient id="h" x1="114.826" y1="106.828" x2="79.067" y2="141.842" gradientUnits="userSpaceOnUse"><stop stop-color="#FFC000"/><stop offset="1" stop-color="#FF8A00"/></linearGradient><linearGradient id="i" x1="74.027" y1="29.235" x2="96.794" y2="14.744" gradientUnits="userSpaceOnUse"><stop stop-color="#FFC000"/><stop offset="1" stop-color="#FF8A00"/></linearGradient><linearGradient id="j" x1="91.853" y1="29.625" x2="92.788" y2="28.977" gradientUnits="userSpaceOnUse"><stop stop-color="#FFC000"/><stop offset="1" stop-color="#FF8A00"/></linearGradient><linearGradient id="k" x1="78.774" y1="25.699" x2="82.285" y2="27.483" gradientUnits="userSpaceOnUse"><stop stop-color="#FFC000"/><stop offset="1" stop-color="#FF8A00"/></linearGradient><linearGradient id="l" x1="84.507" y1="21.693" x2="88.084" y2="22.873" gradientUnits="userSpaceOnUse"><stop stop-color="#FFC000"/><stop offset="1" stop-color="#FF8A00"/></linearGradient><linearGradient id="m" x1="84.214" y1="25.155" x2="87.777" y2="26.676" gradientUnits="userSpaceOnUse"><stop stop-color="#FFC000"/><stop offset="1" stop-color="#FF8A00"/></linearGradient><linearGradient id="n" x1="88.137" y1="23.389" x2="91.701" y2="24.406" gradientUnits="userSpaceOnUse"><stop stop-color="#FFC000"/><stop offset="1" stop-color="#FF8A00"/></linearGradient><linearGradient id="o" x1="86.034" y1="29.093" x2="89.572" y2="30.764" gradientUnits="userSpaceOnUse"><stop stop-color="#FFC000"/><stop offset="1" stop-color="#FF8A00"/></linearGradient><linearGradient id="p" x1="92.972" y1="23.592" x2="96.293" y2="23.868" gradientUnits="userSpaceOnUse"><stop stop-color="#FFC000"/><stop offset="1" stop-color="#FF8A00"/></linearGradient><linearGradient id="q" x1="142.142" y1="54.774" x2="160.436" y2="86.408" gradientUnits="userSpaceOnUse"><stop stop-color="#FFC000"/><stop offset="1" stop-color="#FF8A00"/></linearGradient><linearGradient id="r" x1="140.589" y1="78.866" x2="141.411" y2="80.169" gradientUnits="userSpaceOnUse"><stop stop-color="#FFC000"/><stop offset="1" stop-color="#FF8A00"/></linearGradient><linearGradient id="s" x1="148.101" y1="67.519" x2="153.033" y2="78.191" gradientUnits="userSpaceOnUse"><stop stop-color="#FFC000"/><stop offset="1" stop-color="#FF8A00"/></linearGradient><linearGradient id="t" x1="158.441" y1="73.526" x2="159.262" y2="74.829" gradientUnits="userSpaceOnUse"><stop stop-color="#FFC000"/><stop offset="1" stop-color="#FF8A00"/></linearGradient><linearGradient id="u" x1="153.004" y1="68.743" x2="153.826" y2="70.046" gradientUnits="userSpaceOnUse"><stop stop-color="#FFC000"/><stop offset="1" stop-color="#FF8A00"/></linearGradient><linearGradient id="v" x1="147.567" y1="63.959" x2="148.39" y2="65.263" gradientUnits="userSpaceOnUse"><stop stop-color="#FFC000"/><stop offset="1" stop-color="#FF8A00"/></linearGradient><linearGradient id="w" x1="144.088" y1="67.913" x2="144.91" y2="69.218" gradientUnits="userSpaceOnUse"><stop stop-color="#FFC000"/><stop offset="1" stop-color="#FF8A00"/></linearGradient><linearGradient id="x" x1="140.608" y1="71.867" x2="141.43" y2="73.172" gradientUnits="userSpaceOnUse"><stop stop-color="#FFC000"/><stop offset="1" stop-color="#FF8A00"/></linearGradient><linearGradient id="y" x1="151.481" y1="81.435" x2="152.303" y2="82.738" gradientUnits="userSpaceOnUse"><stop stop-color="#FFC000"/><stop offset="1" stop-color="#FF8A00"/></linearGradient><linearGradient id="z" x1="154.961" y1="77.481" x2="155.782" y2="78.784" gradientUnits="userSpaceOnUse"><stop stop-color="#FFC000"/><stop offset="1" stop-color="#FF8A00"/></linearGradient><linearGradient id="A" x1="146.045" y1="76.652" x2="146.866" y2="77.955" gradientUnits="userSpaceOnUse"><stop stop-color="#FFC000"/><stop offset="1" stop-color="#FF8A00"/></linearGradient><linearGradient id="B" x1="30.597" y1=".75" x2="-4.206" y2="11.008" gradientUnits="userSpaceOnUse"><stop stop-color="#FFC000"/><stop offset="1" stop-color="#FF8A00"/></linearGradient><linearGradient id="C" x1="37.503" y1="32.779" x2="18.499" y2="49.722" gradientUnits="userSpaceOnUse"><stop stop-color="#FFC000"/><stop offset="1" stop-color="#FF8A00"/></linearGradient><clipPath id="e"><path fill="#fff" transform="matrix(-1 0 0 1 47 131)" d="M0 0h26v26H0z"/></clipPath><clipPath id="g"><path fill="#fff" transform="scale(1 -1) rotate(60.82 170.402 8.97)" d="M0 0h42.758v42.758H0z"/></clipPath></defs></svg>