<svg width="371" height="283" viewBox="0 0 371 283" fill="none" xmlns="http://www.w3.org/2000/svg"><ellipse opacity=".2" cx="250.85" cy="265.836" rx="112.255" ry="16.653" fill="#6B6B6B"/><ellipse opacity=".2" cx="43.626" cy="265.836" rx="43.626" ry="16.653" fill="#6B6B6B"/><path d="M41.204 145.994v66.811s-16.629-42.645-17.27-43.262c-.642-.617 5.082-16.579 5.082-16.579l12.188-6.97z" fill="#FFC289"/><path d="M138.335 140.936c25.659 11.744 37.686 26.608 49.899 40.942 12.212 14.335 32.64-27.003 32.258-28.026-.383-1.024-45.001-52.008-45.001-52.008l-37.156 39.092zm61.562 119.434c1.51-6.371-5.693-13.533-16.089-15.996-10.395-2.464-20.046.704-21.555 7.075-1.51 6.371 5.693 13.533 16.088 15.996 10.395 2.464 20.046-.704 21.556-7.075z" fill="#2F2F2F"/><path d="M230.162 269.351c-41.201 0-66.785-22.475-66.785-58.644 0-22.55 10.547-32.443 19.848-41.177 2.788-2.615 5.428-5.094 7.586-7.746-.308-21.366-13.668-24.561-21.612-24.561-7.796 0-16.9 3.195-22.143 7.784-4.515 3.947-4.934 11.077-5.341 17.973-.58 9.856-1.184 20.046-14.174 20.046-13.384 0-32.813-17.813-32.813-45.729 0-44.298 16.061-80.713 46.444-105.323C165.757 12.052 199.064.63 232.556.63c15.444 0 55.054 2.776 89.175 28.545 32.282 24.363 48.64 60.741 48.64 108.123 0 44.779-13.829 78.986-41.091 101.696-23.869 19.861-58.138 30.358-99.118 30.358z" fill="#fff"/><path d="M140.778 31.48l.314.39c-30.397 24.624-46.48 61.06-46.48 105.415 0 12.565 3.988 24.392 11.224 33.299v.001c6.408 7.9 14.544 12.545 21.718 12.545 3.325 0 5.816-.671 7.7-1.792 1.88-1.12 3.191-2.711 4.122-4.613 1.877-3.84 2.184-8.885 2.469-13.749v-.001l.499.03-1.566-131.524zm0 0l.314.39C165.694 11.936 199.024.5 232.543.5c15.465 0 55.104 2.784 89.269 28.555 14.914 11.265 26.606 25.427 34.75 42.083l.449-.22-.449.22c9.25 18.905 13.938 41.155 13.938 66.134 0 44.858-13.865 79.066-41.132 101.781l.32.384-.321-.384c-23.853 19.876-58.144 30.403-99.192 30.403-19.197 0-35.557-5.06-47.351-14.581l-.315.389.315-.389c-12.782-10.316-19.552-25.583-19.552-44.18 0-11.319 2.64-19.431 6.428-25.801 3.795-6.382 8.755-11.041 13.46-15.455v-.001l.124-.116c2.651-2.494 5.196-4.887 7.308-7.442l.118-.143M140.778 31.481l49.932 130.256m0 0l-.003-.185m.003.185l-.003-.185m0 0c-.2-10.423-3.567-16.511-7.949-19.978-4.362-3.451-9.643-4.234-13.546-4.234-9.068 0-17.782 3.993-22.065 7.747l43.56 16.465zm179.535-24.267c0-52.96-20.901-87.124-48.597-108.032C293.972 8.362 259.559.733 232.543.733c-29.947 0-64.363 9.493-91.304 31.315-26.958 21.836-46.4 55.992-46.406 105.237 0 13.827 4.728 25.216 11.167 33.154 6.426 7.921 14.604 12.458 21.529 12.458 5.433 0 8.747-1.799 10.762-4.74 1.982-2.893 2.651-6.816 3.005-10.932.122-1.418.207-2.856.292-4.294.164-2.792.329-5.582.765-8.217.656-3.971 1.912-7.437 4.613-9.799 4.815-4.21 13.689-7.809 22.221-7.809 5.575 0 10.946 1.533 14.947 5.371 3.971 3.809 6.662 9.957 6.792 19.342-2.149 2.64-4.782 5.109-7.556 7.711-9.167 8.599-19.889 18.655-19.889 41.177 0 19.599 7.402 34.253 19.472 43.998 12.055 9.732 28.719 14.53 47.197 14.53 38.639 0 73.666-9.216 99.042-30.346 25.391-21.144 41.05-54.16 41.05-101.604z" fill="#0064DA" stroke="#6B6B6B"/><path d="M293.495 213.545c3.491-61.174-44.421-79.196-83.439-70.586-6.662 1.468-22.217 4.071-29.051 15.827-2.8 4.823 1.098 11.312-.518 13.323" fill="#fff"/><path d="M293.495 213.545c3.491-61.174-44.421-79.196-83.44-70.586-6.661 1.468-22.216 4.071-29.05 15.827-2.8 4.823 1.098 11.312-.518 13.323" stroke="#6B6B6B" stroke-miterlimit="10" stroke-linecap="round" stroke-linejoin="round"/><path d="M191.12 168.433c4.687 0 8.487-2.16 8.487-4.824 0-2.663-3.8-4.823-8.487-4.823s-8.487 2.16-8.487 4.823c0 2.664 3.8 4.824 8.487 4.824zm53.266 35.909c-1.295 10.214-11.324 6.933-21.119 12.299-7.648 4.194-12.804 11.398-18.577 11.398-7.143 0-10.227-8.549-5.971-19.824 5.045-13.371 15.926-18.121 24.82-18.121 13.15 0 21.883 6.069 20.847 14.248zm-79.849 15.111c6.279 1.962 11.916-4.49 12.261-15.876.247-8.043-2.368-14.26-6.167-18.763-3.899 6.39-6.649 14.52-6.649 25.893.012 3.047.209 5.946.555 8.746zm70.696 54.537c13.285 0 24.055-6.606 24.055-14.754s-10.77-14.754-24.055-14.754-24.055 6.606-24.055 14.754 10.77 14.754 24.055 14.754z" fill="#2F2F2F"/><path d="M32.618 155.246c4.86-1.678 8.586-9.252 8.586-9.252h-8.586c-8.66 11.102-17.369 12.792-17.369 12.792s35.12 1.53 69.488 14.865v96.688l5.613-3.726v-96.601c-10.671-4.947-35.7-12.731-57.732-14.766z" fill="#FFD1A7"/><path d="M345.206 53.772c-28.804-39.302-77.135-52.55-112.662-52.55-59.718 0-137.199 37.858-137.199 136.051 0 27.422 18.751 45.111 32.197 45.111 21.23 0 7.784-27.952 19.108-37.858 9.165-8.018 32.591-13.754 41.374 2.257-3.516-22.784.987-36.316 12.138-38.179 11.152-1.862 19.368 11.152 19.368 11.152-.963 21.76-3.985 39.005 10.621 41.929 14.593 2.924 32.11-13.002 44.581-32.912 12.471-19.91 33.467-43.853 65.552-52.55 13.397-3.602 11.09-13.261 4.922-22.451z" fill="#2F2F2F"/><path d="M149.24 142.577c9.104-6.007 25.807-9.498 35.231-.456" stroke="#fff" stroke-miterlimit="10" stroke-linecap="round" stroke-linejoin="round"/><path d="M129.137 176.597c6.643-3.836 6.508-16.506-.301-28.3-6.81-11.794-17.715-18.246-24.359-14.41-6.643 3.836-6.508 16.506.301 28.3 6.81 11.794 17.715 18.245 24.359 14.41zm122.457-45.445c3.387-14.294.082-27.315-7.383-29.084-7.465-1.769-16.263 8.384-19.65 22.678-3.387 14.293-.081 27.314 7.384 29.083 7.465 1.769 16.262-8.384 19.649-22.677z" fill="#FFAA5B"/><path d="M238.008 93.493c41.732-11.189 36.995 96.601 87.153 96.601 16.986 0 28.927-12.866 28.927-37.155 0-38.475-40.079-87.313-96.86-87.313-22.032 0-32.912 16.85-30.322 25.03 1.332 4.243 5.638 4.305 11.102 2.837z" fill="#2F2F2F"/><path d="M317.007 86.153c-16.049-12.324-36.514-20.527-59.779-20.527-22.032 0-32.912 16.85-30.322 25.03 1.332 4.243 5.65 4.292 11.102 2.824 18.43-4.946 27.793 13.323 36.835 35.256" stroke="#fff" stroke-miterlimit="10" stroke-linecap="round" stroke-linejoin="round"/><path d="M95.543 96.688c-5.786 7.759-6.908 16.69-2.53 19.959 4.392 3.269 10.042-3.269 18.418-8.117 8.685-5.033 7.056-16.888 2.529-19.96-8.968-6.093-12.644.359-18.417 8.118z" fill="#2F2F2F"/><path d="M96.455 117.461c3.849-.617 8.635-5.255 14.964-8.931 8.684-5.033 7.056-16.888 2.529-19.96-4.478-3.046-7.636-2.947-10.399-1.134" stroke="#fff" stroke-miterlimit="10" stroke-linecap="round" stroke-linejoin="round"/><path d="M204.566 211.978c-1.159 1.776-.962 4.268-.962 4.268m-33.307-11.768c-1.159 1.776-.962 4.268-.962 4.268" stroke="#fff" stroke-width="2" stroke-miterlimit="10" stroke-linecap="round" stroke-linejoin="round"/><path d="M84.724 270.338v-96.687c-34.355-13.335-69.487-14.865-69.487-14.865v97.169c34.367 1.332 69.487 14.383 69.487 14.383z" fill="#FFAA5B" stroke="#FF7A00" stroke-miterlimit="10" stroke-linecap="round" stroke-linejoin="round"/><path d="M15.237 158.786c8.586-1.332 17.369-12.792 17.369-12.792" stroke="#FF7A00" stroke-miterlimit="10" stroke-linecap="round" stroke-linejoin="round"/><path d="M54.822 241.053a4.62 4.62 0 0 1-.814-.087l-9.092-1.554c-1.171-.197-2.282-.568-2.874-2.887l-11.694-48.331c-.123-.506-.358-1.48.185-2.147.21-.259.604-.567 1.357-.567.173 0 .382.012.604.062l7.069 1.209c2.084.357 2.491 1.949 2.714 2.8l1.455 5.798c.198.74.518.801.95.875l9.881 1.69a.886.886 0 0 0 .185.013c.21 0 .481-.062.555-.383l1.37-5.477c.332-1.616 1.381-1.961 2.195-1.961.185 0 .383.012.592.049l6.995 1.197c.69.123 1.196.419 1.517.888.543.814.296 1.838.21 2.233l-11.115 44.421c-.32 1.443-1.06 2.159-2.245 2.159zm-8.19-33.418l3.108 13.014 2.701-11.793c.062-.234.074-.37.062-.419l-5.909-.999c0 .061.012.123.037.197z" fill="#fff"/><path d="M31.89 186.085c.148 0 .308.012.506.049l7.068 1.209c1.727.296 2.023 1.567 2.233 2.405l1.443 5.736c.284 1.061.864 1.234 1.443 1.333l9.881 1.69c.099.012.198.024.296.024.58 0 1.024-.32 1.148-.863l1.369-5.465c.123-.617.432-1.492 1.604-1.492.148 0 .308.012.493.049l6.994 1.196c1.666.284 1.37 1.752 1.222 2.369l-11.115 44.409c-.333 1.369-.95 1.69-1.665 1.69-.235 0-.469-.037-.716-.074l-9.091-1.555c-1.086-.185-1.875-.468-2.381-2.43L30.94 188.046c-.123-.543-.481-1.961.95-1.961zm17.874 35.847c.185 0 .321-.197.457-.641l2.812-12.287c.074-.271.284-1.036-.505-1.171l-5.983-1.024c-.062-.013-.111-.013-.16-.013-.605 0-.408.728-.346 1.012l3.17 13.31c.148.531.284.765.506.802.012.012.037.012.05.012zM31.89 184.851c-1 0-1.554.444-1.85.814-.716.913-.432 2.122-.296 2.64l11.694 48.356c.617 2.418 1.8 3.084 3.367 3.356l9.092 1.554c.271.049.58.099.925.099 1.024 0 2.344-.457 2.862-2.628l11.102-44.396c.111-.481.395-1.703-.296-2.727-.284-.431-.851-.974-1.924-1.159l-6.995-1.197a4.783 4.783 0 0 0-.703-.061c-.85 0-2.356.32-2.812 2.479l-1.345 5.342h-.062l-9.88-1.69c-.358-.062-.358-.062-.457-.445l-1.431-5.711-.012-.074c-.222-.851-.728-2.825-3.208-3.244l-7.068-1.209c-.234-.087-.481-.099-.703-.099zm17.825 33.097l-2.319-9.745 4.38.752-2.06 8.993z" fill="#FF7A00"/></svg>