<svg width="182" height="281" viewBox="0 0 182 281" fill="none" xmlns="http://www.w3.org/2000/svg"><path d="M109.031 242c4.162-.23 8.26-1.93 11.441-5.102 6.858-6.84 6.858-17.928 0-24.768a17.533 17.533 0 0 0-12.419-5.13 17.53 17.53 0 0 0-12.418 5.13 17.429 17.429 0 0 0-5.117 11.409L109.031 242zm3.949-23.337h3.478l-3.687 6.128-1.692-2.811 1.901-3.317zm-1.685 0l-5.842 10.193-5.841-10.193h11.683zm-17.034 6.545a16.016 16.016 0 0 1 8.618 4.466 15.903 15.903 0 0 1 3.701 5.732c.349.935.609 1.891.778 2.863l-13.097-13.061zm-.952-7.154a15.994 15.994 0 0 1 3.36-4.892 16 16 0 0 1 5.325-3.527 16.09 16.09 0 0 1 6.059-1.175c2.092 0 4.13.395 6.059 1.175a15.982 15.982 0 0 1 5.324 3.527 15.943 15.943 0 0 1 3.537 5.31 15.95 15.95 0 0 1 1.179 6.042 15.95 15.95 0 0 1-1.179 6.042c-.809 1.99-2 3.777-3.537 5.31a16.025 16.025 0 0 1-9.846 4.629l-.568-.566a17.424 17.424 0 0 0-3.117-8.92l4.343-7.577 2.523 4.196 6.272-10.425H97.09l6.234 10.878a17.519 17.519 0 0 0-10.728-4.533l-.569-.567c.162-1.706.593-3.36 1.282-4.927z" fill="url(#a)" style="mix-blend-mode:multiply"/><path d="M-6.97 75.125l-.698 1.74-.232.581-.233.58c1.589.632 2.358 2.448 1.718 4.047-.641 1.6-2.454 2.388-4.042 1.757l-.233.58-.232.58-.698 1.742 1.353 9.957 7.265.197.243-3.94 13.246 5.267 6.51-16.25L3.75 76.697l2.547-3.024-5.406-4.84-7.861 6.293zm11.537-1.323l-1.763 2.092-1.117 1.328 1.598.635 12.094 4.81-5.58 13.928-12.093-4.81-1.598-.635L-4 92.879l-.168 2.727-5.01-.136-1.167-8.588.641-1.602a4.386 4.386 0 0 0 4.44-2.749 4.358 4.358 0 0 0-1.32-5.038l.64-1.602L.84 70.463l3.728 3.34z" fill="url(#b)" style="mix-blend-mode:multiply"/><path d="M2.676 86.757l-2.193.365 3.324 4.398.885-2.21 1.24-3.096 1.594-3.98-7.559 1.096 2.709 3.427zm.8 2.255l-.755-1 .837-.139.248.315-.33.824zm.866-2.16l-2.054-2.599 3.285-.476-1.231 3.074z" fill="url(#c)" style="mix-blend-mode:multiply"/><g clip-path="url(#d)"><path d="M47 234.95l8.727 9.05-6.613 6.859c-1.319 1.367-1.319 3.583 0 4.949a3.303 3.303 0 0 0 2.386 1.026c.863 0 1.728-.342 2.387-1.026l6.613-6.858 8.727 9.05L74 253.051 65.273 244l7.602-7.883v-4.95h-4.773l-7.602 7.884L51.773 230 47 234.95zm9.523 9.875l1.19 1.234-5.023 5.209-1.19-1.234 5.023-5.209zm-3.432 10.159a2.198 2.198 0 0 1-3.182 0 2.399 2.399 0 0 1 0-3.3l.796-.825 3.182 3.3-.796.825zm1.59-1.65l-1.195-1.241 5.022-5.209 1.197 1.241-5.023 5.209zm14.546 3.016l-1.568-1.625.796-.825a.6.6 0 0 0 0-.825.549.549 0 0 0-.796 0v.001l-.795.824-1.59-1.65.794-.825a.598.598 0 0 0 0-.825.548.548 0 0 0-.795 0l-.796.825-1.59-1.65.794-.824.001-.001a.6.6 0 0 0 0-.825.549.549 0 0 0-.796 0l-.795.825-1.591-1.65.795-.825a.598.598 0 0 0 0-.825.55.55 0 0 0-.795 0l-.795.825-1.591-1.65.795-.825a.598.598 0 0 0 0-.825.55.55 0 0 0-.795 0l-.001.001-.795.824-1.591-1.65.796-.824v-.001a.6.6 0 0 0 0-.825.549.549 0 0 0-.796 0l-.795.825-1.592-1.65.796-.824a.598.598 0 0 0 0-.825.547.547 0 0 0-.796 0l-.795.825-1.59-1.65.794-.825a.598.598 0 0 0 0-.825.548.548 0 0 0-.795 0l-.796.825-1.567-1.626 3.182-3.3 20.636 21.401-3.182 3.299zm2.524-24.017v.967l-.933-.967h.933zm-3.183 0h.66l2.523 2.617v.683l-7.274 7.542-1.196-1.241 5.613-5.821a.598.598 0 0 0 0-.825.548.548 0 0 0-.795 0l-5.614 5.821-1.19-1.233 7.273-7.543z" fill="url(#e)" style="mix-blend-mode:multiply"/></g><path d="M56.596 94.393l5.032-4.86a.581.581 0 0 0 .013-.822.585.585 0 0 0-.826-.014l-5.031 4.86a.581.581 0 0 0-.012.823c.223.23.593.237.824.013z" fill="url(#f)" style="mix-blend-mode:multiply"/><path d="M62.44 90.37l-1.677 1.62a.58.58 0 0 0-.013.823c.224.23.593.236.825.012l1.677-1.62a.58.58 0 0 0 .013-.822.584.584 0 0 0-.825-.013z" fill="url(#g)" style="mix-blend-mode:multiply"/><path d="M50.332 102.511l2.017.537-1.178-5.037-1.597 1.542-2.236 2.16-2.876 2.777 6.889 1.992-1.02-3.971zm.17-2.234l.268 1.146-.769-.205-.094-.365.596-.576zm-1.56 1.508l.771 3.011-2.993-.865 2.222-2.146z" fill="url(#h)" style="mix-blend-mode:multiply"/><path d="M53.765 116.576L73.05 97.949a.581.581 0 0 0 .014-.824L61.693 85.417a.585.585 0 0 0-.825-.013l-19.286 18.628a.58.58 0 0 0-.013.822l11.37 11.708a.585.585 0 0 0 .826.014zm.43-2.037l3.507-12.861a.533.533 0 0 1 .293-.283L71 98.309l-16.805 16.23zm7.067-27.893L71.347 97.03l-13.623 3.233c-.258.061-.51.211-.716.409a1.58 1.58 0 0 0-.433.701l-3.674 13.476-10.087-10.386 18.448-17.817z" fill="url(#i)" style="mix-blend-mode:multiply"/><path d="M143.666 246.273c0 7.029 5.686 12.727 12.702 12.727 2.313 0 4.482-.62 6.351-1.703a12.623 12.623 0 0 0 6.35 1.703c7.016 0 12.703-5.698 12.703-12.727 0-4.749-2.596-8.89-6.443-11.077-.754-6.307-6.112-11.196-12.61-11.196-6.498 0-11.856 4.889-12.611 11.196a12.726 12.726 0 0 0-6.442 11.077zm29.919-11.899a12.651 12.651 0 0 0-4.516-.828c-2.313 0-4.481.62-6.35 1.703a12.627 12.627 0 0 0-6.351-1.703c-1.591 0-3.112.293-4.515.828a11.077 11.077 0 0 1 3.007-5.521 11.087 11.087 0 0 1 3.533-2.388c1.37-.58 2.825-.874 4.326-.874 1.501 0 2.956.294 4.326.874a11.087 11.087 0 0 1 3.533 2.388 11.107 11.107 0 0 1 3.007 5.521zm-21.968 1.829a11.03 11.03 0 0 1 4.751-1.067 11.022 11.022 0 0 1 4.865 1.121 12.709 12.709 0 0 0-4.858 9.616 11.14 11.14 0 0 1-1.515-1.271 11.107 11.107 0 0 1-3.243-8.399zm6.351 10.595a11.081 11.081 0 0 1 .86-4.859 11.112 11.112 0 0 1 2.383-3.541c.468-.469.972-.892 1.508-1.266.536.374 1.04.797 1.508 1.266a11.128 11.128 0 0 1 2.383 3.541 11.081 11.081 0 0 1 .859 4.859 11.034 11.034 0 0 1-4.75 1.066 11.034 11.034 0 0 1-4.751-1.066zm4.751 2.657a12.64 12.64 0 0 0 4.514-.829 11.048 11.048 0 0 1-.623 1.981 11.177 11.177 0 0 1-3.891 4.807 11.186 11.186 0 0 1-3.891-4.807 10.972 10.972 0 0 1-.624-1.981c1.403.535 2.925.829 4.515.829zm6.343-3.582a12.708 12.708 0 0 0-4.857-9.616 11.018 11.018 0 0 1 4.864-1.121 11.024 11.024 0 0 1 4.752 1.067 11.087 11.087 0 0 1-.861 4.859 11.088 11.088 0 0 1-2.382 3.54c-.47.471-.977.896-1.516 1.271zm-4.857 10.416a12.715 12.715 0 0 0 4.773-8.485 12.729 12.729 0 0 0 6.436-10.677c.539.376 1.044.8 1.514 1.271a11.079 11.079 0 0 1 2.383 3.541c.579 1.371.873 2.83.873 4.334 0 1.504-.294 2.963-.873 4.334a11.063 11.063 0 0 1-2.383 3.541 11.073 11.073 0 0 1-7.859 3.262 11 11 0 0 1-4.864-1.121zm-18.078-5.682a11.065 11.065 0 0 1-.874-4.334c0-1.504.294-2.963.874-4.334a11.204 11.204 0 0 1 3.896-4.812 12.728 12.728 0 0 0 6.437 10.677 12.715 12.715 0 0 0 4.773 8.485 11.026 11.026 0 0 1-4.865 1.121c-1.501 0-2.957-.294-4.326-.875a11.084 11.084 0 0 1-3.533-2.387 11.076 11.076 0 0 1-2.382-3.541z" fill="url(#j)" style="mix-blend-mode:multiply"/><path d="M106.514 254.986l-7.362-5.05-3.156-2.164-7.363-5.051-18.435 24.473 19.984 13.707 16.332-25.915zm-1.733.358l-1.361 2.159-6.441-4.418 1.448-2.099 6.354 4.358zm-7.406-5.08l-2.897 4.199-1.052-.721 2.897-4.199 1.052.721zm-2.103-1.442l-1.449 2.099-6.441-4.418 1.536-2.039 6.354 4.358zm-23.253 18.074l14.594-19.374 6.486 4.449-1.449 2.099c-.2.29-.127.686.164.885.29.2.688.126.888-.164-.2.29-.126.687.164.886a.64.64 0 0 0 .888-.164c-.2.29-.127.686.164.885.29.2.688.126.888-.163l1.448-2.1 6.485 4.448-12.928 20.516-17.792-12.203z" fill="#fff"/><path d="M91.226 260.995l-5.572 2.679.197-3.125-7.101 3.231 2.755 1.89 3.857 2.646 4.96 3.402.904-10.723zm-9.893 3.01l3.11-1.415-.108 1.719-1.504.723-1.498-1.027zm2.71 1.858l5.723-2.752-.533 6.313-5.19-3.561z" fill="#fff"/><g clip-path="url(#k)"><path d="M47.315 152.732L-.58 139.162l-2.915 10.284L44.4 163.017l2.914-10.285zM.649 141.361l3.377.958-.486 1.714a.893.893 0 0 0 .614 1.1.893.893 0 0 0 1.1-.615v-.001l.486-1.713 3.428.971-.485 1.714a.89.89 0 1 0 1.714.486l.485-1.714 3.429.971-.485 1.714v.001a.89.89 0 1 0 1.713.485l.486-1.714 3.428.972-.485 1.713a.892.892 0 0 0 .614 1.101.893.893 0 0 0 1.1-.614l.486-1.715 3.428.971-.486 1.714a.89.89 0 1 0 1.715.486l.485-1.715 3.428.972-.486 1.715a.89.89 0 1 0 1.714.485l.486-1.714 3.429.972-.486 1.714a.892.892 0 0 0 1.714.486v-.001l.486-1.714 3.428.971-.485 1.713v.001a.89.89 0 1 0 1.715.486l.485-1.713 3.377.957-1.943 6.856-44.466-12.599 1.943-6.857z" fill="url(#l)" style="mix-blend-mode:multiply"/></g><path d="M-12.01 241.213l14.091 17.409a.488.488 0 0 0 .685.073l12.138-9.768a.486.486 0 0 0 .074-.684l-5.084-6.281 2.642-1.378.123.151a.486.486 0 1 0 .759-.611l-4.902-6.056a.488.488 0 0 0-.685-.072.485.485 0 0 0-.074.683l.123.152-1.909 2.285-5.084-6.282a.488.488 0 0 0-.686-.073l-12.138 9.768a.486.486 0 0 0-.073.684zm23.921-1.402l-2.639 1.377-2.674-3.302 1.907-2.283 3.406 4.208zm-22.855 1.17l9.862-7.936 13.477 16.651-9.862 7.936-13.477-16.651zm18.118-.832l6.738 8.326-.759.61-6.738-8.325-6.739-8.326.76-.611 6.738 8.326z" fill="url(#m)" style="mix-blend-mode:multiply"/><path d="M6.49 240.075a.484.484 0 0 0-.074.683.488.488 0 0 0 .759-.61.489.489 0 0 0-.686-.073z" fill="url(#n)" style="mix-blend-mode:multiply"/><path d="M3.127 255.277l-9.186-11.351-.001-.001a.488.488 0 0 0-.759.611l9.187 11.351a.49.49 0 0 0 .686.074.485.485 0 0 0 .073-.684z" fill="url(#o)" style="mix-blend-mode:multiply"/><path d="M4.644 254.055l-4.899-6.054a.487.487 0 0 0-.759.61l4.9 6.054a.49.49 0 0 0 .686.074.485.485 0 0 0 .072-.684z" fill="url(#p)" style="mix-blend-mode:multiply"/><path d="M6.164 252.833l-6.737-8.323v-.001a.486.486 0 1 0-.758.611l6.736 8.323a.488.488 0 0 0 .759-.61z" fill="url(#q)" style="mix-blend-mode:multiply"/><path d="M7.68 251.612l-4.287-5.297a.49.49 0 0 0-.686-.074.485.485 0 0 0-.072.684l4.287 5.297c.17.21.476.243.686.074a.485.485 0 0 0 .072-.684z" fill="url(#r)" style="mix-blend-mode:multiply"/><path d="M9.198 250.39l-7.962-9.837a.486.486 0 1 0-.759.611l7.962 9.837a.486.486 0 1 0 .758-.611z" fill="url(#s)" style="mix-blend-mode:multiply"/><path d="M10.716 249.169l-2.45-3.027a.486.486 0 1 0-.759.611l2.45 3.026a.488.488 0 0 0 .759-.61z" fill="url(#t)" style="mix-blend-mode:multiply"/><path d="M46.68 57.225l3.813 4.004 4.33-13.013-5.752 1.277-8.052 1.788-10.35 2.299L43.47 67.61l3.21-10.385zm5.276-6.426l-2.271 6.825-2.361-2.48 1.1-3.561 3.532-.784zm-5.672 1.26l-3.65 11.813-8.35-9.149 12-2.665z" fill="#fff"/><path d="M37.096 82.26l.425 1.894a.962.962 0 0 0 1.14.741.958.958 0 0 0 .717-1.153l-.424-1.894 3.715-.825.425 1.894a.962.962 0 0 0 1.14.74.958.958 0 0 0 .717-1.153l-.425-1.893 3.715-.825.425 1.894a.963.963 0 0 0 1.14.74.959.959 0 0 0 .718-1.153l-.425-1.894 3.715-.825.425 1.894a.963.963 0 0 0 1.14.74.959.959 0 0 0 .717-1.153l-.424-1.893 3.715-.825.424 1.893a.963.963 0 0 0 1.141.74.959.959 0 0 0 .717-1.152l-.424-1.894 5.573-1.237L57.485 34l-35.294 7.838 9.333 41.66 5.572-1.237zM24.465 43.28l31.579-7.012 8.502 37.95-3.715.826-.407-1.815a.963.963 0 0 0-1.141-.74.959.959 0 0 0-.717 1.153l.407 1.814-3.715.825-.407-1.814a.963.963 0 0 0-1.141-.74.96.96 0 0 0-.717 1.152l.407 1.815-3.715.825-.407-1.815a.963.963 0 0 0-1.141-.74.959.959 0 0 0-.716 1.153l.406 1.814-3.715.825-.406-1.814a.963.963 0 0 0-1.142-.74.958.958 0 0 0-.716 1.152l.407 1.815-3.716.825-.406-1.814a.963.963 0 0 0-1.142-.741.959.959 0 0 0-.715 1.153l.406 1.814-3.716.825-8.501-37.95z" fill="#fff"/><path d="M57.198 215.566l22.796-20.002a.657.657 0 0 0 .06-.929l-13.958-15.82a.662.662 0 0 0-.932-.059l-8.225 7.216-2.024-3.486.198-.174c.274-.24.3-.657.06-.93a.662.662 0 0 0-.932-.059l-7.93 6.957a.657.657 0 0 0-.059.929c.241.273.658.3.932.06l.198-.174 3.212 2.445-8.227 7.217a.657.657 0 0 0-.058.929l13.958 15.82c.24.273.657.3.93.06zm-3.293-32.194l2.02 3.482-4.324 3.797-3.208-2.442 5.512-4.837zm-1.446 25.826l2.974-2.609 4.362 4.944-2.974 2.609-4.362-4.944zm2.101-3.597l-2.973 2.608-6.107-6.92 2.974-2.609 6.106 6.921zm6.225 5.062l-11.34-12.853 17.84-15.653 11.341 12.853-17.84 15.653zm-6.147-20.918l10.902-9.566.873.989-10.902 9.566-10.903 9.566-.872-.989 10.902-9.566z" fill="url(#u)" style="mix-blend-mode:multiply"/><path d="M54.58 190.675c.242.273.658.3.933.059.273-.24.3-.655.059-.928a.661.661 0 0 0-.932-.061.657.657 0 0 0-.06.93z" fill="url(#v)" style="mix-blend-mode:multiply"/><path d="M61.297 194.444l-3.398 2.982 7.673 2.623-.935-4.542 2.25.716-1.059-5.755-1.888 1.657-2.643 2.319zm2.517 3.612l-3.335-1.14 2.625-2.303.71 3.443zm1.136-5.063l.24 1.308-.858-.273-.086-.417.704-.618z" fill="url(#w)" style="mix-blend-mode:multiply"/><path d="M72.918 196.509l.99-.869-.871-.989-.991.869.872.989z" fill="url(#x)" style="mix-blend-mode:multiply"/><path d="M67.467 201.292l.99-.869-.872-.989-.99.87.872.988z" fill="url(#y)" style="mix-blend-mode:multiply"/><path d="M62.015 206.076l.991-.87-.872-.989-.992.87.873.989z" fill="url(#z)" style="mix-blend-mode:multiply"/><path d="M58.525 202.122l.992-.87-.872-.988-.992.87.872.988z" fill="url(#A)" style="mix-blend-mode:multiply"/><path d="M55.035 198.168l.992-.87-.872-.989-.992.87.873.989z" fill="url(#B)" style="mix-blend-mode:multiply"/><path d="M65.939 188.601l.99-.87-.872-.989-.99.87.872.989z" fill="url(#C)" style="mix-blend-mode:multiply"/><path d="M69.429 192.555l.99-.87-.872-.988-.99.869.872.989z" fill="url(#D)" style="mix-blend-mode:multiply"/><path d="M60.488 193.384l.99-.87-.872-.988-.99.869.872.989z" fill="url(#E)" style="mix-blend-mode:multiply"/><path d="M15 10.193v3.913h5.947V21h4.106v-6.894H31v-3.913h-5.947V3h-4.106v7.193H15z" fill="#fff"/><path d="M1.528 4c0 1.506 4.106 14.35-11.908 9.83-16.014-4.519-20.941 3.013-24.226 17.53C-37.891 45.874-47.472 47.243-55 46.97" stroke="url(#F)" stroke-width="8" stroke-linecap="round" stroke-linejoin="round" style="mix-blend-mode:multiply"/><circle cx="116" cy="56" r="10.5" transform="rotate(180 116 56)" stroke="#fff" stroke-width="5"/><defs><linearGradient id="a" x1="90.975" y1="241.154" x2="130.36" y2="229.513" gradientUnits="userSpaceOnUse"><stop stop-color="#FFC000"/><stop offset="1" stop-color="#FF8A00"/></linearGradient><linearGradient id="b" x1="-3.304" y1="67.584" x2="-4.547" y2="102.021" gradientUnits="userSpaceOnUse"><stop stop-color="#FFC000"/><stop offset="1" stop-color="#FF8A00"/></linearGradient><linearGradient id="c" x1="1.484" y1="79.972" x2="1.937" y2="91.099" gradientUnits="userSpaceOnUse"><stop stop-color="#FFC000"/><stop offset="1" stop-color="#FF8A00"/></linearGradient><linearGradient id="e" x1="47.351" y1="257.323" x2="77.835" y2="248.659" gradientUnits="userSpaceOnUse"><stop stop-color="#FFC000"/><stop offset="1" stop-color="#FF8A00"/></linearGradient><linearGradient id="f" x1="56.234" y1="94.704" x2="54.881" y2="90.58" gradientUnits="userSpaceOnUse"><stop stop-color="#FFC000"/><stop offset="1" stop-color="#FF8A00"/></linearGradient><linearGradient id="g" x1="61.168" y1="93.179" x2="61.413" y2="89.997" gradientUnits="userSpaceOnUse"><stop stop-color="#FFC000"/><stop offset="1" stop-color="#FF8A00"/></linearGradient><linearGradient id="h" x1="48.777" y1="108.758" x2="52.675" y2="99.118" gradientUnits="userSpaceOnUse"><stop stop-color="#FFC000"/><stop offset="1" stop-color="#FF8A00"/></linearGradient><linearGradient id="i" x1="53.313" y1="116.424" x2="64.175" y2="87.555" gradientUnits="userSpaceOnUse"><stop stop-color="#FFC000"/><stop offset="1" stop-color="#FF8A00"/></linearGradient><linearGradient id="j" x1="144.161" y1="258.154" x2="186.318" y2="244.626" gradientUnits="userSpaceOnUse"><stop stop-color="#FFC000"/><stop offset="1" stop-color="#FF8A00"/></linearGradient><linearGradient id="l" x1="49.826" y1="159.351" x2="14.068" y2="124.337" gradientUnits="userSpaceOnUse"><stop stop-color="#FFC000"/><stop offset="1" stop-color="#FF8A00"/></linearGradient><linearGradient id="m" x1="-11.739" y1="240.761" x2="11.062" y2="255.31" gradientUnits="userSpaceOnUse"><stop stop-color="#FFC000"/><stop offset="1" stop-color="#FF8A00"/></linearGradient><linearGradient id="n" x1="6.136" y1="240.375" x2="7.072" y2="241.025" gradientUnits="userSpaceOnUse"><stop stop-color="#FFC000"/><stop offset="1" stop-color="#FF8A00"/></linearGradient><linearGradient id="o" x1="-6.979" y1="244.301" x2="-3.464" y2="242.509" gradientUnits="userSpaceOnUse"><stop stop-color="#FFC000"/><stop offset="1" stop-color="#FF8A00"/></linearGradient><linearGradient id="p" x1="-1.23" y1="248.307" x2="2.353" y2="247.121" gradientUnits="userSpaceOnUse"><stop stop-color="#FFC000"/><stop offset="1" stop-color="#FF8A00"/></linearGradient><linearGradient id="q" x1="-1.524" y1="244.845" x2="2.045" y2="243.317" gradientUnits="userSpaceOnUse"><stop stop-color="#FFC000"/><stop offset="1" stop-color="#FF8A00"/></linearGradient><linearGradient id="r" x1="2.41" y1="246.61" x2="5.981" y2="245.588" gradientUnits="userSpaceOnUse"><stop stop-color="#FFC000"/><stop offset="1" stop-color="#FF8A00"/></linearGradient><linearGradient id="s" x1=".301" y1="240.907" x2="3.843" y2="239.229" gradientUnits="userSpaceOnUse"><stop stop-color="#FFC000"/><stop offset="1" stop-color="#FF8A00"/></linearGradient><linearGradient id="t" x1="7.259" y1="246.408" x2="10.588" y2="246.13" gradientUnits="userSpaceOnUse"><stop stop-color="#FFC000"/><stop offset="1" stop-color="#FF8A00"/></linearGradient><linearGradient id="u" x1="56.569" y1="215.227" x2="74.838" y2="183.554" gradientUnits="userSpaceOnUse"><stop stop-color="#FFC000"/><stop offset="1" stop-color="#FF8A00"/></linearGradient><linearGradient id="v" x1="55.009" y1="191.134" x2="55.83" y2="189.829" gradientUnits="userSpaceOnUse"><stop stop-color="#FFC000"/><stop offset="1" stop-color="#FF8A00"/></linearGradient><linearGradient id="w" x1="62.542" y1="202.481" x2="67.466" y2="191.801" gradientUnits="userSpaceOnUse"><stop stop-color="#FFC000"/><stop offset="1" stop-color="#FF8A00"/></linearGradient><linearGradient id="x" x1="72.91" y1="196.474" x2="73.731" y2="195.169" gradientUnits="userSpaceOnUse"><stop stop-color="#FFC000"/><stop offset="1" stop-color="#FF8A00"/></linearGradient><linearGradient id="y" x1="67.458" y1="201.257" x2="68.279" y2="199.952" gradientUnits="userSpaceOnUse"><stop stop-color="#FFC000"/><stop offset="1" stop-color="#FF8A00"/></linearGradient><linearGradient id="z" x1="62.007" y1="206.041" x2="62.828" y2="204.735" gradientUnits="userSpaceOnUse"><stop stop-color="#FFC000"/><stop offset="1" stop-color="#FF8A00"/></linearGradient><linearGradient id="A" x1="58.517" y1="202.087" x2="59.338" y2="200.781" gradientUnits="userSpaceOnUse"><stop stop-color="#FFC000"/><stop offset="1" stop-color="#FF8A00"/></linearGradient><linearGradient id="B" x1="55.027" y1="198.133" x2="55.849" y2="196.827" gradientUnits="userSpaceOnUse"><stop stop-color="#FFC000"/><stop offset="1" stop-color="#FF8A00"/></linearGradient><linearGradient id="C" x1="65.931" y1="188.565" x2="66.752" y2="187.26" gradientUnits="userSpaceOnUse"><stop stop-color="#FFC000"/><stop offset="1" stop-color="#FF8A00"/></linearGradient><linearGradient id="D" x1="69.42" y1="192.519" x2="70.241" y2="191.214" gradientUnits="userSpaceOnUse"><stop stop-color="#FFC000"/><stop offset="1" stop-color="#FF8A00"/></linearGradient><linearGradient id="E" x1="60.48" y1="193.349" x2="61.3" y2="192.044" gradientUnits="userSpaceOnUse"><stop stop-color="#FFC000"/><stop offset="1" stop-color="#FF8A00"/></linearGradient><linearGradient id="F" x1="-54.259" y1="45.96" x2="6.082" y2="22.384" gradientUnits="userSpaceOnUse"><stop stop-color="#FFC000"/><stop offset="1" stop-color="#FF8A00"/></linearGradient><clipPath id="d"><path fill="#fff" transform="rotate(180 37 129)" d="M0 0h27v28H0z"/></clipPath><clipPath id="k"><path fill="#fff" transform="rotate(60.82 -88.855 86.687)" d="M0 0h42.758v42.758H0z"/></clipPath></defs></svg>