<svg width="144" height="72" viewBox="0 0 144 72" fill="none" xmlns="http://www.w3.org/2000/svg"><path d="M83.335 14.389c.15-.651.618-.868 1.937-.868.2 0 .367.033.784.234a742.7 742.7 0 0 1 .25 5.09c.084 1.787.118 2.772.134 2.939h.785c.935 0 1.77-.05 2.504-.134v-2.153c0-2.27.05-4.073.133-5.676.601-.283 1.119-.417 1.67-.417.35.017.684.05 1.168.184-.017.384-.017.918-.034 1.602-.066 2.62-.1 4.424-.1 5.409 0 1.385 0 3.689.017 6.91.017 3.222.017 5.76.017 7.612l-.017 4.073c-.617.284-1.035.4-1.486.4-.283 0-.734-.066-1.352-.183-.05-.017-.066-.017-.083-.017.067-3.054.1-6.16.1-9.297 0-1.386 0-2.521-.017-3.406 0-.884 0-1.77-.016-2.637l-1.72.017c-.6 0-1.101.033-1.569.15v6.627c0 3.221-.117 6.11-.334 8.713-.584.184-1.118.234-1.786.25h-.367l-.484-.317c.15-3.338.234-6.794.234-10.349 0-4.14-.117-8.964-.368-14.756zm19.397 1.001l-.434.952c-.818-.05-1.102-.05-1.486-.05-.868 0-1.702.1-2.553.3.05 2.02.116 3.69.233 5.225h1.886c.351-.017.852-.033 1.519-.067.485.25.702.551.768 1.135-.066.651-.3 1.102-.834 1.503-.868-.067-1.703-.1-2.554-.1h-.785c.05 1.736.067 3.255.067 4.74 0 2.754-.084 5.275-.234 7.629a.13.13 0 0 1 .067.016c1.302.2 2.187.3 2.637.3.752 0 1.419-.1 2.087-.283a4.51 4.51 0 0 1 .534 1.72 3.9 3.9 0 0 1-1.319 1.385c-.534.05-.934.05-1.452.05-2.187 0-4.156-.234-5.775-.651.45-3.606.65-7.412.65-11.735 0-1.135-.033-2.871-.083-5.208a537.59 537.59 0 0 0-.25-8.23c1.87-.266 4.106-.383 7.511-.433.084.267.151.5.151.684 0 .284-.134.668-.351 1.118zm5.425-1.936l.367.3a217.453 217.453 0 0 0-.484 14.223c0 3.655.134 6.677.451 9.498.117-.017.284-.034.501-.05 1.853-.167 2.854-.384 2.971-.651l.117-.017c.317 0 .634.117 1.118.45.334.351.484.752.484 1.27 0 .083-.033.283-.033.366-1.068.651-2.504 1.002-4.858 1.202-1.669-.35-2.52-.784-3.171-1.569a202.28 202.28 0 0 1-.384-12.386c0-4.223.167-8.28.551-12.235.35-.35.734-.518 1.335-.518.334 0 .651.034 1.035.117zm9.815 0l.368.3a216.789 216.789 0 0 0-.485 14.223c0 3.655.134 6.677.451 9.498.117-.017.284-.034.501-.05 1.853-.167 2.854-.384 2.971-.651l.117-.017c.317 0 .634.117 1.118.45.334.351.485.752.485 1.27 0 .083-.034.283-.034.366-1.068.651-2.504 1.002-4.857 1.202-1.67-.35-2.521-.784-3.172-1.569a202.28 202.28 0 0 1-.384-12.386c0-4.223.167-8.28.551-12.235.351-.35.734-.518 1.335-.518.334 0 .651.034 1.035.117zm9.298 3.038c-.25.901-.434 2.07-.551 3.489-.117 1.419-.167 3.455-.167 6.11 0 3.154.1 5.575.284 7.227.184 1.653.501 2.871.918 3.69h.1c.952 0 1.653-.869 2.087-2.605.434-1.736.651-4.523.651-8.346 0-3.69-.184-6.276-.534-7.762-.351-1.502-.952-2.254-1.786-2.254-.351 0-.685.167-1.002.451zm.351 23.32c-2.655 0-4.073-4.808-4.073-13.822 0-3.288.15-5.675.45-7.16.317-1.486.835-2.722 1.569-3.673 1.002-1.319 1.786-1.786 3.038-1.786 3.289 0 4.958 4.123 4.958 12.319 0 3.155-.2 5.708-.584 7.628-.384 1.92-1.002 3.372-1.836 4.374-1.119 1.335-2.404 2.12-3.522 2.12zm10.413 16.403c-.763-10.873-1.106-19.802-1.106-27.242 0-3.853.076-9.004.229-15.376a7.151 7.151 0 0 1 1.717-.19c1.831 0 2.899.42 4.006 1.755.038 1.259.038 2.632.038 4.12.038 1.488.038 3.663.038 6.563 0 10.95-.343 21.099-.954 30.37-.763.65-1.45 1.03-2.022 1.03-.725 0-1.183-.228-1.946-1.03zm-.61 11.828c-.305-1.335-.344-1.793-.344-2.213 0-.229.039-.763.153-1.602.076-.534.114-.916.153-1.183.763-.343 1.449-.496 2.022-.496.419 0 .954 0 1.602.038a19.3 19.3 0 0 0 1.221.038l.611.306c.305 2.022.419 3.052.419 3.7 0 .344-.076.84-.229 1.489-.038.19-.076.305-.076.381-1.183.305-2.022.458-2.594.458-.802 0-1.755-.305-2.938-.916zM86.189 46.646c0 .74 0 1.529-.016 2.382-.017.853-.017 1.32-.017 1.433 0 .95 0 1.947.017 2.961.016 1.015.032 2.238.048 3.67.113.016.193.032.434.032 1.562 0 2.238-1.496 2.238-5.038 0-1.883-.21-3.235-.628-4.056-.402-.82-1.094-1.272-2.076-1.384zm.032 12.86c0 3.88.048 6.697.16 9.192-.643.145-1.174.225-1.609.225-.402 0-.788-.064-1.32-.273.016-1.868.032-3.38.049-4.524.016-1.142.016-2.22.016-3.235 0-1.593-.016-3.863-.032-6.776-.017-2.93-.049-6.198-.097-9.82l.467-.386c2.72 0 4.7.628 5.94 1.9 1.239 1.272 1.866 3.284 1.866 6.068 0 5.038-1.786 7.63-5.311 7.63h-.13zm10.688-10.252a342.446 342.446 0 0 0-.902 5.376c-.273 1.738-.579 3.605-.885 5.601h.193c.628.048 1.063.064 1.336.064.097 0 .306-.016.644-.032.242-.016.435-.032.564-.032a256.936 256.936 0 0 1-.95-10.977zm1.642-5.344c.692 6.937 1.674 15.178 2.945 24.321-.499.45-.998.66-1.593.66-.467 0-.709-.016-.95-.064a247.07 247.07 0 0 1-.547-4.073c-.193-1.497-.29-2.286-.306-2.35-.177-.016-.386-.016-.66-.032-.402-.016-.644-.032-.757-.032-.338 0-.9.016-1.674.048-.096.016-.16.016-.209.016-.322 2.318-.58 4.459-.724 6.084-.66.37-1.11.5-1.545.5-.451 0-.837-.145-1.288-.483 1.416-9.288 2.994-17.417 4.813-24.628.595-.177 1.014-.241 1.352-.241.338 0 .708.08 1.143.273zm6.712.16c1.4 3.735 2.736 6.922 4.217 10.028 0-.144 0-.338-.016-.611-.032-1.4-.048-2.383-.048-2.946 0-1.98.016-4.153.064-6.6.113-.048.161-.096.37-.305l.966-.016c.386.064.773.193 1.143.386.016 1.803.032 3.284.048 4.426.016 1.143.016 2.206.016 3.22 0 7.581-.129 13.65-.338 17.513-.434.112-.772.241-1.046.418-.113 0-.306.032-.37.032-.338 0-.676-.064-1.079-.257.049-2.415.081-4.427.097-6.02.016-1.61.032-3.14.032-4.604-1.738-3.412-2.962-5.923-3.734-7.678.048 2.495.08 4.765.096 6.809.033 2.044.049 3.702.049 4.958 0 1.85-.033 3.879-.113 6.148a2.929 2.929 0 0 1-1.175.258c-.403 0-.773-.129-1.223-.402-.065-6.616-.097-12.668-.097-18.19v-6.47c.241-.177.483-.258.724-.258.403 0 .853.049 1.417.161zm12.378 2.11c-.129 3.476-.193 7.58-.193 12.103 0 3.107.048 5.699.177 8.21h.016c.901 0 1.529-.757 1.899-2.254.37-1.497.548-4.314.548-8.434 0-6.262-.805-9.658-2.238-9.658-.048 0-.161.032-.209.032zm-2.624-2.367h1.706c2.318 0 3.928.917 4.829 2.768.918 1.835 1.368 5.135 1.368 9.916 0 4.7-.434 7.951-1.287 9.754s-2.334 2.704-4.443 2.704c-.982 0-1.561-.016-2.205-.064-.193-4.684-.274-8.515-.274-11.863 0-1.53.016-3.252.065-5.183.048-1.948.128-4.62.241-8.032zm14.374 5.441a333.246 333.246 0 0 0-.901 5.376c-.274 1.738-.58 3.605-.886 5.601h.194c.627.048 1.062.064 1.336.064.096 0 .305-.016.643-.032.242-.016.435-.032.564-.032a256.777 256.777 0 0 1-.95-10.977zm1.642-5.344c.692 6.937 1.674 15.178 2.946 24.321-.499.45-.998.66-1.594.66-.467 0-.708-.016-.95-.064a247.293 247.293 0 0 1-.547-4.073c-.193-1.497-.29-2.286-.306-2.35-.177-.016-.386-.016-.66-.032-.402-.016-.644-.032-.756-.032-.338 0-.902.016-1.674.048-.097.016-.161.016-.209.016-.322 2.318-.58 4.459-.725 6.084-.66.37-1.11.5-1.545.5-.451 0-.837-.145-1.288-.483 1.417-9.288 2.994-17.417 4.813-24.628.596-.177 1.014-.241 1.352-.241.338 0 .708.08 1.143.273zM48.54 6.808c.708-1.908-.742-4.205-3.238-5.131-2.496-.926-5.094-.13-5.802 1.778-.708 1.908.742 4.206 3.239 5.132 2.496.926 5.093.13 5.801-1.779z" fill="#2F2F2F"/><path d="M59.295 56.52v.001c-1.752.635-3.122-1.448-2.02-2.85.902-1.151 1.276-2.57 1.276-4.19 0-.78-.252-1.252-.635-1.568-.408-.337-1.024-.546-1.838-.655-.807-.107-1.745-.109-2.747-.08a90.52 90.52 0 0 0-.991.034 57.09 57.09 0 0 1-2.048.05c-4.15 0-7.31-.998-9.435-2.923-2.133-1.931-3.147-4.726-3.147-8.148a.5.5 0 0 1 .582-.493c3.441.574 5.932.777 8.045-.042 2.087-.81 3.905-2.662 5.86-6.477a1.966 1.966 0 0 0-.205-2.107c-.31-.396-.616-.757-.88-1.056a2.959 2.959 0 0 1-.639-2.712l8.822 33.217zm0 0c1.174-.427 1.967-1.053 2.83-1.856.224-.209.453-.429.695-.661.687-.661 1.48-1.424 2.588-2.324.777-.632 1.53-.902 2.182-.915a2.329 2.329 0 0 1 1.706.685c.948.926 1.478 2.83.752 5.447-.785 2.822-1.781 5.069-3.213 6.864-1.428 1.79-3.31 3.159-5.913 4.191-5.24 2.08-13.338 2.775-26.337 2.775-14.59 0-23.063-3.31-27.908-8.689C1.823 56.65.5 49.073.5 40.266c0-16.694 12.967-34.69 34.085-34.69 7.678 0 12.508 3.732 14.698 6.747m10.012 44.198L49.283 12.324m0 0c1.077 1.48 1.704 2.94 1.904 4.653m-1.904-4.653l1.904 4.653m0 0c.201 1.723-.026 3.736-.714 6.326l.714-6.326z" fill="#fff" stroke="#2F2F2F" stroke-linecap="round" stroke-linejoin="round"/><path d="M34.459 12.46c2.384-1.536 3.364-4.26 2.19-6.082-1.176-1.823-4.06-2.056-6.444-.52-2.384 1.537-3.364 4.26-2.19 6.083 1.175 1.823 4.06 2.055 6.444.52zm13.649 11.02c-.012 1.67-2.649 3.694-5.54 4.58-2.694.824-5.506-.311-5.53-2.674-.03-3.274 3.168-5.192 5.984-5.21 2.848-.021 5.101 1 5.086 3.304z" fill="#2F2F2F"/><path d="M44.382 25.535c.458-.411.59-1.124.59-1.124" stroke="#fff" stroke-width="2" stroke-miterlimit="10" stroke-linecap="round" stroke-linejoin="round"/><path d="M65.848 31.204s.906 6.343 4.53 11.478c-4.53 4.833-11.176-3.02-11.176-3.02s3.625-6.042 6.646-8.458z" fill="#FFD1A7"/><path d="M65.847 31.204s.907 6.343 4.531 11.478" stroke="#FF7A00" stroke-linecap="round" stroke-linejoin="round"/><path d="M47.12 48.421c6.344-9.968 13.29-17.217 13.29-17.217 4.532 7.551 9.969 11.478 9.969 11.478-3.021 5.135-11.78 16.915-11.78 16.915L47.12 48.421z" fill="#FFAA5B" stroke="#FF7A00" stroke-linecap="round" stroke-linejoin="round"/><path d="M38.21 36.188c-5.202-1.405-32-13.366-34.737-2.416C1 43.67 15.27 52.662 24.137 56.5c1.344.583 2.172 1.981 1.997 3.434-.77 6.364 1.857 11.137 8.3 11.137.429 0 .945.051 1.528.148 24.838-.1 31.447-2.963 34.567-14.194 1.51-5.436-2.057-8.484-5.437-5.739-3.03 2.462-3.803 3.973-5.968 4.76-1.242.45-2.272-1.032-1.456-2.071.99-1.263 1.383-2.8 1.383-4.498 0-3.624-4.833-2.718-8.76-2.718-8.085 0-12.015-4.027-12.081-10.572zm12.891-6.616c.896-.2 1.504-.89 1.358-1.54-.145-.652-.989-1.018-1.884-.818-.896.2-1.504.89-1.358 1.54.145.652.989 1.018 1.884.818z" fill="#2F2F2F"/><path d="M51.21 28.794c-.369 2.797-1.737 4.745-4.026 4.99-1.272.138-2.504-.006-3.015-.88-.51-.872.335-2.132 1.516-1.552" stroke="#2F2F2F" stroke-miterlimit="10" stroke-linecap="round" stroke-linejoin="round"/></svg>