<svg width="33" height="33" viewBox="0 0 33 33" fill="none" xmlns="http://www.w3.org/2000/svg"><path d="M31.35 5.5H1.65a1.1 1.1 0 0 0-1.1 1.1v24.75a1.1 1.1 0 0 0 1.1 1.1h29.7a1.1 1.1 0 0 0 1.1-1.1V6.6a1.1 1.1 0 0 0-1.1-1.1z" fill="#57A4FF"/><path d="M32.45 6.6v24.75a1.103 1.103 0 0 1-1.1 1.1H28.6a1.104 1.104 0 0 0 1.1-1.1V6.6a1.103 1.103 0 0 0-1.1-1.1h2.75a1.103 1.103 0 0 1 1.1 1.1z" fill="#2488FF"/><path d="M16.5 30.25a8.8 8.8 0 1 0 0-17.6 8.8 8.8 0 0 0 0 17.6z" fill="#FFDE55"/><path d="M25.3 21.45a8.8 8.8 0 0 1-16.027 5.028 8.804 8.804 0 0 0 12.254-12.254A8.79 8.79 0 0 1 25.3 21.45z" fill="#FFCD00"/><path d="M24.414 3.389a3.3 3.3 0 1 1 5.071 4.224 3.3 3.3 0 0 1-5.07-4.224z" fill="#FF7956"/><path d="M19.998 2.003a4.947 4.947 0 1 1-7.002 6.99 4.947 4.947 0 0 1 7.002-6.99z" fill="#46F8FF"/><path d="M19.8 17.936l-2.354 6.265a1.095 1.095 0 1 1-1.892-1.1l.005-.017c.055-.088 4.24-5.148 4.24-5.148z" fill="#898890"/><path d="M7.881 2.756a3.3 3.3 0 1 1-3.664 5.49 3.3 3.3 0 0 1 3.664-5.49z" fill="#FF7956"/><path d="M30.25 5.5a3.3 3.3 0 0 1-6.468.92 3.3 3.3 0 0 0 5.236-3.487A3.29 3.29 0 0 1 30.25 5.5z" fill="#FF5023"/><path d="M21.45 5.5a4.95 4.95 0 0 1-9.537 1.86 4.95 4.95 0 0 0 8.074-5.368l.011.01a4.925 4.925 0 0 1 1.452 3.499z" fill="#00E7F0"/><path d="M9.35 5.5a3.3 3.3 0 0 1-6.468.92A3.3 3.3 0 0 0 8.25 3.851c0-.312-.042-.621-.126-.92a3.3 3.3 0 0 1 1.226 2.57z" fill="#FF5023"/><path d="M31.35 4.95h-.594a3.845 3.845 0 0 0-7.612 0h-1.171a5.5 5.5 0 0 0-10.945 0H9.855a3.845 3.845 0 0 0-7.612 0H1.65A1.655 1.655 0 0 0 0 6.6v24.75A1.655 1.655 0 0 0 1.65 33h29.7A1.655 1.655 0 0 0 33 31.35V6.6a1.655 1.655 0 0 0-1.65-1.65zm-6.815-.742l2.063 1.716.704-.847-2.063-1.716a2.795 2.795 0 1 1-.704.847zM16.5 1.101a4.358 4.358 0 0 1 2.695.93L16.11 5.11l.78.78 3.08-3.085c.604.768.931 1.718.93 2.695a4.4 4.4 0 1 1-4.4-4.4zM6.05 2.75c.354.001.705.07 1.034.203l-1.49 2.244.912.605 1.496-2.238A2.75 2.75 0 1 1 6.05 2.75zm25.85 28.6a.55.55 0 0 1-.55.55H1.65a.55.55 0 0 1-.55-.55V6.6a.55.55 0 0 1 .55-.55h.594a3.845 3.845 0 0 0 7.612 0h1.171a5.5 5.5 0 0 0 10.946 0h1.171a3.845 3.845 0 0 0 7.612 0h.594a.55.55 0 0 1 .55.55v24.75z" fill="#000"/><path d="M16.5 12.1a9.35 9.35 0 1 0 9.35 9.35 9.363 9.363 0 0 0-9.35-9.35zm0 17.6a8.25 8.25 0 1 1 8.25-8.25 8.26 8.26 0 0 1-8.25 8.25z" fill="#000"/><path d="M23.65 21.45a7.15 7.15 0 0 0-14.3 0h1.1a6.05 6.05 0 1 1 12.1 0h1.1z" fill="#000"/><path d="M20.075 17.463a.55.55 0 0 0-.699.121c-4.213 5.093-4.262 5.176-4.3 5.242a1.646 1.646 0 0 0 2.848 1.65.547.547 0 0 0 .039-.083l2.354-6.264a.55.55 0 0 0-.242-.666zm-3.124 6.49a.546.546 0 0 1-.451.248.55.55 0 0 1-.55-.55.579.579 0 0 1 .071-.264 311.31 311.31 0 0 1 2.107-2.563l-1.177 3.13zm1.199 1.897h3.3v1.1h-3.3v-1.1zm-6.6 0h3.3v1.1h-3.3v-1.1zm-2.2-3.3h1.1v1.1h-1.1v-1.1zm13.2 0h1.1v1.1h-1.1v-1.1zm1.65 4.95h4.4v1.1h-4.4v-1.1zm5.5 0h1.1v1.1h-1.1v-1.1zm0-17.05h1.1v1.1h-1.1v-1.1zM24.2 29.7h2.2v1.1h-2.2v-1.1zm3.3 0h3.3v1.1h-3.3v-1.1zM4.4 27.5h4.4v1.1H4.4v-1.1zm-2.2 0h1.1v1.1H2.2v-1.1zm4.4 2.2h2.2v1.1H6.6v-1.1zm-4.4 0h3.3v1.1H2.2v-1.1zm22-19.25h4.4v1.1h-4.4v-1.1zm0 2.2h2.2v1.1h-2.2v-1.1zm3.3 0h3.3v1.1h-3.3v-1.1zm-23.1-2.2h4.4v1.1H4.4v-1.1zm-2.2 0h1.1v1.1H2.2v-1.1zm4.4 2.2h2.2v1.1H6.6v-1.1zm-4.4 0h3.3v1.1H2.2v-1.1z" fill="#000"/></svg>