<svg width="33" height="33" viewBox="0 0 33 33" fill="none" xmlns="http://www.w3.org/2000/svg"><path d="M32.171 29.183v3.272H20.175v-3.272h11.996z" fill="#2488FF"/><path d="M25.47 11.037l-4.166-7.22a2.181 2.181 0 1 1 3.779-2.181l6.794 11.772c.194.331.296.708.294 1.091v6.745c0 .203-.027.404-.082.6l-2.099 7.34h-8.179v-5.737a3.256 3.256 0 0 1 .96-2.312l.501-.502 1.265-1.265v-6.543c.001-.578.23-1.133.638-1.543.093-.088.192-.17.295-.245z" fill="#FFC477"/><path d="M29.99 29.183h2.181v3.272h-2.18v-3.272z" fill="#005ECE"/><path d="M32.171 14.499v6.745c0 .203-.027.404-.081.6l-2.1 7.34h-2.18l2.098-7.34c.055-.196.082-.397.082-.6v-6.745a2.14 2.14 0 0 0-.294-1.09L22.902 1.635a2.145 2.145 0 0 0-.797-.796 2.176 2.176 0 0 1 2.978.796l6.794 11.772c.194.331.296.708.294 1.091z" fill="#FFA733"/><path d="M24.537 16.642v2.726l-1.265 1.265-2.192-1.265a5.43 5.43 0 0 0 .731-2.726h2.726z" fill="#FFDE55"/><path d="M24.537 13.605v3.037h-2.726c0-.957-.251-1.898-.73-2.726l2.83-1.63c.244.421.454.862.626 1.319z" fill="#FFD422"/><path d="M23.91 12.285l-2.83 1.63a5.473 5.473 0 0 0-1.995-1.996l1.63-2.83a8.719 8.719 0 0 1 3.195 3.196z" fill="#FFDE55"/><path d="M23.272 20.633l-.501.502a3.255 3.255 0 0 0-.96 2.312 8.217 8.217 0 0 1-1.09.747l-1.636-2.83a5.472 5.472 0 0 0 1.995-1.996l2.192 1.265z" fill="#FFD422"/><path d="M21.08 13.915a5.453 5.453 0 1 1-9.444 5.453 5.453 5.453 0 0 1 9.445-5.453z" fill="#FFCD00"/><path d="M21.811 16.642a5.454 5.454 0 0 1-6.538 5.343 5.453 5.453 0 0 0 1.63-10.066 5.405 5.405 0 0 0-1.63-.621 5.453 5.453 0 0 1 6.538 5.344z" fill="#DDB200"/><path d="M19.085 21.364l1.636 2.83a8.658 8.658 0 0 1-4.363 1.172v-3.272a5.428 5.428 0 0 0 2.727-.73z" fill="#FFDE55"/><path d="M20.715 9.09l-1.63 2.83a5.434 5.434 0 0 0-2.727-.73V7.917a8.622 8.622 0 0 1 4.357 1.172zm-4.357 13.004v3.272a8.658 8.658 0 0 1-4.362-1.172l1.636-2.83c.829.48 1.769.731 2.726.73z" fill="#FFD422"/><path d="M16.358 7.918v3.271c-.957 0-1.898.251-2.726.73l-1.63-2.83a8.622 8.622 0 0 1 4.356-1.171z" fill="#FFDE55"/><path d="M12.002 9.09l1.63 2.83a5.474 5.474 0 0 0-1.996 1.995l-2.83-1.63a8.718 8.718 0 0 1 3.196-3.196z" fill="#FFD422"/><path d="M13.632 21.364l-1.636 2.83a8.21 8.21 0 0 1-1.09-.747 3.254 3.254 0 0 0-.96-2.312l-.502-.502 2.192-1.265a5.473 5.473 0 0 0 1.996 1.996z" fill="#FFDE55"/><path d="M12.541 29.183v3.272H.545v-3.272h11.996z" fill="#2488FF"/><path d="M8.806 12.285l2.83 1.63a5.434 5.434 0 0 0-.73 2.727H8.179v-3.037c.173-.457.382-.898.627-1.32z" fill="#FFDE55"/><path d="M11.636 19.368l-2.192 1.265-1.265-1.265v-2.726h2.727c-.001.957.25 1.897.73 2.726z" fill="#FFD422"/><path d="M7.247 11.037c.103.075.201.157.294.245.408.41.637.965.638 1.543v6.543l1.265 1.265.502.502a3.255 3.255 0 0 1 .96 2.312v5.736h-8.18l-2.099-7.34a2.24 2.24 0 0 1-.082-.599v-6.745c0-.383.1-.76.295-1.09L7.634 1.635a2.182 2.182 0 0 1 3.779 2.181l-4.166 7.22z" fill="#FFC477"/><path d="M11.413 3.817l-4.166 7.22c.103.075.201.157.294.245.408.41.637.965.638 1.543v6.543l1.767 1.767a3.256 3.256 0 0 1 .96 2.312v5.736H8.724v-5.736a3.255 3.255 0 0 0-.96-2.312l-1.766-1.767v-6.543a2.195 2.195 0 0 0-.638-1.543 3.206 3.206 0 0 0-.294-.246l4.166-7.219A2.185 2.185 0 0 0 8.43.84a2.181 2.181 0 0 1 2.983 2.977z" fill="#FFA733"/><path d="M16.358 18.278a.545.545 0 0 1-.545-.546h-1.09a1.636 1.636 0 0 0 1.09 1.536v.645h1.09v-.645a1.632 1.632 0 0 0-.545-3.172.545.545 0 1 1 .546-.545h1.09a1.636 1.636 0 0 0-1.09-1.535v-.646h-1.091v.646a1.632 1.632 0 0 0 .545 3.171.545.545 0 1 1 0 1.09z" fill="#000"/><path d="M32.717 21.244v-6.745c0-.479-.126-.95-.366-1.363L25.557 1.363a2.726 2.726 0 0 0-5.087 1.369c0 .476.125.943.36 1.357l3.942 6.827c-.234.24-.423.521-.556.83a9.247 9.247 0 0 0-15.72.005 2.684 2.684 0 0 0-.551-.83l3.942-6.832a2.76 2.76 0 0 0 .36-1.357A2.726 2.726 0 0 0 7.16 1.363L.365 13.136C.125 13.55 0 14.02 0 14.499v6.745c-.001.253.034.504.104.747L2 28.638H.545a.545.545 0 0 0-.545.545v3.272A.545.545 0 0 0 .545 33h11.996a.545.545 0 0 0 .546-.545v-3.272a.545.545 0 0 0-.546-.545h-1.09v-4.144a9.203 9.203 0 0 0 9.815 0v4.144h-1.09a.545.545 0 0 0-.546.545v3.272a.545.545 0 0 0 .545.545h11.996a.545.545 0 0 0 .546-.545v-3.272a.546.546 0 0 0-.546-.545h-1.456l1.898-6.647c.07-.243.105-.494.104-.747zm-8.725-7.53v2.382H22.33a6.049 6.049 0 0 0-.529-1.963l1.892-1.096c.112.22.212.446.3.677zm0 3.473v1.957l-.807.808-1.385-.802c.286-.62.465-1.284.53-1.963h1.662zm-.845-5.093l-1.892 1.09a6.22 6.22 0 0 0-1.44-1.439l1.09-1.887a8.248 8.248 0 0 1 2.242 2.236zm-6.243-3.61a8.147 8.147 0 0 1 3.059.824L18.867 11.2a6.046 6.046 0 0 0-1.963-.53V8.485zm-1.091 0v2.187a6.046 6.046 0 0 0-1.963.529l-1.096-1.892a8.147 8.147 0 0 1 3.059-.824zm-4.002 1.374l1.09 1.887a6.221 6.221 0 0 0-1.44 1.44l-1.891-1.09a8.25 8.25 0 0 1 2.24-2.237zm-3.087 3.856c.088-.231.188-.457.3-.677l1.893 1.096a6.046 6.046 0 0 0-.53 1.963H8.724v-2.382zm0 3.473h1.663a6.06 6.06 0 0 0 .53 1.963l-1.386.802-.807-.808v-1.957zm-7.568 4.504a1.53 1.53 0 0 1-.065-.447v-6.745c0-.287.075-.569.218-.818l6.8-11.773a1.622 1.622 0 0 1 2.23-.594 1.609 1.609 0 0 1 .817 1.418c0 .285-.075.565-.218.812l-3.904 6.767a2.687 2.687 0 0 0-1.036-.213 2.726 2.726 0 0 0-2.726 2.727v6.543h1.09v-6.543a1.636 1.636 0 0 1 2.558-1.352c.087.065.169.13.234.19.307.31.48.726.48 1.162v6.543a.563.563 0 0 0 .158.387l1.767 1.767a2.696 2.696 0 0 1 .801 1.93v5.186H3.135L1.156 21.69zm10.84 8.037v2.181H1.091v-2.18h10.905zm-.562-6.565a3.807 3.807 0 0 0-1.101-2.415l1.129-.65a6.22 6.22 0 0 0 1.44 1.44l-1.097 1.898c-.125-.087-.245-.18-.37-.273zm4.379 1.636a8.291 8.291 0 0 1-3.059-.829l1.096-1.886c.62.285 1.284.464 1.963.529v2.186zm-4.362-8.157a4.907 4.907 0 1 1 4.907 4.907 4.915 4.915 0 0 1-4.907-4.907zm5.453 8.157v-2.186a6.049 6.049 0 0 0 1.963-.53l1.096 1.887a8.29 8.29 0 0 1-3.06.829zm4.007-1.363l-1.096-1.898a6.22 6.22 0 0 0 1.44-1.44l1.129.65a3.807 3.807 0 0 0-1.102 2.415c-.125.093-.245.186-.37.273zm10.715 6.292v2.181H20.721v-2.18h10.905zm0-8.484c0 .151-.022.302-.065.447l-1.98 6.947h-7.225v-5.186a2.696 2.696 0 0 1 .802-1.93l1.767-1.767a.563.563 0 0 0 .158-.387v-6.543c-.002-.429.167-.84.469-1.145.072-.07.148-.136.229-.197a1.66 1.66 0 0 1 .938-.294 1.64 1.64 0 0 1 1.635 1.636v6.543h1.09v-6.543a2.709 2.709 0 0 0-3.761-2.514L21.777 3.55a1.67 1.67 0 0 1-.218-.818 1.625 1.625 0 0 1 .818-1.423 1.628 1.628 0 0 1 2.23.6l6.8 11.772c.142.249.217.53.218.818v6.745z" fill="#000"/></svg>