<svg width="33" height="33" viewBox="0 0 33 33" fill="none" xmlns="http://www.w3.org/2000/svg"><path d="M2.889 5.5h21.376v25.3H2.89V5.5z" fill="#E0E0E2"/><path d="M23.14 5.5h1.125v25.3H23.14V5.5z" fill="#C6C5CA"/><path d="M30.453 11h-9c-.622 0-1.126.492-1.126 1.1v13.2c0 .607.504 1.1 1.125 1.1h9.001c.622 0 1.125-.492 1.125-1.1V12.1c0-.607-.503-1.1-1.125-1.1z" fill="#FFDAAA"/><path d="M31.578 12.1v13.2c0 .291-.12.57-.33.777a1.144 1.144 0 0 1-.795.323h-1.125c.298 0 .584-.117.795-.323.21-.206.33-.486.33-.777V12.1c0-.291-.12-.57-.33-.777a1.142 1.142 0 0 0-.795-.323h1.125c.298 0 .584.117.795.323.21.206.33.486.33.777z" fill="#FFC477"/><path d="M25.953 26.4v4.95c-.001.292-.12.57-.33.777a1.146 1.146 0 0 1-.795.323H2.326a1.14 1.14 0 0 1-.795-.323 1.091 1.091 0 0 1-.33-.777V4.95c0-.291.12-.57.33-.777.211-.206.497-.322.795-.323h9V5.5H2.89v25.3h21.376v-4.4h1.688zm0-21.45V11h-1.688V5.5h-8.438V3.85h9c.299.001.585.117.795.323.211.206.33.486.33.777z" fill="#57A4FF"/><path d="M24.828 11v3.3l-1.125-1.1-1.125 1.1V11h2.25zM18.64 2.75v1.1h-2.813v-2.2h1.688c.298.001.584.117.794.324.211.206.33.485.33.776zm-2.813 1.1V5.5c0 .292-.12.571-.33.777a1.144 1.144 0 0 1-.795.323h-2.25a1.14 1.14 0 0 1-.795-.323 1.091 1.091 0 0 1-.33-.777V.55h4.5v3.3zm-4.5-2.2v2.2H8.514v-1.1c.001-.291.12-.57.33-.776a1.14 1.14 0 0 1 .795-.324h1.688z" fill="#FF7956"/><path d="M6.826 16.272l-.727-.711-.796.778 1.126 1.1a.57.57 0 0 0 .795 0l2.25-2.2-.795-.778-1.853 1.811zm0 5.501L6.1 21.06l-.796.778 1.126 1.1a.57.57 0 0 0 .795 0l2.25-2.2-.795-.778-1.853 1.812zm0 5.499l-.727-.711-.796.778 1.126 1.1a.57.57 0 0 0 .795 0l2.25-2.2-.795-.778-1.853 1.811z" fill="#000"/><path d="M30.453 10.45h-3.938v-5.5c0-.438-.178-.857-.494-1.167a1.707 1.707 0 0 0-1.193-.483h-5.626v-.55c0-.438-.178-.857-.494-1.167a1.708 1.708 0 0 0-1.193-.483H16.39V.55a.544.544 0 0 0-.165-.389.57.57 0 0 0-.398-.161h-4.5a.57.57 0 0 0-.398.161.544.544 0 0 0-.165.389v.55H9.64c-.448 0-.877.174-1.193.483-.317.31-.495.73-.495 1.167v.55H2.326c-.448 0-.877.174-1.193.483-.317.31-.495.73-.495 1.167v26.4c0 .438.178.857.495 1.167.316.31.745.483 1.193.483h22.502c.447 0 .877-.174 1.193-.483.316-.31.494-.73.494-1.167v-4.4h3.938c.448 0 .877-.174 1.193-.483.317-.31.495-.73.495-1.167V12.1c0-.438-.178-.857-.495-1.167a1.707 1.707 0 0 0-1.193-.483zm-7.313 1.1h1.125v1.422l-.165-.16a.569.569 0 0 0-.795 0l-.165.16V11.55zm2.25-6.6v5.5h-.562V5.5a.544.544 0 0 0-.165-.389.57.57 0 0 0-.398-.161H16.39V4.4h8.438a.57.57 0 0 1 .398.161.544.544 0 0 1 .164.389zM17.515 2.2a.57.57 0 0 1 .397.161.544.544 0 0 1 .165.389v.55H16.39V2.2h1.125zm-5.626-1.1h3.376v4.4c0 .146-.06.286-.165.389a.57.57 0 0 1-.398.161h-2.25a.57.57 0 0 1-.398-.161.544.544 0 0 1-.165-.389V1.1zm.563 6.05h2.25c.348-.001.687-.108.97-.305a1.65 1.65 0 0 0 .614-.795h7.417v4.4h-2.25a1.71 1.71 0 0 0-1.194.483c-.316.31-.494.73-.494 1.167v13.2c0 .438.178.857.494 1.167.317.31.746.483 1.193.483h2.25v3.3H3.453V6.05h7.416c.116.32.33.598.614.795.283.197.622.304.97.305zm-3.375-4.4c0-.146.059-.286.164-.389A.57.57 0 0 1 9.64 2.2h1.125v1.1H9.077v-.55zm16.313 28.6a.542.542 0 0 1-.165.389.569.569 0 0 1-.397.161H2.326a.569.569 0 0 1-.398-.161.544.544 0 0 1-.164-.389V4.95c0-.146.059-.286.164-.389a.57.57 0 0 1 .398-.161h8.438v.55H2.89a.57.57 0 0 0-.398.161.544.544 0 0 0-.165.389v25.3c0 .146.06.286.165.389a.569.569 0 0 0 .398.161h21.376a.57.57 0 0 0 .398-.161.544.544 0 0 0 .165-.389v-3.85h.562v4.4zm5.626-6.05c0 .146-.06.286-.165.389a.569.569 0 0 1-.398.161h-9a.569.569 0 0 1-.398-.161.544.544 0 0 1-.165-.389V12.1c0-.146.06-.286.165-.389a.569.569 0 0 1 .397-.161h.563v2.75c0 .109.033.215.095.305s.15.161.252.203a.574.574 0 0 0 .613-.12l.728-.71.727.71a.567.567 0 0 0 .613.12.56.56 0 0 0 .252-.203.541.541 0 0 0 .095-.305v-2.75h5.063a.57.57 0 0 1 .398.161.544.544 0 0 1 .165.389v13.2z" fill="#000"/><path d="M14.702 8.25h7.876v1.1h-7.876v-1.1zm-5.626 0h4.5v1.1h-4.5v-1.1zm2.251 2.2h7.313v1.1h-7.313v-1.1zm-6.751-2.2h3.375v1.1H4.576v-1.1zm0 2.2h5.626v1.1H4.576v-1.1zm8.438 3.85h5.626v1.1h-5.626v-1.1zm2.25 2.2h3.376v1.1h-3.376v-1.1zm-4.5-2.2h1.125v1.1h-1.125v-1.1zm0 2.2h3.375v1.1h-3.375v-1.1zm2.25 3.3h5.626v1.1h-5.626v-1.1zm2.25 2.2h3.376v1.1h-3.376V22zm-4.5-2.2h1.125v1.1h-1.125v-1.1zm0 2.2h3.375v1.1h-3.375V22zm2.25 3.3h5.626v1.1h-5.626v-1.1zm2.25 2.2h3.376v1.1h-3.376v-1.1zm-4.5-2.2h1.125v1.1h-1.125v-1.1zm0 2.2h3.375v1.1h-3.375v-1.1zm13.501-11.55h5.625v1.1h-5.625v-1.1zm2.25 2.2h3.376v1.1h-3.376v-1.1zm-4.5-2.2h1.125v1.1h-1.125v-1.1zm0 2.2h3.375v1.1h-3.375v-1.1zm2.25 2.2h5.625v1.1h-5.625v-1.1zm2.25 2.2h3.376v1.1h-3.376v-1.1zm-4.5-2.2h1.125v1.1h-1.125v-1.1zm0 2.2h3.375v1.1h-3.375v-1.1zm5.063-9.9h2.25v1.1h-2.25v-1.1z" fill="#000"/></svg>