<svg width="34" height="33" viewBox="0 0 34 33" fill="none" xmlns="http://www.w3.org/2000/svg"><path d="M18.862 7.983l2.41-2.41a6.574 6.574 0 0 1 9.295 9.3l-8.522 8.517a6.566 6.566 0 0 1-7.866 1.079l.066-.066 1.632-1.632c1.64.7 3.54.331 4.798-.931l8.523-8.517a4.382 4.382 0 0 0-6.195-6.2L20.66 9.467l-1.556 1.556-4.622 4.622a4.385 4.385 0 0 0-.362 5.784l-1.556 1.556-.087.093-.093-.093a6.573 6.573 0 0 1 .367-8.89l4.414-4.414.05-.05 1.583-1.583h.005v-.005l.06-.06z" fill="#CCA400"/><path d="M26.536 29.098c0-1.854-1.5-3.358-3.352-3.358a3.355 3.355 0 0 0-3.352 3.358c0 1.854 1.5 3.357 3.352 3.357a3.355 3.355 0 0 0 3.352-3.357z" fill="#FFDE55"/><path d="M14.18 24.469l-2.41 2.41a6.574 6.574 0 1 1-9.295-9.3l8.522-8.517a6.566 6.566 0 0 1 7.865-1.08l-.06.06v.006h-.005l-1.583 1.583a4.341 4.341 0 0 0-4.667.98L4.025 19.13a4.382 4.382 0 1 0 6.194 6.2l2.257-2.251.087-.093 1.556-1.556 4.623-4.623a4.385 4.385 0 0 0 .361-5.783l1.556-1.556a6.572 6.572 0 0 1-.367 8.89l-6.047 6.046-.066.066z" fill="#FFEB99"/><path d="M17.734 29.645a1.123 1.123 0 1 1-2.246 0 1.123 1.123 0 0 1 2.246 0zM13.352 1.712a1.123 1.123 0 1 1-2.246 0 1.123 1.123 0 0 1 2.246 0zM6.752.545c0 2.875.482 3.358 3.358 3.358-2.876 0-3.358.476-3.358 3.351 0-2.875-.476-3.351-3.352-3.351 2.876 0 3.352-.483 3.352-3.358z" fill="#FFDE55"/><path d="M30.954 5.185a7.139 7.139 0 0 0-10.07 0l-2.126 2.127a7.106 7.106 0 0 0-8.148 1.362l-8.523 8.518a7.122 7.122 0 1 0 10.07 10.074l2.126-2.125a7.098 7.098 0 0 0 8.149-1.364l8.522-8.517a7.12 7.12 0 0 0 0-10.075zM11.383 26.491a6.026 6.026 0 1 1-8.52-8.525l8.523-8.517a6.014 6.014 0 0 1 6.545-1.308l-.866.867a4.869 4.869 0 0 0-4.903 1.217l-8.525 8.517a4.93 4.93 0 1 0 6.97 6.974l8.524-8.522a4.93 4.93 0 0 0 .686-6.108l.788-.789a6.02 6.02 0 0 1-.699 7.672l-8.523 8.522zM16.15 9.92l-3.79 3.787a7.106 7.106 0 0 0-.628 9.332l-1.9 1.9a3.836 3.836 0 0 1-5.423-5.425L12.935 11a3.78 3.78 0 0 1 3.216-1.08zm-1.283 6.113l4.143-4.143a3.834 3.834 0 0 1-.658 4.53l-4.143 4.142a3.834 3.834 0 0 1 .658-4.53zm6.518-6.518l2.003-2.003a3.835 3.835 0 0 1 5.422 5.426l-8.524 8.516a3.78 3.78 0 0 1-3.368 1.051l3.761-3.76a7.11 7.11 0 0 0 .707-9.232l-.001.002zm8.792 4.973l-8.522 8.517a6.014 6.014 0 0 1-6.546 1.308l.906-.906a4.855 4.855 0 0 0 5.045-1.178l8.522-8.517a4.93 4.93 0 0 0-6.967-6.976l-8.524 8.522a4.929 4.929 0 0 0-.686 6.108l-.895.895a6.02 6.02 0 0 1 .624-7.778l8.524-8.522a6.027 6.027 0 0 1 8.52 8.525v.002zm-5.926 9.68a.501.501 0 0 1 .576.576.548.548 0 1 0 1.095 0 .5.5 0 0 1 .576-.576.548.548 0 0 0 0-1.095.502.502 0 0 1-.576-.576.548.548 0 0 0-1.095 0 .503.503 0 0 1-.576.576.548.548 0 1 0 0 1.095zm-6.517 4.929a.502.502 0 0 1-.575-.576.548.548 0 0 0-1.095 0 .503.503 0 0 1-.576.576.548.548 0 1 0 0 1.096.501.501 0 0 1 .576.575.548.548 0 1 0 1.095 0 .5.5 0 0 1 .575-.575.548.548 0 0 0 0-1.096zm8.804-.547c-2.57 0-2.806-.236-2.806-2.807a.548.548 0 1 0-1.096 0c0 2.57-.236 2.807-2.807 2.807a.548.548 0 1 0 0 1.095c2.57 0 2.807.236 2.807 2.808a.548.548 0 0 0 1.096 0c0-2.572.235-2.808 2.806-2.808a.548.548 0 1 0 0-1.095zm-3.354 1.018a1.83 1.83 0 0 0-.471-.47 1.83 1.83 0 0 0 .47-.47c.128.183.287.343.471.47a1.831 1.831 0 0 0-.47.47zM11.106 2.259a.501.501 0 0 1 .576.576.548.548 0 1 0 1.095 0 .5.5 0 0 1 .576-.576.548.548 0 0 0 0-1.095.502.502 0 0 1-.576-.576.548.548 0 1 0-1.095 0 .503.503 0 0 1-.576.576.548.548 0 1 0 0 1.095zM7.328 9.927a.502.502 0 0 1-.576-.576.548.548 0 0 0-1.095 0 .502.502 0 0 1-.576.576.548.548 0 1 0 0 1.096.501.501 0 0 1 .576.575.548.548 0 0 0 1.095 0 .5.5 0 0 1 .576-.575.548.548 0 0 0 0-1.096zM3.398 4.45c2.57 0 2.807.236 2.807 2.807a.548.548 0 0 0 1.095 0c0-2.57.236-2.807 2.807-2.807a.548.548 0 0 0 0-1.095C7.536 3.355 7.3 3.119 7.3.548a.548.548 0 1 0-1.095 0c0 2.57-.237 2.807-2.807 2.807a.548.548 0 1 0 0 1.095zm3.354-1.018c.127.184.287.344.47.47a1.83 1.83 0 0 0-.47.47 1.83 1.83 0 0 0-.47-.47 1.81 1.81 0 0 0 .47-.47z" fill="#000"/></svg>