<svg width="33" height="33" viewBox="0 0 33 33" fill="none" xmlns="http://www.w3.org/2000/svg"><path d="M32.45 20.35v.55a.55.55 0 0 1-.55.55h-1.1V19.8h1.1a.55.55 0 0 1 .55.55zm-8.25-.55v1.65h-1.1a.55.55 0 0 1-.55-.55v-.55a.55.55 0 0 1 .55-.55h1.1z" fill="#957856"/><path d="M21.45 6.6v.55a.55.55 0 0 1-.55.55h-1.1V6.05h1.1a.55.55 0 0 1 .55.55z" fill="#FFDAAA"/><path d="M21.45 3.85v.55L19.8 6.05V4.4l-4.4-1.1-2.2 1.1v1.65L11.55 4.4v-.55a3.3 3.3 0 0 1 3.3-3.3h3.3a3.3 3.3 0 0 1 3.3 3.3z" fill="#FFDE55"/><path d="M20.35 14.3l-1.1 4.4h-5.5l-1.1-4.4 2.2-1.65v-2.095a3.279 3.279 0 0 0 3.3 0v2.095l2.2 1.65z" fill="#FFDAAA"/><path d="M19.8 4.4v3.3a3.292 3.292 0 0 1-1.65 2.854 3.278 3.278 0 0 1-3.3 0A3.291 3.291 0 0 1 13.2 7.7V4.4l2.2-1.1 4.4 1.1z" fill="#FFDAAA"/><path d="M16.5 30.8a1.1 1.1 0 1 0 0-2.2 1.1 1.1 0 0 0 0 2.2z" fill="#FFDE55"/><path d="M13.2 6.05V7.7h-1.1a.55.55 0 0 1-.55-.55V6.6a.55.55 0 0 1 .55-.55h1.1z" fill="#FFDAAA"/><path d="M10.45 20.35v.55a.55.55 0 0 1-.55.55H8.8V19.8h1.1a.55.55 0 0 1 .55.55z" fill="#D9CCBC"/><path d="M10.45 17.6v.55L8.8 19.8v-1.65l-4.4-1.1-2.2 1.1v1.65L.55 18.15v-.55a3.3 3.3 0 0 1 3.3-3.3h3.3a3.3 3.3 0 0 1 3.3 3.3z" fill="#A78966"/><path d="M9.35 28.05l-1.1 4.4h-5.5l-1.1-4.4 2.2-1.65v-2.095a3.28 3.28 0 0 0 3.3 0V26.4l2.2 1.65z" fill="#D9CCBC"/><path d="M8.8 18.15v3.3a3.291 3.291 0 0 1-1.65 2.854 3.278 3.278 0 0 1-3.3 0A3.291 3.291 0 0 1 2.2 21.45v-3.3l2.2-1.1 4.4 1.1z" fill="#D9CCBC"/><path d="M10.45 17.6v.55L8.8 19.8v-1.65l-.55-.138V17.6a3.3 3.3 0 0 0-3.3-3.3h2.2a3.3 3.3 0 0 1 3.3 3.3z" fill="#806749"/><path d="M9.35 28.05l-1.1 4.4h-1.1l1.1-4.4-2.2-1.65v-1.694c.388-.064.761-.2 1.1-.401V26.4l2.2 1.65z" fill="#B39A7C"/><path d="M8.8 18.15v3.3a3.291 3.291 0 0 1-1.65 2.854 3.19 3.19 0 0 1-1.1.402v-.402A3.291 3.291 0 0 0 7.7 21.45v-3.3l-3.669-.919.369-.181 4.4 1.1z" fill="#B39A7C"/><path d="M2.2 19.8v1.65H1.1a.55.55 0 0 1-.55-.55v-.55a.55.55 0 0 1 .55-.55h1.1z" fill="#D9CCBC"/><path d="M21.45 3.85v.55L19.8 6.05V4.4l-.55-.138V3.85a3.3 3.3 0 0 0-3.3-3.3h2.2a3.3 3.3 0 0 1 3.3 3.3z" fill="#FFCD00"/><path d="M20.35 14.3l-1.1 4.4h-1.1l1.1-4.4-2.2-1.65v-1.694c.388-.064.761-.2 1.1-.401v2.095l2.2 1.65z" fill="#FFC477"/><path d="M19.8 4.4v3.3a3.292 3.292 0 0 1-1.65 2.854 3.19 3.19 0 0 1-1.1.402v-.402A3.292 3.292 0 0 0 18.7 7.7V4.4l-3.668-.919.368-.181 4.4 1.1z" fill="#FFC477"/><path d="M32.45 17.6v.55L30.8 19.8v-1.65l-4.4-1.1-2.2 1.1v1.65l-1.65-1.65v-.55a3.3 3.3 0 0 1 3.3-3.3h3.3a3.3 3.3 0 0 1 3.3 3.3z" fill="#3E3D42"/><path d="M31.35 28.05l-1.1 4.4h-5.5l-1.1-4.4 2.2-1.65v-2.095a3.279 3.279 0 0 0 3.3 0V26.4l2.2 1.65z" fill="#A78966"/><path d="M30.8 18.15v3.3a3.292 3.292 0 0 1-1.65 2.854 3.278 3.278 0 0 1-3.3 0 3.291 3.291 0 0 1-1.65-2.854v-3.3l2.2-1.1 4.4 1.1z" fill="#A78966"/><path d="M32.45 17.6v.55L30.8 19.8v-1.65l-.55-.138V17.6a3.3 3.3 0 0 0-3.3-3.3h2.2a3.3 3.3 0 0 1 3.3 3.3z" fill="#2D2D30"/><path d="M31.35 28.05l-1.1 4.4h-1.1l1.1-4.4-2.2-1.65v-1.694c.388-.064.761-.2 1.1-.401V26.4l2.2 1.65z" fill="#806749"/><path d="M30.8 18.15v3.3a3.292 3.292 0 0 1-1.65 2.854 3.19 3.19 0 0 1-1.1.402v-.402a3.292 3.292 0 0 0 1.65-2.854v-3.3l-3.668-.919.368-.181 4.4 1.1z" fill="#806749"/><path d="M3.85 19.25h1.1v1.1h-1.1v-1.1zm2.2 0h1.1v1.1h-1.1v-1.1zm8.8-13.75h1.1v1.1h-1.1V5.5zm2.2 0h1.1v1.1h-1.1V5.5zm8.8 13.75h1.1v1.1h-1.1v-1.1zm2.2 0h1.1v1.1h-1.1v-1.1zm-17.38 4.616l.776.779a7.148 7.148 0 0 1 10.113 0l.776-.78a8.25 8.25 0 0 0-11.665 0z" fill="#000"/><path d="M12.223 25.423l.777.778a4.95 4.95 0 0 1 7 0l.777-.778a6.048 6.048 0 0 0-8.554 0z" fill="#000"/><path d="M13.777 26.98l.781.775a2.743 2.743 0 0 1 3.883 0l.782-.774a3.843 3.843 0 0 0-5.445 0h-.001zm2.723 1.07a1.65 1.65 0 1 0 0 3.3 1.65 1.65 0 0 0 0-3.3zm0 2.2a.55.55 0 1 1 0-1.101.55.55 0 0 1 0 1.1zM11 18.15v-.55a3.855 3.855 0 0 0-3.85-3.85h-3.3A3.855 3.855 0 0 0 0 17.6v.55a.568.568 0 0 0 .16.39l.731.732A1.1 1.1 0 0 0 0 20.35v.55A1.103 1.103 0 0 0 1.1 22h.594A3.853 3.853 0 0 0 3.3 24.607v1.518L1.32 27.61a.547.547 0 0 0-.204.572l1.1 4.4A.55.55 0 0 0 2.75 33h5.5a.55.55 0 0 0 .534-.418l1.1-4.4a.547.547 0 0 0-.204-.572L7.7 26.125v-1.518A3.854 3.854 0 0 0 9.306 22H9.9a1.103 1.103 0 0 0 1.1-1.1v-.55a1.1 1.1 0 0 0-.891-1.078l.732-.731A.568.568 0 0 0 11 18.15zM1.65 20.9H1.1v-.55h.55v.55zm7.079 7.37L7.82 31.9H3.179l-.907-3.63 1.908-1.43a.558.558 0 0 0 .22-.44v-1.26a3.872 3.872 0 0 0 2.2 0v1.26a.558.558 0 0 0 .22.44l1.909 1.43zm-.479-6.82a2.75 2.75 0 0 1-5.5 0v-2.959l1.716-.858 3.784.946v2.871zm1.65-.55h-.55v-.55h.55v.55zm0-2.976l-.55.55v-.324a.55.55 0 0 0-.418-.534l-4.4-1.1a.538.538 0 0 0-.38.045l-2.2 1.1a.538.538 0 0 0-.302.489v.325l-.55-.55V17.6a2.75 2.75 0 0 1 2.75-2.75h3.3A2.75 2.75 0 0 1 9.9 17.6v.324zm23.1.226v-.55a3.855 3.855 0 0 0-3.85-3.85h-3.3A3.855 3.855 0 0 0 22 17.6v.55a.568.568 0 0 0 .16.39l.731.732A1.1 1.1 0 0 0 22 20.35v.55a1.103 1.103 0 0 0 1.1 1.1h.594a3.854 3.854 0 0 0 1.606 2.607v1.518l-1.98 1.485a.546.546 0 0 0-.204.572l1.1 4.4a.55.55 0 0 0 .534.418h5.5a.55.55 0 0 0 .534-.418l1.1-4.4a.546.546 0 0 0-.204-.572l-1.98-1.485v-1.518A3.854 3.854 0 0 0 31.306 22h.594a1.103 1.103 0 0 0 1.1-1.1v-.55a1.1 1.1 0 0 0-.891-1.078l.731-.731a.568.568 0 0 0 .16-.391zm-9.35 2.75h-.55v-.55h.55v.55zm7.079 7.37l-.908 3.63h-4.642l-.907-3.63 1.908-1.43a.557.557 0 0 0 .22-.44v-1.26a3.872 3.872 0 0 0 2.2 0v1.26a.557.557 0 0 0 .22.44l1.909 1.43zm-.479-6.82a2.75 2.75 0 1 1-5.5 0v-2.959l1.716-.858 3.784.946v2.871zm1.65-.55h-.55v-.55h.55v.55zm0-2.976l-.55.55v-.324a.55.55 0 0 0-.418-.534l-4.4-1.1a.538.538 0 0 0-.38.045l-2.2 1.1a.538.538 0 0 0-.302.489v.325l-.55-.55V17.6a2.75 2.75 0 0 1 2.75-2.75h3.3a2.75 2.75 0 0 1 2.75 2.75v.324zM22 4.4v-.55A3.855 3.855 0 0 0 18.15 0h-3.3A3.855 3.855 0 0 0 11 3.85v.55a.568.568 0 0 0 .16.39l.731.732A1.1 1.1 0 0 0 11 6.6v.55a1.103 1.103 0 0 0 1.1 1.1h.594a3.855 3.855 0 0 0 1.606 2.607v1.518l-1.98 1.485a.546.546 0 0 0-.204.572l1.1 4.4a.55.55 0 0 0 .534.418h5.5a.55.55 0 0 0 .534-.418l1.1-4.4a.546.546 0 0 0-.204-.572l-1.98-1.485v-1.518a3.855 3.855 0 0 0 1.606-2.607h.594a1.103 1.103 0 0 0 1.1-1.1V6.6a1.1 1.1 0 0 0-.891-1.078l.731-.732A.568.568 0 0 0 22 4.4zm-9.35 2.75h-.55V6.6h.55v.55zm7.079 7.37l-.908 3.63h-4.642l-.908-3.63 1.909-1.43a.557.557 0 0 0 .22-.44v-1.26a3.872 3.872 0 0 0 2.2 0v1.26a.557.557 0 0 0 .22.44l1.909 1.43zM19.25 7.7a2.75 2.75 0 1 1-5.5 0V4.741l1.716-.858 3.784.946V7.7zm1.65-.55h-.55V6.6h.55v.55zm0-2.976l-.55.55V4.4a.55.55 0 0 0-.418-.534l-4.4-1.1a.538.538 0 0 0-.38.045l-2.2 1.1a.538.538 0 0 0-.302.489v.324l-.55-.55V3.85a2.75 2.75 0 0 1 2.75-2.75h3.3a2.75 2.75 0 0 1 2.75 2.75v.325z" fill="#000"/></svg>