<svg width="29" height="33" viewBox="0 0 29 33" fill="none" xmlns="http://www.w3.org/2000/svg"><path d="M28.248 28.408c-2.687 1.524-6.129.63-7.688-1.998-1.559-2.628-.644-5.993 2.043-7.517 1.746-.99 3.9-.99 5.646 0V10.45h-9.574c2.49-1.817 3.002-5.264 1.143-7.698-1.859-2.434-5.383-2.934-7.873-1.117-2.49 1.817-3.001 5.263-1.143 7.698.324.424.71.8 1.143 1.117H1.247v6.242c2.687-1.524 6.13-.63 7.688 1.997 1.56 2.628.644 5.994-2.043 7.518-1.746.99-3.9.99-5.645 0v6.243h27.001v-4.042z" fill="#00A1A7"/><path d="M25.436 18.7a5.15 5.15 0 0 1 2.531.668.57.57 0 0 0 .769-.202.541.541 0 0 0 .075-.274V10.45a.556.556 0 0 0-.563-.55H20.08a5.9 5.9 0 0 0 1.418-3.85c0-3.341-2.77-6.05-6.188-6.05-3.417 0-6.188 2.709-6.188 6.05A5.9 5.9 0 0 0 10.54 9.9H1.247a.556.556 0 0 0-.563.55v6.242c0 .304.253.55.563.55a.571.571 0 0 0 .28-.074c2.42-1.371 5.518-.566 6.92 1.8 1.403 2.364.579 5.393-1.84 6.764-1.57.89-3.509.89-5.08 0a.57.57 0 0 0-.768.201.544.544 0 0 0-.075.275v6.242c0 .304.252.55.563.55h27.002c.31 0 .562-.246.562-.55v-4.042a.556.556 0 0 0-.563-.55.573.573 0 0 0-.28.074c-2.42 1.372-5.518.566-6.92-1.8-1.403-2.364-.579-5.393 1.84-6.764a5.153 5.153 0 0 1 2.548-.668zm-6.188 4.95c-.004 3.337 2.76 6.046 6.173 6.05.775 0 1.544-.14 2.265-.418V31.9H1.809v-4.817c3.182 1.22 6.772-.314 8.02-3.424 1.247-3.111-.32-6.622-3.502-7.842a6.32 6.32 0 0 0-4.518 0V11h10.136c.31 0 .563-.246.563-.55a.546.546 0 0 0-.225-.44c-2.242-1.635-2.703-4.736-1.03-6.927C12.923.89 16.095.44 18.337 2.075c2.24 1.635 2.702 4.737 1.03 6.928-.292.382-.64.722-1.03 1.007a.542.542 0 0 0-.113.77c.106.139.273.22.45.22h9.011v7.018c-3.178-1.22-6.764.311-8.011 3.418a5.924 5.924 0 0 0-.427 2.214z" fill="#231F20"/></svg>