<svg width="248" height="189" viewBox="0 0 248 189" fill="none" xmlns="http://www.w3.org/2000/svg"><ellipse opacity=".2" rx="74.902" ry="11.112" transform="matrix(-1 0 0 1 80.17 177.377)" fill="#6B6B6B"/><ellipse opacity=".2" rx="29.109" ry="11.112" transform="matrix(-1 0 0 1 218.438 177.377)" fill="#6B6B6B"/><path d="M220.055 97.414v44.578s11.095-28.454 11.523-28.866c.428-.411-3.391-11.062-3.391-11.062l-8.132-4.65z" fill="#FFC289"/><path d="M155.244 94.038c-17.12 7.836-25.145 17.755-33.294 27.319-8.149 9.564-21.779-18.018-21.524-18.701.255-.683 30.027-34.701 30.027-34.701l24.791 26.084zm-41.077 79.692c-1.007-4.251 3.799-9.029 10.735-10.673 6.936-1.644 13.376.47 14.383 4.721 1.008 4.251-3.798 9.03-10.735 10.673-6.936 1.644-13.375-.47-14.383-4.721z" fill="#2F2F2F"/><path d="M93.973 179.723c27.491 0 44.562-14.997 44.562-39.13 0-15.046-7.037-21.648-13.243-27.475-1.861-1.745-3.622-3.399-5.062-5.169.205-14.256 9.12-16.388 14.42-16.388 5.202 0 11.277 2.132 14.775 5.194 3.012 2.634 3.292 7.391 3.564 11.992.387 6.577.79 13.376 9.457 13.376 8.931 0 21.895-11.886 21.895-30.513 0-29.557-10.717-53.855-30.99-70.276C136.947 8.042 114.723.42 92.376.42c-10.305 0-36.735 1.852-59.502 19.046C11.334 35.722.42 59.996.42 91.61c0 29.879 9.227 52.703 27.417 67.856 15.927 13.252 38.793 20.257 66.136 20.257z" fill="#fff"/><path d="M125.563 112.814c6.272 5.885 13.375 12.552 13.375 27.771 0 12.494-4.551 22.783-13.169 29.738-7.943 6.412-18.94 9.803-31.805 9.803-27.442 0-50.406-7.037-66.399-20.363C9.276 144.527 0 121.596 0 91.594 0 74.885 3.136 59.987 9.334 47.32l116.229 65.494z" fill="#0064DA" stroke="#6B6B6B"/><path d="M51.715 142.486c-2.33-40.817 29.64-52.842 55.674-47.097 4.445.98 14.824 2.716 19.384 10.56 1.869 3.218-.732 7.548.346 8.89" fill="#fff"/><path d="M51.715 142.486c-2.33-40.817 29.64-52.842 55.674-47.097 4.445.98 14.824 2.716 19.384 10.56 1.869 3.218-.732 7.548.346 8.89" stroke="#6B6B6B" stroke-miterlimit="10" stroke-linecap="round" stroke-linejoin="round"/><path d="M120.024 112.386c-3.128 0-5.663-1.441-5.663-3.219 0-1.777 2.535-3.218 5.663-3.218 3.127 0 5.663 1.441 5.663 3.218 0 1.778-2.536 3.219-5.663 3.219zm-35.542 23.96c.865 6.815 7.556 4.626 14.092 8.206 5.103 2.799 8.543 7.606 12.396 7.606 4.765 0 6.823-5.705 3.983-13.228-3.366-8.922-10.626-12.091-16.56-12.091-8.775 0-14.602 4.05-13.91 9.507zm53.279 10.082c-4.189 1.309-7.951-2.996-8.181-10.593-.165-5.366 1.58-9.515 4.115-12.519 2.601 4.264 4.437 9.688 4.437 17.277a49.137 49.137 0 0 1-.371 5.835zm-47.171 36.39c-8.865 0-16.05-4.408-16.05-9.844 0-5.437 7.185-9.845 16.05-9.845 8.864 0 16.05 4.408 16.05 9.845 0 5.436-7.186 9.844-16.05 9.844z" fill="#2F2F2F"/><path d="M225.783 103.587c-3.243-1.12-5.729-6.173-5.729-6.173h5.729c5.778 7.407 11.589 8.535 11.589 8.535s-23.433 1.021-46.365 9.918v64.515l-3.745-2.486v-64.457c7.12-3.3 23.821-8.494 38.521-9.852z" fill="#FFD1A7"/><path d="M17.21 35.88C36.43 9.654 68.68.814 92.385.814c39.846 0 91.545 25.261 91.545 90.78 0 18.297-12.511 30.1-21.483 30.1-14.166 0-5.194-18.651-12.75-25.26-6.115-5.35-21.746-9.178-27.606 1.505 2.345-15.202-.659-24.231-8.1-25.474-7.44-1.243-12.922 7.44-12.922 7.44.642 14.52 2.658 26.027-7.087 27.977-9.737 1.951-21.425-8.675-29.747-21.96-8.321-13.285-22.33-29.26-43.74-35.064-8.938-2.403-7.399-8.848-3.283-14.98z" fill="#2F2F2F"/><path d="M147.968 95.133c-6.074-4.008-17.219-6.337-23.508-.304" stroke="#fff" stroke-miterlimit="10" stroke-linecap="round" stroke-linejoin="round"/><path d="M161.382 117.833c-4.433-2.559-4.343-11.013.2-18.883 4.544-7.87 11.821-12.174 16.253-9.615 4.433 2.56 4.343 11.014-.2 18.883-4.544 7.87-11.821 12.174-16.253 9.615zM79.673 87.51c-2.26-9.537-.055-18.226 4.926-19.406 4.981-1.18 10.851 5.594 13.111 15.132 2.26 9.537.055 18.225-4.926 19.405-4.981 1.181-10.851-5.594-13.111-15.131z" fill="#FFAA5B"/><path d="M88.738 62.382c-27.846-7.465-24.685 64.457-58.152 64.457-11.334 0-19.302-8.585-19.302-24.792 0-25.672 26.743-58.258 64.63-58.258 14.7 0 21.96 11.243 20.231 16.7-.888 2.832-3.761 2.873-7.407 1.893z" fill="#2F2F2F"/><path d="M36.027 57.485c10.708-8.223 24.363-13.696 39.887-13.696 14.7 0 21.96 11.243 20.231 16.7-.888 2.832-3.77 2.865-7.407 1.885-12.297-3.3-18.545 8.89-24.578 23.524" stroke="#fff" stroke-miterlimit="10" stroke-linecap="round" stroke-linejoin="round"/><path d="M183.797 64.514c3.861 5.178 4.61 11.137 1.688 13.318-2.931 2.181-6.7-2.181-12.289-5.416-5.795-3.358-4.708-11.268-1.688-13.317 5.984-4.067 8.437.238 12.289 5.416z" fill="#2F2F2F"/><path d="M183.188 78.375c-2.568-.411-5.762-3.506-9.984-5.96-5.795-3.357-4.708-11.267-1.688-13.317 2.988-2.033 5.095-1.967 6.939-.757" stroke="#fff" stroke-miterlimit="10" stroke-linecap="round" stroke-linejoin="round"/><path d="M111.052 141.441c.774 1.185.642 2.848.642 2.848m22.224-7.853c.773 1.186.642 2.848.642 2.848" stroke="#fff" stroke-width="2" stroke-miterlimit="10" stroke-linecap="round" stroke-linejoin="round"/><path d="M191.016 180.382v-64.515c22.923-8.897 46.365-9.918 46.365-9.918v64.835c-22.932.889-46.365 9.598-46.365 9.598z" fill="#FFAA5B" stroke="#FF7A00" stroke-miterlimit="10" stroke-linecap="round" stroke-linejoin="round"/><path d="M237.381 105.949c-5.729-.889-11.59-8.535-11.59-8.535" stroke="#FF7A00" stroke-miterlimit="10" stroke-linecap="round" stroke-linejoin="round"/><path d="M210.968 160.841c.173 0 .362-.025.543-.058l6.066-1.037c.782-.132 1.523-.379 1.918-1.926l7.803-32.249c.082-.337.239-.988-.123-1.432-.14-.173-.404-.379-.906-.379-.115 0-.255.008-.403.041l-4.716.807c-1.391.239-1.663 1.301-1.811 1.868l-.971 3.869c-.132.494-.346.535-.634.584l-6.593 1.128c-.041.008-.082.008-.124.008-.14 0-.321-.041-.37-.255l-.914-3.654c-.222-1.079-.922-1.309-1.465-1.309a2.23 2.23 0 0 0-.395.033l-4.667.798c-.461.083-.798.28-1.012.593-.362.543-.198 1.226-.14 1.49l7.416 29.639c.214.963.708 1.441 1.498 1.441zm5.465-22.298l-2.074 8.684-1.802-7.869c-.042-.156-.05-.247-.042-.28l3.943-.667a.392.392 0 0 1-.025.132z" fill="#fff"/><path d="M226.269 124.164a1.75 1.75 0 0 0-.337.033l-4.717.806c-1.152.198-1.35 1.046-1.49 1.606l-.963 3.827c-.189.708-.576.823-.963.889l-6.593 1.127a1.441 1.441 0 0 1-.197.017c-.387 0-.683-.214-.766-.576l-.913-3.647c-.083-.411-.288-.995-1.07-.995-.099 0-.206.008-.33.032l-4.667.799c-1.111.189-.913 1.169-.814 1.58l7.416 29.632c.222.913.634 1.127 1.111 1.127.156 0 .313-.024.477-.049l6.067-1.037c.724-.124 1.251-.313 1.588-1.622l7.795-32.24c.082-.363.321-1.309-.634-1.309zm-11.927 23.919c-.123 0-.214-.132-.304-.428l-1.877-8.198c-.049-.181-.189-.691.338-.782l3.992-.683c.041-.008.074-.008.107-.008.403 0 .271.485.23.675l-2.115 8.881c-.099.354-.19.51-.338.535-.008.008-.024.008-.033.008zm11.927-24.742c.667 0 1.037.296 1.235.543.477.609.288 1.416.197 1.761l-7.803 32.266c-.411 1.613-1.201 2.058-2.247 2.239l-6.066 1.037a3.372 3.372 0 0 1-.617.066c-.683 0-1.564-.305-1.91-1.754l-7.408-29.623c-.074-.321-.263-1.136.198-1.819.189-.288.568-.65 1.284-.774l4.667-.798c.164-.025.321-.041.469-.041.568 0 1.572.214 1.877 1.654l.897 3.564h.041l6.593-1.127c.239-.041.239-.041.304-.297l.955-3.811.008-.049c.149-.568.486-1.885 2.141-2.165l4.716-.806c.156-.058.321-.066.469-.066zm-11.894 22.083l1.548-6.502-2.922.502 1.374 6z" fill="#FF7A00"/></svg>