<svg width="245" height="263" viewBox="0 0 245 263" fill="none" xmlns="http://www.w3.org/2000/svg"><path d="M197.313 38.452a17.455 17.455 0 0 1 11.281 5.38c6.669 7.005 6.398 18.09-.607 24.76a17.46 17.46 0 0 1-12.506 4.826 17.457 17.457 0 0 1-12.254-5.432 17.449 17.449 0 0 1-4.822-11.53l18.908-18.004zm3.365 23.427l3.467.085-3.525-6.216-1.756 2.769 1.814 3.362zm-1.679-.041l-5.575-10.333-6.073 10.048 11.648.285zm-16.822-6.96a15.981 15.981 0 0 0 8.701-4.253 15.93 15.93 0 0 0 3.83-5.64 16.07 16.07 0 0 0 .845-2.844L182.177 54.88zm-1.124 7.13a16.02 16.02 0 0 0 3.23 4.972 16.005 16.005 0 0 0 11.234 4.978 15.998 15.998 0 0 0 11.463-4.422 16 16 0 0 0 4.98-11.233 16 16 0 0 0-4.424-11.465 15.965 15.965 0 0 0-9.703-4.867l-.58.552a17.45 17.45 0 0 1-3.325 8.84l4.143 7.681 2.618-4.133 5.998 10.575-5.211-.127-7.295-.179-9.379-.23 6.481-10.723a17.444 17.444 0 0 1-10.806 4.27l-.581.553c.119 1.71.508 3.374 1.157 4.958z" fill="url(#a)" style="mix-blend-mode:multiply"/><path d="M9.689 24l8.3 10.215.757.93 8.3 10.215L8.359 60.547l-8.3-10.214-.757-.931L-9 39.187 9.689 24zM8.526 58.93l16.906-13.738-7.577-9.324L.95 49.608l7.577 9.323zm8.573-23.992l-7.577-9.324-16.906 13.738 7.577 9.324 16.906-13.739z" fill="#fff"/><path d="M7.298 33.978l-.324-2.282 5.387 1.956-1.908 1.55-2.67 2.17-3.431 2.788-1.29-7.82 4.236 1.638zm2.766.06l-1.686-.614.147 1.032.697.267.842-.684zm-1.868 1.519l-3.675-1.423.64 3.889 3.035-2.467zm-2.679 5.131l7.12-5.787a.576.576 0 0 1 .809.086.576.576 0 0 1-.084.806L6.24 41.579a.572.572 0 0 1-.804-.083.573.573 0 0 1 .08-.808zm15.439 4.449a.573.573 0 0 1 .722.889.573.573 0 0 1-.808-.081.574.574 0 0 1 .086-.808zm-1.779 1.446a.573.573 0 1 1 .721.89.573.573 0 0 1-.721-.89zm-1.783 1.449a.574.574 0 0 1 .808.08.574.574 0 0 1-.891.725.573.573 0 0 1 .083-.805zm-1.779 1.446a.574.574 0 0 1 .809.08.574.574 0 0 1-.891.724.573.573 0 0 1 .082-.804zm-1.78 1.446a.571.571 0 1 1 .721.888.57.57 0 0 1-.803-.084.57.57 0 0 1 .082-.804zm2.264-3.319l-3.431 2.788-1.287-7.818 4.235 1.64-.326-2.286 5.387 1.956-1.907 1.55-2.671 2.17zm-2.62.654l3.036-2.467-3.676-1.422.64 3.889zm4.903-3.984l-1.686-.615.145 1.029.699.27.842-.684zm-21.838-2.168a.575.575 0 0 1 .63-.512l2.852.298.118-1.141a.575.575 0 0 1 1.141.118l-.176 1.709a.575.575 0 0 1-.63.511l-3.423-.353a.575.575 0 0 1-.512-.63zM9.366 52.738a.571.571 0 0 1-.63.512l-.003.002-1.139-.12-.118 1.141a.575.575 0 0 1-1.141-.118l.12-1.138-1.141-.118a.574.574 0 0 1 .118-1.141l1.141.118.116-1.14.003-.002a.574.574 0 0 1 1.141.118l-.118 1.142 1.139.115a.575.575 0 0 1 .512.63z" fill="#fff"/><path d="M9.386 171.518l-.652-1.757-.217-.586-.217-.585c1.6-.593 2.413-2.39 1.814-4.004-.599-1.614-2.387-2.445-3.987-1.852l-.217-.585-.217-.586-.652-1.756 1.6-9.92 7.25-.025.144 3.944 13.343-4.95 6.082 16.395-13.343 4.95 2.464 3.083-5.513 4.709-7.682-6.475zm11.473 1.595l-1.705-2.133-1.081-1.353 1.61-.597 12.182-4.52-5.213-14.053-12.183 4.52-1.61.597-.063-1.73-.098-2.73-5.001.017-1.38 8.556.6 1.616a4.369 4.369 0 0 1 4.358 2.852 4.368 4.368 0 0 1-1.444 5.005l.6 1.616 6.626 5.586 3.802-3.249z" fill="url(#b)" style="mix-blend-mode:multiply"/><path d="M19.299 160.12l-2.178-.417 3.426-4.316.827 2.23 1.159 3.123 1.49 4.016-7.512-1.275 2.788-3.361zm.855-2.235l-.779.981.832.16.255-.309-.308-.831v-.001zm.809 2.181l-2.114 2.548 3.265.554-1.151-3.102z" fill="url(#c)" style="mix-blend-mode:multiply"/><g clip-path="url(#d)"><path d="M120.121 82.043l8.946-8.834-6.443-7.018c-1.285-1.399-1.231-3.614.121-4.948a3.304 3.304 0 0 1 2.41-.967 3.307 3.307 0 0 1 2.362 1.084l6.443 7.018 8.946-8.834 4.65 5.065-8.945 8.834 7.406 8.067-.121 4.949-4.772-.117-7.406-8.068-8.946 8.834-4.651-5.065zm9.762-9.639l1.22-1.204-4.894-5.33-1.22 1.204 4.894 5.33zm-3.182-10.24a2.196 2.196 0 0 0-3.182-.077 2.4 2.4 0 0 0-.08 3.299l.775.844 3.262-3.221-.775-.845zm1.55 1.689l-1.226 1.211 4.893 5.33 1.227-1.21-4.894-5.331zm14.614-2.66l-1.606 1.587.775.844a.599.599 0 0 1-.02.825.55.55 0 0 1-.796-.02h-.001l-.773-.844-1.631 1.61.774.845a.597.597 0 0 1-.02.825.548.548 0 0 1-.795-.02l-.775-.844-1.631 1.61.774.844.001.001a.598.598 0 0 1-.02.824.549.549 0 0 1-.796-.02v.001l-.774-.844-1.631 1.61.774.844a.597.597 0 0 1-.02.825.548.548 0 0 1-.795-.02l-.774-.844-1.631 1.611.774.844a.597.597 0 0 1-.02.825.548.548 0 0 1-.795-.02h-.001l-.774-.844-1.631 1.61.775.845a.599.599 0 0 1-.02.825.55.55 0 0 1-.796-.02l-.775-.844-1.631 1.61.775.845a.597.597 0 0 1-.02.824.548.548 0 0 1-.795-.02l-.775-.843-1.631 1.61.774.844h.001a.599.599 0 0 1-.02.825.548.548 0 0 1-.795-.02l-.776-.843-1.606 1.586 3.1 3.377 21.154-20.889-3.101-3.376zm1.935 24.072l.024-.966-.956.943.932.023zm-3.181-.078l.659.016 2.586-2.554.017-.683-7.086-7.718-1.227 1.212 5.469 5.957a.599.599 0 0 1-.02.825.548.548 0 0 1-.795-.02l-5.47-5.957-1.219 1.204 7.086 7.718z" fill="#fff"/></g><g clip-path="url(#e)"><path d="M79.121 15.043l8.946-8.834-6.443-7.018c-1.285-1.399-1.23-3.614.12-4.948a3.304 3.304 0 0 1 2.411-.967 3.306 3.306 0 0 1 2.362 1.084l6.443 7.018 8.946-8.834 4.65 5.065-8.945 8.834 7.406 8.067-.121 4.949-4.772-.117-7.406-8.068-8.946 8.834-4.65-5.065zm9.762-9.639l1.22-1.204-4.894-5.33-1.22 1.204 4.894 5.33zM85.7-4.836a2.196 2.196 0 0 0-3.181-.077 2.4 2.4 0 0 0-.081 3.299l.775.844 3.262-3.221-.775-.844zm1.55 1.689l-1.227 1.211 4.894 5.33 1.227-1.21-4.894-5.331zm14.614-2.66l-1.606 1.587.775.844a.599.599 0 0 1-.02.825.55.55 0 0 1-.796-.02h-.001l-.773-.844-1.631 1.61.774.845a.598.598 0 0 1-.02.825.548.548 0 0 1-.795-.02l-.775-.844-1.631 1.61.774.844.001.001a.6.6 0 0 1-.02.824.548.548 0 0 1-.796-.02v.001l-.774-.844-1.631 1.61.774.844a.598.598 0 0 1-.02.825.548.548 0 0 1-.795-.02l-.775-.844-1.63 1.611.774.844a.598.598 0 0 1-.02.825.548.548 0 0 1-.795-.02l-.775-.844-1.631 1.61.775.845a.6.6 0 0 1-.02.825.55.55 0 0 1-.796-.02l-.775-.844-1.63 1.61.774.845a.598.598 0 0 1-.02.824.548.548 0 0 1-.795-.02l-.775-.843-1.63 1.61.773.844h.001a.598.598 0 0 1-.02.825.548.548 0 0 1-.795-.02l-.775-.843-1.607 1.586 3.1 3.377L104.966-2.43l-3.101-3.376zm1.935 24.072l.024-.966-.956.943.932.023zm-3.181-.078l.659.016 2.586-2.554.017-.683-7.086-7.718-1.227 1.212 5.469 5.957a.599.599 0 0 1-.02.825.548.548 0 0 1-.795-.02l-5.47-5.957-1.22 1.204 7.087 7.718z" fill="url(#f)" style="mix-blend-mode:multiply"/></g><path d="M65.14 209.661l4.897 4.98a.582.582 0 0 1-.83.817l-4.897-4.981a.583.583 0 0 1 .83-.816z" fill="url(#g)" style="mix-blend-mode:multiply"/><path d="M70.868 213.825l-1.632-1.66a.582.582 0 1 1 .829-.816l1.632 1.66a.582.582 0 1 1-.83.816z" fill="url(#h)" style="mix-blend-mode:multiply"/><path d="M59.093 201.393l2.024-.489-1.297 5.008-1.555-1.582-2.176-2.213-2.798-2.847 6.915-1.822-1.113 3.945zm.116 2.236l.294-1.138-.771.186-.103.362.58.59zm-1.52-1.545l.844-2.991-3.005.791 2.162 2.2z" fill="url(#i)" style="mix-blend-mode:multiply"/><path d="M62.86 187.414l18.772 19.094a.582.582 0 0 1-.007.823l-11.623 11.427a.583.583 0 0 1-.822-.008l-18.772-19.093a.582.582 0 0 1 .007-.822l11.622-11.427a.582.582 0 0 1 .823.006zm.379 2.047l3.181 12.943a.53.53 0 0 0 .285.29l12.89 3.403-16.356-16.636zm6.363 28.057l10.308-10.134-13.502-3.565a1.57 1.57 0 0 1-.703-.427 1.575 1.575 0 0 1-.415-.71l-3.334-13.563-10.31 10.137 17.956 18.262z" fill="url(#j)" style="mix-blend-mode:multiply"/><path d="M129.545 16.723c.172-7.027 5.981-12.584 12.975-12.413 2.306.056 4.453.729 6.289 1.857a12.564 12.564 0 0 1 6.373-1.547c6.994.171 12.524 6.006 12.352 13.033a12.731 12.731 0 0 1-6.694 10.916c-.907 6.287-6.367 11.044-12.846 10.885-6.478-.158-11.699-5.177-12.297-11.5a12.732 12.732 0 0 1-6.152-11.23zm29.536 12.626c-1.412.5-2.936.756-4.522.718a12.56 12.56 0 0 1-6.289-1.858 12.564 12.564 0 0 1-6.373 1.548 12.582 12.582 0 0 1-4.481-.939 11.096 11.096 0 0 0 2.863 5.593 11.043 11.043 0 0 0 3.463 2.474 10.99 10.99 0 0 0 4.291.98 10.967 10.967 0 0 0 4.334-.77 11.042 11.042 0 0 0 3.581-2.3 11.098 11.098 0 0 0 3.133-5.446zm-21.856-2.364a10.964 10.964 0 0 0 4.711 1.182 10.962 10.962 0 0 0 4.877-1.002 12.725 12.725 0 0 1-4.607-9.732c-.546.362-1.062.774-1.542 1.234a11.114 11.114 0 0 0-3.439 8.318zm6.592-10.438a11.117 11.117 0 0 0 3.026 8.476c.456.482.948.916 1.473 1.303a11.129 11.129 0 0 0 4.972-9.547 10.972 10.972 0 0 0-4.709-1.182 10.973 10.973 0 0 0-4.762.95zm4.8-2.54c1.585.04 3.096.37 4.481.939a11.13 11.13 0 0 0-4.335-6.896c-.543.361-1.056.771-1.534 1.23a11.056 11.056 0 0 0-3.132 5.446c1.411-.5 2.936-.757 4.52-.718zm6.237 3.736a12.723 12.723 0 0 1-5.078 9.495 10.957 10.957 0 0 0 4.822 1.239 10.963 10.963 0 0 0 4.763-.95c.012-.174.02-.349.024-.525a11.099 11.099 0 0 0-.763-4.354 11.096 11.096 0 0 0-2.289-3.598 11.016 11.016 0 0 0-1.479-1.307zM150.266 7.21a12.723 12.723 0 0 1 4.551 8.6 12.733 12.733 0 0 1 6.155 10.83 11.113 11.113 0 0 0 1.541-1.234 11.08 11.08 0 0 0 2.462-3.481 11.09 11.09 0 0 0 .976-4.311 11.1 11.1 0 0 0-.764-4.354 11.08 11.08 0 0 0-2.289-3.598 11.055 11.055 0 0 0-3.463-2.473 10.972 10.972 0 0 0-4.292-.98 10.963 10.963 0 0 0-4.877 1.001zm-18.162 5.24a11.126 11.126 0 0 0-.976 4.31 11.118 11.118 0 0 0 3.053 7.953c.457.482.951.919 1.478 1.308a12.734 12.734 0 0 1 6.679-10.517 12.719 12.719 0 0 1 4.965-8.366 10.958 10.958 0 0 0-4.822-1.239 10.968 10.968 0 0 0-4.334.769 11.047 11.047 0 0 0-3.58 2.3 11.1 11.1 0 0 0-2.463 3.482z" fill="url(#k)" style="mix-blend-mode:multiply"/><path d="M242.905 20.297l-7.467 4.872-3.2 2.088-7.467 4.872L207 7.223 227.268-6l15.637 26.297zm-1.719-.4l-1.303-2.19-6.533 4.262 1.392 2.133 6.444-4.204zm-7.511 4.902l-2.784-4.267-1.066.696 2.784 4.266 1.066-.695zm-2.133 1.391l-1.392-2.133-6.533 4.263 1.481 2.075 6.444-4.205zM208.808 7.565l14.068 19.717 6.578-4.292-1.392-2.133a.637.637 0 0 1 1.067-.696.637.637 0 1 1 1.066-.696.637.637 0 0 1 1.067-.696l1.392 2.133 6.577-4.291-12.379-20.819-18.044 11.773z" fill="#fff"/><path d="M227.81 13.923l-5.488-2.812.119 3.129-6.999-3.4 2.794-1.823 3.911-2.552 5.029-3.281.634 10.74zm-9.787-3.245l3.065 1.488-.065-1.72-1.482-.76-1.518.992zm2.747-1.793l5.638 2.888-.374-6.322-5.264 3.434z" fill="#fff"/><g clip-path="url(#l)"><path d="M48.72 98.263L.507 110.656l-2.662-10.352 48.212-12.395 2.661 10.353zM1.79 108.487l3.4-.875-.445-1.725a.893.893 0 0 1 1.726-.444v.001l.443 1.725 3.451-.887-.443-1.725a.89.89 0 1 1 1.725-.445l.444 1.727 3.45-.888-.442-1.725v-.001a.89.89 0 1 1 1.725-.443v.001l.444 1.724 3.45-.887-.443-1.725a.892.892 0 0 1 1.726-.444l.443 1.726 3.451-.887-.444-1.725a.891.891 0 1 1 1.726-.444l.444 1.726 3.45-.888-.443-1.726a.89.89 0 1 1 1.725-.443l.444 1.725 3.452-.887-.445-1.725a.892.892 0 0 1 1.727-.444h-.001l.444 1.726 3.451-.888-.443-1.724h-.001a.892.892 0 0 1 1.726-.445l.444 1.725 3.4-.874-1.775-6.902L.015 101.586l1.774 6.902z" fill="url(#m)" style="mix-blend-mode:multiply"/></g><path d="M16.314 6.427l14.47-17.057a.486.486 0 0 1 .684-.055L43.333-.62c.205.173.23.48.057.685l-5.22 6.153 2.6 1.444.126-.149a.487.487 0 0 1 .742.63l-5.033 5.933a.486.486 0 0 1-.742-.63l.126-.148-1.847-2.332-5.222 6.155a.486.486 0 0 1-.685.056L16.371 7.11a.486.486 0 0 1-.057-.684zM40.13 8.418l-2.6-1.441-2.746 3.235 1.846 2.33 3.498-4.124zM17.37 6.684l9.64 8.178L40.85-1.451 31.21-9.63 17.37 6.684zm18.043 1.28l6.92-8.157-.743-.629-6.919 8.157-6.92 8.156.742.63 6.92-8.157z" fill="url(#n)" style="mix-blend-mode:multiply"/><path d="M34.728 8.02a.486.486 0 1 1 .628-.742.486.486 0 0 1-.628.742z" fill="url(#o)" style="mix-blend-mode:multiply"/><path d="M31.748-7.259L22.313 3.863v.001a.486.486 0 0 1-.742-.629l9.436-11.123a.487.487 0 1 1 .741.63z" fill="url(#p)" style="mix-blend-mode:multiply"/><path d="M33.231-6L28.2-.07a.486.486 0 1 1-.742-.628L32.49-6.63a.487.487 0 1 1 .741.629z" fill="url(#q)" style="mix-blend-mode:multiply"/><path d="M34.716-4.742l-6.919 8.156a.486.486 0 1 1-.742-.628l6.92-8.157a.487.487 0 1 1 .741.63z" fill="url(#r)" style="mix-blend-mode:multiply"/><path d="M36.198-3.484l-4.403 5.19a.486.486 0 1 1-.741-.629l4.403-5.19a.487.487 0 1 1 .741.629z" fill="url(#s)" style="mix-blend-mode:multiply"/><path d="M37.681-2.226l-8.177 9.64a.487.487 0 1 1-.742-.63l8.178-9.639a.487.487 0 1 1 .741.63z" fill="url(#t)" style="mix-blend-mode:multiply"/><path d="M39.164-.968L36.65 1.998a.487.487 0 1 1-.742-.63l2.516-2.965a.486.486 0 1 1 .741.63z" fill="url(#u)" style="mix-blend-mode:multiply"/><path d="M88.792 131.46l3.897-3.906 4.006 13.111-5.704-1.419-7.986-1.988-10.266-2.555 13.101-13.699 2.952 10.456zm5.106 6.553l-2.1-6.877-2.415 2.419 1.013 3.586 3.502.872zm-5.625-1.4l-3.357-11.895-8.544 8.933 11.901 2.962z" fill="#fff"/><path d="M79.834 106.199l.468-1.882a.958.958 0 0 1 1.155-.712.96.96 0 0 1 .687 1.17l-.468 1.882 3.686.918.468-1.882a.958.958 0 0 1 1.155-.712.96.96 0 0 1 .688 1.17l-.469 1.882 3.686.918.468-1.883a.96.96 0 0 1 1.155-.711.96.96 0 0 1 .688 1.17l-.468 1.882 3.685.917.468-1.882a.96.96 0 0 1 1.156-.711.96.96 0 0 1 .688 1.17l-.469 1.882 3.685.917.469-1.882a.959.959 0 0 1 1.155-.711.96.96 0 0 1 .688 1.17l-.468 1.882 5.528 1.376-10.305 41.405L64 146.228l10.305-41.405 5.528 1.376zM66.3 144.843l31.328 7.797 9.387-37.719-3.685-.917-.449 1.803a.96.96 0 0 1-1.156.712.96.96 0 0 1-.687-1.17l.449-1.804-3.686-.917-.448 1.803a.96.96 0 0 1-1.157.712.96.96 0 0 1-.686-1.17l.448-1.803-3.685-.918-.449 1.804a.96.96 0 0 1-1.156.711.96.96 0 0 1-.687-1.17l.449-1.803-3.685-.918-.45 1.804a.96.96 0 0 1-1.155.712.96.96 0 0 1-.687-1.171l.45-1.803-3.687-.918-.449 1.804a.96.96 0 0 1-1.156.712.96.96 0 0 1-.686-1.171l.449-1.803-3.686-.917-9.388 37.718z" fill="#fff"/><path d="M70.251 38.446l22.24 20.556a.659.659 0 0 1 .038.93l-14.3 15.472a.659.659 0 0 1-.93.036l-8.025-7.416-2.102 3.436.193.178a.659.659 0 0 1-.894.967l-7.736-7.15a.658.658 0 1 1 .894-.967l.194.179 3.26-2.365-8.025-7.417a.658.658 0 0 1-.036-.93l14.3-15.472a.658.658 0 0 1 .93-.037zm-4.065 32.102l2.1-3.43-4.22-3.902-3.258 2.362 5.378 4.97zm-.813-25.853l2.9 2.681 4.47-4.834-2.902-2.681-4.468 4.834zm2.007 3.648l-2.901-2.68-6.256 6.768 2.9 2.68 6.257-6.768zm6.329-4.908L62.09 56.005l17.405 16.087 11.618-12.57L73.71 43.435zm-6.637 20.761l10.636 9.83.894-.967-10.636-9.83-10.637-9.831-.894.967 10.637 9.831z" fill="url(#v)" style="mix-blend-mode:multiply"/><path d="M67.037 63.266a.658.658 0 1 1 .966.892.658.658 0 0 1-.966-.892z" fill="url(#w)" style="mix-blend-mode:multiply"/><path d="M73.825 59.661l-3.315-3.064 7.713-2.434-1.043 4.518 2.26-.66-1.194 5.726-1.843-1.703-2.578-2.383zm2.597-3.549L73.07 57.17l2.56 2.367.792-3.425zm1.01 5.089l.27-1.301-.861.252-.096.415.686.634z" fill="url(#x)" style="mix-blend-mode:multiply"/><path d="M85.46 57.88l.967.894-.894.967-.966-.893.893-.967z" fill="url(#y)" style="mix-blend-mode:multiply"/><path d="M80.143 52.966l.966.893-.893.968-.967-.894.894-.967z" fill="url(#z)" style="mix-blend-mode:multiply"/><path d="M74.825 48.05l.967.895-.894.967-.967-.895.894-.967z" fill="url(#A)" style="mix-blend-mode:multiply"/><path d="M71.249 51.918l.967.894-.893.967-.968-.894.894-.967z" fill="url(#B)" style="mix-blend-mode:multiply"/><path d="M67.673 55.786l.968.894-.894.967-.968-.894.894-.967z" fill="url(#C)" style="mix-blend-mode:multiply"/><path d="M78.309 65.617l.967.893-.894.967-.967-.893.894-.968z" fill="url(#D)" style="mix-blend-mode:multiply"/><path d="M81.885 61.749l.966.893-.893.967-.967-.893.894-.967z" fill="url(#E)" style="mix-blend-mode:multiply"/><path d="M72.992 60.702l.966.893-.894.967-.966-.893.894-.967z" fill="url(#F)" style="mix-blend-mode:multiply"/><path d="M31.176 249.804l.096-3.912 5.945.146.169-6.892 4.105.1-.17 6.892 5.946.146-.096 3.912-5.945-.146-.176 7.191-4.105-.101.176-7.19-5.945-.146z" fill="#fff"/><path d="M10.511 223.371c.037-1.506 4.456-14.245-11.663-10.119-16.12 4.126-20.862-3.525-23.79-18.117-2.929-14.592-12.474-16.195-20.006-16.106" stroke="url(#G)" stroke-width="8" stroke-linecap="round" stroke-linejoin="round" style="mix-blend-mode:multiply"/><circle r="10.5" transform="scale(-1 1) rotate(-1.403 7592.912 4844.685)" stroke="#fff" stroke-width="5"/><defs><linearGradient id="a" x1="179.291" y1="38.857" x2="218.29" y2="51.397" gradientUnits="userSpaceOnUse"><stop stop-color="#FFC000"/><stop offset="1" stop-color="#FF8A00"/></linearGradient><linearGradient id="b" x1="12.853" y1="179.141" x2="12.427" y2="144.694" gradientUnits="userSpaceOnUse"><stop stop-color="#FFC000"/><stop offset="1" stop-color="#FF8A00"/></linearGradient><linearGradient id="c" x1="17.94" y1="166.874" x2="18.658" y2="155.762" gradientUnits="userSpaceOnUse"><stop stop-color="#FFC000"/><stop offset="1" stop-color="#FF8A00"/></linearGradient><linearGradient id="f" x1="80.02" y1="-7.314" x2="110.282" y2="2.093" gradientUnits="userSpaceOnUse"><stop stop-color="#FFC000"/><stop offset="1" stop-color="#FF8A00"/></linearGradient><linearGradient id="g" x1="64.786" y1="209.341" x2="63.33" y2="213.428" gradientUnits="userSpaceOnUse"><stop stop-color="#FFC000"/><stop offset="1" stop-color="#FF8A00"/></linearGradient><linearGradient id="h" x1="69.668" y1="210.986" x2="69.835" y2="214.173" gradientUnits="userSpaceOnUse"><stop stop-color="#FFC000"/><stop offset="1" stop-color="#FF8A00"/></linearGradient><linearGradient id="i" x1="57.696" y1="195.109" x2="61.364" y2="204.834" gradientUnits="userSpaceOnUse"><stop stop-color="#FFC000"/><stop offset="1" stop-color="#FF8A00"/></linearGradient><linearGradient id="j" x1="62.406" y1="187.555" x2="72.58" y2="216.663" gradientUnits="userSpaceOnUse"><stop stop-color="#FFC000"/><stop offset="1" stop-color="#FF8A00"/></linearGradient><linearGradient id="k" x1="130.33" y1="4.858" x2="172.049" y2="19.343" gradientUnits="userSpaceOnUse"><stop stop-color="#FFC000"/><stop offset="1" stop-color="#FF8A00"/></linearGradient><linearGradient id="m" x1="51.392" y1="91.707" x2="14.788" y2="125.835" gradientUnits="userSpaceOnUse"><stop stop-color="#FFC000"/><stop offset="1" stop-color="#FF8A00"/></linearGradient><linearGradient id="n" x1="16.573" y1="6.885" x2="39.688" y2="-7.045" gradientUnits="userSpaceOnUse"><stop stop-color="#FFC000"/><stop offset="1" stop-color="#FF8A00"/></linearGradient><linearGradient id="o" x1="34.384" y1="7.711" x2="35.334" y2="7.087" gradientUnits="userSpaceOnUse"><stop stop-color="#FFC000"/><stop offset="1" stop-color="#FF8A00"/></linearGradient><linearGradient id="p" x1="21.405" y1="3.467" x2="24.872" y2="5.336" gradientUnits="userSpaceOnUse"><stop stop-color="#FFC000"/><stop offset="1" stop-color="#FF8A00"/></linearGradient><linearGradient id="q" x1="27.235" y1="-.398" x2="30.782" y2=".869" gradientUnits="userSpaceOnUse"><stop stop-color="#FFC000"/><stop offset="1" stop-color="#FF8A00"/></linearGradient><linearGradient id="r" x1="26.857" y1="3.056" x2="30.382" y2="4.664" gradientUnits="userSpaceOnUse"><stop stop-color="#FFC000"/><stop offset="1" stop-color="#FF8A00"/></linearGradient><linearGradient id="s" x1="30.822" y1="1.386" x2="34.36" y2="2.49" gradientUnits="userSpaceOnUse"><stop stop-color="#FFC000"/><stop offset="1" stop-color="#FF8A00"/></linearGradient><linearGradient id="t" x1="28.58" y1="7.036" x2="32.076" y2="8.794" gradientUnits="userSpaceOnUse"><stop stop-color="#FFC000"/><stop offset="1" stop-color="#FF8A00"/></linearGradient><linearGradient id="u" x1="35.651" y1="1.707" x2="38.964" y2="2.064" gradientUnits="userSpaceOnUse"><stop stop-color="#FFC000"/><stop offset="1" stop-color="#FF8A00"/></linearGradient><linearGradient id="v" x1="69.616" y1="38.77" x2="87.13" y2="70.842" gradientUnits="userSpaceOnUse"><stop stop-color="#FFC000"/><stop offset="1" stop-color="#FF8A00"/></linearGradient><linearGradient id="w" x1="67.474" y1="62.817" x2="68.264" y2="64.14" gradientUnits="userSpaceOnUse"><stop stop-color="#FFC000"/><stop offset="1" stop-color="#FF8A00"/></linearGradient><linearGradient id="x" x1="75.262" y1="51.657" x2="79.931" y2="62.446" gradientUnits="userSpaceOnUse"><stop stop-color="#FFC000"/><stop offset="1" stop-color="#FF8A00"/></linearGradient><linearGradient id="y" x1="85.451" y1="57.916" x2="86.241" y2="59.239" gradientUnits="userSpaceOnUse"><stop stop-color="#FFC000"/><stop offset="1" stop-color="#FF8A00"/></linearGradient><linearGradient id="z" x1="80.134" y1="53.001" x2="80.923" y2="54.324" gradientUnits="userSpaceOnUse"><stop stop-color="#FFC000"/><stop offset="1" stop-color="#FF8A00"/></linearGradient><linearGradient id="A" x1="74.816" y1="48.085" x2="75.606" y2="49.41" gradientUnits="userSpaceOnUse"><stop stop-color="#FFC000"/><stop offset="1" stop-color="#FF8A00"/></linearGradient><linearGradient id="B" x1="71.24" y1="51.953" x2="72.03" y2="53.277" gradientUnits="userSpaceOnUse"><stop stop-color="#FFC000"/><stop offset="1" stop-color="#FF8A00"/></linearGradient><linearGradient id="C" x1="67.664" y1="55.821" x2="68.454" y2="57.145" gradientUnits="userSpaceOnUse"><stop stop-color="#FFC000"/><stop offset="1" stop-color="#FF8A00"/></linearGradient><linearGradient id="D" x1="78.3" y1="65.651" x2="79.09" y2="66.975" gradientUnits="userSpaceOnUse"><stop stop-color="#FFC000"/><stop offset="1" stop-color="#FF8A00"/></linearGradient><linearGradient id="E" x1="81.876" y1="61.784" x2="82.665" y2="63.107" gradientUnits="userSpaceOnUse"><stop stop-color="#FFC000"/><stop offset="1" stop-color="#FF8A00"/></linearGradient><linearGradient id="F" x1="72.983" y1="60.737" x2="73.772" y2="62.06" gradientUnits="userSpaceOnUse"><stop stop-color="#FFC000"/><stop offset="1" stop-color="#FF8A00"/></linearGradient><linearGradient id="G" x1="-44.232" y1="180.058" x2="15.514" y2="205.103" gradientUnits="userSpaceOnUse"><stop stop-color="#FFC000"/><stop offset="1" stop-color="#FF8A00"/></linearGradient><clipPath id="d"><path fill="#fff" transform="scale(-1 1) rotate(-1.403 2363.084 6061.878)" d="M0 0h27v28H0z"/></clipPath><clipPath id="e"><path fill="#fff" transform="scale(-1 1) rotate(-1.403 -353.113 4353.683)" d="M0 0h27v28H0z"/></clipPath><clipPath id="l"><path fill="#fff" transform="scale(1 -1) rotate(59.417 128.066 -37.283)" d="M0 0h42.758v42.758H0z"/></clipPath></defs></svg>