<svg width="295" height="158" viewBox="0 0 295 158" fill="none" xmlns="http://www.w3.org/2000/svg"><g clip-path="url(#a)"><path d="M256.368 118.757a17.45 17.45 0 0 1-1.976 12.341c-4.836 8.377-15.547 11.247-23.924 6.411a17.462 17.462 0 0 1-8.16-10.635 17.458 17.458 0 0 1 1.75-13.289 17.445 17.445 0 0 1 9.7-7.882l22.61 13.054zm-21.523 9.844l.897 3.35 4.968-5.137-3.152-.903-2.713 2.69zm-.435-1.623l8.338-8.265-11.354-2.989 3.016 11.254zm1.925-18.102a16.041 16.041 0 0 0 1.758 2.929 15.953 15.953 0 0 0 4.78 4.216 15.908 15.908 0 0 0 6.493 2.082c.993.095 1.984.097 2.966.008l-15.997-9.235zm-7.155.935a16.002 16.002 0 0 0-3.859 4.503 15.98 15.98 0 0 0-1.603 12.182 16.007 16.007 0 0 0 7.48 9.748 15.988 15.988 0 0 0 12.182 1.605 15.991 15.991 0 0 0 9.748-7.481 15.96 15.96 0 0 0 1.93-10.683l-.693-.4a17.45 17.45 0 0 1-9.42-.694l-6.199 6.144 4.704 1.345-8.45 8.74-1.349-5.035-1.889-7.049-2.428-9.062 12.116 3.189a17.443 17.443 0 0 1-7.147-9.161l-.695-.401a15.97 15.97 0 0 0-4.428 2.51z" fill="url(#b)" style="mix-blend-mode:multiply"/><path d="M75.65-23.945l1.501-1.121.5-.374.5-.374c1.022 1.367 2.975 1.64 4.355.61 1.379-1.03 1.67-2.98.65-4.347l.5-.374.5-.374 1.502-1.12 9.967-1.267 2.072 6.948-3.743 1.25 8.516 11.403L88.46-2.62l-8.517-11.402-2.261 3.234-6.075-3.959 4.043-9.198zm1.71 11.457l1.564-2.239.993-1.419 1.027 1.376L88.72-4.36l12.009-8.97-7.776-10.41-1.027-1.376 1.642-.548 2.59-.866-1.428-4.792-8.598 1.092-1.38 1.032a4.368 4.368 0 0 1-1.506 4.986 4.367 4.367 0 0 1-5.208.028l-1.381 1.032-3.488 7.934 4.19 2.73z" fill="url(#c)" style="mix-blend-mode:multiply"/><g clip-path="url(#d)"><path d="M192.753 57.017l11 6.087 4.914-8.163c.979-1.627 3.119-2.2 4.781-1.281a3.305 3.305 0 0 1 1.608 2.04 3.307 3.307 0 0 1-.373 2.57l-4.913 8.164 11 6.087-3.545 5.891-11.001-6.087-5.647 9.384-4.782 1.28-1.235-4.61 5.648-9.383-11.001-6.087 3.546-5.892zm12.003 6.642l1.5.83 3.731-6.2-1.5-.83-3.731 6.2zm8.925-5.944a2.2 2.2 0 0 0 .248-1.713 2.201 2.201 0 0 0-1.072-1.36 2.4 2.4 0 0 0-3.188.854l-.591.982 4.012 2.22.591-.983zm-1.182 1.964l-1.509-.834-3.731 6.199 1.508.835 3.732-6.2zm6.678 13.269l-1.976-1.093-.591.982a.6.6 0 0 1-.797.213.549.549 0 0 1-.206-.768l.001-.001.59-.981-2.005-1.11-.591.982a.598.598 0 0 1-.797.213.548.548 0 0 1-.206-.768l.591-.982-2.006-1.11-.59.981-.001.001a.598.598 0 0 1-.796.214.548.548 0 0 1-.206-.769h-.001l.592-.981-2.006-1.11-.591.981a.598.598 0 0 1-.797.214.548.548 0 0 1-.205-.768l.591-.982-2.006-1.11-.591.982a.598.598 0 0 1-.797.213.548.548 0 0 1-.206-.768h.001l.59-.982-2.005-1.11-.591.982a.6.6 0 0 1-.797.214.55.55 0 0 1-.206-.769l.591-.981-2.006-1.11-.59.981a.598.598 0 0 1-.797.214.547.547 0 0 1-.206-.768l.591-.982-2.006-1.11-.59.981h-.001a.598.598 0 0 1-.797.215.547.547 0 0 1-.205-.769l.59-.982-1.975-1.093-2.364 3.928 26.012 14.394 2.364-3.928zm-22.546 8.654l.934-.25-1.175-.651.241.9zm-.823-3.074l.17.636 3.181 1.76.66-.176 5.402-8.978-1.508-.834-4.17 6.928a.598.598 0 0 1-.797.213.548.548 0 0 1-.206-.767l4.17-6.93-1.5-.83-5.402 8.978z" fill="#fff"/></g><g clip-path="url(#e)"><path d="M245.448-1.234l11.001 6.087 4.913-8.163c.979-1.627 3.12-2.2 4.781-1.281a3.302 3.302 0 0 1 1.608 2.04 3.302 3.302 0 0 1-.373 2.57l-4.913 8.163 11.001 6.087-3.546 5.892-11-6.087-5.648 9.383-4.781 1.282-1.236-4.61 5.648-9.384-11-6.087 3.545-5.892zm12.004 6.642l1.499.83 3.731-6.2-1.499-.83-3.731 6.2zm8.924-5.944a2.196 2.196 0 0 0-.824-3.074 2.398 2.398 0 0 0-3.187.854l-.591.983 4.011 2.22.591-.983zm-1.182 1.964l-1.509-.834-3.731 6.199 1.508.835 3.732-6.2zm6.678 13.269l-1.976-1.094-.59.983a.6.6 0 0 1-.797.213.549.549 0 0 1-.206-.769l.591-.981-2.006-1.11-.591.982a.598.598 0 0 1-.797.213.548.548 0 0 1-.206-.768h.001l.59-.982-2.005-1.11-.591.981v.001a.6.6 0 0 1-.797.214.549.549 0 0 1-.206-.77l.591-.98-2.005-1.11-.591.981a.598.598 0 0 1-.797.214.548.548 0 0 1-.206-.769l.591-.981-2.006-1.11-.591.982a.598.598 0 0 1-.797.213.548.548 0 0 1-.205-.768l.591-.982-2.006-1.11-.591.982a.6.6 0 0 1-.797.214.549.549 0 0 1-.206-.769l.591-.982-2.005-1.11-.591.982a.598.598 0 0 1-.797.214.548.548 0 0 1-.206-.768h.001l.59-.982-2.005-1.11-.591.98v.002a.598.598 0 0 1-.797.213.548.548 0 0 1-.206-.768l.591-.982L245.86.303l-2.364 3.928 26.012 14.393 2.364-3.927zm-22.545 8.653l.933-.25-1.175-.65.242.9zm-.824-3.073l.171.636 3.18 1.76.66-.177 5.403-8.977-1.509-.835-4.17 6.929a.598.598 0 0 1-.797.213.548.548 0 0 1-.206-.768l4.17-6.929-1.499-.83-5.403 8.978z" fill="url(#f)" style="mix-blend-mode:multiply"/></g><path d="M54.803 40.311l-3.395 6.104a.582.582 0 0 1-1.018-.566l3.395-6.104a.582.582 0 0 1 1.018.566z" fill="url(#g)" style="mix-blend-mode:multiply"/><path d="M52.426 46.981l1.132-2.034a.582.582 0 1 1 1.016.565l-1.131 2.035a.581.581 0 1 1-1.017-.566z" fill="url(#h)" style="mix-blend-mode:multiply"/><path d="M61.028 32.175l1.04 1.804-5.17.17 1.077-1.938 1.51-2.713 1.94-3.488 3.701 6.12-4.099.045zm-2.113.743l1.175-.039-.396-.688-.377.005-.402.722zm1.053-1.894l3.107-.036-1.608-2.659-1.499 2.695z" fill="url(#i)" style="mix-blend-mode:multiply"/><path d="M75.5 31.841l-13.015 23.4a.582.582 0 0 1-.792.226L47.45 47.544a.583.583 0 0 1-.225-.791l13.015-23.4a.582.582 0 0 1 .79-.225l14.244 7.922a.582.582 0 0 1 .226.791zm-1.856.942L62.126 39.49a.53.53 0 0 0-.197.355l.374 13.327 11.341-20.39zM48.525 46.81l12.633 7.027-.393-13.959a1.582 1.582 0 0 1 .21-.795 1.58 1.58 0 0 1 .566-.6l12.068-7.027-12.634-7.028-12.45 22.382z" fill="url(#j)" style="mix-blend-mode:multiply"/><path d="M258.075 47.612c6.79-1.82 13.762 2.184 15.572 8.942a12.571 12.571 0 0 1-.005 6.557 12.566 12.566 0 0 1 3.284 5.677c1.81 6.758-2.226 13.71-9.015 15.53a12.731 12.731 0 0 1-12.362-3.34c-6.287.906-12.393-2.99-14.07-9.249-1.677-6.259 1.663-12.685 7.56-15.044a12.732 12.732 0 0 1 9.036-9.073zm-3.771 31.9a12.57 12.57 0 0 1-1.965-4.136 12.571 12.571 0 0 1 .005-6.558 12.568 12.568 0 0 1-3.284-5.676 12.606 12.606 0 0 1-.365-4.564 11.116 11.116 0 0 0-4.557 4.325 11.036 11.036 0 0 0 4.057 15.14 11.096 11.096 0 0 0 6.109 1.468zM250.4 57.876a10.961 10.961 0 0 0 .197 4.853 10.95 10.95 0 0 0 2.337 4.396 12.727 12.727 0 0 1 8.036-7.168c-.502-.422-1.043-.8-1.619-1.13a11.108 11.108 0 0 0-8.447-1.098c-.17.046-.338.094-.504.147zm11.874 3.376a11.117 11.117 0 0 0-7.277 5.297 11.15 11.15 0 0 0-.833 1.78 11.12 11.12 0 0 0 10.562 2.074 10.978 10.978 0 0 0-.196-4.852 10.98 10.98 0 0 0-2.256-4.299zm3.792 3.888c.411 1.531.52 3.074.365 4.563a11.104 11.104 0 0 0 5.391-6.105 11.027 11.027 0 0 0-1.612-1.125 11.118 11.118 0 0 0-6.109-1.467 12.586 12.586 0 0 1 1.965 4.134zm-1.822 7.038a12.722 12.722 0 0 1-10.542-2.19 10.955 10.955 0 0 0 .173 4.976 10.955 10.955 0 0 0 2.256 4.3 11.105 11.105 0 0 0 7.276-5.298c.334-.574.613-1.172.837-1.788zm8.808-7.375a12.72 12.72 0 0 1-6.965 6.793 12.734 12.734 0 0 1-8.652 8.964 11.202 11.202 0 0 0 5.654 2.508 11.11 11.11 0 0 0 4.412-.28 11.107 11.107 0 0 0 3.961-1.964 11.097 11.097 0 0 0 2.805-3.211 11.054 11.054 0 0 0 1.394-4.021 10.961 10.961 0 0 0-.272-4.394 10.95 10.95 0 0 0-2.337-4.395zM262.897 48.86a11.108 11.108 0 0 0-4.412.28 11.107 11.107 0 0 0-3.961 1.963 11.098 11.098 0 0 0-2.805 3.212 11.104 11.104 0 0 0-.837 1.787 12.735 12.735 0 0 1 11.975 3.437 12.72 12.72 0 0 1 9.427 2.4 10.956 10.956 0 0 0-.173-4.976 10.956 10.956 0 0 0-1.961-3.94 11.052 11.052 0 0 0-3.218-2.785 11.084 11.084 0 0 0-4.035-1.378z" fill="url(#k)" style="mix-blend-mode:multiply"/><path d="M286.658 157.368l-6.782-5.788-2.906-2.48-6.783-5.788 18.874-24.08 18.409 15.708-20.812 22.428zm-.102-1.762l1.734-1.869-5.933-5.063-1.654 1.937 5.853 4.995zm-6.822-5.822l3.307-3.875-.969-.827-3.307 3.876.969.826zm-1.938-1.653l1.654-1.938-5.934-5.063-1.573 2.006 5.853 4.995zm11.448-27.068l-14.942 19.063 5.975 5.098 1.653-1.937a.636.636 0 1 1 .969.826.637.637 0 0 1 .969.827.637.637 0 1 1 .969.827l-1.654 1.938 5.974 5.097 16.476-17.754-16.389-13.985z" fill="#fff"/><path d="M288.51 141.087l1.148-6.059-2.968.998 1.285-7.675 2.538 2.166 3.553 3.031 4.567 3.898-10.123 3.641zm.35-10.306l-.563 3.361 1.633-.548.309-1.636-1.379-1.177zm2.496 2.13l-1.179 6.223 5.96-2.144-4.781-4.079zM136.5 40.917l4.848 2.636-11.446 7.545-.249-5.873-.349-8.222-.448-10.57 16.841 8.7-9.197 5.784zm-4.844 6.75l6.004-3.958-3.002-1.633-3.154 1.984.152 3.606zm-.245-5.792l10.463-6.58-10.982-5.674.519 12.254z" fill="#fff"/><path d="M158.204 25.19l1.938-.082a.958.958 0 0 1 1.008.907.958.958 0 0 1-.928.99l-1.938.082.161 3.795 1.938-.082a.96.96 0 0 1 1.009.907.96.96 0 0 1-.929.99l-1.938.082.161 3.794 1.938-.082a.96.96 0 0 1 1.009.908.96.96 0 0 1-.929.99l-1.937.082.16 3.794 1.938-.082a.96.96 0 0 1 1.009.908.96.96 0 0 1-.928.99l-1.938.082.161 3.794 1.937-.082a.959.959 0 0 1 1.009.908.959.959 0 0 1-.928.99l-1.938.082.241 5.692-42.63 1.806-1.527-36.048 42.63-1.807.241 5.692zm-40.893-2.069l1.367 32.255 38.834-1.646-.16-3.795-1.857.079a.961.961 0 0 1-1.01-.908.96.96 0 0 1 .93-.99l1.856-.078-.161-3.795-1.856.08a.961.961 0 0 1-1.01-.909.96.96 0 0 1 .929-.99l1.857-.078-.161-3.795-1.856.08a.96.96 0 0 1-1.01-.909.96.96 0 0 1 .929-.99l1.857-.078-.161-3.795-1.857.08a.959.959 0 0 1-1.009-.909.96.96 0 0 1 .929-.989l1.856-.078-.16-3.796-1.857.08a.96.96 0 0 1-1.009-.909.959.959 0 0 1 .929-.989l1.856-.078-.161-3.795-38.834 1.645z" fill="#fff"/><path d="M220.493-3.134l-13.439 27.14a.658.658 0 0 1-.882.298l-18.88-9.35a.658.658 0 0 1-.297-.882l4.848-9.791-3.889-1.047-.117.236a.66.66 0 0 1-1.18-.585l4.674-9.44a.658.658 0 1 1 1.18.585l-.117.236 3.19 2.46 4.849-9.793a.658.658 0 0 1 .882-.298l18.88 9.35a.658.658 0 0 1 .298.88zM188.549 2.03l3.885 1.045 2.551-5.15-3.186-2.457-3.25 6.562zm24.572-8.08l-1.753 3.54 5.9 2.92 1.752-3.54-5.899-2.92zm-2.933 2.955l1.753-3.54-8.26-4.09-1.753 3.54 8.26 4.09zm6.495 4.685l-15.339-7.596-10.517 21.24 15.339 7.596 10.517-21.24zm-21.79-.504l-6.427 12.98 1.181.584 6.427-12.98 6.427-12.98-1.18-.584-6.428 12.98z" fill="url(#l)" style="mix-blend-mode:multiply"/><path d="M195.776.79a.659.659 0 1 1-.585 1.18.659.659 0 0 1 .585-1.18z" fill="url(#m)" style="mix-blend-mode:multiply"/><path d="M201.151 6.284l2.003-4.045 4.513 6.712-4.628.275 1.271 1.982-5.83.47 1.113-2.247 1.558-3.147zm4.137 1.49l-1.961-2.917-1.547 3.125 3.508-.208zm-4.596 2.405l1.325-.107-.485-.756-.425.025-.415.838z" fill="url(#n)" style="mix-blend-mode:multiply"/><path d="M206.144 16.944l-.584 1.18-1.18-.585.584-1.18 1.18.584z" fill="url(#o)" style="mix-blend-mode:multiply"/><path d="M209.357 10.454l-.584 1.18-1.18-.584.584-1.18 1.18.585z" fill="url(#p)" style="mix-blend-mode:multiply"/><path d="M212.571 3.965l-.585 1.18-1.18-.584.585-1.18 1.18.584z" fill="url(#q)" style="mix-blend-mode:multiply"/><path d="M207.851 1.627l-.585 1.18-1.179-.584.584-1.18 1.18.584z" fill="url(#r)" style="mix-blend-mode:multiply"/><path d="M203.131-.711l-.585 1.18-1.18-.584.585-1.18 1.18.584z" fill="url(#s)" style="mix-blend-mode:multiply"/><path d="M196.704 12.268l-.584 1.18-1.18-.585.584-1.18 1.18.585z" fill="url(#t)" style="mix-blend-mode:multiply"/><path d="M201.424 14.606l-.584 1.18-1.18-.585.584-1.18 1.18.585z" fill="url(#u)" style="mix-blend-mode:multiply"/><path d="M199.917 5.779l-.584 1.18-1.18-.585.584-1.18 1.18.585z" fill="url(#v)" style="mix-blend-mode:multiply"/><path d="M6.703 19.065l3.78-1.013 1.539 5.745 6.66-1.785 1.062 3.967-6.66 1.784 1.54 5.744-3.78 1.013-1.54-5.744-6.947 1.861-1.062-3.966 6.947-1.861-1.54-5.745z" fill="#fff"/></g><defs><linearGradient id="b" x1="250.89" y1="101.584" x2="249.873" y2="142.536" gradientUnits="userSpaceOnUse"><stop stop-color="#FFC000"/><stop offset="1" stop-color="#FF8A00"/></linearGradient><linearGradient id="c" x1="69.316" y1="-18.467" x2="102.241" y2="-28.603" gradientUnits="userSpaceOnUse"><stop stop-color="#FFC000"/><stop offset="1" stop-color="#FF8A00"/></linearGradient><linearGradient id="f" x1="267.15" y1="-6.686" x2="266.671" y2="25.002" gradientUnits="userSpaceOnUse"><stop stop-color="#FFC000"/><stop offset="1" stop-color="#FF8A00"/></linearGradient><linearGradient id="g" x1="55.01" y1="39.881" x2="50.678" y2="39.638" gradientUnits="userSpaceOnUse"><stop stop-color="#FFC000"/><stop offset="1" stop-color="#FF8A00"/></linearGradient><linearGradient id="h" x1="54.811" y1="45.029" x2="51.801" y2="46.089" gradientUnits="userSpaceOnUse"><stop stop-color="#FFC000"/><stop offset="1" stop-color="#FF8A00"/></linearGradient><linearGradient id="i" x1="66.661" y1="29.061" x2="58.367" y2="35.326" gradientUnits="userSpaceOnUse"><stop stop-color="#FFC000"/><stop offset="1" stop-color="#FF8A00"/></linearGradient><linearGradient id="j" x1="75.237" y1="31.445" x2="50.186" y2="49.425" gradientUnits="userSpaceOnUse"><stop stop-color="#FFC000"/><stop offset="1" stop-color="#FF8A00"/></linearGradient><linearGradient id="k" x1="269.679" y1="45.014" x2="267.564" y2="89.126" gradientUnits="userSpaceOnUse"><stop stop-color="#FFC000"/><stop offset="1" stop-color="#FF8A00"/></linearGradient><linearGradient id="l" x1="220.003" y1="-3.652" x2="194.182" y2="22.206" gradientUnits="userSpaceOnUse"><stop stop-color="#FFC000"/><stop offset="1" stop-color="#FF8A00"/></linearGradient><linearGradient id="m" x1="196.33" y1="1.084" x2="195.284" y2="2.215" gradientUnits="userSpaceOnUse"><stop stop-color="#FFC000"/><stop offset="1" stop-color="#FF8A00"/></linearGradient><linearGradient id="n" x1="209.234" y1="5.402" x2="200.203" y2="12.929" gradientUnits="userSpaceOnUse"><stop stop-color="#FFC000"/><stop offset="1" stop-color="#FF8A00"/></linearGradient><linearGradient id="o" x1="206.108" y1="16.945" x2="205.062" y2="18.076" gradientUnits="userSpaceOnUse"><stop stop-color="#FFC000"/><stop offset="1" stop-color="#FF8A00"/></linearGradient><linearGradient id="p" x1="209.321" y1="10.456" x2="208.275" y2="11.587" gradientUnits="userSpaceOnUse"><stop stop-color="#FFC000"/><stop offset="1" stop-color="#FF8A00"/></linearGradient><linearGradient id="q" x1="212.535" y1="3.966" x2="211.488" y2="5.098" gradientUnits="userSpaceOnUse"><stop stop-color="#FFC000"/><stop offset="1" stop-color="#FF8A00"/></linearGradient><linearGradient id="r" x1="207.815" y1="1.628" x2="206.768" y2="2.76" gradientUnits="userSpaceOnUse"><stop stop-color="#FFC000"/><stop offset="1" stop-color="#FF8A00"/></linearGradient><linearGradient id="s" x1="203.095" y1="-.71" x2="202.048" y2=".422" gradientUnits="userSpaceOnUse"><stop stop-color="#FFC000"/><stop offset="1" stop-color="#FF8A00"/></linearGradient><linearGradient id="t" x1="196.668" y1="12.269" x2="195.622" y2="13.4" gradientUnits="userSpaceOnUse"><stop stop-color="#FFC000"/><stop offset="1" stop-color="#FF8A00"/></linearGradient><linearGradient id="u" x1="201.388" y1="14.607" x2="200.341" y2="15.738" gradientUnits="userSpaceOnUse"><stop stop-color="#FFC000"/><stop offset="1" stop-color="#FF8A00"/></linearGradient><linearGradient id="v" x1="199.881" y1="5.78" x2="198.835" y2="6.911" gradientUnits="userSpaceOnUse"><stop stop-color="#FFC000"/><stop offset="1" stop-color="#FF8A00"/></linearGradient><clipPath id="a"><path fill="#fff" d="M0 0h295v158H0z"/></clipPath><clipPath id="d"><path fill="#fff" transform="scale(-1 1) rotate(-75 -60.743 183.228)" d="M0 0h27v28H0z"/></clipPath><clipPath id="e"><path fill="#fff" transform="scale(-1 1) rotate(-75 -125.048 188.439)" d="M0 0h27v28H0z"/></clipPath></defs></svg>