<svg width="235" height="241" viewBox="0 0 235 241" fill="none" xmlns="http://www.w3.org/2000/svg"><path d="M174.605 46.257a14.165 14.165 0 0 1 9.259 4.14c5.55 5.55 5.55 14.55 0 20.1a14.171 14.171 0 0 1-10.051 4.163 14.165 14.165 0 0 1-10.049-4.163 14.157 14.157 0 0 1-4.141-9.26l14.982-14.98zm3.195 18.939h2.815l-2.984-4.974-1.369 2.282 1.538 2.692zm-1.363 0l-4.727-8.273-4.728 8.273h9.455zm-13.785-5.312a12.959 12.959 0 0 0 6.974-3.624 12.91 12.91 0 0 0 2.995-4.652c.283-.76.493-1.535.63-2.323l-10.599 10.599zm-.77 5.806a12.975 12.975 0 0 0 2.719 3.97 12.986 12.986 0 0 0 9.212 3.816 12.987 12.987 0 0 0 9.213-3.816 12.987 12.987 0 0 0 3.816-9.212 12.988 12.988 0 0 0-3.816-9.213 12.973 12.973 0 0 0-7.969-3.757l-.459.46c-.159 2.546-1 5.058-2.523 7.238l3.514 6.149 2.042-3.405 5.076 8.46h-17.765l5.044-8.828a14.153 14.153 0 0 1-8.681 3.679l-.461.46c.131 1.384.48 2.727 1.038 3.999z" fill="url(#a)" style="mix-blend-mode:multiply"/><path d="M52.604 40.576l6.937 8.122.632.74 6.937 8.122-14.86 12.692-6.937-8.122-.632-.74-6.937-8.122 14.86-12.692zm-.25 28.362l13.443-11.481-6.332-7.414-13.443 11.482 6.332 7.413zm6.479-19.635L52.5 41.89 39.058 53.37l6.332 7.413 13.443-11.48z" fill="#fff"/><path d="M50.862 48.718l-.308-1.844 4.41 1.48-1.517 1.294-2.124 1.814-2.728 2.33-1.201-6.319 3.468 1.245zm2.246-.005l-1.38-.466.14.835.57.203.67-.572zm-1.485 1.268l-3.01-1.08.596 3.141 2.414-2.06zm-2.073 4.217l5.663-4.836a.468.468 0 0 1 .657.053.467.467 0 0 1-.052.655l-5.662 4.836a.465.465 0 1 1-.605-.709zM62.165 57.5a.465.465 0 1 1 .603.708.465.465 0 0 1-.603-.707zm-1.415 1.209a.465.465 0 1 1 .603.708.465.465 0 0 1-.603-.708zm-1.418 1.211a.466.466 0 0 1 .657.049.465.465 0 1 1-.657-.05zm-1.414 1.208zm-1.416 1.209a.463.463 0 1 1 .603.706.462.462 0 0 1-.653-.052.462.462 0 0 1 .05-.654zm1.771-2.738l-2.728 2.33-1.2-6.317 3.47 1.246-.311-1.848 4.41 1.48-1.517 1.295-2.124 1.814zm-2.112.582l2.413-2.06-3.01-1.082.597 3.142zm3.898-3.33l-1.38-.464.138.831.573.206.67-.572zM42.3 55.527a.467.467 0 0 1 .5-.428l2.32.185.073-.928a.467.467 0 0 1 .929.073l-.11 1.39a.466.466 0 0 1-.5.427l-2.785-.218a.467.467 0 0 1-.428-.501zm10.612 8.37a.464.464 0 0 1-.5.428l-.002.001-.927-.074-.073.928a.467.467 0 0 1-.928-.073l.075-.926-.928-.073a.466.466 0 0 1 .073-.928l.928.073.071-.927.002-.001a.467.467 0 0 1 .928.072l-.073.929.927.07a.467.467 0 0 1 .427.501z" fill="#fff"/><path d="M69.359 143.555l-.564-1.413-.188-.471-.187-.47c1.286-.513 1.91-1.987 1.392-3.285-.518-1.297-1.985-1.936-3.271-1.422l-.188-.471-.188-.471-.563-1.412 1.1-8.079 5.882-.165.194 3.197 10.727-4.281 5.26 13.18-10.726 4.281 2.06 2.453-4.38 3.929-6.36-5.1zm9.34 1.066l-1.426-1.696-.904-1.077 1.294-.516 9.793-3.909-4.508-11.297-9.794 3.908-1.294.517-.085-1.403-.135-2.212-4.056.113-.95 6.969.519 1.299a3.545 3.545 0 0 1 3.592 2.227 3.544 3.544 0 0 1-1.072 4.089l.519 1.299 5.487 4.4 3.02-2.711z" fill="url(#b)" style="mix-blend-mode:multiply"/><path d="M77.174 134.111l-1.775-.295 2.694-3.57.715 1.794 1.002 2.51 1.289 3.228-6.12-.884 2.195-2.783zm.65-1.83l-.612.812.677.112.202-.255-.267-.669zm.7 1.753l-1.665 2.109 2.66.385-.996-2.494z" fill="url(#c)" style="mix-blend-mode:multiply"/><g clip-path="url(#d)"><path d="M30 174.706l7.082-7.345-5.367-5.566a2.914 2.914 0 0 1 0-4.016 2.68 2.68 0 0 1 1.937-.832c.7 0 1.402.277 1.937.832l5.367 5.566L48.037 156l3.874 4.017-7.082 7.344 6.17 6.398v4.017h-3.874l-6.17-6.398-7.081 7.345L30 174.706zm7.728-8.014l.965-1.002-4.076-4.226-.965 1.001 4.076 4.227zm-2.785-8.244a1.78 1.78 0 0 0-2.583 0 1.947 1.947 0 0 0 0 2.678l.646.669 2.583-2.678-.646-.669zm1.291 1.339l-.97 1.007 4.075 4.227.971-1.007-4.076-4.227zm11.803-2.448l-1.271 1.319.645.669a.487.487 0 0 1 0 .67.445.445 0 0 1-.645 0l-.001-.001-.645-.669-1.29 1.34.644.669a.486.486 0 0 1 0 .67.446.446 0 0 1-.645 0v-.001l-.646-.669-1.291 1.339.645.669v.001a.486.486 0 0 1 0 .669.445.445 0 0 1-.645 0l-.645-.669-1.291 1.338.645.67a.485.485 0 0 1 0 .669.445.445 0 0 1-.645 0l-.646-.669-1.291 1.339.645.669a.486.486 0 0 1 0 .67.445.445 0 0 1-.645 0v-.001l-.646-.669-1.291 1.339.646.669v.001a.486.486 0 0 1 0 .669.445.445 0 0 1-.646 0l-.645-.669-1.292 1.339.646.669a.486.486 0 0 1 0 .67.445.445 0 0 1-.646 0v-.001l-.645-.669-1.291 1.339.644.669.001.001a.485.485 0 0 1 0 .669.444.444 0 0 1-.645 0l-.646-.669-1.272 1.319 2.583 2.678 16.746-17.367-2.583-2.678zm2.049 19.49v-.784l-.757.784h.757zm-2.583 0h.535l2.048-2.123v-.555l-5.903-6.12-.97 1.007 4.554 4.724a.486.486 0 0 1 0 .67.446.446 0 0 1-.645 0l-4.556-4.724-.965 1.001 5.902 6.12z" fill="#fff"/></g><g clip-path="url(#e)"><path d="M107.686 28.444l7.082-7.345-5.367-5.565a2.914 2.914 0 0 1 0-4.017 2.682 2.682 0 0 1 1.937-.832c.7 0 1.402.277 1.937.832l5.366 5.566 7.082-7.345 3.874 4.017-7.082 7.344 6.169 6.398v4.017h-3.873l-6.17-6.398-7.081 7.345-3.874-4.017zm7.728-8.014l.965-1.001-4.076-4.227-.965 1.001 4.076 4.227zm-2.785-8.244a1.782 1.782 0 0 0-2.583 0 1.948 1.948 0 0 0 0 2.678l.646.67 2.583-2.678-.646-.67zm1.291 1.34l-.971 1.006 4.076 4.227.971-1.007-4.076-4.227zm11.803-2.449l-1.272 1.32.646.669a.486.486 0 0 1 0 .67.446.446 0 0 1-.646 0v-.001l-.645-.67-1.291 1.34.645.67a.484.484 0 0 1 0 .669.445.445 0 0 1-.645 0l-.646-.67-1.291 1.34.645.668h.001a.486.486 0 0 1 0 .67.445.445 0 0 1-.646 0l-.645-.67-1.292 1.34.646.669a.486.486 0 0 1 0 .67.446.446 0 0 1-.646 0l-.645-.67-1.291 1.339.645.67a.485.485 0 0 1 0 .67.445.445 0 0 1-.645 0l-.001-.001-.645-.67-1.291 1.34.646.669a.486.486 0 0 1 0 .67.446.446 0 0 1-.646 0l-.645-.67-1.292 1.34.646.668a.486.486 0 0 1 0 .67.445.445 0 0 1-.646 0l-.645-.67-1.291 1.34.644.669h.001a.484.484 0 0 1 0 .67.445.445 0 0 1-.645 0l-.646-.67-1.272 1.32 2.583 2.677 16.746-17.367-2.583-2.678zm2.048 19.49v-.784l-.756.784h.756zm-2.582 0h.535l2.047-2.123v-.554l-5.902-6.12-.971 1.006 4.555 4.724a.484.484 0 0 1 0 .67.445.445 0 0 1-.645 0l-4.556-4.724-.965 1 5.902 6.121z" fill="url(#f)" style="mix-blend-mode:multiply"/></g><path d="M111.883 179.011l4.072 3.944a.472.472 0 1 1-.657.679l-4.072-3.944a.472.472 0 0 1 .657-.679z" fill="url(#g)" style="mix-blend-mode:multiply"/><path d="M116.613 182.276l-1.357-1.315a.472.472 0 1 1 .656-.678l1.357 1.315a.471.471 0 1 1-.656.678z" fill="url(#h)" style="mix-blend-mode:multiply"/><path d="M106.814 172.424l1.632-.437-.953 4.088-1.293-1.252-1.809-1.752-2.327-2.254 5.574-1.616-.824 3.223zm.138 1.812l.216-.929-.622.166-.076.296.482.467zm-1.263-1.224l.624-2.443-2.422.702 1.798 1.741z" fill="url(#i)" style="mix-blend-mode:multiply"/><path d="M109.591 161.009l15.609 15.117c.187.181.192.48.011.668l-9.202 9.501a.473.473 0 0 1-.668.01l-15.608-15.117a.472.472 0 0 1-.011-.667l9.202-9.501a.471.471 0 0 1 .667-.011zm.349 1.652l2.838 10.437c.022.084.153.21.237.23l10.525 2.505-13.6-13.172zm5.719 22.636l8.161-8.426-11.024-2.624a1.283 1.283 0 0 1-.579-.332 1.281 1.281 0 0 1-.351-.569l-2.974-10.936-8.162 8.428 14.929 14.459z" fill="url(#j)" style="mix-blend-mode:multiply"/><path d="M144.204 10.328c0-5.704 4.602-10.328 10.28-10.328 1.872 0 3.627.503 5.139 1.382A10.195 10.195 0 0 1 164.762 0c5.678 0 10.28 4.624 10.28 10.328 0 3.854-2.101 7.214-5.214 8.99-.61 5.117-4.946 9.085-10.205 9.085s-9.594-3.968-10.205-9.086a10.333 10.333 0 0 1-5.214-8.989zm24.213 9.656a10.214 10.214 0 0 1-3.655.673c-1.871 0-3.627-.503-5.139-1.382a10.191 10.191 0 0 1-5.139 1.382 10.21 10.21 0 0 1-3.654-.673 9.018 9.018 0 0 0 2.433 4.48 8.976 8.976 0 0 0 2.859 1.939c1.109.47 2.286.71 3.501.71a8.905 8.905 0 0 0 3.501-.71 8.963 8.963 0 0 0 2.859-1.938 9 9 0 0 0 2.434-4.48zm-17.778-1.483a8.901 8.901 0 0 0 3.845.865 8.895 8.895 0 0 0 3.936-.91 10.329 10.329 0 0 1-3.931-7.803 9.02 9.02 0 0 0-3.85 7.848zm5.14-8.599a9.025 9.025 0 0 0 3.844 7.844 9.034 9.034 0 0 0 3.844-7.844 8.905 8.905 0 0 0-3.844-.865 8.904 8.904 0 0 0-3.844.865zm3.844-2.156c1.287 0 2.518.239 3.653.673a8.984 8.984 0 0 0-2.432-4.481 9.04 9.04 0 0 0-1.221-1.027 9.04 9.04 0 0 0-3.653 5.508 10.208 10.208 0 0 1 3.653-.673zm5.134 2.907a10.326 10.326 0 0 1-3.931 7.804 8.896 8.896 0 0 0 3.936.91 8.896 8.896 0 0 0 3.846-.866 9.007 9.007 0 0 0-.697-3.943 9 9 0 0 0-1.928-2.874 8.986 8.986 0 0 0-1.226-1.031zM160.826 2.2a10.323 10.323 0 0 1 3.862 6.886 10.333 10.333 0 0 1 5.209 8.664 9.015 9.015 0 0 0 1.225-1.031 9.025 9.025 0 0 0 2.635-6.39 9.025 9.025 0 0 0-2.635-6.391A8.963 8.963 0 0 0 168.263 2a8.898 8.898 0 0 0-3.501-.71 8.887 8.887 0 0 0-3.936.91zm-14.63 4.611a9.009 9.009 0 0 0-.707 3.517c0 1.221.238 2.405.707 3.518a8.986 8.986 0 0 0 1.928 2.873c.38.382.789.726 1.225 1.031a10.335 10.335 0 0 1 5.209-8.664A10.322 10.322 0 0 1 158.42 2.2a8.896 8.896 0 0 0-3.936-.91 8.9 8.9 0 0 0-3.501.71 8.962 8.962 0 0 0-2.859 1.938 8.984 8.984 0 0 0-1.928 2.873z" fill="url(#k)" style="mix-blend-mode:multiply"/><path d="M233.432 33.197l-5.961 4.1-2.555 1.758-5.961 4.1-14.912-19.852 16.18-11.13 13.209 21.024zm-1.403-.29l-1.101-1.752-5.215 3.588 1.172 1.703 5.144-3.54zm-5.996 4.125l-2.343-3.406-.852.585 2.343 3.406.852-.585zm-1.703 1.171l-1.171-1.703-5.216 3.588 1.243 1.654 5.144-3.539zm-18.813-14.658l11.805 15.716 5.251-3.613-1.172-1.703a.515.515 0 1 1 .851-.585.517.517 0 0 1 .852-.586.517.517 0 0 1 .852-.586l1.171 1.703 5.251-3.612-10.457-16.644-14.404 9.91z" fill="#fff"/><path d="M221.059 28.325l-4.508-2.172.158 2.536-5.746-2.62 2.231-1.534 3.122-2.148 4.015-2.762.728 8.7zm-8.005-2.438l2.516 1.147-.086-1.395-1.217-.586-1.213.834zm2.194-1.51l4.63 2.232-.428-5.122-4.202 2.89z" fill="#fff"/><g clip-path="url(#l)"><path d="M21.433 123.056a3.305 3.305 0 0 1 4.017-3.229l2.19-2.191-5.944-5.944a2.637 2.637 0 0 1 3.729-3.729l5.945 5.945 6.77-6.772a1.753 1.753 0 0 1 1.244-.514 1.76 1.76 0 0 1 1.243 3.001l-6.771 6.77 6.405 6.405v3.729h-3.73l-6.404-6.404-2.171 2.171c.058.244.088.499.088.762 0 3.743-5.52 4.039-7.345 4.039-1.826 0 .734-2.214.734-4.039zm2.127-14.987a1.76 1.76 0 0 0-1.243 3.001l.622.622 2.486-2.487-.621-.621a1.747 1.747 0 0 0-1.244-.515zm16.446.932a.88.88 0 0 0-1.244-1.243l-6.77 6.771 1.242 1.243 6.772-6.771zm-.625 16.647v-.728l-.728.728h.728zm-2.485 0h.514l1.971-1.971v-.515l-13.335-13.335-.935.935 12.039 12.039a.438.438 0 1 1-.621.621L24.49 111.383l-.93.93 13.336 13.335zm-7.39-6.147l-1.243-1.243-1.912 1.912c.52.291.954.718 1.252 1.234l1.902-1.903zm-4.73 6.145c.764-.257 1.353-.593 1.75-.997.43-.436.639-.957.639-1.593a2.41 2.41 0 0 0-.71-1.716 2.412 2.412 0 0 0-1.716-.711 2.43 2.43 0 0 0-2.427 2.427c0 1-.533 1.976-.962 2.76-.064.117-.14.258-.212.395.947-.025 2.38-.141 3.637-.565z" fill="url(#m)" style="mix-blend-mode:multiply"/></g><g clip-path="url(#n)"><path d="M94.145 92.064l-38.867 11.013-2.365-8.346L91.78 83.718l2.364 8.346zm-37.87 9.229l2.74-.778-.394-1.39a.725.725 0 0 1 .499-.894.725.725 0 0 1 .893.499l.393 1.391 2.782-.788-.394-1.39a.723.723 0 1 1 1.391-.395l.394 1.391 2.783-.788-.394-1.391a.723.723 0 1 1 1.39-.394h.001l.394 1.39 2.782-.788-.394-1.39a.724.724 0 0 1 1.391-.395l.394 1.391 2.782-.788-.394-1.39A.723.723 0 0 1 76.705 94l.394 1.391 2.782-.788-.394-1.392a.722.722 0 1 1 1.391-.394l.394 1.39 2.783-.787-.395-1.391a.724.724 0 0 1 1.392-.395v.001l.394 1.39 2.782-.787-.394-1.39v-.001a.724.724 0 0 1 1.39-.395l.395 1.39 2.74-.776-1.575-5.564-36.086 10.225 1.577 5.565z" fill="url(#o)" style="mix-blend-mode:multiply"/></g><path d="M62.855 23.358l11.4-14.125a.394.394 0 0 1 .554-.058l9.826 7.93c.17.136.196.385.06.554l-4.113 5.096 2.138 1.12.1-.123a.395.395 0 0 1 .614.495l-3.966 4.913a.394.394 0 0 1-.614-.495l.1-.123-1.546-1.855-4.113 5.097a.395.395 0 0 1-.555.059l-9.825-7.93a.395.395 0 0 1-.06-.555zm19.36 1.143l-2.136-1.118-2.164 2.68 1.544 1.853 2.756-3.415zm-18.497-.955L71.7 29.99l10.903-13.51-7.983-6.442-10.903 13.51zm14.663.68l5.451-6.755-.614-.496-5.452 6.755-5.451 6.755.614.495 5.452-6.754z" fill="url(#p)" style="mix-blend-mode:multiply"/><path d="M77.826 24.285a.394.394 0 1 1 .495-.614.394.394 0 0 1-.495.614z" fill="url(#q)" style="mix-blend-mode:multiply"/><path d="M75.105 11.949l-7.434 9.21v.001a.394.394 0 0 1-.615-.495l7.434-9.212a.395.395 0 1 1 .615.496z" fill="url(#r)" style="mix-blend-mode:multiply"/><path d="M76.333 12.94l-3.965 4.912a.394.394 0 1 1-.614-.495l3.965-4.912a.395.395 0 1 1 .614.495z" fill="url(#s)" style="mix-blend-mode:multiply"/><path d="M77.562 13.932l-5.45 6.754h-.001a.394.394 0 1 1-.615-.495l5.452-6.755a.395.395 0 1 1 .614.496z" fill="url(#t)" style="mix-blend-mode:multiply"/><path d="M78.79 14.923l-3.47 4.298a.395.395 0 1 1-.613-.496l3.468-4.298a.395.395 0 1 1 .615.496z" fill="url(#u)" style="mix-blend-mode:multiply"/><path d="M80.018 15.914l-6.443 7.983a.395.395 0 1 1-.614-.496l6.443-7.982a.395.395 0 1 1 .614.495z" fill="url(#v)" style="mix-blend-mode:multiply"/><path d="M81.246 16.905l-1.982 2.456a.395.395 0 1 1-.614-.495l1.982-2.456a.395.395 0 1 1 .614.495z" fill="url(#w)" style="mix-blend-mode:multiply"/><path d="M135.509 124.255l3.084-3.247 3.51 10.558-4.655-1.039-6.519-1.454-8.379-1.868 10.357-11.374 2.602 8.424zm4.273 5.214l-1.841-5.537-1.91 2.011.892 2.889 2.859.637zm-4.591-1.024l-2.96-9.583-6.754 7.417 9.714 2.166z" fill="#fff"/><path d="M127.74 103.939l.342-1.536a.78.78 0 0 1 .923-.601.779.779 0 0 1 .581.936l-.342 1.536 3.008.671.343-1.536a.777.777 0 0 1 .922-.6.778.778 0 0 1 .582.935l-.343 1.537 3.008.671.343-1.537a.778.778 0 0 1 .923-.6.779.779 0 0 1 .581.936l-.343 1.536 3.008.671.343-1.536a.779.779 0 0 1 .923-.6.777.777 0 0 1 .581.935l-.342 1.537 3.008.671.342-1.537a.779.779 0 0 1 .924-.6.78.78 0 0 1 .581.936l-.343 1.536 4.513 1.006-7.538 33.796-28.578-6.374 7.537-33.796 4.513 1.007zm-10.211 31.62l25.57 5.703 6.867-30.787-3.008-.671-.329 1.472a.78.78 0 0 1-.923.601.779.779 0 0 1-.581-.936l.328-1.472-3.008-.671-.328 1.472a.779.779 0 0 1-.924.6.778.778 0 0 1-.58-.936l.328-1.472-3.008-.671-.328 1.472a.78.78 0 0 1-.924.601.78.78 0 0 1-.581-.936l.329-1.472-3.009-.671-.328 1.472a.778.778 0 0 1-.924.6.779.779 0 0 1-.58-.936l.329-1.471-3.009-.671-.328 1.471a.779.779 0 0 1-.924.601.779.779 0 0 1-.58-.936l.328-1.472-3.008-.671-6.867 30.787z" fill="#fff"/><path d="M118.859 44.175l18.452 16.234a.535.535 0 0 1 .048.755l-11.293 12.835a.534.534 0 0 1-.754.048l-6.658-5.857-1.637 2.829.16.14a.534.534 0 1 1-.706.803l-6.418-5.647a.534.534 0 0 1 .706-.802l.161.141 2.599-1.983-6.659-5.858a.534.534 0 0 1-.048-.754l11.294-12.836a.533.533 0 0 1 .753-.048zm-2.66 26.124l1.635-2.825-3.5-3.082-2.596 1.982 4.461 3.925zm-1.173-20.958l2.406 2.118 3.53-4.011-2.407-2.118-3.529 4.011zm1.7 2.92l-2.406-2.117-4.941 5.615 2.407 2.117 4.94-5.615zm5.038-4.108l-9.176 10.43 14.44 12.704 9.176-10.428-14.44-12.706zm-4.972 16.975l8.824 7.764.706-.802-8.824-7.764-8.825-7.765-.706.803 8.825 7.764z" fill="url(#x)" style="mix-blend-mode:multiply"/><path d="M116.745 64.374a.534.534 0 1 1 .802.704.534.534 0 0 1-.802-.704z" fill="url(#y)" style="mix-blend-mode:multiply"/><path d="M122.18 61.315l-2.75-2.42 6.209-2.128-.756 3.686 1.82-.581-.855 4.67-1.529-1.345-2.139-1.882zm2.036-2.93l-2.698.924 2.125 1.87.573-2.795zm.92 4.107l.195-1.06-.694.22-.07.34.569.5z" fill="url(#z)" style="mix-blend-mode:multiply"/><path d="M131.584 59.64l.802.705-.706.802-.802-.706.706-.802z" fill="url(#A)" style="mix-blend-mode:multiply"/><path d="M127.173 55.758l.802.705-.706.803-.802-.706.706-.802z" fill="url(#B)" style="mix-blend-mode:multiply"/><path d="M122.76 51.876l.803.706-.706.802-.803-.706.706-.802z" fill="url(#C)" style="mix-blend-mode:multiply"/><path d="M119.936 55.084l.803.706-.706.803-.802-.707.705-.802z" fill="url(#D)" style="mix-blend-mode:multiply"/><path d="M117.112 58.293l.803.706-.706.803-.803-.707.706-.802z" fill="url(#E)" style="mix-blend-mode:multiply"/><path d="M125.936 66.057l.802.706-.706.802-.802-.706.706-.802z" fill="url(#F)" style="mix-blend-mode:multiply"/><path d="M128.76 62.848l.802.706-.705.802-.802-.706.705-.802z" fill="url(#G)" style="mix-blend-mode:multiply"/><path d="M121.525 62.176l.802.705-.706.803-.802-.706.706-.802z" fill="url(#H)" style="mix-blend-mode:multiply"/><circle r="7.579" transform="matrix(-1 0 0 1 15.578 76.689)" stroke="url(#I)" stroke-width="10" style="mix-blend-mode:multiply"/><path d="M81.717 210.839v-3.176h4.826v-5.595h3.333v5.595h4.826v3.176h-4.826v5.836h-3.333v-5.836h-4.826z" fill="#fff"/><path d="M48.873 236.963c0-1.222 3.333-11.644-9.663-7.977s-16.994-2.445-19.66-14.225C16.884 202.981 9.109 201.87 3 202.092" stroke="url(#J)" stroke-width="8" stroke-linecap="round" stroke-linejoin="round" style="mix-blend-mode:multiply"/><path d="M13.39 36.34c.43.219 3.497 3.252 4.527-1.952 1.031-5.205 3.892-5.508 8.507-4.33s6.393-1.343 7.406-3.52" stroke="url(#K)" stroke-width="8" stroke-linecap="round" stroke-linejoin="round" style="mix-blend-mode:multiply"/><circle r="8.05" transform="matrix(-1 0 0 1 189.55 106.55)" stroke="#fff" stroke-width="5"/><defs><linearGradient id="a" x1="159.992" y1="46.944" x2="191.88" y2="56.342" gradientUnits="userSpaceOnUse"><stop stop-color="#FFC000"/><stop offset="1" stop-color="#FF8A00"/></linearGradient><linearGradient id="b" x1="72.323" y1="149.671" x2="71.293" y2="121.733" gradientUnits="userSpaceOnUse"><stop stop-color="#FFC000"/><stop offset="1" stop-color="#FF8A00"/></linearGradient><linearGradient id="c" x1="76.206" y1="139.617" x2="76.568" y2="130.588" gradientUnits="userSpaceOnUse"><stop stop-color="#FFC000"/><stop offset="1" stop-color="#FF8A00"/></linearGradient><linearGradient id="f" x1="107.971" y1="10.288" x2="132.709" y2="17.319" gradientUnits="userSpaceOnUse"><stop stop-color="#FFC000"/><stop offset="1" stop-color="#FF8A00"/></linearGradient><linearGradient id="g" x1="111.59" y1="178.759" x2="110.49" y2="182.103" gradientUnits="userSpaceOnUse"><stop stop-color="#FFC000"/><stop offset="1" stop-color="#FF8A00"/></linearGradient><linearGradient id="h" x1="115.583" y1="179.997" x2="115.782" y2="182.579" gradientUnits="userSpaceOnUse"><stop stop-color="#FFC000"/><stop offset="1" stop-color="#FF8A00"/></linearGradient><linearGradient id="i" x1="105.555" y1="167.354" x2="108.724" y2="175.171" gradientUnits="userSpaceOnUse"><stop stop-color="#FFC000"/><stop offset="1" stop-color="#FF8A00"/></linearGradient><linearGradient id="j" x1="109.226" y1="161.132" x2="118.058" y2="184.545" gradientUnits="userSpaceOnUse"><stop stop-color="#FFC000"/><stop offset="1" stop-color="#FF8A00"/></linearGradient><linearGradient id="k" x1="144.605" y1=".687" x2="178.739" y2="11.61" gradientUnits="userSpaceOnUse"><stop stop-color="#FFC000"/><stop offset="1" stop-color="#FF8A00"/></linearGradient><linearGradient id="m" x1="20.316" y1="107.117" x2="43.888" y2="114.277" gradientUnits="userSpaceOnUse"><stop stop-color="#FFC000"/><stop offset="1" stop-color="#FF8A00"/></linearGradient><linearGradient id="o" x1="96.183" y1="86.693" x2="67.165" y2="115.107" gradientUnits="userSpaceOnUse"><stop stop-color="#FFC000"/><stop offset="1" stop-color="#FF8A00"/></linearGradient><linearGradient id="p" x1="63.074" y1="23.725" x2="81.55" y2="11.965" gradientUnits="userSpaceOnUse"><stop stop-color="#FFC000"/><stop offset="1" stop-color="#FF8A00"/></linearGradient><linearGradient id="q" x1="77.54" y1="24.041" x2="78.299" y2="23.516" gradientUnits="userSpaceOnUse"><stop stop-color="#FFC000"/><stop offset="1" stop-color="#FF8A00"/></linearGradient><linearGradient id="r" x1="66.927" y1="20.855" x2="69.776" y2="22.303" gradientUnits="userSpaceOnUse"><stop stop-color="#FFC000"/><stop offset="1" stop-color="#FF8A00"/></linearGradient><linearGradient id="s" x1="71.579" y1="17.604" x2="74.482" y2="18.562" gradientUnits="userSpaceOnUse"><stop stop-color="#FFC000"/><stop offset="1" stop-color="#FF8A00"/></linearGradient><linearGradient id="t" x1="71.341" y1="20.414" x2="74.233" y2="21.648" gradientUnits="userSpaceOnUse"><stop stop-color="#FFC000"/><stop offset="1" stop-color="#FF8A00"/></linearGradient><linearGradient id="u" x1="74.525" y1="18.981" x2="77.417" y2="19.806" gradientUnits="userSpaceOnUse"><stop stop-color="#FFC000"/><stop offset="1" stop-color="#FF8A00"/></linearGradient><linearGradient id="v" x1="72.818" y1="23.609" x2="75.689" y2="24.965" gradientUnits="userSpaceOnUse"><stop stop-color="#FFC000"/><stop offset="1" stop-color="#FF8A00"/></linearGradient><linearGradient id="w" x1="78.449" y1="19.145" x2="81.143" y2="19.369" gradientUnits="userSpaceOnUse"><stop stop-color="#FFC000"/><stop offset="1" stop-color="#FF8A00"/></linearGradient><linearGradient id="x" x1="118.351" y1="44.45" x2="133.197" y2="70.121" gradientUnits="userSpaceOnUse"><stop stop-color="#FFC000"/><stop offset="1" stop-color="#FF8A00"/></linearGradient><linearGradient id="y" x1="117.091" y1="64.001" x2="117.758" y2="65.059" gradientUnits="userSpaceOnUse"><stop stop-color="#FFC000"/><stop offset="1" stop-color="#FF8A00"/></linearGradient><linearGradient id="z" x1="123.187" y1="54.793" x2="127.189" y2="63.453" gradientUnits="userSpaceOnUse"><stop stop-color="#FFC000"/><stop offset="1" stop-color="#FF8A00"/></linearGradient><linearGradient id="A" x1="131.578" y1="59.668" x2="132.245" y2="60.725" gradientUnits="userSpaceOnUse"><stop stop-color="#FFC000"/><stop offset="1" stop-color="#FF8A00"/></linearGradient><linearGradient id="B" x1="127.166" y1="55.786" x2="127.833" y2="56.844" gradientUnits="userSpaceOnUse"><stop stop-color="#FFC000"/><stop offset="1" stop-color="#FF8A00"/></linearGradient><linearGradient id="C" x1="122.754" y1="51.904" x2="123.421" y2="52.962" gradientUnits="userSpaceOnUse"><stop stop-color="#FFC000"/><stop offset="1" stop-color="#FF8A00"/></linearGradient><linearGradient id="D" x1="119.93" y1="55.113" x2="120.597" y2="56.171" gradientUnits="userSpaceOnUse"><stop stop-color="#FFC000"/><stop offset="1" stop-color="#FF8A00"/></linearGradient><linearGradient id="E" x1="117.106" y1="58.322" x2="117.773" y2="59.38" gradientUnits="userSpaceOnUse"><stop stop-color="#FFC000"/><stop offset="1" stop-color="#FF8A00"/></linearGradient><linearGradient id="F" x1="125.93" y1="66.086" x2="126.597" y2="67.143" gradientUnits="userSpaceOnUse"><stop stop-color="#FFC000"/><stop offset="1" stop-color="#FF8A00"/></linearGradient><linearGradient id="G" x1="128.754" y1="62.877" x2="129.421" y2="63.935" gradientUnits="userSpaceOnUse"><stop stop-color="#FFC000"/><stop offset="1" stop-color="#FF8A00"/></linearGradient><linearGradient id="H" x1="121.518" y1="62.204" x2="122.185" y2="63.262" gradientUnits="userSpaceOnUse"><stop stop-color="#FFC000"/><stop offset="1" stop-color="#FF8A00"/></linearGradient><linearGradient id="I" x1="24.83" y1=".608" x2="-3.414" y2="8.933" gradientUnits="userSpaceOnUse"><stop stop-color="#FFC000"/><stop offset="1" stop-color="#FF8A00"/></linearGradient><linearGradient id="J" x1="3.601" y1="202.912" x2="52.569" y2="222.044" gradientUnits="userSpaceOnUse"><stop stop-color="#FFC000"/><stop offset="1" stop-color="#FF8A00"/></linearGradient><linearGradient id="K" x1="33.434" y1="26.601" x2="18.012" y2="40.35" gradientUnits="userSpaceOnUse"><stop stop-color="#FFC000"/><stop offset="1" stop-color="#FF8A00"/></linearGradient><clipPath id="d"><path fill="#fff" transform="matrix(-1 0 0 1 51.911 156)" d="M0 0h21.911v22.723H0z"/></clipPath><clipPath id="e"><path fill="#fff" transform="matrix(-1 0 0 1 129.597 9.738)" d="M0 0h21.911v22.723H0z"/></clipPath><clipPath id="l"><path fill="#fff" transform="matrix(-1 0 0 1 41.141 106.309)" d="M0 0h21.099v21.099H0z"/></clipPath><clipPath id="n"><path fill="#fff" transform="scale(1 -1) rotate(60.82 139.784 9.835)" d="M0 0h34.699v34.699H0z"/></clipPath></defs></svg>