<svg width="382" height="399" viewBox="0 0 382 399" fill="none" xmlns="http://www.w3.org/2000/svg"><path fill-rule="evenodd" clip-rule="evenodd" d="M414.131 373.568c33.492 75.162-47.94 70.767-99.585 93.59-134.607 59.503-170.319-217.604-114.913-179.254 55.406 38.341 79.59-25.121 79.59-92.401 0-114.29 180.635-76.455 143.021 38.009-20.263 61.662-41.605 64.886-8.113 140.056z" fill="#5F9F84"/><mask id="a" maskUnits="userSpaceOnUse" x="176" y="159" width="171" height="236"><path fill-rule="evenodd" clip-rule="evenodd" d="M337.226 325.95c22.455 50.504-32.142 47.553-66.767 62.893-90.245 39.988-114.189-146.237-77.042-120.467 37.147 25.771 53.36-16.872 53.36-62.092 0-76.797 121.105-51.375 95.887 25.544-13.584 41.441-27.893 43.609-5.438 94.122z" fill="#fff"/></mask><g mask="url(#a)" fill-rule="evenodd" clip-rule="evenodd" fill="#fff"><path d="M342.187 163.145c-1.007 0-1.824-1.228-1.824-2.237 0-1.01.817-1.829 1.824-1.829 1.007 0 2.464.819 2.464 1.829 0 1.009-1.457 2.237-2.464 2.237zm0 8.419c-1.007 0-1.824-1.236-1.824-2.246s.817-1.82 1.824-1.82c1.007 0 2.464.81 2.464 1.82s-1.457 2.246-2.464 2.246zm0 8.41c-1.007 0-1.824-1.236-1.824-2.237 0-1.01.817-1.829 1.824-1.829 1.007 0 2.464.819 2.464 1.829 0 1.001-1.457 2.237-2.464 2.237zm0 8.41c-1.007 0-1.824-1.227-1.824-2.237s.817-1.829 1.824-1.829c1.007 0 2.464.819 2.464 1.829s-1.457 2.237-2.464 2.237zm0 16.829c-1.007 0-1.824-1.227-1.824-2.237s.817-1.829 1.824-1.829c1.007 0 2.464.819 2.464 1.829s-1.457 2.237-2.464 2.237zm0 8.419c-1.007 0-1.824-1.236-1.824-2.246s.817-1.82 1.824-1.82c1.007 0 2.464.81 2.464 1.82s-1.457 2.246-2.464 2.246zm0 8.41c-1.007 0-1.824-1.236-1.824-2.246 0-1.001.817-1.82 1.824-1.82 1.007 0 2.464.819 2.464 1.82 0 1.01-1.457 2.246-2.464 2.246zm0 25.239c-1.007 0-1.824-1.236-1.824-2.237 0-1.01.817-1.828 1.824-1.828 1.007 0 2.464.818 2.464 1.828 0 1.001-1.457 2.237-2.464 2.237zm0 8.41c-1.007 0-1.824-1.227-1.824-2.237s.817-1.828 1.824-1.828c1.007 0 2.464.818 2.464 1.828 0 1.01-1.457 2.237-2.464 2.237zm0 8.419c-1.007 0-1.824-1.236-1.824-2.246 0-1.001.817-1.819 1.824-1.819 1.007 0 2.464.818 2.464 1.819 0 1.01-1.457 2.246-2.464 2.246zm0 8.41c-1.007 0-1.824-1.227-1.824-2.237s.817-1.828 1.824-1.828c1.007 0 2.464.818 2.464 1.828 0 1.01-1.457 2.237-2.464 2.237zm0 8.419c-1.007 0-1.824-1.236-1.824-2.246s.817-1.819 1.824-1.819c1.007 0 2.464.809 2.464 1.819 0 1.01-1.457 2.246-2.464 2.246zm0 8.41c-1.007 0-1.824-1.236-1.824-2.237 0-1.01.817-1.828 1.824-1.828 1.007 0 2.464.818 2.464 1.828 0 1.001-1.457 2.237-2.464 2.237zm0 8.411c-1.007 0-1.824-1.228-1.824-2.238s.817-1.828 1.824-1.828c1.007 0 2.464.818 2.464 1.828 0 1.01-1.457 2.238-2.464 2.238zm0 8.418c-1.007 0-1.824-1.236-1.824-2.246 0-1.001.817-1.819 1.824-1.819 1.007 0 2.464.818 2.464 1.819 0 1.01-1.457 2.246-2.464 2.246zm0 8.411c-1.007 0-1.824-1.228-1.824-2.238s.817-1.828 1.824-1.828c1.007 0 2.464.818 2.464 1.828 0 1.01-1.457 2.238-2.464 2.238zm0 8.418c-1.007 0-1.824-1.236-1.824-2.246s.817-1.828 1.824-1.828c1.007 0 2.464.818 2.464 1.828 0 1.01-1.457 2.246-2.464 2.246zm0 8.411c-1.007 0-1.824-1.237-1.824-2.238 0-1.01.817-1.828 1.824-1.828 1.007 0 2.464.818 2.464 1.828 0 1.001-1.457 2.238-2.464 2.238zm0 33.658c-1.007 0-1.824-1.237-1.824-2.247 0-1.01.817-1.828 1.824-1.828 1.007 0 2.464.818 2.464 1.828 0 1.01-1.457 2.247-2.464 2.247zm0 8.41c-1.007 0-1.824-1.237-1.824-2.246 0-1.002.817-1.82 1.824-1.82 1.007 0 2.464.818 2.464 1.82 0 1.009-1.457 2.246-2.464 2.246zm0 8.41c-1.007 0-1.824-1.228-1.824-2.238s.817-1.828 1.824-1.828c1.007 0 2.464.818 2.464 1.828 0 1.01-1.457 2.238-2.464 2.238zm0 8.419c-1.007 0-1.824-1.237-1.824-2.247 0-1.009.817-1.819 1.824-1.819 1.007 0 2.464.81 2.464 1.819 0 1.01-1.457 2.247-2.464 2.247zm-7.719-227.17c-1.006 0-1.823-1.227-1.823-2.237s.817-1.829 1.823-1.829c1.007 0 2.465.819 2.465 1.829s-1.458 2.237-2.465 2.237zm.001 8.419c-1.007 0-1.824-1.236-1.824-2.246s.817-1.82 1.824-1.82c1.006 0 2.464.81 2.464 1.82s-1.458 2.246-2.464 2.246zm0 16.82c-1.007 0-1.824-1.227-1.824-2.237s.817-1.829 1.824-1.829c1.006 0 2.464.819 2.464 1.829s-1.458 2.237-2.464 2.237zm0 8.419c-1.007 0-1.824-1.236-1.824-2.246 0-1.001.817-1.82 1.824-1.82 1.006 0 2.464.819 2.464 1.82 0 1.01-1.458 2.246-2.464 2.246zm-.001 8.41c-1.006 0-1.823-1.227-1.823-2.237s.817-1.829 1.823-1.829c1.007 0 2.465.819 2.465 1.829s-1.458 2.237-2.465 2.237zm.001 8.419c-1.007 0-1.824-1.236-1.824-2.246s.817-1.82 1.824-1.82c1.006 0 2.464.81 2.464 1.82s-1.458 2.246-2.464 2.246zm-.001 8.41c-1.006 0-1.823-1.236-1.823-2.246 0-1.001.817-1.82 1.823-1.82 1.007 0 2.465.819 2.465 1.82 0 1.01-1.458 2.246-2.465 2.246zm0 8.41c-1.006 0-1.823-1.227-1.823-2.237s.817-1.828 1.823-1.828c1.007 0 2.465.818 2.465 1.828 0 1.01-1.458 2.237-2.465 2.237zm.001 8.419c-1.007 0-1.824-1.236-1.824-2.246s.817-1.82 1.824-1.82c1.006 0 2.464.81 2.464 1.82s-1.458 2.246-2.464 2.246zm0 8.41c-1.007 0-1.824-1.236-1.824-2.237 0-1.01.817-1.828 1.824-1.828 1.006 0 2.464.818 2.464 1.828 0 1.001-1.458 2.237-2.464 2.237zm-.001 16.829c-1.006 0-1.823-1.236-1.823-2.246 0-1.001.817-1.819 1.823-1.819 1.007 0 2.465.818 2.465 1.819 0 1.01-1.458 2.246-2.465 2.246zm0 8.41c-1.006 0-1.823-1.227-1.823-2.237s.817-1.828 1.823-1.828c1.007 0 2.465.818 2.465 1.828 0 1.01-1.458 2.237-2.465 2.237zm0 8.419c-1.006 0-1.823-1.236-1.823-2.246s.817-1.819 1.823-1.819c1.007 0 2.465.809 2.465 1.819 0 1.01-1.458 2.246-2.465 2.246zm0 8.41c-1.006 0-1.823-1.236-1.823-2.237 0-1.01.817-1.828 1.823-1.828 1.007 0 2.465.818 2.465 1.828 0 1.001-1.458 2.237-2.465 2.237zm0 8.411c-1.006 0-1.823-1.228-1.823-2.238s.817-1.828 1.823-1.828c1.007 0 2.465.818 2.465 1.828 0 1.01-1.458 2.238-2.465 2.238zm0 8.418c-1.006 0-1.823-1.236-1.823-2.246 0-1.001.817-1.819 1.823-1.819 1.007 0 2.465.818 2.465 1.819 0 1.01-1.458 2.246-2.465 2.246zm0 8.411c-1.006 0-1.823-1.228-1.823-2.238s.817-1.828 1.823-1.828c1.007 0 2.465.818 2.465 1.828 0 1.01-1.458 2.238-2.465 2.238zm0 16.829c-1.006 0-1.823-1.237-1.823-2.238 0-1.01.817-1.828 1.823-1.828 1.007 0 2.465.818 2.465 1.828 0 1.001-1.458 2.238-2.465 2.238zm0 8.41c-1.006 0-1.823-1.228-1.823-2.238s.817-1.828 1.823-1.828c1.007 0 2.465.818 2.465 1.828 0 1.01-1.458 2.238-2.465 2.238zm.001 8.419c-1.007 0-1.824-1.237-1.824-2.247 0-1.01.817-1.819 1.824-1.819 1.006 0 2.464.809 2.464 1.819 0 1.01-1.458 2.247-2.464 2.247zm0 8.41c-1.007 0-1.824-1.237-1.824-2.238 0-1.01.817-1.828 1.824-1.828 1.006 0 2.464.818 2.464 1.828 0 1.001-1.458 2.238-2.464 2.238zm0 16.829c-1.007 0-1.824-1.237-1.824-2.246 0-1.002.817-1.82 1.824-1.82 1.006 0 2.464.818 2.464 1.82 0 1.009-1.458 2.246-2.464 2.246zm0 8.41c-1.007 0-1.824-1.228-1.824-2.238s.817-1.828 1.824-1.828c1.006 0 2.464.818 2.464 1.828 0 1.01-1.458 2.238-2.464 2.238zm-.001 8.419c-1.006 0-1.823-1.237-1.823-2.246 0-1.01.817-1.82 1.823-1.82 1.007 0 2.465.81 2.465 1.82 0 1.009-1.458 2.246-2.465 2.246zm-7.718-227.17c-1.007 0-1.823-1.228-1.823-2.237 0-1.01.816-1.829 1.823-1.829 1.007 0 2.465.819 2.465 1.829 0 1.009-1.458 2.237-2.465 2.237zm0 8.419c-1.007 0-1.823-1.236-1.823-2.246s.816-1.82 1.823-1.82c1.007 0 2.465.81 2.465 1.82s-1.458 2.246-2.465 2.246zm0 8.41c-1.007 0-1.823-1.236-1.823-2.237 0-1.01.816-1.829 1.823-1.829 1.007 0 2.465.819 2.465 1.829 0 1.001-1.458 2.237-2.465 2.237zm0 8.41c-1.007 0-1.823-1.227-1.823-2.237s.816-1.829 1.823-1.829c1.007 0 2.465.819 2.465 1.829s-1.458 2.237-2.465 2.237zm0 8.419c-1.007 0-1.823-1.236-1.823-2.246 0-1.001.816-1.82 1.823-1.82 1.007 0 2.465.819 2.465 1.82 0 1.01-1.458 2.246-2.465 2.246zm0 8.41c-1.007 0-1.823-1.227-1.823-2.237s.816-1.829 1.823-1.829c1.007 0 2.465.819 2.465 1.829s-1.458 2.237-2.465 2.237zm0 8.419c-1.007 0-1.823-1.236-1.823-2.246s.816-1.82 1.823-1.82c1.007 0 2.465.81 2.465 1.82s-1.458 2.246-2.465 2.246zm0 8.41c-1.007 0-1.823-1.236-1.823-2.246 0-1.001.816-1.82 1.823-1.82 1.007 0 2.465.819 2.465 1.82 0 1.01-1.458 2.246-2.465 2.246zm0 8.41c-1.007 0-1.823-1.227-1.823-2.237s.816-1.828 1.823-1.828c1.007 0 2.465.818 2.465 1.828 0 1.01-1.458 2.237-2.465 2.237zm0 8.419c-1.007 0-1.823-1.236-1.823-2.246s.816-1.82 1.823-1.82c1.007 0 2.465.81 2.465 1.82s-1.458 2.246-2.465 2.246zm-8.034 0c-1.007 0-1.824-1.236-1.824-2.246s.817-1.82 1.824-1.82c1.006 0 2.464.81 2.464 1.82s-1.458 2.246-2.464 2.246zm8.034 8.41c-1.007 0-1.823-1.236-1.823-2.237 0-1.01.816-1.828 1.823-1.828 1.007 0 2.465.818 2.465 1.828 0 1.001-1.458 2.237-2.465 2.237zm0 8.41c-1.007 0-1.823-1.227-1.823-2.237s.816-1.828 1.823-1.828c1.007 0 2.465.818 2.465 1.828 0 1.01-1.458 2.237-2.465 2.237zm0 8.419c-1.007 0-1.823-1.236-1.823-2.246 0-1.001.816-1.819 1.823-1.819 1.007 0 2.465.818 2.465 1.819 0 1.01-1.458 2.246-2.465 2.246zm0 50.479c-1.007 0-1.823-1.228-1.823-2.238s.816-1.828 1.823-1.828c1.007 0 2.465.818 2.465 1.828 0 1.01-1.458 2.238-2.465 2.238zm0 8.418c-1.007 0-1.823-1.236-1.823-2.246s.816-1.828 1.823-1.828c1.007 0 2.465.818 2.465 1.828 0 1.01-1.458 2.246-2.465 2.246zm0 8.411c-1.007 0-1.823-1.237-1.823-2.238 0-1.01.816-1.828 1.823-1.828 1.007 0 2.465.818 2.465 1.828 0 1.001-1.458 2.238-2.465 2.238zm0 8.41c-1.007 0-1.823-1.228-1.823-2.238s.816-1.828 1.823-1.828c1.007 0 2.465.818 2.465 1.828 0 1.01-1.458 2.238-2.465 2.238zm0 8.419c-1.007 0-1.823-1.237-1.823-2.247 0-1.009.816-1.819 1.823-1.819 1.007 0 2.465.81 2.465 1.819 0 1.01-1.458 2.247-2.465 2.247zm0 8.41c-1.007 0-1.823-1.237-1.823-2.238 0-1.01.816-1.828 1.823-1.828 1.007 0 2.465.818 2.465 1.828 0 1.001-1.458 2.238-2.465 2.238zm0 8.419c-1.007 0-1.823-1.237-1.823-2.247 0-1.01.816-1.828 1.823-1.828 1.007 0 2.465.818 2.465 1.828 0 1.01-1.458 2.247-2.465 2.247zm0 16.82c-1.007 0-1.823-1.228-1.823-2.238s.816-1.828 1.823-1.828c1.007 0 2.465.818 2.465 1.828 0 1.01-1.458 2.238-2.465 2.238zm0 8.419c-1.007 0-1.823-1.237-1.823-2.247 0-1.009.816-1.819 1.823-1.819 1.007 0 2.465.81 2.465 1.819 0 1.01-1.458 2.247-2.465 2.247zm-7.718-227.17c-1.007 0-1.823-1.228-1.823-2.237 0-1.01.816-1.829 1.823-1.829 1.007 0 2.464.819 2.464 1.829 0 1.009-1.457 2.237-2.464 2.237zm0 8.419c-1.007 0-1.823-1.236-1.823-2.246s.816-1.82 1.823-1.82c1.007 0 2.464.81 2.464 1.82s-1.457 2.246-2.464 2.246zm0 8.41c-1.007 0-1.823-1.236-1.823-2.237 0-1.01.816-1.829 1.823-1.829 1.007 0 2.464.819 2.464 1.829 0 1.001-1.457 2.237-2.464 2.237zm0 8.41c-1.007 0-1.823-1.227-1.823-2.237s.816-1.829 1.823-1.829c1.007 0 2.464.819 2.464 1.829s-1.457 2.237-2.464 2.237zm0 8.419c-1.007 0-1.823-1.236-1.823-2.246 0-1.001.816-1.82 1.823-1.82 1.007 0 2.464.819 2.464 1.82 0 1.01-1.457 2.246-2.464 2.246zm0 8.41c-1.007 0-1.823-1.227-1.823-2.237s.816-1.829 1.823-1.829c1.007 0 2.464.819 2.464 1.829s-1.457 2.237-2.464 2.237zm0 8.419c-1.007 0-1.823-1.236-1.823-2.246s.816-1.82 1.823-1.82c1.007 0 2.464.81 2.464 1.82s-1.457 2.246-2.464 2.246zm0 8.41c-1.007 0-1.823-1.236-1.823-2.246 0-1.001.816-1.82 1.823-1.82 1.007 0 2.464.819 2.464 1.82 0 1.01-1.457 2.246-2.464 2.246zm0 25.239c-1.007 0-1.823-1.236-1.823-2.237 0-1.01.816-1.828 1.823-1.828 1.007 0 2.464.818 2.464 1.828 0 1.001-1.457 2.237-2.464 2.237zm0 8.411c-1.007 0-1.823-1.228-1.823-2.238s.816-1.828 1.823-1.828c1.007 0 2.464.818 2.464 1.828 0 1.01-1.457 2.238-2.464 2.238zm0 8.418c-1.007 0-1.823-1.236-1.823-2.246 0-1.001.816-1.819 1.823-1.819 1.007 0 2.464.818 2.464 1.819 0 1.01-1.457 2.246-2.464 2.246zm0 8.41c-1.007 0-1.823-1.227-1.823-2.237s.816-1.828 1.823-1.828c1.007 0 2.464.818 2.464 1.828 0 1.01-1.457 2.237-2.464 2.237zm0 25.24c-1.007 0-1.823-1.228-1.823-2.238s.816-1.828 1.823-1.828c1.007 0 2.464.818 2.464 1.828 0 1.01-1.457 2.238-2.464 2.238zm0 8.418c-1.007 0-1.823-1.236-1.823-2.246 0-1.001.816-1.819 1.823-1.819 1.007 0 2.464.818 2.464 1.819 0 1.01-1.457 2.246-2.464 2.246zm0 8.411c-1.007 0-1.823-1.228-1.823-2.238s.816-1.828 1.823-1.828c1.007 0 2.464.818 2.464 1.828 0 1.01-1.457 2.238-2.464 2.238zm0 8.418c-1.007 0-1.823-1.236-1.823-2.246s.816-1.828 1.823-1.828c1.007 0 2.464.818 2.464 1.828 0 1.01-1.457 2.246-2.464 2.246zm0 8.411c-1.007 0-1.823-1.237-1.823-2.238 0-1.01.816-1.828 1.823-1.828 1.007 0 2.464.818 2.464 1.828 0 1.001-1.457 2.238-2.464 2.238zm0 8.41c-1.007 0-1.823-1.228-1.823-2.238s.816-1.828 1.823-1.828c1.007 0 2.464.818 2.464 1.828 0 1.01-1.457 2.238-2.464 2.238zm0 8.419c-1.007 0-1.823-1.237-1.823-2.247 0-1.01.816-1.819 1.823-1.819 1.007 0 2.464.809 2.464 1.819 0 1.01-1.457 2.247-2.464 2.247zm0 8.41c-1.007 0-1.823-1.237-1.823-2.238 0-1.01.816-1.828 1.823-1.828 1.007 0 2.464.818 2.464 1.828 0 1.001-1.457 2.238-2.464 2.238zm0 8.419c-1.007 0-1.823-1.237-1.823-2.247 0-1.01.816-1.828 1.823-1.828 1.007 0 2.464.818 2.464 1.828 0 1.01-1.457 2.247-2.464 2.247zm0 16.82c-1.007 0-1.823-1.228-1.823-2.238s.816-1.828 1.823-1.828c1.007 0 2.464.818 2.464 1.828 0 1.01-1.457 2.238-2.464 2.238zm0 8.419c-1.007 0-1.823-1.237-1.823-2.247 0-1.009.816-1.819 1.823-1.819 1.007 0 2.464.81 2.464 1.819 0 1.01-1.457 2.247-2.464 2.247zm-7.718-227.17c-1.007 0-1.824-1.228-1.824-2.237 0-1.01.817-1.829 1.824-1.829 1.007 0 2.464.819 2.464 1.829 0 1.009-1.457 2.237-2.464 2.237zm0 8.419c-1.007 0-1.824-1.236-1.824-2.246s.817-1.82 1.824-1.82c1.007 0 2.464.81 2.464 1.82s-1.457 2.246-2.464 2.246zm0 8.41c-1.007 0-1.824-1.236-1.824-2.237 0-1.01.817-1.829 1.824-1.829 1.007 0 2.464.819 2.464 1.829 0 1.001-1.457 2.237-2.464 2.237zm0 8.41c-1.007 0-1.824-1.227-1.824-2.237s.817-1.829 1.824-1.829c1.007 0 2.464.819 2.464 1.829s-1.457 2.237-2.464 2.237zm0 8.419c-1.007 0-1.824-1.236-1.824-2.246 0-1.001.817-1.82 1.824-1.82 1.007 0 2.464.819 2.464 1.82 0 1.01-1.457 2.246-2.464 2.246zm0 8.41c-1.007 0-1.824-1.227-1.824-2.237s.817-1.829 1.824-1.829c1.007 0 2.464.819 2.464 1.829s-1.457 2.237-2.464 2.237zm0 8.419c-1.007 0-1.824-1.236-1.824-2.246s.817-1.82 1.824-1.82c1.007 0 2.464.81 2.464 1.82s-1.457 2.246-2.464 2.246zm0 16.82c-1.007 0-1.824-1.227-1.824-2.237s.817-1.828 1.824-1.828c1.007 0 2.464.818 2.464 1.828 0 1.01-1.457 2.237-2.464 2.237zm0 8.419c-1.007 0-1.824-1.236-1.824-2.246s.817-1.82 1.824-1.82c1.007 0 2.464.81 2.464 1.82s-1.457 2.246-2.464 2.246zm0 8.41c-1.007 0-1.824-1.236-1.824-2.237 0-1.01.817-1.828 1.824-1.828 1.007 0 2.464.818 2.464 1.828 0 1.001-1.457 2.237-2.464 2.237zm0 8.411c-1.007 0-1.824-1.228-1.824-2.238s.817-1.828 1.824-1.828c1.007 0 2.464.818 2.464 1.828 0 1.01-1.457 2.238-2.464 2.238zm0 8.418c-1.007 0-1.824-1.236-1.824-2.246 0-1.001.817-1.819 1.824-1.819 1.007 0 2.464.818 2.464 1.819 0 1.01-1.457 2.246-2.464 2.246zm0 8.41c-1.007 0-1.824-1.227-1.824-2.237s.817-1.828 1.824-1.828c1.007 0 2.464.818 2.464 1.828 0 1.01-1.457 2.237-2.464 2.237zm0 8.419c-1.007 0-1.824-1.236-1.824-2.246s.817-1.819 1.824-1.819c1.007 0 2.464.809 2.464 1.819 0 1.01-1.457 2.246-2.464 2.246zm0 8.41c-1.007 0-1.824-1.236-1.824-2.237 0-1.01.817-1.828 1.824-1.828 1.007 0 2.464.818 2.464 1.828 0 1.001-1.457 2.237-2.464 2.237zm0 8.411c-1.007 0-1.824-1.228-1.824-2.238s.817-1.828 1.824-1.828c1.007 0 2.464.818 2.464 1.828 0 1.01-1.457 2.238-2.464 2.238zm0 25.247c-1.007 0-1.824-1.236-1.824-2.246s.817-1.828 1.824-1.828c1.007 0 2.464.818 2.464 1.828 0 1.01-1.457 2.246-2.464 2.246zm0 8.411c-1.007 0-1.824-1.237-1.824-2.238 0-1.01.817-1.828 1.824-1.828 1.007 0 2.464.818 2.464 1.828 0 1.001-1.457 2.238-2.464 2.238zm0 8.41c-1.007 0-1.824-1.228-1.824-2.238s.817-1.828 1.824-1.828c1.007 0 2.464.818 2.464 1.828 0 1.01-1.457 2.238-2.464 2.238zm0 8.419c-1.007 0-1.824-1.237-1.824-2.247 0-1.01.817-1.819 1.824-1.819 1.007 0 2.464.809 2.464 1.819 0 1.01-1.457 2.247-2.464 2.247zm0 8.41c-1.007 0-1.824-1.237-1.824-2.238 0-1.01.817-1.828 1.824-1.828 1.007 0 2.464.818 2.464 1.828 0 1.001-1.457 2.238-2.464 2.238zm0 8.419c-1.007 0-1.824-1.237-1.824-2.247 0-1.01.817-1.828 1.824-1.828 1.007 0 2.464.818 2.464 1.828 0 1.01-1.457 2.247-2.464 2.247zm0 8.41c-1.007 0-1.824-1.237-1.824-2.246 0-1.002.817-1.82 1.824-1.82 1.007 0 2.464.818 2.464 1.82 0 1.009-1.457 2.246-2.464 2.246zm0 8.41c-1.007 0-1.824-1.228-1.824-2.238s.817-1.828 1.824-1.828c1.007 0 2.464.818 2.464 1.828 0 1.01-1.457 2.238-2.464 2.238zm0 8.419c-1.007 0-1.824-1.237-1.824-2.247 0-1.009.817-1.819 1.824-1.819 1.007 0 2.464.81 2.464 1.819 0 1.01-1.457 2.247-2.464 2.247zm-7.717-218.751c-1.007 0-1.824-1.236-1.824-2.246s.817-1.82 1.824-1.82c1.006 0 2.464.81 2.464 1.82s-1.458 2.246-2.464 2.246zm-.001 8.41c-1.006 0-1.823-1.236-1.823-2.237 0-1.01.817-1.829 1.823-1.829 1.007 0 2.465.819 2.465 1.829 0 1.001-1.458 2.237-2.465 2.237zm0 8.41c-1.006 0-1.823-1.227-1.823-2.237s.817-1.829 1.823-1.829c1.007 0 2.465.819 2.465 1.829s-1.458 2.237-2.465 2.237zm.001 8.419c-1.007 0-1.824-1.236-1.824-2.246 0-1.001.817-1.82 1.824-1.82 1.006 0 2.464.819 2.464 1.82 0 1.01-1.458 2.246-2.464 2.246zm0 8.41c-1.007 0-1.824-1.227-1.824-2.237s.817-1.829 1.824-1.829c1.006 0 2.464.819 2.464 1.829s-1.458 2.237-2.464 2.237zm0 16.829c-1.007 0-1.824-1.236-1.824-2.246 0-1.001.817-1.82 1.824-1.82 1.006 0 2.464.819 2.464 1.82 0 1.01-1.458 2.246-2.464 2.246zm-.001 8.41c-1.006 0-1.823-1.227-1.823-2.237s.817-1.828 1.823-1.828c1.007 0 2.465.818 2.465 1.828 0 1.01-1.458 2.237-2.465 2.237zm0 8.419c-1.006 0-1.823-1.236-1.823-2.246s.817-1.82 1.823-1.82c1.007 0 2.465.81 2.465 1.82s-1.458 2.246-2.465 2.246zm.001 8.41c-1.007 0-1.824-1.236-1.824-2.237 0-1.01.817-1.828 1.824-1.828 1.006 0 2.464.818 2.464 1.828 0 1.001-1.458 2.237-2.464 2.237zm0 8.411c-1.007 0-1.824-1.228-1.824-2.238s.817-1.828 1.824-1.828c1.006 0 2.464.818 2.464 1.828 0 1.01-1.458 2.238-2.464 2.238zm-.001 8.418c-1.006 0-1.823-1.236-1.823-2.246 0-1.001.817-1.819 1.823-1.819 1.007 0 2.465.818 2.465 1.819 0 1.01-1.458 2.246-2.465 2.246zm.001 8.41c-1.007 0-1.824-1.227-1.824-2.237s.817-1.828 1.824-1.828c1.006 0 2.464.818 2.464 1.828 0 1.01-1.458 2.237-2.464 2.237zm0 8.419c-1.007 0-1.824-1.236-1.824-2.246s.817-1.819 1.824-1.819c1.006 0 2.464.809 2.464 1.819 0 1.01-1.458 2.246-2.464 2.246zm-.001 8.41c-1.006 0-1.823-1.236-1.823-2.237 0-1.01.817-1.828 1.823-1.828 1.007 0 2.465.818 2.465 1.828 0 1.001-1.458 2.237-2.465 2.237zm.001 8.411c-1.007 0-1.824-1.228-1.824-2.238s.817-1.828 1.824-1.828c1.006 0 2.464.818 2.464 1.828 0 1.01-1.458 2.238-2.464 2.238zm-.001 8.418c-1.006 0-1.823-1.236-1.823-2.246 0-1.001.817-1.819 1.823-1.819 1.007 0 2.465.818 2.465 1.819 0 1.01-1.458 2.246-2.465 2.246zm0 8.411c-1.006 0-1.823-1.228-1.823-2.238s.817-1.828 1.823-1.828c1.007 0 2.465.818 2.465 1.828 0 1.01-1.458 2.238-2.465 2.238zm.001 16.829c-1.007 0-1.824-1.237-1.824-2.238 0-1.01.817-1.828 1.824-1.828 1.006 0 2.464.818 2.464 1.828 0 1.001-1.458 2.238-2.464 2.238zm0 8.41c-1.007 0-1.824-1.228-1.824-2.238s.817-1.828 1.824-1.828c1.006 0 2.464.818 2.464 1.828 0 1.01-1.458 2.238-2.464 2.238zm-.001 8.419c-1.006 0-1.823-1.237-1.823-2.247 0-1.01.817-1.819 1.823-1.819 1.007 0 2.465.809 2.465 1.819 0 1.01-1.458 2.247-2.465 2.247zm0 8.41c-1.006 0-1.823-1.237-1.823-2.238 0-1.01.817-1.828 1.823-1.828 1.007 0 2.465.818 2.465 1.828 0 1.001-1.458 2.238-2.465 2.238zm0 8.419c-1.006 0-1.823-1.237-1.823-2.247 0-1.01.817-1.828 1.823-1.828 1.007 0 2.465.818 2.465 1.828 0 1.01-1.458 2.247-2.465 2.247zm.001 8.41c-1.007 0-1.824-1.237-1.824-2.246 0-1.002.817-1.82 1.824-1.82 1.006 0 2.464.818 2.464 1.82 0 1.009-1.458 2.246-2.464 2.246zm0 16.829c-1.007 0-1.824-1.237-1.824-2.247 0-1.009.817-1.819 1.824-1.819 1.006 0 2.464.81 2.464 1.819 0 1.01-1.458 2.247-2.464 2.247zm-7.72-218.751c-1.007 0-1.823-1.236-1.823-2.246s.816-1.82 1.823-1.82c1.007 0 2.465.81 2.465 1.82s-1.458 2.246-2.465 2.246zm0 8.41c-1.007 0-1.823-1.236-1.823-2.237 0-1.01.816-1.829 1.823-1.829 1.007 0 2.465.819 2.465 1.829 0 1.001-1.458 2.237-2.465 2.237zm0 8.41c-1.007 0-1.823-1.227-1.823-2.237s.816-1.829 1.823-1.829c1.007 0 2.465.819 2.465 1.829s-1.458 2.237-2.465 2.237zm0 8.419c-1.007 0-1.823-1.236-1.823-2.246 0-1.001.816-1.82 1.823-1.82 1.007 0 2.465.819 2.465 1.82 0 1.01-1.458 2.246-2.465 2.246zm0 8.41c-1.007 0-1.823-1.227-1.823-2.237s.816-1.829 1.823-1.829c1.007 0 2.465.819 2.465 1.829s-1.458 2.237-2.465 2.237zm22.838 25.239c-1.006 0-1.823-1.227-1.823-2.237s.817-1.828 1.823-1.828c1.007 0 2.465.818 2.465 1.828 0 1.01-1.458 2.237-2.465 2.237zm-7.718-8.41c-1.007 0-1.823-1.236-1.823-2.246 0-1.001.816-1.82 1.823-1.82 1.007 0 2.465.819 2.465 1.82 0 1.01-1.458 2.246-2.465 2.246zm-7.718-8.41c-1.007 0-1.823-1.236-1.823-2.246s.816-1.82 1.823-1.82c1.007 0 2.464.81 2.464 1.82s-1.457 2.246-2.464 2.246zm-15.436-8.419c-1.007 0-1.824-1.227-1.824-2.237s.817-1.829 1.824-1.829c1.007 0 2.464.819 2.464 1.829s-1.457 2.237-2.464 2.237zm8.034 8.419c-1.006 0-1.823-1.236-1.823-2.246s.817-1.82 1.823-1.82c1.007 0 2.465.81 2.465 1.82s-1.458 2.246-2.465 2.246zm0 8.41c-1.007 0-1.823-1.236-1.823-2.246 0-1.001.816-1.82 1.823-1.82 1.007 0 2.465.819 2.465 1.82 0 1.01-1.458 2.246-2.465 2.246zm0 8.41c-1.007 0-1.823-1.227-1.823-2.237s.816-1.828 1.823-1.828c1.007 0 2.465.818 2.465 1.828 0 1.01-1.458 2.237-2.465 2.237zm0 8.419c-1.007 0-1.823-1.236-1.823-2.246s.816-1.82 1.823-1.82c1.007 0 2.465.81 2.465 1.82s-1.458 2.246-2.465 2.246zm0 8.41c-1.007 0-1.823-1.236-1.823-2.237 0-1.01.816-1.828 1.823-1.828 1.007 0 2.465.818 2.465 1.828 0 1.001-1.458 2.237-2.465 2.237zm0 8.41c-1.006 0-1.823-1.227-1.823-2.237s.817-1.828 1.823-1.828c1.007 0 2.465.818 2.465 1.828 0 1.01-1.458 2.237-2.465 2.237zm0 8.419c-1.007 0-1.823-1.236-1.823-2.246 0-1.001.816-1.819 1.823-1.819 1.007 0 2.465.818 2.465 1.819 0 1.01-1.458 2.246-2.465 2.246zm0 8.41c-1.007 0-1.823-1.227-1.823-2.237s.816-1.828 1.823-1.828c1.007 0 2.465.818 2.465 1.828 0 1.01-1.458 2.237-2.465 2.237zm0 8.419c-1.007 0-1.823-1.236-1.823-2.246s.816-1.819 1.823-1.819c1.007 0 2.465.809 2.465 1.819 0 1.01-1.458 2.246-2.465 2.246zm0 8.41c-1.007 0-1.823-1.236-1.823-2.237 0-1.01.816-1.828 1.823-1.828 1.007 0 2.465.818 2.465 1.828 0 1.001-1.458 2.237-2.465 2.237zm0 8.411c-1.007 0-1.823-1.228-1.823-2.238s.816-1.828 1.823-1.828c1.007 0 2.465.818 2.465 1.828 0 1.01-1.458 2.238-2.465 2.238zm0 8.418c-1.007 0-1.823-1.236-1.823-2.246 0-1.001.816-1.819 1.823-1.819 1.007 0 2.465.818 2.465 1.819 0 1.01-1.458 2.246-2.465 2.246zm0 8.411c-1.007 0-1.823-1.228-1.823-2.238s.816-1.828 1.823-1.828c1.007 0 2.465.818 2.465 1.828 0 1.01-1.458 2.238-2.465 2.238zm0 8.418c-1.007 0-1.823-1.236-1.823-2.246s.816-1.828 1.823-1.828c1.007 0 2.465.818 2.465 1.828 0 1.01-1.458 2.246-2.465 2.246zm0 8.411c-1.007 0-1.823-1.237-1.823-2.238 0-1.01.816-1.828 1.823-1.828 1.007 0 2.465.818 2.465 1.828 0 1.001-1.458 2.238-2.465 2.238zm0 16.829c-1.007 0-1.823-1.237-1.823-2.247 0-1.01.816-1.819 1.823-1.819 1.007 0 2.465.809 2.465 1.819 0 1.01-1.458 2.247-2.465 2.247zm22.839-67.308c-1.007 0-1.824-1.236-1.824-2.246s.817-1.819 1.824-1.819c1.006 0 2.464.809 2.464 1.819 0 1.01-1.458 2.246-2.464 2.246zm0 8.41c-1.007 0-1.824-1.236-1.824-2.237 0-1.01.817-1.828 1.824-1.828 1.006 0 2.464.818 2.464 1.828 0 1.001-1.458 2.237-2.464 2.237zm-7.719 16.829c-1.007 0-1.823-1.236-1.823-2.246 0-1.001.816-1.819 1.823-1.819 1.007 0 2.465.818 2.465 1.819 0 1.01-1.458 2.246-2.465 2.246zm0 8.411c-1.007 0-1.823-1.228-1.823-2.238s.816-1.828 1.823-1.828c1.007 0 2.465.818 2.465 1.828 0 1.01-1.458 2.238-2.465 2.238zm-7.718 8.418c-1.007 0-1.823-1.236-1.823-2.246s.816-1.828 1.823-1.828c1.007 0 2.464.818 2.464 1.828 0 1.01-1.457 2.246-2.464 2.246zm-7.717 16.821c-1.007 0-1.824-1.228-1.824-2.238s.817-1.828 1.824-1.828c1.007 0 2.464.818 2.464 1.828 0 1.01-1.457 2.238-2.464 2.238zm-7.719 8.419c-1.007 0-1.824-1.237-1.824-2.247 0-1.01.817-1.819 1.824-1.819 1.007 0 2.464.809 2.464 1.819 0 1.01-1.457 2.247-2.464 2.247zm8.034 8.41c-1.007 0-1.823-1.237-1.823-2.238 0-1.01.816-1.828 1.823-1.828 1.007 0 2.465.818 2.465 1.828 0 1.001-1.458 2.238-2.465 2.238zm0 8.419c-1.007 0-1.823-1.237-1.823-2.247 0-1.01.816-1.828 1.823-1.828 1.007 0 2.465.818 2.465 1.828 0 1.01-1.458 2.247-2.465 2.247zm0 8.41c-1.007 0-1.823-1.237-1.823-2.246 0-1.002.816-1.82 1.823-1.82 1.007 0 2.465.818 2.465 1.82 0 1.009-1.458 2.246-2.465 2.246zm0 16.829c-1.007 0-1.823-1.237-1.823-2.247 0-1.009.816-1.819 1.823-1.819 1.007 0 2.465.81 2.465 1.819 0 1.01-1.458 2.247-2.465 2.247zm-7.718-218.751c-1.007 0-1.823-1.236-1.823-2.246s.816-1.82 1.823-1.82c1.007 0 2.465.81 2.465 1.82s-1.458 2.246-2.465 2.246zm0 8.41c-1.007 0-1.823-1.236-1.823-2.237 0-1.01.816-1.829 1.823-1.829 1.007 0 2.465.819 2.465 1.829 0 1.001-1.458 2.237-2.465 2.237zm0 8.41c-1.007 0-1.823-1.227-1.823-2.237s.816-1.829 1.823-1.829c1.007 0 2.464.819 2.464 1.829s-1.457 2.237-2.464 2.237zm0 8.419c-1.007 0-1.823-1.236-1.823-2.246 0-1.001.816-1.82 1.823-1.82 1.007 0 2.464.819 2.464 1.82 0 1.01-1.457 2.246-2.464 2.246zm0 16.829c-1.007 0-1.823-1.236-1.823-2.246s.816-1.82 1.823-1.82c1.007 0 2.465.81 2.465 1.82s-1.458 2.246-2.465 2.246zm0 8.41c-1.007 0-1.823-1.236-1.823-2.246 0-1.001.816-1.82 1.823-1.82 1.007 0 2.465.819 2.465 1.82 0 1.01-1.458 2.246-2.465 2.246zm0 8.41c-1.007 0-1.823-1.227-1.823-2.237s.816-1.828 1.823-1.828c1.007 0 2.465.818 2.465 1.828 0 1.01-1.458 2.237-2.465 2.237zm0 8.419c-1.007 0-1.823-1.236-1.823-2.246s.816-1.82 1.823-1.82c1.007 0 2.464.81 2.464 1.82s-1.457 2.246-2.464 2.246zm0 8.41c-1.007 0-1.823-1.236-1.823-2.237 0-1.01.816-1.828 1.823-1.828 1.007 0 2.465.818 2.465 1.828 0 1.001-1.458 2.237-2.465 2.237zm0 8.41c-1.007 0-1.823-1.227-1.823-2.237s.816-1.828 1.823-1.828c1.007 0 2.464.818 2.464 1.828 0 1.01-1.457 2.237-2.464 2.237zm0 8.419c-1.007 0-1.823-1.236-1.823-2.246 0-1.001.816-1.819 1.823-1.819 1.007 0 2.465.818 2.465 1.819 0 1.01-1.458 2.246-2.465 2.246zm0 8.41c-1.007 0-1.823-1.227-1.823-2.237s.816-1.828 1.823-1.828c1.007 0 2.465.818 2.465 1.828 0 1.01-1.458 2.237-2.465 2.237zm0 8.419c-1.007 0-1.823-1.236-1.823-2.246s.816-1.819 1.823-1.819c1.007 0 2.464.809 2.464 1.819 0 1.01-1.457 2.246-2.464 2.246zm0 8.41c-1.007 0-1.823-1.236-1.823-2.237 0-1.01.816-1.828 1.823-1.828 1.007 0 2.465.818 2.465 1.828 0 1.001-1.458 2.237-2.465 2.237zm0 8.411c-1.007 0-1.823-1.228-1.823-2.238s.816-1.828 1.823-1.828c1.007 0 2.465.818 2.465 1.828 0 1.01-1.458 2.238-2.465 2.238zm0 8.418c-1.007 0-1.823-1.236-1.823-2.246 0-1.001.816-1.819 1.823-1.819 1.007 0 2.465.818 2.465 1.819 0 1.01-1.458 2.246-2.465 2.246zm0 8.411c-1.007 0-1.823-1.228-1.823-2.238s.816-1.828 1.823-1.828c1.007 0 2.465.818 2.465 1.828 0 1.01-1.458 2.238-2.465 2.238zm0 8.418c-1.007 0-1.823-1.236-1.823-2.246s.816-1.828 1.823-1.828c1.007 0 2.465.818 2.465 1.828 0 1.01-1.458 2.246-2.465 2.246zm0 8.411c-1.007 0-1.823-1.237-1.823-2.238 0-1.01.816-1.828 1.823-1.828 1.007 0 2.464.818 2.464 1.828 0 1.001-1.457 2.238-2.464 2.238zm0 8.41c-1.007 0-1.823-1.228-1.823-2.238s.816-1.828 1.823-1.828c1.007 0 2.464.818 2.464 1.828 0 1.01-1.457 2.238-2.464 2.238zm0 16.829c-1.007 0-1.823-1.237-1.823-2.238 0-1.01.816-1.828 1.823-1.828 1.007 0 2.465.818 2.465 1.828 0 1.001-1.458 2.238-2.465 2.238zm0 8.419c-1.007 0-1.823-1.237-1.823-2.247 0-1.01.816-1.828 1.823-1.828 1.007 0 2.465.818 2.465 1.828 0 1.01-1.458 2.247-2.465 2.247zm0 8.41c-1.007 0-1.823-1.237-1.823-2.246 0-1.002.816-1.82 1.823-1.82 1.007 0 2.464.818 2.464 1.82 0 1.009-1.457 2.246-2.464 2.246zm0 8.41c-1.007 0-1.823-1.228-1.823-2.238s.816-1.828 1.823-1.828c1.007 0 2.464.818 2.464 1.828 0 1.01-1.457 2.238-2.464 2.238zm0 8.419c-1.007 0-1.823-1.237-1.823-2.247 0-1.009.816-1.819 1.823-1.819 1.007 0 2.465.81 2.465 1.819 0 1.01-1.458 2.247-2.465 2.247zm-7.718-218.751c-1.007 0-1.824-1.236-1.824-2.246s.817-1.82 1.824-1.82c1.007 0 2.464.81 2.464 1.82s-1.457 2.246-2.464 2.246zm0 8.41c-1.007 0-1.824-1.236-1.824-2.237 0-1.01.817-1.829 1.824-1.829 1.007 0 2.464.819 2.464 1.829 0 1.001-1.457 2.237-2.464 2.237zm0 8.41c-1.007 0-1.824-1.227-1.824-2.237s.817-1.829 1.824-1.829c1.007 0 2.464.819 2.464 1.829s-1.457 2.237-2.464 2.237zm0 8.419c-1.007 0-1.824-1.236-1.824-2.246 0-1.001.817-1.82 1.824-1.82 1.007 0 2.464.819 2.464 1.82 0 1.01-1.457 2.246-2.464 2.246zm0 8.41c-1.007 0-1.823-1.227-1.823-2.237s.816-1.829 1.823-1.829c1.007 0 2.464.819 2.464 1.829s-1.457 2.237-2.464 2.237zm0 8.419c-1.007 0-1.824-1.236-1.824-2.246s.817-1.82 1.824-1.82c1.007 0 2.464.81 2.464 1.82s-1.457 2.246-2.464 2.246zm0 8.41c-1.007 0-1.824-1.236-1.824-2.246 0-1.001.817-1.82 1.824-1.82 1.007 0 2.464.819 2.464 1.82 0 1.01-1.457 2.246-2.464 2.246zm0 8.41c-1.007 0-1.824-1.227-1.824-2.237s.817-1.828 1.824-1.828c1.007 0 2.464.818 2.464 1.828 0 1.01-1.457 2.237-2.464 2.237zm0 8.419c-1.007 0-1.824-1.236-1.824-2.246s.817-1.82 1.824-1.82c1.007 0 2.464.81 2.464 1.82s-1.457 2.246-2.464 2.246zm0 8.41c-1.007 0-1.824-1.236-1.824-2.237 0-1.01.817-1.828 1.824-1.828 1.007 0 2.464.818 2.464 1.828 0 1.001-1.457 2.237-2.464 2.237zm0 8.41c-1.007 0-1.823-1.227-1.823-2.237s.816-1.828 1.823-1.828c1.007 0 2.464.818 2.464 1.828 0 1.01-1.457 2.237-2.464 2.237zm0 8.419c-1.007 0-1.824-1.236-1.824-2.246 0-1.001.817-1.819 1.824-1.819 1.007 0 2.464.818 2.464 1.819 0 1.01-1.457 2.246-2.464 2.246zm0 8.41c-1.007 0-1.823-1.227-1.823-2.237s.816-1.828 1.823-1.828c1.007 0 2.464.818 2.464 1.828 0 1.01-1.457 2.237-2.464 2.237zm0 8.419c-1.007 0-1.823-1.236-1.823-2.246s.816-1.819 1.823-1.819c1.007 0 2.464.809 2.464 1.819 0 1.01-1.457 2.246-2.464 2.246zm0 8.41c-1.007 0-1.824-1.236-1.824-2.237 0-1.01.817-1.828 1.824-1.828 1.007 0 2.464.818 2.464 1.828 0 1.001-1.457 2.237-2.464 2.237zm0 8.411c-1.007 0-1.824-1.228-1.824-2.238s.817-1.828 1.824-1.828c1.007 0 2.464.818 2.464 1.828 0 1.01-1.457 2.238-2.464 2.238zm0 8.418c-1.007 0-1.824-1.236-1.824-2.246 0-1.001.817-1.819 1.824-1.819 1.007 0 2.464.818 2.464 1.819 0 1.01-1.457 2.246-2.464 2.246zm0 8.411c-1.007 0-1.824-1.228-1.824-2.238s.817-1.828 1.824-1.828c1.007 0 2.464.818 2.464 1.828 0 1.01-1.457 2.238-2.464 2.238zm0 8.418c-1.007 0-1.824-1.236-1.824-2.246s.817-1.828 1.824-1.828c1.007 0 2.464.818 2.464 1.828 0 1.01-1.457 2.246-2.464 2.246zm0 8.411c-1.007 0-1.824-1.237-1.824-2.238 0-1.01.817-1.828 1.824-1.828 1.007 0 2.464.818 2.464 1.828 0 1.001-1.457 2.238-2.464 2.238zm0 8.41c-1.007 0-1.823-1.228-1.823-2.238s.816-1.828 1.823-1.828c1.007 0 2.464.818 2.464 1.828 0 1.01-1.457 2.238-2.464 2.238zm0 8.419c-1.007 0-1.824-1.237-1.824-2.247 0-1.01.817-1.819 1.824-1.819 1.007 0 2.464.809 2.464 1.819 0 1.01-1.457 2.247-2.464 2.247zm0 8.41c-1.007 0-1.824-1.237-1.824-2.238 0-1.01.817-1.828 1.824-1.828 1.007 0 2.464.818 2.464 1.828 0 1.001-1.457 2.238-2.464 2.238zm0 8.419c-1.007 0-1.824-1.237-1.824-2.247 0-1.01.817-1.828 1.824-1.828 1.007 0 2.464.818 2.464 1.828 0 1.01-1.457 2.247-2.464 2.247zm0 8.41c-1.007 0-1.824-1.237-1.824-2.246 0-1.002.817-1.82 1.824-1.82 1.007 0 2.464.818 2.464 1.82 0 1.009-1.457 2.246-2.464 2.246zm0 8.41c-1.007 0-1.824-1.228-1.824-2.238 0-1.009.817-1.828 1.824-1.828 1.007 0 2.464.819 2.464 1.828 0 1.01-1.457 2.238-2.464 2.238zm0 8.419c-1.007 0-1.824-1.237-1.824-2.247 0-1.009.817-1.819 1.824-1.819 1.007 0 2.464.81 2.464 1.819 0 1.01-1.457 2.247-2.464 2.247zm-7.718-218.751c-1.007 0-1.824-1.236-1.824-2.246s.817-1.82 1.824-1.82c1.007 0 2.464.81 2.464 1.82s-1.457 2.246-2.464 2.246zm0 8.41c-1.007 0-1.824-1.236-1.824-2.237 0-1.01.817-1.829 1.824-1.829 1.007 0 2.464.819 2.464 1.829 0 1.001-1.457 2.237-2.464 2.237zm0 8.41c-1.007 0-1.824-1.227-1.824-2.237s.817-1.829 1.824-1.829c1.007 0 2.464.819 2.464 1.829s-1.457 2.237-2.464 2.237zm0 8.419c-1.007 0-1.824-1.236-1.824-2.246 0-1.001.817-1.82 1.824-1.82 1.007 0 2.464.819 2.464 1.82 0 1.01-1.457 2.246-2.464 2.246zm0 8.41c-1.007 0-1.824-1.227-1.824-2.237s.817-1.829 1.824-1.829c1.007 0 2.464.819 2.464 1.829s-1.457 2.237-2.464 2.237zm0 8.419c-1.007 0-1.824-1.236-1.824-2.246s.817-1.82 1.824-1.82c1.007 0 2.464.81 2.464 1.82s-1.457 2.246-2.464 2.246zm0 8.41c-1.007 0-1.824-1.236-1.824-2.246 0-1.001.817-1.82 1.824-1.82 1.007 0 2.464.819 2.464 1.82 0 1.01-1.457 2.246-2.464 2.246zm0 8.41c-1.007 0-1.824-1.227-1.824-2.237s.817-1.828 1.824-1.828c1.007 0 2.464.818 2.464 1.828 0 1.01-1.457 2.237-2.464 2.237zm0 8.419c-1.007 0-1.824-1.236-1.824-2.246s.817-1.82 1.824-1.82c1.007 0 2.464.81 2.464 1.82s-1.457 2.246-2.464 2.246zm0 8.41c-1.007 0-1.824-1.236-1.824-2.237 0-1.01.817-1.828 1.824-1.828 1.007 0 2.464.818 2.464 1.828 0 1.001-1.457 2.237-2.464 2.237zm0 8.41c-1.007 0-1.824-1.227-1.824-2.237s.817-1.828 1.824-1.828c1.007 0 2.464.818 2.464 1.828 0 1.01-1.457 2.237-2.464 2.237zm0 8.419c-1.007 0-1.824-1.236-1.824-2.246 0-1.001.817-1.82 1.824-1.82 1.007 0 2.464.819 2.464 1.82 0 1.01-1.457 2.246-2.464 2.246zm0 8.41c-1.007 0-1.824-1.227-1.824-2.237s.817-1.828 1.824-1.828c1.007 0 2.464.818 2.464 1.828 0 1.01-1.457 2.237-2.464 2.237zm0 8.419c-1.007 0-1.824-1.236-1.824-2.246s.817-1.819 1.824-1.819c1.007 0 2.464.809 2.464 1.819 0 1.01-1.457 2.246-2.464 2.246zm0 8.41c-1.007 0-1.824-1.236-1.824-2.237 0-1.01.817-1.828 1.824-1.828 1.007 0 2.464.818 2.464 1.828 0 1.001-1.457 2.237-2.464 2.237zm0 8.411c-1.007 0-1.824-1.228-1.824-2.238s.817-1.828 1.824-1.828c1.007 0 2.464.818 2.464 1.828 0 1.01-1.457 2.238-2.464 2.238zm0 8.418c-1.007 0-1.824-1.236-1.824-2.246 0-1.001.817-1.819 1.824-1.819 1.007 0 2.464.818 2.464 1.819 0 1.01-1.457 2.246-2.464 2.246zm0 8.411c-1.007 0-1.824-1.228-1.824-2.238s.817-1.828 1.824-1.828c1.007 0 2.464.818 2.464 1.828 0 1.01-1.457 2.238-2.464 2.238zm0 8.418c-1.007 0-1.824-1.236-1.824-2.246s.817-1.828 1.824-1.828c1.007 0 2.464.818 2.464 1.828 0 1.01-1.457 2.246-2.464 2.246zm0 8.411c-1.007 0-1.824-1.237-1.824-2.238 0-1.01.817-1.828 1.824-1.828 1.007 0 2.464.818 2.464 1.828 0 1.001-1.457 2.238-2.464 2.238zm0 8.41c-1.007 0-1.824-1.228-1.824-2.238s.817-1.828 1.824-1.828c1.007 0 2.464.818 2.464 1.828 0 1.01-1.457 2.238-2.464 2.238zm0 8.419c-1.007 0-1.824-1.237-1.824-2.247 0-1.01.817-1.819 1.824-1.819 1.007 0 2.464.809 2.464 1.819 0 1.01-1.457 2.247-2.464 2.247zm0 8.41c-1.007 0-1.824-1.236-1.824-2.238 0-1.01.817-1.828 1.824-1.828 1.007 0 2.464.818 2.464 1.828 0 1.002-1.457 2.238-2.464 2.238zm0 8.419c-1.007 0-1.824-1.237-1.824-2.247 0-1.01.817-1.828 1.824-1.828 1.007 0 2.464.818 2.464 1.828 0 1.01-1.457 2.247-2.464 2.247zm0 8.41c-1.007 0-1.824-1.237-1.824-2.246 0-1.002.817-1.82 1.824-1.82 1.007 0 2.464.818 2.464 1.82 0 1.009-1.457 2.246-2.464 2.246zm0 8.41c-1.007 0-1.824-1.228-1.824-2.238s.817-1.828 1.824-1.828c1.007 0 2.464.818 2.464 1.828 0 1.01-1.457 2.238-2.464 2.238zm0 8.419c-1.007 0-1.824-1.237-1.824-2.246 0-1.01.817-1.82 1.824-1.82 1.007 0 2.464.81 2.464 1.82 0 1.009-1.457 2.246-2.464 2.246zm-7.718-227.17c-1.007 0-1.824-1.228-1.824-2.237 0-1.01.817-1.829 1.824-1.829 1.006 0 2.464.819 2.464 1.829 0 1.009-1.458 2.237-2.464 2.237zm-.001 16.829c-1.006 0-1.823-1.236-1.823-2.237 0-1.01.817-1.829 1.823-1.829 1.007 0 2.465.819 2.465 1.829 0 1.001-1.458 2.237-2.465 2.237zm.001 8.41c-1.007 0-1.824-1.227-1.824-2.237s.817-1.829 1.824-1.829c1.006 0 2.464.819 2.464 1.829s-1.458 2.237-2.464 2.237zm0 8.419c-1.007 0-1.824-1.236-1.824-2.246 0-1.001.817-1.82 1.824-1.82 1.006 0 2.464.819 2.464 1.82 0 1.01-1.458 2.246-2.464 2.246zm0 8.41c-1.007 0-1.824-1.227-1.824-2.237s.817-1.829 1.824-1.829c1.006 0 2.464.819 2.464 1.829s-1.458 2.237-2.464 2.237zm0 8.419c-1.007 0-1.824-1.236-1.824-2.246s.817-1.82 1.824-1.82c1.006 0 2.464.81 2.464 1.82s-1.458 2.246-2.464 2.246zm0 8.41c-1.007 0-1.824-1.236-1.824-2.246 0-1.001.817-1.82 1.824-1.82 1.006 0 2.464.819 2.464 1.82 0 1.01-1.458 2.246-2.464 2.246zm0 8.41c-1.007 0-1.824-1.227-1.824-2.237s.817-1.828 1.824-1.828c1.006 0 2.464.818 2.464 1.828 0 1.01-1.458 2.237-2.464 2.237zm0 8.419c-1.007 0-1.824-1.236-1.824-2.246s.817-1.82 1.824-1.82c1.006 0 2.464.81 2.464 1.82s-1.458 2.246-2.464 2.246zm0 8.41c-1.007 0-1.824-1.236-1.824-2.237 0-1.01.817-1.828 1.824-1.828 1.006 0 2.464.818 2.464 1.828 0 1.001-1.458 2.237-2.464 2.237zm0 8.41c-1.007 0-1.824-1.227-1.824-2.237s.817-1.828 1.824-1.828c1.006 0 2.464.818 2.464 1.828 0 1.01-1.458 2.237-2.464 2.237zm0 8.419c-1.007 0-1.824-1.236-1.824-2.246 0-1.001.817-1.819 1.824-1.819 1.006 0 2.464.818 2.464 1.819 0 1.01-1.458 2.246-2.464 2.246zm0 8.41c-1.007 0-1.824-1.227-1.824-2.237s.817-1.828 1.824-1.828c1.006 0 2.464.818 2.464 1.828 0 1.01-1.458 2.237-2.464 2.237zm0 8.419c-1.007 0-1.824-1.236-1.824-2.246s.817-1.819 1.824-1.819c1.006 0 2.464.809 2.464 1.819 0 1.01-1.458 2.246-2.464 2.246zm0 8.41c-1.007 0-1.824-1.236-1.824-2.237 0-1.01.817-1.828 1.824-1.828 1.006 0 2.464.818 2.464 1.828 0 1.001-1.458 2.237-2.464 2.237zm0 8.411c-1.007 0-1.824-1.228-1.824-2.238s.817-1.828 1.824-1.828c1.006 0 2.464.818 2.464 1.828 0 1.01-1.458 2.238-2.464 2.238zm-.001 8.418c-1.006 0-1.823-1.236-1.823-2.246 0-1.001.817-1.819 1.823-1.819 1.007 0 2.465.818 2.465 1.819 0 1.01-1.458 2.246-2.465 2.246zm.001 8.411c-1.007 0-1.824-1.228-1.824-2.238s.817-1.828 1.824-1.828c1.006 0 2.464.818 2.464 1.828 0 1.01-1.458 2.238-2.464 2.238zm0 8.418c-1.007 0-1.824-1.236-1.824-2.246s.817-1.828 1.824-1.828c1.006 0 2.464.818 2.464 1.828 0 1.01-1.458 2.246-2.464 2.246zm0 8.411c-1.007 0-1.824-1.237-1.824-2.238 0-1.01.817-1.828 1.824-1.828 1.006 0 2.464.818 2.464 1.828 0 1.001-1.458 2.238-2.464 2.238zm0 8.41c-1.007 0-1.824-1.228-1.824-2.238s.817-1.828 1.824-1.828c1.006 0 2.464.818 2.464 1.828 0 1.01-1.458 2.238-2.464 2.238zm0 8.419c-1.007 0-1.824-1.237-1.824-2.247 0-1.009.817-1.819 1.824-1.819 1.006 0 2.464.81 2.464 1.819 0 1.01-1.458 2.247-2.464 2.247zm-.001 8.41c-1.006 0-1.823-1.237-1.823-2.238 0-1.01.817-1.828 1.823-1.828 1.007 0 2.465.818 2.465 1.828 0 1.001-1.458 2.238-2.465 2.238zm.001 8.419c-1.007 0-1.824-1.237-1.824-2.247 0-1.01.817-1.828 1.824-1.828 1.006 0 2.464.818 2.464 1.828 0 1.01-1.458 2.247-2.464 2.247zm0 8.41c-1.007 0-1.824-1.237-1.824-2.246 0-1.002.817-1.82 1.824-1.82 1.006 0 2.464.818 2.464 1.82 0 1.009-1.458 2.246-2.464 2.246zm0 8.41c-1.007 0-1.824-1.228-1.824-2.238s.817-1.828 1.824-1.828c1.006 0 2.464.818 2.464 1.828 0 1.01-1.458 2.238-2.464 2.238zm0 8.419c-1.007 0-1.824-1.237-1.824-2.247 0-1.009.817-1.819 1.824-1.819 1.006 0 2.464.81 2.464 1.819 0 1.01-1.458 2.247-2.464 2.247zm-7.718-227.17c-1.007 0-1.823-1.228-1.823-2.237 0-1.01.816-1.829 1.823-1.829 1.007 0 2.465.819 2.465 1.829 0 1.009-1.458 2.237-2.465 2.237zm0 8.419c-1.007 0-1.823-1.236-1.823-2.246s.816-1.82 1.823-1.82c1.007 0 2.465.81 2.465 1.82s-1.458 2.246-2.465 2.246zm0 8.41c-1.007 0-1.823-1.236-1.823-2.237 0-1.01.816-1.829 1.823-1.829 1.007 0 2.465.819 2.465 1.829 0 1.001-1.458 2.237-2.465 2.237zm0 8.41c-1.007 0-1.823-1.227-1.823-2.237s.816-1.829 1.823-1.829c1.007 0 2.465.819 2.465 1.829s-1.458 2.237-2.465 2.237zm0 8.419c-1.007 0-1.823-1.236-1.823-2.246 0-1.001.816-1.82 1.823-1.82 1.007 0 2.464.819 2.464 1.82 0 1.01-1.457 2.246-2.464 2.246zm0 8.41c-1.007 0-1.823-1.227-1.823-2.237s.816-1.829 1.823-1.829c1.007 0 2.464.819 2.464 1.829s-1.457 2.237-2.464 2.237zm0 8.419c-1.007 0-1.823-1.236-1.823-2.246s.816-1.82 1.823-1.82c1.007 0 2.465.81 2.465 1.82s-1.458 2.246-2.465 2.246zm0 8.41c-1.007 0-1.823-1.236-1.823-2.246 0-1.001.816-1.82 1.823-1.82 1.007 0 2.465.819 2.465 1.82 0 1.01-1.458 2.246-2.465 2.246zm0 8.41c-1.007 0-1.823-1.227-1.823-2.237s.816-1.828 1.823-1.828c1.007 0 2.465.818 2.465 1.828 0 1.01-1.458 2.237-2.465 2.237zm0 8.419c-1.007 0-1.823-1.236-1.823-2.246s.816-1.82 1.823-1.82c1.007 0 2.465.81 2.465 1.82s-1.458 2.246-2.465 2.246zm0 8.41c-1.007 0-1.823-1.236-1.823-2.237 0-1.01.816-1.828 1.823-1.828 1.007 0 2.465.818 2.465 1.828 0 1.001-1.458 2.237-2.465 2.237zm0 8.41c-1.007 0-1.823-1.227-1.823-2.237s.816-1.828 1.823-1.828c1.007 0 2.464.818 2.464 1.828 0 1.01-1.457 2.237-2.464 2.237zm0 8.419c-1.007 0-1.823-1.236-1.823-2.246 0-1.001.816-1.819 1.823-1.819 1.007 0 2.464.818 2.464 1.819 0 1.01-1.457 2.246-2.464 2.246zm0 8.41c-1.007 0-1.823-1.227-1.823-2.237s.816-1.828 1.823-1.828c1.007 0 2.465.818 2.465 1.828 0 1.01-1.458 2.237-2.465 2.237zm0 8.419c-1.007 0-1.823-1.236-1.823-2.246s.816-1.819 1.823-1.819c1.007 0 2.464.809 2.464 1.819 0 1.01-1.457 2.246-2.464 2.246zm0 8.41c-1.007 0-1.823-1.236-1.823-2.237 0-1.01.816-1.828 1.823-1.828 1.007 0 2.464.818 2.464 1.828 0 1.001-1.457 2.237-2.464 2.237zm0 8.411c-1.007 0-1.823-1.228-1.823-2.238s.816-1.828 1.823-1.828c1.007 0 2.464.818 2.464 1.828 0 1.01-1.457 2.238-2.464 2.238zm0 8.418c-1.007 0-1.823-1.236-1.823-2.246 0-1.001.816-1.819 1.823-1.819 1.007 0 2.465.818 2.465 1.819 0 1.01-1.458 2.246-2.465 2.246zm0 8.411c-1.007 0-1.823-1.228-1.823-2.238s.816-1.828 1.823-1.828c1.007 0 2.465.818 2.465 1.828 0 1.01-1.458 2.238-2.465 2.238zm0 8.418c-1.007 0-1.823-1.236-1.823-2.246s.816-1.828 1.823-1.828c1.007 0 2.464.818 2.464 1.828 0 1.01-1.457 2.246-2.464 2.246zm0 16.821c-1.007 0-1.823-1.228-1.823-2.238s.816-1.828 1.823-1.828c1.007 0 2.464.818 2.464 1.828 0 1.01-1.457 2.238-2.464 2.238zm0 8.419c-1.007 0-1.823-1.237-1.823-2.247 0-1.009.816-1.819 1.823-1.819 1.007 0 2.464.81 2.464 1.819 0 1.01-1.457 2.247-2.464 2.247zm0 8.41c-1.007 0-1.823-1.237-1.823-2.238 0-1.01.816-1.828 1.823-1.828 1.007 0 2.465.818 2.465 1.828 0 1.001-1.458 2.238-2.465 2.238zm0 8.419c-1.007 0-1.823-1.237-1.823-2.247 0-1.01.816-1.828 1.823-1.828 1.007 0 2.464.818 2.464 1.828 0 1.01-1.457 2.247-2.464 2.247zm0 8.41c-1.007 0-1.823-1.237-1.823-2.246 0-1.002.816-1.82 1.823-1.82 1.007 0 2.465.818 2.465 1.82 0 1.009-1.458 2.246-2.465 2.246zm0 8.41c-1.007 0-1.823-1.228-1.823-2.238s.816-1.828 1.823-1.828c1.007 0 2.464.818 2.464 1.828 0 1.01-1.457 2.238-2.464 2.238zm0 8.419c-1.007 0-1.823-1.237-1.823-2.247 0-1.009.816-1.819 1.823-1.819 1.007 0 2.464.81 2.464 1.819 0 1.01-1.457 2.247-2.464 2.247zm-7.719-227.17c-1.007 0-1.823-1.228-1.823-2.237 0-1.01.816-1.829 1.823-1.829 1.007 0 2.464.819 2.464 1.829 0 1.009-1.457 2.237-2.464 2.237zm0 8.419c-1.007 0-1.823-1.236-1.823-2.246s.816-1.82 1.823-1.82c1.007 0 2.464.81 2.464 1.82s-1.457 2.246-2.464 2.246zm0 8.41c-1.007 0-1.823-1.236-1.823-2.237 0-1.01.816-1.829 1.823-1.829 1.007 0 2.464.819 2.464 1.829 0 1.001-1.457 2.237-2.464 2.237zm0 25.239c-1.007 0-1.823-1.227-1.823-2.237s.816-1.829 1.823-1.829c1.007 0 2.464.819 2.464 1.829s-1.457 2.237-2.464 2.237zm0 8.419c-1.007 0-1.823-1.236-1.823-2.246s.816-1.82 1.823-1.82c1.007 0 2.464.81 2.464 1.82s-1.457 2.246-2.464 2.246zm.001 8.41c-1.007 0-1.823-1.236-1.823-2.246 0-1.001.816-1.82 1.823-1.82 1.007 0 2.464.819 2.464 1.82 0 1.01-1.457 2.246-2.464 2.246zm0 8.41c-1.007 0-1.824-1.227-1.824-2.237s.817-1.828 1.824-1.828c1.007 0 2.464.818 2.464 1.828 0 1.01-1.457 2.237-2.464 2.237zm0 8.419c-1.007 0-1.824-1.236-1.824-2.246s.817-1.82 1.824-1.82c1.007 0 2.464.81 2.464 1.82s-1.457 2.246-2.464 2.246zm0 8.41c-1.007 0-1.823-1.236-1.823-2.237 0-1.01.816-1.828 1.823-1.828 1.007 0 2.464.818 2.464 1.828 0 1.001-1.457 2.237-2.464 2.237zm0 8.411c-1.007 0-1.823-1.228-1.823-2.238s.816-1.828 1.823-1.828c1.007 0 2.464.818 2.464 1.828 0 1.01-1.457 2.238-2.464 2.238zm0 8.418c-1.007 0-1.824-1.236-1.824-2.246 0-1.001.817-1.819 1.824-1.819 1.007 0 2.464.818 2.464 1.819 0 1.01-1.457 2.246-2.464 2.246zm0 8.41c-1.007 0-1.823-1.227-1.823-2.237s.816-1.828 1.823-1.828c1.007 0 2.464.818 2.464 1.828 0 1.01-1.457 2.237-2.464 2.237zm0 8.419c-1.007 0-1.823-1.236-1.823-2.246s.816-1.819 1.823-1.819c1.007 0 2.464.809 2.464 1.819 0 1.01-1.457 2.246-2.464 2.246zm0 8.41c-1.007 0-1.823-1.236-1.823-2.237 0-1.01.816-1.828 1.823-1.828 1.007 0 2.464.818 2.464 1.828 0 1.001-1.457 2.237-2.464 2.237zm0 8.411c-1.007 0-1.824-1.228-1.824-2.238s.817-1.828 1.824-1.828c1.007 0 2.464.818 2.464 1.828 0 1.01-1.457 2.238-2.464 2.238zm0 8.418c-1.007 0-1.824-1.236-1.824-2.246 0-1.001.817-1.819 1.824-1.819 1.007 0 2.464.818 2.464 1.819 0 1.01-1.457 2.246-2.464 2.246zm0 8.411c-1.007 0-1.824-1.228-1.824-2.238s.817-1.828 1.824-1.828c1.007 0 2.464.818 2.464 1.828 0 1.01-1.457 2.238-2.464 2.238zm0 16.829c-1.007 0-1.823-1.237-1.823-2.238 0-1.01.816-1.828 1.823-1.828 1.007 0 2.464.818 2.464 1.828 0 1.001-1.457 2.238-2.464 2.238zm0 8.41c-1.007 0-1.823-1.228-1.823-2.238s.816-1.828 1.823-1.828c1.007 0 2.464.818 2.464 1.828 0 1.01-1.457 2.238-2.464 2.238zm0 8.419c-1.007 0-1.824-1.237-1.824-2.247 0-1.01.817-1.819 1.824-1.819 1.007 0 2.464.809 2.464 1.819 0 1.01-1.457 2.247-2.464 2.247zm0 8.41c-1.007 0-1.824-1.237-1.824-2.238 0-1.01.817-1.828 1.824-1.828 1.007 0 2.464.818 2.464 1.828 0 1.001-1.457 2.238-2.464 2.238zm0 8.419c-1.007 0-1.824-1.237-1.824-2.247 0-1.01.817-1.828 1.824-1.828 1.007 0 2.464.818 2.464 1.828 0 1.01-1.457 2.247-2.464 2.247zm0 8.41c-1.007 0-1.823-1.237-1.823-2.246 0-1.002.816-1.82 1.823-1.82 1.007 0 2.464.818 2.464 1.82 0 1.009-1.457 2.246-2.464 2.246zm0 8.41c-1.007 0-1.823-1.228-1.823-2.238s.816-1.828 1.823-1.828c1.007 0 2.464.818 2.464 1.828 0 1.01-1.457 2.238-2.464 2.238zm0 8.419c-1.007 0-1.824-1.237-1.824-2.247 0-1.009.817-1.819 1.824-1.819 1.007 0 2.464.81 2.464 1.819 0 1.01-1.457 2.247-2.464 2.247zm-7.718-227.17c-1.007 0-1.824-1.228-1.824-2.237 0-1.01.817-1.829 1.824-1.829 1.007 0 2.464.819 2.464 1.829 0 1.009-1.457 2.237-2.464 2.237zm0 8.419c-1.007 0-1.824-1.236-1.824-2.246s.817-1.82 1.824-1.82c1.007 0 2.464.81 2.464 1.82s-1.457 2.246-2.464 2.246zm0 8.41c-1.007 0-1.824-1.236-1.824-2.237 0-1.01.817-1.829 1.824-1.829 1.007 0 2.464.819 2.464 1.829 0 1.001-1.457 2.237-2.464 2.237zm0 8.41c-1.007 0-1.824-1.227-1.824-2.237s.817-1.829 1.824-1.829c1.007 0 2.464.819 2.464 1.829s-1.457 2.237-2.464 2.237zm0 8.419c-1.007 0-1.824-1.236-1.824-2.246 0-1.001.817-1.82 1.824-1.82 1.007 0 2.464.819 2.464 1.82 0 1.01-1.457 2.246-2.464 2.246zm0 16.829c-1.007 0-1.824-1.236-1.824-2.246s.817-1.82 1.824-1.82c1.007 0 2.464.81 2.464 1.82s-1.457 2.246-2.464 2.246zm0 8.41c-1.007 0-1.824-1.236-1.824-2.246 0-1.001.817-1.82 1.824-1.82 1.007 0 2.464.819 2.464 1.82 0 1.01-1.457 2.246-2.464 2.246zm0 8.41c-1.007 0-1.824-1.227-1.824-2.237s.817-1.828 1.824-1.828c1.007 0 2.464.818 2.464 1.828 0 1.01-1.457 2.237-2.464 2.237zm0 25.24c-1.007 0-1.824-1.228-1.824-2.238s.817-1.828 1.824-1.828c1.007 0 2.464.818 2.464 1.828 0 1.01-1.457 2.238-2.464 2.238zm0 8.418c-1.007 0-1.824-1.236-1.824-2.246 0-1.001.817-1.819 1.824-1.819 1.007 0 2.464.818 2.464 1.819 0 1.01-1.457 2.246-2.464 2.246zm0 8.41c-1.007 0-1.824-1.227-1.824-2.237s.817-1.828 1.824-1.828c1.007 0 2.464.818 2.464 1.828 0 1.01-1.457 2.237-2.464 2.237zm0 8.419c-1.007 0-1.824-1.236-1.824-2.246s.817-1.819 1.824-1.819c1.007 0 2.464.809 2.464 1.819 0 1.01-1.457 2.246-2.464 2.246zm0 8.41c-1.007 0-1.824-1.236-1.824-2.237 0-1.01.817-1.828 1.824-1.828 1.007 0 2.464.818 2.464 1.828 0 1.001-1.457 2.237-2.464 2.237zm0 8.411c-1.007 0-1.824-1.228-1.824-2.238s.817-1.828 1.824-1.828c1.007 0 2.464.818 2.464 1.828 0 1.01-1.457 2.238-2.464 2.238zm0 8.418c-1.007 0-1.824-1.236-1.824-2.246 0-1.001.817-1.819 1.824-1.819 1.007 0 2.464.818 2.464 1.819 0 1.01-1.457 2.246-2.464 2.246zm0 16.829c-1.007 0-1.824-1.236-1.824-2.246s.817-1.828 1.824-1.828c1.007 0 2.464.818 2.464 1.828 0 1.01-1.457 2.246-2.464 2.246zm0 8.411c-1.007 0-1.824-1.237-1.824-2.238 0-1.01.817-1.828 1.824-1.828 1.007 0 2.464.818 2.464 1.828 0 1.001-1.457 2.238-2.464 2.238zm0 8.41c-1.007 0-1.824-1.228-1.824-2.238s.817-1.828 1.824-1.828c1.007 0 2.464.818 2.464 1.828 0 1.01-1.457 2.238-2.464 2.238zm0 8.419c-1.007 0-1.824-1.237-1.824-2.247 0-1.01.817-1.819 1.824-1.819 1.007 0 2.464.809 2.464 1.819 0 1.01-1.457 2.247-2.464 2.247zm0 8.41c-1.007 0-1.824-1.237-1.824-2.238 0-1.01.817-1.828 1.824-1.828 1.007 0 2.464.818 2.464 1.828 0 1.001-1.457 2.238-2.464 2.238zm0 8.419c-1.007 0-1.824-1.237-1.824-2.247 0-1.01.817-1.828 1.824-1.828 1.007 0 2.464.818 2.464 1.828 0 1.01-1.457 2.247-2.464 2.247zm0 8.41c-1.007 0-1.824-1.237-1.824-2.246 0-1.002.817-1.82 1.824-1.82 1.007 0 2.464.818 2.464 1.82 0 1.009-1.457 2.246-2.464 2.246zm0 8.41c-1.007 0-1.824-1.228-1.824-2.238s.817-1.828 1.824-1.828c1.007 0 2.464.818 2.464 1.828 0 1.01-1.457 2.238-2.464 2.238zm0 8.419c-1.007 0-1.824-1.237-1.824-2.247 0-1.009.817-1.819 1.824-1.819 1.007 0 2.464.81 2.464 1.819 0 1.01-1.457 2.247-2.464 2.247zm-7.718-227.17c-1.007 0-1.824-1.228-1.824-2.237 0-1.01.817-1.829 1.824-1.829 1.006 0 2.464.819 2.464 1.829 0 1.009-1.458 2.237-2.464 2.237zm0 8.419c-1.007 0-1.824-1.236-1.824-2.246s.817-1.82 1.824-1.82c1.006 0 2.464.81 2.464 1.82s-1.458 2.246-2.464 2.246zm0 8.41c-1.007 0-1.824-1.236-1.824-2.237 0-1.01.817-1.829 1.824-1.829 1.006 0 2.464.819 2.464 1.829 0 1.001-1.458 2.237-2.464 2.237zm-.001 8.41c-1.006 0-1.823-1.227-1.823-2.237s.817-1.829 1.823-1.829c1.007 0 2.465.819 2.465 1.829s-1.458 2.237-2.465 2.237zm.001 8.419c-1.007 0-1.824-1.236-1.824-2.246 0-1.001.817-1.82 1.824-1.82 1.006 0 2.464.819 2.464 1.82 0 1.01-1.458 2.246-2.464 2.246zm0 8.41c-1.007 0-1.824-1.227-1.824-2.237s.817-1.829 1.824-1.829c1.007 0 2.464.819 2.464 1.829s-1.457 2.237-2.464 2.237zm0 8.419c-1.007 0-1.824-1.236-1.824-2.246s.817-1.82 1.824-1.82c1.006 0 2.464.81 2.464 1.82s-1.458 2.246-2.464 2.246zm0 8.41c-1.007 0-1.824-1.236-1.824-2.246 0-1.001.817-1.82 1.824-1.82 1.006 0 2.464.819 2.464 1.82 0 1.01-1.458 2.246-2.464 2.246zm0 8.41c-1.007 0-1.824-1.227-1.824-2.237s.817-1.828 1.824-1.828c1.006 0 2.464.818 2.464 1.828 0 1.01-1.458 2.237-2.464 2.237zm0 8.419c-1.007 0-1.824-1.236-1.824-2.246s.817-1.82 1.824-1.82c1.006 0 2.464.81 2.464 1.82s-1.458 2.246-2.464 2.246zm0 8.41c-1.007 0-1.824-1.227-1.824-2.237s.817-1.828 1.824-1.828c1.006 0 2.464.818 2.464 1.828 0 1.01-1.458 2.237-2.464 2.237zm-.001 8.41c-1.006 0-1.823-1.227-1.823-2.237s.817-1.828 1.823-1.828c1.007 0 2.465.818 2.465 1.828 0 1.01-1.458 2.237-2.465 2.237zm.001 16.829c-1.007 0-1.824-1.227-1.824-2.237s.817-1.828 1.824-1.828c1.006 0 2.464.818 2.464 1.828 0 1.01-1.458 2.237-2.464 2.237zm0 8.419c-1.007 0-1.824-1.236-1.824-2.246s.817-1.819 1.824-1.819c1.006 0 2.464.809 2.464 1.819 0 1.01-1.458 2.246-2.464 2.246zm0 8.41c-1.007 0-1.824-1.236-1.824-2.237 0-1.01.817-1.828 1.824-1.828 1.006 0 2.464.818 2.464 1.828 0 1.001-1.458 2.237-2.464 2.237zm0 8.411c-1.007 0-1.824-1.228-1.824-2.238s.817-1.828 1.824-1.828c1.006 0 2.464.818 2.464 1.828 0 1.01-1.458 2.238-2.464 2.238zm0 16.829c-1.007 0-1.824-1.228-1.824-2.238s.817-1.828 1.824-1.828c1.006 0 2.464.818 2.464 1.828 0 1.01-1.458 2.238-2.464 2.238zm0 8.418c-1.007 0-1.824-1.236-1.824-2.246s.817-1.828 1.824-1.828c1.006 0 2.464.818 2.464 1.828 0 1.01-1.458 2.246-2.464 2.246zm-.001 8.411c-1.006 0-1.823-1.237-1.823-2.238 0-1.01.817-1.828 1.823-1.828 1.007 0 2.465.818 2.465 1.828 0 1.001-1.458 2.238-2.465 2.238zm0 8.41c-1.006 0-1.823-1.228-1.823-2.238s.817-1.828 1.823-1.828c1.007 0 2.465.818 2.465 1.828 0 1.01-1.458 2.238-2.465 2.238zm.001 8.419c-1.007 0-1.824-1.237-1.824-2.247 0-1.01.817-1.819 1.824-1.819 1.006 0 2.464.809 2.464 1.819 0 1.01-1.458 2.247-2.464 2.247zm0 8.41c-1.007 0-1.824-1.237-1.824-2.238 0-1.01.817-1.828 1.824-1.828 1.006 0 2.464.818 2.464 1.828 0 1.001-1.458 2.238-2.464 2.238zm0 8.419c-1.007 0-1.824-1.237-1.824-2.247 0-1.01.817-1.828 1.824-1.828 1.007 0 2.464.818 2.464 1.828 0 1.01-1.457 2.247-2.464 2.247zm0 8.41c-1.007 0-1.824-1.237-1.824-2.246 0-1.002.817-1.82 1.824-1.82 1.006 0 2.464.818 2.464 1.82 0 1.009-1.458 2.246-2.464 2.246zm-.001 8.41c-1.006 0-1.823-1.228-1.823-2.238s.817-1.828 1.823-1.828c1.007 0 2.465.818 2.465 1.828 0 1.01-1.458 2.238-2.465 2.238zm.001 8.419c-1.007 0-1.824-1.237-1.824-2.247 0-1.009.817-1.819 1.824-1.819 1.006 0 2.464.81 2.464 1.819 0 1.01-1.458 2.247-2.464 2.247zm-7.719-227.17c-1.007 0-1.823-1.228-1.823-2.237 0-1.01.816-1.829 1.823-1.829 1.007 0 2.466.819 2.466 1.829 0 1.009-1.459 2.237-2.466 2.237zm0 8.419c-1.007 0-1.823-1.236-1.823-2.246s.816-1.82 1.823-1.82c1.007 0 2.466.81 2.466 1.82s-1.459 2.246-2.466 2.246zm0 8.41c-1.007 0-1.823-1.236-1.823-2.237 0-1.01.816-1.829 1.823-1.829 1.007 0 2.466.819 2.466 1.829 0 1.001-1.459 2.237-2.466 2.237zm0 8.41c-1.007 0-1.823-1.227-1.823-2.237s.816-1.829 1.823-1.829c1.007 0 2.466.819 2.466 1.829s-1.459 2.237-2.466 2.237zm0 8.419c-1.007 0-1.823-1.236-1.823-2.246 0-1.001.816-1.82 1.823-1.82 1.007 0 2.466.819 2.466 1.82 0 1.01-1.459 2.246-2.466 2.246zm0 8.41c-1.007 0-1.823-1.227-1.823-2.237s.816-1.829 1.823-1.829c1.007 0 2.466.819 2.466 1.829s-1.459 2.237-2.466 2.237zm0 8.419c-1.007 0-1.823-1.236-1.823-2.246s.816-1.82 1.823-1.82c1.007 0 2.466.81 2.466 1.82s-1.459 2.246-2.466 2.246zm0 8.41c-1.007 0-1.823-1.236-1.823-2.246 0-1.001.816-1.82 1.823-1.82 1.007 0 2.466.819 2.466 1.82 0 1.01-1.459 2.246-2.466 2.246zm0 8.41c-1.007 0-1.823-1.227-1.823-2.237s.816-1.828 1.823-1.828c1.007 0 2.466.818 2.466 1.828 0 1.01-1.459 2.237-2.466 2.237zm0 8.419c-1.007 0-1.823-1.236-1.823-2.246s.816-1.82 1.823-1.82c1.007 0 2.466.81 2.466 1.82s-1.459 2.246-2.466 2.246zm0 8.41c-1.007 0-1.823-1.236-1.823-2.237 0-1.01.816-1.828 1.823-1.828 1.007 0 2.466.818 2.466 1.828 0 1.001-1.459 2.237-2.466 2.237zm0 8.41c-1.007 0-1.823-1.227-1.823-2.237s.816-1.828 1.823-1.828c1.007 0 2.466.818 2.466 1.828 0 1.01-1.459 2.237-2.466 2.237zm0 8.419c-1.007 0-1.823-1.236-1.823-2.246 0-1.001.816-1.819 1.823-1.819 1.007 0 2.466.818 2.466 1.819 0 1.01-1.459 2.246-2.466 2.246zm0 16.829c-1.007 0-1.823-1.236-1.823-2.246s.816-1.819 1.823-1.819c1.007 0 2.465.809 2.465 1.819 0 1.01-1.458 2.246-2.465 2.246zm0 8.41c-1.007 0-1.823-1.236-1.823-2.237 0-1.01.816-1.828 1.823-1.828 1.007 0 2.466.818 2.466 1.828 0 1.001-1.459 2.237-2.466 2.237zm0 16.829c-1.007 0-1.823-1.236-1.823-2.246 0-1.001.816-1.819 1.823-1.819 1.007 0 2.466.818 2.466 1.819 0 1.01-1.459 2.246-2.466 2.246zm0 8.411c-1.007 0-1.823-1.228-1.823-2.238s.816-1.828 1.823-1.828c1.007 0 2.466.818 2.466 1.828 0 1.01-1.459 2.238-2.466 2.238zm0 8.418c-1.007 0-1.823-1.236-1.823-2.246s.816-1.828 1.823-1.828c1.007 0 2.466.818 2.466 1.828 0 1.01-1.459 2.246-2.466 2.246zm0 8.411c-1.007 0-1.823-1.237-1.823-2.238 0-1.01.816-1.828 1.823-1.828 1.007 0 2.466.818 2.466 1.828 0 1.001-1.459 2.238-2.466 2.238zm0 8.41c-1.007 0-1.823-1.228-1.823-2.238s.816-1.828 1.823-1.828c1.007 0 2.466.818 2.466 1.828 0 1.01-1.459 2.238-2.466 2.238zm0 8.419c-1.007 0-1.823-1.237-1.823-2.247 0-1.01.816-1.819 1.823-1.819 1.007 0 2.466.809 2.466 1.819 0 1.01-1.459 2.247-2.466 2.247zm0 8.41c-1.007 0-1.823-1.237-1.823-2.238 0-1.01.816-1.828 1.823-1.828 1.007 0 2.466.818 2.466 1.828 0 1.001-1.459 2.238-2.466 2.238zm0 8.419c-1.007 0-1.823-1.237-1.823-2.247 0-1.01.816-1.828 1.823-1.828 1.007 0 2.466.818 2.466 1.828 0 1.01-1.459 2.247-2.466 2.247zm0 8.41c-1.007 0-1.823-1.237-1.823-2.246 0-1.002.816-1.82 1.823-1.82 1.007 0 2.466.818 2.466 1.82 0 1.009-1.459 2.246-2.466 2.246zm0 8.41c-1.007 0-1.823-1.228-1.823-2.238s.816-1.828 1.823-1.828c1.007 0 2.466.818 2.466 1.828 0 1.01-1.459 2.238-2.466 2.238zm0 8.419c-1.007 0-1.823-1.237-1.823-2.247 0-1.009.816-1.819 1.823-1.819 1.007 0 2.466.81 2.466 1.819 0 1.01-1.459 2.247-2.466 2.247zm-7.718-227.17c-1.007 0-1.823-1.228-1.823-2.237 0-1.01.816-1.829 1.823-1.829 1.007 0 2.465.819 2.465 1.829 0 1.009-1.458 2.237-2.465 2.237zm0 8.419c-1.007 0-1.823-1.236-1.823-2.246s.816-1.82 1.823-1.82c1.007 0 2.465.81 2.465 1.82s-1.458 2.246-2.465 2.246zm0 8.41c-1.007 0-1.823-1.236-1.823-2.237 0-1.01.816-1.829 1.823-1.829 1.007 0 2.465.819 2.465 1.829 0 1.001-1.458 2.237-2.465 2.237zm0 8.41c-1.007 0-1.823-1.227-1.823-2.237s.816-1.829 1.823-1.829c1.007 0 2.465.819 2.465 1.829s-1.458 2.237-2.465 2.237zm0 8.419c-1.007 0-1.823-1.236-1.823-2.246 0-1.001.816-1.82 1.823-1.82 1.007 0 2.465.819 2.465 1.82 0 1.01-1.458 2.246-2.465 2.246zm0 8.41c-1.007 0-1.823-1.227-1.823-2.237s.816-1.829 1.823-1.829c1.007 0 2.465.819 2.465 1.829s-1.458 2.237-2.465 2.237zm0 8.419c-1.007 0-1.823-1.236-1.823-2.246s.816-1.82 1.823-1.82c1.007 0 2.465.81 2.465 1.82s-1.458 2.246-2.465 2.246zm0 16.82c-1.007 0-1.823-1.227-1.823-2.237s.816-1.828 1.823-1.828c1.007 0 2.465.818 2.465 1.828 0 1.01-1.458 2.237-2.465 2.237zm0 8.419c-1.007 0-1.823-1.236-1.823-2.246s.816-1.82 1.823-1.82c1.007 0 2.465.81 2.465 1.82s-1.458 2.246-2.465 2.246zm0 8.41c-1.007 0-1.823-1.236-1.823-2.237 0-1.01.816-1.828 1.823-1.828 1.007 0 2.465.818 2.465 1.828 0 1.001-1.458 2.237-2.465 2.237zm0 8.41c-1.007 0-1.823-1.227-1.823-2.237s.816-1.828 1.823-1.828c1.007 0 2.465.818 2.465 1.828 0 1.01-1.458 2.237-2.465 2.237zm0 8.419c-1.007 0-1.823-1.236-1.823-2.246 0-1.001.816-1.819 1.823-1.819 1.007 0 2.465.818 2.465 1.819 0 1.01-1.458 2.246-2.465 2.246zm0 8.41c-1.007 0-1.823-1.227-1.823-2.237s.816-1.828 1.823-1.828c1.007 0 2.465.818 2.465 1.828 0 1.01-1.458 2.237-2.465 2.237zm0 8.419c-1.007 0-1.823-1.236-1.823-2.246s.816-1.819 1.823-1.819c1.007 0 2.465.809 2.465 1.819 0 1.01-1.458 2.246-2.465 2.246zm0 16.821c-1.007 0-1.823-1.228-1.823-2.238s.816-1.828 1.823-1.828c1.007 0 2.465.818 2.465 1.828 0 1.01-1.458 2.238-2.465 2.238zm0 8.418c-1.007 0-1.823-1.236-1.823-2.246 0-1.001.816-1.819 1.823-1.819 1.007 0 2.465.818 2.465 1.819 0 1.01-1.458 2.246-2.465 2.246zm0 8.411c-1.007 0-1.823-1.228-1.823-2.238s.816-1.828 1.823-1.828c1.007 0 2.465.818 2.465 1.828 0 1.01-1.458 2.238-2.465 2.238zm0 8.418c-1.007 0-1.823-1.236-1.823-2.246s.816-1.828 1.823-1.828c1.007 0 2.465.818 2.465 1.828 0 1.01-1.458 2.246-2.465 2.246zm0 8.411c-1.007 0-1.823-1.237-1.823-2.238 0-1.01.816-1.828 1.823-1.828 1.007 0 2.465.818 2.465 1.828 0 1.001-1.458 2.238-2.465 2.238zm0 8.41c-1.007 0-1.823-1.228-1.823-2.238s.816-1.828 1.823-1.828c1.007 0 2.465.818 2.465 1.828 0 1.01-1.458 2.238-2.465 2.238zm0 8.419c-1.007 0-1.823-1.237-1.823-2.247 0-1.01.816-1.819 1.823-1.819 1.007 0 2.465.809 2.465 1.819 0 1.01-1.458 2.247-2.465 2.247zm0 8.41c-1.007 0-1.823-1.237-1.823-2.238 0-1.01.816-1.828 1.823-1.828 1.007 0 2.465.818 2.465 1.828 0 1.001-1.458 2.238-2.465 2.238zm0 8.419c-1.007 0-1.823-1.237-1.823-2.247 0-1.01.816-1.828 1.823-1.828 1.007 0 2.465.818 2.465 1.828 0 1.01-1.458 2.247-2.465 2.247zm0 8.41c-1.007 0-1.823-1.237-1.823-2.246 0-1.002.816-1.82 1.823-1.82 1.007 0 2.465.818 2.465 1.82 0 1.009-1.458 2.246-2.465 2.246zm0 8.41c-1.007 0-1.823-1.228-1.823-2.238s.816-1.828 1.823-1.828c1.007 0 2.465.818 2.465 1.828 0 1.01-1.458 2.238-2.465 2.238zm-7.718-218.751c-1.007 0-1.824-1.228-1.824-2.237 0-1.01.817-1.829 1.824-1.829 1.007 0 2.465.819 2.465 1.829 0 1.009-1.458 2.237-2.465 2.237zm0 8.419c-1.007 0-1.824-1.236-1.824-2.246s.817-1.82 1.824-1.82c1.007 0 2.465.81 2.465 1.82s-1.458 2.246-2.465 2.246zm0 8.41c-1.007 0-1.824-1.236-1.824-2.237 0-1.01.817-1.829 1.824-1.829 1.007 0 2.465.819 2.465 1.829 0 1.001-1.458 2.237-2.465 2.237zm0 8.41c-1.007 0-1.824-1.227-1.824-2.237s.817-1.829 1.824-1.829c1.007 0 2.465.819 2.465 1.829s-1.458 2.237-2.465 2.237zm0 8.419c-1.007 0-1.824-1.236-1.824-2.246 0-1.001.817-1.82 1.824-1.82 1.007 0 2.465.819 2.465 1.82 0 1.01-1.458 2.246-2.465 2.246zm0 8.41c-1.007 0-1.824-1.227-1.824-2.237s.817-1.829 1.824-1.829c1.007 0 2.465.819 2.465 1.829s-1.458 2.237-2.465 2.237zm0 8.419c-1.007 0-1.824-1.236-1.824-2.246s.817-1.82 1.824-1.82c1.007 0 2.465.81 2.465 1.82s-1.458 2.246-2.465 2.246zm0 8.41c-1.007 0-1.824-1.236-1.824-2.246 0-1.001.817-1.82 1.824-1.82 1.007 0 2.465.819 2.465 1.82 0 1.01-1.458 2.246-2.465 2.246zm0 8.41c-1.007 0-1.824-1.227-1.824-2.237s.817-1.828 1.824-1.828c1.007 0 2.465.818 2.465 1.828 0 1.01-1.458 2.237-2.465 2.237zm0 16.829c-1.007 0-1.824-1.236-1.824-2.237 0-1.01.817-1.828 1.824-1.828 1.007 0 2.465.818 2.465 1.828 0 1.001-1.458 2.237-2.465 2.237zm0 8.411c-1.007 0-1.824-1.228-1.824-2.238s.817-1.828 1.824-1.828c1.007 0 2.465.818 2.465 1.828 0 1.01-1.458 2.238-2.465 2.238zm0 8.418c-1.007 0-1.824-1.236-1.824-2.246 0-1.001.817-1.82 1.824-1.82 1.007 0 2.465.819 2.465 1.82 0 1.01-1.458 2.246-2.465 2.246zm46.868 67.308c-1.007 0-1.823-1.237-1.823-2.238 0-1.01.816-1.828 1.823-1.828 1.007 0 2.465.818 2.465 1.828 0 1.001-1.458 2.238-2.465 2.238zm-7.717-8.411c-1.007 0-1.823-1.236-1.823-2.246s.816-1.828 1.823-1.828c1.007 0 2.464.818 2.464 1.828 0 1.01-1.457 2.246-2.464 2.246zm-7.719-117.794c-1.007 0-1.824-1.227-1.824-2.237s.817-1.829 1.824-1.829c1.007 0 2.464.819 2.464 1.829s-1.457 2.237-2.464 2.237zm.001 109.376c-1.007 0-1.824-1.228-1.824-2.238s.817-1.828 1.824-1.828c1.007 0 2.464.818 2.464 1.828 0 1.01-1.457 2.238-2.464 2.238zm-7.718-8.411c-1.007 0-1.824-1.236-1.824-2.246 0-1.001.817-1.819 1.824-1.819 1.006 0 2.464.818 2.464 1.819 0 1.01-1.458 2.246-2.464 2.246zm-7.719-8.418c-1.007 0-1.823-1.228-1.823-2.238s.816-1.828 1.823-1.828c1.007 0 2.465.818 2.465 1.828 0 1.01-1.458 2.238-2.465 2.238zm-7.718-75.718c-1.007 0-1.823-1.236-1.823-2.246 0-1.001.816-1.82 1.823-1.82 1.007 0 2.464.819 2.464 1.82 0 1.01-1.457 2.246-2.464 2.246zm0 67.307c-1.007 0-1.823-1.236-1.823-2.237 0-1.01.816-1.828 1.823-1.828 1.007 0 2.464.818 2.464 1.828 0 1.001-1.457 2.237-2.464 2.237zm-7.718-50.478c-1.007 0-1.824-1.236-1.824-2.246s.817-1.82 1.824-1.82c1.007 0 2.464.81 2.464 1.82s-1.457 2.246-2.464 2.246zm0 42.068c-1.007 0-1.824-1.236-1.824-2.246s.817-1.819 1.824-1.819c1.007 0 2.464.809 2.464 1.819 0 1.01-1.457 2.246-2.464 2.246zm-7.718-25.248c-1.007 0-1.824-1.227-1.824-2.237s.817-1.828 1.824-1.828c1.007 0 2.464.818 2.464 1.828 0 1.01-1.457 2.237-2.464 2.237zm0 8.419c-1.007 0-1.824-1.236-1.824-2.246 0-1.001.817-1.819 1.824-1.819 1.007 0 2.464.818 2.464 1.819 0 1.01-1.457 2.246-2.464 2.246zm7.158 8.41c-1.007 0-1.824-1.227-1.824-2.237s.817-1.828 1.824-1.828c1.007 0 2.465.818 2.465 1.828 0 1.01-1.458 2.237-2.465 2.237zm0 16.829c-1.007 0-1.824-1.236-1.824-2.237 0-1.01.817-1.828 1.824-1.828 1.007 0 2.465.818 2.465 1.828 0 1.001-1.458 2.237-2.465 2.237zm0 8.411c-1.007 0-1.824-1.228-1.824-2.238s.817-1.828 1.824-1.828c1.007 0 2.465.818 2.465 1.828 0 1.01-1.458 2.238-2.465 2.238zm0 8.418c-1.007 0-1.824-1.236-1.824-2.246 0-1.001.817-1.819 1.824-1.819 1.007 0 2.465.818 2.465 1.819 0 1.01-1.458 2.246-2.465 2.246zm0 8.411c-1.007 0-1.824-1.228-1.824-2.238s.817-1.828 1.824-1.828c1.007 0 2.465.818 2.465 1.828 0 1.01-1.458 2.238-2.465 2.238zm0 8.418c-1.007 0-1.824-1.236-1.824-2.246s.817-1.828 1.824-1.828c1.007 0 2.465.818 2.465 1.828 0 1.01-1.458 2.246-2.465 2.246zm0 8.411c-1.007 0-1.824-1.237-1.824-2.238 0-1.01.817-1.828 1.824-1.828 1.007 0 2.465.818 2.465 1.828 0 1.001-1.458 2.238-2.465 2.238zm0 8.41c-1.007 0-1.824-1.228-1.824-2.238s.817-1.828 1.824-1.828c1.007 0 2.465.818 2.465 1.828 0 1.01-1.458 2.238-2.465 2.238zm0 8.419c-1.007 0-1.824-1.237-1.824-2.247 0-1.01.817-1.819 1.824-1.819 1.007 0 2.465.809 2.465 1.819 0 1.01-1.458 2.247-2.465 2.247zm0 8.41c-1.007 0-1.824-1.237-1.824-2.238 0-1.01.817-1.828 1.824-1.828 1.007 0 2.465.818 2.465 1.828 0 1.001-1.458 2.238-2.465 2.238zm0 8.419c-1.007 0-1.824-1.237-1.824-2.247 0-1.01.817-1.828 1.824-1.828 1.007 0 2.465.818 2.465 1.828 0 1.01-1.458 2.247-2.465 2.247zm0 8.41c-1.007 0-1.824-1.237-1.824-2.246 0-1.002.817-1.82 1.824-1.82 1.007 0 2.465.818 2.465 1.82 0 1.009-1.458 2.246-2.465 2.246zm0 16.829c-1.007 0-1.824-1.237-1.824-2.247 0-1.009.817-1.819 1.824-1.819 1.007 0 2.465.81 2.465 1.819 0 1.01-1.458 2.247-2.465 2.247zm-7.719-227.17c-1.007 0-1.823-1.228-1.823-2.237 0-1.01.816-1.829 1.823-1.829 1.007 0 2.465.819 2.465 1.829 0 1.009-1.458 2.237-2.465 2.237zm0 8.419c-1.007 0-1.823-1.236-1.823-2.246s.816-1.82 1.823-1.82c1.007 0 2.465.81 2.465 1.82s-1.458 2.246-2.465 2.246zm0 8.41c-1.007 0-1.823-1.236-1.823-2.237 0-1.01.816-1.829 1.823-1.829 1.007 0 2.465.819 2.465 1.829 0 1.001-1.458 2.237-2.465 2.237zm0 8.41c-1.007 0-1.823-1.227-1.823-2.237s.816-1.829 1.823-1.829c1.007 0 2.465.819 2.465 1.829s-1.458 2.237-2.465 2.237zm0 8.419c-1.007 0-1.823-1.236-1.823-2.246 0-1.001.816-1.82 1.823-1.82 1.007 0 2.465.819 2.465 1.82 0 1.01-1.458 2.246-2.465 2.246zm0 8.41c-1.007 0-1.823-1.227-1.823-2.237s.816-1.829 1.823-1.829c1.007 0 2.465.819 2.465 1.829s-1.458 2.237-2.465 2.237zm0 8.419c-1.007 0-1.823-1.236-1.823-2.246s.816-1.82 1.823-1.82c1.007 0 2.465.81 2.465 1.82s-1.458 2.246-2.465 2.246zm.001 8.41c-1.007 0-1.824-1.236-1.824-2.246 0-1.001.817-1.82 1.824-1.82 1.007 0 2.465.819 2.465 1.82 0 1.01-1.458 2.246-2.465 2.246zm0 8.41c-1.007 0-1.824-1.227-1.824-2.237s.817-1.828 1.824-1.828c1.007 0 2.465.818 2.465 1.828 0 1.01-1.458 2.237-2.465 2.237zm0 8.419c-1.007 0-1.824-1.236-1.824-2.246s.817-1.82 1.824-1.82c1.007 0 2.465.81 2.465 1.82s-1.458 2.246-2.465 2.246zm0 8.41c-1.007 0-1.824-1.236-1.824-2.237 0-1.01.817-1.828 1.824-1.828 1.007 0 2.465.818 2.465 1.828 0 1.001-1.458 2.237-2.465 2.237zm0 25.239c-1.007 0-1.824-1.227-1.824-2.237s.817-1.828 1.824-1.828c1.007 0 2.465.818 2.465 1.828 0 1.01-1.458 2.237-2.465 2.237zm0 8.419c-1.007 0-1.824-1.236-1.824-2.246s.817-1.819 1.824-1.819c1.007 0 2.465.809 2.465 1.819 0 1.01-1.458 2.246-2.465 2.246zm0 8.41c-1.007 0-1.824-1.236-1.824-2.237 0-1.01.817-1.828 1.824-1.828 1.007 0 2.465.818 2.465 1.828 0 1.001-1.458 2.237-2.465 2.237zm0 8.411c-1.007 0-1.824-1.228-1.824-2.238s.817-1.828 1.824-1.828c1.007 0 2.465.818 2.465 1.828 0 1.01-1.458 2.238-2.465 2.238zm0 8.418c-1.007 0-1.824-1.236-1.824-2.246 0-1.001.817-1.819 1.824-1.819 1.007 0 2.465.818 2.465 1.819 0 1.01-1.458 2.246-2.465 2.246zm-.001 8.411c-1.007 0-1.823-1.228-1.823-2.238s.816-1.828 1.823-1.828c1.007 0 2.465.818 2.465 1.828 0 1.01-1.458 2.238-2.465 2.238zm0 8.418c-1.007 0-1.823-1.236-1.823-2.246s.816-1.828 1.823-1.828c1.007 0 2.465.818 2.465 1.828 0 1.01-1.458 2.246-2.465 2.246zm0 8.411c-1.007 0-1.823-1.237-1.823-2.238 0-1.01.816-1.828 1.823-1.828 1.007 0 2.465.818 2.465 1.828 0 1.001-1.458 2.238-2.465 2.238zm0 8.41c-1.007 0-1.823-1.228-1.823-2.238s.816-1.828 1.823-1.828c1.007 0 2.465.818 2.465 1.828 0 1.01-1.458 2.238-2.465 2.238zm0 8.419c-1.007 0-1.823-1.237-1.823-2.247 0-1.01.816-1.819 1.823-1.819 1.007 0 2.465.809 2.465 1.819 0 1.01-1.458 2.247-2.465 2.247zm0 8.41c-1.007 0-1.823-1.237-1.823-2.238 0-1.01.816-1.828 1.823-1.828 1.007 0 2.465.818 2.465 1.828 0 1.001-1.458 2.238-2.465 2.238zm0 8.419c-1.007 0-1.823-1.237-1.823-2.247 0-1.01.816-1.828 1.823-1.828 1.007 0 2.465.818 2.465 1.828 0 1.01-1.458 2.247-2.465 2.247zm.001 16.82c-1.007 0-1.824-1.228-1.824-2.238s.817-1.828 1.824-1.828c1.007 0 2.465.818 2.465 1.828 0 1.01-1.458 2.238-2.465 2.238zm-.001 8.419c-1.007 0-1.823-1.237-1.823-2.247 0-1.009.816-1.819 1.823-1.819 1.007 0 2.465.81 2.465 1.819 0 1.01-1.458 2.247-2.465 2.247zm-7.718-227.17c-1.007 0-1.822-1.228-1.822-2.237 0-1.01.815-1.829 1.822-1.829 1.007 0 2.466.819 2.466 1.829 0 1.009-1.459 2.237-2.466 2.237zm0 8.419c-1.007 0-1.822-1.236-1.822-2.246s.815-1.82 1.822-1.82c1.007 0 2.466.81 2.466 1.82s-1.459 2.246-2.466 2.246zm0 8.41c-1.007 0-1.822-1.236-1.822-2.237 0-1.01.815-1.829 1.822-1.829 1.007 0 2.466.819 2.466 1.829 0 1.001-1.459 2.237-2.466 2.237zm0 8.41c-1.007 0-1.822-1.227-1.822-2.237s.815-1.829 1.822-1.829c1.007 0 2.466.819 2.466 1.829s-1.459 2.237-2.466 2.237zm0 8.419c-1.007 0-1.822-1.236-1.822-2.246 0-1.001.815-1.82 1.822-1.82 1.007 0 2.466.819 2.466 1.82 0 1.01-1.459 2.246-2.466 2.246zm0 8.41c-1.007 0-1.822-1.227-1.822-2.237s.815-1.829 1.822-1.829c1.007 0 2.466.819 2.466 1.829s-1.459 2.237-2.466 2.237zm0 8.419c-1.007 0-1.822-1.236-1.822-2.246s.815-1.82 1.822-1.82c1.007 0 2.466.81 2.466 1.82s-1.459 2.246-2.466 2.246zm0 8.41c-1.007 0-1.822-1.236-1.822-2.246 0-1.001.815-1.82 1.822-1.82 1.007 0 2.466.819 2.466 1.82 0 1.01-1.459 2.246-2.466 2.246zm0 8.41c-1.007 0-1.822-1.227-1.822-2.237s.815-1.828 1.822-1.828c1.007 0 2.466.818 2.466 1.828 0 1.01-1.459 2.237-2.466 2.237zm0 8.419c-1.007 0-1.822-1.236-1.822-2.246s.815-1.82 1.822-1.82c1.007 0 2.466.81 2.466 1.82s-1.459 2.246-2.466 2.246zm0 8.41c-1.007 0-1.822-1.236-1.822-2.237 0-1.01.815-1.828 1.822-1.828 1.007 0 2.466.818 2.466 1.828 0 1.001-1.459 2.237-2.466 2.237zm0 8.411c-1.007 0-1.822-1.228-1.822-2.238s.815-1.828 1.822-1.828c1.007 0 2.466.818 2.466 1.828 0 1.01-1.459 2.238-2.466 2.238zm0 8.418c-1.007 0-1.822-1.236-1.822-2.246 0-1.001.815-1.819 1.822-1.819 1.007 0 2.466.818 2.466 1.819 0 1.01-1.459 2.246-2.466 2.246zm0 16.829c-1.007 0-1.822-1.236-1.822-2.246s.815-1.819 1.822-1.819c1.007 0 2.466.809 2.466 1.819 0 1.01-1.459 2.246-2.466 2.246zm0 8.41c-1.007 0-1.822-1.236-1.822-2.237 0-1.01.815-1.828 1.822-1.828 1.007 0 2.466.818 2.466 1.828 0 1.001-1.459 2.237-2.466 2.237zm0 8.411c-1.007 0-1.822-1.228-1.822-2.238s.815-1.828 1.822-1.828c1.007 0 2.466.818 2.466 1.828 0 1.01-1.459 2.238-2.466 2.238zm.001 8.418c-1.007 0-1.823-1.236-1.823-2.246 0-1.001.816-1.819 1.823-1.819 1.007 0 2.466.818 2.466 1.819 0 1.01-1.459 2.246-2.466 2.246zm-.001 8.411c-1.007 0-1.822-1.228-1.822-2.238s.815-1.828 1.822-1.828c1.007 0 2.466.818 2.466 1.828 0 1.01-1.459 2.238-2.466 2.238zm0 8.418c-1.007 0-1.822-1.236-1.822-2.246s.815-1.828 1.822-1.828c1.007 0 2.466.818 2.466 1.828 0 1.01-1.459 2.246-2.466 2.246zm0 8.411c-1.007 0-1.822-1.237-1.822-2.238 0-1.01.815-1.828 1.822-1.828 1.007 0 2.466.818 2.466 1.828 0 1.001-1.459 2.238-2.466 2.238zm0 8.41c-1.007 0-1.822-1.228-1.822-2.238s.815-1.828 1.822-1.828c1.007 0 2.466.818 2.466 1.828 0 1.01-1.459 2.238-2.466 2.238zm0 8.419c-1.007 0-1.822-1.237-1.822-2.247 0-1.01.815-1.819 1.822-1.819 1.007 0 2.466.809 2.466 1.819 0 1.01-1.459 2.247-2.466 2.247zm0 8.41c-1.007 0-1.822-1.237-1.822-2.238 0-1.01.815-1.828 1.822-1.828 1.007 0 2.466.818 2.466 1.828 0 1.001-1.459 2.238-2.466 2.238zm0 16.829c-1.007 0-1.822-1.237-1.822-2.246 0-1.002.815-1.82 1.822-1.82 1.007 0 2.466.818 2.466 1.82 0 1.009-1.459 2.246-2.466 2.246zm.001 8.41c-1.007 0-1.823-1.228-1.823-2.238s.816-1.828 1.823-1.828c1.007 0 2.466.818 2.466 1.828 0 1.01-1.459 2.238-2.466 2.238zm-.001 8.419c-1.007 0-1.822-1.237-1.822-2.247 0-1.009.815-1.819 1.822-1.819 1.007 0 2.466.81 2.466 1.819 0 1.01-1.459 2.247-2.466 2.247zm-7.718-227.17c-1.007 0-1.822-1.228-1.822-2.237 0-1.01.815-1.829 1.822-1.829 1.007 0 2.465.819 2.465 1.829 0 1.009-1.458 2.237-2.465 2.237zm0 8.419c-1.007 0-1.822-1.236-1.822-2.246s.815-1.82 1.822-1.82c1.007 0 2.465.81 2.465 1.82s-1.458 2.246-2.465 2.246zm0 8.41c-1.007 0-1.822-1.236-1.822-2.237 0-1.01.815-1.829 1.822-1.829 1.007 0 2.465.819 2.465 1.829 0 1.001-1.458 2.237-2.465 2.237zm0 8.41c-1.007 0-1.822-1.227-1.822-2.237s.815-1.829 1.822-1.829c1.007 0 2.465.819 2.465 1.829s-1.458 2.237-2.465 2.237zm0 8.419c-1.007 0-1.822-1.236-1.822-2.246 0-1.001.815-1.82 1.822-1.82 1.007 0 2.465.819 2.465 1.82 0 1.01-1.458 2.246-2.465 2.246zm0 8.41c-1.007 0-1.822-1.227-1.822-2.237s.815-1.829 1.822-1.829c1.007 0 2.465.819 2.465 1.829s-1.458 2.237-2.465 2.237zm0 8.419c-1.007 0-1.822-1.236-1.822-2.246s.815-1.82 1.822-1.82c1.007 0 2.465.81 2.465 1.82s-1.458 2.246-2.465 2.246zm0 8.41c-1.007 0-1.822-1.236-1.822-2.246 0-1.001.815-1.82 1.822-1.82 1.007 0 2.465.819 2.465 1.82 0 1.01-1.458 2.246-2.465 2.246zm0 8.41c-1.007 0-1.822-1.227-1.822-2.237s.815-1.828 1.822-1.828c1.007 0 2.465.818 2.465 1.828 0 1.01-1.458 2.237-2.465 2.237zm0 8.419c-1.007 0-1.822-1.236-1.822-2.246s.815-1.82 1.822-1.82c1.007 0 2.465.81 2.465 1.82s-1.458 2.246-2.465 2.246zm0 8.41c-1.007 0-1.822-1.236-1.822-2.237 0-1.01.815-1.828 1.822-1.828 1.007 0 2.465.818 2.465 1.828 0 1.001-1.458 2.237-2.465 2.237zm0 8.411c-1.007 0-1.822-1.228-1.822-2.238s.815-1.828 1.822-1.828c1.007 0 2.465.818 2.465 1.828 0 1.01-1.458 2.238-2.465 2.238zm0 8.418c-1.007 0-1.822-1.236-1.822-2.246 0-1.001.815-1.819 1.822-1.819 1.007 0 2.465.818 2.465 1.819 0 1.01-1.458 2.246-2.465 2.246zm0 8.41c-1.007 0-1.822-1.227-1.822-2.237s.815-1.828 1.822-1.828c1.007 0 2.465.818 2.465 1.828 0 1.01-1.458 2.237-2.465 2.237zm0 8.419c-1.007 0-1.822-1.236-1.822-2.246s.815-1.819 1.822-1.819c1.007 0 2.465.809 2.465 1.819 0 1.01-1.458 2.246-2.465 2.246zm0 8.41c-1.007 0-1.822-1.236-1.822-2.237 0-1.01.815-1.828 1.822-1.828 1.007 0 2.465.818 2.465 1.828 0 1.001-1.458 2.237-2.465 2.237zm0 8.411c-1.007 0-1.822-1.228-1.822-2.238s.815-1.828 1.822-1.828c1.007 0 2.465.818 2.465 1.828 0 1.01-1.458 2.238-2.465 2.238zm0 8.418c-1.007 0-1.822-1.236-1.822-2.246 0-1.001.815-1.819 1.822-1.819 1.007 0 2.465.818 2.465 1.819 0 1.01-1.458 2.246-2.465 2.246zm-.001 8.411c-1.007 0-1.822-1.228-1.822-2.238s.815-1.828 1.822-1.828c1.007 0 2.465.818 2.465 1.828 0 1.01-1.458 2.238-2.465 2.238zm0 8.418c-1.007 0-1.822-1.236-1.822-2.246s.815-1.828 1.822-1.828c1.007 0 2.466.818 2.466 1.828 0 1.01-1.459 2.246-2.466 2.246zm0 8.411c-1.007 0-1.822-1.237-1.822-2.238 0-1.01.815-1.828 1.822-1.828 1.007 0 2.466.818 2.466 1.828 0 1.001-1.459 2.238-2.466 2.238zm0 8.41c-1.007 0-1.822-1.228-1.822-2.238s.815-1.828 1.822-1.828c1.007 0 2.466.818 2.466 1.828 0 1.01-1.459 2.238-2.466 2.238zm0 16.829c-1.007 0-1.822-1.237-1.822-2.238 0-1.01.815-1.828 1.822-1.828 1.007 0 2.466.818 2.466 1.828 0 1.001-1.459 2.238-2.466 2.238zm0 8.419c-1.007 0-1.822-1.237-1.822-2.247 0-1.01.815-1.828 1.822-1.828 1.007 0 2.466.818 2.466 1.828 0 1.01-1.459 2.247-2.466 2.247zm0 8.41c-1.007 0-1.822-1.237-1.822-2.246 0-1.002.815-1.82 1.822-1.82 1.007 0 2.466.818 2.466 1.82 0 1.009-1.459 2.246-2.466 2.246zm.001 8.41c-1.007 0-1.822-1.228-1.822-2.238s.815-1.828 1.822-1.828c1.007 0 2.465.818 2.465 1.828 0 1.01-1.458 2.238-2.465 2.238zm-.001 8.419c-1.007 0-1.822-1.237-1.822-2.247 0-1.009.815-1.819 1.822-1.819 1.007 0 2.466.81 2.466 1.819 0 1.01-1.459 2.247-2.466 2.247zm-7.717-227.17c-1.007 0-1.823-1.228-1.823-2.237 0-1.01.816-1.829 1.823-1.829 1.007 0 2.465.819 2.465 1.829 0 1.009-1.458 2.237-2.465 2.237zm0 8.419c-1.007 0-1.823-1.236-1.823-2.246s.816-1.82 1.823-1.82c1.007 0 2.465.81 2.465 1.82s-1.458 2.246-2.465 2.246zm0 8.41c-1.007 0-1.823-1.236-1.823-2.237 0-1.01.816-1.829 1.823-1.829 1.007 0 2.465.819 2.465 1.829 0 1.001-1.458 2.237-2.465 2.237zm0 8.41c-1.007 0-1.823-1.227-1.823-2.237s.816-1.829 1.823-1.829c1.007 0 2.465.819 2.465 1.829s-1.458 2.237-2.465 2.237zm0 8.419c-1.007 0-1.823-1.236-1.823-2.246 0-1.001.816-1.82 1.823-1.82 1.007 0 2.465.819 2.465 1.82 0 1.01-1.458 2.246-2.465 2.246zm0 8.41c-1.007 0-1.823-1.227-1.823-2.237s.816-1.829 1.823-1.829c1.007 0 2.465.819 2.465 1.829s-1.458 2.237-2.465 2.237zm0 8.419c-1.007 0-1.823-1.236-1.823-2.246s.816-1.82 1.823-1.82c1.007 0 2.465.81 2.465 1.82s-1.458 2.246-2.465 2.246zm0 8.41c-1.007 0-1.823-1.236-1.823-2.246 0-1.001.816-1.82 1.823-1.82 1.007 0 2.465.819 2.465 1.82 0 1.01-1.458 2.246-2.465 2.246zm0 8.41c-1.007 0-1.823-1.227-1.823-2.237s.816-1.828 1.823-1.828c1.007 0 2.465.818 2.465 1.828 0 1.01-1.458 2.237-2.465 2.237zm0 8.419c-1.007 0-1.823-1.236-1.823-2.246s.816-1.82 1.823-1.82c1.007 0 2.465.81 2.465 1.82s-1.458 2.246-2.465 2.246zm0 8.41c-1.007 0-1.823-1.236-1.823-2.237 0-1.01.816-1.828 1.823-1.828 1.007 0 2.465.818 2.465 1.828 0 1.001-1.458 2.237-2.465 2.237zm0 8.411c-1.007 0-1.823-1.228-1.823-2.238s.816-1.828 1.823-1.828c1.007 0 2.465.818 2.465 1.828 0 1.01-1.458 2.238-2.465 2.238zm0 8.418c-1.007 0-1.823-1.236-1.823-2.246 0-1.001.816-1.819 1.823-1.819 1.007 0 2.465.818 2.465 1.819 0 1.01-1.458 2.246-2.465 2.246zm0 16.829c-1.007 0-1.823-1.236-1.823-2.246s.816-1.819 1.823-1.819c1.007 0 2.465.809 2.465 1.819 0 1.01-1.458 2.246-2.465 2.246zm0 8.41c-1.007 0-1.823-1.236-1.823-2.237 0-1.01.816-1.828 1.823-1.828 1.007 0 2.465.818 2.465 1.828 0 1.001-1.458 2.237-2.465 2.237zm0 8.411c-1.007 0-1.823-1.228-1.823-2.238s.816-1.828 1.823-1.828c1.007 0 2.465.818 2.465 1.828 0 1.01-1.458 2.238-2.465 2.238zm0 8.419c-1.007 0-1.823-1.237-1.823-2.247 0-1.001.816-1.819 1.823-1.819 1.007 0 2.465.818 2.465 1.819 0 1.01-1.458 2.247-2.465 2.247zm-.001 25.239c-1.007 0-1.822-1.237-1.822-2.238 0-1.01.815-1.828 1.822-1.828 1.007 0 2.465.818 2.465 1.828 0 1.001-1.458 2.238-2.465 2.238zm0 8.41c-1.007 0-1.822-1.228-1.822-2.238s.815-1.828 1.822-1.828c1.007 0 2.465.818 2.465 1.828 0 1.01-1.458 2.238-2.465 2.238zm0 8.419c-1.007 0-1.822-1.237-1.822-2.247 0-1.01.815-1.819 1.822-1.819 1.007 0 2.465.809 2.465 1.819 0 1.01-1.458 2.247-2.465 2.247zm0 8.41c-1.007 0-1.822-1.237-1.822-2.238 0-1.01.815-1.828 1.822-1.828 1.007 0 2.465.818 2.465 1.828 0 1.001-1.458 2.238-2.465 2.238zm0 8.419c-1.007 0-1.822-1.237-1.822-2.247 0-1.01.815-1.828 1.822-1.828 1.007 0 2.465.818 2.465 1.828 0 1.01-1.458 2.247-2.465 2.247zm0 8.41c-1.007 0-1.822-1.237-1.822-2.246 0-1.002.815-1.82 1.822-1.82 1.007 0 2.465.818 2.465 1.82 0 1.009-1.458 2.246-2.465 2.246zm.001 8.41c-1.007 0-1.823-1.228-1.823-2.238s.816-1.828 1.823-1.828c1.007 0 2.465.818 2.465 1.828 0 1.01-1.458 2.238-2.465 2.238zm-.001 8.419c-1.007 0-1.822-1.237-1.822-2.247 0-1.009.815-1.819 1.822-1.819 1.007 0 2.465.81 2.465 1.819 0 1.01-1.458 2.247-2.465 2.247z"/></g></svg>