<svg width="501" height="504" viewBox="0 0 501 504" fill="none" xmlns="http://www.w3.org/2000/svg"><ellipse opacity=".2" cx="286.073" cy="473.807" rx="200.076" ry="29.682" fill="#6B6B6B"/><path d="M85.536 251.194c45.732 20.932 67.169 47.425 88.935 72.973 21.767 25.549 58.176-48.128 57.495-49.953-.682-1.825-80.207-92.694-80.207-92.694l-66.223 69.674zm109.723 212.871c2.691-11.355-10.147-24.12-28.675-28.51-18.528-4.391-35.729 1.255-38.42 12.611-2.691 11.355 10.148 24.119 28.675 28.51 18.528 4.391 35.729-1.255 38.42-12.611z" fill="#2F2F2F"/><path d="M249.202 480.074c-73.434 0-119.034-40.06-119.034-104.524 0-40.191 18.798-57.824 35.376-73.391 4.969-4.661 9.674-9.08 13.522-13.807-.55-38.081-24.361-43.775-38.52-43.775-13.896 0-30.122 5.694-39.466 13.873-8.047 7.036-8.795 19.744-9.52 32.035-1.034 17.567-2.111 35.728-25.263 35.728-23.855 0-58.484-31.749-58.484-81.504 0-78.953 28.627-143.857 82.78-187.72C134.41 21.48 193.774 1.12 253.467 1.12c27.527 0 98.125 4.947 158.94 50.877C469.946 95.42 499.1 160.259 499.1 244.709c0 79.811-24.647 140.779-73.237 181.256-42.544 35.398-103.622 54.109-176.661 54.109z" fill="#fff"/><path d="M90.204 56.498l-.314-.389.314.389C134.127 20.912 193.62.5 253.446.5c27.596 0 98.348 4.965 159.342 50.973 26.63 20.115 47.51 45.404 62.052 75.147l.449-.22-.449.22c16.517 33.757 24.882 73.474 24.882 118.045 0 80.034-24.741 141.129-73.452 181.707-42.605 35.5-103.822 54.279-177.045 54.279-34.281 0-63.535-9.036-84.641-26.075-22.886-18.471-34.993-45.802-34.993-79.048 0-20.241 4.722-34.768 11.511-46.185 6.797-11.43 15.678-19.768 24.059-27.633h.001l.209-.197c4.734-4.452 9.253-8.703 13.003-13.238l.118-.143-.003-.185c-.354-18.491-6.322-29.219-14.019-35.308-7.678-6.074-16.987-7.463-23.902-7.463-16.064 0-31.505 7.082-39.069 13.711-3.96 3.463-6.105 8.379-7.354 13.895-1.247 5.514-1.611 11.691-1.962 17.717-.508 8.648-1.053 17.727-4.441 24.655-1.686 3.446-4.07 6.345-7.498 8.386-3.431 2.043-7.945 3.25-13.924 3.25-12.944 0-27.546-8.371-39.011-22.505-12.96-15.953-20.094-37.121-20.094-59.598 0-79.155 28.707-144.215 82.99-188.19zM498.48 244.687c0-94.275-37.198-155.047-86.459-192.236-49.24-37.172-110.487-50.752-158.575-50.752-53.302 0-114.552 16.897-162.489 55.726C43.004 96.267 8.402 157.033 8.391 244.687c0 24.554 8.396 44.766 19.818 58.846 11.407 14.062 25.883 22.058 38.067 22.058 9.585 0 15.356-3.165 18.859-8.278 3.47-5.064 4.657-11.962 5.288-19.296.216-2.504.367-5.056.518-7.614.294-4.99.59-10.001 1.37-14.715 1.176-7.111 3.435-13.396 8.351-17.697 8.656-7.568 24.565-14.013 39.862-14.013 10.005 0 19.688 2.751 26.912 9.68 7.194 6.901 12.021 18.014 12.228 34.893-3.889 4.799-8.645 9.261-13.648 13.955-16.323 15.313-35.27 33.088-35.27 73.044 0 34.823 13.147 60.826 34.559 78.114 21.398 17.276 51.003 25.81 83.876 25.81 68.811 0 131.14-16.412 176.275-53.996 45.149-37.597 73.023-96.322 73.023-180.791z" fill="#0064DA" stroke="#6B6B6B"/><path d="M362.08 380.607c6.222-109.03-79.173-141.152-148.716-125.806-11.873 2.616-39.598 7.256-51.778 28.209-4.991 8.596 1.957 20.161-.924 23.745" fill="#fff"/><path d="M362.08 380.607c6.222-109.03-79.173-141.152-148.716-125.806-11.873 2.616-39.598 7.256-51.778 28.209-4.991 8.596 1.957 20.161-.924 23.745" stroke="#6B6B6B" stroke-miterlimit="10" stroke-linecap="round" stroke-linejoin="round"/><path d="M179.616 300.203c8.354 0 15.127-3.849 15.127-8.597 0-4.748-6.773-8.597-15.127-8.597-8.354 0-15.127 3.849-15.127 8.597 0 4.748 6.773 8.597 15.127 8.597zm94.936 64.002c-2.309 18.205-20.183 12.356-37.641 21.921-13.631 7.475-22.822 20.315-33.111 20.315-12.73 0-18.227-15.237-10.642-35.332 8.993-23.833 28.385-32.298 44.237-32.298 23.437 0 39.004 10.817 37.157 25.394zm-142.316 26.933c11.191 3.496 21.239-8.003 21.855-28.297.44-14.335-4.222-25.416-10.993-33.441-6.948 11.389-11.851 25.878-11.851 46.15.022 5.43.374 10.597.989 15.588zm126.004 97.203c23.678 0 42.873-11.773 42.873-26.296s-19.195-26.296-42.873-26.296c-23.679 0-42.874 11.773-42.874 26.296s19.195 26.296 42.874 26.296z" fill="#2F2F2F"/><path d="M454.248 95.84C402.91 25.79 316.767 2.176 253.446 2.176 147.01 2.177 8.913 69.653 8.913 244.665c0 48.876 33.42 80.405 57.385 80.405 37.838 0 13.873-49.822 34.057-67.477 16.335-14.291 58.088-24.515 73.742 4.024-6.266-40.609 1.759-64.728 21.635-68.048 19.875-3.32 34.518 19.875 34.518 19.875-1.715 38.785-7.101 69.522 18.931 74.732 26.01 5.211 57.23-23.173 79.459-58.659 22.228-35.487 59.649-78.162 116.835-93.663 23.878-6.42 19.766-23.635 8.773-40.015z" fill="#2F2F2F"/><path d="M104.972 254.12c16.226-10.708 45.995-16.93 62.793-.814" stroke="#fff" stroke-miterlimit="10" stroke-linecap="round" stroke-linejoin="round"/><path d="M69.142 314.754c11.84-6.837 11.6-29.419-.536-50.44-12.137-21.021-31.574-32.52-43.415-25.683-11.84 6.836-11.6 29.419.536 50.439 12.137 21.021 31.575 32.52 43.415 25.684zm218.26-80.998c6.037-25.476.145-48.684-13.16-51.837-13.305-3.153-28.985 14.944-35.022 40.419-6.037 25.476-.145 48.684 13.16 51.837 13.305 3.153 28.985-14.943 35.022-40.419z" fill="#FFAA5B"/><path d="M263.187 166.635c74.38-19.942 65.937 172.176 155.334 172.176 30.275 0 51.558-22.932 51.558-66.224 0-68.575-71.434-155.619-172.637-155.619-39.268 0-58.66 30.033-54.043 44.61 2.375 7.563 10.048 7.673 19.788 5.057z" fill="#2F2F2F"/><path d="M403.988 153.553c-28.604-21.965-65.08-36.585-106.546-36.585-39.268 0-58.66 30.033-54.043 44.61 2.375 7.563 10.07 7.651 19.788 5.035 32.848-8.817 49.535 23.745 65.651 62.837" stroke="#fff" stroke-miterlimit="10" stroke-linecap="round" stroke-linejoin="round"/><path d="M9.265 172.33c-10.311 13.829-12.312 29.747-4.507 35.574 7.827 5.826 17.897-5.827 32.826-14.467 15.478-8.971 12.576-30.1 4.507-35.574-15.984-10.862-22.536.637-32.825 14.467z" fill="#2F2F2F"/><path d="M10.893 209.355c6.86-1.1 15.39-9.366 26.67-15.918 15.478-8.971 12.575-30.1 4.506-35.574-7.98-5.431-13.61-5.255-18.534-2.023" stroke="#fff" stroke-miterlimit="10" stroke-linecap="round" stroke-linejoin="round"/><path d="M203.581 377.814c-2.066 3.166-1.715 7.608-1.715 7.608m-59.363-20.975c-2.066 3.166-1.715 7.607-1.715 7.607" stroke="#fff" stroke-width="2" stroke-miterlimit="10" stroke-linecap="round" stroke-linejoin="round"/></svg>