<svg width="531" height="517" viewBox="0 0 531 517" fill="none" xmlns="http://www.w3.org/2000/svg"><path d="M267.461 42c4.151.23 8.237 1.93 11.41 5.102 6.839 6.84 6.839 17.929 0 24.768A17.46 17.46 0 0 1 266.486 77c-4.482 0-8.965-1.71-12.384-5.13A17.452 17.452 0 0 1 249 60.46L267.461 42zm3.938 23.338h3.468l-3.676-6.128-1.688 2.81 1.896 3.318zm-1.68 0l-5.825-10.194-5.826 10.194h11.651zm-16.987-6.546a15.989 15.989 0 0 0 8.594-4.465 15.913 15.913 0 0 0 3.691-5.733 16.05 16.05 0 0 0 .776-2.863l-13.061 13.061zm-.949 7.155a16.026 16.026 0 0 0 3.351 4.892 16 16 0 0 0 11.352 4.702 15.996 15.996 0 0 0 11.352-4.702 16.004 16.004 0 0 0 4.703-11.352 15.99 15.99 0 0 0-1.176-6.043 15.954 15.954 0 0 0-3.527-5.31 15.98 15.98 0 0 0-9.819-4.629l-.566.567a17.456 17.456 0 0 1-3.109 8.919l4.331 7.577 2.516-4.195 6.255 10.424h-21.892l6.216-10.878a17.441 17.441 0 0 1-10.698 4.533l-.567.567a15.99 15.99 0 0 0 1.278 4.928z" fill="url(#a)" style="mix-blend-mode:multiply"/><path d="M61.125 39l8.548 10.008.78.912L79 59.93 60.688 75.57 52.14 65.562l-.78-.913-8.548-10.008L61.125 39zm-.308 34.95l16.565-14.148-7.803-9.136-16.564 14.148 7.802 9.136zM68.8 49.754l-7.802-9.135-16.565 14.148 7.803 9.135L68.8 49.754z" fill="#fff"/><path d="M58.979 49.034l-.38-2.273 5.433 1.823-1.869 1.596-2.616 2.235-3.362 2.87-1.48-7.786 4.274 1.535zm2.766-.007l-1.7-.574.172 1.028.703.25.825-.704zm-1.83 1.563l-3.709-1.332.736 3.872 2.973-2.54zm-2.553 5.196l6.978-5.96a.576.576 0 0 1 .81.066.576.576 0 0 1-.065.807l-6.977 5.96a.572.572 0 0 1-.806-.064.573.573 0 0 1 .06-.81zm15.544 4.07a.573.573 0 0 1 .743.87.574.574 0 0 1-.81-.06.574.574 0 0 1 .067-.81zm-1.743 1.488a.573.573 0 1 1 .742.873.573.573 0 0 1-.742-.873zm-1.747 1.492a.574.574 0 0 1 .81.061.574.574 0 0 1-.874.746.573.573 0 0 1 .064-.807zm-1.743 1.489a.574.574 0 0 1 .81.061.574.574 0 0 1-.872.745.573.573 0 0 1 .062-.806zm-1.744 1.49a.571.571 0 1 1 .743.87.57.57 0 0 1-.806-.064.57.57 0 0 1 .063-.806zm2.181-3.374l-3.36 2.871-1.48-7.783 4.275 1.534-.382-2.276 5.433 1.823-1.869 1.596-2.616 2.235zm-2.602.718l2.974-2.54-3.71-1.332.736 3.872zm4.804-4.103l-1.7-.573.17 1.025.705.253.825-.705zm-21.885-1.633a.575.575 0 0 1 .617-.526l2.86.227.09-1.144a.575.575 0 0 1 1.144.09l-.135 1.713a.575.575 0 0 1-.617.527l-3.432-.27a.575.575 0 0 1-.527-.617zm13.078 10.315a.571.571 0 0 1-.617.527l-.002.002-1.142-.092-.09 1.144a.575.575 0 0 1-1.144-.09l.093-1.141-1.144-.09a.575.575 0 0 1 .09-1.144l1.144.09.087-1.142.003-.002a.574.574 0 0 1 1.144.09l-.09 1.144 1.141.087a.575.575 0 0 1 .527.617z" fill="#fff"/><path d="M82.871 180.896l-.694-1.74-.232-.58-.231-.58c1.584-.632 2.354-2.448 1.715-4.047-.638-1.599-2.446-2.386-4.03-1.753l-.232-.581-.231-.58-.695-1.74 1.357-9.956 7.247-.202.24 3.939 13.218-5.275 6.482 16.241-13.218 5.276 2.538 3.021-5.396 4.843-7.838-6.286zm11.509 1.314l-1.757-2.09-1.114-1.326 1.595-.637 12.068-4.816-5.556-13.922-12.068 4.817-1.595.636-.105-1.728-.166-2.726-4.999.139-1.17 8.587.64 1.601a4.368 4.368 0 0 1 4.426 2.745 4.367 4.367 0 0 1-1.32 5.038l.638 1.601 6.761 5.422 3.722-3.341z" fill="url(#b)" style="mix-blend-mode:multiply"/><path d="M92.502 169.26l-2.188-.364 3.32-4.399.882 2.21 1.234 3.093 1.588 3.978-7.54-1.09 2.704-3.428zm.8-2.255l-.754.999.835.139.248-.314-.329-.824zm.862 2.16l-2.05 2.599 3.277.474-1.227-3.073z" fill="url(#c)" style="mix-blend-mode:multiply"/><path d="M228 123.05l8.727-9.05-6.614-6.859c-1.318-1.366-1.318-3.582 0-4.949a3.305 3.305 0 0 1 2.387-1.026c.863 0 1.728.342 2.387 1.026l6.613 6.858 8.727-9.05 4.773 4.95-8.727 9.05 7.602 7.884v4.95h-4.773l-7.602-7.884-8.727 9.05-4.773-4.95zm9.523-9.875l1.189-1.234-5.022-5.208-1.19 1.233 5.023 5.209zm-3.432-10.159a2.198 2.198 0 0 0-1.591-.683c-.601 0-1.166.243-1.591.683a2.398 2.398 0 0 0 0 3.3l.796.825 3.182-3.3-.796-.825zm1.591 1.65l-1.197 1.242 5.023 5.208 1.197-1.241-5.023-5.209zm14.545-3.016l-1.568 1.625.796.825c.22.228.22.598 0 .825a.549.549 0 0 1-.796 0v-.001l-.795-.824-1.591 1.65.795.825c.22.228.22.598 0 .825a.548.548 0 0 1-.795 0l-.796-.825-1.591 1.65.795.825h.001a.6.6 0 0 1 0 .825.549.549 0 0 1-.796 0l-.795-.825-1.591 1.65.795.825c.22.228.22.597 0 .825a.548.548 0 0 1-.795 0l-.795-.825-1.591 1.65.795.825c.22.228.22.597 0 .825a.548.548 0 0 1-.795 0h-.001l-.795-.825-1.591 1.65.796.825a.6.6 0 0 1 0 .825.549.549 0 0 1-.796 0l-.795-.825-1.592 1.65.796.825c.22.228.22.597 0 .825a.55.55 0 0 1-.796 0v-.001l-.795-.824-1.591 1.65.795.824v.001c.22.227.22.597 0 .825a.55.55 0 0 1-.795 0l-.796-.825-1.567 1.625 3.182 3.3 20.636-21.4-3.182-3.3zm2.524 24.017v-.967l-.933.967h.933zm-3.183 0h.66l2.523-2.617v-.683l-7.274-7.542-1.196 1.241 5.613 5.821c.22.228.22.598 0 .825a.548.548 0 0 1-.795 0l-5.614-5.821-1.19 1.234 7.273 7.542z" fill="#fff"/><path d="M129 24.05l8.727-9.05-6.614-6.859c-1.318-1.366-1.318-3.582 0-4.95a3.306 3.306 0 0 1 2.387-1.025c.863 0 1.728.342 2.387 1.026l6.613 6.858L151.227 1 156 5.95 147.273 15l7.602 7.884v4.95h-4.773L142.5 19.95 133.773 29 129 24.05zm9.523-9.875l1.189-1.234-5.022-5.208-1.19 1.233 5.023 5.209zm-3.432-10.159a2.196 2.196 0 0 0-3.182 0 2.399 2.399 0 0 0 0 3.3l.796.825 3.182-3.3-.796-.825zm1.591 1.65l-1.197 1.242 5.023 5.208 1.197-1.24-5.023-5.21zm14.545-3.016l-1.568 1.625.796.825c.22.228.22.598 0 .825a.55.55 0 0 1-.796 0l-.795-.825-1.591 1.65.795.825c.22.228.22.598 0 .825a.548.548 0 0 1-.795 0l-.796-.825-1.591 1.65.795.825h.001a.6.6 0 0 1 0 .825.549.549 0 0 1-.796 0l-.795-.825-1.591 1.65.795.825c.22.228.22.597 0 .825a.548.548 0 0 1-.795 0l-.795-.825-1.591 1.65.795.825c.22.228.22.597 0 .825a.548.548 0 0 1-.795 0h-.001l-.795-.825-1.591 1.65.796.825a.6.6 0 0 1 0 .825.55.55 0 0 1-.796 0l-.795-.825-1.592 1.65.796.825c.22.228.22.597 0 .825a.549.549 0 0 1-.796 0l-.795-.825-1.591 1.65.795.824a.6.6 0 0 1 0 .826.548.548 0 0 1-.795 0l-.796-.825-1.567 1.625 3.182 3.3 20.636-21.4-3.182-3.3zm2.524 24.017V25.7l-.933.967h.933zm-3.183 0h.66l2.523-2.617v-.683l-7.274-7.542-1.196 1.241 5.613 5.821c.22.228.22.598 0 .825a.548.548 0 0 1-.795 0l-5.614-5.82-1.19 1.233 7.273 7.542z" fill="url(#d)" style="mix-blend-mode:multiply"/><path d="M134.173 209.588l5.017 4.859a.583.583 0 0 1-.81.837l-5.018-4.859a.583.583 0 0 1 .811-.837z" fill="url(#e)" style="mix-blend-mode:multiply"/><path d="M140 213.611l-1.672-1.62a.582.582 0 1 1 .809-.835l1.672 1.619a.583.583 0 0 1-.809.836z" fill="url(#f)" style="mix-blend-mode:multiply"/><path d="M127.925 201.47l2.011-.537-1.174 5.037-1.593-1.543-2.229-2.159-2.868-2.777 6.869-1.992-1.016 3.971zm.171 2.234l.266-1.146-.767.205-.093.365.594.576zm-1.557-1.508l.769-3.011-2.985.865 2.216 2.146z" fill="url(#g)" style="mix-blend-mode:multiply"/><path d="M131.348 187.404l19.234 18.628a.583.583 0 0 1 .013.824l-11.339 11.707a.582.582 0 0 1-.823.013L119.2 199.948a.581.581 0 0 1-.014-.822l11.34-11.708a.581.581 0 0 1 .822-.014zm.429 2.037l3.498 12.861a.53.53 0 0 0 .292.283l12.969 3.087-16.759-16.231zm7.048 27.893l10.057-10.383-13.585-3.234a1.586 1.586 0 0 1-.714-.409 1.584 1.584 0 0 1-.432-.7l-3.664-13.477-10.059 10.385 18.397 17.818z" fill="url(#h)" style="mix-blend-mode:multiply"/><path d="M191 25.727C191 18.698 196.671 13 203.667 13c2.307 0 4.469.62 6.333 1.703A12.562 12.562 0 0 1 216.333 13C223.329 13 229 18.698 229 25.727c0 4.75-2.588 8.89-6.425 11.077C221.823 43.11 216.48 48 210 48c-6.48 0-11.823-4.89-12.575-11.196A12.731 12.731 0 0 1 191 25.727zm29.836 11.899c-1.4.535-2.917.828-4.503.828-2.307 0-4.469-.62-6.333-1.703a12.562 12.562 0 0 1-6.333 1.703c-1.586 0-3.103-.293-4.503-.828a11.133 11.133 0 0 0 2.999 5.521 11.043 11.043 0 0 0 3.523 2.388 10.97 10.97 0 0 0 4.314.875 10.97 10.97 0 0 0 4.314-.875 11.042 11.042 0 0 0 3.523-2.388 11.106 11.106 0 0 0 2.999-5.521zm-21.907-1.828a10.969 10.969 0 0 0 4.738 1.066 10.962 10.962 0 0 0 4.851-1.12 12.723 12.723 0 0 1-4.844-9.617c-.537.376-1.043.8-1.511 1.271a11.11 11.11 0 0 0-3.246 7.875c0 .176.004.35.012.525zm6.334-10.596a11.099 11.099 0 0 0 .857 4.859 11.124 11.124 0 0 0 3.88 4.807 11.046 11.046 0 0 0 1.504-1.266 11.123 11.123 0 0 0 3.233-8.4A10.972 10.972 0 0 0 210 24.136a10.97 10.97 0 0 0-4.737 1.066zM210 22.546c1.585 0 3.103.293 4.502.828a11.123 11.123 0 0 0-2.998-5.521A11.01 11.01 0 0 0 210 16.587a11.01 11.01 0 0 0-1.504 1.266 11.123 11.123 0 0 0-2.998 5.521 12.583 12.583 0 0 1 4.502-.828zm6.326 3.58a12.723 12.723 0 0 1-4.844 9.617 10.964 10.964 0 0 0 4.851 1.12 10.967 10.967 0 0 0 4.738-1.065 11.099 11.099 0 0 0-.858-4.859 11.107 11.107 0 0 0-2.376-3.54 11.076 11.076 0 0 0-1.511-1.272zm-4.844-10.415a12.72 12.72 0 0 1 4.759 8.485 12.731 12.731 0 0 1 6.419 10.677 11.17 11.17 0 0 0 1.51-1.271 11.09 11.09 0 0 0 2.376-3.54 11.1 11.1 0 0 0 .871-4.335c0-1.504-.293-2.962-.871-4.334a11.09 11.09 0 0 0-2.376-3.54 11.043 11.043 0 0 0-3.523-2.388 10.967 10.967 0 0 0-4.314-.874 10.962 10.962 0 0 0-4.851 1.12zm-18.028 5.682a11.1 11.1 0 0 0-.871 4.334 11.1 11.1 0 0 0 .871 4.334 11.09 11.09 0 0 0 2.376 3.54c.468.472.973.896 1.51 1.272a12.731 12.731 0 0 1 6.419-10.677 12.72 12.72 0 0 1 4.759-8.485 10.962 10.962 0 0 0-4.851-1.12c-1.497 0-2.949.294-4.314.874a11.042 11.042 0 0 0-3.523 2.388 11.088 11.088 0 0 0-2.376 3.54z" fill="url(#i)" style="mix-blend-mode:multiply"/><path d="M283.951 29.907l-7.345 5.053-3.148 2.166-7.346 5.053-18.375-24.463L267.674 4l16.277 25.907zm-1.728-.358l-1.357-2.158-6.426 4.42 1.444 2.1 6.339-4.362zm-7.389 5.084l-2.887-4.198-1.05.722 2.888 4.197 1.049-.721zm-2.098 1.443l-1.444-2.099-6.427 4.422 1.531 2.038 6.34-4.36zm-23.183-18.063l14.546 19.366 6.471-4.451-1.444-2.099a.636.636 0 0 1 1.049-.721.637.637 0 0 1 1.05-.722.636.636 0 1 1 1.049-.722l1.444 2.098 6.47-4.45-12.885-20.51-17.75 12.211z" fill="#fff"/><path d="M268.705 23.904l-5.555-2.677.195 3.125-7.081-3.227 2.749-1.891 3.847-2.647 4.948-3.403.897 10.72zm-9.864-3.005l3.1 1.413-.106-1.719-1.5-.722-1.494 1.028zm2.703-1.86l5.706 2.75-.528-6.312-5.178 3.563z" fill="#fff"/><g clip-path="url(#j)"><path d="M23.715 149.636a4.073 4.073 0 0 1 4.95-3.978l2.699-2.7-7.325-7.325a3.25 3.25 0 0 1 4.595-4.595l7.325 7.326 8.344-8.344a2.16 2.16 0 0 1 1.531-.635 2.166 2.166 0 0 1 1.532 3.698l-8.344 8.344 7.893 7.892v4.595h-4.596l-7.892-7.892-2.675 2.676c.071.301.11.615.11.938 0 4.613-6.803 4.978-9.052 4.978-2.25 0 .905-2.728.905-4.978zm2.62-18.467a2.169 2.169 0 0 0-1.531 3.698l.766.766 3.064-3.064-.766-.765a2.154 2.154 0 0 0-1.532-.635zm20.266 1.148a1.084 1.084 0 0 0-1.533-1.531l-8.343 8.343 1.532 1.532 8.344-8.344zm-.77 20.514v-.897l-.897.897h.897zm-3.063 0h.634l2.429-2.429v-.634l-16.432-16.433-1.152 1.152 14.835 14.835a.541.541 0 1 1-.766.766l-14.835-14.835-1.145 1.146 16.432 16.432zm-9.106-7.575l-1.532-1.531-2.356 2.355a4.09 4.09 0 0 1 1.543 1.521l2.345-2.345zm-5.829 7.573c.942-.318 1.668-.731 2.158-1.229.53-.537.787-1.179.787-1.964a2.97 2.97 0 0 0-.876-2.114 2.974 2.974 0 0 0-2.114-.876 2.994 2.994 0 0 0-2.99 2.99c0 1.233-.657 2.436-1.186 3.402-.078.144-.173.318-.26.486 1.166-.03 2.932-.173 4.481-.695z" fill="url(#k)" style="mix-blend-mode:multiply"/></g><g clip-path="url(#l)"><path d="M114.494 89.447L66.6 103.017l-2.915-10.284 47.895-13.57 2.914 10.284zM67.828 100.82l3.377-.958-.486-1.714a.893.893 0 0 1 .614-1.1.893.893 0 0 1 1.1.614l.486 1.714 3.428-.971-.485-1.713a.89.89 0 1 1 1.714-.487l.485 1.715 3.428-.972-.484-1.714a.89.89 0 1 1 1.713-.486l.486 1.714 3.428-.971-.486-1.714a.892.892 0 0 1 1.715-.486l.485 1.714 3.429-.971-.486-1.714a.891.891 0 0 1 1.714-.486l.486 1.715 3.428-.972-.486-1.715a.89.89 0 1 1 1.714-.485l.486 1.714 3.429-.972-.486-1.713a.892.892 0 0 1 1.714-.487v.001l.486 1.714 3.428-.971-.485-1.713h-.001a.892.892 0 0 1 1.715-.487l.486 1.713 3.377-.956-1.943-6.857-44.466 12.6 1.943 6.857z" fill="url(#m)" style="mix-blend-mode:multiply"/></g><path d="M73.757 17.783L87.804.378a.486.486 0 0 1 .684-.073l12.107 9.772a.485.485 0 0 1 .073.683L95.6 17.04l2.636 1.38.122-.152a.487.487 0 0 1 .757.61l-4.886 6.055a.486.486 0 0 1-.757-.61l.122-.152-1.904-2.286-5.069 6.28a.486.486 0 0 1-.683.073L73.83 18.467a.486.486 0 0 1-.073-.684zm23.856 1.408l-2.632-1.377-2.666 3.301 1.902 2.284 3.396-4.208zM74.82 18.015l9.837 7.94L98.092 9.306l-9.837-7.94-13.435 16.65zm18.068.837l6.718-8.323-.757-.611-6.718 8.324-6.717 8.323.757.61 6.717-8.323z" fill="url(#n)" style="mix-blend-mode:multiply"/><path d="M92.205 18.925a.486.486 0 1 1 .609-.756.486.486 0 0 1-.61.756z" fill="url(#o)" style="mix-blend-mode:multiply"/><path d="M88.852 3.724l-9.16 11.35h-.001a.486.486 0 0 1-.757-.61l9.16-11.35a.487.487 0 1 1 .758.61z" fill="url(#p)" style="mix-blend-mode:multiply"/><path d="M90.365 4.946l-4.885 6.053a.486.486 0 1 1-.757-.61l4.885-6.054a.487.487 0 1 1 .757.611z" fill="url(#q)" style="mix-blend-mode:multiply"/><path d="M91.88 6.168l-6.717 8.323a.486.486 0 1 1-.757-.61l6.717-8.324a.487.487 0 1 1 .757.61z" fill="url(#r)" style="mix-blend-mode:multiply"/><path d="M93.392 7.389l-4.274 5.296a.486.486 0 1 1-.757-.61l4.274-5.297a.487.487 0 1 1 .757.61z" fill="url(#s)" style="mix-blend-mode:multiply"/><path d="M94.906 8.61l-7.94 9.837h.001a.487.487 0 1 1-.757-.61L94.15 8a.486.486 0 1 1 .756.61z" fill="url(#t)" style="mix-blend-mode:multiply"/><path d="M96.42 9.832l-2.443 3.026a.486.486 0 1 1-.757-.61l2.442-3.027a.487.487 0 1 1 .757.611z" fill="url(#u)" style="mix-blend-mode:multiply"/><path d="M163.286 142.114l3.8-4 4.325 13.009-5.737-1.28-8.032-1.791-10.326-2.303 12.763-14.016 3.207 10.381zm5.265 6.426l-2.269-6.823-2.354 2.477 1.1 3.56 3.523.786zm-5.658-1.262l-3.647-11.809-8.323 9.139 11.97 2.67z" fill="#fff"/><path d="M153.712 117.08l.422-1.894a.959.959 0 0 1 1.137-.739.96.96 0 0 1 .716 1.153l-.422 1.893 3.707.827.422-1.893a.96.96 0 0 1 1.137-.74c.513.114.833.63.716 1.153l-.422 1.893 3.707.827.422-1.893a.96.96 0 0 1 1.137-.74.96.96 0 0 1 .717 1.153l-.423 1.893 3.707.827.422-1.893a.96.96 0 0 1 1.138-.74.96.96 0 0 1 .716 1.153l-.422 1.893 3.707.827.422-1.893a.96.96 0 0 1 1.137-.74.961.961 0 0 1 .717 1.154l-.423 1.893 5.561 1.24-9.289 41.645-35.215-7.855 9.288-41.645 5.561 1.241zm-12.583 38.963l31.509 7.028 8.462-37.937-3.707-.827-.405 1.814a.96.96 0 0 1-1.138.74.959.959 0 0 1-.715-1.153l.404-1.814-3.707-.827-.404 1.814a.96.96 0 0 1-1.138.74.961.961 0 0 1-.716-1.154l.405-1.813-3.707-.827-.405 1.814a.96.96 0 0 1-1.138.74.96.96 0 0 1-.715-1.154l.404-1.814-3.706-.826-.405 1.813a.959.959 0 0 1-1.138.74.959.959 0 0 1-.715-1.153l.405-1.814-3.708-.826-.404 1.813a.96.96 0 0 1-1.139.74.958.958 0 0 1-.714-1.153l.404-1.814-3.707-.827-8.462 37.937z" fill="#fff"/><path d="M142.769 43.435l22.736 20.005c.273.24.3.656.06.93l-13.916 15.816a.66.66 0 0 1-.93.06l-8.203-7.219-2.018 3.486.198.174a.659.659 0 0 1-.87.989l-7.909-6.959a.658.658 0 0 1 .87-.988l.198.174 3.202-2.444-8.205-7.22a.659.659 0 0 1-.059-.928l13.917-15.817c.24-.273.656-.3.929-.06zm-3.279 32.192l2.015-3.482-4.313-3.797-3.199 2.442 5.497 4.837zM138.044 49.8l2.966 2.61 4.349-4.943-2.966-2.61-4.349 4.943zm2.096 3.598l-2.965-2.61-6.089 6.92 2.966 2.61 6.088-6.92zm6.207-5.062L135.04 61.188l17.794 15.656 11.307-12.85-17.794-15.657zm-6.126 20.917l10.873 9.568.87-.989-10.873-9.567-10.875-9.568-.869.989 10.874 9.567z" fill="url(#v)" style="mix-blend-mode:multiply"/><path d="M140.163 68.325a.657.657 0 1 1 .988.868.657.657 0 0 1-.988-.868z" fill="url(#w)" style="mix-blend-mode:multiply"/><path d="M146.86 64.555l-3.389-2.982 7.652-2.621-.932 4.541 2.243-.715-1.054 5.754-1.883-1.657-2.637-2.32zm2.51-3.61l-3.325 1.139 2.618 2.303.707-3.443zm1.133 5.062l.24-1.308-.856.273-.085.417.701.618z" fill="url(#x)" style="mix-blend-mode:multiply"/><path d="M158.449 62.491l.988.87-.87.988-.988-.87.87-.988z" fill="url(#y)" style="mix-blend-mode:multiply"/><path d="M153.012 57.708l.989.87-.87.988-.988-.87.869-.988z" fill="url(#z)" style="mix-blend-mode:multiply"/><path d="M147.576 52.924l.989.87-.87.989-.989-.87.87-.989z" fill="url(#A)" style="mix-blend-mode:multiply"/><path d="M144.096 56.878l.989.87-.87.989-.989-.87.87-.989z" fill="url(#B)" style="mix-blend-mode:multiply"/><path d="M140.616 60.832l.989.87-.87.99-.989-.871.87-.989z" fill="url(#C)" style="mix-blend-mode:multiply"/><path d="M151.489 70.4l.988.869-.87.989-.988-.87.87-.989z" fill="url(#D)" style="mix-blend-mode:multiply"/><path d="M154.969 66.445l.988.87-.87.988-.988-.87.87-.988z" fill="url(#E)" style="mix-blend-mode:multiply"/><path d="M146.053 65.616l.988.87-.87.989-.988-.87.87-.989z" fill="url(#F)" style="mix-blend-mode:multiply"/><circle r="10.5" transform="matrix(-1 0 0 1 15.5 83.5)" stroke="url(#G)" stroke-width="10" style="mix-blend-mode:multiply"/><path d="M97 248.807v-3.913h5.947V238h4.106v6.894H113v3.913h-5.947V256h-4.106v-7.193H97z" fill="#fff"/><path d="M74.528 268c0-1.506 4.106-14.35-11.908-9.83-16.014 4.519-20.941-3.013-24.226-17.529S25.528 224.756 18 225.029" stroke="url(#H)" stroke-width="8" stroke-linecap="round" stroke-linejoin="round" style="mix-blend-mode:multiply"/><path d="M12.803 33.78c.53.27 4.31 4.008 5.58-2.405 1.27-6.414 4.795-6.788 10.482-5.336 5.687 1.452 7.878-1.655 9.125-4.338" stroke="url(#I)" stroke-width="8" stroke-linecap="round" stroke-linejoin="round" style="mix-blend-mode:multiply"/><circle r="10.5" transform="matrix(-1 0 0 1 198 203)" stroke="#fff" stroke-width="5"/><path d="M336.539 478a17.458 17.458 0 0 1-11.41-5.102c-6.839-6.84-6.839-17.929 0-24.768a17.46 17.46 0 0 1 12.385-5.13c4.482 0 8.965 1.71 12.384 5.13A17.449 17.449 0 0 1 355 459.539L336.539 478zm-3.938-23.338h-3.468l3.676 6.129 1.688-2.812-1.896-3.317zm1.68 0l5.825 10.194 5.826-10.194h-11.651zm16.987 6.546a15.983 15.983 0 0 0-8.594 4.465 15.921 15.921 0 0 0-3.691 5.732 16.059 16.059 0 0 0-.776 2.864l13.061-13.061zm.949-7.155a16.047 16.047 0 0 0-3.351-4.892 16.003 16.003 0 0 0-11.352-4.701 16 16 0 0 0-11.352 4.701 15.999 15.999 0 0 0-4.703 11.352 15.99 15.99 0 0 0 4.703 11.353 15.971 15.971 0 0 0 9.819 4.629l.566-.567a17.456 17.456 0 0 1 3.109-8.919l-4.331-7.577-2.516 4.195-6.255-10.424h21.892l-6.216 10.878a17.438 17.438 0 0 1 10.698-4.533l.567-.567a15.982 15.982 0 0 0-1.278-4.928z" fill="url(#J)" style="mix-blend-mode:multiply"/><path d="M469.875 456l-8.548-10.008-.779-.913L452 435.071l18.311-15.64 8.549 10.008.779.912 8.548 10.009L469.875 456zm.308-34.95l-16.565 14.148 7.803 9.136 16.565-14.148-7.803-9.136zm-7.983 24.196l7.803 9.135 16.564-14.148-7.802-9.135-16.565 14.148z" fill="#fff"/><path d="M472.022 445.966l.379 2.274-5.433-1.824 1.869-1.596 2.616-2.235 3.362-2.871 1.481 7.787-4.274-1.535zm-2.767.007l1.7.574-.172-1.029-.703-.25-.825.705zm1.83-1.563l3.709 1.332-.736-3.872-2.973 2.54zm2.553-5.196l-6.977 5.96a.575.575 0 0 1-.746-.874l6.977-5.959a.573.573 0 1 1 .746.873zm-15.544-4.07a.572.572 0 1 1-.743-.87.573.573 0 0 1 .743.87zm1.744-1.488a.574.574 0 1 1 .066-.81.575.575 0 0 1-.066.81zm1.747-1.492a.575.575 0 0 1-.81-.061.574.574 0 0 1 .873-.746.574.574 0 0 1-.063.807zm1.742-1.489zm1.745-1.49a.571.571 0 1 1 .062-.806.57.57 0 0 1-.062.806zm-2.182 3.374l3.361-2.871 1.478 7.783-4.274-1.534.382 2.276-5.433-1.823 1.869-1.596 2.617-2.235zm2.602-.718l-2.974 2.54 3.709 1.332-.735-3.872zm-4.804 4.103l1.701.573-.17-1.025-.705-.253-.826.705zm21.885 1.632a.575.575 0 0 1-.617.527l-2.859-.227-.09 1.143a.575.575 0 0 1-1.144-.09l.135-1.712a.575.575 0 0 1 .617-.527l3.431.269a.575.575 0 0 1 .527.617zm-13.078-10.314a.572.572 0 0 1 .617-.527l.003-.002 1.141.092.09-1.144a.575.575 0 0 1 .617-.527.575.575 0 0 1 .527.617l-.092 1.141 1.144.09a.574.574 0 0 1-.091 1.144l-1.143-.09-.088 1.142-.003.002a.575.575 0 0 1-.617.527.575.575 0 0 1-.526-.617l.09-1.144-1.142-.087a.575.575 0 0 1-.527-.617z" fill="#fff"/><path d="M452.229 311.12l.694 1.74.232.581.231.579c-1.585.633-2.354 2.449-1.716 4.048.638 1.599 2.446 2.386 4.031 1.753l.232.58.231.58.695 1.74-1.357 9.956-7.248.203-.239-3.939-13.218 5.275-6.482-16.242 13.218-5.275-2.539-3.022 5.396-4.842 7.839 6.285zm-11.509-1.314l1.757 2.091 1.114 1.326-1.595.637-12.068 4.816 5.556 13.921 12.068-4.816 1.595-.637.105 1.728.165 2.727 4.999-.14 1.17-8.587-.639-1.601a4.367 4.367 0 0 1-4.426-2.744 4.367 4.367 0 0 1 1.32-5.039l-.639-1.6-6.761-5.423-3.721 3.341z" fill="url(#K)" style="mix-blend-mode:multiply"/><path d="M442.598 322.757l2.187.363-3.319 4.399-.882-2.209-1.235-3.094-1.587-3.978 7.541 1.091-2.705 3.428zm-.801 2.255l.755-1-.835-.139-.248.315.328.824zm-.862-2.16l2.051-2.599-3.277-.474 1.226 3.073z" fill="url(#L)" style="mix-blend-mode:multiply"/><g clip-path="url(#M)"><path d="M303 371.95l-8.726 9.05 6.613 6.859c1.318 1.366 1.318 3.582 0 4.949a3.303 3.303 0 0 1-2.386 1.026 3.307 3.307 0 0 1-2.388-1.026l-6.613-6.858-8.726 9.05-4.774-4.95 8.727-9.05-7.602-7.884v-4.95h4.773l7.602 7.884 8.727-9.05 4.773 4.95zm-9.522 9.875l-1.19 1.234 5.023 5.208 1.19-1.233-5.023-5.209zm3.431 10.159a2.2 2.2 0 0 0 1.592.683c.6 0 1.165-.243 1.591-.683a2.4 2.4 0 0 0 0-3.3l-.796-.825-3.183 3.3.796.825zm-1.591-1.65l1.197-1.242-5.022-5.208-1.198 1.241 5.023 5.209zm-14.544 3.016l1.567-1.625-.796-.825a.6.6 0 0 1 0-.825.549.549 0 0 1 .796 0l.001.001.794.824 1.591-1.65-.795-.825a.598.598 0 0 1 0-.825.548.548 0 0 1 .795 0l.796.825 1.591-1.65-.795-.825h-.001a.6.6 0 0 1 0-.825.549.549 0 0 1 .796 0l.795.825 1.591-1.65-.795-.825a.598.598 0 0 1 0-.825.548.548 0 0 1 .795 0l.795.825 1.591-1.65-.795-.825a.598.598 0 0 1 0-.825.548.548 0 0 1 .795 0h.001l.795.825 1.592-1.65-.796-.825a.598.598 0 0 1 0-.825.549.549 0 0 1 .796 0l.795.825 1.591-1.65-.795-.825a.598.598 0 0 1 0-.825.548.548 0 0 1 .795 0v.001l.795.824 1.591-1.65-.794-.824-.001-.001a.598.598 0 0 1 0-.825.55.55 0 0 1 .795 0l.796.825 1.567-1.625-3.182-3.3-20.636 21.4 3.183 3.3zm-2.524-24.017v.967l.932-.967h-.932zm3.182 0h-.659l-2.523 2.617v.683l7.273 7.542 1.196-1.241-5.613-5.821a.598.598 0 0 1 0-.825.549.549 0 0 1 .796 0l5.613 5.821 1.19-1.234-7.273-7.542z" fill="#fff"/></g><g clip-path="url(#N)"><path d="M402 470.95l-8.726 9.05 6.613 6.859c1.318 1.366 1.318 3.582 0 4.949a3.303 3.303 0 0 1-2.386 1.026 3.307 3.307 0 0 1-2.388-1.026l-6.613-6.858-8.726 9.05-4.774-4.95 8.727-9.05-7.602-7.884v-4.95h4.773l7.602 7.884 8.727-9.05 4.773 4.95zm-9.522 9.875l-1.19 1.234 5.023 5.208 1.19-1.233-5.023-5.209zm3.431 10.159a2.2 2.2 0 0 0 1.592.683c.6 0 1.165-.243 1.591-.683a2.4 2.4 0 0 0 0-3.3l-.796-.825-3.183 3.3.796.825zm-1.591-1.65l1.197-1.242-5.022-5.208-1.198 1.241 5.023 5.209zm-14.544 3.016l1.567-1.625-.796-.825a.6.6 0 0 1 0-.825.549.549 0 0 1 .796 0l.001.001.794.824 1.591-1.65-.795-.825a.598.598 0 0 1 0-.825.548.548 0 0 1 .795 0l.796.825 1.591-1.65-.795-.825h-.001a.6.6 0 0 1 0-.825.549.549 0 0 1 .796 0l.795.825 1.591-1.65-.795-.825a.598.598 0 0 1 0-.825.548.548 0 0 1 .795 0l.795.825 1.591-1.65-.795-.825a.598.598 0 0 1 0-.825.548.548 0 0 1 .795 0h.001l.795.825 1.592-1.65-.796-.825a.598.598 0 0 1 0-.825.549.549 0 0 1 .796 0l.795.825 1.591-1.65-.795-.825a.598.598 0 0 1 0-.825.548.548 0 0 1 .795 0v.001l.795.824 1.591-1.65-.794-.824-.001-.001a.598.598 0 0 1 0-.825.55.55 0 0 1 .795 0l.796.825 1.567-1.625-3.182-3.3-20.636 21.4 3.183 3.3zm-2.524-24.017v.967l.932-.967h-.932zm3.182 0h-.659l-2.523 2.617v.683l7.273 7.542 1.196-1.241-5.613-5.821a.598.598 0 0 1 0-.825.549.549 0 0 1 .796 0l5.613 5.821 1.19-1.234-7.273-7.542z" fill="url(#O)" style="mix-blend-mode:multiply"/></g><path d="M388.827 330.393l-5.017-4.86a.581.581 0 1 1 .81-.836l5.018 4.859a.583.583 0 0 1-.811.837z" fill="url(#P)" style="mix-blend-mode:multiply"/><path d="M383 326.37l1.672 1.62a.583.583 0 1 1-.809.835l-1.672-1.62a.581.581 0 1 1 .809-.835z" fill="url(#Q)" style="mix-blend-mode:multiply"/><path d="M395.075 338.51l-2.011.538 1.174-5.038 1.593 1.543 2.229 2.159 2.868 2.778-6.869 1.991 1.016-3.971zm-.171-2.233l-.266 1.145.767-.204.093-.365-.594-.576zm1.557 1.508l-.769 3.01 2.984-.864-2.215-2.146z" fill="url(#R)" style="mix-blend-mode:multiply"/><path d="M391.652 352.576l-19.234-18.628a.582.582 0 0 1-.013-.823l11.339-11.708a.582.582 0 0 1 .823-.012l19.233 18.628a.581.581 0 0 1 .014.822l-11.34 11.708a.581.581 0 0 1-.822.013zm-.429-2.036l-3.498-12.861a.523.523 0 0 0-.292-.283l-12.969-3.087 16.759 16.231zm-7.048-27.894l-10.057 10.384 13.585 3.233c.257.062.509.211.714.41.204.198.363.445.432.7l3.664 13.477 10.059-10.386-18.397-17.818z" fill="url(#S)" style="mix-blend-mode:multiply"/><path d="M302 482.273c0 7.029-5.671 12.727-12.667 12.727-2.307 0-4.469-.62-6.333-1.703a12.563 12.563 0 0 1-6.333 1.703c-6.996 0-12.667-5.698-12.667-12.727 0-4.749 2.588-8.89 6.425-11.077C271.177 464.889 276.52 460 283 460c6.48 0 11.823 4.889 12.575 11.196A12.731 12.731 0 0 1 302 482.273zm-29.836-11.899c1.4-.535 2.917-.828 4.503-.828 2.307 0 4.469.619 6.333 1.703a12.563 12.563 0 0 1 6.333-1.703c1.586 0 3.103.293 4.503.828a11.104 11.104 0 0 0-2.999-5.521A11.028 11.028 0 0 0 283 461.59a11.028 11.028 0 0 0-7.837 3.263 11.104 11.104 0 0 0-2.999 5.521zm21.907 1.828a10.955 10.955 0 0 0-4.738-1.066 10.95 10.95 0 0 0-4.851 1.121 12.721 12.721 0 0 1 4.844 9.616c.537-.376 1.043-.8 1.511-1.271a11.115 11.115 0 0 0 3.234-8.4zm-6.334 10.596a11.094 11.094 0 0 0-.857-4.859 11.124 11.124 0 0 0-3.88-4.807 11.124 11.124 0 0 0-4.737 9.666 10.958 10.958 0 0 0 4.737 1.066 10.958 10.958 0 0 0 4.737-1.066zM283 485.454c-1.585 0-3.103-.293-4.502-.828a11.12 11.12 0 0 0 2.998 5.521c.467.47.969.892 1.504 1.266a11.01 11.01 0 0 0 1.504-1.266 11.12 11.12 0 0 0 2.998-5.521 12.579 12.579 0 0 1-4.502.828zm-6.326-3.581a12.721 12.721 0 0 1 4.844-9.616 10.95 10.95 0 0 0-4.851-1.121 10.955 10.955 0 0 0-4.738 1.066 11.094 11.094 0 0 0 .858 4.859 11.108 11.108 0 0 0 2.376 3.541c.468.471.974.895 1.511 1.271zm4.844 10.416a12.719 12.719 0 0 1-4.759-8.485 12.733 12.733 0 0 1-6.419-10.677 11.17 11.17 0 0 0-3.886 4.812 11.095 11.095 0 0 0-.871 4.334c0 1.504.293 2.962.871 4.334a11.087 11.087 0 0 0 2.376 3.54 11.028 11.028 0 0 0 7.837 3.263 10.968 10.968 0 0 0 4.851-1.121zm18.028-5.682c.578-1.372.871-2.83.871-4.334 0-1.505-.293-2.963-.871-4.334a11.091 11.091 0 0 0-2.376-3.541 11.11 11.11 0 0 0-1.51-1.271 12.733 12.733 0 0 1-6.419 10.677 12.719 12.719 0 0 1-4.759 8.485 10.967 10.967 0 0 0 4.851 1.12c1.497 0 2.949-.294 4.314-.874a11.044 11.044 0 0 0 3.523-2.388 11.087 11.087 0 0 0 2.376-3.54z" fill="url(#T)" style="mix-blend-mode:multiply"/><path d="M339.049 490.994l7.345-5.053 3.149-2.166 7.346-5.053 18.374 24.463-19.937 13.716-16.277-25.907zm1.728.357l1.357 2.159 6.426-4.421-1.444-2.099-6.339 4.361zm7.389-5.083l2.888 4.197 1.049-.721-2.888-4.197-1.049.721zm2.099-1.443l1.443 2.098 6.427-4.421-1.531-2.038-6.339 4.361zm23.183 18.063l-14.547-19.366-6.471 4.451 1.444 2.099a.637.637 0 0 1-1.049.721.636.636 0 1 1-1.049.722.637.637 0 0 1-1.05.722l-1.444-2.098-6.47 4.45 12.885 20.51 17.751-12.211z" fill="#fff"/><path d="M354.295 496.997l5.556 2.676-.195-3.124 7.08 3.227-2.749 1.891-3.847 2.647-4.947 3.403-.898-10.72zm9.865 3.005l-3.101-1.413.107 1.719 1.5.722 1.494-1.028zm-2.703 1.859l-5.707-2.749.529 6.311 5.178-3.562z" fill="#fff"/><g clip-path="url(#U)"><path d="M508.285 354.364a4.073 4.073 0 0 1-4.949 3.978l-2.7 2.7 7.326 7.325a3.25 3.25 0 0 1-2.297 5.547 3.237 3.237 0 0 1-2.298-.952l-7.326-7.326-8.344 8.344a2.157 2.157 0 0 1-1.531.635 2.166 2.166 0 0 1-1.532-3.698l8.344-8.344-7.893-7.892v-4.595h4.596l7.892 7.892 2.675-2.676a4.081 4.081 0 0 1-.109-.938c0-4.613 6.802-4.978 9.052-4.978 2.249 0-.906 2.728-.906 4.978zm-2.62 18.467c.578 0 1.122-.226 1.531-.635a2.17 2.17 0 0 0 0-3.063l-.766-.766-3.063 3.064.765.765c.41.409.953.635 1.533.635zm-20.265-1.148a1.084 1.084 0 0 0 1.532 1.531l8.343-8.343-1.531-1.532-8.344 8.344zm.769-20.514v.897l.897-.897h-.897zm3.063 0h-.634l-2.429 2.429v.634l16.432 16.433 1.152-1.152-14.834-14.835a.54.54 0 1 1 .765-.766l14.835 14.835 1.146-1.146-16.433-16.432zm9.107 7.575l1.531 1.531 2.356-2.355a4.096 4.096 0 0 1-1.543-1.521l-2.344 2.345zm5.828-7.573c-.942.318-1.668.731-2.158 1.229-.529.537-.786 1.179-.786 1.964 0 .798.31 1.549.875 2.114a2.974 2.974 0 0 0 2.115.876 2.993 2.993 0 0 0 2.989-2.99c0-1.233.657-2.436 1.186-3.402.078-.144.174-.318.261-.486-1.167.03-2.933.173-4.482.695z" fill="url(#V)" style="mix-blend-mode:multiply"/></g><g clip-path="url(#W)"><path d="M401.686 388.732l47.893-13.57 2.915 10.284-47.895 13.571-2.913-10.285zm46.666-11.372l-3.378.958.487 1.714a.894.894 0 0 1-.615 1.101.894.894 0 0 1-1.101-.615l.001-.001-.485-1.713-3.429.971.486 1.713a.891.891 0 0 1-1.714.487l-.486-1.715-3.428.972.484 1.714.001.001a.89.89 0 0 1-1.714.485v-.001l-.486-1.713-3.428.971.486 1.714a.893.893 0 0 1-.615 1.101.893.893 0 0 1-1.1-.615l-.485-1.714-3.429.971.486 1.714a.89.89 0 1 1-1.714.486l-.486-1.715-3.428.972.486 1.715a.89.89 0 1 1-1.714.485h-.001l-.485-1.714-3.429.972.486 1.713a.892.892 0 0 1-.614 1.101.893.893 0 0 1-1.1-.614l.001-.002-.486-1.713-3.429.971.485 1.713.001.001a.89.89 0 0 1-1.714.486l-.487-1.714-3.377.957 1.943 6.857 44.466-12.6-1.942-6.857z" fill="url(#X)" style="mix-blend-mode:multiply"/></g><path d="M457.243 477.217l-14.047 17.405a.487.487 0 0 1-.683.073l-12.108-9.772a.486.486 0 0 1-.073-.683l5.068-6.28-2.636-1.379-.122.151a.487.487 0 0 1-.757-.611l4.887-6.054a.487.487 0 0 1 .757.611l-.123.151 1.904 2.286 5.069-6.281a.487.487 0 0 1 .684-.072l12.107 9.771a.486.486 0 0 1 .073.684zm-23.856-1.408l2.632 1.377 2.666-3.301-1.902-2.284-3.396 4.208zm22.794 1.176l-9.838-7.939-13.435 16.647 9.837 7.939 13.436-16.647zm-18.069-.837l-6.718 8.323.757.611 6.718-8.324 6.718-8.323-.757-.611-6.718 8.324z" fill="url(#Y)" style="mix-blend-mode:multiply"/><path d="M438.796 476.075a.485.485 0 1 1-.61.756.486.486 0 1 1 .61-.756z" fill="url(#Z)" style="mix-blend-mode:multiply"/><path d="M442.149 491.276l9.16-11.35.001-.001a.487.487 0 0 1 .757.611l-9.161 11.351a.487.487 0 0 1-.757-.611z" fill="url(#aa)" style="mix-blend-mode:multiply"/><path d="M440.635 490.054l4.885-6.053h.001a.485.485 0 1 1 .756.61l-4.885 6.054a.486.486 0 1 1-.757-.611z" fill="url(#ab)" style="mix-blend-mode:multiply"/><path d="M439.12 488.832l6.718-8.323a.487.487 0 0 1 .757.611l-6.718 8.323a.485.485 0 1 1-.757-.611z" fill="url(#ac)" style="mix-blend-mode:multiply"/><path d="M437.608 487.611l4.275-5.296a.485.485 0 1 1 .756.61l-4.274 5.297a.487.487 0 0 1-.757-.611z" fill="url(#ad)" style="mix-blend-mode:multiply"/><path d="M436.095 486.39l7.938-9.837a.488.488 0 1 1 .757.611L436.851 487a.485.485 0 1 1-.756-.61z" fill="url(#ae)" style="mix-blend-mode:multiply"/><path d="M434.581 485.168l2.442-3.026a.485.485 0 1 1 .757.611l-2.442 3.026a.487.487 0 0 1-.757-.611z" fill="url(#af)" style="mix-blend-mode:multiply"/><path d="M398.714 293.224l-3.8 4.001-4.325-13.009 5.737 1.279 8.032 1.792 10.326 2.303-12.763 14.015-3.207-10.381zm-5.265-6.425l2.269 6.823 2.354-2.477-1.1-3.561-3.523-.785zm5.658 1.262l3.647 11.809 8.323-9.139-11.97-2.67z" fill="#fff"/><path d="M408.288 318.259l-.422 1.893a.959.959 0 0 1-1.137.74.96.96 0 0 1-.716-1.153l.422-1.893-3.707-.827-.422 1.893a.96.96 0 0 1-1.137.74.96.96 0 0 1-.716-1.153l.422-1.893-3.707-.827-.422 1.893a.96.96 0 0 1-1.137.74.961.961 0 0 1-.717-1.154l.423-1.893-3.707-.826-.422 1.893a.96.96 0 0 1-1.138.739.96.96 0 0 1-.716-1.153l.422-1.893-3.707-.827-.422 1.894a.96.96 0 0 1-1.137.739.96.96 0 0 1-.717-1.153l.423-1.893-5.561-1.24L387.922 270l35.215 7.854-9.288 41.645-5.561-1.24zm12.583-38.964l-31.509-7.027-8.462 37.937 3.707.826.405-1.813a.959.959 0 0 1 1.138-.74.959.959 0 0 1 .715 1.153l-.404 1.814 3.707.827.404-1.814a.96.96 0 0 1 1.138-.74.96.96 0 0 1 .716 1.153l-.405 1.814 3.707.827.405-1.814a.96.96 0 0 1 1.138-.74.959.959 0 0 1 .715 1.153l-.404 1.814 3.706.827.405-1.814a.96.96 0 0 1 1.138-.74.96.96 0 0 1 .715 1.154l-.405 1.813 3.708.827.404-1.814a.961.961 0 0 1 1.139-.74.96.96 0 0 1 .714 1.154l-.404 1.813 3.707.827 8.462-37.937z" fill="#fff"/><path d="M388.232 451.565l-22.737-20.005a.658.658 0 0 1-.06-.929l13.917-15.817a.658.658 0 0 1 .929-.059l8.203 7.218 2.018-3.486-.198-.174a.66.66 0 0 1 .87-.989l7.909 6.958a.658.658 0 0 1-.87.989l-.198-.174-3.202 2.444 8.205 7.219c.273.24.299.656.059.929l-13.917 15.817a.657.657 0 0 1-.928.059zm3.278-32.192l-2.015 3.482 4.313 3.797 3.2-2.442-5.498-4.837zm1.446 25.826l-2.966-2.609-4.349 4.942 2.966 2.61 4.349-4.943zm-2.096-3.598l2.966 2.609 6.088-6.919-2.966-2.61-6.088 6.92zm-6.207 5.062l11.307-12.851-17.794-15.656-11.307 12.851 17.794 15.656zm6.126-20.917l-10.873-9.568-.87.989 10.874 9.567 10.874 9.568.87-.989-10.875-9.567z" fill="url(#ag)" style="mix-blend-mode:multiply"/><path d="M390.838 426.675a.659.659 0 1 1-.989-.87.659.659 0 0 1 .989.87z" fill="url(#ah)" style="mix-blend-mode:multiply"/><path d="M384.14 430.445l3.389 2.982-7.652 2.621.933-4.541-2.243.715 1.054-5.754 1.883 1.657 2.636 2.32zm-2.509 3.611l3.325-1.14-2.618-2.303-.707 3.443zm-1.134-5.063l-.24 1.308.856-.273.086-.417-.702-.618z" fill="url(#ai)" style="mix-blend-mode:multiply"/><path d="M372.552 432.509l-.989-.87.87-.988.988.869-.869.989z" fill="url(#aj)" style="mix-blend-mode:multiply"/><path d="M377.988 437.292l-.989-.869.87-.989.989.87-.87.988z" fill="url(#ak)" style="mix-blend-mode:multiply"/><path d="M383.425 442.076l-.989-.87.87-.989.989.87-.87.989z" fill="url(#al)" style="mix-blend-mode:multiply"/><path d="M386.905 438.122l-.989-.87.869-.989.989.871-.869.988z" fill="url(#am)" style="mix-blend-mode:multiply"/><path d="M390.384 434.168l-.989-.87.87-.989.989.87-.87.989z" fill="url(#an)" style="mix-blend-mode:multiply"/><path d="M379.511 424.601l-.988-.87.87-.989.988.87-.87.989z" fill="url(#ao)" style="mix-blend-mode:multiply"/><path d="M376.031 428.555l-.988-.87.87-.988.988.869-.87.989z" fill="url(#ap)" style="mix-blend-mode:multiply"/><path d="M384.948 429.384l-.989-.87.87-.989.988.87-.869.989z" fill="url(#aq)" style="mix-blend-mode:multiply"/><circle r="10.5" transform="matrix(1 0 0 -1 515.5 411.5)" stroke="url(#ar)" stroke-width="10" style="mix-blend-mode:multiply"/><path d="M434 246.193v3.913h-5.947V257h-4.106v-6.894H418v-3.913h5.947V239h4.106v7.193H434z" fill="#fff"/><path d="M447.472 240c0 1.506-4.106 14.349 11.908 9.83s20.941 3.013 24.226 17.529S496.472 283.244 504 282.97" stroke="url(#as)" stroke-width="8" stroke-linecap="round" stroke-linejoin="round" style="mix-blend-mode:multiply"/><path d="M518.197 461.22c-.529-.27-4.309-4.008-5.579 2.405-1.27 6.414-4.796 6.788-10.483 5.336s-7.878 1.655-9.125 4.338" stroke="url(#at)" stroke-width="8" stroke-linecap="round" stroke-linejoin="round" style="mix-blend-mode:multiply"/><circle r="10.5" transform="matrix(1 0 0 -1 333 292)" stroke="#fff" stroke-width="5"/><ellipse opacity=".2" cx="225.279" cy="431.42" rx="118.188" ry="17.533" fill="#6B6B6B"/><path d="M245.538 107.125c1.201-9.63-8.031-18.71-20.622-20.28-12.59-1.572-23.771 4.962-24.972 14.592-1.202 9.629 8.031 18.709 20.621 20.28 12.591 1.571 23.771-4.962 24.973-14.592z" fill="#2F2F2F"/><path d="M236.052 246.402l28.391 12.808-16.904 71.237-30.528-9.854 19.041-74.191z" fill="#FFCA99"/><path d="M302.034 250.023l-37.592 9.187-16.904 71.237 38.082-7.554 16.414-72.87z" fill="#FFD1A7"/><path d="M238.352 436.071c-96.541 0-139.61-15.257-139.61-105.624 0-66.962 8.118-116.769 24.829-152.269 20.139-42.786 53.517-64.484 99.168-64.484 25.422 0 38.186 17.171 47.506 29.727 3.769 5.075 7.035 9.468 10.136 11.116 6.931 3.68 10.894 12.258 10.894 23.567 0 20.971-11.101 31.077-21.832 40.857-15.508 14.129-30.171 27.471-15.627 71.371.786 2.36 1.573 4.794 2.374 7.272 9.128 28.198 19.457 60.18 44.687 60.18 16.162 0 19.753-7.598 22.929-14.321 2.152-4.541 4.17-8.831 10.062-8.831 14.218 0 23.39 10.538 23.39 26.848 0 26.536-8.267 44.389-26.002 56.203-18.848 12.541-48.381 18.388-92.904 18.388z" fill="#fff"/><path d="M222.739 114.436c35.782 0 46.467 35.01 57.301 40.753 6.352 3.369 10.508 11.428 10.508 22.915 0 49.732-62.541 36.627-37.43 112.465 9.543 28.836 19.694 67.957 47.759 67.957 28.064 0 19.694-23.137 32.991-23.137 13.298 0 22.648 9.854 22.648 26.105 0 49.733-29.059 73.864-118.179 73.864-92.074-.029-138.853-12.333-138.853-104.911 0-117.2 24.948-216.011 123.255-216.011zm0-1.484c-23.909 0-44.627 5.892-61.576 17.527-15.642 10.745-28.524 26.684-38.26 47.372C106.148 213.455 98 263.366 98 330.447c0 23.182 2.894 41.496 8.86 56.01 5.803 14.114 14.544 24.71 26.729 32.413 23.612 14.9 58.948 17.957 104.748 17.957 44.686 0 74.338-5.891 93.335-18.536C349.63 406.329 358 388.282 358 361.48c0-16.504-9.706-27.59-24.132-27.59-6.366 0-8.578 4.705-10.73 9.246-3.087 6.515-6.574 13.891-22.261 13.891-24.696 0-34.936-31.7-43.989-59.661a872.225 872.225 0 0 0-2.374-7.272c-14.381-43.439.089-56.618 15.419-70.584 10.849-9.884 22.069-20.109 22.069-41.406 0-11.591-4.111-20.421-11.294-24.221-2.953-1.558-6.174-5.892-9.884-10.908-9.395-12.674-22.291-30.023-48.085-30.023z" fill="#6B6B6B"/><path d="M266.179 155.19c4.393.029 8.682-.223 12.57-.832-6.886-5.045-14.129-20.821-28.153-30.973-8.415 3.903-14.055 11.294-14.084 18.195-.06 9.988 14.662 13.506 29.667 13.61z" fill="#2F2F2F"/><path opacity=".2" d="M333.883 335.375c-13.297 0-4.927 23.137-32.991 23.137-28.065 0-38.216-39.121-47.759-67.957-13.832-41.763-1.083-56.545 13.179-69.709-30.246 25.557-80.453 10.122-76.209 44.598 3.265 26.402 51.217 65.419 53.68 119.871 1.633 36.182 64.143-9.068 105.906-43.514-3.992-4.141-9.439-6.426-15.806-6.426z" fill="#6B6B6B"/><path d="M185.162 294.992c0-37.429 30.973-42.356 44.909-34.476 47.046 26.596 82.13 18.225 82.13-6.396 0-13.535-4.17-17.423-1.232-19.026 2.939-1.603 12.022-3.132 15.346 11.086.965 4.126 2.894 4.927 6.411 3.206 3.533-1.722 11.265-4.289 10.983 17.052-.282 21.341-33.645 73.211-98.663 73.211-42.772-.015-59.884-23.315-59.884-44.657zm-25.026-152.207c10.666-9.004 13.731-22.915 6.847-31.069-6.884-8.154-21.112-7.465-31.777 1.54-10.666 9.005-13.732 22.915-6.847 31.069 6.884 8.154 21.111 7.465 31.777-1.54zm90.952 33.726c4.196-1.901 6.42-6.044 4.966-9.255-1.454-3.21-6.035-4.273-10.231-2.373-4.196 1.9-6.42 6.044-4.966 9.254 1.454 3.211 6.034 4.274 10.231 2.374zm-39.08-22.925c9.751 5.625 5.848 20.095-1.499 32.829-7.346 12.733-17.171 22.766-26.906 17.141-9.751-5.625-12.675-26.387-5.314-39.136 7.362-12.748 23.984-16.459 33.719-10.834z" fill="#2F2F2F"/><path d="M248.443 170.698c5.61 13.817 13.135 25.586-6.04 34.461-6.975 3.236-14.455 4.186-18.878 0-4.422-4.185-1.662-12.867 6.129-11.516" stroke="#2F2F2F" stroke-width="2" stroke-miterlimit="10" stroke-linecap="round" stroke-linejoin="round"/><path d="M254.737 189.324c5.758 7.94 23.686 1.454 19.456-11.235-2.003-6.04-8.741-4.274-9.483-3.28" stroke="#2F2F2F" stroke-width="2" stroke-miterlimit="10" stroke-linecap="round" stroke-linejoin="round"/><path d="M333.884 335.375c-13.298 0-4.927 23.137-32.992 23.137-7.287 0-13.342-2.642-18.521-7.05-40.977-4.972-72.588 7.495-72.588 42.995 0 19.352 12.363 34.921 36.45 40.798 82.961-1.41 110.283-25.557 110.283-73.79.015-16.251-9.35-26.09-22.632-26.09z" fill="#2F2F2F"/><path d="M193.636 178.104c5.729-8.845 16.266-9.157 16.266-9.157m39.759-20.792c4.215-5.729 13.624-5.729 13.624-5.729" stroke="#fff" stroke-width="2" stroke-miterlimit="10" stroke-linecap="round" stroke-linejoin="round"/><path opacity=".2" d="M105.39 361.302c5.773 30.365 19.041 65.004 96.378 68.936 16.043.817 26.12-1.973 0-10.507-26.12-8.534-56.99-15.761-81.27-54.496-8.459-13.476-21.03-35.129-15.108-3.933z" fill="#6B6B6B"/><defs><linearGradient id="a" x1="249.455" y1="42.846" x2="288.749" y2="54.428" gradientUnits="userSpaceOnUse"><stop stop-color="#FFC000"/><stop offset="1" stop-color="#FF8A00"/></linearGradient><linearGradient id="b" x1="86.523" y1="188.433" x2="85.254" y2="154.006" gradientUnits="userSpaceOnUse"><stop stop-color="#FFC000"/><stop offset="1" stop-color="#FF8A00"/></linearGradient><linearGradient id="c" x1="91.308" y1="176.045" x2="91.754" y2="164.919" gradientUnits="userSpaceOnUse"><stop stop-color="#FFC000"/><stop offset="1" stop-color="#FF8A00"/></linearGradient><linearGradient id="d" x1="129.351" y1="1.677" x2="159.835" y2="10.341" gradientUnits="userSpaceOnUse"><stop stop-color="#FFC000"/><stop offset="1" stop-color="#FF8A00"/></linearGradient><linearGradient id="e" x1="133.811" y1="209.277" x2="132.455" y2="213.398" gradientUnits="userSpaceOnUse"><stop stop-color="#FFC000"/><stop offset="1" stop-color="#FF8A00"/></linearGradient><linearGradient id="f" x1="138.732" y1="210.802" x2="138.977" y2="213.984" gradientUnits="userSpaceOnUse"><stop stop-color="#FFC000"/><stop offset="1" stop-color="#FF8A00"/></linearGradient><linearGradient id="g" x1="126.374" y1="195.223" x2="130.279" y2="204.855" gradientUnits="userSpaceOnUse"><stop stop-color="#FFC000"/><stop offset="1" stop-color="#FF8A00"/></linearGradient><linearGradient id="h" x1="130.898" y1="187.556" x2="141.781" y2="216.407" gradientUnits="userSpaceOnUse"><stop stop-color="#FFC000"/><stop offset="1" stop-color="#FF8A00"/></linearGradient><linearGradient id="i" x1="191.494" y1="13.846" x2="233.555" y2="27.306" gradientUnits="userSpaceOnUse"><stop stop-color="#FFC000"/><stop offset="1" stop-color="#FF8A00"/></linearGradient><linearGradient id="k" x1="22.338" y1="129.996" x2="51.385" y2="138.819" gradientUnits="userSpaceOnUse"><stop stop-color="#FFC000"/><stop offset="1" stop-color="#FF8A00"/></linearGradient><linearGradient id="m" x1="117.005" y1="82.829" x2="81.247" y2="117.842" gradientUnits="userSpaceOnUse"><stop stop-color="#FFC000"/><stop offset="1" stop-color="#FF8A00"/></linearGradient><linearGradient id="n" x1="74.027" y1="18.235" x2="96.794" y2="3.744" gradientUnits="userSpaceOnUse"><stop stop-color="#FFC000"/><stop offset="1" stop-color="#FF8A00"/></linearGradient><linearGradient id="o" x1="91.853" y1="18.625" x2="92.788" y2="17.977" gradientUnits="userSpaceOnUse"><stop stop-color="#FFC000"/><stop offset="1" stop-color="#FF8A00"/></linearGradient><linearGradient id="p" x1="78.774" y1="14.699" x2="82.285" y2="16.483" gradientUnits="userSpaceOnUse"><stop stop-color="#FFC000"/><stop offset="1" stop-color="#FF8A00"/></linearGradient><linearGradient id="q" x1="84.507" y1="10.693" x2="88.084" y2="11.873" gradientUnits="userSpaceOnUse"><stop stop-color="#FFC000"/><stop offset="1" stop-color="#FF8A00"/></linearGradient><linearGradient id="r" x1="84.214" y1="14.155" x2="87.777" y2="15.676" gradientUnits="userSpaceOnUse"><stop stop-color="#FFC000"/><stop offset="1" stop-color="#FF8A00"/></linearGradient><linearGradient id="s" x1="88.137" y1="12.389" x2="91.701" y2="13.406" gradientUnits="userSpaceOnUse"><stop stop-color="#FFC000"/><stop offset="1" stop-color="#FF8A00"/></linearGradient><linearGradient id="t" x1="86.034" y1="18.093" x2="89.572" y2="19.764" gradientUnits="userSpaceOnUse"><stop stop-color="#FFC000"/><stop offset="1" stop-color="#FF8A00"/></linearGradient><linearGradient id="u" x1="92.972" y1="12.592" x2="96.293" y2="12.868" gradientUnits="userSpaceOnUse"><stop stop-color="#FFC000"/><stop offset="1" stop-color="#FF8A00"/></linearGradient><linearGradient id="v" x1="142.142" y1="43.774" x2="160.436" y2="75.408" gradientUnits="userSpaceOnUse"><stop stop-color="#FFC000"/><stop offset="1" stop-color="#FF8A00"/></linearGradient><linearGradient id="w" x1="140.589" y1="67.866" x2="141.411" y2="69.169" gradientUnits="userSpaceOnUse"><stop stop-color="#FFC000"/><stop offset="1" stop-color="#FF8A00"/></linearGradient><linearGradient id="x" x1="148.101" y1="56.519" x2="153.033" y2="67.191" gradientUnits="userSpaceOnUse"><stop stop-color="#FFC000"/><stop offset="1" stop-color="#FF8A00"/></linearGradient><linearGradient id="y" x1="158.441" y1="62.526" x2="159.262" y2="63.83" gradientUnits="userSpaceOnUse"><stop stop-color="#FFC000"/><stop offset="1" stop-color="#FF8A00"/></linearGradient><linearGradient id="z" x1="153.004" y1="57.743" x2="153.826" y2="59.046" gradientUnits="userSpaceOnUse"><stop stop-color="#FFC000"/><stop offset="1" stop-color="#FF8A00"/></linearGradient><linearGradient id="A" x1="147.567" y1="52.959" x2="148.39" y2="54.264" gradientUnits="userSpaceOnUse"><stop stop-color="#FFC000"/><stop offset="1" stop-color="#FF8A00"/></linearGradient><linearGradient id="B" x1="144.088" y1="56.913" x2="144.91" y2="58.218" gradientUnits="userSpaceOnUse"><stop stop-color="#FFC000"/><stop offset="1" stop-color="#FF8A00"/></linearGradient><linearGradient id="C" x1="140.608" y1="60.867" x2="141.43" y2="62.172" gradientUnits="userSpaceOnUse"><stop stop-color="#FFC000"/><stop offset="1" stop-color="#FF8A00"/></linearGradient><linearGradient id="D" x1="151.481" y1="70.435" x2="152.303" y2="71.738" gradientUnits="userSpaceOnUse"><stop stop-color="#FFC000"/><stop offset="1" stop-color="#FF8A00"/></linearGradient><linearGradient id="E" x1="154.961" y1="66.481" x2="155.782" y2="67.784" gradientUnits="userSpaceOnUse"><stop stop-color="#FFC000"/><stop offset="1" stop-color="#FF8A00"/></linearGradient><linearGradient id="F" x1="146.045" y1="65.651" x2="146.866" y2="66.955" gradientUnits="userSpaceOnUse"><stop stop-color="#FFC000"/><stop offset="1" stop-color="#FF8A00"/></linearGradient><linearGradient id="G" x1="30.597" y1=".75" x2="-4.206" y2="11.008" gradientUnits="userSpaceOnUse"><stop stop-color="#FFC000"/><stop offset="1" stop-color="#FF8A00"/></linearGradient><linearGradient id="H" x1="18.741" y1="226.04" x2="79.082" y2="249.616" gradientUnits="userSpaceOnUse"><stop stop-color="#FFC000"/><stop offset="1" stop-color="#FF8A00"/></linearGradient><linearGradient id="I" x1="37.503" y1="21.779" x2="18.499" y2="38.722" gradientUnits="userSpaceOnUse"><stop stop-color="#FFC000"/><stop offset="1" stop-color="#FF8A00"/></linearGradient><linearGradient id="J" x1="354.545" y1="477.154" x2="315.251" y2="465.572" gradientUnits="userSpaceOnUse"><stop stop-color="#FFC000"/><stop offset="1" stop-color="#FF8A00"/></linearGradient><linearGradient id="K" x1="448.576" y1="303.584" x2="449.845" y2="338.011" gradientUnits="userSpaceOnUse"><stop stop-color="#FFC000"/><stop offset="1" stop-color="#FF8A00"/></linearGradient><linearGradient id="L" x1="443.791" y1="315.972" x2="443.345" y2="327.098" gradientUnits="userSpaceOnUse"><stop stop-color="#FFC000"/><stop offset="1" stop-color="#FF8A00"/></linearGradient><linearGradient id="O" x1="401.649" y1="493.323" x2="371.166" y2="484.659" gradientUnits="userSpaceOnUse"><stop stop-color="#FFC000"/><stop offset="1" stop-color="#FF8A00"/></linearGradient><linearGradient id="P" x1="389.189" y1="330.704" x2="390.545" y2="326.582" gradientUnits="userSpaceOnUse"><stop stop-color="#FFC000"/><stop offset="1" stop-color="#FF8A00"/></linearGradient><linearGradient id="Q" x1="384.268" y1="329.178" x2="384.023" y2="325.997" gradientUnits="userSpaceOnUse"><stop stop-color="#FFC000"/><stop offset="1" stop-color="#FF8A00"/></linearGradient><linearGradient id="R" x1="396.625" y1="344.758" x2="392.72" y2="335.125" gradientUnits="userSpaceOnUse"><stop stop-color="#FFC000"/><stop offset="1" stop-color="#FF8A00"/></linearGradient><linearGradient id="S" x1="392.102" y1="352.425" x2="381.219" y2="323.574" gradientUnits="userSpaceOnUse"><stop stop-color="#FFC000"/><stop offset="1" stop-color="#FF8A00"/></linearGradient><linearGradient id="T" x1="301.506" y1="494.154" x2="259.445" y2="480.694" gradientUnits="userSpaceOnUse"><stop stop-color="#FFC000"/><stop offset="1" stop-color="#FF8A00"/></linearGradient><linearGradient id="V" x1="509.662" y1="374.004" x2="480.616" y2="365.181" gradientUnits="userSpaceOnUse"><stop stop-color="#FFC000"/><stop offset="1" stop-color="#FF8A00"/></linearGradient><linearGradient id="X" x1="399.174" y1="395.35" x2="434.932" y2="360.337" gradientUnits="userSpaceOnUse"><stop stop-color="#FFC000"/><stop offset="1" stop-color="#FF8A00"/></linearGradient><linearGradient id="Y" x1="456.974" y1="476.765" x2="434.207" y2="491.256" gradientUnits="userSpaceOnUse"><stop stop-color="#FFC000"/><stop offset="1" stop-color="#FF8A00"/></linearGradient><linearGradient id="Z" x1="439.148" y1="476.375" x2="438.213" y2="477.022" gradientUnits="userSpaceOnUse"><stop stop-color="#FFC000"/><stop offset="1" stop-color="#FF8A00"/></linearGradient><linearGradient id="aa" x1="452.226" y1="480.301" x2="448.715" y2="478.517" gradientUnits="userSpaceOnUse"><stop stop-color="#FFC000"/><stop offset="1" stop-color="#FF8A00"/></linearGradient><linearGradient id="ab" x1="446.493" y1="484.307" x2="442.916" y2="483.127" gradientUnits="userSpaceOnUse"><stop stop-color="#FFC000"/><stop offset="1" stop-color="#FF8A00"/></linearGradient><linearGradient id="ac" x1="446.786" y1="480.845" x2="443.223" y2="479.324" gradientUnits="userSpaceOnUse"><stop stop-color="#FFC000"/><stop offset="1" stop-color="#FF8A00"/></linearGradient><linearGradient id="ad" x1="442.863" y1="482.61" x2="439.299" y2="481.593" gradientUnits="userSpaceOnUse"><stop stop-color="#FFC000"/><stop offset="1" stop-color="#FF8A00"/></linearGradient><linearGradient id="ae" x1="444.967" y1="476.908" x2="441.428" y2="475.236" gradientUnits="userSpaceOnUse"><stop stop-color="#FFC000"/><stop offset="1" stop-color="#FF8A00"/></linearGradient><linearGradient id="af" x1="438.028" y1="482.408" x2="434.708" y2="482.132" gradientUnits="userSpaceOnUse"><stop stop-color="#FFC000"/><stop offset="1" stop-color="#FF8A00"/></linearGradient><linearGradient id="ag" x1="388.859" y1="451.226" x2="370.565" y2="419.592" gradientUnits="userSpaceOnUse"><stop stop-color="#FFC000"/><stop offset="1" stop-color="#FF8A00"/></linearGradient><linearGradient id="ah" x1="390.411" y1="427.134" x2="389.589" y2="425.831" gradientUnits="userSpaceOnUse"><stop stop-color="#FFC000"/><stop offset="1" stop-color="#FF8A00"/></linearGradient><linearGradient id="ai" x1="382.9" y1="438.481" x2="377.967" y2="427.81" gradientUnits="userSpaceOnUse"><stop stop-color="#FFC000"/><stop offset="1" stop-color="#FF8A00"/></linearGradient><linearGradient id="aj" x1="372.56" y1="432.474" x2="371.738" y2="431.171" gradientUnits="userSpaceOnUse"><stop stop-color="#FFC000"/><stop offset="1" stop-color="#FF8A00"/></linearGradient><linearGradient id="ak" x1="377.996" y1="437.257" x2="377.174" y2="435.954" gradientUnits="userSpaceOnUse"><stop stop-color="#FFC000"/><stop offset="1" stop-color="#FF8A00"/></linearGradient><linearGradient id="al" x1="383.433" y1="442.041" x2="382.611" y2="440.737" gradientUnits="userSpaceOnUse"><stop stop-color="#FFC000"/><stop offset="1" stop-color="#FF8A00"/></linearGradient><linearGradient id="am" x1="386.913" y1="438.087" x2="386.091" y2="436.782" gradientUnits="userSpaceOnUse"><stop stop-color="#FFC000"/><stop offset="1" stop-color="#FF8A00"/></linearGradient><linearGradient id="an" x1="390.393" y1="434.133" x2="389.57" y2="432.828" gradientUnits="userSpaceOnUse"><stop stop-color="#FFC000"/><stop offset="1" stop-color="#FF8A00"/></linearGradient><linearGradient id="ao" x1="379.519" y1="424.565" x2="378.697" y2="423.262" gradientUnits="userSpaceOnUse"><stop stop-color="#FFC000"/><stop offset="1" stop-color="#FF8A00"/></linearGradient><linearGradient id="ap" x1="376.04" y1="428.519" x2="375.218" y2="427.216" gradientUnits="userSpaceOnUse"><stop stop-color="#FFC000"/><stop offset="1" stop-color="#FF8A00"/></linearGradient><linearGradient id="aq" x1="384.956" y1="429.349" x2="384.134" y2="428.045" gradientUnits="userSpaceOnUse"><stop stop-color="#FFC000"/><stop offset="1" stop-color="#FF8A00"/></linearGradient><linearGradient id="ar" x1="30.597" y1=".75" x2="-4.206" y2="11.008" gradientUnits="userSpaceOnUse"><stop stop-color="#FFC000"/><stop offset="1" stop-color="#FF8A00"/></linearGradient><linearGradient id="as" x1="503.259" y1="281.96" x2="442.918" y2="258.384" gradientUnits="userSpaceOnUse"><stop stop-color="#FFC000"/><stop offset="1" stop-color="#FF8A00"/></linearGradient><linearGradient id="at" x1="493.498" y1="473.221" x2="512.502" y2="456.278" gradientUnits="userSpaceOnUse"><stop stop-color="#FFC000"/><stop offset="1" stop-color="#FF8A00"/></linearGradient><clipPath id="j"><path fill="#fff" transform="matrix(-1 0 0 1 48 129)" d="M0 0h26v26H0z"/></clipPath><clipPath id="l"><path fill="#fff" transform="scale(1 -1) rotate(60.82 151.046 22.827)" d="M0 0h42.758v42.758H0z"/></clipPath><clipPath id="M"><path fill="#fff" transform="matrix(1 0 0 -1 276 395)" d="M0 0h27v28H0z"/></clipPath><clipPath id="N"><path fill="#fff" transform="matrix(1 0 0 -1 375 494)" d="M0 0h27v28H0z"/></clipPath><clipPath id="U"><path fill="#fff" transform="matrix(1 0 0 -1 484 375)" d="M0 0h26v26H0z"/></clipPath><clipPath id="W"><path fill="#fff" transform="scale(-1 1) rotate(60.82 -514.403 -177.814)" d="M0 0h42.758v42.758H0z"/></clipPath></defs></svg>