<svg width="86" height="87" viewBox="0 0 86 87" fill="none" xmlns="http://www.w3.org/2000/svg"><circle cx="43" cy="43.654" r="43" fill="#235390"/><path d="M62.484 67h-31.25a1.465 1.465 0 0 1-1.465-1.465V24.52c0-.81.656-1.465 1.465-1.465h31.25c.81 0 1.465.655 1.465 1.465v41.015c0 .81-.656 1.465-1.465 1.465z" fill="#7DD5F4"/><path d="M62.484 23.055H46.86V67h15.625c.81 0 1.465-.656 1.465-1.465V24.52c0-.81-.656-1.465-1.465-1.465z" fill="#6BA7FF"/><path d="M32.7 25.984h28.32V64.07H32.7V25.984z" fill="#F4F4F6"/><path d="M46.86 25.984h14.16V64.07H46.86V25.984z" fill="#E7F1F9"/><path d="M46.86 50.154c-1.897 0-3.257-.257-4.281-.81-1.003-.54-2.199-1.664-2.199-3.941a6.487 6.487 0 0 1 6.48-6.48 6.486 6.486 0 0 1 6.478 6.48c0 2.277-1.195 3.4-2.198 3.942-1.024.552-2.384.81-4.28.81z" fill="#C18678"/><path d="M40.023 41.56a3.666 3.666 0 0 1-3.662-3.662 3.666 3.666 0 0 1 3.662-3.662 3.666 3.666 0 0 1 3.662 3.662 3.666 3.666 0 0 1-3.662 3.662z" fill="#A55C4F"/><path d="M46.86 38.924a3.666 3.666 0 0 1-3.663-3.662A3.666 3.666 0 0 1 46.86 31.6a3.666 3.666 0 0 1 3.663 3.662 3.666 3.666 0 0 1-3.663 3.662z" fill="#A55C4F"/><path d="M50.033 37.898a3.666 3.666 0 0 1 3.662-3.662 3.666 3.666 0 0 1 3.662 3.662 3.666 3.666 0 0 1-3.662 3.662 3.666 3.666 0 0 1-3.662-3.662z" fill="#784033"/><path d="M51.14 49.345c1.003-.541 2.199-1.665 2.199-3.942a6.487 6.487 0 0 0-6.48-6.48v11.231c1.897 0 3.257-.257 4.28-.81z" fill="#A55C4F"/><path d="M50.522 35.262a3.666 3.666 0 0 0-3.663-3.662v7.324a3.666 3.666 0 0 0 3.663-3.662z" fill="#784033"/><path d="M54.672 55.77H39.047a1.465 1.465 0 1 1 0-2.93h15.625a1.465 1.465 0 0 1 0 2.93zm0 5.615H39.047a1.465 1.465 0 0 1 0-2.93h15.625a1.465 1.465 0 1 1 0 2.93z" fill="#0A617D"/><path d="M54.672 28.914H39.047a1.465 1.465 0 0 1-1.465-1.465v-5.078c0-.809.656-1.465 1.465-1.465h2.644A5.38 5.38 0 0 1 46.86 17a5.38 5.38 0 0 1 5.168 3.906h2.645c.809 0 1.465.656 1.465 1.465v5.078c0 .81-.656 1.465-1.465 1.465zm-2.441-6.543z" fill="#FFDD54"/><path d="M23.422 33.797h-3.906a1.465 1.465 0 0 1-1.421-1.82l1.953-7.813a1.465 1.465 0 0 1 2.842 0l1.953 7.813a1.464 1.464 0 0 1-1.421 1.82z" fill="#FFD2B7"/><path d="M24.843 31.977l-1.953-7.813a1.465 1.465 0 0 0-1.421-1.11v10.743h1.953a1.465 1.465 0 0 0 1.421-1.82z" fill="#FABE9E"/><path d="M18.05 32.332v27.344c0 .809.657 1.465 1.466 1.465h3.906c.809 0 1.465-.656 1.465-1.465V32.332" fill="#FFDD54"/><path d="M21.469 32.332v28.809h1.953c.809 0 1.465-.656 1.465-1.465V32.332h-3.418z" fill="#FFA07A"/><path d="M18.05 59.676v3.906a3.418 3.418 0 0 0 6.837 0v-3.906H18.05z" fill="#FF6378"/><path d="M21.469 59.676V67a3.418 3.418 0 0 0 3.418-3.418v-3.906h-3.418z" fill="#E20059"/><path d="M54.672 55.77a1.465 1.465 0 0 0 0-2.93h-7.813v2.93h7.813zm0 5.615a1.465 1.465 0 0 0 0-2.93h-7.813v2.93h7.813z" fill="#08475E"/><path d="M56.137 27.45v-5.08c0-.809-.656-1.465-1.465-1.465h-2.645A5.38 5.38 0 0 0 46.86 17v11.914h7.813c.809 0 1.465-.656 1.465-1.465zm-3.907-5.08h.001z" fill="#FFA07A"/></svg>