<svg width="86" height="87" viewBox="0 0 86 87" fill="none" xmlns="http://www.w3.org/2000/svg"><circle cx="43" cy="43.654" r="43" fill="#5F9F84"/><path d="M58.207 63H23.051a1.465 1.465 0 0 1-1.465-1.465v-47.07c0-.81.656-1.465 1.465-1.465h35.156c.809 0 1.465.656 1.465 1.465v47.07c0 .81-.656 1.465-1.465 1.465z" fill="#E3F5FF"/><path d="M58.207 13H40.629v50h17.578c.809 0 1.465-.656 1.465-1.465v-47.07c0-.81-.656-1.465-1.465-1.465z" fill="#C6E1F5"/><path d="M52.348 45.227H28.91a1.465 1.465 0 0 1 0-2.93h23.438a1.465 1.465 0 0 1 0 2.93zm0 5.859H28.91a1.465 1.465 0 1 1 0-2.93h23.438a1.465 1.465 0 0 1 0 2.93zm-11.719 5.859H28.91a1.465 1.465 0 1 1 0-2.93h11.72a1.465 1.465 0 0 1 0 2.93z" fill="#6E7382"/><path d="M42.582 39.367H28.91a1.465 1.465 0 0 1-1.465-1.465V35.95c0-4.577 3.724-8.3 8.301-8.3s8.3 3.723 8.3 8.3v1.953c0 .81-.655 1.465-1.464 1.465z" fill="#6496F7"/><path d="M40.629 29.242v10.125h1.953c.809 0 1.465-.656 1.465-1.465V35.95a8.293 8.293 0 0 0-3.418-6.707z" fill="#507BE9"/><path d="M52.348 42.297h-11.72v2.93h11.72a1.465 1.465 0 0 0 0-2.93zm0 5.859h-11.72v2.93h11.72a1.465 1.465 0 0 0 0-2.93zM42.094 55.48c0-.808-.656-1.464-1.465-1.464v2.93c.809 0 1.465-.657 1.465-1.465z" fill="#4F5561"/><path d="M58.207 39.855c5.933 0 10.742-4.809 10.742-10.742 0-5.933-4.81-10.742-10.742-10.742-5.933 0-10.742 4.81-10.742 10.742 0 5.933 4.81 10.742 10.742 10.742z" fill="#FFEE78"/><path d="M68.95 29.113c0-5.932-4.81-10.742-10.743-10.742v21.485c5.933 0 10.742-4.81 10.742-10.743z" fill="#FCD232"/><path d="M58.207 41.32C51.477 41.32 46 35.844 46 29.113c0-6.73 5.476-12.207 12.207-12.207 6.731 0 12.207 5.476 12.207 12.207 0 6.731-5.476 12.207-12.207 12.207zm0-21.484c-5.115 0-9.277 4.162-9.277 9.277 0 5.116 4.162 9.278 9.277 9.278 5.116 0 9.277-4.162 9.277-9.278 0-5.115-4.161-9.277-9.277-9.277z" fill="#FCD232"/><path d="M67.484 29.113c0 5.116-4.161 9.278-9.277 9.278v2.93c6.731 0 12.207-5.477 12.207-12.208 0-6.73-5.476-12.207-12.207-12.207v2.93c5.116 0 9.277 4.162 9.277 9.277z" fill="#F7B90F"/><path d="M62.113 31.555a3.91 3.91 0 0 0-3.906-3.907.978.978 0 0 1 0-1.953c.463 0 .865.328.957.78a1.465 1.465 0 0 0 2.871-.583 3.917 3.917 0 0 0-2.363-2.84v-.286a1.465 1.465 0 1 0-2.93 0v.286a3.912 3.912 0 0 0-2.441 3.62 3.91 3.91 0 0 0 3.906 3.906.978.978 0 0 1 0 1.953.978.978 0 0 1-.956-.78 1.465 1.465 0 1 0-2.872.584 3.916 3.916 0 0 0 2.363 2.839v.287a1.465 1.465 0 0 0 2.93 0v-.286a3.912 3.912 0 0 0 2.441-3.62z" fill="#FCD232"/><path d="M58.207 27.648v2.93a.978.978 0 0 1 0 1.953v4.395c.809 0 1.465-.656 1.465-1.465v-.286a3.912 3.912 0 0 0 2.441-3.62 3.91 3.91 0 0 0-3.906-3.907zm.957-1.173a1.465 1.465 0 0 0 2.871-.583 3.917 3.917 0 0 0-2.363-2.84v-.286c0-.81-.656-1.465-1.465-1.465v4.394c.463 0 .865.328.957.78z" fill="#F7B90F"/><path d="M35.746 30.578a5.866 5.866 0 0 1-5.86-5.86c0-3.23 2.63-5.859 5.86-5.859a5.867 5.867 0 0 1 5.86 5.86c0 3.23-2.629 5.86-5.86 5.86z" fill="#FFD2AA"/><path d="M40.629 27.953a5.83 5.83 0 0 0 .977-3.234c0-1.195-.36-2.307-.977-3.234v6.468z" fill="#FABE8C"/><g clip-path="url(#a)"><path d="M56.34 72.478l-3.143-5.443 2.646-1.514a.769.769 0 0 0 .033-1.3l-11.363-7.509a.741.741 0 0 0-.802-.01.741.741 0 0 0-.392.7l.82 13.594a.769.769 0 0 0 1.142.622l2.636-1.534 3.142 5.442c.215.373.686.5 1.045.28l3.955-2.284c.37-.2.496-.671.28-1.044z" fill="#DEECF1"/><path d="M44.988 53.527a.761.761 0 0 1-.539-.933l1.183-4.414a.761.761 0 1 1 1.471.394l-1.182 4.415a.761.761 0 0 1-.933.538zm-2.893.377a.736.736 0 0 1-1.03-.276l-2.298-3.96a.782.782 0 0 1 .28-1.045.782.782 0 0 1 1.044.28l2.28 3.97c.22.359.093.83-.276 1.03z" fill="#FFDA2D"/><path d="M35.426 62.157a.761.761 0 0 1 .28-1.04l3.957-2.285a.761.761 0 1 1 .762 1.319l-3.958 2.285a.761.761 0 0 1-1.04-.279z" fill="#FDBF00"/><path d="M47.3 55.302a.762.762 0 0 1 .279-1.04l3.958-2.286a.761.761 0 1 1 .762 1.32L48.34 55.58a.761.761 0 0 1-1.04-.279z" fill="#FFDA2D"/><path d="M39.39 56.759l-4.414-1.183a.761.761 0 1 1 .394-1.471l4.415 1.183a.761.761 0 1 1-.395 1.471zm-.343-8.136l3.048 5.28a.736.736 0 0 1-1.03-.275l-2.298-3.96a.782.782 0 0 1 .28-1.045z" fill="#FDBF00"/><path d="M54.081 74.664l-1.978 1.142a.754.754 0 0 1-1.044-.28l-3.142-5.442-2.635 1.534a.769.769 0 0 1-1.143-.622l-.82-13.594a.742.742 0 0 1 .392-.7l10.37 17.962z" fill="#C5D3DD"/></g><defs><clipPath id="a"><path fill="#fff" transform="rotate(15 -152.702 163.06)" d="M0 0h26v26H0z"/></clipPath></defs></svg>