<svg width="95" height="95" viewBox="0 0 95 95" fill="none" xmlns="http://www.w3.org/2000/svg"><path d="M95 47.5c0 7.11-1.562 13.855-4.364 19.911 0 0-24.013 14.59-43.136 14.59-19.122 0-43.136-14.59-43.136-14.59A47.295 47.295 0 0 1 0 47.5C0 21.267 21.267 0 47.5 0S95 21.267 95 47.5z" fill="#FF807D"/><path d="M72.893 44.112L43.956 15.147l-31.73 52.768 1.478 4.47C22.451 76.612 35.878 82 47.5 82c19.122 0 43.136-14.59 43.136-14.59a47.1 47.1 0 0 0 3.9-13.286L83.238 41.65l-10.344 2.462z" fill="#FC3E53"/><path d="M46.5 28.984c2.134-8.6-1.058-13.23-4.783-15.71-4.815-3.204-11.152-3.204-15.967 0-3.725 2.48-6.917 7.11-4.783 15.71l-1.152 18.313h27.838L46.5 28.984z" fill="#776D6B"/><path d="M47.652 47.297H33.875V10.874c2.74.026 5.476.826 7.842 2.401 3.725 2.48 6.917 7.109 4.783 15.709l1.152 18.313z" fill="#57555C"/><path d="M40.181 44.132l-6.447 6.227-6.165-6.227-10.252 2.349a6.555 6.555 0 0 0-5.09 6.389v15.045h43.297V52.87a6.555 6.555 0 0 0-5.09-6.39L40.18 44.133z" fill="#238CF8"/><path d="M55.524 52.87v15.045h-21.79V50.36l6.373-6.113.074-.114 10.253 2.348a6.555 6.555 0 0 1 5.09 6.39z" fill="#0768DD"/><path d="M33.734 60.687h22.628v7.228H33.734v-7.228z" fill="#EAE1DC"/><path d="M79.779 67.915H52.155A4.668 4.668 0 0 1 47.5 63.26V44.757a4.668 4.668 0 0 1 4.655-4.655h27.624a4.668 4.668 0 0 1 4.655 4.655v18.505a4.668 4.668 0 0 1-4.655 4.654z" fill="#fff"/><path d="M84.433 44.757V63.26a4.669 4.669 0 0 1-4.653 4.655H65.968V40.102H79.78a4.669 4.669 0 0 1 4.653 4.655z" fill="#EAE1DC"/><path d="M40.169 37.44v6.692l-6.435 7.711-6.165-7.711V37.44h12.6z" fill="#FFC473"/><path d="M40.17 37.44v6.692l-.063.114-6.373 7.597V37.441h6.435z" fill="#FFB74F"/><path d="M45.771 26.006c-.497-7.316-6.735-11.468-11.902-11.468-5.166 0-11.405 4.152-11.902 11.468a2.644 2.644 0 0 0-2.137 2.873l.23 2.126a2.645 2.645 0 0 0 2.906 2.338l.248-.027C26.166 41 30.93 42.979 33.87 43.428c2.939-.45 7.702-2.428 10.654-10.112l.249.027a2.645 2.645 0 0 0 2.906-2.338l.23-2.126a2.644 2.644 0 0 0-2.137-2.873z" fill="#FFD097"/><path d="M47.907 28.88l-.23 2.125a2.644 2.644 0 0 1-2.904 2.338l-.248-.027c-1.228 3.19-2.766 5.396-4.355 6.918-2.239 2.146-4.583 2.933-6.302 3.195-.044-.007-.088-.014-.134-.023V14.54c.046-.002.09-.002.134-.002 5.167 0 11.406 4.15 11.902 11.466a2.643 2.643 0 0 1 2.137 2.875z" fill="#FFC473"/><path d="M90.636 67.411C83.106 83.698 66.622 95 47.5 95 28.378 95 11.894 83.698 4.364 67.411h86.272z" fill="#776D6B"/><path d="M70.317 55.066a4.467 4.467 0 1 0-8.694-2.055 4.467 4.467 0 0 0 8.694 2.055z" fill="#EAE1DC"/><path d="M70.436 54.008a4.469 4.469 0 0 1-4.468 4.468v-8.935c2.466 0 4.468 2 4.468 4.467z" fill="#ADA19C"/><path d="M43.815 16.987c-.863-1.241-2.102-2.174-3.415-2.871-4.04-2.145-9.01-2.145-13.05 0-1.312.697-2.552 1.63-3.415 2.871-2.875 4.138-1.968 9.025-1.968 9.025 7.958 1.101 11.908-5.415 11.908-5.415s3.95 6.516 11.909 5.415c0 0 .907-4.887-1.969-9.025z" fill="#776D6B"/><path d="M45.784 26.013c-7.959 1.1-11.909-5.416-11.909-5.416v-8.09c2.253 0 4.504.536 6.524 1.609 1.314.697 2.553 1.629 3.416 2.87 2.876 4.14 1.969 9.027 1.969 9.027zm44.852 41.398C83.106 83.698 66.623 95 47.5 95V67.411h43.136z" fill="#57555C"/></svg>