<svg width="343" height="261" viewBox="0 0 343 261" fill="none" xmlns="http://www.w3.org/2000/svg"><ellipse cx="231.767" cy="245.614" rx="103.716" ry="15.386" fill="#F39C00"/><ellipse cx="40.307" cy="245.614" rx="40.307" ry="15.386" fill="#F39C00"/><path d="M38.07 134.888v61.728s-15.364-39.401-15.957-39.97c-.593-.57 4.696-15.318 4.696-15.318l11.26-6.44z" fill="#FFC289"/><path d="M127.812 130.215c23.707 10.85 34.819 24.584 46.103 37.828 11.283 13.244 30.157-24.949 29.804-25.895-.353-.946-41.578-48.051-41.578-48.051l-34.329 36.118zm56.879 110.348c1.395-5.886-5.26-12.503-14.865-14.779-9.604-2.276-18.521.651-19.916 6.537-1.395 5.887 5.26 12.504 14.865 14.78 9.604 2.276 18.521-.651 19.916-6.538z" fill="#2F2F2F"/><path d="M212.654 248.862c-38.067 0-61.705-20.766-61.705-54.183 0-20.835 9.744-29.975 18.338-38.045 2.576-2.416 5.015-4.707 7.009-7.157-.285-19.741-12.628-22.693-19.968-22.693-7.203 0-15.614 2.952-20.458 7.192-4.172 3.647-4.559 10.235-4.935 16.606-.536 9.107-1.094 18.521-13.096 18.521-12.366 0-30.317-16.458-30.317-42.25 0-40.928 14.84-74.573 42.911-97.311C153.148 11.135 183.921.582 214.865.582c14.27 0 50.867 2.564 82.392 26.373 29.827 22.51 44.94 56.12 44.94 99.898 0 41.372-12.777 72.977-37.965 93.96-22.054 18.35-53.716 28.049-91.578 28.049z" fill="#fff"/><path d="M130.069 29.086l.314.389c-28.074 22.743-42.93 56.396-42.93 97.366 0 11.602 3.682 22.521 10.362 30.743 5.916 7.294 13.424 11.577 20.036 11.577 3.067 0 5.362-.618 7.094-1.65 1.73-1.03 2.937-2.494 3.794-4.247 1.731-3.539 2.014-8.192 2.278-12.688l.499.029-1.447-121.519zm0 0l.314.389C153.107 11.065 183.892.5 214.854.5c14.285 0 50.899 2.572 82.455 26.375 13.774 10.405 24.573 23.484 32.095 38.868 8.543 17.46 12.874 38.012 12.874 61.087 0 41.437-12.808 73.031-37.99 94.009l.32.384-.32-.384c-22.03 18.356-53.703 28.081-91.623 28.081-17.73 0-32.836-4.673-43.725-13.463l-.314.389.314-.389c-11.799-9.523-18.05-23.618-18.05-40.79 0-10.452 2.437-17.939 5.933-23.818 3.504-5.892 8.083-10.193 12.43-14.272l.115-.108c2.449-2.304 4.802-4.516 6.755-6.879l.118-.143m-46.172-120.36l46.172 120.36m0 0l-.003-.185m.003.185l-.003-.185m0 0c-.185-9.638-3.299-15.275-7.359-18.487-4.04-3.196-8.929-3.921-12.539-3.921-8.388 0-16.448 3.693-20.412 7.167l40.31 15.241zm165.877-22.421c0-48.943-19.316-80.518-44.914-99.844C271.624 7.69 239.82.64 214.854.64c-27.677 0-59.484 8.772-84.383 28.94-24.916 20.183-42.885 51.752-42.89 97.261 0 12.785 4.371 23.316 10.326 30.657 5.942 7.323 13.508 11.524 19.921 11.524 5.029 0 8.104-1.666 9.975-4.396 1.837-2.682 2.455-6.315 2.782-10.119.113-1.312.192-2.642.27-3.971.152-2.578.304-5.153.707-7.585.606-3.666 1.764-6.857 4.25-9.031 4.441-3.884 12.631-7.205 20.505-7.205 5.144 0 10.096 1.414 13.784 4.951 3.657 3.508 6.141 9.174 6.263 17.83-1.98 2.431-4.406 4.706-6.964 7.105-8.471 7.945-18.393 17.25-18.393 38.078 0 18.118 6.844 31.669 18.004 40.68 11.147 8.999 26.553 13.433 43.632 13.433 35.704 0 68.077-8.516 91.531-28.047 23.471-19.543 37.941-50.059 37.941-93.904z" fill="#0064DA" stroke="#6B6B6B"/><path d="M271.168 197.3c3.226-56.52-41.042-73.171-77.091-65.216-6.155 1.357-20.527 3.761-26.841 14.623-2.587 4.456 1.014 10.451-.479 12.309" fill="#fff"/><path d="M271.168 197.3c3.226-56.52-41.042-73.171-77.091-65.216-6.155 1.357-20.527 3.761-26.841 14.623-2.587 4.456 1.014 10.451-.479 12.309" stroke="#6B6B6B" stroke-miterlimit="10" stroke-linecap="round" stroke-linejoin="round"/><path d="M176.582 155.62c4.33 0 7.841-1.995 7.841-4.456 0-2.462-3.511-4.457-7.841-4.457-4.331 0-7.842 1.995-7.842 4.457 0 2.461 3.511 4.456 7.842 4.456zm49.214 33.178c-1.197 9.437-10.463 6.405-19.513 11.363-7.066 3.875-11.83 10.531-17.164 10.531-6.599 0-9.449-7.898-5.517-18.316 4.662-12.354 14.714-16.742 22.932-16.742 12.15 0 20.219 5.607 19.262 13.164zm-73.776 13.961c5.802 1.813 11.01-4.148 11.329-14.668.228-7.431-2.188-13.175-5.698-17.335-3.602 5.903-6.143 13.414-6.143 23.923.011 2.815.193 5.493.512 8.08zm65.319 50.388c12.274 0 22.225-6.103 22.225-13.631 0-7.528-9.951-13.631-22.225-13.631-12.275 0-22.225 6.103-22.225 13.631 0 7.528 9.95 13.631 22.225 13.631z" fill="#2F2F2F"/><path d="M30.137 143.436c4.49-1.55 7.932-8.548 7.932-8.548h-7.932c-8.001 10.258-16.048 11.819-16.048 11.819s32.449 1.413 64.202 13.734v89.333l5.186-3.442v-89.253c-9.86-4.571-32.985-11.762-53.34-13.643z" fill="#FFD1A7"/><path d="M318.946 49.681C292.334 13.37 247.679 1.128 214.854 1.128c-55.174 0-126.762 34.979-126.762 125.702 0 25.336 17.325 41.68 29.748 41.68 19.615 0 7.191-25.826 17.654-34.978 8.468-7.409 30.112-12.708 38.227 2.085-3.248-21.051.912-33.553 11.215-35.274 10.303-1.722 17.894 10.303 17.894 10.303-.889 20.105-3.681 36.038 9.813 38.739 13.483 2.702 29.667-12.012 41.19-30.408 11.523-18.395 30.921-40.517 60.566-48.553 12.377-3.328 10.246-12.252 4.547-20.743z" fill="#2F2F2F"/><path d="M137.888 131.731c8.411-5.551 23.843-8.776 32.55-.422" stroke="#fff" stroke-miterlimit="10" stroke-linecap="round" stroke-linejoin="round"/><path d="M119.313 163.163c6.138-3.544 6.014-15.251-.278-26.147-6.291-10.897-16.367-16.858-22.505-13.314-6.138 3.544-6.014 15.25.278 26.147 6.291 10.897 16.367 16.858 22.505 13.314zm113.142-41.988c3.13-13.206.076-25.237-6.822-26.871-6.897-1.635-15.025 7.746-18.154 20.952-3.13 13.206-.076 25.237 6.821 26.871 6.898 1.635 15.026-7.746 18.155-20.952z" fill="#FFAA5B"/><path d="M219.903 86.38c38.557-10.337 34.181 89.254 80.523 89.254 15.694 0 26.726-11.888 26.726-34.329 0-35.549-37.03-80.67-89.492-80.67-20.355 0-30.408 15.568-28.015 23.124 1.231 3.921 5.209 3.978 10.258 2.622z" fill="#2F2F2F"/><path d="M292.892 79.6c-14.828-11.387-33.736-18.966-55.232-18.966-20.355 0-30.408 15.569-28.015 23.125 1.231 3.921 5.22 3.967 10.258 2.61 17.028-4.57 25.678 12.31 34.033 32.574" stroke="#fff" stroke-miterlimit="10" stroke-linecap="round" stroke-linejoin="round"/><path d="M88.275 89.333c-5.346 7.169-6.383 15.42-2.337 18.441 4.058 3.02 9.278-3.021 17.017-7.5 8.023-4.65 6.519-15.603 2.336-18.44-8.286-5.631-11.682.33-17.016 7.499z" fill="#2F2F2F"/><path d="M89.118 108.526c3.556-.57 7.978-4.855 13.825-8.252 8.024-4.65 6.52-15.603 2.337-18.44-4.138-2.816-7.055-2.725-9.608-1.05" stroke="#fff" stroke-miterlimit="10" stroke-linecap="round" stroke-linejoin="round"/><path d="M189.005 195.853c-1.072 1.641-.889 3.943-.889 3.943m-30.773-10.873c-1.071 1.641-.889 3.943-.889 3.943" stroke="#fff" stroke-width="2" stroke-miterlimit="10" stroke-linecap="round" stroke-linejoin="round"/><path d="M78.28 249.774v-89.333c-31.742-12.321-64.202-13.734-64.202-13.734v89.777c31.753 1.231 64.201 13.29 64.201 13.29z" fill="#FFAA5B" stroke="#FF7A00" stroke-miterlimit="10" stroke-linecap="round" stroke-linejoin="round"/><path d="M14.078 146.707c7.933-1.231 16.047-11.819 16.047-11.819" stroke="#FF7A00" stroke-miterlimit="10" stroke-linecap="round" stroke-linejoin="round"/><path d="M50.652 222.716c-.24 0-.502-.034-.752-.08l-8.4-1.436c-1.083-.182-2.109-.524-2.656-2.667L28.04 173.878c-.114-.467-.33-1.367.171-1.983.194-.239.559-.524 1.254-.524.16 0 .353.011.559.057l6.53 1.117c1.926.33 2.303 1.801 2.508 2.587l1.345 5.357c.182.684.478.741.877.809l9.13 1.562a.893.893 0 0 0 .17.011c.194 0 .445-.057.513-.353l1.265-5.061c.308-1.493 1.277-1.812 2.03-1.812.17 0 .352.011.546.046l6.463 1.105c.638.114 1.105.388 1.401.821.502.752.274 1.698.194 2.063l-10.269 41.042c-.296 1.333-.98 1.994-2.074 1.994zm-7.568-30.875l2.872 12.024 2.496-10.896c.057-.216.069-.342.057-.387l-5.46-.924a.57.57 0 0 0 .035.183z" fill="#fff"/><path d="M29.464 171.929c.137 0 .285.012.467.046l6.531 1.117c1.596.274 1.87 1.447 2.063 2.222l1.334 5.3c.262.98.797 1.14 1.333 1.231l9.13 1.562c.09.011.182.022.273.022.535 0 .946-.296 1.06-.797l1.265-5.049c.114-.57.399-1.38 1.481-1.38a2.3 2.3 0 0 1 .456.046l6.463 1.106c1.538.262 1.265 1.618 1.128 2.188l-10.269 41.03c-.308 1.266-.878 1.562-1.539 1.562-.216 0-.433-.034-.66-.068l-8.4-1.437c-1.003-.17-1.733-.433-2.2-2.245l-10.794-44.643c-.113-.502-.444-1.813.878-1.813zm16.515 33.121c.17 0 .296-.182.422-.592l2.598-11.352c.069-.251.262-.958-.467-1.083l-5.528-.946c-.057-.011-.102-.011-.148-.011-.559 0-.376.672-.32.934l2.93 12.298c.137.49.262.707.467.741.012.011.034.011.046.011zm-16.515-34.26c-.923 0-1.436.41-1.71.752-.66.843-.399 1.96-.273 2.439l10.805 44.678c.57 2.234 1.664 2.849 3.111 3.1l8.4 1.436c.25.045.536.091.855.091.946 0 2.165-.422 2.644-2.428l10.258-41.019c.102-.444.364-1.573-.274-2.519-.262-.398-.786-.9-1.778-1.071l-6.462-1.105a4.315 4.315 0 0 0-.65-.057c-.786 0-2.177.296-2.599 2.29l-1.242 4.935h-.057l-9.13-1.561c-.33-.057-.33-.057-.42-.41l-1.323-5.277-.011-.069c-.205-.786-.673-2.61-2.964-2.997l-6.53-1.117a1.86 1.86 0 0 0-.65-.091zm16.47 30.579l-2.143-9.004 4.046.695-1.904 8.309z" fill="#FF7A00"/></svg>