<?xml version="1.0" encoding="UTF-8" standalone="no"?>
<svg
   xmlns:dc="http://purl.org/dc/elements/1.1/"
   xmlns:cc="http://creativecommons.org/ns#"
   xmlns:rdf="http://www.w3.org/1999/02/22-rdf-syntax-ns#"
   xmlns:svg="http://www.w3.org/2000/svg"
   xmlns="http://www.w3.org/2000/svg"
   xmlns:sodipodi="http://sodipodi.sourceforge.net/DTD/sodipodi-0.dtd"
   xmlns:inkscape="http://www.inkscape.org/namespaces/inkscape"
   enable-background="new 0 0 24 24"
   viewBox="0 0 24 24"
   width="24"
   height="24"
   version="1.1"
   id="svg10"
   sodipodi:docname="call-black-18dp.svg"
   style="fill:#000000"
   inkscape:version="0.92.4 (5da689c313, 2019-01-14)">
  <metadata
     id="metadata16">
    <rdf:RDF>
      <cc:Work
         rdf:about="">
        <dc:format>image/svg+xml</dc:format>
        <dc:type
           rdf:resource="http://purl.org/dc/dcmitype/StillImage" />
        <dc:title></dc:title>
      </cc:Work>
    </rdf:RDF>
  </metadata>
  <defs
     id="defs14" />
  <sodipodi:namedview
     pagecolor="#ffffff"
     bordercolor="#666666"
     borderopacity="1"
     objecttolerance="10"
     gridtolerance="10"
     guidetolerance="10"
     inkscape:pageopacity="0"
     inkscape:pageshadow="2"
     inkscape:window-width="1920"
     inkscape:window-height="1016"
     id="namedview12"
     showgrid="true"
     scale-x="1"
     inkscape:zoom="9.2709556"
     inkscape:cx="3.3251855"
     inkscape:cy="-18.188869"
     inkscape:window-x="1280"
     inkscape:window-y="27"
     inkscape:window-maximized="1"
     inkscape:current-layer="svg10"
     showguides="false">
    <inkscape:grid
       type="xygrid"
       id="grid838" />
  </sodipodi:namedview>
  <path
     style="stroke-width:1"
     inkscape:connector-curvature="0"
     d="m 15.630681,14.39932 -2.52,2.5 c -2.5,-1.43 -4.5700002,-3.5 -6.0000002,-6.000001 l 2.5,-2.5199987 c 0.2299998,-0.24 0.3299998,-0.57 0.2699998,-0.9 l -0.7499998,-3.68 c -0.09,-0.46 -0.5,-0.8 -0.98,-0.8 h -4.15 c -0.5600001,0 -1.0300001,0.47 -1.0000001,1.03 0.17,2.89 1.0500001,5.6 2.4300001,7.9699987 1.58,2.730001 3.85,4.990001 6.5700002,6.570001 2.37,1.37 5.08,2.26 7.97,2.43 0.56,0.03 1.03,-0.44 1.03,-1 v -4.15 c 0,-0.48 -0.34,-0.89 -0.8,-0.98 l -3.67,-0.73 c -0.33,-0.07 -0.67,0.03 -0.9,0.26 z"
     id="path6" />
</svg>
