<svg width="175" height="285" viewBox="0 0 175 285" fill="none" xmlns="http://www.w3.org/2000/svg"><path d="M133 267.461a17.458 17.458 0 0 1-5.102 11.41c-6.84 6.839-17.929 6.839-24.768 0A17.46 17.46 0 0 1 98 266.486c0-4.482 1.71-8.965 5.13-12.384A17.449 17.449 0 0 1 114.539 249L133 267.461zm-23.338 3.938v3.468l6.129-3.676-2.812-1.688-3.317 1.896zm0-1.68l10.194-5.825-10.194-5.826v11.651zm6.546-16.987a15.983 15.983 0 0 0 4.465 8.594 15.921 15.921 0 0 0 5.732 3.691c.936.349 1.892.607 2.864.776l-13.061-13.061zm-7.155-.949a16.047 16.047 0 0 0-4.892 3.351 16 16 0 0 0-4.701 11.352 15.996 15.996 0 0 0 4.701 11.352 15.999 15.999 0 0 0 11.352 4.703 15.99 15.99 0 0 0 11.353-4.703 15.971 15.971 0 0 0 4.629-9.819l-.567-.566a17.456 17.456 0 0 1-8.919-3.109l-7.577 4.331 4.195 2.516-10.424 6.255v-21.892l10.878 6.216a17.438 17.438 0 0 1-4.533-10.698l-.567-.567a15.982 15.982 0 0 0-4.928 1.278z" fill="url(#a)" style="mix-blend-mode:multiply"/><path d="M136 61.125l-10.008 8.548-.913.78L115.071 79l-15.64-18.312 10.008-8.548.912-.78 10.009-8.548L136 61.125zm-34.95-.308l14.148 16.565 9.136-7.803-14.148-16.564-9.136 7.802zm24.196 7.983l9.135-7.802-14.148-16.565-9.135 7.803L125.246 68.8z" fill="#fff"/><path d="M125.966 58.979l2.274-.38-1.824 5.433-1.596-1.869-2.235-2.616-2.871-3.362 7.787-1.48-1.535 4.274zm.007 2.766l.574-1.7-1.028.172-.251.703.705.825zm-1.563-1.83l1.332-3.709-3.872.736 2.54 2.973zm-5.196-2.553l5.96 6.978a.577.577 0 0 1-.066.81.575.575 0 0 1-.807-.065l-5.96-6.977a.572.572 0 0 1 .064-.806.573.573 0 0 1 .809.06zm-4.07 15.544a.573.573 0 1 1-.87.743.573.573 0 1 1 .87-.743zm-1.488-1.743a.573.573 0 1 1-.871.74.573.573 0 0 1 .871-.74zm-1.492-1.747a.574.574 0 0 1-.061.81.573.573 0 1 1 .061-.81zm-1.489-1.743a.574.574 0 0 1-.061.81.573.573 0 1 1 .061-.81zm-1.49-1.744a.572.572 0 1 1-.867.744.572.572 0 0 1 .867-.744zm3.374 2.181l-2.871-3.36 7.783-1.48-1.534 4.275 2.276-.382-1.823 5.433-1.596-1.869-2.235-2.616zm-.718-2.602l2.54 2.974 1.332-3.71-3.872.736zm4.103 4.804l.573-1.7-1.025.17-.253.705.705.825zm1.633-21.885a.575.575 0 0 1 .527.617l-.228 2.86 1.144.09a.575.575 0 0 1 .527.616.575.575 0 0 1-.617.527l-1.713-.134a.575.575 0 0 1-.527-.617l.27-3.432a.574.574 0 0 1 .617-.527zm-10.315 13.078a.572.572 0 0 1-.527-.617l-.002-.002.092-1.142-1.144-.09a.575.575 0 0 1 .09-1.144l1.141.093.09-1.144a.575.575 0 0 1 1.144.09l-.09 1.144 1.142.087.002.003a.575.575 0 0 1-.09 1.144l-1.144-.09-.087 1.141a.574.574 0 0 1-.617.527z" fill="#fff"/><path d="M-5.896 82.871l1.74-.694.58-.232.58-.231c.632 1.584 2.448 2.354 4.047 1.715 1.6-.638 2.386-2.446 1.753-4.03l.58-.232.58-.231 1.74-.695 9.957 1.357.202 7.247-3.94.24 5.276 13.218-16.241 6.482-5.276-13.218-3.021 2.538-4.843-5.396 6.286-7.838zM-7.21 94.38l2.09-1.757 1.326-1.114.637 1.595 4.816 12.068 13.921-5.556-4.816-12.068-.636-1.595 1.728-.105 2.726-.166-.14-4.999-8.586-1.17-1.601.64a4.368 4.368 0 0 1-2.745 4.426 4.367 4.367 0 0 1-5.038-1.32l-1.601.638-5.422 6.761 3.34 3.722z" fill="url(#b)" style="mix-blend-mode:multiply"/><path d="M5.74 92.502l.364-2.188 4.399 3.32-2.21.882L5.2 95.75l-3.977 1.588 1.09-7.54 3.428 2.704zm2.255.8l-1-.754-.138.835.314.248.824-.329zm-2.16.862l-2.599-2.05-.474 3.277 3.073-1.227z" fill="url(#c)" style="mix-blend-mode:multiply"/><g clip-path="url(#d)"><path d="M51.95 228l9.05 8.727 6.859-6.614c1.366-1.318 3.583-1.318 4.95 0a3.306 3.306 0 0 1 1.025 2.387c0 .863-.342 1.728-1.026 2.387L65.95 241.5l9.05 8.727L70.05 255 61 246.273l-7.883 7.602h-4.95v-4.773l7.883-7.602-9.05-8.727L51.95 228zm9.875 9.523l1.234 1.189 5.208-5.022-1.233-1.19-5.209 5.023zm10.159-3.432a2.196 2.196 0 0 0 0-3.182 2.399 2.399 0 0 0-3.3 0l-.825.796 3.3 3.182.825-.796zm-1.65 1.591l-1.242-1.197-5.208 5.023 1.24 1.197 5.21-5.023zm3.016 14.545l-1.625-1.568-.825.796a.598.598 0 0 1-.825 0 .55.55 0 0 1 0-.796l.825-.795-1.65-1.591-.825.795a.598.598 0 0 1-.825 0 .548.548 0 0 1 0-.795l.825-.796-1.65-1.591-.825.795v.001a.6.6 0 0 1-.825 0 .549.549 0 0 1 0-.796l.825-.795-1.65-1.591-.825.795a.598.598 0 0 1-.825 0 .548.548 0 0 1 0-.795l.825-.795-1.65-1.591-.825.795a.598.598 0 0 1-.825 0 .548.548 0 0 1 0-.795v-.001l.825-.795-1.65-1.591-.825.796a.6.6 0 0 1-.825 0 .55.55 0 0 1 0-.796l.825-.795-1.65-1.592-.825.796a.598.598 0 0 1-.825 0 .549.549 0 0 1 0-.796l.825-.795-1.65-1.591-.824.795a.598.598 0 0 1-.826 0 .548.548 0 0 1 0-.795l.825-.796-1.625-1.567-3.3 3.182 21.4 20.636 3.3-3.182zm-24.017 2.524h.967l-.967-.933v.933zm0-3.183v.66l2.617 2.523h.683l7.542-7.274-1.241-1.196-5.821 5.613a.598.598 0 0 1-.825 0 .548.548 0 0 1 0-.795l5.82-5.614-1.233-1.19-7.542 7.273z" fill="#fff"/></g><g clip-path="url(#e)"><path d="M150.95 129l9.05 8.727 6.859-6.614c1.366-1.318 3.582-1.318 4.949 0a3.305 3.305 0 0 1 1.026 2.387c0 .863-.342 1.728-1.026 2.387l-6.858 6.613 9.05 8.727-4.95 4.773-9.05-8.727-7.884 7.602h-4.95v-4.773l7.884-7.602-9.05-8.727 4.95-4.773zm9.875 9.523l1.234 1.189 5.208-5.022-1.233-1.19-5.209 5.023zm10.159-3.432c.44-.425.683-.99.683-1.591s-.243-1.166-.683-1.591a2.398 2.398 0 0 0-3.3 0l-.825.796 3.3 3.182.825-.796zm-1.65 1.591l-1.242-1.197-5.208 5.023 1.241 1.197 5.209-5.023zm3.016 14.545l-1.625-1.568-.825.796a.598.598 0 0 1-.825 0 .549.549 0 0 1 0-.796h.001l.824-.795-1.65-1.591-.825.795a.598.598 0 0 1-.825 0 .548.548 0 0 1 0-.795l.825-.796-1.65-1.591-.825.795v.001a.6.6 0 0 1-.825 0 .549.549 0 0 1 0-.796l.825-.795-1.65-1.591-.825.795a.598.598 0 0 1-.825 0 .548.548 0 0 1 0-.795l.825-.795-1.65-1.591-.825.795a.598.598 0 0 1-.825 0 .548.548 0 0 1 0-.795v-.001l.825-.795-1.65-1.591-.825.796a.6.6 0 0 1-.825 0 .549.549 0 0 1 0-.796l.825-.795-1.65-1.592-.825.796a.598.598 0 0 1-.825 0 .55.55 0 0 1 0-.796h.001l.824-.795-1.65-1.591-.824.795h-.001a.598.598 0 0 1-.825 0 .55.55 0 0 1 0-.795l.825-.796-1.625-1.567-3.3 3.182 21.4 20.636 3.3-3.182zm-24.017 2.524h.967l-.967-.933v.933zm0-3.183v.66l2.617 2.523h.683l7.542-7.274-1.241-1.196-5.821 5.613a.598.598 0 0 1-.825 0 .548.548 0 0 1 0-.795l5.821-5.614-1.234-1.19-7.542 7.273z" fill="url(#f)" style="mix-blend-mode:multiply"/></g><path d="M149.273 191c7.029 0 12.727 5.671 12.727 12.667 0 2.307-.62 4.469-1.703 6.333a12.563 12.563 0 0 1 1.703 6.333c0 6.996-5.698 12.667-12.727 12.667-4.749 0-8.89-2.588-11.077-6.425C131.889 221.823 127 216.48 127 210c0-6.48 4.889-11.823 11.196-12.575A12.731 12.731 0 0 1 149.273 191zm-11.899 29.836a12.584 12.584 0 0 1-.828-4.503c0-2.307.619-4.469 1.703-6.333a12.563 12.563 0 0 1-1.703-6.333c0-1.586.293-3.103.828-4.503a11.104 11.104 0 0 0-5.521 2.999A11.028 11.028 0 0 0 128.59 210a11.028 11.028 0 0 0 3.263 7.837 11.104 11.104 0 0 0 5.521 2.999zm1.828-21.907a10.955 10.955 0 0 0-1.066 4.738 10.95 10.95 0 0 0 1.121 4.851 12.721 12.721 0 0 1 9.616-4.844c-.376-.537-.8-1.043-1.271-1.511a11.115 11.115 0 0 0-8.4-3.234zm10.596 6.334a11.094 11.094 0 0 0-4.859.857 11.124 11.124 0 0 0-4.807 3.88 11.124 11.124 0 0 0 9.666 4.737 10.958 10.958 0 0 0 1.066-4.737 10.958 10.958 0 0 0-1.066-4.737zm2.656 4.737c0 1.585-.293 3.103-.828 4.502a11.12 11.12 0 0 0 5.521-2.998c.47-.467.892-.969 1.266-1.504a11.01 11.01 0 0 0-1.266-1.504 11.12 11.12 0 0 0-5.521-2.998c.535 1.399.828 2.917.828 4.502zm-3.581 6.326a12.721 12.721 0 0 1-9.616-4.844 10.95 10.95 0 0 0-1.121 4.851 10.955 10.955 0 0 0 1.066 4.738 11.094 11.094 0 0 0 4.859-.858 11.108 11.108 0 0 0 3.541-2.376c.471-.468.895-.974 1.271-1.511zm10.416-4.844a12.719 12.719 0 0 1-8.485 4.759 12.733 12.733 0 0 1-10.677 6.419 11.17 11.17 0 0 0 4.812 3.886c1.371.578 2.829.871 4.334.871 1.504 0 2.962-.293 4.334-.871a11.087 11.087 0 0 0 3.54-2.376 11.028 11.028 0 0 0 3.263-7.837 10.968 10.968 0 0 0-1.121-4.851zm-5.682-18.028a11.102 11.102 0 0 0-4.334-.871c-1.505 0-2.963.293-4.334.871a11.091 11.091 0 0 0-3.541 2.376 11.11 11.11 0 0 0-1.271 1.51c4.58.141 8.551 2.69 10.677 6.419a12.719 12.719 0 0 1 8.485 4.759 10.967 10.967 0 0 0 1.12-4.851c0-1.497-.294-2.949-.874-4.314a11.044 11.044 0 0 0-2.388-3.523 11.087 11.087 0 0 0-3.54-2.376z" fill="url(#g)" style="mix-blend-mode:multiply"/><path d="M145.093 283.951l-5.053-7.345-2.166-3.148-5.053-7.346 24.463-18.375L171 267.674l-25.907 16.277zm.358-1.728l2.158-1.357-4.421-6.426-2.098 1.444 4.361 6.339zm-5.084-7.389l4.198-2.887-.722-1.05-4.197 2.888.721 1.049zm-1.443-2.098l2.099-1.444-4.422-6.427-2.038 1.531 4.361 6.34zm18.063-23.183l-19.366 14.546 4.451 6.471 2.099-1.444a.636.636 0 0 1 .721 1.049.638.638 0 0 1 .722 1.05.637.637 0 1 1 .722 1.049l-2.098 1.444 4.451 6.47 20.509-12.885-12.211-17.75z" fill="#fff"/><path d="M151.096 268.705l2.676-5.555-3.124.195 3.227-7.081 1.891 2.749 2.647 3.847 3.403 4.948-10.72.897zm3.005-9.864l-1.413 3.1 1.719-.106.722-1.5-1.028-1.494zm1.859 2.703l-2.749 5.706 6.312-.528-3.563-5.178z" fill="#fff"/><g clip-path="url(#h)"><path d="M25.364 23.715a4.073 4.073 0 0 1 3.978 4.95l2.7 2.699 7.325-7.325a3.25 3.25 0 0 1 4.595 4.595l-7.326 7.325 8.344 8.344c.423.423.634.977.634 1.531a2.167 2.167 0 0 1-3.698 1.532l-8.343-8.344-7.892 7.893h-4.595v-4.596l7.892-7.892-2.676-2.675c-.301.071-.615.11-.938.11-4.613 0-4.979-6.803-4.979-9.052 0-2.25 2.73.905 4.979.905zm18.467 2.62a2.15 2.15 0 0 0-.635-1.53 2.17 2.17 0 0 0-3.063 0l-.766.765 3.064 3.064.765-.766c.41-.41.635-.953.635-1.532zm-1.149 20.266a1.085 1.085 0 0 0 1.85-.767c0-.289-.113-.56-.318-.766l-8.343-8.343-1.532 1.532 8.343 8.344zm-20.513-.77h.897l-.897-.897v.897zm0-3.063v.634l2.429 2.429h.634l16.432-16.432-1.152-1.152-14.834 14.835a.541.541 0 1 1-.766-.766l14.835-14.835-1.146-1.145L22.17 42.768zm7.575-9.106l1.531-1.532-2.355-2.356a4.094 4.094 0 0 1-1.521 1.543l2.345 2.345zm-7.573-5.829c.317.942.73 1.668 1.229 2.158.537.53 1.18.787 1.964.787.798 0 1.549-.31 2.114-.876a2.971 2.971 0 0 0 .875-2.114 2.993 2.993 0 0 0-2.99-2.99c-1.232 0-2.435-.657-3.4-1.186-.145-.078-.32-.173-.487-.26.03 1.166.173 2.932.695 4.481z" fill="url(#i)" style="mix-blend-mode:multiply"/></g><g clip-path="url(#j)"><path d="M85.553 114.494L71.983 66.6l10.284-2.915 13.57 47.895-10.284 2.914zM74.18 67.828l.958 3.377 1.714-.486a.893.893 0 0 1 1.1.614.893.893 0 0 1-.614 1.1l-1.714.486.971 3.428 1.713-.485a.89.89 0 1 1 .487 1.714l-1.715.485.972 3.428 1.714-.484a.89.89 0 1 1 .486 1.713l-1.714.486.971 3.428 1.714-.486a.892.892 0 0 1 .486 1.715l-1.714.485.971 3.429 1.714-.486a.891.891 0 0 1 .486 1.714l-1.715.486.972 3.428 1.715-.486a.89.89 0 1 1 .485 1.714l-1.714.486.972 3.429 1.713-.486a.892.892 0 0 1 .487 1.714h-.002l-1.713.486.971 3.428 1.713-.485v-.001a.892.892 0 0 1 .487 1.715l-1.713.486.956 3.377 6.857-1.943-12.6-44.466-6.857 1.943z" fill="url(#k)" style="mix-blend-mode:multiply"/></g><path d="M157.217 73.757l17.405 14.047a.487.487 0 0 1 .073.684l-9.772 12.107a.485.485 0 0 1-.683.073l-6.28-5.068-1.379 2.636.151.122a.487.487 0 0 1-.611.757l-6.054-4.886a.485.485 0 1 1 .611-.757l.151.122 2.286-1.904-6.281-5.069a.486.486 0 0 1-.072-.683l9.771-12.108a.487.487 0 0 1 .684-.073zm-1.408 23.856l1.377-2.632-3.301-2.666-2.284 1.902 4.208 3.396zm1.176-22.793l-7.939 9.837 16.647 13.435 7.939-9.837-16.647-13.435zm-.837 18.068l8.323 6.718.611-.757-8.324-6.718-8.323-6.717-.611.757 8.324 6.717z" fill="url(#l)" style="mix-blend-mode:multiply"/><path d="M156.075 92.205a.485.485 0 1 1 .756.608.485.485 0 0 1-.756-.608z" fill="url(#m)" style="mix-blend-mode:multiply"/><path d="M171.276 88.852l-11.35-9.16-.001-.001a.487.487 0 0 1 .611-.757l11.351 9.16a.487.487 0 0 1-.611.758z" fill="url(#n)" style="mix-blend-mode:multiply"/><path d="M170.054 90.365l-6.053-4.885a.485.485 0 1 1 .61-.757l6.054 4.885a.487.487 0 1 1-.611.757z" fill="url(#o)" style="mix-blend-mode:multiply"/><path d="M168.832 91.88l-8.323-6.717a.485.485 0 1 1 .611-.757l8.323 6.717a.486.486 0 1 1-.611.757z" fill="url(#p)" style="mix-blend-mode:multiply"/><path d="M167.611 93.392l-5.296-4.274a.486.486 0 1 1 .611-.757l5.296 4.274a.487.487 0 1 1-.611.757z" fill="url(#q)" style="mix-blend-mode:multiply"/><path d="M166.39 94.906l-9.837-7.94v.001a.487.487 0 1 1 .611-.757L167 94.15a.486.486 0 1 1-.61.756z" fill="url(#r)" style="mix-blend-mode:multiply"/><path d="M165.168 96.42l-3.026-2.443a.486.486 0 1 1 .611-.757l3.026 2.442a.487.487 0 0 1-.611.757z" fill="url(#s)" style="mix-blend-mode:multiply"/><path d="M32.886 163.286l4 3.8-13.009 4.325 1.28-5.737 1.791-8.032 2.303-10.326 14.016 12.763-10.381 3.207zm-6.426 5.265l6.824-2.269-2.478-2.354-3.56 1.1-.786 3.523zm1.262-5.658l11.81-3.647-9.14-8.323-2.67 11.97z" fill="#fff"/><path d="M57.92 153.712l1.893.422a.959.959 0 0 1 .74 1.137.96.96 0 0 1-1.153.716l-1.893-.422-.827 3.707 1.893.422a.96.96 0 0 1 .74 1.137.959.959 0 0 1-1.153.716l-1.893-.422-.827 3.707 1.893.422a.96.96 0 0 1 .74 1.137.96.96 0 0 1-1.153.717l-1.893-.423-.827 3.707 1.893.422a.96.96 0 0 1 .74 1.138.96.96 0 0 1-1.153.716l-1.893-.422-.827 3.707 1.893.422a.959.959 0 0 1 .74 1.137.96.96 0 0 1-1.154.717l-1.893-.423-1.24 5.561-41.645-9.289 7.855-35.215 41.645 9.288-1.24 5.561zm-38.963-12.583l-7.028 31.509 37.937 8.462.827-3.707-1.814-.405a.96.96 0 0 1-.74-1.138.96.96 0 0 1 1.153-.715l1.814.404.827-3.707-1.814-.404a.96.96 0 0 1-.74-1.138.96.96 0 0 1 1.154-.716l1.813.405.827-3.707-1.814-.405a.96.96 0 0 1-.74-1.138.96.96 0 0 1 1.154-.715l1.813.404.827-3.706-1.813-.405a.96.96 0 0 1-.74-1.138.96.96 0 0 1 1.153-.715l1.814.405.827-3.708-1.814-.404a.96.96 0 0 1-.74-1.139.958.958 0 0 1 1.153-.714l1.814.404.827-3.707-37.937-8.462z" fill="#fff"/><path d="M131.565 142.769l-20.005 22.736a.658.658 0 0 1-.929.06l-15.817-13.916a.66.66 0 0 1-.06-.93l7.219-8.203-3.486-2.018-.174.198a.659.659 0 0 1-.989-.87l6.958-7.909a.658.658 0 0 1 .989.87l-.174.198 2.444 3.202 7.219-8.205a.66.66 0 0 1 .929-.059l15.817 13.917c.273.24.299.656.059.929zm-32.192-3.279l3.482 2.015 3.797-4.313-2.442-3.199-4.837 5.497zm25.826-1.446l-2.609 2.966 4.942 4.349 2.61-2.966-4.943-4.349zm-3.598 2.096l2.609-2.965-6.919-6.089-2.61 2.966 6.92 6.088zm5.062 6.207l-12.851-11.307-15.656 17.794 12.851 11.307 15.656-17.794zm-20.917-6.126l-9.568 10.873.989.87 9.567-10.873 9.568-10.875-.989-.869-9.567 10.874z" fill="url(#t)" style="mix-blend-mode:multiply"/><path d="M106.675 140.163a.657.657 0 1 1-.87.988.658.658 0 1 1 .87-.988z" fill="url(#u)" style="mix-blend-mode:multiply"/><path d="M110.445 146.86l2.982-3.389 2.621 7.652-4.541-.932.715 2.243-5.754-1.054 1.657-1.883 2.32-2.637zm3.611 2.51l-1.14-3.325-2.303 2.618 3.443.707zm-5.063 1.133l1.308.24-.273-.856-.417-.085-.618.701z" fill="url(#v)" style="mix-blend-mode:multiply"/><path d="M112.509 158.449l-.87.988-.988-.87.869-.988.989.87z" fill="url(#w)" style="mix-blend-mode:multiply"/><path d="M117.292 153.012l-.869.989-.989-.87.87-.988.988.869z" fill="url(#x)" style="mix-blend-mode:multiply"/><path d="M122.076 147.576l-.87.989-.989-.87.87-.989.989.87z" fill="url(#y)" style="mix-blend-mode:multiply"/><path d="M118.122 144.096l-.87.989-.989-.87.871-.989.988.87z" fill="url(#z)" style="mix-blend-mode:multiply"/><path d="M114.168 140.616l-.87.989-.989-.87.87-.989.989.87z" fill="url(#A)" style="mix-blend-mode:multiply"/><path d="M104.6 151.489l-.869.988-.989-.87.87-.988.988.87z" fill="url(#B)" style="mix-blend-mode:multiply"/><path d="M108.555 154.969l-.87.988-.988-.87.869-.988.989.87z" fill="url(#C)" style="mix-blend-mode:multiply"/><path d="M109.384 146.053l-.87.988-.989-.87.87-.988.989.87z" fill="url(#D)" style="mix-blend-mode:multiply"/><circle r="10.5" transform="matrix(0 -1 -1 0 91.5 15.5)" stroke="url(#E)" stroke-width="10" style="mix-blend-mode:multiply"/><path d="M141.22 12.803c-.27.53-4.008 4.31 2.405 5.58 6.414 1.27 6.788 4.795 5.336 10.482-1.452 5.687 1.655 7.878 4.338 9.125" stroke="url(#F)" stroke-width="8" stroke-linecap="round" stroke-linejoin="round" style="mix-blend-mode:multiply"/><defs><linearGradient id="a" x1="132.154" y1="249.455" x2="120.572" y2="288.749" gradientUnits="userSpaceOnUse"><stop stop-color="#FFC000"/><stop offset="1" stop-color="#FF8A00"/></linearGradient><linearGradient id="b" x1="-13.433" y1="86.523" x2="20.994" y2="85.254" gradientUnits="userSpaceOnUse"><stop stop-color="#FFC000"/><stop offset="1" stop-color="#FF8A00"/></linearGradient><linearGradient id="c" x1="-1.045" y1="91.308" x2="10.081" y2="91.754" gradientUnits="userSpaceOnUse"><stop stop-color="#FFC000"/><stop offset="1" stop-color="#FF8A00"/></linearGradient><linearGradient id="f" x1="173.323" y1="129.351" x2="164.659" y2="159.835" gradientUnits="userSpaceOnUse"><stop stop-color="#FFC000"/><stop offset="1" stop-color="#FF8A00"/></linearGradient><linearGradient id="g" x1="161.154" y1="191.494" x2="147.694" y2="233.555" gradientUnits="userSpaceOnUse"><stop stop-color="#FFC000"/><stop offset="1" stop-color="#FF8A00"/></linearGradient><linearGradient id="i" x1="45.004" y1="22.338" x2="36.181" y2="51.385" gradientUnits="userSpaceOnUse"><stop stop-color="#FFC000"/><stop offset="1" stop-color="#FF8A00"/></linearGradient><linearGradient id="k" x1="92.171" y1="117.005" x2="57.158" y2="81.247" gradientUnits="userSpaceOnUse"><stop stop-color="#FFC000"/><stop offset="1" stop-color="#FF8A00"/></linearGradient><linearGradient id="l" x1="156.765" y1="74.027" x2="171.256" y2="96.794" gradientUnits="userSpaceOnUse"><stop stop-color="#FFC000"/><stop offset="1" stop-color="#FF8A00"/></linearGradient><linearGradient id="m" x1="156.375" y1="91.853" x2="157.022" y2="92.788" gradientUnits="userSpaceOnUse"><stop stop-color="#FFC000"/><stop offset="1" stop-color="#FF8A00"/></linearGradient><linearGradient id="n" x1="160.301" y1="78.774" x2="158.517" y2="82.285" gradientUnits="userSpaceOnUse"><stop stop-color="#FFC000"/><stop offset="1" stop-color="#FF8A00"/></linearGradient><linearGradient id="o" x1="164.307" y1="84.507" x2="163.127" y2="88.084" gradientUnits="userSpaceOnUse"><stop stop-color="#FFC000"/><stop offset="1" stop-color="#FF8A00"/></linearGradient><linearGradient id="p" x1="160.845" y1="84.214" x2="159.324" y2="87.777" gradientUnits="userSpaceOnUse"><stop stop-color="#FFC000"/><stop offset="1" stop-color="#FF8A00"/></linearGradient><linearGradient id="q" x1="162.611" y1="88.137" x2="161.594" y2="91.701" gradientUnits="userSpaceOnUse"><stop stop-color="#FFC000"/><stop offset="1" stop-color="#FF8A00"/></linearGradient><linearGradient id="r" x1="156.907" y1="86.034" x2="155.236" y2="89.572" gradientUnits="userSpaceOnUse"><stop stop-color="#FFC000"/><stop offset="1" stop-color="#FF8A00"/></linearGradient><linearGradient id="s" x1="162.408" y1="92.972" x2="162.132" y2="96.293" gradientUnits="userSpaceOnUse"><stop stop-color="#FFC000"/><stop offset="1" stop-color="#FF8A00"/></linearGradient><linearGradient id="t" x1="131.226" y1="142.142" x2="99.592" y2="160.436" gradientUnits="userSpaceOnUse"><stop stop-color="#FFC000"/><stop offset="1" stop-color="#FF8A00"/></linearGradient><linearGradient id="u" x1="107.134" y1="140.589" x2="105.831" y2="141.411" gradientUnits="userSpaceOnUse"><stop stop-color="#FFC000"/><stop offset="1" stop-color="#FF8A00"/></linearGradient><linearGradient id="v" x1="118.481" y1="148.101" x2="107.81" y2="153.033" gradientUnits="userSpaceOnUse"><stop stop-color="#FFC000"/><stop offset="1" stop-color="#FF8A00"/></linearGradient><linearGradient id="w" x1="112.474" y1="158.441" x2="111.171" y2="159.262" gradientUnits="userSpaceOnUse"><stop stop-color="#FFC000"/><stop offset="1" stop-color="#FF8A00"/></linearGradient><linearGradient id="x" x1="117.257" y1="153.004" x2="115.954" y2="153.826" gradientUnits="userSpaceOnUse"><stop stop-color="#FFC000"/><stop offset="1" stop-color="#FF8A00"/></linearGradient><linearGradient id="y" x1="122.041" y1="147.567" x2="120.736" y2="148.39" gradientUnits="userSpaceOnUse"><stop stop-color="#FFC000"/><stop offset="1" stop-color="#FF8A00"/></linearGradient><linearGradient id="z" x1="118.087" y1="144.088" x2="116.782" y2="144.91" gradientUnits="userSpaceOnUse"><stop stop-color="#FFC000"/><stop offset="1" stop-color="#FF8A00"/></linearGradient><linearGradient id="A" x1="114.133" y1="140.608" x2="112.828" y2="141.43" gradientUnits="userSpaceOnUse"><stop stop-color="#FFC000"/><stop offset="1" stop-color="#FF8A00"/></linearGradient><linearGradient id="B" x1="104.565" y1="151.481" x2="103.262" y2="152.303" gradientUnits="userSpaceOnUse"><stop stop-color="#FFC000"/><stop offset="1" stop-color="#FF8A00"/></linearGradient><linearGradient id="C" x1="108.519" y1="154.961" x2="107.216" y2="155.782" gradientUnits="userSpaceOnUse"><stop stop-color="#FFC000"/><stop offset="1" stop-color="#FF8A00"/></linearGradient><linearGradient id="D" x1="109.348" y1="146.045" x2="108.045" y2="146.866" gradientUnits="userSpaceOnUse"><stop stop-color="#FFC000"/><stop offset="1" stop-color="#FF8A00"/></linearGradient><linearGradient id="E" x1="30.597" y1=".75" x2="-4.206" y2="11.008" gradientUnits="userSpaceOnUse"><stop stop-color="#FFC000"/><stop offset="1" stop-color="#FF8A00"/></linearGradient><linearGradient id="F" x1="153.221" y1="37.503" x2="136.278" y2="18.499" gradientUnits="userSpaceOnUse"><stop stop-color="#FFC000"/><stop offset="1" stop-color="#FF8A00"/></linearGradient><clipPath id="d"><path fill="#fff" transform="matrix(0 -1 -1 0 75 255)" d="M0 0h27v28H0z"/></clipPath><clipPath id="e"><path fill="#fff" transform="matrix(0 -1 -1 0 174 156)" d="M0 0h27v28H0z"/></clipPath><clipPath id="h"><path fill="#fff" transform="matrix(0 -1 -1 0 46 48)" d="M0 0h26v26H0z"/></clipPath><clipPath id="j"><path fill="#fff" transform="scale(1 -1) rotate(-29.18 -159.552 -153.97)" d="M0 0h42.758v42.758H0z"/></clipPath></defs></svg>