<svg width="50" height="50" viewBox="0 0 50 50" fill="none" xmlns="http://www.w3.org/2000/svg"><path d="M49.023 4.883v40.234a3.906 3.906 0 0 1-3.906 3.906H4.883a3.906 3.906 0 0 1-3.906-3.906V4.883A3.906 3.906 0 0 1 4.883.977h40.234a3.906 3.906 0 0 1 3.906 3.906z" fill="#FFB42D"/><path d="M25 11.328c8.63 0 15.625 6.995 15.625 15.625 0 8.63-6.995 15.625-15.625 15.625-3.095 0-5.978-.9-8.405-2.451l-7.048 2.28 2.28-7.049a15.55 15.55 0 0 1-2.452-8.405c0-8.63 6.995-15.625 15.625-15.625z" fill="#fff"/><path d="M34.445 31.642a1.095 1.095 0 0 1 0 1.551l-.775.776c-1.713 1.714-8.125 1.181-12.409-3.102-4.283-4.283-4.815-10.695-3.1-12.408l.774-.776a1.097 1.097 0 0 1 1.551 0l3.103 3.102a1.099 1.099 0 0 1 0 1.552l-.776.775a2.191 2.191 0 0 0 0 3.102l3.102 3.102a2.193 2.193 0 0 0 3.101 0l.777-.775a1.096 1.096 0 0 1 1.55 0l3.102 3.101z" fill="#FFB42D"/></svg>