<svg width="309" height="415" viewBox="0 0 309 415" fill="none" xmlns="http://www.w3.org/2000/svg"><ellipse cx="153.608" cy="396.276" rx="148.311" ry="17.877" fill="#EC9500"/><path d="M179.499 11.991c-4.582 19.334-43.739 45.699-79.77 63.046l31.198 4.052 68.316-37.687c-3.205-7.482-18.314-22.38-19.744-29.41z" fill="#FFC289"/><path d="M129.921 399.507c-59.907 0-87.954-3.549-106.639-25.504-19.995-23.505-27.08-59.947-19.837-75.626 2.437-5.283 6.436-8.077 11.56-8.077 6.873 0 9.548 3.985 12.647 8.58 4.357 6.476 9.283 13.825 27.769 13.825 2 0 4.038.053 6.091.093 2.092.053 4.198.093 6.317.093 30.258 0 61.045-12.183 76.075-157.753-8.422-4.105-33.012-19.837-27.186-61.126 5.046-35.753 38.733-55.047 67.879-55.047 52.69 0 81.121 23.266 86.921 71.123 1.563 12.898 5.416 27.623 9.892 44.666 7.945 30.298 17.824 68.024 17.824 110.717 0 45.433-3.311 80.233-19.44 102.374-15.824 21.73-44.096 31.41-91.674 31.41-11.733 0-22.499.067-32.92.133-8.978.066-17.387.119-25.279.119z" fill="#fff"/><path d="M184.584 39.654c58.675 0 81.28 29.437 86.259 70.54 4.436 36.614 27.715 89.397 27.715 155.303 0 94.469-14.672 133.123-110.452 133.123-22.021 0-41.275.238-58.172.238-56.637 0-86.855-2.608-106.149-25.279-25.04-29.437-30.761-82.604-8.793-82.604 15.811 0 8.343 22.406 40.428 22.406 4.04 0 8.197.198 12.408.198 29.279 0 61.417-9.388 76.791-158.812-15.811-7.469-32.072-26.365-27.239-60.635 4.807-34.271 36.893-54.478 67.204-54.478zm0-1.325c-29.424 0-63.443 19.493-68.541 55.617-2.251 15.917-.212 29.768 6.025 41.183 6.105 11.15 14.685 17.228 21.108 20.419-6.913 66.621-17.665 110.439-32.88 133.931-13.613 21.015-29.067 22.763-42.494 22.763-2.119 0-4.25-.053-6.303-.093a234.462 234.462 0 0 0-6.105-.093c-18.142 0-22.962-7.19-27.226-13.533-3.072-4.569-5.972-8.885-13.202-8.885-5.39 0-9.6 2.926-12.156 8.461-7.323 15.851-.212 52.651 19.93 76.328 18.856 22.167 47.035 25.742 107.154 25.742 7.892 0 16.341-.053 25.266-.106 10.408-.066 21.174-.132 32.906-.132 47.818 0 76.262-9.773 92.218-31.688 16.235-22.287 19.559-57.206 19.559-102.772 0-42.785-9.892-80.539-17.85-110.876-4.463-17.016-8.317-31.728-9.866-44.573-2.754-22.71-10.408-39.554-23.412-51.499-14.579-13.4-36.164-20.194-64.131-20.194z" fill="#6B6B6B"/><path opacity=".5" d="M215.901 198.373c-22.776-30.761-59.748-44.242-65.959-11.414-15.241 80.511-6.7 63.138-30.311 87.636l-22.22 56.848s73.242 7.574 101.832-22.882c54.809-22.353 37.74-81.731 16.658-110.188z" fill="#6B6B6B"/><path d="M175.076 116.621c.91-2.857-2.178-6.391-6.896-7.893-4.718-1.501-9.28-.403-10.189 2.455-.91 2.857 2.178 6.391 6.896 7.892 4.718 1.502 9.28.403 10.189-2.454z" fill="#2F2F2F"/><path d="M164.244 117.146c-1.841 12.037-5.588 22.803 11.322 26.22 6.157 1.244 12.275.582 14.99-3.576 2.714-4.158-1.126-10.527-7.045-7.985" stroke="#2F2F2F" stroke-width="2" stroke-miterlimit="10" stroke-linecap="round" stroke-linejoin="round"/><path d="M162.774 133.13c-3.8 7.561-21.545 6.369-20.062-4.635.702-5.244 7.244-5.31 8.131-4.688" stroke="#2F2F2F" stroke-width="2" stroke-miterlimit="10" stroke-linecap="round" stroke-linejoin="round"/><path d="M187.418 94.357c-5.152 7.097 2.277 16.182 11.613 22.961 9.336 6.767 19.545 10.819 24.696 3.735 5.152-7.098.57-22.843-8.766-29.61-9.349-6.78-22.405-4.184-27.543 2.914z" fill="#2F2F2F"/><path d="M207.904 110.247c-6.621-6.621-15.203-5.853-15.203-5.853" stroke="#fff" stroke-width="2" stroke-miterlimit="10" stroke-linecap="round" stroke-linejoin="round"/><path d="M162.906 85.087c1.669 9.164-7.945 11.852-18.366 14.434-10.422 2.582-20.565 2.807-22.287-4.145-1.721-6.952 7.998-17.797 18.42-20.38 10.421-2.581 20.949 3.047 22.233 10.091z" fill="#2F2F2F"/><path d="M151.664 92.874c-6.661-4.477-15.269-1.828-15.269-1.828" stroke="#fff" stroke-width="2" stroke-miterlimit="10" stroke-linecap="round" stroke-linejoin="round"/><path opacity=".5" d="M270.843 110.181c-2.993 42.785-50.943 46.202-36.005 57.749 11.494 8.872 33.078 12.487 51.313 8.091-6.317-25.65-13.11-47.725-15.308-65.84z" fill="#6B6B6B"/><path d="M135.138 220.819c22.167 0 52.227-27.981 82.683-1.576-16.38 9.335-32.8 9.335-32.8 9.335-26.948 28.113-46.864 47.447-80.552 47.447-21.823 0-32.814-17.917-31.661-31.636 5.005-59.311 64.171-55.947 71.785-89.635-3.231 33.82-9.455 66.065-9.455 66.065z" fill="#2F2F2F"/><path d="M262.354 163.547c-27.53 0-26.139 43.831-44.519 55.696-16.381 9.335-32.801 9.335-32.801 9.335-11.521 12.011-21.744 22.419-32.324 30.404 0 0 10.938 25.253 60.728 25.253s87.875-25.782 87.875-73.666c0-24.021-14.355-47.022-38.959-47.022z" fill="#2F2F2F"/><path d="M217.835 219.243c-16.381 9.336-32.801 9.336-32.801 9.336-11.521 12.01-21.744 22.418-32.324 30.403" stroke="#fff" stroke-miterlimit="10" stroke-linecap="round" stroke-linejoin="round"/><path d="M162.562 213.522c-16.632-13.507-48.717-27.795-49.154 0 7.177 6.926 16.301 7.297 21.73 7.297 5.429 0 15.202-2.649 27.424-7.297z" fill="#2F2F2F"/><path d="M138.753 199.87c-13.096-4.595-25.081-3.271-25.345 13.652 7.177 6.926 16.301 7.297 21.73 7.297" stroke="#fff" stroke-miterlimit="10" stroke-linecap="round" stroke-linejoin="round"/><path d="M239.499 301.953c-43.5 0-52.995 18.009-84.802 18.009-27.345 0-41.289-22.684-35.065-45.367-19.122 44.016-43.262 38.786-64.211 38.786-32.073 0-24.604-22.406-40.415-22.406-21.969 0-16.261 53.167 8.793 82.604 25.04 29.437 68.54 25.041 164.321 25.041 43.314 0 70.05-7.905 86.325-25.306 30.549-46.863-11.561-71.361-34.946-71.361z" fill="#2F2F2F"/><path d="M124.372 350.949c0 26.444-2.119 47.896-9.64 47.896-7.522 0-17.573-21.439-17.573-47.896 0-26.445 0-47.897 13.6-47.897 11.004.013 13.613 21.452 13.613 47.897zM22.435 338.104c7.164 25.464 27.106 45.367 19.585 45.367-7.522 0-24.048-15.083-34.059-42.865-9.335-25.901-3.257-46.029 3.205-46.029 8.342-.013 3.708 16.632 11.269 43.527z" fill="#FFB42D"/><path d="M262.738 99.865c-27.675-9.666-59.311-49.207-73.546-97.104 0 0-5.972-1.761-12.13-1.761-19.333 25.478-50.081 47.897-86.55 63.708l9.23 10.329c36.031-17.36 75.188-43.726 79.77-63.046 6.78 33.397 34.469 75.466 74.884 93.754 14.844-2.41 47.009-14.99 47.009-14.99L308 84.928l-45.262 14.937z" fill="#FFD1A7"/><path d="M262.739 99.865c-27.676-9.666-59.312-49.207-73.547-97.104l48.413 9.23C250.437 38.356 270.207 68.667 308 84.928c-19.347 7.032-45.261 14.937-45.261 14.937z" fill="#FFAA5B" stroke="#FF7A00" stroke-miterlimit="10" stroke-linecap="round" stroke-linejoin="round"/><path d="M90.499 64.721c36.468-15.811 67.217-38.23 86.55-63.708 6.158 0 12.13 1.762 12.13 1.762 14.235 47.896 45.87 87.437 73.546 97.104" stroke="#FF7A00" stroke-miterlimit="10" stroke-linecap="round" stroke-linejoin="round"/></svg>