<svg width="33" height="33" viewBox="0 0 33 33" fill="none" xmlns="http://www.w3.org/2000/svg"><path d="M.55 32.45V.55h8.8V2.2H2.2v28.6h17.6l3.3-3.3v-7.68l1.65-1.65v14.28H.55z" fill="#ACABB1"/><path d="M21.491 18.317l4.668-4.667-.39-.39 3.111-3.11.39.389.777-.778 1.556 1.555-8.469 8.47-.065.047-.055.05-2.3.767.777-2.333z" fill="#D80027"/><path d="M19.8 27.5h3.3l-3.3 3.3v-3.3z" fill="#80764D"/><path d="M2.2 30.8V2.2h7.15v1.65h6.6V2.2h7.15v14.508l-1.609 1.609-.777 2.333 2.386-.795V27.5h-3.3v3.3H2.2z" fill="#FFEB99"/><path d="M23.1 2.2h-7.15V.55h8.8v14.508l-1.65 1.65V2.2z" fill="#ACABB1"/><path d="M9.35.55h6.6v3.3h-6.6V.55z" fill="#006DF0"/><path d="M31.994 10.929l-1.557-1.557a.554.554 0 0 0-.781 0l-.385.39a.554.554 0 0 0-.781 0l-3.108 3.108a.527.527 0 0 0-.082.121V.55a.55.55 0 0 0-.55-.55H.55A.55.55 0 0 0 0 .55v31.9c0 .304.246.55.55.55h24.2a.55.55 0 0 0 .55-.55V18.398l6.694-6.694a.55.55 0 0 0 0-.775zM25.3 13.53a.53.53 0 0 0 .082.12l-.082.078v-.198zM16.5 1.1h7.7v13.728l-.55.55V2.2a.55.55 0 0 0-.55-.55h-6.6V1.1zm-6.6 0h5.5v2.2H9.9V1.1zm-.55 3.3h6.6a.55.55 0 0 0 .55-.55v-1.1h6.05v13.728l-1.446 1.452a.538.538 0 0 0-.133.215l-.78 2.332a.55.55 0 0 0 .132.56.558.558 0 0 0 .39.165c.06 0 .12-.01.176-.032l1.661-.55v6.33H19.8a.55.55 0 0 0-.55.55v2.75H2.75V2.75H8.8v1.1c0 .304.246.55.55.55zm12.424 23.65l-1.424 1.424V28.05h1.424zM24.2 31.9H1.1V1.1h7.7v.55H2.2a.55.55 0 0 0-.55.55v28.6c0 .304.246.55.55.55h17.6a.547.547 0 0 0 .209-.044.569.569 0 0 0 .181-.116l3.3-3.3a.569.569 0 0 0 .116-.181.547.547 0 0 0 .044-.209v-7.452l.55-.55V31.9zm-1.43-12.529c-.011.011-.027.017-.038.027l-1.15.38.39-1.166 4.576-4.576a.55.55 0 0 0 0-.776l2.332-2.331a.55.55 0 0 0 .776 0l.39-.39.781.78-8.057 8.052z" fill="#000"/><path d="M4.4 9.35h16.5v1.1H4.4v-1.1zm0 3.85h16.5v1.1H4.4v-1.1zm0 4.4h14.3v1.1H4.4v-1.1zm0 3.85h14.3v1.1H4.4v-1.1zm6.05-19.8h1.1v1.1h-1.1v-1.1zm3.3 0h1.1v1.1h-1.1v-1.1zM4.4 28.05h1.1v1.1H4.4v-1.1zm2.2 0h2.2v1.1H6.6v-1.1zM4.4 26.4h4.4v1.1H4.4v-1.1zm7.15-1.65h1.1v1.1h-1.1v-1.1zm1.65 0h3.85v1.1H13.2v-1.1zm-1.65 1.65h5.5v1.1h-5.5v-1.1zm0 1.65h5.5v1.1h-5.5v-1.1z" fill="#000"/></svg>