<svg width="33" height="33" viewBox="0 0 33 33" fill="none" xmlns="http://www.w3.org/2000/svg"><path d="M32.45 7.7v17.6a1.104 1.104 0 0 1-1.1 1.1H1.65a1.104 1.104 0 0 1-1.1-1.1V7.7h31.9z" fill="#EBE5DD"/><path d="M32.45 7.7v17.6a1.104 1.104 0 0 1-1.1 1.1H29.7a1.104 1.104 0 0 0 1.1-1.1V7.7h1.65z" fill="#D9CCBC"/><path d="M.55 3.3h31.9v4.4H.55V3.3z" fill="#57A4FF"/><path d="M30.8 3.3h1.65v4.4H30.8V3.3z" fill="#2488FF"/><path d="M25.85 20.9h3.3v3.3h-3.3v-3.3zm0-5.5h3.3v3.3h-3.3v-3.3zm0-5.5h3.3v3.3h-3.3V9.9z" fill="#57A4FF"/><path d="M29.15 3.3v.55a1.65 1.65 0 0 1-3.3 0V.55h3.3V3.3z" fill="#00D7DF"/><path d="M24.75 24.2a8.25 8.25 0 0 1-16.5 0 8.21 8.21 0 0 1 2.107-5.5 8.228 8.228 0 0 1 12.287 0 8.21 8.21 0 0 1 2.106 5.5z" fill="#FFEB99"/><path d="M24.75 24.2a8.241 8.241 0 0 1-8.25 8.25 9.06 9.06 0 0 1-.55-.016 8.25 8.25 0 0 0 0-16.462c.182-.016.363-.022.55-.022a8.26 8.26 0 0 1 8.25 8.25z" fill="#FFCD00"/><path d="M23.65 15.4v3.3h-1.006a8.304 8.304 0 0 0-2.294-1.8v-1.5h3.3zm-3.3-5.5h3.3v3.3h-3.3V9.9zm-5.5 0h3.3v3.3h-3.3V9.9zm1.65 15.95a1.65 1.65 0 1 0 0-3.3 1.65 1.65 0 0 0 0 3.3zM12.65 15.4v1.5a8.305 8.305 0 0 0-2.293 1.799H9.35v-3.3h3.3zm-3.3-5.5h3.3v3.3h-3.3V9.9zm-5.5 11h3.3v3.3h-3.3v-3.3zm0-5.5h3.3v3.3h-3.3v-3.3zm0-5.5h3.3v3.3h-3.3V9.9z" fill="#57A4FF"/><path d="M7.15 3.3v.55a1.65 1.65 0 0 1-3.3 0V.55h3.3V3.3z" fill="#00D7DF"/><path d="M32.45 2.75H29.7V.55a.55.55 0 0 0-.55-.55h-3.3a.55.55 0 0 0-.55.55v2.2H7.7V.55A.55.55 0 0 0 7.15 0h-3.3a.55.55 0 0 0-.55.55v2.2H.55A.55.55 0 0 0 0 3.3v22a1.65 1.65 0 0 0 1.65 1.65h6.496a8.793 8.793 0 0 0 16.708 0h6.496A1.65 1.65 0 0 0 33 25.3v-22a.55.55 0 0 0-.55-.55zM26.4 1.1h2.2v2.75a1.1 1.1 0 1 1-2.2 0V1.1zm-22 0h2.2v2.75a1.1 1.1 0 1 1-2.2 0V1.1zM3.3 3.85a2.2 2.2 0 1 0 4.4 0h17.6a2.2 2.2 0 1 0 4.4 0h2.2v3.3H1.1v-3.3h2.2zM16.5 31.9a7.7 7.7 0 1 1 7.7-7.7 7.708 7.708 0 0 1-7.7 7.7zM9.9 18.15v-2.2h2.2v.641a8.852 8.852 0 0 0-1.974 1.56H9.9zm13.2 0h-.226a8.857 8.857 0 0 0-1.974-1.559v-.64h2.2v2.2zm8.8 7.15a.55.55 0 0 1-.55.55h-6.21a8.717 8.717 0 0 0-1.385-6.62.543.543 0 0 0 .445-.53v-3.3a.55.55 0 0 0-.55-.55h-3.3a.55.55 0 0 0-.55.55v.648a8.728 8.728 0 0 0-6.6 0V15.4a.55.55 0 0 0-.55-.55h-3.3a.55.55 0 0 0-.55.55v3.3a.543.543 0 0 0 .446.53 8.716 8.716 0 0 0-1.385 6.62H1.65a.55.55 0 0 1-.55-.55V8.25h30.8V25.3z" fill="#000"/><path d="M3.85 13.75h3.3a.55.55 0 0 0 .55-.55V9.9a.55.55 0 0 0-.55-.55h-3.3a.55.55 0 0 0-.55.55v3.3a.55.55 0 0 0 .55.55zm.55-3.3h2.2v2.2H4.4v-2.2zm4.95 3.3h3.3a.55.55 0 0 0 .55-.55V9.9a.55.55 0 0 0-.55-.55h-3.3a.55.55 0 0 0-.55.55v3.3a.55.55 0 0 0 .55.55zm.55-3.3h2.2v2.2H9.9v-2.2zm4.95 3.3h3.3a.55.55 0 0 0 .55-.55V9.9a.55.55 0 0 0-.55-.55h-3.3a.55.55 0 0 0-.55.55v3.3a.55.55 0 0 0 .55.55zm.55-3.3h2.2v2.2h-2.2v-2.2zm4.95 3.3h3.3a.55.55 0 0 0 .55-.55V9.9a.55.55 0 0 0-.55-.55h-3.3a.55.55 0 0 0-.55.55v3.3a.55.55 0 0 0 .55.55zm.55-3.3h2.2v2.2h-2.2v-2.2zm4.95 3.3h3.3a.55.55 0 0 0 .55-.55V9.9a.55.55 0 0 0-.55-.55h-3.3a.55.55 0 0 0-.55.55v3.3a.55.55 0 0 0 .55.55zm.55-3.3h2.2v2.2h-2.2v-2.2zm-22.55 8.8h3.3a.55.55 0 0 0 .55-.55v-3.3a.55.55 0 0 0-.55-.55h-3.3a.55.55 0 0 0-.55.55v3.3a.55.55 0 0 0 .55.55zm.55-3.3h2.2v2.2H4.4v-2.2zm21.45 3.3h3.3a.55.55 0 0 0 .55-.55v-3.3a.55.55 0 0 0-.55-.55h-3.3a.55.55 0 0 0-.55.55v3.3a.55.55 0 0 0 .55.55zm.55-3.3h2.2v2.2h-2.2v-2.2zm-19.25 4.4h-3.3a.55.55 0 0 0-.55.55v3.3a.55.55 0 0 0 .55.55h3.3a.55.55 0 0 0 .55-.55v-3.3a.55.55 0 0 0-.55-.55zm-.55 3.3H4.4v-2.2h2.2v2.2zm19.25 1.1h3.3a.55.55 0 0 0 .55-.55v-3.3a.55.55 0 0 0-.55-.55h-3.3a.55.55 0 0 0-.55.55v3.3a.55.55 0 0 0 .55.55zm.55-3.3h2.2v2.2h-2.2v-2.2zm-9.35.628V17.6h-1.1v4.478a2.195 2.195 0 1 0 2.672 2.672H22v-1.1h-3.378a2.195 2.195 0 0 0-1.572-1.572zM16.5 25.3a1.1 1.1 0 1 1 0-2.2 1.1 1.1 0 0 1 0 2.2z" fill="#000"/></svg>