<svg width="33" height="33" viewBox="0 0 33 33" fill="none" xmlns="http://www.w3.org/2000/svg"><path d="M21.45.55H1.65a1.1 1.1 0 0 0-1.1 1.1v29.7a1.1 1.1 0 0 0 1.1 1.1h19.8a1.1 1.1 0 0 0 1.1-1.1V1.65a1.1 1.1 0 0 0-1.1-1.1z" fill="#FFDAAA"/><path d="M22.55 1.65v29.7a1.103 1.103 0 0 1-1.1 1.1h-1.1a1.103 1.103 0 0 0 1.1-1.1V1.65a1.103 1.103 0 0 0-1.1-1.1h1.1a1.103 1.103 0 0 1 1.1 1.1z" fill="#FFC477"/><path d="M8.25 4.95v4.4L5.5 7.15l-2.75 2.2V.55h5.5v4.4z" fill="#FF7956"/><path d="M8.25.55v8.8l-1.1-.88V.55h1.1z" fill="#FF6243"/><path d="M32.45 13.75V24.2a1.104 1.104 0 0 1-1.1 1.1h-19.8a1.103 1.103 0 0 1-1.1-1.1V13.75h22z" fill="#00D7DF"/><path d="M32.45 12.1v1.65h-22V8.8a1.103 1.103 0 0 1 1.1-1.1h11.693a1.1 1.1 0 0 1 .985.61l.247.49.797 1.59a1.099 1.099 0 0 0 .985.61h5.093a1.103 1.103 0 0 1 1.1 1.1z" fill="#57A4FF"/><path d="M32.45 13.75V24.2a1.103 1.103 0 0 1-1.1 1.1h-1.1a1.103 1.103 0 0 0 1.1-1.1V13.75h1.1z" fill="#00B6BD"/><path d="M32.45 12.1v1.65h-1.1V12.1a1.103 1.103 0 0 0-1.1-1.1h1.1a1.103 1.103 0 0 1 1.1 1.1z" fill="#2488FF"/><path d="M29.7 8.8l1.1 2.2h-4.543a1.1 1.1 0 0 1-.984-.61l-.798-1.59H29.7zm-9.35 1.1H22v1.65h-1.65V9.9zm-3.85 0h1.65v1.65H16.5V9.9zm-3.85 0h1.65v1.65h-1.65V9.9z" fill="#FFEB99"/><path d="M31.35 10.45h-.21l-.945-1.896a.55.55 0 0 0-.495-.304h-4.885l-.094-.188a1.64 1.64 0 0 0-1.476-.912H23.1v-5.5A1.65 1.65 0 0 0 21.45 0H1.65A1.65 1.65 0 0 0 0 1.65v29.7A1.65 1.65 0 0 0 1.65 33h19.8a1.65 1.65 0 0 0 1.65-1.65v-5.5h8.25A1.65 1.65 0 0 0 33 24.2V12.1a1.65 1.65 0 0 0-1.65-1.65zm-1.99-1.1l.55 1.1h-3.655a.546.546 0 0 1-.492-.304l-.398-.796h3.995zm-5.623-.796l1.042 2.084a1.64 1.64 0 0 0 1.476.912h5.095a.55.55 0 0 1 .55.55v1.1H11V8.8a.55.55 0 0 1 .55-.55h11.695a.546.546 0 0 1 .492.304zM3.3 1.1h4.4v7.105L5.844 6.72a.55.55 0 0 0-.688 0L3.3 8.205V1.1zM22 31.35a.55.55 0 0 1-.55.55H1.65a.55.55 0 0 1-.55-.55V1.65a.55.55 0 0 1 .55-.55h.55v8.25a.55.55 0 0 0 .894.43L5.5 7.855 7.906 9.78a.55.55 0 0 0 .894-.43V1.1h12.65a.55.55 0 0 1 .55.55v5.5H11.55A1.65 1.65 0 0 0 9.9 8.8v15.4a1.65 1.65 0 0 0 1.65 1.65H22v5.5zm9.35-6.6h-19.8a.55.55 0 0 1-.55-.55v-9.9h20.9v9.9a.55.55 0 0 1-.55.55z" fill="#000"/><path d="M19.8 2.2h1.1v1.1h-1.1V2.2zm-5.5 0h4.4v1.1h-4.4V2.2zm2.2 2.2h4.4v1.1h-4.4V4.4zM9.9 2.2h3.3v1.1H9.9V2.2zm0 2.2h5.5v1.1H9.9V4.4zm-7.7 7.7h6.6v1.1H2.2v-1.1zm0 13.2h6.6v1.1H2.2v-1.1zm0 3.3h18.7v1.1H2.2v-1.1zm0-13.2h6.6v1.1H2.2v-1.1zm0 3.3h6.6v1.1H2.2v-1.1zm0 3.3h6.6v1.1H2.2V22zm10.45-9.9h1.65a.55.55 0 0 0 .55-.55V9.9a.55.55 0 0 0-.55-.55h-1.65a.55.55 0 0 0-.55.55v1.65a.55.55 0 0 0 .55.55zm.55-1.65h.55V11h-.55v-.55zm3.3 1.65h1.65a.55.55 0 0 0 .55-.55V9.9a.55.55 0 0 0-.55-.55H16.5a.55.55 0 0 0-.55.55v1.65a.55.55 0 0 0 .55.55zm.55-1.65h.55V11h-.55v-.55zm3.3 1.65H22a.55.55 0 0 0 .55-.55V9.9a.55.55 0 0 0-.55-.55h-1.65a.55.55 0 0 0-.55.55v1.65a.55.55 0 0 0 .55.55zm.55-1.65h.55V11h-.55v-.55z" fill="#000"/></svg>