<svg width="33" height="33" viewBox="0 0 33 33" fill="none" xmlns="http://www.w3.org/2000/svg"><path d="M1.623 32.46h29.213a1.085 1.085 0 0 0 1.082-1.082V12.443H13.525l-2.164-5.41H1.623A1.085 1.085 0 0 0 .541 8.115v23.263c.002.596.485 1.08 1.082 1.081zm1.082-9.738c0-.598.485-1.082 1.082-1.082H15.69c.597 0 1.082.484 1.082 1.082v6.491c0 .598-.485 1.082-1.082 1.082H3.787a1.082 1.082 0 0 1-1.082-1.082v-6.491z" fill="#FFEB99"/><path d="M4.87 31.377h11.9c.598 0 1.083-.484 1.083-1.081v-6.492c0-.598-.485-1.082-1.082-1.082H4.869c-.598 0-1.082.484-1.082 1.082v6.492c0 .597.484 1.081 1.082 1.081zM17.853 8.115h14.065V5.95H20.017L17.853.54H8.115a1.085 1.085 0 0 0-1.082 1.082v1.082h8.656l2.164 5.41z" fill="#CCA400"/><path d="M7.033 7.033h4.328l2.164 5.41h18.393v-2.164h-16.23l-2.163-5.41H3.787a1.085 1.085 0 0 0-1.082 1.082v1.082h4.328z" fill="#CCA400"/><path d="M13.525 4.869l2.164 5.41h16.23V8.115H17.852l-2.164-5.41H5.95a1.085 1.085 0 0 0-1.082 1.082V4.87h8.656zM3.787 30.296H15.69c.597 0 1.082-.485 1.082-1.082v-6.492c0-.598-.485-1.082-1.082-1.082H3.787c-.598 0-1.082.484-1.082 1.082v6.491c0 .598.484 1.083 1.082 1.083z" fill="#00DDC2"/><path d="M20.383 5.41L18.355.34a.54.54 0 0 0-.502-.34H8.115c-.896 0-1.623.727-1.623 1.623v.541h-.541c-.896 0-1.623.727-1.623 1.623v.541h-.541c-.896 0-1.623.727-1.623 1.623v.541h-.541C.727 6.492 0 7.219 0 8.115v23.262C0 32.273.727 33 1.623 33h29.213c.897 0 1.623-.727 1.623-1.623V5.41H20.383zM7.574 1.623a.54.54 0 0 1 .541-.541h9.371l2.028 5.07a.54.54 0 0 0 .503.34h11.36v1.082H18.22l-2.028-5.07a.541.541 0 0 0-.502-.34H7.574v-.541zM5.41 3.787a.54.54 0 0 1 .541-.541h9.372l2.027 5.07a.54.54 0 0 0 .503.34h13.524v1.082H16.056l-2.028-5.07a.541.541 0 0 0-.502-.34H5.41v-.541zM3.246 5.951c0-.3.242-.541.541-.541h9.372l2.027 5.07c.082.205.282.34.503.34h15.689v1.082H13.89l-2.027-5.07a.54.54 0 0 0-.503-.34H3.246V5.95zm28.131 25.426a.541.541 0 0 1-.54.541H1.622a.541.541 0 0 1-.54-.541V8.115c0-.3.241-.541.54-.541h9.372l2.027 5.07a.54.54 0 0 0 .503.34h17.852v18.393z" fill="#231F20"/><path d="M2.164 22.722v6.491c0 .897.727 1.623 1.623 1.623H15.69c.896 0 1.623-.726 1.623-1.623v-6.491c0-.897-.727-1.623-1.623-1.623H3.787c-.896 0-1.623.726-1.623 1.623zm14.066 0v6.491a.541.541 0 0 1-.541.542H3.787a.541.541 0 0 1-.54-.542v-6.491c0-.3.241-.541.54-.541H15.69a.54.54 0 0 1 .54.54z" fill="#231F20"/><path d="M4.328 23.263h3.787v1.082H4.328v-1.082zm0 2.163h10.82v1.082H4.328v-1.082zm0 2.164h10.82v1.082H4.328V27.59z" fill="#231F20"/></svg>