<svg width="33" height="34" viewBox="0 0 33 34" fill="none" xmlns="http://www.w3.org/2000/svg"><path d="M32.45 23.653v2.2a1.104 1.104 0 0 1-1.1 1.1H1.65a1.103 1.103 0 0 1-1.1-1.1v-2.2h31.9z" fill="#C6C5CA"/><path d="M32.45 8.253v15.4H.55v-15.4a1.103 1.103 0 0 1 1.1-1.1h29.7a1.103 1.103 0 0 1 1.1 1.1z" fill="#00D7DF"/><path d="M32.45 8.253v15.4H30.8v-15.4a1.104 1.104 0 0 0-1.1-1.1h1.65a1.103 1.103 0 0 1 1.1 1.1z" fill="#009698"/><path d="M16.5 18.153a8.8 8.8 0 1 0 0-17.6 8.8 8.8 0 0 0 0 17.6z" fill="#57A4FF"/><path d="M25.3 9.353A8.8 8.8 0 0 1 9.273 14.38 8.804 8.804 0 0 0 21.527 2.127 8.79 8.79 0 0 1 25.3 9.353z" fill="#2488FF"/><path d="M26.4 11.553a8.8 8.8 0 0 1-17.143 2.805 8.804 8.804 0 0 0 15.587-7.81 8.792 8.792 0 0 1 1.556 5.005z" fill="#009698"/><path d="M21.45 30.253l1.65 2.2H9.9l1.65-2.2h9.9z" fill="#C6C5CA"/><path d="M22.55 9.903l-1.65 1.65-1.1-1.1-3.3-3.3-3.3 3.3-1.1 1.1-1.65-1.65 6.05-5.5 6.05 5.5z" fill="#806749"/><path d="M19.8 26.954l.55 3.3h-7.7l.55-3.3h6.6z" fill="#57A4FF"/><path d="M32.45 23.653v2.2a1.104 1.104 0 0 1-1.1 1.1H29.7a1.103 1.103 0 0 0 1.1-1.1v-2.2h1.65z" fill="#898890"/><path d="M19.8 26.954l.55 1.1h-7.7l.55-1.1h6.6z" fill="#2488FF"/><path d="M19.8 10.453v3.85h-6.6v-3.85l3.3-3.3 3.3 3.3z" fill="#EBE5DD"/><path d="M19.8 10.453v3.85h-1.1v-2.75l-3.3-3.3 1.1-1.1 3.3 3.3z" fill="#D9CCBC"/><path d="M31.35 6.603h-5.913a9.35 9.35 0 0 0-17.875 0H1.65A1.655 1.655 0 0 0 0 8.253v17.6a1.655 1.655 0 0 0 1.65 1.65h10.901l-.369 2.2h-.632a.559.559 0 0 0-.44.22l-1.65 2.2a.55.55 0 0 0-.05.578.537.537 0 0 0 .49.302h13.2a.537.537 0 0 0 .49-.302.55.55 0 0 0-.05-.578l-1.65-2.2a.558.558 0 0 0-.44-.22h-.633l-.368-2.2H31.35a1.655 1.655 0 0 0 1.65-1.65v-17.6a1.655 1.655 0 0 0-1.65-1.65zm-14.85-5.5a8.25 8.25 0 1 1-8.25 8.25 8.26 8.26 0 0 1 8.25-8.25zm4.675 29.7l.825 1.1H11l.825-1.1h9.35zm-7.876-1.1l.369-2.2h5.665l.368 2.2h-6.402zm18.601-3.85a.55.55 0 0 1-.55.55H1.65a.55.55 0 0 1-.55-.55v-1.65h30.8v1.65zm0-2.75H1.1V8.253a.55.55 0 0 1 .55-.55h5.654a9.588 9.588 0 0 0-.154 1.65 9.35 9.35 0 0 0 18.7 0 9.582 9.582 0 0 0-.154-1.65h5.654a.55.55 0 0 1 .55.55v14.85z" fill="#000"/><path d="M12.489 11.942l.16-.161v2.522a.55.55 0 0 0 .55.55h6.6a.55.55 0 0 0 .55-.55v-2.522l.162.161a.55.55 0 0 0 .778 0l1.65-1.65a.55.55 0 0 0-.019-.796l-6.05-5.5a.55.55 0 0 0-.74 0l-6.05 5.5a.55.55 0 0 0-.019.796l1.65 1.65a.55.55 0 0 0 .778 0zm6.76 1.811h-5.5v-3.072l2.75-2.75 2.75 2.75v3.072zM16.5 5.147l5.254 4.775-.853.853-4.011-4.01a.55.55 0 0 0-.778 0l-4.011 4.01-.853-.853L16.5 5.147z" fill="#000"/><path d="M14.85 10.454h1.1v1.1h-1.1v-1.1zm2.2 0h1.1v1.1h-1.1v-1.1zm-2.2 1.65h1.1v1.1h-1.1v-1.1zm2.2 0h1.1v1.1h-1.1v-1.1zm1.65 9.899h12.1v-1.1H19.25v-1.65h-1.1v2.2a.55.55 0 0 0 .55.55zm8.8-3.3a.55.55 0 0 0 .55.55h2.75v-1.1h-2.2v-2.75a.55.55 0 0 0-.55-.55H25.3v1.1h2.2v2.75zm1.1-6.05a.55.55 0 0 0 .55.55h1.65v-1.1h-1.1v-1.65a.55.55 0 0 0-.55-.55h-2.2v1.1h1.65v1.65zm-13.75 8.8v-2.2h-1.1v1.65H2.2v1.1h12.1a.55.55 0 0 0 .55-.55zm-9.35-2.75v-2.75h2.2v-1.1H4.95a.55.55 0 0 0-.55.55v2.75H2.2v1.1h2.75a.55.55 0 0 0 .55-.55zm-1.1-6.05v-1.65h1.65v-1.1h-2.2a.55.55 0 0 0-.55.55v1.65H2.2v1.1h1.65a.55.55 0 0 0 .55-.55z" fill="#000"/></svg>