<svg width="33" height="33" viewBox="0 0 33 33" fill="none" xmlns="http://www.w3.org/2000/svg"><path d="M32.45 14.85v16.5a1.104 1.104 0 0 1-1.1 1.1H1.65a1.103 1.103 0 0 1-1.1-1.1v-16.5a1.103 1.103 0 0 1 1.1-1.1h11.165a4.941 4.941 0 0 0 7.37 0H31.35a1.103 1.103 0 0 1 1.1 1.1z" fill="#57A4FF"/><path d="M32.45 1.65v4.4a1.103 1.103 0 0 1-1.1 1.1h-.55l-2.75 2.2.55-2.2h-1.65a1.103 1.103 0 0 1-1.1-1.1v-4.4a1.103 1.103 0 0 1 1.1-1.1h4.4a1.103 1.103 0 0 1 1.1 1.1zm-3.3 24.2h-7.26a5.5 5.5 0 1 0-10.78 0H3.85a9.35 9.35 0 0 1 9.35-9.35h6.6a9.35 9.35 0 0 1 9.35 9.35z" fill="#FF7956"/><path d="M26.95 30.25a1.1 1.1 0 1 0 0-2.2 1.1 1.1 0 0 0 0 2.2z" fill="#FFEB99"/><path d="M23.1 8.8v.55a1.104 1.104 0 0 1-1.1 1.1h-.55V7.7H22a1.103 1.103 0 0 1 1.1 1.1z" fill="#FFC477"/><path d="M23.1 4.95v1.1L21.45 7.7V6.05L15.4 4.4l-3.85 1.65V7.7L9.9 6.05v-1.1a4.4 4.4 0 0 1 4.4-4.4h4.4a4.4 4.4 0 0 1 4.4 4.4z" fill="#C0AB91"/><path d="M22 24.75c0 .37-.037.738-.11 1.1a5.5 5.5 0 0 1-10.016 1.875 5.419 5.419 0 0 1-.764-1.875A5.5 5.5 0 1 1 22 24.75z" fill="#FFEB99"/><path d="M21.45 7.7v2.75a4.95 4.95 0 1 1-9.9 0v-4.4L15.4 4.4l6.05 1.65V7.7z" fill="#FFDAAA"/><path d="M19.8 24.75l-5.5 2.75V22l5.5 2.75z" fill="#FF7956"/><path d="M11.55 7.7v2.75H11a1.103 1.103 0 0 1-1.1-1.1V8.8A1.103 1.103 0 0 1 11 7.7h.55z" fill="#FFC477"/><path d="M7.15 3.85v4.4a1.103 1.103 0 0 1-1.1 1.1h-1.1l.55 2.2-3.3-2.2h-.55a1.103 1.103 0 0 1-1.1-1.1v-4.4a1.103 1.103 0 0 1 1.1-1.1h4.4a1.103 1.103 0 0 1 1.1 1.1zm-1.1 26.4a1.1 1.1 0 1 0 0-2.2 1.1 1.1 0 0 0 0 2.2z" fill="#FFEB99"/><path d="M31.35 13.2H21.256a5.444 5.444 0 0 0 .715-2.2H22a1.65 1.65 0 0 0 1.65-1.65V8.8a1.65 1.65 0 0 0-1.004-1.518l.843-.843a.55.55 0 0 0 .161-.389v-1.1A4.956 4.956 0 0 0 18.7 0h-4.4a4.956 4.956 0 0 0-4.95 4.95v1.1a.55.55 0 0 0 .161.389l.843.843A1.65 1.65 0 0 0 9.35 8.8v.55A1.65 1.65 0 0 0 11 11h.028a5.45 5.45 0 0 0 .715 2.2H1.65A1.65 1.65 0 0 0 0 14.85v16.5A1.65 1.65 0 0 0 1.65 33h29.7A1.65 1.65 0 0 0 33 31.35v-16.5a1.65 1.65 0 0 0-1.65-1.65zM16.5 14.85a4.405 4.405 0 0 1-4.4-4.4V6.412l3.34-1.43L20.9 6.47v3.98a4.405 4.405 0 0 1-4.4 4.4zm6.05-5.5a.55.55 0 0 1-.55.55V8.25a.55.55 0 0 1 .55.55v.55zm-12.1-4.4A3.855 3.855 0 0 1 14.3 1.1h4.4a3.855 3.855 0 0 1 3.85 3.85v.872l-.55.55V6.05a.55.55 0 0 0-.405-.53l-6.05-1.65a.55.55 0 0 0-.362.025l-3.85 1.65A.55.55 0 0 0 11 6.05v.322l-.55-.55V4.95zm0 4.4V8.8a.55.55 0 0 1 .55-.55V9.9a.55.55 0 0 1-.55-.55zm21.45 22a.55.55 0 0 1-.55.55H1.65a.55.55 0 0 1-.55-.55v-16.5a.55.55 0 0 1 .55-.55h10.93a5.483 5.483 0 0 0 7.841 0H31.35a.55.55 0 0 1 .55.55v16.5zM27.5 2.2h3.3v1.1h-3.3V2.2zm0 2.2h3.3v1.1h-3.3V4.4z" fill="#000"/><path d="M31.35 0h-4.4a1.65 1.65 0 0 0-1.65 1.65v4.4a1.65 1.65 0 0 0 1.65 1.65h.945l-.378 1.517a.55.55 0 0 0 .877.563l2.6-2.08h.356A1.65 1.65 0 0 0 33 6.05v-4.4A1.65 1.65 0 0 0 31.35 0zm.55 6.05a.55.55 0 0 1-.55.55h-.55a.55.55 0 0 0-.344.12l-1.478 1.182.155-.619A.548.548 0 0 0 28.6 6.6h-1.65a.55.55 0 0 1-.55-.55v-4.4a.55.55 0 0 1 .55-.55h4.4a.55.55 0 0 1 .55.55v4.4zM2.2 4.4h3.3v1.1H2.2V4.4zm0 2.2h3.3v1.1H2.2V6.6z" fill="#000"/><path d="M1.65 9.9h.385l3.161 2.108a.55.55 0 0 0 .84-.59L5.654 9.9h.395A1.65 1.65 0 0 0 7.7 8.25v-4.4A1.65 1.65 0 0 0 6.05 2.2h-4.4A1.65 1.65 0 0 0 0 3.85v4.4A1.65 1.65 0 0 0 1.65 9.9zM1.1 3.85a.55.55 0 0 1 .55-.55h4.4a.55.55 0 0 1 .55.55v4.4a.55.55 0 0 1-.55.55h-1.1a.55.55 0 0 0-.534.683l.205.82-2.116-1.41A.553.553 0 0 0 2.2 8.8h-.55a.55.55 0 0 1-.55-.55v-4.4zm18.946 20.407l-5.5-2.75a.55.55 0 0 0-.796.492v5.5a.55.55 0 0 0 .796.495l5.5-2.75a.55.55 0 0 0 0-.984v-.003zM14.85 26.61v-3.72l3.72 1.86-3.72 1.86z" fill="#000"/><path d="M3.3 25.85a.55.55 0 0 0 .55.55h6.834c.12.43.289.845.5 1.238l-.798.797a.548.548 0 0 1-.392.165H7.599a1.65 1.65 0 1 0 0 1.1h2.395a1.642 1.642 0 0 0 1.17-.485l.647-.648a6.037 6.037 0 0 0 9.378 0l.646.648a1.642 1.642 0 0 0 1.171.485h2.395a1.65 1.65 0 1 0 0-1.1h-2.395a.549.549 0 0 1-.392-.165l-.799-.797c.212-.393.38-.808.5-1.238h6.835a.55.55 0 0 0 .55-.55 9.9 9.9 0 0 0-9.9-9.9h-6.6a9.912 9.912 0 0 0-9.9 9.9zm2.75 3.85a.55.55 0 1 1 0-1.1.55.55 0 0 1 0 1.1zm20.9-1.1a.55.55 0 1 1 0 1.1.55.55 0 0 1 0-1.1zM16.5 29.7a4.95 4.95 0 1 1 0-9.9 4.95 4.95 0 0 1 0 9.9zm3.3-12.65a8.805 8.805 0 0 1 8.784 8.25h-6.062a5.87 5.87 0 0 0 .028-.55 6.05 6.05 0 1 0-12.1 0c0 .186.012.369.028.55h-6.06a8.812 8.812 0 0 1 8.782-8.25h6.6z" fill="#000"/></svg>