<svg width="282" height="257" viewBox="0 0 282 257" fill="none" xmlns="http://www.w3.org/2000/svg"><path d="M35.533 37.452a17.452 17.452 0 0 0-11.28 5.38c-6.67 7.005-6.399 18.09.605 24.76a17.46 17.46 0 0 0 12.507 4.826 17.46 17.46 0 0 0 12.254-5.432 17.45 17.45 0 0 0 4.822-11.53L35.533 37.451zm-3.365 23.427l-3.467.085 3.525-6.216 1.756 2.769-1.814 3.362zm1.68-.041l5.574-10.333 6.073 10.048-11.648.285zm16.821-6.96a15.988 15.988 0 0 1-8.7-4.253 15.921 15.921 0 0 1-3.831-5.64 16.082 16.082 0 0 1-.845-2.844L50.669 53.88zm1.124 7.13a15.999 15.999 0 0 1-3.23 4.972 16.006 16.006 0 0 1-11.233 4.978 15.998 15.998 0 0 1-11.464-4.422 15.99 15.99 0 0 1-4.98-11.233 15.99 15.99 0 0 1 4.424-11.465 15.971 15.971 0 0 1 9.703-4.867l.58.552a17.454 17.454 0 0 0 3.325 8.84l-4.143 7.681-2.618-4.133-5.998 10.575 5.21-.127 7.296-.179 9.38-.23-6.482-10.723a17.441 17.441 0 0 0 10.806 4.27l.581.553a15.96 15.96 0 0 1-1.157 4.958z" fill="url(#a)" style="mix-blend-mode:multiply"/><path d="M235.358 45l-8.301 10.215-.756.93L218 66.36l18.689 15.187 8.301-10.214.756-.931 8.301-10.215L235.358 45zm1.163 34.932l-16.906-13.739 7.577-9.323 16.906 13.738-7.577 9.324zm-8.573-23.993l7.577-9.324 16.906 13.738-7.577 9.324-16.906-13.738z" fill="#fff"/><path d="M237.749 54.978l.324-2.282-5.387 1.956 1.907 1.55 2.671 2.17 3.431 2.788 1.289-7.82-4.235 1.638zm-2.766.061l1.686-.615-.147 1.032-.697.267-.842-.684zm1.867 1.518l3.676-1.423-.64 3.89-3.036-2.467zm2.68 5.131l-7.121-5.786a.577.577 0 0 0-.808.086.576.576 0 0 0 .084.805l7.121 5.787c.247.2.607.16.804-.084a.573.573 0 0 0-.08-.808zm-15.439 4.45a.573.573 0 0 0-.722.888c.247.2.608.166.808-.08a.574.574 0 0 0-.086-.808zm1.779 1.445a.573.573 0 1 0-.721.891.573.573 0 0 0 .721-.89zm1.783 1.449a.574.574 0 0 0-.808.08.574.574 0 0 0 .891.725.573.573 0 0 0-.083-.805zm1.779 1.446a.575.575 0 0 0-.809.08.573.573 0 1 0 .809-.08zm1.78 1.446a.57.57 0 0 0-.805.083.57.57 0 0 0 .083.805.57.57 0 0 0 .804-.083.568.568 0 0 0-.082-.805zm-2.264-3.319l3.431 2.788 1.287-7.818-4.236 1.64.327-2.286-5.387 1.956 1.907 1.55 2.671 2.17zm2.619.654l-3.035-2.466 3.676-1.423-.641 3.889zm-4.902-3.984l1.685-.615-.144 1.03-.699.27-.842-.685zm21.838-2.168a.576.576 0 0 0-.63-.511l-2.852.297-.118-1.141a.575.575 0 0 0-1.142.118l.176 1.709a.576.576 0 0 0 .63.512l3.424-.354a.575.575 0 0 0 .512-.63zm-12.822 10.632a.572.572 0 0 0 .63.511l.003.002 1.138-.12.118 1.142a.576.576 0 0 0 .63.511.575.575 0 0 0 .512-.63l-.121-1.138 1.142-.118a.574.574 0 0 0-.118-1.14l-1.142.117-.115-1.14-.003-.001a.575.575 0 0 0-1.141.117l.118 1.142-1.139.115a.575.575 0 0 0-.512.63z" fill="#fff"/><path d="M226.246 182.518l.652-1.757.217-.586.217-.585c-1.599-.593-2.413-2.39-1.814-4.004.599-1.614 2.387-2.445 3.987-1.852l.217-.585.217-.586.652-1.756-1.6-9.92-7.25-.025-.143 3.944-13.344-4.95-6.082 16.395 13.343 4.95-2.463 3.083 5.512 4.709 7.682-6.475zm-11.473 1.595l1.706-2.133 1.081-1.353-1.61-.597-12.183-4.52 5.214-14.053 12.182 4.52 1.61.597.063-1.73.099-2.73 5.001.017 1.379 8.556-.599 1.616a4.368 4.368 0 0 0-4.358 2.852 4.367 4.367 0 0 0 1.443 5.005l-.599 1.616-6.627 5.586-3.802-3.249z" fill="url(#b)" style="mix-blend-mode:multiply"/><path d="M216.334 171.12l2.178-.417-3.426-4.316-.828 2.23-1.158 3.123-1.49 4.016 7.512-1.275-2.788-3.361zm-.856-2.235l.779.981-.831.16-.256-.309.308-.831v-.001zm-.809 2.181l2.114 2.548-3.264.554 1.15-3.102z" fill="url(#c)" style="mix-blend-mode:multiply"/><g clip-path="url(#d)"><path d="M81.556 118.043l-8.945-8.834 6.443-7.018c1.284-1.399 1.23-3.614-.121-4.948a3.304 3.304 0 0 0-2.41-.967 3.306 3.306 0 0 0-2.362 1.084l-6.444 7.018-8.945-8.834-4.65 5.065 8.945 8.834-7.407 8.067.121 4.949 4.772-.117 7.407-8.068 8.945 8.834 4.651-5.065zm-9.761-9.639l-1.22-1.204 4.894-5.33 1.22 1.204-4.894 5.33zm3.182-10.24a2.196 2.196 0 0 1 3.181-.077 2.4 2.4 0 0 1 .08 3.299l-.775.844-3.262-3.221.776-.844zm-1.55 1.689l1.226 1.211-4.893 5.33-1.227-1.211 4.894-5.33zm-14.615-2.66l1.607 1.587-.776.844a.6.6 0 0 0 .02.825.55.55 0 0 0 .796-.019l.001-.001.774-.844 1.63 1.611-.774.844a.598.598 0 0 0 .02.825.548.548 0 0 0 .795-.02l.776-.844 1.63 1.611-.774.843v.001a.599.599 0 0 0 .02.824.548.548 0 0 0 .795-.019l.775-.844 1.63 1.61-.774.844a.598.598 0 0 0 .02.825c.225.222.58.214.795-.019l.775-.845 1.631 1.611-.775.844a.598.598 0 0 0 .02.825.548.548 0 0 0 .795-.019l.001-.001.775-.844 1.63 1.611-.775.844a.6.6 0 0 0 .02.825.549.549 0 0 0 .796-.02l.775-.844 1.631 1.611-.775.844a.597.597 0 0 0 .02.824.548.548 0 0 0 .795-.019v-.001l.775-.843 1.631 1.61-.774.844v.001a.597.597 0 0 0 .02.824.548.548 0 0 0 .794-.019l.776-.844 1.607 1.586-3.1 3.377-21.154-20.889 3.1-3.376zm-1.935 24.072l-.024-.966.956.943-.932.023zm3.181-.078l-.659.016-2.586-2.554-.017-.683 7.087-7.718 1.226 1.212-5.469 5.957a.598.598 0 0 0 .02.825.55.55 0 0 0 .796-.02l5.469-5.957 1.22 1.204-7.087 7.718z" fill="#fff"/></g><g clip-path="url(#e)"><path d="M158.556 10.043L149.61 1.21l6.443-7.018c1.285-1.399 1.231-3.614-.121-4.948a3.302 3.302 0 0 0-2.41-.967 3.307 3.307 0 0 0-2.362 1.084l-6.443 7.018-8.946-8.834-4.65 5.065 8.945 8.834-7.406 8.067.121 4.949 4.772-.117 7.406-8.068 8.946 8.834 4.651-5.065zM148.794.404L147.574-.8l4.894-5.33 1.22 1.204-4.894 5.33zm3.182-10.24a2.196 2.196 0 0 1 3.182-.077 2.4 2.4 0 0 1 .08 3.299l-.775.844-3.262-3.221.775-.844zm-1.55 1.689l1.226 1.211-4.893 5.33-1.227-1.21 4.894-5.331zm-14.614-2.66l1.606 1.587-.775.844a.599.599 0 0 0 .02.825.55.55 0 0 0 .796-.02h.001l.773-.844 1.631 1.61-.774.845a.597.597 0 0 0 .02.825.548.548 0 0 0 .795-.02l.775-.844 1.631 1.61-.774.844-.001.001a.598.598 0 0 0 .02.824.549.549 0 0 0 .796-.02v.001l.774-.844 1.631 1.61-.774.844a.597.597 0 0 0 .02.825c.225.222.58.214.795-.02l.774-.844 1.631 1.611-.774.844a.597.597 0 0 0 .02.825.548.548 0 0 0 .795-.02h.001l.774-.844 1.631 1.61-.775.845a.599.599 0 0 0 .02.825.55.55 0 0 0 .796-.02l.775-.844 1.631 1.61-.775.845a.598.598 0 0 0 .02.824.548.548 0 0 0 .795-.02l.775-.843 1.631 1.61-.774.844h-.001a.599.599 0 0 0 .02.825.548.548 0 0 0 .795-.02l.776-.843 1.606 1.586-3.1 3.377L132.711-7.43l3.101-3.376zm-1.935 24.072l-.024-.966.956.943-.932.023zm3.181-.078l-.659.016-2.586-2.554-.017-.683 7.086-7.718 1.227 1.212-5.469 5.957a.599.599 0 0 0 .02.825.548.548 0 0 0 .795-.02l5.47-5.957 1.219 1.204-7.086 7.718z" fill="url(#f)" style="mix-blend-mode:multiply"/></g><path d="M161.9 213.661l-4.897 4.981a.581.581 0 1 0 .83.816l4.897-4.981a.581.581 0 1 0-.83-.816z" fill="url(#g)" style="mix-blend-mode:multiply"/><path d="M156.172 217.825l1.632-1.66a.582.582 0 0 0-.829-.816l-1.632 1.661a.58.58 0 1 0 .829.815z" fill="url(#h)" style="mix-blend-mode:multiply"/><path d="M167.947 205.393l-2.024-.488 1.297 5.007 1.555-1.582 2.175-2.213 2.799-2.846-6.915-1.823 1.113 3.945zm-.116 2.236l-.295-1.138.772.186.102.363-.579.589zm1.519-1.545l-.843-2.991 3.005.792-2.162 2.199z" fill="url(#i)" style="mix-blend-mode:multiply"/><path d="M164.18 191.415l-18.772 19.093a.582.582 0 0 0 .007.823l11.622 11.427a.582.582 0 0 0 .823-.008l18.772-19.093a.581.581 0 0 0-.007-.822l-11.622-11.427a.582.582 0 0 0-.823.007zm-.379 2.046l-3.182 12.943a.526.526 0 0 1-.285.29l-12.89 3.404 16.357-16.637zm-6.363 28.058l-10.308-10.134 13.501-3.565a1.59 1.59 0 0 0 .704-.427c.2-.204.352-.454.415-.711l3.334-13.562 10.309 10.136-17.955 18.263z" fill="url(#j)" style="mix-blend-mode:multiply"/><path d="M123.3 39.723c-.172-7.027-5.98-12.584-12.975-12.413a12.557 12.557 0 0 0-6.289 1.858 12.564 12.564 0 0 0-6.373-1.548c-6.994.171-12.523 6.006-12.352 13.034a12.732 12.732 0 0 0 6.694 10.916c.907 6.286 6.368 11.043 12.846 10.885 6.478-.159 11.7-5.178 12.298-11.501a12.733 12.733 0 0 0 6.151-11.23zM93.764 52.35c1.413.5 2.936.757 4.522.718a12.565 12.565 0 0 0 6.29-1.858 12.561 12.561 0 0 0 6.372 1.548 12.59 12.59 0 0 0 4.482-.939 11.096 11.096 0 0 1-2.863 5.593 11.047 11.047 0 0 1-3.464 2.474 10.964 10.964 0 0 1-4.291.98 10.966 10.966 0 0 1-4.334-.77 11.045 11.045 0 0 1-3.58-2.3 11.1 11.1 0 0 1-3.134-5.446zm21.856-2.364a10.97 10.97 0 0 1-4.711 1.182 10.953 10.953 0 0 1-4.876-1.001 12.725 12.725 0 0 0 4.607-9.733 11.07 11.07 0 0 1 1.541 1.234 11.12 11.12 0 0 1 3.439 8.318zm-6.591-10.437a11.1 11.1 0 0 1-.738 4.878 11.113 11.113 0 0 1-2.289 3.598c-.456.48-.947.915-1.472 1.303a11.033 11.033 0 0 1-1.535-1.23 11.114 11.114 0 0 1-3.438-8.317 10.971 10.971 0 0 1 4.71-1.182 10.97 10.97 0 0 1 4.762.95zm-4.801-2.54a12.6 12.6 0 0 0-4.48.938 11.126 11.126 0 0 1 4.334-6.896c.544.361 1.056.771 1.535 1.23a11.113 11.113 0 0 1 3.132 5.446 12.581 12.581 0 0 0-4.521-.718zm-6.236 3.735a12.725 12.725 0 0 0 5.077 9.495 10.967 10.967 0 0 1-4.822 1.239 10.968 10.968 0 0 1-4.763-.95c-.012-.174-.02-.349-.024-.525a11.105 11.105 0 0 1 3.052-7.951c.457-.483.952-.92 1.48-1.308zm4.587-10.532a12.722 12.722 0 0 0-4.55 8.6 12.734 12.734 0 0 0-6.156 10.83 11.117 11.117 0 0 1-1.54-1.233 11.081 11.081 0 0 1-2.462-3.482 11.108 11.108 0 0 1-.977-4.311c-.037-1.504.22-2.97.764-4.354a11.082 11.082 0 0 1 2.29-3.598 11.05 11.05 0 0 1 3.463-2.473 10.966 10.966 0 0 1 4.291-.98 10.958 10.958 0 0 1 4.877 1.002zm18.162 5.24a11.11 11.11 0 0 1 .977 4.311 11.1 11.1 0 0 1-.765 4.354 11.079 11.079 0 0 1-2.289 3.598c-.456.483-.95.919-1.478 1.308a12.735 12.735 0 0 0-6.678-10.517 12.724 12.724 0 0 0-4.966-8.366 10.967 10.967 0 0 1 4.822-1.239 10.962 10.962 0 0 1 4.334.769 11.051 11.051 0 0 1 3.581 2.3 11.08 11.08 0 0 1 2.462 3.482z" fill="url(#k)" style="mix-blend-mode:multiply"/><path d="M2.067 17.298l7.466 4.871 3.2 2.088 7.468 4.873 17.77-24.906L17.705-9 2.067 17.298zm1.718-.4l1.304-2.19 6.532 4.261-1.392 2.133-6.444-4.204zm7.512 4.9l2.784-4.266 1.066.696-2.784 4.267-1.066-.696zm2.133 1.393l1.392-2.134 6.533 4.263-1.481 2.075-6.444-4.204zM36.163 4.566L22.096 24.282l-6.577-4.292 1.392-2.133a.636.636 0 1 0-1.067-.696.637.637 0 0 0-1.066-.696.637.637 0 0 0-1.068-.696l-1.392 2.133-6.576-4.29L18.12-7.209 36.163 4.567z" fill="#fff"/><path d="M17.161 10.924l5.488-2.812-.118 3.128 6.999-3.4-2.794-1.823-3.911-2.551-5.03-3.282-.634 10.74zm9.788-3.246l-3.065 1.489.064-1.721 1.482-.759 1.52.991zm-2.748-1.793l-5.637 2.888.374-6.322L24.2 5.885z" fill="#fff"/><g clip-path="url(#l)"><path d="M276.783 144.672a4.072 4.072 0 0 0-5.045-3.856l-2.765-2.632 7.144-7.503a3.25 3.25 0 0 0-4.706-4.481l-7.145 7.503-8.545-8.137a2.155 2.155 0 0 0-1.546-.597 2.167 2.167 0 0 0-1.442 3.734l8.546 8.137-7.697 8.083.113 4.593 4.594-.112 7.696-8.083 2.741 2.609a4.075 4.075 0 0 0-.087.942c.113 4.611 6.922 4.81 9.171 4.755 2.249-.055-.972-2.706-1.027-4.955zm-3.072-18.397a2.159 2.159 0 0 1 1.547.596 2.17 2.17 0 0 1 .074 3.063l-.746.784-3.138-2.987.747-.785a2.154 2.154 0 0 1 1.516-.671zm-20.231 1.644a1.085 1.085 0 0 1-.037-1.532c.199-.209.469-.328.758-.335.289-.007.564.099.773.298l8.545 8.137-1.493 1.569-8.546-8.137zm1.272 20.488l-.022-.897.918.875-.896.022zm3.062-.075l-.634.016-2.488-2.369-.015-.634 16.024-16.83 1.18 1.124-14.467 15.193a.542.542 0 0 0 .785.747l14.467-15.193 1.173 1.117-16.025 16.829zm8.918-7.795l1.493-1.569 2.413 2.297a4.097 4.097 0 0 0-1.505 1.559l-2.401-2.287zm6.012 7.428c-.949-.295-1.685-.69-2.187-1.176-.542-.524-.815-1.16-.834-1.944a2.968 2.968 0 0 1 .823-2.135 2.973 2.973 0 0 1 2.092-.927 2.993 2.993 0 0 1 3.062 2.916c.031 1.232.717 2.418 1.269 3.371.082.143.181.314.273.48-1.167-.002-2.936-.101-4.498-.585z" fill="url(#m)" style="mix-blend-mode:multiply"/></g><g clip-path="url(#n)"><path d="M192.846 104.263l48.212 12.394 2.662-10.353-48.213-12.395-2.661 10.354zm46.93 10.225l-3.4-.875.445-1.725a.894.894 0 0 0-.642-1.085.893.893 0 0 0-1.085.641l.001.001-.444 1.725-3.451-.887.444-1.725a.892.892 0 0 0-1.726-.444l-.443 1.726-3.451-.887.442-1.726.001-.001a.89.89 0 0 0-1.725-.443l-.001.001-.443 1.724-3.451-.887.444-1.725a.892.892 0 0 0-1.726-.444l-.444 1.726-3.451-.887.444-1.725a.891.891 0 0 0-1.726-.444l-.443 1.726-3.451-.888.443-1.726a.89.89 0 1 0-1.725-.443v.001l-.444 1.724-3.451-.887.444-1.725a.892.892 0 0 0-1.726-.444l.001.001-.444 1.725-3.452-.887.443-1.725h.001a.891.891 0 0 0-1.726-.444l-.444 1.725-3.399-.874 1.774-6.902 44.762 11.507-1.775 6.902z" fill="url(#o)" style="mix-blend-mode:multiply"/></g><path d="M227.356 22.426L212.886 5.37a.485.485 0 0 0-.684-.056L200.337 15.38a.486.486 0 0 0-.057.685l5.221 6.154-2.601 1.443-.126-.148a.486.486 0 0 0-.742.63l5.033 5.932a.486.486 0 0 0 .742-.629l-.126-.149 1.847-2.331 5.222 6.154c.173.205.48.23.684.056l11.865-10.065a.486.486 0 0 0 .057-.685zm-23.815 1.992l2.598-1.442 2.746 3.236-1.846 2.33-3.498-4.124zm22.758-1.734l-9.64 8.178-13.839-16.313 9.64-8.178 13.839 16.313zm-18.043 1.28l-6.919-8.157.741-.63 6.92 8.157 6.919 8.157-.741.63-6.92-8.158z" fill="url(#p)" style="mix-blend-mode:multiply"/><path d="M208.941 24.02a.486.486 0 1 0-.629-.743.486.486 0 0 0 .629.742z" fill="url(#q)" style="mix-blend-mode:multiply"/><path d="M211.922 8.74l9.435 11.123.001.001a.486.486 0 0 0 .741-.63l-9.436-11.122a.487.487 0 1 0-.741.629z" fill="url(#r)" style="mix-blend-mode:multiply"/><path d="M210.439 10l5.031 5.93.001.002a.486.486 0 1 0 .741-.63l-5.032-5.931a.487.487 0 1 0-.741.628z" fill="url(#s)" style="mix-blend-mode:multiply"/><path d="M208.954 11.258l6.919 8.156a.486.486 0 0 0 .742-.629l-6.919-8.156a.487.487 0 1 0-.742.629z" fill="url(#t)" style="mix-blend-mode:multiply"/><path d="M207.472 12.516l4.403 5.19a.487.487 0 1 0 .741-.63l-4.402-5.19a.487.487 0 0 0-.742.63z" fill="url(#u)" style="mix-blend-mode:multiply"/><path d="M205.989 13.774l8.177 9.64a.487.487 0 1 0 .741-.63l-8.177-9.639a.487.487 0 1 0-.741.629z" fill="url(#v)" style="mix-blend-mode:multiply"/><path d="M204.505 15.032l2.516 2.966a.487.487 0 1 0 .741-.63l-2.515-2.965a.487.487 0 1 0-.742.63z" fill="url(#w)" style="mix-blend-mode:multiply"/><path d="M142.229 121.46l-3.897-3.906-4.006 13.111 5.704-1.419 7.986-1.988 10.266-2.555-13.102-13.699-2.951 10.456zm-5.107 6.553l2.101-6.877 2.414 2.419-1.012 3.586-3.503.872zm5.625-1.4l3.358-11.895 8.544 8.933-11.902 2.962z" fill="#fff"/><path d="M151.187 96.199l-.468-1.882a.96.96 0 0 0-1.155-.712.96.96 0 0 0-.688 1.17l.469 1.882-3.686.918-.469-1.882a.958.958 0 0 0-1.154-.712.958.958 0 0 0-.688 1.17l.468 1.882-3.685.918-.469-1.883a.959.959 0 0 0-1.155-.711.96.96 0 0 0-.688 1.17l.469 1.882-3.686.917-.468-1.882a.959.959 0 0 0-1.155-.711.96.96 0 0 0-.688 1.17l.468 1.882-3.685.917-.468-1.882a.96.96 0 0 0-1.156-.711.96.96 0 0 0-.687 1.17l.468 1.882-5.528 1.376 10.305 41.405 35.012-8.714-10.305-41.405-5.528 1.376zm13.532 38.644l-31.327 7.797-9.388-37.719 3.686-.917.448 1.803a.96.96 0 0 0 1.157.712.96.96 0 0 0 .687-1.17l-.449-1.804 3.685-.917.449 1.803a.96.96 0 0 0 1.156.712.96.96 0 0 0 .687-1.17l-.449-1.803 3.686-.918.448 1.804a.96.96 0 0 0 1.156.711.959.959 0 0 0 .687-1.17l-.448-1.803 3.685-.918.449 1.804a.96.96 0 0 0 1.156.712.96.96 0 0 0 .686-1.171l-.449-1.803 3.686-.918.449 1.804a.96.96 0 0 0 1.156.712.96.96 0 0 0 .686-1.17l-.448-1.804 3.686-.918 9.387 37.719z" fill="#fff"/><path d="M170.724 38.446l-22.24 20.556a.658.658 0 0 0-.037.93l14.299 15.472a.66.66 0 0 0 .931.036l8.024-7.416 2.103 3.436-.194.178a.659.659 0 0 0 .894.967l7.736-7.15a.658.658 0 1 0-.894-.967l-.193.179-3.261-2.365 8.025-7.417a.658.658 0 0 0 .036-.93l-14.299-15.472a.658.658 0 0 0-.93-.037zm4.065 32.102l-2.099-3.43 4.219-3.902 3.258 2.362-5.378 4.97zm.814-25.853l-2.901 2.681-4.469-4.834 2.901-2.681 4.469 4.834zm-2.007 3.648l2.9-2.68 6.256 6.768-2.901 2.68-6.255-6.768zm-6.329-4.908l11.618 12.57-17.406 16.087-11.618-12.57 17.406-16.087zm6.636 20.761l-10.636 9.83-.894-.967 10.636-9.83 10.637-9.831.894.967-10.637 9.831z" fill="url(#x)" style="mix-blend-mode:multiply"/><path d="M173.939 63.266a.658.658 0 1 0-.967.893.658.658 0 0 0 .967-.893z" fill="url(#y)" style="mix-blend-mode:multiply"/><path d="M167.151 59.661l3.315-3.064-7.714-2.434 1.043 4.518-2.259-.66 1.194 5.726 1.842-1.703 2.579-2.383zm-2.597-3.549l3.352 1.058-2.561 2.367-.791-3.425zm-1.01 5.089l-.271-1.301.862.252.096.415-.687.634z" fill="url(#z)" style="mix-blend-mode:multiply"/><path d="M155.515 57.88l-.967.894.894.967.967-.893-.894-.967z" fill="url(#A)" style="mix-blend-mode:multiply"/><path d="M160.832 52.966l-.966.893.894.968.966-.894-.894-.967z" fill="url(#B)" style="mix-blend-mode:multiply"/><path d="M166.151 48.05l-.967.895.893.967.968-.895-.894-.967z" fill="url(#C)" style="mix-blend-mode:multiply"/><path d="M169.727 51.918l-.968.894.894.967.967-.894-.893-.967z" fill="url(#D)" style="mix-blend-mode:multiply"/><path d="M173.302 55.786l-.968.894.894.967.968-.894-.894-.967z" fill="url(#E)" style="mix-blend-mode:multiply"/><path d="M162.666 65.617l-.966.893.894.967.966-.893-.894-.968z" fill="url(#F)" style="mix-blend-mode:multiply"/><path d="M159.091 61.749l-.967.893.894.967.966-.893-.893-.967z" fill="url(#G)" style="mix-blend-mode:multiply"/><path d="M167.984 60.702l-.967.893.894.967.967-.893-.894-.967z" fill="url(#H)" style="mix-blend-mode:multiply"/><circle cx="278.875" cy="82.875" r="10.5" transform="rotate(-1.403 278.875 82.875)" stroke="url(#I)" stroke-width="10" style="mix-blend-mode:multiply"/><path d="M210.26 244.804l-.096-3.912-5.945.146-.169-6.892-4.105.1.169 6.892-5.945.146.096 3.912 5.945-.146.176 7.191 4.105-.101-.176-7.19 5.945-.146z" fill="#fff"/><path d="M246.524 242.371c-.037-1.506-4.456-14.245 11.664-10.119 16.12 4.126 20.861-3.525 23.79-18.117 2.929-14.592 12.473-16.195 20.006-16.106" stroke="url(#J)" stroke-width="8" stroke-linecap="round" stroke-linejoin="round" style="mix-blend-mode:multiply"/><path d="M281.485 18.526c-.522.283-4.21 4.113-5.636-2.267-1.427-6.38-4.961-6.668-10.61-5.077-5.65 1.59-7.916-1.462-9.229-4.114" stroke="url(#K)" stroke-width="8" stroke-linecap="round" stroke-linejoin="round" style="mix-blend-mode:multiply"/><circle cx="98.314" cy="175.314" r="10.5" transform="rotate(-1.403 98.314 175.314)" stroke="#fff" stroke-width="5"/><defs><linearGradient id="a" x1="53.555" y1="37.857" x2="14.556" y2="50.397" gradientUnits="userSpaceOnUse"><stop stop-color="#FFC000"/><stop offset="1" stop-color="#FF8A00"/></linearGradient><linearGradient id="b" x1="222.78" y1="190.141" x2="223.206" y2="155.694" gradientUnits="userSpaceOnUse"><stop stop-color="#FFC000"/><stop offset="1" stop-color="#FF8A00"/></linearGradient><linearGradient id="c" x1="217.693" y1="177.874" x2="216.975" y2="166.762" gradientUnits="userSpaceOnUse"><stop stop-color="#FFC000"/><stop offset="1" stop-color="#FF8A00"/></linearGradient><linearGradient id="f" x1="157.657" y1="-12.315" x2="127.395" y2="-2.907" gradientUnits="userSpaceOnUse"><stop stop-color="#FFC000"/><stop offset="1" stop-color="#FF8A00"/></linearGradient><linearGradient id="g" x1="162.253" y1="213.341" x2="163.71" y2="217.428" gradientUnits="userSpaceOnUse"><stop stop-color="#FFC000"/><stop offset="1" stop-color="#FF8A00"/></linearGradient><linearGradient id="h" x1="157.371" y1="214.986" x2="157.204" y2="218.173" gradientUnits="userSpaceOnUse"><stop stop-color="#FFC000"/><stop offset="1" stop-color="#FF8A00"/></linearGradient><linearGradient id="i" x1="169.344" y1="199.109" x2="165.676" y2="208.834" gradientUnits="userSpaceOnUse"><stop stop-color="#FFC000"/><stop offset="1" stop-color="#FF8A00"/></linearGradient><linearGradient id="j" x1="164.634" y1="191.555" x2="154.46" y2="220.664" gradientUnits="userSpaceOnUse"><stop stop-color="#FFC000"/><stop offset="1" stop-color="#FF8A00"/></linearGradient><linearGradient id="k" x1="122.515" y1="27.858" x2="80.796" y2="42.344" gradientUnits="userSpaceOnUse"><stop stop-color="#FFC000"/><stop offset="1" stop-color="#FF8A00"/></linearGradient><linearGradient id="m" x1="277.678" y1="125.004" x2="248.857" y2="134.535" gradientUnits="userSpaceOnUse"><stop stop-color="#FFC000"/><stop offset="1" stop-color="#FF8A00"/></linearGradient><linearGradient id="o" x1="190.173" y1="97.707" x2="226.778" y2="131.835" gradientUnits="userSpaceOnUse"><stop stop-color="#FFC000"/><stop offset="1" stop-color="#FF8A00"/></linearGradient><linearGradient id="p" x1="227.097" y1="22.885" x2="203.982" y2="8.955" gradientUnits="userSpaceOnUse"><stop stop-color="#FFC000"/><stop offset="1" stop-color="#FF8A00"/></linearGradient><linearGradient id="q" x1="209.286" y1="23.71" x2="208.335" y2="23.086" gradientUnits="userSpaceOnUse"><stop stop-color="#FFC000"/><stop offset="1" stop-color="#FF8A00"/></linearGradient><linearGradient id="r" x1="222.265" y1="19.466" x2="218.798" y2="21.336" gradientUnits="userSpaceOnUse"><stop stop-color="#FFC000"/><stop offset="1" stop-color="#FF8A00"/></linearGradient><linearGradient id="s" x1="216.435" y1="15.601" x2="212.888" y2="16.868" gradientUnits="userSpaceOnUse"><stop stop-color="#FFC000"/><stop offset="1" stop-color="#FF8A00"/></linearGradient><linearGradient id="t" x1="216.813" y1="19.055" x2="213.288" y2="20.663" gradientUnits="userSpaceOnUse"><stop stop-color="#FFC000"/><stop offset="1" stop-color="#FF8A00"/></linearGradient><linearGradient id="u" x1="212.848" y1="17.386" x2="209.31" y2="18.49" gradientUnits="userSpaceOnUse"><stop stop-color="#FFC000"/><stop offset="1" stop-color="#FF8A00"/></linearGradient><linearGradient id="v" x1="215.09" y1="23.036" x2="211.594" y2="24.793" gradientUnits="userSpaceOnUse"><stop stop-color="#FFC000"/><stop offset="1" stop-color="#FF8A00"/></linearGradient><linearGradient id="w" x1="208.019" y1="17.707" x2="204.706" y2="18.064" gradientUnits="userSpaceOnUse"><stop stop-color="#FFC000"/><stop offset="1" stop-color="#FF8A00"/></linearGradient><linearGradient id="x" x1="171.359" y1="38.77" x2="153.845" y2="70.842" gradientUnits="userSpaceOnUse"><stop stop-color="#FFC000"/><stop offset="1" stop-color="#FF8A00"/></linearGradient><linearGradient id="y" x1="173.501" y1="62.817" x2="172.711" y2="64.14" gradientUnits="userSpaceOnUse"><stop stop-color="#FFC000"/><stop offset="1" stop-color="#FF8A00"/></linearGradient><linearGradient id="z" x1="165.714" y1="51.657" x2="161.044" y2="62.446" gradientUnits="userSpaceOnUse"><stop stop-color="#FFC000"/><stop offset="1" stop-color="#FF8A00"/></linearGradient><linearGradient id="A" x1="155.524" y1="57.916" x2="154.734" y2="59.239" gradientUnits="userSpaceOnUse"><stop stop-color="#FFC000"/><stop offset="1" stop-color="#FF8A00"/></linearGradient><linearGradient id="B" x1="160.841" y1="53.001" x2="160.052" y2="54.324" gradientUnits="userSpaceOnUse"><stop stop-color="#FFC000"/><stop offset="1" stop-color="#FF8A00"/></linearGradient><linearGradient id="C" x1="166.16" y1="48.085" x2="165.37" y2="49.41" gradientUnits="userSpaceOnUse"><stop stop-color="#FFC000"/><stop offset="1" stop-color="#FF8A00"/></linearGradient><linearGradient id="D" x1="169.736" y1="51.953" x2="168.946" y2="53.277" gradientUnits="userSpaceOnUse"><stop stop-color="#FFC000"/><stop offset="1" stop-color="#FF8A00"/></linearGradient><linearGradient id="E" x1="173.311" y1="55.821" x2="172.521" y2="57.145" gradientUnits="userSpaceOnUse"><stop stop-color="#FFC000"/><stop offset="1" stop-color="#FF8A00"/></linearGradient><linearGradient id="F" x1="162.675" y1="65.651" x2="161.886" y2="66.975" gradientUnits="userSpaceOnUse"><stop stop-color="#FFC000"/><stop offset="1" stop-color="#FF8A00"/></linearGradient><linearGradient id="G" x1="159.1" y1="61.784" x2="158.31" y2="63.107" gradientUnits="userSpaceOnUse"><stop stop-color="#FFC000"/><stop offset="1" stop-color="#FF8A00"/></linearGradient><linearGradient id="H" x1="167.993" y1="60.737" x2="167.203" y2="62.06" gradientUnits="userSpaceOnUse"><stop stop-color="#FFC000"/><stop offset="1" stop-color="#FF8A00"/></linearGradient><linearGradient id="I" x1="293.972" y1="68.124" x2="259.168" y2="78.382" gradientUnits="userSpaceOnUse"><stop stop-color="#FFC000"/><stop offset="1" stop-color="#FF8A00"/></linearGradient><linearGradient id="J" x1="301.268" y1="199.058" x2="241.521" y2="224.103" gradientUnits="userSpaceOnUse"><stop stop-color="#FFC000"/><stop offset="1" stop-color="#FF8A00"/></linearGradient><linearGradient id="K" x1="256.499" y1="7.134" x2="275.912" y2="23.607" gradientUnits="userSpaceOnUse"><stop stop-color="#FFC000"/><stop offset="1" stop-color="#FF8A00"/></linearGradient><clipPath id="d"><path fill="#fff" transform="rotate(-1.403 3934.384 -2157.864)" d="M0 0h27v28H0z"/></clipPath><clipPath id="e"><path fill="#fff" transform="rotate(-1.403 -438.505 -5357.021)" d="M0 0h27v28H0z"/></clipPath><clipPath id="l"><path fill="#fff" transform="rotate(-1.403 5216.907 -10230.924)" d="M0 0h26v26H0z"/></clipPath><clipPath id="n"><path fill="#fff" transform="rotate(-120.583 143.768 7.156)" d="M0 0h42.758v42.758H0z"/></clipPath></defs></svg>