<?xml version="1.0" encoding="UTF-8" standalone="no"?>
<svg
   xmlns:dc="http://purl.org/dc/elements/1.1/"
   xmlns:cc="http://creativecommons.org/ns#"
   xmlns:rdf="http://www.w3.org/1999/02/22-rdf-syntax-ns#"
   xmlns:svg="http://www.w3.org/2000/svg"
   xmlns="http://www.w3.org/2000/svg"
   xmlns:sodipodi="http://sodipodi.sourceforge.net/DTD/sodipodi-0.dtd"
   xmlns:inkscape="http://www.inkscape.org/namespaces/inkscape"
   width="531"
   height="517"
   viewBox="0 0 531 517"
   fill="none"
   version="1.1"
   id="svg560"
   sodipodi:docname="process-img_r.svg"
   inkscape:version="0.92.4 (5da689c313, 2019-01-14)">
  <metadata
     id="metadata564">
    <rdf:RDF>
      <cc:Work
         rdf:about="">
        <dc:format>image/svg+xml</dc:format>
        <dc:type
           rdf:resource="http://purl.org/dc/dcmitype/StillImage" />
        <dc:title></dc:title>
      </cc:Work>
    </rdf:RDF>
  </metadata>
  <sodipodi:namedview
     pagecolor="#ffffff"
     bordercolor="#666666"
     borderopacity="1"
     objecttolerance="10"
     gridtolerance="10"
     guidetolerance="10"
     inkscape:pageopacity="0"
     inkscape:pageshadow="2"
     inkscape:window-width="1920"
     inkscape:window-height="1016"
     id="namedview562"
     showgrid="false"
     inkscape:zoom="0.91295938"
     inkscape:cx="23.392594"
     inkscape:cy="167.94178"
     inkscape:window-x="1280"
     inkscape:window-y="27"
     inkscape:window-maximized="1"
     inkscape:current-layer="svg560" />
  <path
     d="m 263.539,42 c -4.151,0.23 -8.237,1.93 -11.41,5.102 -6.839,6.84 -6.839,17.929 0,24.768 A 17.46,17.46 0 0 0 264.514,77 c 4.482,0 8.965,-1.71 12.384,-5.13 A 17.452,17.452 0 0 0 282,60.46 Z m -3.938,23.338 h -3.468 l 3.676,-6.128 1.688,2.81 z m 1.68,0 5.825,-10.194 5.826,10.194 z m 16.987,-6.546 a 15.989,15.989 0 0 1 -8.594,-4.465 15.913,15.913 0 0 1 -3.691,-5.733 16.05,16.05 0 0 1 -0.776,-2.863 z m 0.949,7.155 a 16.026,16.026 0 0 1 -3.351,4.892 16,16 0 0 1 -11.352,4.702 15.996,15.996 0 0 1 -11.352,-4.702 16.004,16.004 0 0 1 -4.703,-11.352 15.99,15.99 0 0 1 1.176,-6.043 15.954,15.954 0 0 1 3.527,-5.31 15.98,15.98 0 0 1 9.819,-4.629 l 0.566,0.567 a 17.456,17.456 0 0 0 3.109,8.919 l -4.331,7.577 -2.516,-4.195 -6.255,10.424 h 21.892 L 269.23,55.919 a 17.441,17.441 0 0 0 10.698,4.533 l 0.567,0.567 a 15.99,15.99 0 0 1 -1.278,4.928 z"
     style="mix-blend-mode:multiply;fill:url(#a)"
     id="path2"
     inkscape:connector-curvature="0" />
  <path
     d="m 469.875,39 -8.548,10.008 -0.78,0.912 -8.547,10.01 18.312,15.64 8.548,-10.008 0.78,-0.913 8.548,-10.008 z m 0.308,34.95 -16.565,-14.148 7.803,-9.136 16.564,14.148 z m -7.983,-24.196 7.802,-9.135 16.565,14.148 -7.803,9.135 z"
     id="path4"
     inkscape:connector-curvature="0"
     style="fill:#ffffff" />
  <path
     d="m 472.021,49.034 0.38,-2.273 -5.433,1.823 1.869,1.596 2.616,2.235 3.362,2.87 1.48,-7.786 z m -2.766,-0.007 1.7,-0.574 -0.172,1.028 -0.703,0.25 z m 1.83,1.563 3.709,-1.332 -0.736,3.872 z m 2.553,5.196 -6.978,-5.96 a 0.576,0.576 0 0 0 -0.81,0.066 0.576,0.576 0 0 0 0.065,0.807 l 6.977,5.96 a 0.572,0.572 0 0 0 0.806,-0.064 0.573,0.573 0 0 0 -0.06,-0.81 z m -15.544,4.07 a 0.573,0.573 0 0 0 -0.743,0.87 0.574,0.574 0 0 0 0.81,-0.06 0.574,0.574 0 0 0 -0.067,-0.81 z m 1.743,1.488 a 0.573,0.573 0 1 0 -0.742,0.873 0.573,0.573 0 0 0 0.742,-0.873 z m 1.747,1.492 a 0.574,0.574 0 0 0 -0.81,0.061 0.57454156,0.57454156 0 0 0 0.874,0.746 0.573,0.573 0 0 0 -0.064,-0.807 z m 1.743,1.489 a 0.574,0.574 0 0 0 -0.81,0.061 0.574,0.574 0 0 0 0.872,0.745 0.573,0.573 0 0 0 -0.062,-0.806 z m 1.744,1.49 a 0.57204655,0.57204655 0 1 0 -0.743,0.87 0.57,0.57 0 0 0 0.806,-0.064 0.57,0.57 0 0 0 -0.063,-0.806 z m -2.181,-3.374 3.36,2.871 1.48,-7.783 -4.275,1.534 0.382,-2.276 -5.433,1.823 1.869,1.596 2.616,2.235 z m 2.602,0.718 -2.974,-2.54 3.71,-1.332 z m -4.804,-4.103 1.7,-0.573 -0.17,1.025 -0.705,0.253 z m 21.885,-1.633 a 0.575,0.575 0 0 0 -0.617,-0.526 l -2.86,0.227 -0.09,-1.144 a 0.575,0.575 0 0 0 -1.144,0.09 l 0.135,1.713 a 0.575,0.575 0 0 0 0.617,0.527 l 3.432,-0.27 a 0.575,0.575 0 0 0 0.527,-0.617 z m -13.078,10.315 a 0.571,0.571 0 0 0 0.617,0.527 l 0.002,0.002 1.142,-0.092 0.09,1.144 a 0.575,0.575 0 0 0 1.144,-0.09 l -0.093,-1.141 1.144,-0.09 a 0.575,0.575 0 0 0 -0.09,-1.144 l -1.144,0.09 -0.087,-1.142 -0.003,-0.002 a 0.574,0.574 0 0 0 -1.144,0.09 l 0.09,1.144 -1.141,0.087 a 0.575,0.575 0 0 0 -0.527,0.617 z"
     id="path6"
     inkscape:connector-curvature="0"
     style="fill:#ffffff" />
  <path
     d="m 448.129,180.896 0.694,-1.74 0.232,-0.58 0.231,-0.58 c -1.584,-0.632 -2.354,-2.448 -1.715,-4.047 0.638,-1.599 2.446,-2.386 4.03,-1.753 l 0.232,-0.581 0.231,-0.58 0.695,-1.74 -1.357,-9.956 -7.247,-0.202 -0.24,3.939 -13.218,-5.275 -6.482,16.241 13.218,5.276 -2.538,3.021 5.396,4.843 z m -11.509,1.314 1.757,-2.09 1.114,-1.326 -1.595,-0.637 -12.068,-4.816 5.556,-13.922 12.068,4.817 1.595,0.636 0.105,-1.728 0.166,-2.726 4.999,0.139 1.17,8.587 -0.64,1.601 a 4.368,4.368 0 0 0 -4.426,2.745 4.367,4.367 0 0 0 1.32,5.038 l -0.638,1.601 -6.761,5.422 z"
     style="mix-blend-mode:multiply;fill:url(#b)"
     id="path8"
     inkscape:connector-curvature="0" />
  <path
     d="m 438.498,169.26 2.188,-0.364 -3.32,-4.399 -0.882,2.21 -1.234,3.093 -1.588,3.978 7.54,-1.09 z m -0.8,-2.255 0.754,0.999 -0.835,0.139 -0.248,-0.314 z m -0.862,2.16 2.05,2.599 -3.277,0.474 z"
     style="mix-blend-mode:multiply;fill:url(#c)"
     id="path10"
     inkscape:connector-curvature="0" />
  <path
     d="m 303,123.05 -8.727,-9.05 6.614,-6.859 c 1.318,-1.366 1.318,-3.582 0,-4.949 a 3.305,3.305 0 0 0 -2.387,-1.026 c -0.863,0 -1.728,0.342 -2.387,1.026 l -6.613,6.858 -8.727,-9.05 -4.773,4.95 8.727,9.05 -7.602,7.884 v 4.95 h 4.773 l 7.602,-7.884 8.727,9.05 z m -9.523,-9.875 -1.189,-1.234 5.022,-5.208 1.19,1.233 z m 3.432,-10.159 a 2.198,2.198 0 0 1 1.591,-0.683 c 0.601,0 1.166,0.243 1.591,0.683 a 2.398,2.398 0 0 1 0,3.3 l -0.796,0.825 -3.182,-3.3 z m -1.591,1.65 1.197,1.242 -5.023,5.208 -1.197,-1.241 z m -14.545,-3.016 1.568,1.625 -0.796,0.825 c -0.22,0.228 -0.22,0.598 0,0.825 a 0.549,0.549 0 0 0 0.796,0 v -10e-4 l 0.795,-0.824 1.591,1.65 -0.795,0.825 c -0.22,0.228 -0.22,0.598 0,0.825 a 0.548,0.548 0 0 0 0.795,0 l 0.796,-0.825 1.591,1.65 -0.795,0.825 h -0.001 a 0.6,0.6 0 0 0 0,0.825 0.549,0.549 0 0 0 0.796,0 l 0.795,-0.825 1.591,1.65 -0.795,0.825 c -0.22,0.228 -0.22,0.597 0,0.825 a 0.548,0.548 0 0 0 0.795,0 l 0.795,-0.825 1.591,1.65 -0.795,0.825 c -0.22,0.228 -0.22,0.597 0,0.825 a 0.548,0.548 0 0 0 0.795,0 h 10e-4 l 0.795,-0.825 1.591,1.65 -0.796,0.825 a 0.6,0.6 0 0 0 0,0.825 0.549,0.549 0 0 0 0.796,0 l 0.795,-0.825 1.592,1.65 -0.796,0.825 c -0.22,0.228 -0.22,0.597 0,0.825 a 0.55,0.55 0 0 0 0.796,0 v -0.001 l 0.795,-0.824 1.591,1.65 -0.795,0.824 v 10e-4 c -0.22,0.227 -0.22,0.597 0,0.825 a 0.55,0.55 0 0 0 0.795,0 l 0.796,-0.825 1.567,1.625 -3.182,3.3 -20.636,-21.4 z m -2.524,24.017 V 124.7 l 0.933,0.967 z m 3.183,0 h -0.66 l -2.523,-2.617 v -0.683 l 7.274,-7.542 1.196,1.241 -5.613,5.821 c -0.22,0.228 -0.22,0.598 0,0.825 a 0.548,0.548 0 0 0 0.795,0 l 5.614,-5.821 1.19,1.234 z"
     id="path12"
     inkscape:connector-curvature="0"
     style="fill:#ffffff" />
  <path
     d="M 402,24.05 393.273,15 399.887,8.141 c 1.318,-1.366 1.318,-3.582 0,-4.95 A 3.306,3.306 0 0 0 397.5,2.166 c -0.863,0 -1.728,0.342 -2.387,1.026 L 388.5,10.05 379.773,1 375,5.95 l 8.727,9.05 -7.602,7.884 v 4.95 h 4.773 L 388.5,19.95 397.227,29 Z m -9.523,-9.875 -1.189,-1.234 5.022,-5.208 1.19,1.233 z m 3.432,-10.159 a 2.196,2.196 0 0 1 3.182,0 2.399,2.399 0 0 1 0,3.3 l -0.796,0.825 -3.182,-3.3 z m -1.591,1.65 1.197,1.242 -5.023,5.208 -1.197,-1.24 z M 379.773,2.65 381.341,4.275 380.545,5.1 c -0.22,0.228 -0.22,0.598 0,0.825 a 0.55,0.55 0 0 0 0.796,0 l 0.795,-0.825 1.591,1.65 -0.795,0.825 c -0.22,0.228 -0.22,0.598 0,0.825 a 0.548,0.548 0 0 0 0.795,0 l 0.796,-0.825 1.591,1.65 -0.795,0.825 h -0.001 a 0.6,0.6 0 0 0 0,0.825 0.549,0.549 0 0 0 0.796,0 l 0.795,-0.825 1.591,1.65 -0.795,0.825 c -0.22,0.228 -0.22,0.597 0,0.825 a 0.548,0.548 0 0 0 0.795,0 l 0.795,-0.825 1.591,1.65 -0.795,0.825 c -0.22,0.228 -0.22,0.597 0,0.825 a 0.548,0.548 0 0 0 0.795,0 h 10e-4 l 0.795,-0.825 1.591,1.65 -0.796,0.825 a 0.6,0.6 0 0 0 0,0.825 0.55,0.55 0 0 0 0.796,0 l 0.795,-0.825 1.592,1.65 -0.796,0.825 c -0.22,0.228 -0.22,0.597 0,0.825 a 0.549,0.549 0 0 0 0.796,0 l 0.795,-0.825 1.591,1.65 -0.795,0.824 a 0.6,0.6 0 0 0 0,0.826 0.548,0.548 0 0 0 0.795,0 l 0.796,-0.825 1.567,1.625 -3.182,3.3 -20.636,-21.4 z m -2.524,24.017 V 25.7 l 0.933,0.967 z m 3.183,0 h -0.66 l -2.523,-2.617 v -0.683 l 7.274,-7.542 1.196,1.241 -5.613,5.821 c -0.22,0.228 -0.22,0.598 0,0.825 a 0.548,0.548 0 0 0 0.795,0 l 5.614,-5.82 1.19,1.233 z"
     style="mix-blend-mode:multiply;fill:url(#d)"
     id="path14"
     inkscape:connector-curvature="0" />
  <path
     d="m 396.827,209.588 -5.017,4.859 a 0.583,0.583 0 0 0 0.81,0.837 l 5.018,-4.859 a 0.583,0.583 0 0 0 -0.811,-0.837 z"
     style="mix-blend-mode:multiply;fill:url(#e)"
     id="path16"
     inkscape:connector-curvature="0" />
  <path
     d="m 391,213.611 1.672,-1.62 a 0.582,0.582 0 1 0 -0.809,-0.835 l -1.672,1.619 a 0.583,0.583 0 0 0 0.809,0.836 z"
     style="mix-blend-mode:multiply;fill:url(#f)"
     id="path18"
     inkscape:connector-curvature="0" />
  <path
     d="m 403.075,201.47 -2.011,-0.537 1.174,5.037 1.593,-1.543 2.229,-2.159 2.868,-2.777 -6.869,-1.992 z m -0.171,2.234 -0.266,-1.146 0.767,0.205 0.093,0.365 z m 1.557,-1.508 -0.769,-3.011 2.985,0.865 z"
     style="mix-blend-mode:multiply;fill:url(#g)"
     id="path20"
     inkscape:connector-curvature="0" />
  <path
     d="m 399.652,187.404 -19.234,18.628 a 0.583,0.583 0 0 0 -0.013,0.824 l 11.339,11.707 a 0.582,0.582 0 0 0 0.823,0.013 L 411.8,199.948 a 0.581,0.581 0 0 0 0.014,-0.822 l -11.34,-11.708 a 0.581,0.581 0 0 0 -0.822,-0.014 z m -0.429,2.037 -3.498,12.861 a 0.53,0.53 0 0 1 -0.292,0.283 l -12.969,3.087 z m -7.048,27.893 -10.057,-10.383 13.585,-3.234 a 1.586,1.586 0 0 0 0.714,-0.409 1.584,1.584 0 0 0 0.432,-0.7 l 3.664,-13.477 10.059,10.385 z"
     style="mix-blend-mode:multiply;fill:url(#h)"
     id="path22"
     inkscape:connector-curvature="0" />
  <path
     d="M 340,25.727 C 340,18.698 334.329,13 327.333,13 325.026,13 322.864,13.62 321,14.703 A 12.562,12.562 0 0 0 314.667,13 C 307.671,13 302,18.698 302,25.727 c 0,4.75 2.588,8.89 6.425,11.077 C 309.177,43.11 314.52,48 321,48 c 6.48,0 11.823,-4.89 12.575,-11.196 A 12.731,12.731 0 0 0 340,25.727 Z m -29.836,11.899 c 1.4,0.535 2.917,0.828 4.503,0.828 2.307,0 4.469,-0.62 6.333,-1.703 a 12.562,12.562 0 0 0 6.333,1.703 c 1.586,0 3.103,-0.293 4.503,-0.828 a 11.133,11.133 0 0 1 -2.999,5.521 11.043,11.043 0 0 1 -3.523,2.388 10.97,10.97 0 0 1 -4.314,0.875 10.97,10.97 0 0 1 -4.314,-0.875 11.042,11.042 0 0 1 -3.523,-2.388 11.106,11.106 0 0 1 -2.999,-5.521 z m 21.907,-1.828 a 10.969,10.969 0 0 1 -4.738,1.066 10.962,10.962 0 0 1 -4.851,-1.12 12.723,12.723 0 0 0 4.844,-9.617 c 0.537,0.376 1.043,0.8 1.511,1.271 a 11.11,11.11 0 0 1 3.246,7.875 c 0,0.176 -0.004,0.35 -0.012,0.525 z m -6.334,-10.596 a 11.099,11.099 0 0 1 -0.857,4.859 11.124,11.124 0 0 1 -3.88,4.807 11.046,11.046 0 0 1 -1.504,-1.266 11.123,11.123 0 0 1 -3.233,-8.4 10.972,10.972 0 0 1 4.737,-1.066 10.97,10.97 0 0 1 4.737,1.066 z M 321,22.546 c -1.585,0 -3.103,0.293 -4.502,0.828 a 11.123,11.123 0 0 1 2.998,-5.521 11.01,11.01 0 0 1 1.504,-1.266 11.01,11.01 0 0 1 1.504,1.266 11.123,11.123 0 0 1 2.998,5.521 A 12.583,12.583 0 0 0 321,22.546 Z m -6.326,3.58 a 12.723,12.723 0 0 0 4.844,9.617 10.964,10.964 0 0 1 -4.851,1.12 10.967,10.967 0 0 1 -4.738,-1.065 11.099,11.099 0 0 1 0.858,-4.859 11.107,11.107 0 0 1 2.376,-3.54 11.076,11.076 0 0 1 1.511,-1.272 z m 4.844,-10.415 a 12.72,12.72 0 0 0 -4.759,8.485 12.731,12.731 0 0 0 -6.419,10.677 11.17,11.17 0 0 1 -1.51,-1.271 11.09,11.09 0 0 1 -2.376,-3.54 11.1,11.1 0 0 1 -0.871,-4.335 c 0,-1.504 0.293,-2.962 0.871,-4.334 a 11.09,11.09 0 0 1 2.376,-3.54 11.043,11.043 0 0 1 3.523,-2.388 10.967,10.967 0 0 1 4.314,-0.874 10.962,10.962 0 0 1 4.851,1.12 z m 18.028,5.682 a 11.1,11.1 0 0 1 0.871,4.334 11.1,11.1 0 0 1 -0.871,4.334 11.09,11.09 0 0 1 -2.376,3.54 c -0.468,0.472 -0.973,0.896 -1.51,1.272 a 12.731,12.731 0 0 0 -6.419,-10.677 12.72,12.72 0 0 0 -4.759,-8.485 10.962,10.962 0 0 1 4.851,-1.12 c 1.497,0 2.949,0.294 4.314,0.874 a 11.042,11.042 0 0 1 3.523,2.388 11.088,11.088 0 0 1 2.376,3.54 z"
     style="mix-blend-mode:multiply;fill:url(#i)"
     id="path24"
     inkscape:connector-curvature="0" />
  <path
     d="m 247.049,29.907 7.345,5.053 3.148,2.166 7.346,5.053 L 283.263,17.716 263.326,4 Z m 1.728,-0.358 1.357,-2.158 6.426,4.42 -1.444,2.1 z m 7.389,5.084 2.887,-4.198 1.05,0.722 -2.888,4.197 z m 2.098,1.443 1.444,-2.099 6.427,4.422 -1.531,2.038 -6.34,-4.36 z m 23.183,-18.063 -14.546,19.366 -6.471,-4.451 1.444,-2.099 a 0.63644363,0.63644363 0 0 0 -1.049,-0.721 0.63713892,0.63713892 0 0 0 -1.05,-0.722 0.63672698,0.63672698 0 1 0 -1.049,-0.722 l -1.444,2.098 -6.47,-4.45 12.885,-20.51 z"
     id="path26"
     inkscape:connector-curvature="0"
     style="fill:#ffffff" />
  <path
     d="m 262.295,23.904 5.555,-2.677 -0.195,3.125 7.081,-3.227 -2.749,-1.891 -3.847,-2.647 -4.948,-3.403 z m 9.864,-3.005 -3.1,1.413 0.106,-1.719 1.5,-0.722 z m -2.703,-1.86 -5.706,2.75 0.528,-6.312 5.178,3.563 z"
     id="path28"
     inkscape:connector-curvature="0"
     style="fill:#ffffff" />
  <g
     clip-path="url(#j)"
     id="g32"
     transform="matrix(-1,0,0,1,531,0)">
    <path
       d="m 23.715,149.636 a 4.073,4.073 0 0 1 4.95,-3.978 l 2.699,-2.7 -7.325,-7.325 a 3.25,3.25 0 0 1 4.595,-4.595 l 7.325,7.326 8.344,-8.344 a 2.16,2.16 0 0 1 1.531,-0.635 2.166,2.166 0 0 1 1.532,3.698 l -8.344,8.344 7.893,7.892 v 4.595 h -4.596 l -7.892,-7.892 -2.675,2.676 c 0.071,0.301 0.11,0.615 0.11,0.938 0,4.613 -6.803,4.978 -9.052,4.978 -2.25,0 0.905,-2.728 0.905,-4.978 z m 2.62,-18.467 a 2.169,2.169 0 0 0 -1.531,3.698 l 0.766,0.766 3.064,-3.064 -0.766,-0.765 a 2.154,2.154 0 0 0 -1.532,-0.635 z m 20.266,1.148 a 1.084,1.084 0 0 0 -1.533,-1.531 l -8.343,8.343 1.532,1.532 z m -0.77,20.514 v -0.897 l -0.897,0.897 z m -3.063,0 h 0.634 l 2.429,-2.429 v -0.634 l -16.432,-16.433 -1.152,1.152 14.835,14.835 a 0.54164379,0.54164379 0 1 1 -0.766,0.766 l -14.835,-14.835 -1.145,1.146 z m -9.106,-7.575 -1.532,-1.531 -2.356,2.355 a 4.09,4.09 0 0 1 1.543,1.521 z m -5.829,7.573 c 0.942,-0.318 1.668,-0.731 2.158,-1.229 0.53,-0.537 0.787,-1.179 0.787,-1.964 a 2.97,2.97 0 0 0 -0.876,-2.114 2.974,2.974 0 0 0 -2.114,-0.876 2.994,2.994 0 0 0 -2.99,2.99 c 0,1.233 -0.657,2.436 -1.186,3.402 -0.078,0.144 -0.173,0.318 -0.26,0.486 1.166,-0.03 2.932,-0.173 4.481,-0.695 z"
       style="mix-blend-mode:multiply;fill:url(#k)"
       id="path30"
       inkscape:connector-curvature="0" />
  </g>
  <g
     clip-path="url(#l)"
     id="g36"
     transform="matrix(-1,0,0,1,531,0)">
    <path
       d="M 114.494,89.447 66.6,103.017 63.685,92.733 111.58,79.163 Z m -46.666,11.373 3.377,-0.958 -0.486,-1.714 a 0.893,0.893 0 0 1 0.614,-1.1 0.893,0.893 0 0 1 1.1,0.614 l 0.486,1.714 3.428,-0.971 -0.485,-1.713 a 0.89092157,0.89092157 0 1 1 1.714,-0.487 l 0.485,1.715 3.428,-0.972 -0.484,-1.714 a 0.89030402,0.89030402 0 1 1 1.713,-0.486 l 0.486,1.714 3.428,-0.971 -0.486,-1.714 a 0.892,0.892 0 0 1 1.715,-0.486 l 0.485,1.714 3.429,-0.971 -0.486,-1.714 a 0.891,0.891 0 0 1 1.714,-0.486 l 0.486,1.715 3.428,-0.972 -0.486,-1.715 a 0.89064878,0.89064878 0 1 1 1.714,-0.485 l 0.486,1.714 3.429,-0.972 -0.486,-1.713 a 0.892,0.892 0 0 1 1.714,-0.487 v 0.001 l 0.486,1.714 3.428,-0.971 -0.485,-1.713 h -0.001 a 0.892,0.892 0 0 1 1.715,-0.487 l 0.486,1.713 3.377,-0.956 -1.943,-6.857 -44.466,12.6 z"
       style="mix-blend-mode:multiply;fill:url(#m)"
       id="path34"
       inkscape:connector-curvature="0" />
  </g>
  <path
     d="M 457.243,17.783 443.196,0.378 a 0.486,0.486 0 0 0 -0.684,-0.073 l -12.107,9.772 a 0.485,0.485 0 0 0 -0.073,0.683 l 5.068,6.28 -2.636,1.38 -0.122,-0.152 a 0.487,0.487 0 0 0 -0.757,0.61 l 4.886,6.055 a 0.48609387,0.48609387 0 0 0 0.757,-0.61 l -0.122,-0.152 1.904,-2.286 5.069,6.28 a 0.486,0.486 0 0 0 0.683,0.073 l 12.108,-9.771 a 0.486,0.486 0 0 0 0.073,-0.684 z m -23.856,1.408 2.632,-1.377 2.666,3.301 -1.902,2.284 z m 22.793,-1.176 -9.837,7.94 -13.435,-16.649 9.837,-7.94 13.435,16.65 z m -18.068,0.837 -6.718,-8.323 0.757,-0.611 6.718,8.324 6.717,8.323 -0.757,0.61 z"
     style="mix-blend-mode:multiply;fill:url(#n)"
     id="path38"
     inkscape:connector-curvature="0" />
  <path
     d="m 438.795,18.925 a 0.486,0.486 0 1 0 -0.609,-0.756 0.486,0.486 0 0 0 0.61,0.756 z"
     style="mix-blend-mode:multiply;fill:url(#o)"
     id="path40"
     inkscape:connector-curvature="0" />
  <path
     d="m 442.148,3.724 9.16,11.35 h 0.001 a 0.48609387,0.48609387 0 0 0 0.757,-0.61 l -9.16,-11.35 a 0.487,0.487 0 1 0 -0.758,0.61 z"
     style="mix-blend-mode:multiply;fill:url(#p)"
     id="path42"
     inkscape:connector-curvature="0" />
  <path
     d="m 440.635,4.946 4.885,6.053 a 0.48609387,0.48609387 0 1 0 0.757,-0.61 l -4.885,-6.054 a 0.487,0.487 0 1 0 -0.757,0.611 z"
     style="mix-blend-mode:multiply;fill:url(#q)"
     id="path44"
     inkscape:connector-curvature="0" />
  <path
     d="m 439.12,6.168 6.717,8.323 a 0.48609387,0.48609387 0 1 0 0.757,-0.61 l -6.717,-8.324 a 0.487,0.487 0 1 0 -0.757,0.61 z"
     style="mix-blend-mode:multiply;fill:url(#r)"
     id="path46"
     inkscape:connector-curvature="0" />
  <path
     d="m 437.608,7.389 4.274,5.296 a 0.48609387,0.48609387 0 1 0 0.757,-0.61 l -4.274,-5.297 a 0.487,0.487 0 1 0 -0.757,0.61 z"
     style="mix-blend-mode:multiply;fill:url(#s)"
     id="path48"
     inkscape:connector-curvature="0" />
  <path
     d="m 436.094,8.61 7.94,9.837 h -10e-4 a 0.487,0.487 0 1 0 0.757,-0.61 L 436.85,8 a 0.486,0.486 0 1 0 -0.756,0.61 z"
     style="mix-blend-mode:multiply;fill:url(#t)"
     id="path50"
     inkscape:connector-curvature="0" />
  <path
     d="m 434.58,9.832 2.443,3.026 a 0.48609387,0.48609387 0 1 0 0.757,-0.61 l -2.442,-3.027 a 0.487,0.487 0 1 0 -0.757,0.611 z"
     style="mix-blend-mode:multiply;fill:url(#u)"
     id="path52"
     inkscape:connector-curvature="0" />
  <path
     d="m 367.714,142.114 -3.8,-4 -4.325,13.009 5.737,-1.28 8.032,-1.791 10.326,-2.303 -12.763,-14.016 z m -5.265,6.426 2.269,-6.823 2.354,2.477 -1.1,3.56 z m 5.658,-1.262 3.647,-11.809 8.323,9.139 z"
     id="path54"
     inkscape:connector-curvature="0"
     style="fill:#ffffff" />
  <path
     d="m 377.288,117.08 -0.422,-1.894 a 0.959,0.959 0 0 0 -1.137,-0.739 0.96,0.96 0 0 0 -0.716,1.153 l 0.422,1.893 -3.707,0.827 -0.422,-1.893 a 0.96,0.96 0 0 0 -1.137,-0.74 c -0.513,0.114 -0.833,0.63 -0.716,1.153 l 0.422,1.893 -3.707,0.827 -0.422,-1.893 a 0.96,0.96 0 0 0 -1.137,-0.74 0.96,0.96 0 0 0 -0.717,1.153 l 0.423,1.893 -3.707,0.827 -0.422,-1.893 a 0.96,0.96 0 0 0 -1.138,-0.74 0.96,0.96 0 0 0 -0.716,1.153 l 0.422,1.893 -3.707,0.827 -0.422,-1.893 a 0.96,0.96 0 0 0 -1.137,-0.74 0.961,0.961 0 0 0 -0.717,1.154 l 0.423,1.893 -5.561,1.24 9.289,41.645 35.215,-7.855 -9.288,-41.645 z m 12.583,38.963 -31.509,7.028 -8.462,-37.937 3.707,-0.827 0.405,1.814 a 0.96,0.96 0 0 0 1.138,0.74 0.959,0.959 0 0 0 0.715,-1.153 l -0.404,-1.814 3.707,-0.827 0.404,1.814 a 0.96,0.96 0 0 0 1.138,0.74 0.961,0.961 0 0 0 0.716,-1.154 l -0.405,-1.813 3.707,-0.827 0.405,1.814 a 0.96,0.96 0 0 0 1.138,0.74 0.96,0.96 0 0 0 0.715,-1.154 l -0.404,-1.814 3.706,-0.826 0.405,1.813 a 0.959,0.959 0 0 0 1.138,0.74 0.959,0.959 0 0 0 0.715,-1.153 l -0.405,-1.814 3.708,-0.826 0.404,1.813 a 0.96,0.96 0 0 0 1.139,0.74 0.958,0.958 0 0 0 0.714,-1.153 l -0.404,-1.814 3.707,-0.827 z"
     id="path56"
     inkscape:connector-curvature="0"
     style="fill:#ffffff" />
  <path
     d="M 388.231,43.435 365.495,63.44 c -0.273,0.24 -0.3,0.656 -0.06,0.93 l 13.916,15.816 a 0.66,0.66 0 0 0 0.93,0.06 l 8.203,-7.219 2.018,3.486 -0.198,0.174 a 0.659,0.659 0 0 0 0.87,0.989 l 7.909,-6.959 a 0.65822565,0.65822565 0 0 0 -0.87,-0.988 l -0.198,0.174 -3.202,-2.444 8.205,-7.22 a 0.659,0.659 0 0 0 0.059,-0.928 L 389.16,43.494 c -0.24,-0.273 -0.656,-0.3 -0.929,-0.06 z m 3.279,32.192 -2.015,-3.482 4.313,-3.797 3.199,2.442 z m 1.446,-25.827 -2.966,2.61 -4.349,-4.943 2.966,-2.61 z m -2.096,3.598 2.965,-2.61 6.089,6.92 -2.966,2.61 z m -6.207,-5.062 11.307,12.852 -17.794,15.656 -11.307,-12.85 17.794,-15.657 z m 6.126,20.917 -10.873,9.568 -0.87,-0.989 10.873,-9.567 10.875,-9.568 0.869,0.989 z"
     style="mix-blend-mode:multiply;fill:url(#v)"
     id="path58"
     inkscape:connector-curvature="0" />
  <path
     d="m 390.837,68.325 a 0.65756521,0.65756521 0 1 0 -0.988,0.868 0.65756521,0.65756521 0 0 0 0.988,-0.868 z"
     style="mix-blend-mode:multiply;fill:url(#w)"
     id="path60"
     inkscape:connector-curvature="0" />
  <path
     d="m 384.14,64.555 3.389,-2.982 -7.652,-2.621 0.932,4.541 -2.243,-0.715 1.054,5.754 1.883,-1.657 z m -2.51,-3.61 3.325,1.139 -2.618,2.303 -0.707,-3.443 z m -1.133,5.062 -0.24,-1.308 0.856,0.273 0.085,0.417 z"
     style="mix-blend-mode:multiply;fill:url(#x)"
     id="path62"
     inkscape:connector-curvature="0" />
  <path
     d="m 372.551,62.491 -0.988,0.87 0.87,0.988 0.988,-0.87 z"
     style="mix-blend-mode:multiply;fill:url(#y)"
     id="path64"
     inkscape:connector-curvature="0" />
  <path
     d="m 377.988,57.708 -0.989,0.87 0.87,0.988 0.988,-0.87 z"
     style="mix-blend-mode:multiply;fill:url(#z)"
     id="path66"
     inkscape:connector-curvature="0" />
  <path
     d="m 383.424,52.924 -0.989,0.87 0.87,0.989 0.989,-0.87 z"
     style="mix-blend-mode:multiply;fill:url(#A)"
     id="path68"
     inkscape:connector-curvature="0" />
  <path
     d="m 386.904,56.878 -0.989,0.87 0.87,0.989 0.989,-0.87 z"
     style="mix-blend-mode:multiply;fill:url(#B)"
     id="path70"
     inkscape:connector-curvature="0" />
  <path
     d="m 390.384,60.832 -0.989,0.87 0.87,0.99 0.989,-0.871 z"
     style="mix-blend-mode:multiply;fill:url(#C)"
     id="path72"
     inkscape:connector-curvature="0" />
  <path
     d="m 379.511,70.4 -0.988,0.869 0.87,0.989 0.988,-0.87 -0.87,-0.989 z"
     style="mix-blend-mode:multiply;fill:url(#D)"
     id="path74"
     inkscape:connector-curvature="0" />
  <path
     d="m 376.031,66.445 -0.988,0.87 0.87,0.988 0.988,-0.87 z"
     style="mix-blend-mode:multiply;fill:url(#E)"
     id="path76"
     inkscape:connector-curvature="0" />
  <path
     d="m 384.947,65.616 -0.988,0.87 0.87,0.989 0.988,-0.87 z"
     style="mix-blend-mode:multiply;fill:url(#F)"
     id="path78"
     inkscape:connector-curvature="0" />
  <circle
     r="10.5"
     style="mix-blend-mode:multiply;stroke:url(#G);stroke-width:10"
     id="circle80"
     cx="515.5"
     cy="83.5" />
  <path
     d="m 434,248.807 v -3.913 h -5.947 V 238 h -4.106 v 6.894 H 418 v 3.913 h 5.947 V 256 h 4.106 v -7.193 z"
     id="path82"
     inkscape:connector-curvature="0"
     style="fill:#ffffff" />
  <path
     d="m 456.472,268 c 0,-1.506 -4.106,-14.35 11.908,-9.83 16.014,4.519 20.941,-3.013 24.226,-17.529 3.285,-14.516 12.866,-15.885 20.394,-15.612"
     style="mix-blend-mode:multiply;stroke:url(#H);stroke-width:8;stroke-linecap:round;stroke-linejoin:round"
     id="path84"
     inkscape:connector-curvature="0" />
  <path
     d="m 518.197,33.78 c -0.53,0.27 -4.31,4.008 -5.58,-2.405 -1.27,-6.414 -4.795,-6.788 -10.482,-5.336 -5.687,1.452 -7.878,-1.655 -9.125,-4.338"
     style="mix-blend-mode:multiply;stroke:url(#I);stroke-width:8;stroke-linecap:round;stroke-linejoin:round"
     id="path86"
     inkscape:connector-curvature="0" />
  <circle
     r="10.5"
     id="circle88"
     cx="333"
     cy="203"
     style="stroke:#ffffff;stroke-width:5" />
  <path
     d="m 194.461,478 a 17.458,17.458 0 0 0 11.41,-5.102 c 6.839,-6.84 6.839,-17.929 0,-24.768 A 17.46,17.46 0 0 0 193.486,443 c -4.482,0 -8.965,1.71 -12.384,5.13 A 17.449,17.449 0 0 0 176,459.539 Z m 3.938,-23.338 h 3.468 l -3.676,6.129 -1.688,-2.812 z m -1.68,0 -5.825,10.194 -5.826,-10.194 z m -16.987,6.546 a 15.983,15.983 0 0 1 8.594,4.465 15.921,15.921 0 0 1 3.691,5.732 16.059,16.059 0 0 1 0.776,2.864 z m -0.949,-7.155 a 16.047,16.047 0 0 1 3.351,-4.892 16.003,16.003 0 0 1 11.352,-4.701 16,16 0 0 1 11.352,4.701 15.999,15.999 0 0 1 4.703,11.352 15.99,15.99 0 0 1 -4.703,11.353 15.971,15.971 0 0 1 -9.819,4.629 l -0.566,-0.567 a 17.456,17.456 0 0 0 -3.109,-8.919 l 4.331,-7.577 2.516,4.195 6.255,-10.424 h -21.892 l 6.216,10.878 a 17.438,17.438 0 0 0 -10.698,-4.533 l -0.567,-0.567 a 15.982,15.982 0 0 1 1.278,-4.928 z"
     style="mix-blend-mode:multiply;fill:url(#J)"
     id="path90"
     inkscape:connector-curvature="0" />
  <path
     d="m 61.125,456 8.548,-10.008 0.779,-0.913 8.548,-10.008 -18.311,-15.64 -8.549,10.008 -0.779,0.912 -8.548,10.009 z m -0.308,-34.95 16.565,14.148 -7.803,9.136 -16.565,-14.148 z m 7.983,24.196 -7.803,9.135 -16.564,-14.148 7.802,-9.135 z"
     id="path92"
     inkscape:connector-curvature="0"
     style="fill:#ffffff" />
  <path
     d="m 58.978,445.966 -0.379,2.274 5.433,-1.824 -1.869,-1.596 -2.616,-2.235 -3.362,-2.871 -1.481,7.787 z m 2.767,0.007 -1.7,0.574 0.172,-1.029 0.703,-0.25 z m -1.83,-1.563 -3.709,1.332 0.736,-3.872 z m -2.553,-5.196 6.977,5.96 a 0.575,0.575 0 0 0 0.746,-0.874 l -6.977,-5.959 a 0.57416134,0.57416134 0 1 0 -0.746,0.873 z m 15.544,-4.07 a 0.57204655,0.57204655 0 1 0 0.743,-0.87 0.573,0.573 0 0 0 -0.743,0.87 z m -1.744,-1.488 a 0.574,0.574 0 1 0 -0.066,-0.81 0.575,0.575 0 0 0 0.066,0.81 z m -1.747,-1.492 a 0.575,0.575 0 0 0 0.81,-0.061 0.57416134,0.57416134 0 0 0 -0.873,-0.746 0.574,0.574 0 0 0 0.063,0.807 z m -1.742,-1.489 z m -1.745,-1.49 a 0.571,0.571 0 1 0 -0.062,-0.806 0.57,0.57 0 0 0 0.062,0.806 z m 2.182,3.374 -3.361,-2.871 -1.478,7.783 4.274,-1.534 -0.382,2.276 5.433,-1.823 -1.869,-1.596 z m -2.602,-0.718 2.974,2.54 -3.709,1.332 z m 4.804,4.103 -1.701,0.573 0.17,-1.025 0.705,-0.253 z m -21.885,1.632 a 0.575,0.575 0 0 0 0.617,0.527 l 2.859,-0.227 0.09,1.143 a 0.575,0.575 0 0 0 1.144,-0.09 l -0.135,-1.712 a 0.575,0.575 0 0 0 -0.617,-0.527 l -3.431,0.269 a 0.575,0.575 0 0 0 -0.527,0.617 z m 13.078,-10.314 a 0.572,0.572 0 0 0 -0.617,-0.527 l -0.003,-0.002 -1.141,0.092 -0.09,-1.144 a 0.575,0.575 0 0 0 -0.617,-0.527 0.575,0.575 0 0 0 -0.527,0.617 l 0.092,1.141 -1.144,0.09 a 0.574,0.574 0 0 0 0.091,1.144 l 1.143,-0.09 0.088,1.142 0.003,0.002 a 0.575,0.575 0 0 0 0.617,0.527 0.575,0.575 0 0 0 0.526,-0.617 l -0.09,-1.144 1.142,-0.087 a 0.575,0.575 0 0 0 0.527,-0.617 z"
     id="path94"
     inkscape:connector-curvature="0"
     style="fill:#ffffff" />
  <path
     d="m 78.771,311.12 -0.694,1.74 -0.232,0.581 -0.231,0.579 c 1.585,0.633 2.354,2.449 1.716,4.048 -0.638,1.599 -2.446,2.386 -4.031,1.753 l -0.232,0.58 -0.231,0.58 -0.695,1.74 1.357,9.956 7.248,0.203 0.239,-3.939 13.218,5.275 6.482,-16.242 -13.218,-5.275 2.539,-3.022 -5.396,-4.842 z m 11.509,-1.314 -1.757,2.091 -1.114,1.326 1.595,0.637 12.068,4.816 -5.556,13.921 -12.068,-4.816 -1.595,-0.637 -0.105,1.728 -0.165,2.727 -4.999,-0.14 -1.17,-8.587 0.639,-1.601 a 4.367,4.367 0 0 0 4.426,-2.744 4.367,4.367 0 0 0 -1.32,-5.039 l 0.639,-1.6 6.761,-5.423 z"
     style="mix-blend-mode:multiply;fill:url(#K)"
     id="path96"
     inkscape:connector-curvature="0" />
  <path
     d="m 88.402,322.757 -2.187,0.363 3.319,4.399 0.882,-2.209 1.235,-3.094 1.587,-3.978 -7.541,1.091 z m 0.801,2.255 -0.755,-1 0.835,-0.139 0.248,0.315 z m 0.862,-2.16 -2.051,-2.599 3.277,-0.474 z"
     style="mix-blend-mode:multiply;fill:url(#L)"
     id="path98"
     inkscape:connector-curvature="0" />
  <g
     clip-path="url(#M)"
     id="g102"
     transform="matrix(-1,0,0,1,531,0)">
    <path
       d="m 303,371.95 -8.726,9.05 6.613,6.859 c 1.318,1.366 1.318,3.582 0,4.949 a 3.303,3.303 0 0 1 -2.386,1.026 3.307,3.307 0 0 1 -2.388,-1.026 L 289.5,385.95 280.774,395 276,390.05 l 8.727,-9.05 -7.602,-7.884 v -4.95 h 4.773 l 7.602,7.884 8.727,-9.05 z m -9.522,9.875 -1.19,1.234 5.023,5.208 1.19,-1.233 z m 3.431,10.159 a 2.2,2.2 0 0 0 1.592,0.683 c 0.6,0 1.165,-0.243 1.591,-0.683 a 2.4,2.4 0 0 0 0,-3.3 l -0.796,-0.825 -3.183,3.3 z m -1.591,-1.65 1.197,-1.242 -5.022,-5.208 -1.198,1.241 z m -14.544,3.016 1.567,-1.625 -0.796,-0.825 a 0.6,0.6 0 0 1 0,-0.825 0.549,0.549 0 0 1 0.796,0 l 10e-4,0.001 0.794,0.824 1.591,-1.65 -0.795,-0.825 a 0.598,0.598 0 0 1 0,-0.825 0.548,0.548 0 0 1 0.795,0 l 0.796,0.825 1.591,-1.65 -0.795,-0.825 h -0.001 a 0.6,0.6 0 0 1 0,-0.825 0.549,0.549 0 0 1 0.796,0 l 0.795,0.825 1.591,-1.65 -0.795,-0.825 a 0.598,0.598 0 0 1 0,-0.825 0.548,0.548 0 0 1 0.795,0 l 0.795,0.825 1.591,-1.65 -0.795,-0.825 a 0.598,0.598 0 0 1 0,-0.825 0.548,0.548 0 0 1 0.795,0 h 10e-4 l 0.795,0.825 1.592,-1.65 -0.796,-0.825 a 0.598,0.598 0 0 1 0,-0.825 0.549,0.549 0 0 1 0.796,0 l 0.795,0.825 1.591,-1.65 -0.795,-0.825 a 0.598,0.598 0 0 1 0,-0.825 0.548,0.548 0 0 1 0.795,0 v 10e-4 l 0.795,0.824 1.591,-1.65 -0.794,-0.824 -0.001,-0.001 a 0.598,0.598 0 0 1 0,-0.825 0.55,0.55 0 0 1 0.795,0 l 0.796,0.825 1.567,-1.625 -3.182,-3.3 -20.636,21.4 z m -2.524,-24.017 v 0.967 l 0.932,-0.967 z m 3.182,0 h -0.659 l -2.523,2.617 v 0.683 l 7.273,7.542 1.196,-1.241 -5.613,-5.821 a 0.598,0.598 0 0 1 0,-0.825 0.549,0.549 0 0 1 0.796,0 l 5.613,5.821 1.19,-1.234 z"
       id="path100"
       inkscape:connector-curvature="0"
       style="fill:#ffffff" />
  </g>
  <g
     clip-path="url(#N)"
     id="g106"
     transform="matrix(-1,0,0,1,531,0)">
    <path
       d="m 402,470.95 -8.726,9.05 6.613,6.859 c 1.318,1.366 1.318,3.582 0,4.949 a 3.303,3.303 0 0 1 -2.386,1.026 3.307,3.307 0 0 1 -2.388,-1.026 L 388.5,484.95 379.774,494 375,489.05 l 8.727,-9.05 -7.602,-7.884 v -4.95 h 4.773 l 7.602,7.884 8.727,-9.05 z m -9.522,9.875 -1.19,1.234 5.023,5.208 1.19,-1.233 z m 3.431,10.159 a 2.2,2.2 0 0 0 1.592,0.683 c 0.6,0 1.165,-0.243 1.591,-0.683 a 2.4,2.4 0 0 0 0,-3.3 l -0.796,-0.825 -3.183,3.3 z m -1.591,-1.65 1.197,-1.242 -5.022,-5.208 -1.198,1.241 z m -14.544,3.016 1.567,-1.625 -0.796,-0.825 a 0.6,0.6 0 0 1 0,-0.825 0.549,0.549 0 0 1 0.796,0 l 10e-4,0.001 0.794,0.824 1.591,-1.65 -0.795,-0.825 a 0.598,0.598 0 0 1 0,-0.825 0.548,0.548 0 0 1 0.795,0 l 0.796,0.825 1.591,-1.65 -0.795,-0.825 h -0.001 a 0.6,0.6 0 0 1 0,-0.825 0.549,0.549 0 0 1 0.796,0 l 0.795,0.825 1.591,-1.65 -0.795,-0.825 a 0.598,0.598 0 0 1 0,-0.825 0.548,0.548 0 0 1 0.795,0 l 0.795,0.825 1.591,-1.65 -0.795,-0.825 a 0.598,0.598 0 0 1 0,-0.825 0.548,0.548 0 0 1 0.795,0 h 10e-4 l 0.795,0.825 1.592,-1.65 -0.796,-0.825 a 0.598,0.598 0 0 1 0,-0.825 0.549,0.549 0 0 1 0.796,0 l 0.795,0.825 1.591,-1.65 -0.795,-0.825 a 0.598,0.598 0 0 1 0,-0.825 0.548,0.548 0 0 1 0.795,0 v 10e-4 l 0.795,0.824 1.591,-1.65 -0.794,-0.824 -0.001,-0.001 a 0.598,0.598 0 0 1 0,-0.825 0.55,0.55 0 0 1 0.795,0 l 0.796,0.825 1.567,-1.625 -3.182,-3.3 -20.636,21.4 z m -2.524,-24.017 v 0.967 l 0.932,-0.967 z m 3.182,0 h -0.659 l -2.523,2.617 v 0.683 l 7.273,7.542 1.196,-1.241 -5.613,-5.821 a 0.598,0.598 0 0 1 0,-0.825 0.549,0.549 0 0 1 0.796,0 l 5.613,5.821 1.19,-1.234 z"
       style="mix-blend-mode:multiply;fill:url(#O)"
       id="path104"
       inkscape:connector-curvature="0" />
  </g>
  <path
     d="m 142.173,330.393 5.017,-4.86 a 0.58202148,0.58202148 0 1 0 -0.81,-0.836 l -5.018,4.859 a 0.583,0.583 0 0 0 0.811,0.837 z"
     style="mix-blend-mode:multiply;fill:url(#P)"
     id="path108"
     inkscape:connector-curvature="0" />
  <path
     d="m 148,326.37 -1.672,1.62 a 0.583,0.583 0 1 0 0.809,0.835 l 1.672,-1.62 A 0.58131446,0.58131446 0 1 0 148,326.37 Z"
     style="mix-blend-mode:multiply;fill:url(#Q)"
     id="path110"
     inkscape:connector-curvature="0" />
  <path
     d="m 135.925,338.51 2.011,0.538 -1.174,-5.038 -1.593,1.543 -2.229,2.159 -2.868,2.778 6.869,1.991 z m 0.171,-2.233 0.266,1.145 -0.767,-0.204 -0.093,-0.365 z m -1.557,1.508 0.769,3.01 -2.984,-0.864 z"
     style="mix-blend-mode:multiply;fill:url(#R)"
     id="path112"
     inkscape:connector-curvature="0" />
  <path
     d="m 139.348,352.576 19.234,-18.628 a 0.582,0.582 0 0 0 0.013,-0.823 l -11.339,-11.708 a 0.582,0.582 0 0 0 -0.823,-0.012 L 127.2,340.033 a 0.581,0.581 0 0 0 -0.014,0.822 l 11.34,11.708 a 0.581,0.581 0 0 0 0.822,0.013 z m 0.429,-2.036 3.498,-12.861 a 0.523,0.523 0 0 1 0.292,-0.283 l 12.969,-3.087 z m 7.048,-27.894 10.057,10.384 -13.585,3.233 c -0.257,0.062 -0.509,0.211 -0.714,0.41 -0.204,0.198 -0.363,0.445 -0.432,0.7 l -3.664,13.477 -10.059,-10.386 z"
     style="mix-blend-mode:multiply;fill:url(#S)"
     id="path114"
     inkscape:connector-curvature="0" />
  <path
     d="m 229,482.273 c 0,7.029 5.671,12.727 12.667,12.727 2.307,0 4.469,-0.62 6.333,-1.703 a 12.563,12.563 0 0 0 6.333,1.703 c 6.996,0 12.667,-5.698 12.667,-12.727 0,-4.749 -2.588,-8.89 -6.425,-11.077 C 259.823,464.889 254.48,460 248,460 c -6.48,0 -11.823,4.889 -12.575,11.196 A 12.731,12.731 0 0 0 229,482.273 Z m 29.836,-11.899 c -1.4,-0.535 -2.917,-0.828 -4.503,-0.828 -2.307,0 -4.469,0.619 -6.333,1.703 a 12.563,12.563 0 0 0 -6.333,-1.703 c -1.586,0 -3.103,0.293 -4.503,0.828 a 11.104,11.104 0 0 1 2.999,-5.521 11.028,11.028 0 0 1 7.837,-3.263 11.028,11.028 0 0 1 7.837,3.263 11.104,11.104 0 0 1 2.999,5.521 z m -21.907,1.828 a 10.955,10.955 0 0 1 4.738,-1.066 10.95,10.95 0 0 1 4.851,1.121 12.721,12.721 0 0 0 -4.844,9.616 c -0.537,-0.376 -1.043,-0.8 -1.511,-1.271 a 11.115,11.115 0 0 1 -3.234,-8.4 z m 6.334,10.596 a 11.094,11.094 0 0 1 0.857,-4.859 11.124,11.124 0 0 1 3.88,-4.807 11.124,11.124 0 0 1 4.737,9.666 10.958,10.958 0 0 1 -4.737,1.066 10.958,10.958 0 0 1 -4.737,-1.066 z m 4.737,2.656 c 1.585,0 3.103,-0.293 4.502,-0.828 a 11.12,11.12 0 0 1 -2.998,5.521 c -0.467,0.47 -0.969,0.892 -1.504,1.266 a 11.01,11.01 0 0 1 -1.504,-1.266 11.12,11.12 0 0 1 -2.998,-5.521 12.579,12.579 0 0 0 4.502,0.828 z m 6.326,-3.581 a 12.721,12.721 0 0 0 -4.844,-9.616 10.95,10.95 0 0 1 4.851,-1.121 10.955,10.955 0 0 1 4.738,1.066 11.094,11.094 0 0 1 -0.858,4.859 11.108,11.108 0 0 1 -2.376,3.541 c -0.468,0.471 -0.974,0.895 -1.511,1.271 z m -4.844,10.416 a 12.719,12.719 0 0 0 4.759,-8.485 12.733,12.733 0 0 0 6.419,-10.677 11.17,11.17 0 0 1 3.886,4.812 11.095,11.095 0 0 1 0.871,4.334 c 0,1.504 -0.293,2.962 -0.871,4.334 a 11.087,11.087 0 0 1 -2.376,3.54 11.028,11.028 0 0 1 -7.837,3.263 10.968,10.968 0 0 1 -4.851,-1.121 z m -18.028,-5.682 c -0.578,-1.372 -0.871,-2.83 -0.871,-4.334 0,-1.505 0.293,-2.963 0.871,-4.334 a 11.091,11.091 0 0 1 2.376,-3.541 11.11,11.11 0 0 1 1.51,-1.271 12.733,12.733 0 0 0 6.419,10.677 12.719,12.719 0 0 0 4.759,8.485 10.967,10.967 0 0 1 -4.851,1.12 c -1.497,0 -2.949,-0.294 -4.314,-0.874 a 11.044,11.044 0 0 1 -3.523,-2.388 11.087,11.087 0 0 1 -2.376,-3.54 z"
     style="mix-blend-mode:multiply;fill:url(#T)"
     id="path116"
     inkscape:connector-curvature="0" />
  <path
     d="m 191.951,490.994 -7.345,-5.053 -3.149,-2.166 -7.346,-5.053 -18.374,24.463 19.937,13.716 z m -1.728,0.357 -1.357,2.159 -6.426,-4.421 1.444,-2.099 z m -7.389,-5.083 -2.888,4.197 -1.049,-0.721 2.888,-4.197 z m -2.099,-1.443 -1.443,2.098 -6.427,-4.421 1.531,-2.038 z m -23.183,18.063 14.547,-19.366 6.471,4.451 -1.444,2.099 a 0.637,0.637 0 0 0 1.049,0.721 0.63672698,0.63672698 0 1 0 1.049,0.722 0.63713892,0.63713892 0 0 0 1.05,0.722 l 1.444,-2.098 6.47,4.45 -12.885,20.51 z"
     id="path118"
     inkscape:connector-curvature="0"
     style="fill:#ffffff" />
  <path
     d="m 176.705,496.997 -5.556,2.676 0.195,-3.124 -7.08,3.227 2.749,1.891 3.847,2.647 4.947,3.403 z m -9.865,3.005 3.101,-1.413 -0.107,1.719 -1.5,0.722 z m 2.703,1.859 5.707,-2.749 -0.529,6.311 z"
     id="path120"
     inkscape:connector-curvature="0"
     style="fill:#ffffff" />
  <g
     clip-path="url(#U)"
     id="g124"
     transform="matrix(-1,0,0,1,531,0)">
    <path
       d="m 508.285,354.364 a 4.073,4.073 0 0 1 -4.949,3.978 l -2.7,2.7 7.326,7.325 a 3.25,3.25 0 0 1 -2.297,5.547 3.237,3.237 0 0 1 -2.298,-0.952 l -7.326,-7.326 -8.344,8.344 a 2.157,2.157 0 0 1 -1.531,0.635 2.166,2.166 0 0 1 -1.532,-3.698 l 8.344,-8.344 -7.893,-7.892 v -4.595 h 4.596 l 7.892,7.892 2.675,-2.676 a 4.081,4.081 0 0 1 -0.109,-0.938 c 0,-4.613 6.802,-4.978 9.052,-4.978 2.249,0 -0.906,2.728 -0.906,4.978 z m -2.62,18.467 c 0.578,0 1.122,-0.226 1.531,-0.635 a 2.17,2.17 0 0 0 0,-3.063 l -0.766,-0.766 -3.063,3.064 0.765,0.765 c 0.41,0.409 0.953,0.635 1.533,0.635 z M 485.4,371.683 a 1.084,1.084 0 0 0 1.532,1.531 l 8.343,-8.343 -1.531,-1.532 z m 0.769,-20.514 v 0.897 l 0.897,-0.897 z m 3.063,0 h -0.634 l -2.429,2.429 v 0.634 l 16.432,16.433 1.152,-1.152 -14.834,-14.835 a 0.54129036,0.54129036 0 1 1 0.765,-0.766 l 14.835,14.835 1.146,-1.146 z m 9.107,7.575 1.531,1.531 2.356,-2.355 a 4.096,4.096 0 0 1 -1.543,-1.521 z m 5.828,-7.573 c -0.942,0.318 -1.668,0.731 -2.158,1.229 -0.529,0.537 -0.786,1.179 -0.786,1.964 0,0.798 0.31,1.549 0.875,2.114 a 2.974,2.974 0 0 0 2.115,0.876 2.993,2.993 0 0 0 2.989,-2.99 c 0,-1.233 0.657,-2.436 1.186,-3.402 0.078,-0.144 0.174,-0.318 0.261,-0.486 -1.167,0.03 -2.933,0.173 -4.482,0.695 z"
       style="mix-blend-mode:multiply;fill:url(#V)"
       id="path122"
       inkscape:connector-curvature="0" />
  </g>
  <g
     clip-path="url(#W)"
     id="g128"
     transform="matrix(-1,0,0,1,531,0)">
    <path
       d="m 401.686,388.732 47.893,-13.57 2.915,10.284 -47.895,13.571 z m 46.666,-11.372 -3.378,0.958 0.487,1.714 a 0.894,0.894 0 0 1 -0.615,1.101 0.894,0.894 0 0 1 -1.101,-0.615 l 10e-4,-10e-4 -0.485,-1.713 -3.429,0.971 0.486,1.713 a 0.891,0.891 0 0 1 -1.714,0.487 l -0.486,-1.715 -3.428,0.972 0.484,1.714 0.001,10e-4 a 0.89064878,0.89064878 0 0 1 -1.714,0.485 v -0.001 l -0.486,-1.713 -3.428,0.971 0.486,1.714 a 0.893,0.893 0 0 1 -0.615,1.101 0.893,0.893 0 0 1 -1.1,-0.615 l -0.485,-1.714 -3.429,0.971 0.486,1.714 a 0.89078505,0.89078505 0 1 1 -1.714,0.486 l -0.486,-1.715 -3.428,0.972 0.486,1.715 a 0.89064878,0.89064878 0 1 1 -1.714,0.485 h -10e-4 l -0.485,-1.714 -3.429,0.972 0.486,1.713 a 0.892,0.892 0 0 1 -0.614,1.101 0.893,0.893 0 0 1 -1.1,-0.614 l 10e-4,-0.002 -0.486,-1.713 -3.429,0.971 0.485,1.713 0.001,10e-4 a 0.89078505,0.89078505 0 0 1 -1.714,0.486 l -0.487,-1.714 -3.377,0.957 1.943,6.857 44.466,-12.6 z"
       style="mix-blend-mode:multiply;fill:url(#X)"
       id="path126"
       inkscape:connector-curvature="0" />
  </g>
  <path
     d="m 73.757,477.217 14.047,17.405 a 0.487,0.487 0 0 0 0.683,0.073 l 12.108,-9.772 a 0.486,0.486 0 0 0 0.073,-0.683 l -5.068,-6.28 2.636,-1.379 0.122,0.151 a 0.487,0.487 0 0 0 0.757,-0.611 l -4.887,-6.054 a 0.487,0.487 0 0 0 -0.757,0.611 l 0.123,0.151 -1.904,2.286 -5.069,-6.281 a 0.487,0.487 0 0 0 -0.684,-0.072 l -12.107,9.771 a 0.486,0.486 0 0 0 -0.073,0.684 z m 23.856,-1.408 -2.632,1.377 -2.666,-3.301 1.902,-2.284 z m -22.794,1.176 9.838,-7.939 13.435,16.647 -9.837,7.939 z m 18.069,-0.837 6.718,8.323 -0.757,0.611 -6.718,-8.324 -6.718,-8.323 0.757,-0.611 z"
     style="mix-blend-mode:multiply;fill:url(#Y)"
     id="path130"
     inkscape:connector-curvature="0" />
  <path
     d="m 92.204,476.075 a 0.48570464,0.48570464 0 1 0 0.61,0.756 0.486,0.486 0 1 0 -0.61,-0.756 z"
     style="mix-blend-mode:multiply;fill:url(#Z)"
     id="path132"
     inkscape:connector-curvature="0" />
  <path
     d="m 88.851,491.276 -9.16,-11.35 -0.001,-10e-4 a 0.487,0.487 0 0 0 -0.757,0.611 l 9.161,11.351 a 0.487,0.487 0 0 0 0.757,-0.611 z"
     style="mix-blend-mode:multiply;fill:url(#aa)"
     id="path134"
     inkscape:connector-curvature="0" />
  <path
     d="m 90.365,490.054 -4.885,-6.053 h -0.001 a 0.48570464,0.48570464 0 1 0 -0.756,0.61 l 4.885,6.054 a 0.48640775,0.48640775 0 1 0 0.757,-0.611 z"
     style="mix-blend-mode:multiply;fill:url(#ab)"
     id="path136"
     inkscape:connector-curvature="0" />
  <path
     d="m 91.88,488.832 -6.718,-8.323 a 0.487,0.487 0 0 0 -0.757,0.611 l 6.718,8.323 a 0.48640775,0.48640775 0 1 0 0.757,-0.611 z"
     style="mix-blend-mode:multiply;fill:url(#ac)"
     id="path138"
     inkscape:connector-curvature="0" />
  <path
     d="m 93.392,487.611 -4.275,-5.296 a 0.48570464,0.48570464 0 1 0 -0.756,0.61 l 4.274,5.297 a 0.487,0.487 0 0 0 0.757,-0.611 z"
     style="mix-blend-mode:multiply;fill:url(#ad)"
     id="path140"
     inkscape:connector-curvature="0" />
  <path
     d="m 94.905,486.39 -7.938,-9.837 a 0.488,0.488 0 1 0 -0.757,0.611 L 94.149,487 a 0.48570464,0.48570464 0 1 0 0.756,-0.61 z"
     style="mix-blend-mode:multiply;fill:url(#ae)"
     id="path142"
     inkscape:connector-curvature="0" />
  <path
     d="m 96.419,485.168 -2.442,-3.026 a 0.48640775,0.48640775 0 1 0 -0.757,0.611 l 2.442,3.026 a 0.487,0.487 0 0 0 0.757,-0.611 z"
     style="mix-blend-mode:multiply;fill:url(#af)"
     id="path144"
     inkscape:connector-curvature="0" />
  <path
     d="m 132.286,293.224 3.8,4.001 4.325,-13.009 -5.737,1.279 -8.032,1.792 -10.326,2.303 12.763,14.015 z m 5.265,-6.425 -2.269,6.823 -2.354,-2.477 1.1,-3.561 z m -5.658,1.262 -3.647,11.809 -8.323,-9.139 z"
     id="path146"
     inkscape:connector-curvature="0"
     style="fill:#ffffff" />
  <path
     d="m 122.712,318.259 0.422,1.893 a 0.959,0.959 0 0 0 1.137,0.74 0.96,0.96 0 0 0 0.716,-1.153 l -0.422,-1.893 3.707,-0.827 0.422,1.893 a 0.96,0.96 0 0 0 1.137,0.74 0.96,0.96 0 0 0 0.716,-1.153 l -0.422,-1.893 3.707,-0.827 0.422,1.893 a 0.96,0.96 0 0 0 1.137,0.74 0.961,0.961 0 0 0 0.717,-1.154 l -0.423,-1.893 3.707,-0.826 0.422,1.893 a 0.96,0.96 0 0 0 1.138,0.739 0.96,0.96 0 0 0 0.716,-1.153 l -0.422,-1.893 3.707,-0.827 0.422,1.894 a 0.96,0.96 0 0 0 1.137,0.739 0.96,0.96 0 0 0 0.717,-1.153 l -0.423,-1.893 5.561,-1.24 -9.289,-41.645 -35.215,7.854 9.288,41.645 z m -12.583,-38.964 31.509,-7.027 8.462,37.937 -3.707,0.826 -0.405,-1.813 a 0.959,0.959 0 0 0 -1.138,-0.74 0.959,0.959 0 0 0 -0.715,1.153 l 0.404,1.814 -3.707,0.827 -0.404,-1.814 a 0.96,0.96 0 0 0 -1.138,-0.74 0.96,0.96 0 0 0 -0.716,1.153 l 0.405,1.814 -3.707,0.827 -0.405,-1.814 a 0.96,0.96 0 0 0 -1.138,-0.74 0.959,0.959 0 0 0 -0.715,1.153 l 0.404,1.814 -3.706,0.827 -0.405,-1.814 a 0.96,0.96 0 0 0 -1.138,-0.74 0.96,0.96 0 0 0 -0.715,1.154 l 0.405,1.813 -3.708,0.827 -0.404,-1.814 a 0.961,0.961 0 0 0 -1.139,-0.74 0.96,0.96 0 0 0 -0.714,1.154 l 0.404,1.813 -3.707,0.827 z"
     id="path148"
     inkscape:connector-curvature="0"
     style="fill:#ffffff" />
  <path
     d="m 142.768,451.565 22.737,-20.005 a 0.658,0.658 0 0 0 0.06,-0.929 l -13.917,-15.817 a 0.658,0.658 0 0 0 -0.929,-0.059 l -8.203,7.218 -2.018,-3.486 0.198,-0.174 a 0.66,0.66 0 0 0 -0.87,-0.989 l -7.909,6.958 a 0.65860098,0.65860098 0 0 0 0.87,0.989 l 0.198,-0.174 3.202,2.444 -8.205,7.219 c -0.273,0.24 -0.299,0.656 -0.059,0.929 l 13.917,15.817 a 0.657,0.657 0 0 0 0.928,0.059 z m -3.278,-32.192 2.015,3.482 -4.313,3.797 -3.2,-2.442 z m -1.446,25.826 2.966,-2.609 4.349,4.942 -2.966,2.61 z m 2.096,-3.598 -2.966,2.609 -6.088,-6.919 2.966,-2.61 z m 6.207,5.062 -11.307,-12.851 17.794,-15.656 11.307,12.851 z m -6.126,-20.917 10.873,-9.568 0.87,0.989 -10.874,9.567 -10.874,9.568 -0.87,-0.989 z"
     style="mix-blend-mode:multiply;fill:url(#ag)"
     id="path150"
     inkscape:connector-curvature="0" />
  <path
     d="m 140.162,426.675 a 0.659,0.659 0 1 0 0.989,-0.87 0.659,0.659 0 0 0 -0.989,0.87 z"
     style="mix-blend-mode:multiply;fill:url(#ah)"
     id="path152"
     inkscape:connector-curvature="0" />
  <path
     d="m 146.86,430.445 -3.389,2.982 7.652,2.621 -0.933,-4.541 2.243,0.715 -1.054,-5.754 -1.883,1.657 z m 2.509,3.611 -3.325,-1.14 2.618,-2.303 z m 1.134,-5.063 0.24,1.308 -0.856,-0.273 -0.086,-0.417 z"
     style="mix-blend-mode:multiply;fill:url(#ai)"
     id="path154"
     inkscape:connector-curvature="0" />
  <path
     d="m 158.448,432.509 0.989,-0.87 -0.87,-0.988 -0.988,0.869 z"
     style="mix-blend-mode:multiply;fill:url(#aj)"
     id="path156"
     inkscape:connector-curvature="0" />
  <path
     d="m 153.012,437.292 0.989,-0.869 -0.87,-0.989 -0.989,0.87 z"
     style="mix-blend-mode:multiply;fill:url(#ak)"
     id="path158"
     inkscape:connector-curvature="0" />
  <path
     d="m 147.575,442.076 0.989,-0.87 -0.87,-0.989 -0.989,0.87 z"
     style="mix-blend-mode:multiply;fill:url(#al)"
     id="path160"
     inkscape:connector-curvature="0" />
  <path
     d="m 144.095,438.122 0.989,-0.87 -0.869,-0.989 -0.989,0.871 z"
     style="mix-blend-mode:multiply;fill:url(#am)"
     id="path162"
     inkscape:connector-curvature="0" />
  <path
     d="m 140.616,434.168 0.989,-0.87 -0.87,-0.989 -0.989,0.87 z"
     style="mix-blend-mode:multiply;fill:url(#an)"
     id="path164"
     inkscape:connector-curvature="0" />
  <path
     d="m 151.489,424.601 0.988,-0.87 -0.87,-0.989 -0.988,0.87 z"
     style="mix-blend-mode:multiply;fill:url(#ao)"
     id="path166"
     inkscape:connector-curvature="0" />
  <path
     d="m 154.969,428.555 0.988,-0.87 -0.87,-0.988 -0.988,0.869 z"
     style="mix-blend-mode:multiply;fill:url(#ap)"
     id="path168"
     inkscape:connector-curvature="0" />
  <path
     d="m 146.052,429.384 0.989,-0.87 -0.87,-0.989 -0.988,0.87 z"
     style="mix-blend-mode:multiply;fill:url(#aq)"
     id="path170"
     inkscape:connector-curvature="0" />
  <circle
     r="10.5"
     transform="scale(-1)"
     style="mix-blend-mode:multiply;stroke:url(#ar);stroke-width:10"
     id="circle172"
     cx="-15.5"
     cy="-411.5" />
  <path
     d="m 97,246.193 v 3.913 h 5.947 V 257 h 4.106 v -6.894 H 113 v -3.913 h -5.947 V 239 h -4.106 v 7.193 z"
     id="path174"
     inkscape:connector-curvature="0"
     style="fill:#ffffff" />
  <path
     d="m 83.528,240 c 0,1.506 4.106,14.349 -11.908,9.83 -16.014,-4.519 -20.941,3.013 -24.226,17.529 C 44.109,281.875 34.528,283.244 27,282.97"
     style="mix-blend-mode:multiply;stroke:url(#as);stroke-width:8;stroke-linecap:round;stroke-linejoin:round"
     id="path176"
     inkscape:connector-curvature="0" />
  <path
     d="m 12.803,461.22 c 0.529,-0.27 4.309,-4.008 5.579,2.405 1.27,6.414 4.796,6.788 10.483,5.336 5.687,-1.452 7.878,1.655 9.125,4.338"
     style="mix-blend-mode:multiply;stroke:url(#at);stroke-width:8;stroke-linecap:round;stroke-linejoin:round"
     id="path178"
     inkscape:connector-curvature="0" />
  <circle
     r="10.5"
     transform="scale(-1)"
     id="circle180"
     cx="-198"
     cy="-292"
     style="stroke:#ffffff;stroke-width:5" />
  <ellipse
     cx="-305.72101"
     cy="431.42001"
     rx="118.188"
     ry="17.533001"
     id="ellipse182"
     transform="scale(-1,1)"
     style="opacity:0.2;fill:#6b6b6b" />
  <path
     d="m 285.462,107.125 c -1.201,-9.63 8.031,-18.71 20.622,-20.28 12.59,-1.572 23.771,4.962 24.972,14.592 1.202,9.629 -8.031,18.709 -20.621,20.28 -12.591,1.571 -23.771,-4.962 -24.973,-14.592 z"
     id="path184"
     inkscape:connector-curvature="0"
     style="fill:#2f2f2f" />
  <path
     d="m 294.948,246.402 -28.391,12.808 16.904,71.237 30.528,-9.854 z"
     id="path186"
     inkscape:connector-curvature="0"
     style="fill:#ffca99" />
  <path
     d="m 228.966,250.023 37.592,9.187 16.904,71.237 -38.082,-7.554 z"
     id="path188"
     inkscape:connector-curvature="0"
     style="fill:#ffd1a7" />
  <path
     d="m 292.648,436.071 c 96.541,0 139.61,-15.257 139.61,-105.624 0,-66.962 -8.118,-116.769 -24.829,-152.269 -20.139,-42.786 -53.517,-64.484 -99.168,-64.484 -25.422,0 -38.186,17.171 -47.506,29.727 -3.769,5.075 -7.035,9.468 -10.136,11.116 -6.931,3.68 -10.894,12.258 -10.894,23.567 0,20.971 11.101,31.077 21.832,40.857 15.508,14.129 30.171,27.471 15.627,71.371 -0.786,2.36 -1.573,4.794 -2.374,7.272 -9.128,28.198 -19.457,60.18 -44.687,60.18 -16.162,0 -19.753,-7.598 -22.929,-14.321 -2.152,-4.541 -4.17,-8.831 -10.062,-8.831 -14.218,0 -23.39,10.538 -23.39,26.848 0,26.536 8.267,44.389 26.002,56.203 18.848,12.541 48.381,18.388 92.904,18.388 z"
     id="path190"
     inkscape:connector-curvature="0"
     style="fill:#ffffff" />
  <path
     d="m 308.261,114.436 c -35.782,0 -46.467,35.01 -57.301,40.753 -6.352,3.369 -10.508,11.428 -10.508,22.915 0,49.732 62.541,36.627 37.43,112.465 -9.543,28.836 -19.694,67.957 -47.759,67.957 -28.064,0 -19.694,-23.137 -32.991,-23.137 -13.298,0 -22.648,9.854 -22.648,26.105 0,49.733 29.059,73.864 118.179,73.864 92.074,-0.029 138.853,-12.333 138.853,-104.911 0,-117.2 -24.948,-216.011 -123.255,-216.011 z m 0,-1.484 c 23.909,0 44.627,5.892 61.576,17.527 15.642,10.745 28.524,26.684 38.26,47.372 16.755,35.604 24.903,85.515 24.903,152.596 0,23.182 -2.894,41.496 -8.86,56.01 -5.803,14.114 -14.544,24.71 -26.729,32.413 -23.612,14.9 -58.948,17.957 -104.748,17.957 -44.686,0 -74.338,-5.891 -93.335,-18.536 C 181.37,406.329 173,388.282 173,361.48 c 0,-16.504 9.706,-27.59 24.132,-27.59 6.366,0 8.578,4.705 10.73,9.246 3.087,6.515 6.574,13.891 22.261,13.891 24.696,0 34.936,-31.7 43.989,-59.661 a 872.225,872.225 0 0 1 2.374,-7.272 c 14.381,-43.439 -0.089,-56.618 -15.419,-70.584 -10.849,-9.884 -22.069,-20.109 -22.069,-41.406 0,-11.591 4.111,-20.421 11.294,-24.221 2.953,-1.558 6.174,-5.892 9.884,-10.908 9.395,-12.674 22.291,-30.023 48.085,-30.023 z"
     id="path192"
     inkscape:connector-curvature="0"
     style="fill:#6b6b6b" />
  <path
     d="m 264.821,155.19 c -4.393,0.029 -8.682,-0.223 -12.57,-0.832 6.886,-5.045 14.129,-20.821 28.153,-30.973 8.415,3.903 14.055,11.294 14.084,18.195 0.06,9.988 -14.662,13.506 -29.667,13.61 z"
     id="path194"
     inkscape:connector-curvature="0"
     style="fill:#2f2f2f" />
  <path
     d="m 197.117,335.375 c 13.297,0 4.927,23.137 32.991,23.137 28.065,0 38.216,-39.121 47.759,-67.957 13.832,-41.763 1.083,-56.545 -13.179,-69.709 30.246,25.557 80.453,10.122 76.209,44.598 -3.265,26.402 -51.217,65.419 -53.68,119.871 -1.633,36.182 -64.143,-9.068 -105.906,-43.514 3.992,-4.141 9.439,-6.426 15.806,-6.426 z"
     id="path196"
     inkscape:connector-curvature="0"
     style="opacity:0.2;fill:#6b6b6b" />
  <path
     d="m 345.838,294.992 c 0,-37.429 -30.973,-42.356 -44.909,-34.476 -47.046,26.596 -82.13,18.225 -82.13,-6.396 0,-13.535 4.17,-17.423 1.232,-19.026 -2.939,-1.603 -12.022,-3.132 -15.346,11.086 -0.965,4.126 -2.894,4.927 -6.411,3.206 -3.533,-1.722 -11.265,-4.289 -10.983,17.052 0.282,21.341 33.645,73.211 98.663,73.211 42.772,-0.015 59.884,-23.315 59.884,-44.657 z m 25.026,-152.207 c -10.666,-9.004 -13.731,-22.915 -6.847,-31.069 6.884,-8.154 21.112,-7.465 31.777,1.54 10.666,9.005 13.732,22.915 6.847,31.069 -6.884,8.154 -21.111,7.465 -31.777,-1.54 z m -90.952,33.726 c -4.196,-1.901 -6.42,-6.044 -4.966,-9.255 1.454,-3.21 6.035,-4.273 10.231,-2.373 4.196,1.9 6.42,6.044 4.966,9.254 -1.454,3.211 -6.034,4.274 -10.231,2.374 z m 39.08,-22.925 c -9.751,5.625 -5.848,20.095 1.499,32.829 7.346,12.733 17.171,22.766 26.906,17.141 9.751,-5.625 12.675,-26.387 5.314,-39.136 -7.362,-12.748 -23.984,-16.459 -33.719,-10.834 z"
     id="path198"
     inkscape:connector-curvature="0"
     style="fill:#2f2f2f" />
  <path
     d="m 282.557,170.698 c -5.61,13.817 -13.135,25.586 6.04,34.461 6.975,3.236 14.455,4.186 18.878,0 4.422,-4.185 1.662,-12.867 -6.129,-11.516"
     stroke-miterlimit="10"
     id="path200"
     inkscape:connector-curvature="0"
     style="stroke:#2f2f2f;stroke-width:2;stroke-linecap:round;stroke-linejoin:round;stroke-miterlimit:10" />
  <path
     d="m 276.263,189.324 c -5.758,7.94 -23.686,1.454 -19.456,-11.235 2.003,-6.04 8.741,-4.274 9.483,-3.28"
     stroke-miterlimit="10"
     id="path202"
     inkscape:connector-curvature="0"
     style="stroke:#2f2f2f;stroke-width:2;stroke-linecap:round;stroke-linejoin:round;stroke-miterlimit:10" />
  <path
     d="m 197.116,335.375 c 13.298,0 4.927,23.137 32.992,23.137 7.287,0 13.342,-2.642 18.521,-7.05 40.977,-4.972 72.588,7.495 72.588,42.995 0,19.352 -12.363,34.921 -36.45,40.798 -82.961,-1.41 -110.283,-25.557 -110.283,-73.79 -0.015,-16.251 9.35,-26.09 22.632,-26.09 z"
     id="path204"
     inkscape:connector-curvature="0"
     style="fill:#2f2f2f" />
  <path
     d="m 337.364,178.104 c -5.729,-8.845 -16.266,-9.157 -16.266,-9.157 m -39.759,-20.792 c -4.215,-5.729 -13.624,-5.729 -13.624,-5.729"
     stroke-miterlimit="10"
     id="path206"
     inkscape:connector-curvature="0"
     style="stroke:#ffffff;stroke-width:2;stroke-linecap:round;stroke-linejoin:round;stroke-miterlimit:10" />
  <path
     d="m 425.61,361.302 c -5.773,30.365 -19.041,65.004 -96.378,68.936 -16.043,0.817 -26.12,-1.973 0,-10.507 26.12,-8.534 56.99,-15.761 81.27,-54.496 8.459,-13.476 21.03,-35.129 15.108,-3.933 z"
     id="path208"
     inkscape:connector-curvature="0"
     style="opacity:0.2;fill:#6b6b6b" />
  <defs
     id="defs558">
    <linearGradient
       id="a"
       x1="249.455"
       y1="42.846"
       x2="288.749"
       y2="54.428"
       gradientUnits="userSpaceOnUse">
      <stop
         stop-color="#FFC000"
         id="stop210" />
      <stop
         offset="1"
         stop-color="#FF8A00"
         id="stop212" />
    </linearGradient>
    <linearGradient
       id="b"
       x1="86.523"
       y1="188.433"
       x2="85.254"
       y2="154.006"
       gradientUnits="userSpaceOnUse">
      <stop
         stop-color="#FFC000"
         id="stop215" />
      <stop
         offset="1"
         stop-color="#FF8A00"
         id="stop217" />
    </linearGradient>
    <linearGradient
       id="c"
       x1="91.308"
       y1="176.045"
       x2="91.754"
       y2="164.919"
       gradientUnits="userSpaceOnUse">
      <stop
         stop-color="#FFC000"
         id="stop220" />
      <stop
         offset="1"
         stop-color="#FF8A00"
         id="stop222" />
    </linearGradient>
    <linearGradient
       id="d"
       x1="129.351"
       y1="1.677"
       x2="159.835"
       y2="10.341"
       gradientUnits="userSpaceOnUse">
      <stop
         stop-color="#FFC000"
         id="stop225" />
      <stop
         offset="1"
         stop-color="#FF8A00"
         id="stop227" />
    </linearGradient>
    <linearGradient
       id="e"
       x1="133.811"
       y1="209.277"
       x2="132.455"
       y2="213.398"
       gradientUnits="userSpaceOnUse">
      <stop
         stop-color="#FFC000"
         id="stop230" />
      <stop
         offset="1"
         stop-color="#FF8A00"
         id="stop232" />
    </linearGradient>
    <linearGradient
       id="f"
       x1="138.732"
       y1="210.802"
       x2="138.977"
       y2="213.984"
       gradientUnits="userSpaceOnUse">
      <stop
         stop-color="#FFC000"
         id="stop235" />
      <stop
         offset="1"
         stop-color="#FF8A00"
         id="stop237" />
    </linearGradient>
    <linearGradient
       id="g"
       x1="126.374"
       y1="195.223"
       x2="130.279"
       y2="204.855"
       gradientUnits="userSpaceOnUse">
      <stop
         stop-color="#FFC000"
         id="stop240" />
      <stop
         offset="1"
         stop-color="#FF8A00"
         id="stop242" />
    </linearGradient>
    <linearGradient
       id="h"
       x1="130.898"
       y1="187.556"
       x2="141.781"
       y2="216.407"
       gradientUnits="userSpaceOnUse">
      <stop
         stop-color="#FFC000"
         id="stop245" />
      <stop
         offset="1"
         stop-color="#FF8A00"
         id="stop247" />
    </linearGradient>
    <linearGradient
       id="i"
       x1="191.494"
       y1="13.846"
       x2="233.555"
       y2="27.306"
       gradientUnits="userSpaceOnUse">
      <stop
         stop-color="#FFC000"
         id="stop250" />
      <stop
         offset="1"
         stop-color="#FF8A00"
         id="stop252" />
    </linearGradient>
    <linearGradient
       id="k"
       x1="22.338"
       y1="129.996"
       x2="51.385"
       y2="138.819"
       gradientUnits="userSpaceOnUse"
       gradientTransform="matrix(-1,0,0,1,531,0)">
      <stop
         stop-color="#FFC000"
         id="stop255" />
      <stop
         offset="1"
         stop-color="#FF8A00"
         id="stop257" />
    </linearGradient>
    <linearGradient
       id="m"
       x1="117.005"
       y1="82.829"
       x2="81.247"
       y2="117.842"
       gradientUnits="userSpaceOnUse"
       gradientTransform="matrix(-1,0,0,1,531,0)">
      <stop
         stop-color="#FFC000"
         id="stop260" />
      <stop
         offset="1"
         stop-color="#FF8A00"
         id="stop262" />
    </linearGradient>
    <linearGradient
       id="n"
       x1="74.027"
       y1="18.235"
       x2="96.794"
       y2="3.744"
       gradientUnits="userSpaceOnUse">
      <stop
         stop-color="#FFC000"
         id="stop265" />
      <stop
         offset="1"
         stop-color="#FF8A00"
         id="stop267" />
    </linearGradient>
    <linearGradient
       id="o"
       x1="91.853"
       y1="18.625"
       x2="92.788"
       y2="17.977"
       gradientUnits="userSpaceOnUse">
      <stop
         stop-color="#FFC000"
         id="stop270" />
      <stop
         offset="1"
         stop-color="#FF8A00"
         id="stop272" />
    </linearGradient>
    <linearGradient
       id="p"
       x1="78.774"
       y1="14.699"
       x2="82.285"
       y2="16.483"
       gradientUnits="userSpaceOnUse">
      <stop
         stop-color="#FFC000"
         id="stop275" />
      <stop
         offset="1"
         stop-color="#FF8A00"
         id="stop277" />
    </linearGradient>
    <linearGradient
       id="q"
       x1="84.507"
       y1="10.693"
       x2="88.084"
       y2="11.873"
       gradientUnits="userSpaceOnUse">
      <stop
         stop-color="#FFC000"
         id="stop280" />
      <stop
         offset="1"
         stop-color="#FF8A00"
         id="stop282" />
    </linearGradient>
    <linearGradient
       id="r"
       x1="84.214"
       y1="14.155"
       x2="87.777"
       y2="15.676"
       gradientUnits="userSpaceOnUse">
      <stop
         stop-color="#FFC000"
         id="stop285" />
      <stop
         offset="1"
         stop-color="#FF8A00"
         id="stop287" />
    </linearGradient>
    <linearGradient
       id="s"
       x1="88.137"
       y1="12.389"
       x2="91.701"
       y2="13.406"
       gradientUnits="userSpaceOnUse">
      <stop
         stop-color="#FFC000"
         id="stop290" />
      <stop
         offset="1"
         stop-color="#FF8A00"
         id="stop292" />
    </linearGradient>
    <linearGradient
       id="t"
       x1="86.034"
       y1="18.093"
       x2="89.572"
       y2="19.764"
       gradientUnits="userSpaceOnUse">
      <stop
         stop-color="#FFC000"
         id="stop295" />
      <stop
         offset="1"
         stop-color="#FF8A00"
         id="stop297" />
    </linearGradient>
    <linearGradient
       id="u"
       x1="92.972"
       y1="12.592"
       x2="96.293"
       y2="12.868"
       gradientUnits="userSpaceOnUse">
      <stop
         stop-color="#FFC000"
         id="stop300" />
      <stop
         offset="1"
         stop-color="#FF8A00"
         id="stop302" />
    </linearGradient>
    <linearGradient
       id="v"
       x1="142.142"
       y1="43.774"
       x2="160.436"
       y2="75.408"
       gradientUnits="userSpaceOnUse">
      <stop
         stop-color="#FFC000"
         id="stop305" />
      <stop
         offset="1"
         stop-color="#FF8A00"
         id="stop307" />
    </linearGradient>
    <linearGradient
       id="w"
       x1="140.589"
       y1="67.866"
       x2="141.411"
       y2="69.169"
       gradientUnits="userSpaceOnUse">
      <stop
         stop-color="#FFC000"
         id="stop310" />
      <stop
         offset="1"
         stop-color="#FF8A00"
         id="stop312" />
    </linearGradient>
    <linearGradient
       id="x"
       x1="148.101"
       y1="56.519"
       x2="153.033"
       y2="67.191"
       gradientUnits="userSpaceOnUse">
      <stop
         stop-color="#FFC000"
         id="stop315" />
      <stop
         offset="1"
         stop-color="#FF8A00"
         id="stop317" />
    </linearGradient>
    <linearGradient
       id="y"
       x1="158.441"
       y1="62.526"
       x2="159.262"
       y2="63.83"
       gradientUnits="userSpaceOnUse">
      <stop
         stop-color="#FFC000"
         id="stop320" />
      <stop
         offset="1"
         stop-color="#FF8A00"
         id="stop322" />
    </linearGradient>
    <linearGradient
       id="z"
       x1="153.004"
       y1="57.743"
       x2="153.826"
       y2="59.046"
       gradientUnits="userSpaceOnUse">
      <stop
         stop-color="#FFC000"
         id="stop325" />
      <stop
         offset="1"
         stop-color="#FF8A00"
         id="stop327" />
    </linearGradient>
    <linearGradient
       id="A"
       x1="147.567"
       y1="52.959"
       x2="148.39"
       y2="54.264"
       gradientUnits="userSpaceOnUse">
      <stop
         stop-color="#FFC000"
         id="stop330" />
      <stop
         offset="1"
         stop-color="#FF8A00"
         id="stop332" />
    </linearGradient>
    <linearGradient
       id="B"
       x1="144.088"
       y1="56.913"
       x2="144.91"
       y2="58.218"
       gradientUnits="userSpaceOnUse">
      <stop
         stop-color="#FFC000"
         id="stop335" />
      <stop
         offset="1"
         stop-color="#FF8A00"
         id="stop337" />
    </linearGradient>
    <linearGradient
       id="C"
       x1="140.608"
       y1="60.867"
       x2="141.43"
       y2="62.172"
       gradientUnits="userSpaceOnUse">
      <stop
         stop-color="#FFC000"
         id="stop340" />
      <stop
         offset="1"
         stop-color="#FF8A00"
         id="stop342" />
    </linearGradient>
    <linearGradient
       id="D"
       x1="151.481"
       y1="70.435"
       x2="152.303"
       y2="71.738"
       gradientUnits="userSpaceOnUse">
      <stop
         stop-color="#FFC000"
         id="stop345" />
      <stop
         offset="1"
         stop-color="#FF8A00"
         id="stop347" />
    </linearGradient>
    <linearGradient
       id="E"
       x1="154.961"
       y1="66.481"
       x2="155.782"
       y2="67.784"
       gradientUnits="userSpaceOnUse">
      <stop
         stop-color="#FFC000"
         id="stop350" />
      <stop
         offset="1"
         stop-color="#FF8A00"
         id="stop352" />
    </linearGradient>
    <linearGradient
       id="F"
       x1="146.045"
       y1="65.651"
       x2="146.866"
       y2="66.955"
       gradientUnits="userSpaceOnUse">
      <stop
         stop-color="#FFC000"
         id="stop355" />
      <stop
         offset="1"
         stop-color="#FF8A00"
         id="stop357" />
    </linearGradient>
    <linearGradient
       id="G"
       x1="30.597"
       y1=".75"
       x2="-4.206"
       y2="11.008"
       gradientUnits="userSpaceOnUse"
       gradientTransform="matrix(-1,0,0,1,15.5,83.5)">
      <stop
         stop-color="#FFC000"
         id="stop360" />
      <stop
         offset="1"
         stop-color="#FF8A00"
         id="stop362" />
    </linearGradient>
    <linearGradient
       id="H"
       x1="18.741"
       y1="226.04"
       x2="79.082"
       y2="249.616"
       gradientUnits="userSpaceOnUse">
      <stop
         stop-color="#FFC000"
         id="stop365" />
      <stop
         offset="1"
         stop-color="#FF8A00"
         id="stop367" />
    </linearGradient>
    <linearGradient
       id="I"
       x1="37.503"
       y1="21.779"
       x2="18.499"
       y2="38.722"
       gradientUnits="userSpaceOnUse">
      <stop
         stop-color="#FFC000"
         id="stop370" />
      <stop
         offset="1"
         stop-color="#FF8A00"
         id="stop372" />
    </linearGradient>
    <linearGradient
       id="J"
       x1="354.545"
       y1="477.154"
       x2="315.251"
       y2="465.572"
       gradientUnits="userSpaceOnUse">
      <stop
         stop-color="#FFC000"
         id="stop375" />
      <stop
         offset="1"
         stop-color="#FF8A00"
         id="stop377" />
    </linearGradient>
    <linearGradient
       id="K"
       x1="448.576"
       y1="303.584"
       x2="449.845"
       y2="338.011"
       gradientUnits="userSpaceOnUse">
      <stop
         stop-color="#FFC000"
         id="stop380" />
      <stop
         offset="1"
         stop-color="#FF8A00"
         id="stop382" />
    </linearGradient>
    <linearGradient
       id="L"
       x1="443.791"
       y1="315.972"
       x2="443.345"
       y2="327.098"
       gradientUnits="userSpaceOnUse">
      <stop
         stop-color="#FFC000"
         id="stop385" />
      <stop
         offset="1"
         stop-color="#FF8A00"
         id="stop387" />
    </linearGradient>
    <linearGradient
       id="O"
       x1="401.649"
       y1="493.323"
       x2="371.166"
       y2="484.659"
       gradientUnits="userSpaceOnUse"
       gradientTransform="matrix(-1,0,0,1,531,0)">
      <stop
         stop-color="#FFC000"
         id="stop390" />
      <stop
         offset="1"
         stop-color="#FF8A00"
         id="stop392" />
    </linearGradient>
    <linearGradient
       id="P"
       x1="389.189"
       y1="330.704"
       x2="390.545"
       y2="326.582"
       gradientUnits="userSpaceOnUse">
      <stop
         stop-color="#FFC000"
         id="stop395" />
      <stop
         offset="1"
         stop-color="#FF8A00"
         id="stop397" />
    </linearGradient>
    <linearGradient
       id="Q"
       x1="384.268"
       y1="329.178"
       x2="384.023"
       y2="325.997"
       gradientUnits="userSpaceOnUse">
      <stop
         stop-color="#FFC000"
         id="stop400" />
      <stop
         offset="1"
         stop-color="#FF8A00"
         id="stop402" />
    </linearGradient>
    <linearGradient
       id="R"
       x1="396.625"
       y1="344.758"
       x2="392.72"
       y2="335.125"
       gradientUnits="userSpaceOnUse">
      <stop
         stop-color="#FFC000"
         id="stop405" />
      <stop
         offset="1"
         stop-color="#FF8A00"
         id="stop407" />
    </linearGradient>
    <linearGradient
       id="S"
       x1="392.102"
       y1="352.425"
       x2="381.219"
       y2="323.574"
       gradientUnits="userSpaceOnUse">
      <stop
         stop-color="#FFC000"
         id="stop410" />
      <stop
         offset="1"
         stop-color="#FF8A00"
         id="stop412" />
    </linearGradient>
    <linearGradient
       id="T"
       x1="301.506"
       y1="494.154"
       x2="259.445"
       y2="480.694"
       gradientUnits="userSpaceOnUse">
      <stop
         stop-color="#FFC000"
         id="stop415" />
      <stop
         offset="1"
         stop-color="#FF8A00"
         id="stop417" />
    </linearGradient>
    <linearGradient
       id="V"
       x1="509.662"
       y1="374.004"
       x2="480.616"
       y2="365.181"
       gradientUnits="userSpaceOnUse"
       gradientTransform="matrix(-1,0,0,1,531,0)">
      <stop
         stop-color="#FFC000"
         id="stop420" />
      <stop
         offset="1"
         stop-color="#FF8A00"
         id="stop422" />
    </linearGradient>
    <linearGradient
       id="X"
       x1="399.174"
       y1="395.35"
       x2="434.932"
       y2="360.337"
       gradientUnits="userSpaceOnUse"
       gradientTransform="matrix(-1,0,0,1,531,0)">
      <stop
         stop-color="#FFC000"
         id="stop425" />
      <stop
         offset="1"
         stop-color="#FF8A00"
         id="stop427" />
    </linearGradient>
    <linearGradient
       id="Y"
       x1="456.974"
       y1="476.765"
       x2="434.207"
       y2="491.256"
       gradientUnits="userSpaceOnUse">
      <stop
         stop-color="#FFC000"
         id="stop430" />
      <stop
         offset="1"
         stop-color="#FF8A00"
         id="stop432" />
    </linearGradient>
    <linearGradient
       id="Z"
       x1="439.148"
       y1="476.375"
       x2="438.213"
       y2="477.022"
       gradientUnits="userSpaceOnUse">
      <stop
         stop-color="#FFC000"
         id="stop435" />
      <stop
         offset="1"
         stop-color="#FF8A00"
         id="stop437" />
    </linearGradient>
    <linearGradient
       id="aa"
       x1="452.226"
       y1="480.301"
       x2="448.715"
       y2="478.517"
       gradientUnits="userSpaceOnUse">
      <stop
         stop-color="#FFC000"
         id="stop440" />
      <stop
         offset="1"
         stop-color="#FF8A00"
         id="stop442" />
    </linearGradient>
    <linearGradient
       id="ab"
       x1="446.493"
       y1="484.307"
       x2="442.916"
       y2="483.127"
       gradientUnits="userSpaceOnUse">
      <stop
         stop-color="#FFC000"
         id="stop445" />
      <stop
         offset="1"
         stop-color="#FF8A00"
         id="stop447" />
    </linearGradient>
    <linearGradient
       id="ac"
       x1="446.786"
       y1="480.845"
       x2="443.223"
       y2="479.324"
       gradientUnits="userSpaceOnUse">
      <stop
         stop-color="#FFC000"
         id="stop450" />
      <stop
         offset="1"
         stop-color="#FF8A00"
         id="stop452" />
    </linearGradient>
    <linearGradient
       id="ad"
       x1="442.863"
       y1="482.61"
       x2="439.299"
       y2="481.593"
       gradientUnits="userSpaceOnUse">
      <stop
         stop-color="#FFC000"
         id="stop455" />
      <stop
         offset="1"
         stop-color="#FF8A00"
         id="stop457" />
    </linearGradient>
    <linearGradient
       id="ae"
       x1="444.967"
       y1="476.908"
       x2="441.428"
       y2="475.236"
       gradientUnits="userSpaceOnUse">
      <stop
         stop-color="#FFC000"
         id="stop460" />
      <stop
         offset="1"
         stop-color="#FF8A00"
         id="stop462" />
    </linearGradient>
    <linearGradient
       id="af"
       x1="438.028"
       y1="482.408"
       x2="434.708"
       y2="482.132"
       gradientUnits="userSpaceOnUse">
      <stop
         stop-color="#FFC000"
         id="stop465" />
      <stop
         offset="1"
         stop-color="#FF8A00"
         id="stop467" />
    </linearGradient>
    <linearGradient
       id="ag"
       x1="388.859"
       y1="451.226"
       x2="370.565"
       y2="419.592"
       gradientUnits="userSpaceOnUse">
      <stop
         stop-color="#FFC000"
         id="stop470" />
      <stop
         offset="1"
         stop-color="#FF8A00"
         id="stop472" />
    </linearGradient>
    <linearGradient
       id="ah"
       x1="390.411"
       y1="427.134"
       x2="389.589"
       y2="425.831"
       gradientUnits="userSpaceOnUse">
      <stop
         stop-color="#FFC000"
         id="stop475" />
      <stop
         offset="1"
         stop-color="#FF8A00"
         id="stop477" />
    </linearGradient>
    <linearGradient
       id="ai"
       x1="382.9"
       y1="438.481"
       x2="377.967"
       y2="427.81"
       gradientUnits="userSpaceOnUse">
      <stop
         stop-color="#FFC000"
         id="stop480" />
      <stop
         offset="1"
         stop-color="#FF8A00"
         id="stop482" />
    </linearGradient>
    <linearGradient
       id="aj"
       x1="372.56"
       y1="432.474"
       x2="371.738"
       y2="431.171"
       gradientUnits="userSpaceOnUse">
      <stop
         stop-color="#FFC000"
         id="stop485" />
      <stop
         offset="1"
         stop-color="#FF8A00"
         id="stop487" />
    </linearGradient>
    <linearGradient
       id="ak"
       x1="377.996"
       y1="437.257"
       x2="377.174"
       y2="435.954"
       gradientUnits="userSpaceOnUse">
      <stop
         stop-color="#FFC000"
         id="stop490" />
      <stop
         offset="1"
         stop-color="#FF8A00"
         id="stop492" />
    </linearGradient>
    <linearGradient
       id="al"
       x1="383.433"
       y1="442.041"
       x2="382.611"
       y2="440.737"
       gradientUnits="userSpaceOnUse">
      <stop
         stop-color="#FFC000"
         id="stop495" />
      <stop
         offset="1"
         stop-color="#FF8A00"
         id="stop497" />
    </linearGradient>
    <linearGradient
       id="am"
       x1="386.913"
       y1="438.087"
       x2="386.091"
       y2="436.782"
       gradientUnits="userSpaceOnUse">
      <stop
         stop-color="#FFC000"
         id="stop500" />
      <stop
         offset="1"
         stop-color="#FF8A00"
         id="stop502" />
    </linearGradient>
    <linearGradient
       id="an"
       x1="390.393"
       y1="434.133"
       x2="389.57"
       y2="432.828"
       gradientUnits="userSpaceOnUse">
      <stop
         stop-color="#FFC000"
         id="stop505" />
      <stop
         offset="1"
         stop-color="#FF8A00"
         id="stop507" />
    </linearGradient>
    <linearGradient
       id="ao"
       x1="379.519"
       y1="424.565"
       x2="378.697"
       y2="423.262"
       gradientUnits="userSpaceOnUse">
      <stop
         stop-color="#FFC000"
         id="stop510" />
      <stop
         offset="1"
         stop-color="#FF8A00"
         id="stop512" />
    </linearGradient>
    <linearGradient
       id="ap"
       x1="376.04"
       y1="428.519"
       x2="375.218"
       y2="427.216"
       gradientUnits="userSpaceOnUse">
      <stop
         stop-color="#FFC000"
         id="stop515" />
      <stop
         offset="1"
         stop-color="#FF8A00"
         id="stop517" />
    </linearGradient>
    <linearGradient
       id="aq"
       x1="384.956"
       y1="429.349"
       x2="384.134"
       y2="428.045"
       gradientUnits="userSpaceOnUse">
      <stop
         stop-color="#FFC000"
         id="stop520" />
      <stop
         offset="1"
         stop-color="#FF8A00"
         id="stop522" />
    </linearGradient>
    <linearGradient
       id="ar"
       x1="30.597"
       y1=".75"
       x2="-4.206"
       y2="11.008"
       gradientUnits="userSpaceOnUse"
       gradientTransform="matrix(-1,0,0,1,-515.5,-411.5)">
      <stop
         stop-color="#FFC000"
         id="stop525" />
      <stop
         offset="1"
         stop-color="#FF8A00"
         id="stop527" />
    </linearGradient>
    <linearGradient
       id="as"
       x1="503.259"
       y1="281.96"
       x2="442.918"
       y2="258.384"
       gradientUnits="userSpaceOnUse">
      <stop
         stop-color="#FFC000"
         id="stop530" />
      <stop
         offset="1"
         stop-color="#FF8A00"
         id="stop532" />
    </linearGradient>
    <linearGradient
       id="at"
       x1="493.498"
       y1="473.221"
       x2="512.502"
       y2="456.278"
       gradientUnits="userSpaceOnUse">
      <stop
         stop-color="#FFC000"
         id="stop535" />
      <stop
         offset="1"
         stop-color="#FF8A00"
         id="stop537" />
    </linearGradient>
    <clipPath
       id="j">
      <path
         fill="#fff"
         transform="matrix(-1 0 0 1 48 129)"
         d="M0 0h26v26H0z"
         id="path540" />
    </clipPath>
    <clipPath
       id="l">
      <path
         fill="#fff"
         transform="scale(1 -1) rotate(60.82 151.046 22.827)"
         d="M0 0h42.758v42.758H0z"
         id="path543" />
    </clipPath>
    <clipPath
       id="M">
      <path
         fill="#fff"
         transform="matrix(1 0 0 -1 276 395)"
         d="M0 0h27v28H0z"
         id="path546" />
    </clipPath>
    <clipPath
       id="N">
      <path
         fill="#fff"
         transform="matrix(1 0 0 -1 375 494)"
         d="M0 0h27v28H0z"
         id="path549" />
    </clipPath>
    <clipPath
       id="U">
      <path
         fill="#fff"
         transform="matrix(1 0 0 -1 484 375)"
         d="M0 0h26v26H0z"
         id="path552" />
    </clipPath>
    <clipPath
       id="W">
      <path
         fill="#fff"
         transform="scale(-1 1) rotate(60.82 -514.403 -177.814)"
         d="M0 0h42.758v42.758H0z"
         id="path555" />
    </clipPath>
  </defs>
</svg>
