<svg width="35" height="33" viewBox="0 0 35 33" fill="none" xmlns="http://www.w3.org/2000/svg"><path d="M33.805 6.05v26.4h-6.75V6.05h6.75zM28.742 26.4h3.375v-9.9h-3.375v9.9z" fill="#BFB073"/><path d="M20.304.55h6.75v31.9h-6.75V.55zm1.688 5.5h3.375v-3.3h-3.375v3.3z" fill="#00A1A7"/><path d="M20.305 6.05v26.4h-5.626V6.05h5.626zm-2.813 2.2c-.622 0-1.125.492-1.125 1.1 0 .607.503 1.1 1.125 1.1.621 0 1.125-.493 1.125-1.1 0-.608-.504-1.1-1.125-1.1z" fill="#BFB073"/><path d="M14.68 3.85v28.6H7.93V3.85h6.75zm-3.376 5.5c.932 0 1.688-.739 1.688-1.65 0-.911-.756-1.65-1.688-1.65-.932 0-1.687.739-1.687 1.65 0 .911.755 1.65 1.687 1.65z" fill="#BF3C1A"/><path d="M7.93 3.85v28.6H1.18V1.65h6.75v2.2zM6.242 16.5H2.867v9.9h3.375v-9.9z" fill="#BFB073"/><path d="M6.238 16.5H2.863v9.9h3.375v-9.9z" fill="#00A1A7"/><path d="M32.117 16.5h-3.375v9.9h3.375v-9.9zm-6.75-13.75h-3.375v3.3h3.375v-3.3zm-9 6.6c0 .607.504 1.1 1.125 1.1s1.125-.492 1.125-1.1c0-.608-.504-1.1-1.125-1.1s-1.125.492-1.125 1.1z" fill="#BF3C1A"/><path d="M9.617 7.7c0 .911.755 1.65 1.688 1.65.932 0 1.687-.739 1.687-1.65 0-.911-.755-1.65-1.687-1.65s-1.688.739-1.688 1.65z" fill="#00A1A7"/><path d="M1.177 1.1h6.75c.311 0 .563.246.563.55V3.3h6.188c.31 0 .563.246.563.55V5.5h4.5V.55c0-.304.252-.55.563-.55h6.75c.31 0 .563.246.563.55V5.5h6.188c.31 0 .562.246.562.55v26.4c0 .304-.252.55-.562.55H1.177a.556.556 0 0 1-.562-.55V1.65c0-.304.251-.55.562-.55zm32.065 5.5h-5.625v25.3h5.625V6.6zm-6.75-5.5h-5.626v30.8h5.626V1.1zm-6.75 5.5H15.24v25.3h4.5V6.6zm-5.626-2.2H8.49v27.5h5.626V4.4zM1.74 31.9h5.625V2.2H1.74v29.7z" fill="#231F20"/><path d="M32.117 28.05h-3.375v1.1h3.375v-1.1zm0 1.65h-3.375v1.1h3.375v-1.1zm-6.75-1.65h-3.375v1.1h3.375v-1.1zm0 1.65h-3.375v1.1h3.375v-1.1zm-6.187-1.65h-3.376v1.1h3.376v-1.1zm0 1.65h-3.376v1.1h3.376v-1.1zm-6.188-1.65H9.617v1.1h3.375v-1.1zm0 1.65H9.617v1.1h3.375v-1.1zm-6.754-1.65H2.863v1.1h3.375v-1.1zm0 1.65H2.863v1.1h3.375v-1.1zm.004-2.75H2.867a.556.556 0 0 1-.563-.55v-9.9c0-.304.252-.55.563-.55h3.375c.31 0 .563.247.563.55v9.9c0 .304-.252.55-.563.55zm-.562-9.9H3.43v8.8h2.25v-8.8zm23.062-1.1h3.375c.31 0 .563.246.563.55v9.9c0 .304-.252.55-.563.55h-3.375a.556.556 0 0 1-.563-.55v-9.9c0-.304.252-.55.563-.55zm.562 9.9h2.25v-8.8h-2.25v8.8zM21.992 2.2h3.375c.31 0 .563.247.563.55v3.3c0 .304-.252.55-.563.55h-3.375a.556.556 0 0 1-.563-.55v-3.3c0-.303.252-.55.563-.55zm.562 3.3h2.25V3.3h-2.25v2.2zm-5.062 2.2c.932 0 1.688.739 1.688 1.65 0 .911-.756 1.65-1.688 1.65-.932 0-1.688-.739-1.688-1.65 0-.911.756-1.65 1.688-1.65zm0 2.2c.31 0 .563-.246.563-.55a.556.556 0 0 0-.563-.55.556.556 0 0 0-.562.55c0 .304.251.55.562.55zm-6.188-4.4c1.243 0 2.25.985 2.25 2.2 0 1.215-1.007 2.2-2.25 2.2-1.242 0-2.25-.985-2.25-2.2 0-1.215 1.008-2.2 2.25-2.2zm0 3.3c.622 0 1.126-.492 1.126-1.1 0-.607-.504-1.1-1.126-1.1-.62 0-1.125.493-1.125 1.1 0 .608.504 1.1 1.125 1.1z" fill="#231F20"/></svg>