<svg width="409" height="416" viewBox="0 0 409 416" fill="none" xmlns="http://www.w3.org/2000/svg"><path d="M33.61 113.019a27.19 27.19 0 0 1 7.95-17.776c10.656-10.656 27.932-10.656 38.589 0a27.203 27.203 0 0 1 7.992 19.296 27.201 27.201 0 0 1-7.992 19.294 27.189 27.189 0 0 1-17.777 7.95L33.61 113.019zm36.36-6.135v-5.404l-9.547 5.728 4.38 2.629 5.168-2.953zm0 2.617l-15.881 9.077 15.882 9.076v-18.153zm-10.197 26.467a24.898 24.898 0 0 0-6.958-13.39 24.804 24.804 0 0 0-8.931-5.751 25.046 25.046 0 0 0-4.46-1.208l20.349 20.349zm11.146 1.478a24.925 24.925 0 0 0 7.622-5.221 24.935 24.935 0 0 0 7.326-17.686 24.927 24.927 0 0 0-7.326-17.687 24.85 24.85 0 0 0-8.273-5.495 24.91 24.91 0 0 0-9.414-1.832 24.9 24.9 0 0 0-9.414 1.832 24.85 24.85 0 0 0-8.273 5.495 24.881 24.881 0 0 0-7.212 15.299l.882.882a27.188 27.188 0 0 1 13.897 4.842l11.805-6.746-6.537-3.921 16.243-9.745v34.109l-16.949-9.686a27.176 27.176 0 0 1 7.063 16.668l.884.884a24.855 24.855 0 0 0 7.676-1.992z" fill="url(#a)" style="mix-blend-mode:multiply"/><path d="M67.887 320.764l15.593-13.318 1.421-1.214 15.594-13.319 24.368 28.531-15.594 13.318-1.421 1.214-15.593 13.319-24.368-28.531zm54.453.48l-22.043-25.809-14.234 12.157 22.044 25.809 14.233-12.157zm-37.698-12.438L70.41 320.963l22.043 25.809 14.234-12.157-22.044-25.809z" fill="#fff"/><path d="M83.52 324.109l-3.542.591 2.84-8.465 2.488 2.911 3.482 4.078 4.473 5.237-12.132 2.307 2.391-6.659zm-.01-4.311l-.894 2.649 1.602-.268.39-1.095-1.099-1.286zm2.434 2.851l-2.075 5.779 6.033-1.146-3.958-4.633zm8.096 3.978l-9.286-10.871a.898.898 0 0 1 .103-1.262.897.897 0 0 1 1.258.1l9.285 10.871a.89.89 0 0 1-.1 1.255.892.892 0 0 1-1.26-.093zm6.34-24.218a.893.893 0 0 1 1.356-1.158.893.893 0 0 1-.094 1.261.895.895 0 0 1-1.262-.103zm2.321 2.716a.893.893 0 0 1 .099-1.257.895.895 0 1 1 1.162 1.361.894.894 0 0 1-1.261-.104zm2.323 2.722a.894.894 0 0 1 .096-1.262.893.893 0 0 1 1.26.104.892.892 0 0 1-1.356 1.158zm2.321 2.715a.895.895 0 0 1 .095-1.262.894.894 0 0 1 1.161 1.36.893.893 0 0 1-1.256-.098zm2.321 2.718a.89.89 0 0 1 .098-1.258.89.89 0 0 1 1.257.1.886.886 0 0 1-.099 1.255.887.887 0 0 1-1.256-.097zm-5.257-3.4l4.474 5.238-12.128 2.303 2.392-6.66-3.547.596 2.84-8.465 2.487 2.911 3.482 4.077zm1.119 4.055l-3.958-4.633-2.075 5.779 6.033-1.146zm-6.393-7.484l-.893 2.649 1.597-.264.394-1.099-1.098-1.286zm-2.544 34.098a.896.896 0 0 1-.82-.962l.354-4.454-1.782-.141a.895.895 0 0 1-.821-.961.896.896 0 0 1 .961-.821l2.669.209c.494.043.86.471.82.962l-.42 5.346a.897.897 0 0 1-.96.822zm16.07-20.377a.89.89 0 0 1 .821.962l.004.004-.144 1.778 1.783.14c.49.039.859.471.821.962a.897.897 0 0 1-.962.821l-1.778-.145-.14 1.783a.893.893 0 1 1-1.782-.141l.14-1.782-1.778-.136-.004-.004a.894.894 0 0 1 .14-1.782l1.782.14.136-1.779a.897.897 0 0 1 .961-.821z" fill="#fff"/><path d="M293.617 293.27l-2.711 1.082-.904.361-.903.36c-.986-2.469-3.815-3.667-6.307-2.673-2.491.994-3.717 3.811-2.731 6.28l-.904.361-.904.361-2.711 1.082-15.512-2.114-.315-11.292 6.137-.373-8.219-20.595 25.305-10.099 8.219 20.594 4.708-3.955 7.545 8.407-9.793 12.213zm2.047-17.931l-3.256 2.737-2.067 1.736-.992-2.485-7.504-18.803-21.69 8.657 7.504 18.803.992 2.484-2.693.164-4.248.258.218 7.789 13.379 1.822 2.494-.995a6.806 6.806 0 0 1 4.276-6.897c2.867-1.144 6.04-.222 7.85 2.057l2.495-.995 8.448-10.534-5.206-5.798z" fill="url(#b)" style="mix-blend-mode:multiply"/><path d="M275.487 278.265l-.567 3.408-6.854-5.172 3.443-1.374 4.82-1.924 6.198-2.473-1.699 11.749-5.341-4.214zm-3.514-1.248l1.558 1.176.216-1.301-.49-.387-1.284.512zm3.365-1.343l4.05 3.196.738-5.106-4.788 1.91z" fill="url(#c)" style="mix-blend-mode:multiply"/><g clip-path="url(#d)"><path d="M44.594 215.011l-14.1-13.596-10.687 10.304c-2.13 2.054-5.582 2.054-7.711 0a5.149 5.149 0 0 1-1.598-3.718 5.15 5.15 0 0 1 1.598-3.719l10.686-10.304L8.68 180.381l7.711-7.437 14.101 13.597 12.283-11.845h7.713v7.438l-12.284 11.844 14.101 13.596-7.712 7.437zm-15.386-14.836l-1.922-1.854-8.116 7.826 1.923 1.854 8.115-7.826zm-15.828 5.347a3.42 3.42 0 0 0-1.064 2.479c0 .936.378 1.816 1.064 2.479 1.418 1.366 3.725 1.366 5.142 0l1.285-1.24-5.141-4.958-1.286 1.24zm2.571-2.479l1.934 1.864L26 197.082l-1.933-1.865-8.116 7.826zm-4.7-22.662l2.533 2.442 1.285-1.24a.933.933 0 0 1 1.286 0 .855.855 0 0 1 0 1.24l-.002.001-1.284 1.238 2.571 2.479 1.285-1.239a.931.931 0 0 1 1.286 0 .854.854 0 0 1 0 1.239l-1.286 1.24 2.571 2.479 1.284-1.239.002-.001a.933.933 0 0 1 1.284 0 .854.854 0 0 1 0 1.24h.001l-1.285 1.239 2.57 2.479 1.285-1.239a.932.932 0 0 1 1.286 0 .854.854 0 0 1 0 1.239l-1.286 1.239 2.571 2.479 1.285-1.239a.931.931 0 0 1 1.286 0 .854.854 0 0 1 0 1.239v.001l-1.286 1.239 2.571 2.479 1.285-1.24a.934.934 0 0 1 1.286 0 .855.855 0 0 1 0 1.24l-1.285 1.239 2.57 2.479 1.285-1.239a.931.931 0 0 1 1.286 0 .854.854 0 0 1 0 1.239h-.001l-1.285 1.239 2.571 2.479 1.285-1.238v-.001a.931.931 0 0 1 1.286 0 .854.854 0 0 1 0 1.239l-1.285 1.24 2.532 2.442 5.141-4.958-33.343-32.152-5.14 4.958zm37.42-3.932h-1.506l1.506 1.453v-1.453zm0 4.958v-1.027l-4.077-3.931H43.53l-11.751 11.332 1.934 1.864 9.07-8.745a.931.931 0 0 1 1.285 0 .854.854 0 0 1 0 1.239l-9.07 8.746 1.922 1.854 11.75-11.332z" fill="url(#e)" style="mix-blend-mode:multiply"/></g><path d="M263.59 194.488l7.571-7.818a.907.907 0 0 1 1.303 1.263l-7.571 7.817a.906.906 0 1 1-1.303-1.262z" fill="url(#f)" style="mix-blend-mode:multiply"/><path d="M269.857 185.408l-2.524 2.606a.907.907 0 0 1-1.301-1.261l2.523-2.606a.907.907 0 0 1 1.302 1.261z" fill="url(#g)" style="mix-blend-mode:multiply"/><path d="M250.941 204.222l-.837-3.134 7.848 1.829-2.404 2.482-3.364 3.474-4.327 4.468-3.103-10.702 6.187 1.583zm3.48-.266l-1.785-.415.319 1.194.569.146.897-.925zm-2.35 2.425l-4.69-1.198 1.347 4.65 3.343-3.452z" fill="url(#h)" style="mix-blend-mode:multiply"/><path d="M229.026 198.888l29.023-29.967a.908.908 0 0 1 1.282-.021l18.242 17.667a.907.907 0 0 1 .019 1.282l-29.023 29.967a.907.907 0 0 1-1.281.021l-18.241-17.667a.907.907 0 0 1-.021-1.282zm3.172-.668l20.039-5.449c.159-.044.402-.295.441-.456l4.81-20.207-25.29 26.112zm43.46-10.982L259.48 171.57l-5.038 21.165c-.095.402-.329.793-.638 1.112-.309.32-.693.566-1.091.674l-20.997 5.709 16.181 15.672 27.761-28.664z" fill="url(#i)" style="mix-blend-mode:multiply"/><path d="M26.952 59.206c-10.952 0-19.83-8.835-19.83-19.736 0-3.594.966-6.963 2.654-9.867a19.573 19.573 0 0 1-2.653-9.867C7.123 8.836 16 0 26.953 0c7.398 0 13.85 4.033 17.257 10.01 9.827 1.172 17.444 9.496 17.444 19.593 0 10.096-7.617 18.42-17.444 19.593a19.837 19.837 0 0 1-17.258 10.01zm18.54-46.486a19.606 19.606 0 0 1 1.29 7.016c0 3.594-.966 6.963-2.653 9.867a19.573 19.573 0 0 1 2.653 9.867 19.61 19.61 0 0 1-1.29 7.016 17.3 17.3 0 0 0 8.602-4.673 17.216 17.216 0 0 0 3.72-5.489 17.093 17.093 0 0 0 1.362-6.721 17.09 17.09 0 0 0-1.362-6.722 17.216 17.216 0 0 0-3.72-5.489 17.295 17.295 0 0 0-8.603-4.672zm-2.85 34.133a17.086 17.086 0 0 0 1.661-7.383 17.075 17.075 0 0 0-1.745-7.558 19.825 19.825 0 0 1-14.983 7.547 17.323 17.323 0 0 0 1.98 2.354 17.314 17.314 0 0 0 12.27 5.057c.274 0 .546-.005.818-.017zm-16.508-9.87a17.305 17.305 0 0 0 7.57-1.335 17.325 17.325 0 0 0 5.517-3.702c.732-.728 1.39-1.51 1.973-2.343a17.27 17.27 0 0 0-1.973-2.344 17.324 17.324 0 0 0-13.087-5.037 17.094 17.094 0 0 0-1.661 7.38 17.09 17.09 0 0 0 1.661 7.382zm-4.139-7.38c0-2.47.458-4.835 1.29-7.014a17.325 17.325 0 0 0-8.603 4.67 17.29 17.29 0 0 0-1.971 2.344 17.296 17.296 0 0 0 1.972 2.344 17.327 17.327 0 0 0 8.603 4.67 19.601 19.601 0 0 1-1.291-7.014zm5.58-9.856a19.824 19.824 0 0 1 14.983 7.547 17.078 17.078 0 0 0 1.746-7.558 17.085 17.085 0 0 0-1.661-7.383 17.49 17.49 0 0 0-.818-.018 17.32 17.32 0 0 0-6.753 1.355 17.296 17.296 0 0 0-5.516 3.703 17.31 17.31 0 0 0-1.981 2.354zm-16.229 7.547a19.82 19.82 0 0 1 13.22-7.415A19.84 19.84 0 0 1 41.203 9.878a17.3 17.3 0 0 0-1.98-2.353 17.266 17.266 0 0 0-5.517-3.702 17.307 17.307 0 0 0-6.753-1.357c-2.344 0-4.616.457-6.753 1.357a17.267 17.267 0 0 0-5.516 3.702 17.217 17.217 0 0 0-3.72 5.49 17.087 17.087 0 0 0-1.362 6.72 17.075 17.075 0 0 0 1.745 7.559zM20.2 55.383c2.136.9 4.408 1.357 6.752 1.357 2.344 0 4.616-.457 6.753-1.357a17.266 17.266 0 0 0 5.516-3.702 17.289 17.289 0 0 0 1.981-2.353 19.84 19.84 0 0 1-16.635-10 19.82 19.82 0 0 1-13.22-7.416A17.078 17.078 0 0 0 9.6 39.47c0 2.333.458 4.595 1.362 6.721a17.213 17.213 0 0 0 3.72 5.49 17.267 17.267 0 0 0 5.517 3.702z" fill="url(#j)" style="mix-blend-mode:multiply"/><path d="M13.364 116.93l7.873 11.445 3.374 4.905 7.874 11.445-38.115 28.629L-27 142.29l40.364-25.36zm-.557 2.693l-3.363 2.114 6.888 10.012 3.27-2.249-6.795-9.877zm7.92 11.512l-6.54 4.499 1.125 1.635 6.54-4.499-1.125-1.635zm2.249 3.27l-3.27 2.249 6.889 10.013 3.176-2.386-6.795-9.876zm-28.143 36.12l30.173-22.665-6.935-10.081-3.27 2.249a.991.991 0 1 1-1.124-1.634.991.991 0 1 1-1.124-1.635.992.992 0 1 1-1.126-1.636l3.27-2.249-6.935-10.08-31.954 20.075 19.025 27.656z" fill="#fff"/><path d="M4.012 140.685l-4.17 8.655 4.868-.304-5.029 11.032-2.946-4.283-4.124-5.994-5.302-7.708 16.703-1.398zM-.67 156.054l2.202-4.831-2.679.166-1.125 2.337 1.602 2.328zm-2.897-4.212l4.283-8.89-9.833.823 5.55 8.067z" fill="#fff"/><g clip-path="url(#k)"><path d="M226.242 380.609a6.346 6.346 0 0 1-6.198-7.712l-4.207-4.205-11.413 11.413a5.063 5.063 0 0 1-7.16-7.159l11.414-11.415-13-12.999a3.364 3.364 0 0 1-.988-2.386 3.376 3.376 0 0 1 5.762-2.387l12.999 13 12.296-12.297h7.159v7.161l-12.296 12.295 4.169 4.169c.47-.111.959-.17 1.463-.17 7.187 0 7.756 10.598 7.756 14.103 0 3.505-4.252-1.411-7.756-1.411zm-28.773-4.083c0 .901.351 1.748.988 2.386a3.382 3.382 0 0 0 4.774 0l1.193-1.193-4.774-4.773-1.193 1.193a3.354 3.354 0 0 0-.988 2.387zm1.789-31.574a1.69 1.69 0 0 0-2.881 1.194c0 .45.176.874.494 1.193l13 12.999 2.387-2.386-13-13zm31.961 1.199h-1.398l1.398 1.397v-1.397zm0 4.772v-.988l-3.784-3.784h-.989l-25.602 25.602 1.795 1.795 23.113-23.113a.844.844 0 1 1 1.194 1.193l-23.114 23.113 1.785 1.785 25.602-25.603zm-11.802 14.188l-2.386 2.386 3.67 3.671a6.365 6.365 0 0 1 2.37-2.403l-3.654-3.654zm11.799 9.082c-.495-1.467-1.139-2.599-1.915-3.363-.837-.824-1.837-1.225-3.059-1.225a4.626 4.626 0 0 0-3.294 1.364 4.629 4.629 0 0 0-1.365 3.294 4.664 4.664 0 0 0 4.659 4.659c1.921 0 3.794 1.023 5.299 1.847.226.122.496.271.758.407-.047-1.818-.27-4.57-1.083-6.983z" fill="url(#l)" style="mix-blend-mode:multiply"/></g><g clip-path="url(#m)"><path d="M172.694 214.521l21.143 74.621-16.024 4.542-21.144-74.623 16.025-4.54zm17.717 72.708l-1.493-5.262-2.67.758a1.392 1.392 0 0 1-1.715-.958 1.391 1.391 0 0 1 .958-1.714l.002.001 2.669-.757-1.514-5.342-2.669.757a1.388 1.388 0 0 1-.758-2.671l2.672-.756-1.514-5.342-2.671.756-.001.001a1.388 1.388 0 0 1-.756-2.671l.001-.001 2.669-.756-1.513-5.342-2.67.758a1.39 1.39 0 0 1-1.715-.958 1.39 1.39 0 0 1 .957-1.714l2.672-.756-1.514-5.342-2.67.757a1.387 1.387 0 1 1-.757-2.671l2.672-.756-1.514-5.341-2.672.756a1.387 1.387 0 1 1-.756-2.67v-.001l2.67-.756-1.514-5.342-2.67.757a1.39 1.39 0 0 1-.757-2.671l.002.001 2.669-.758-1.513-5.341-2.669.755-.001.002a1.39 1.39 0 0 1-1.715-.958 1.386 1.386 0 0 1 .957-1.713l2.67-.758-1.491-5.261-10.683 3.026 19.631 69.281 10.684-3.027z" fill="url(#n)" style="mix-blend-mode:multiply"/></g><path d="M34.83 301.083L7.71 279.196a.757.757 0 0 1-.113-1.064l15.225-18.864a.757.757 0 0 1 1.065-.115l9.784 7.897 2.149-4.107-.236-.19a.758.758 0 0 1 .952-1.179l9.433 7.613a.758.758 0 0 1-.952 1.179l-.236-.191-3.561 2.967 9.785 7.898a.758.758 0 0 1 .113 1.065l-15.225 18.864a.757.757 0 0 1-1.064.114zm2.194-37.169l-2.147 4.101 5.144 4.154 3.559-2.964-6.556-5.291zm-1.833 35.513L47.56 284.1l-25.937-20.933-12.37 15.327 25.937 20.933zm1.305-28.152l-12.969-10.466-.952 1.179 12.969 10.467 12.968 10.466.952-1.179-12.968-10.467z" fill="url(#o)" style="mix-blend-mode:multiply"/><path d="M36.61 272.34a.757.757 0 1 1-1.18-.95.757.757 0 0 1 1.18.95z" fill="url(#p)" style="mix-blend-mode:multiply"/><path d="M12.925 277.565l17.684 14.272.001.001a.758.758 0 0 1-.951 1.18l-17.685-14.274a.758.758 0 1 1 .951-1.179z" fill="url(#q)" style="mix-blend-mode:multiply"/><path d="M14.83 275.207l9.43 7.611v.001a.757.757 0 0 1-.95 1.179l-9.432-7.612a.758.758 0 1 1 .951-1.179z" fill="url(#r)" style="mix-blend-mode:multiply"/><path d="M16.732 272.846L29.7 283.312v.001a.757.757 0 0 1-.95 1.179l-12.97-10.466a.76.76 0 1 1 .952-1.18z" fill="url(#s)" style="mix-blend-mode:multiply"/><path d="M18.635 270.49l8.252 6.66a.758.758 0 1 1-.951 1.179l-8.253-6.66a.758.758 0 1 1 .952-1.179z" fill="url(#t)" style="mix-blend-mode:multiply"/><path d="M20.538 268.132l15.326 12.369a.758.758 0 0 1-.952 1.179l-15.325-12.369a.758.758 0 1 1 .951-1.179z" fill="url(#u)" style="mix-blend-mode:multiply"/><path d="M22.442 265.774l4.715 3.805a.758.758 0 1 1-.952 1.179l-4.715-3.805a.758.758 0 1 1 .952-1.179z" fill="url(#v)" style="mix-blend-mode:multiply"/><path d="M321.5 209.892l-6.233-5.921 20.269-6.739-1.993 8.938-2.792 12.515-3.588 16.088-21.837-19.884 16.174-4.997zm10.012-8.203l-10.632 3.534 3.861 3.668 5.546-1.714 1.225-5.488zm-1.966 8.814l-18.4 5.684 14.24 12.967 4.16-18.651z" fill="#fff"/><path d="M282.495 224.809l-2.95-.658c-.814-.182-1.33-.974-1.152-1.771.178-.8.982-1.298 1.796-1.116l2.95.658 1.288-5.777-2.949-.657c-.815-.182-1.331-.974-1.153-1.772.178-.799.982-1.297 1.797-1.115l2.949.657 1.288-5.775-2.949-.658c-.815-.181-1.33-.975-1.153-1.772.178-.798.983-1.298 1.797-1.116l2.949.658 1.288-5.775-2.949-.658c-.814-.182-1.33-.975-1.152-1.773.178-.798.982-1.297 1.796-1.115l2.95.657 1.288-5.775-2.95-.658c-.814-.181-1.33-.975-1.152-1.772.178-.798.982-1.297 1.796-1.116l2.95.658 1.932-8.663 64.885 14.471-12.237 54.868-64.885-14.472 1.932-8.663zm60.707 19.604l10.95-49.093-59.108-13.183-1.288 5.775 2.826.63c.814.182 1.331.976 1.153 1.774-.178.798-.983 1.296-1.797 1.115l-2.826-.631-1.288 5.776 2.826.63c.814.182 1.331.975 1.153 1.774-.178.797-.983 1.296-1.798 1.114l-2.825-.63-1.288 5.775 2.825.63c.815.182 1.331.976 1.153 1.774-.178.797-.983 1.296-1.797 1.115l-2.826-.631-1.288 5.776 2.826.63c.814.181 1.331.974 1.153 1.773-.178.798-.983 1.296-1.797 1.114l-2.826-.63-1.288 5.776 2.826.63c.814.182 1.331.974 1.153 1.774-.178.797-.983 1.295-1.797 1.113l-2.826-.63-1.288 5.776 59.107 13.184z" fill="#fff"/><path d="M74.796 193.559l31.169-35.425a1.027 1.027 0 0 1 1.448-.093l24.643 21.683c.426.374.467 1.022.092 1.448l-11.245 12.781 5.431 3.144.271-.308a1.027 1.027 0 0 1 1.541 1.355l-10.842 12.322a1.025 1.025 0 0 1-1.54-1.355l.271-.308-3.808-4.99-11.248 12.784a1.025 1.025 0 0 1-1.447.092L74.89 195.006a1.025 1.025 0 0 1-.093-1.447zm50.157 5.108l-5.425-3.139-5.916 6.72 3.804 4.985 7.537-8.566zm-40.238 2.253l4.066-4.621-7.701-6.776-4.066 4.621 7.701 6.776zm5.606-3.266l-4.066 4.621 10.782 9.486 4.065-4.621-10.781-9.486zm-7.886-9.67l20.022 17.616 24.393-27.723-20.022-17.617-24.393 27.724zm32.59 9.545l14.906-16.942-1.541-1.355-14.906 16.942-14.907 16.942 1.54 1.356 14.908-16.943z" fill="url(#w)" style="mix-blend-mode:multiply"/><path d="M113.577 197.62a1.026 1.026 0 1 1 1.355-1.54 1.026 1.026 0 0 1-1.355 1.54z" fill="url(#x)" style="mix-blend-mode:multiply"/><path d="M107.704 187.184l-4.646 5.281-4.085-11.922 7.076 1.452-1.115-3.494 8.965 1.642-2.581 2.934-3.614 4.107zm-5.627-3.91l1.776 5.181 3.589-4.079-5.365-1.102zm7.888-1.766l-2.037-.373.425 1.333.65.133.962-1.093z" fill="url(#y)" style="mix-blend-mode:multiply"/><path d="M104.486 169.129l1.355-1.54 1.541 1.355-1.355 1.54-1.541-1.355z" fill="url(#z)" style="mix-blend-mode:multiply"/><path d="M97.034 177.599l1.355-1.54 1.54 1.355-1.354 1.54-1.54-1.355z" fill="url(#A)" style="mix-blend-mode:multiply"/><path d="M89.581 186.07l1.356-1.541 1.54 1.355-1.355 1.541-1.54-1.355z" fill="url(#B)" style="mix-blend-mode:multiply"/><path d="M95.742 191.492l1.356-1.541 1.54 1.355-1.356 1.54-1.54-1.354z" fill="url(#C)" style="mix-blend-mode:multiply"/><path d="M101.902 196.914l1.356-1.541 1.54 1.355-1.356 1.541-1.54-1.355z" fill="url(#D)" style="mix-blend-mode:multiply"/><path d="M116.809 179.972l1.355-1.539 1.54 1.355-1.355 1.54-1.54-1.356z" fill="url(#E)" style="mix-blend-mode:multiply"/><path d="M110.648 174.551l1.355-1.54 1.54 1.355-1.355 1.54-1.54-1.355z" fill="url(#F)" style="mix-blend-mode:multiply"/><path d="M109.356 188.443l1.355-1.54 1.54 1.355-1.354 1.54-1.541-1.355z" fill="url(#G)" style="mix-blend-mode:multiply"/><circle r="19.15" transform="matrix(0 1 1 0 137.22 391.85)" stroke="url(#H)" stroke-width="10" style="mix-blend-mode:multiply"/><path d="M394.778 264.869h-6.097v-9.265h-10.742v-6.398h10.742v-9.266h6.097v9.266h11.206v6.398h-11.206v9.265z" fill="#fff"/><path d="M404.426 285.859c-2.347-.001-22.357-6.398-15.316 18.553 7.041 24.951-4.694 32.628-27.311 37.746-22.617 5.118-24.75 20.046-24.323 31.775" stroke="url(#I)" stroke-width="8" stroke-linecap="round" stroke-linejoin="round" style="mix-blend-mode:multiply"/><path d="M59.753 396.053c.42-.825 6.245-6.715-3.747-8.693-9.992-1.979-10.575-7.472-8.313-16.333 2.263-8.86-2.578-12.274-6.759-14.217" stroke="url(#J)" stroke-width="8" stroke-linecap="round" stroke-linejoin="round" style="mix-blend-mode:multiply"/><defs><linearGradient id="a" x1="34.928" y1="141.074" x2="52.973" y2="79.852" gradientUnits="userSpaceOnUse"><stop stop-color="#FFC000"/><stop offset="1" stop-color="#FF8A00"/></linearGradient><linearGradient id="b" x1="305.359" y1="287.58" x2="251.721" y2="289.557" gradientUnits="userSpaceOnUse"><stop stop-color="#FFC000"/><stop offset="1" stop-color="#FF8A00"/></linearGradient><linearGradient id="c" x1="286.058" y1="280.124" x2="268.723" y2="279.429" gradientUnits="userSpaceOnUse"><stop stop-color="#FFC000"/><stop offset="1" stop-color="#FF8A00"/></linearGradient><linearGradient id="e" x1="9.736" y1="214.465" x2="23.235" y2="166.97" gradientUnits="userSpaceOnUse"><stop stop-color="#FFC000"/><stop offset="1" stop-color="#FF8A00"/></linearGradient><linearGradient id="f" x1="263.105" y1="195.051" x2="269.526" y2="197.164" gradientUnits="userSpaceOnUse"><stop stop-color="#FFC000"/><stop offset="1" stop-color="#FF8A00"/></linearGradient><linearGradient id="g" x1="265.481" y1="187.384" x2="270.438" y2="187.003" gradientUnits="userSpaceOnUse"><stop stop-color="#FFC000"/><stop offset="1" stop-color="#FF8A00"/></linearGradient><linearGradient id="h" x1="241.207" y1="206.638" x2="256.215" y2="200.553" gradientUnits="userSpaceOnUse"><stop stop-color="#FFC000"/><stop offset="1" stop-color="#FF8A00"/></linearGradient><linearGradient id="i" x1="229.262" y1="199.59" x2="274.213" y2="182.633" gradientUnits="userSpaceOnUse"><stop stop-color="#FFC000"/><stop offset="1" stop-color="#FF8A00"/></linearGradient><linearGradient id="j" x1="8.441" y1="58.436" x2="29.412" y2="-7.097" gradientUnits="userSpaceOnUse"><stop stop-color="#FFC000"/><stop offset="1" stop-color="#FF8A00"/></linearGradient><linearGradient id="l" x1="195.641" y1="382.754" x2="209.387" y2="337.498" gradientUnits="userSpaceOnUse"><stop stop-color="#FFC000"/><stop offset="1" stop-color="#FF8A00"/></linearGradient><linearGradient id="n" x1="162.381" y1="210.608" x2="216.934" y2="266.321" gradientUnits="userSpaceOnUse"><stop stop-color="#FFC000"/><stop offset="1" stop-color="#FF8A00"/></linearGradient><linearGradient id="o" x1="35.534" y1="300.663" x2="12.955" y2="265.191" gradientUnits="userSpaceOnUse"><stop stop-color="#FFC000"/><stop offset="1" stop-color="#FF8A00"/></linearGradient><linearGradient id="p" x1="36.141" y1="272.889" x2="35.133" y2="271.432" gradientUnits="userSpaceOnUse"><stop stop-color="#FFC000"/><stop offset="1" stop-color="#FF8A00"/></linearGradient><linearGradient id="q" x1="30.025" y1="293.266" x2="32.805" y2="287.795" gradientUnits="userSpaceOnUse"><stop stop-color="#FFC000"/><stop offset="1" stop-color="#FF8A00"/></linearGradient><linearGradient id="r" x1="23.783" y1="284.333" x2="25.622" y2="278.761" gradientUnits="userSpaceOnUse"><stop stop-color="#FFC000"/><stop offset="1" stop-color="#FF8A00"/></linearGradient><linearGradient id="s" x1="29.177" y1="284.791" x2="31.547" y2="279.239" gradientUnits="userSpaceOnUse"><stop stop-color="#FFC000"/><stop offset="1" stop-color="#FF8A00"/></linearGradient><linearGradient id="t" x1="26.426" y1="278.678" x2="28.011" y2="273.125" gradientUnits="userSpaceOnUse"><stop stop-color="#FFC000"/><stop offset="1" stop-color="#FF8A00"/></linearGradient><linearGradient id="u" x1="35.312" y1="281.955" x2="37.916" y2="276.442" gradientUnits="userSpaceOnUse"><stop stop-color="#FFC000"/><stop offset="1" stop-color="#FF8A00"/></linearGradient><linearGradient id="v" x1="26.742" y1="271.145" x2="27.172" y2="265.971" gradientUnits="userSpaceOnUse"><stop stop-color="#FFC000"/><stop offset="1" stop-color="#FF8A00"/></linearGradient><linearGradient id="w" x1="75.324" y1="194.536" x2="124.612" y2="166.033" gradientUnits="userSpaceOnUse"><stop stop-color="#FFC000"/><stop offset="1" stop-color="#FF8A00"/></linearGradient><linearGradient id="x" x1="112.862" y1="196.955" x2="114.893" y2="195.674" gradientUnits="userSpaceOnUse"><stop stop-color="#FFC000"/><stop offset="1" stop-color="#FF8A00"/></linearGradient><linearGradient id="y" x1="95.183" y1="185.251" x2="111.809" y2="177.567" gradientUnits="userSpaceOnUse"><stop stop-color="#FFC000"/><stop offset="1" stop-color="#FF8A00"/></linearGradient><linearGradient id="z" x1="104.541" y1="169.142" x2="106.572" y2="167.861" gradientUnits="userSpaceOnUse"><stop stop-color="#FFC000"/><stop offset="1" stop-color="#FF8A00"/></linearGradient><linearGradient id="A" x1="97.089" y1="177.612" x2="99.12" y2="176.331" gradientUnits="userSpaceOnUse"><stop stop-color="#FFC000"/><stop offset="1" stop-color="#FF8A00"/></linearGradient><linearGradient id="B" x1="89.636" y1="186.083" x2="91.668" y2="184.801" gradientUnits="userSpaceOnUse"><stop stop-color="#FFC000"/><stop offset="1" stop-color="#FF8A00"/></linearGradient><linearGradient id="C" x1="95.797" y1="191.504" x2="97.829" y2="190.223" gradientUnits="userSpaceOnUse"><stop stop-color="#FFC000"/><stop offset="1" stop-color="#FF8A00"/></linearGradient><linearGradient id="D" x1="101.957" y1="196.927" x2="103.989" y2="195.645" gradientUnits="userSpaceOnUse"><stop stop-color="#FFC000"/><stop offset="1" stop-color="#FF8A00"/></linearGradient><linearGradient id="E" x1="116.864" y1="179.985" x2="118.894" y2="178.705" gradientUnits="userSpaceOnUse"><stop stop-color="#FFC000"/><stop offset="1" stop-color="#FF8A00"/></linearGradient><linearGradient id="F" x1="110.703" y1="174.564" x2="112.734" y2="173.283" gradientUnits="userSpaceOnUse"><stop stop-color="#FFC000"/><stop offset="1" stop-color="#FF8A00"/></linearGradient><linearGradient id="G" x1="109.411" y1="188.455" x2="111.441" y2="187.175" gradientUnits="userSpaceOnUse"><stop stop-color="#FFC000"/><stop offset="1" stop-color="#FF8A00"/></linearGradient><linearGradient id="H" x1="47.672" y1="1.168" x2="-6.554" y2="17.151" gradientUnits="userSpaceOnUse"><stop stop-color="#FFC000"/><stop offset="1" stop-color="#FF8A00"/></linearGradient><linearGradient id="I" x1="339.05" y1="372.778" x2="375.782" y2="278.763" gradientUnits="userSpaceOnUse"><stop stop-color="#FFC000"/><stop offset="1" stop-color="#FF8A00"/></linearGradient><linearGradient id="J" x1="41.056" y1="357.569" x2="67.454" y2="387.178" gradientUnits="userSpaceOnUse"><stop stop-color="#FFC000"/><stop offset="1" stop-color="#FF8A00"/></linearGradient><clipPath id="d"><path fill="#fff" transform="matrix(0 1 1 0 8.68 172.944)" d="M0 0h42.067v43.626H0z"/></clipPath><clipPath id="k"><path fill="#fff" transform="matrix(0 1 1 0 194.089 342.772)" d="M0 0h40.509v40.509H0z"/></clipPath><clipPath id="m"><path fill="#fff" transform="scale(-1 1) rotate(-29.18 353.142 544.328)" d="M0 0h66.62v66.62H0z"/></clipPath></defs></svg>