<svg width="339" height="505" viewBox="0 0 339 505" fill="none" xmlns="http://www.w3.org/2000/svg"><path d="M182.312 423.561a27.195 27.195 0 0 1-18.962-4.434c-12.483-8.442-15.76-25.405-7.319-37.889a27.201 27.201 0 0 1 17.429-11.507 27.197 27.197 0 0 1 20.46 4.187 27.192 27.192 0 0 1 11.178 15.946l-22.786 33.697zm-12.921-34.538l-5.306 1.025 7.435 8.289 1.751-4.8-3.88-4.514zm2.57-.496l11.924 13.872 5.899-17.315-17.823 3.443zm27.921 4.992a24.863 24.863 0 0 0-4.747 2.408 24.844 24.844 0 0 0-7.08 6.964 24.792 24.792 0 0 0-3.953 9.859 25.095 25.095 0 0 0-.34 4.609l16.12-23.84zm-.664-11.224a24.918 24.918 0 0 0-6.571-6.494 24.915 24.915 0 0 0-18.755-3.837 24.895 24.895 0 0 0-8.896 3.584 24.844 24.844 0 0 0-7.081 6.963 24.935 24.935 0 0 0-3.839 18.756 24.922 24.922 0 0 0 10.549 15.977 24.891 24.891 0 0 0 16.389 4.179l.699-1.034a27.196 27.196 0 0 1 2.119-14.563l-8.864-10.311-2.609 7.162-12.65-14.099 7.974-1.541 11.163-2.157 14.353-2.772-6.295 18.478a27.176 27.176 0 0 1 15.026-10.096l.7-1.036a24.867 24.867 0 0 0-3.412-7.159z" fill="url(#a)" style="mix-blend-mode:multiply"/><path d="M309.971 134.083l1.577 2.457.525.819.525.818c-2.237 1.436-2.877 4.442-1.428 6.699 1.449 2.258 4.447 2.927 6.684 1.491l.526.819.526.819 1.576 2.457.867 15.63-11.027 2.452-1.531-5.955-18.661 11.977-14.716-22.931 18.661-11.976-4.776-3.872 6.823-9.003 13.849 7.299zm-17.994 1.391l3.306 2.679 2.096 1.7-2.252 1.445-17.038 10.934 12.613 19.654 17.039-10.934 2.251-1.445.672 2.612 1.059 4.122 7.605-1.691-.748-13.482-1.45-2.26a6.806 6.806 0 0 1-7.583-2.89 6.804 6.804 0 0 1 .531-8.098l-1.45-2.26-11.946-6.297-4.705 6.211z" fill="url(#b)" style="mix-blend-mode:multiply"/><path d="M298.677 154.73l3.454-.09-3.778 7.711-2.002-3.12-2.803-4.368-3.604-5.616 11.857-.56-3.124 6.043zm-.558 3.687l.859-1.752-1.319.034-.287.555.747 1.163zm-1.957-3.05l2.369-4.582-5.153.244 2.784 4.338z" fill="url(#c)" style="mix-blend-mode:multiply"/><g clip-path="url(#d)"><path d="M280.369 393.429l-10.675 16.424 12.144 8.537c2.421 1.702 3.076 5.092 1.463 7.572a5.148 5.148 0 0 1-3.348 2.274 5.149 5.149 0 0 1-3.954-.863l-12.144-8.538-10.675 16.424-8.765-6.161 10.675-16.424-13.959-9.813-1.463-7.572 7.302-1.411 13.959 9.814 10.675-16.424 8.765 6.161zM268.72 411.35l-1.455 2.239 9.223 6.484 1.456-2.239-9.224-6.484zm8.253 14.526a3.416 3.416 0 0 0 4.868-.94c1.072-1.651.634-3.916-.976-5.048l-1.461-1.027-3.893 5.989 1.462 1.026zm-2.922-2.054l1.463-2.252-9.222-6.483-1.464 2.251 9.223 6.484zm-21.359 8.913l1.917-2.949-1.461-1.027a.934.934 0 0 1-.244-1.262.856.856 0 0 1 1.218-.235l.001.001 1.459 1.026 1.946-2.995-1.46-1.027a.932.932 0 0 1-.244-1.262.855.855 0 0 1 1.217-.235v.001l1.461 1.026 1.947-2.994-1.46-1.026-.002-.001a.934.934 0 0 1-.244-1.262.855.855 0 0 1 1.218-.235l1.46 1.027 1.946-2.994-1.46-1.027a.932.932 0 0 1-.244-1.262.854.854 0 0 1 1.217-.235l1.46 1.027 1.946-2.994-1.46-1.028a.932.932 0 0 1-.244-1.262.855.855 0 0 1 1.217-.235l.001.001 1.46 1.026 1.947-2.994-1.462-1.026v-.001a.935.935 0 0 1-.244-1.262.855.855 0 0 1 1.218-.235l1.46 1.027 1.946-2.995-1.46-1.026a.931.931 0 0 1-.243-1.262.853.853 0 0 1 1.216-.235l1.46 1.027 1.946-2.994-1.458-1.027-.002-.001a.932.932 0 0 1-.244-1.262.856.856 0 0 1 1.217-.235l1.461 1.027 1.917-2.95-5.843-4.107-25.243 38.836 5.843 4.107zm-10.959-35.994l.286 1.479 1.141-1.755-1.427.276zm4.868-.94l-1.008.195-3.086 4.748.202 1.045 13.355 9.388 1.463-2.252-10.306-7.247a.93.93 0 0 1-.244-1.262.854.854 0 0 1 1.216-.235l10.308 7.246 1.456-2.238-13.356-9.388z" fill="url(#e)" style="mix-blend-mode:multiply"/></g><path d="M218.678 182.302l-9.112-5.951a.907.907 0 0 1 .993-1.519l9.111 5.951a.908.908 0 0 1-.992 1.519z" fill="url(#f)" style="mix-blend-mode:multiply"/><path d="M208.574 177.872l3.037 1.983a.907.907 0 1 1-.991 1.517l-3.037-1.983a.906.906 0 1 1 .991-1.517z" fill="url(#g)" style="mix-blend-mode:multiply"/><path d="M230.634 192.875l-2.918 1.417.308-8.054 2.893 1.89 4.048 2.644 5.208 3.401-9.92 5.077.381-6.375zm-.921-3.366l-.069 1.831 1.113-.54.035-.586-1.079-.705zm2.827 1.847l-.287 4.832 4.31-2.205-4.023-2.627z" fill="url(#h)" style="mix-blend-mode:multiply"/><path d="M229.555 215.404l-34.929-22.812a.908.908 0 0 1-.264-1.255l13.887-21.261a.906.906 0 0 1 1.255-.263l34.928 22.812a.907.907 0 0 1 .263 1.254l-13.886 21.261a.906.906 0 0 1-1.254.264zm-1.259-2.988l-9.151-18.641c-.073-.149-.365-.34-.53-.347l-20.753-.889 30.434 19.877zm-19.026-40.588l-12.315 18.856 21.737.932c.412.018.841.173 1.213.416.372.242.687.573.868.943l9.589 19.533 12.318-18.86-33.41-21.82z" fill="url(#i)" style="mix-blend-mode:multiply"/><path d="M130.739 440.305c2.077 10.753-4.914 21.146-15.616 23.213a19.573 19.573 0 0 1-10.192-.733 19.566 19.566 0 0 1-9.184 4.476c-10.703 2.068-21.062-4.972-23.14-15.726a19.838 19.838 0 0 1 6.555-18.843c-.712-9.87 6.016-18.929 15.929-20.844 9.913-1.915 19.531 3.985 22.546 13.411a19.838 19.838 0 0 1 13.102 15.046zM81.58 430.92a19.608 19.608 0 0 1 6.644-2.598 19.57 19.57 0 0 1 10.191.734 19.57 19.57 0 0 1 9.185-4.477 19.615 19.615 0 0 1 7.133-.064 17.298 17.298 0 0 0-6.219-7.56 17.214 17.214 0 0 0-6.096-2.611 17.098 17.098 0 0 0-6.857-.063 17.091 17.091 0 0 0-6.341 2.613 17.212 17.212 0 0 0-4.684 4.694 17.296 17.296 0 0 0-2.956 9.332zm34.054-3.677a17.1 17.1 0 0 0-7.564-.231 17.068 17.068 0 0 0-7.09 3.148 19.825 19.825 0 0 1 10.253 13.279 17.3 17.3 0 0 0 1.935-2.391 17.322 17.322 0 0 0 2.639-13.006 20.57 20.57 0 0 0-.173-.799zm-6.559 18.08a17.316 17.316 0 0 0-7.428-11.894 17.289 17.289 0 0 0-2.675-1.492c-.708.73-1.35 1.525-1.927 2.381a17.328 17.328 0 0 0-2.463 13.805 17.084 17.084 0 0 0 7.562.231 17.071 17.071 0 0 0 6.931-3.031zm-6.461 5.464a19.61 19.61 0 0 1-7.132.064 17.324 17.324 0 0 0 6.218 7.56c.853.58 1.746 1.078 2.675 1.492a17.378 17.378 0 0 0 4.881-11.713 19.603 19.603 0 0 1-6.642 2.597zm-10.736-3.609a19.823 19.823 0 0 1 4.568-16.142 17.073 17.073 0 0 0-7.752-.281 17.098 17.098 0 0 0-6.933 3.032c.039.269.085.537.137.806a17.306 17.306 0 0 0 2.611 6.373 17.29 17.29 0 0 0 4.682 4.714 17.254 17.254 0 0 0 2.687 1.498zm10.488 14.503a19.821 19.821 0 0 1-9.788-11.574 19.84 19.84 0 0 1-12.975-14.436 17.25 17.25 0 0 0-1.934 2.391 17.265 17.265 0 0 0-2.588 6.118 17.31 17.31 0 0 0-.052 6.888 17.3 17.3 0 0 0 2.613 6.372 17.249 17.249 0 0 0 4.682 4.714 17.215 17.215 0 0 0 6.095 2.612c2.26.484 4.568.505 6.858.062a17.071 17.071 0 0 0 7.089-3.147zm25.9-14.021a17.3 17.3 0 0 0 .051-6.887 17.286 17.286 0 0 0-2.613-6.373 17.256 17.256 0 0 0-4.681-4.714 17.23 17.23 0 0 0-2.686-1.498 19.838 19.838 0 0 1-6.663 18.23 19.827 19.827 0 0 1-4.773 14.387 17.073 17.073 0 0 0 7.752.28 17.074 17.074 0 0 0 6.34-2.613 17.205 17.205 0 0 0 4.684-4.693 17.28 17.28 0 0 0 2.589-6.119z" fill="url(#j)" style="mix-blend-mode:multiply"/><path d="M189.993 442.697l9.743-9.901 4.176-4.243 9.744-9.902 35.339 31.993-26.446 26.874-32.556-34.821zm2.749.036l2.714 2.901 8.524-8.662-2.829-2.784-8.409 8.545zm9.801-9.96l5.658 5.567 1.392-1.414-5.658-5.567-1.392 1.414zm2.784-2.828l2.828 2.783 8.525-8.662-2.945-2.666-8.408 8.545zm40.802 20.78l-27.976-25.326-8.583 8.721 2.829 2.784a.992.992 0 1 1-1.392 1.414.99.99 0 1 1-1.391 1.414.993.993 0 0 1-1.393 1.416l-2.829-2.784-8.582 8.721 25.772 27.566 23.545-23.926z" fill="#fff"/><path d="M215.09 447.373l9.29 2.453-1.222-4.722 11.785 2.845-3.646 3.704-5.104 5.187-6.562 6.668-4.541-16.135zm15.978 1.682l-5.161-1.245.671 2.598 2.508.661 1.982-2.014zm-3.585 3.644l-9.542-2.52 2.674 9.499 6.868-6.979z" fill="#fff"/><g clip-path="url(#k)"><path d="M255.589 267.748l69.256-34.913 7.499 14.871-69.258 34.915-7.497-14.873zm68.027-31.187l-4.883 2.464 1.251 2.478a1.392 1.392 0 0 1-.615 1.865 1.392 1.392 0 0 1-1.866-.615l.001-.002-1.249-2.477-4.958 2.499 1.249 2.478a1.387 1.387 0 1 1-2.478 1.25l-1.249-2.479-4.958 2.499L305.11 249l.001.001a1.387 1.387 0 1 1-2.479 1.248h-.001l-1.249-2.477-4.958 2.499 1.25 2.478a1.39 1.39 0 0 1-2.479 1.25l-1.249-2.479-4.958 2.499 1.25 2.478a1.388 1.388 0 1 1-2.479 1.25l-1.249-2.479-4.957 2.499 1.249 2.48c.346.683.07 1.519-.614 1.863a1.386 1.386 0 0 1-1.864-.614l-.001-.001-1.249-2.477-4.958 2.499 1.25 2.478a1.389 1.389 0 0 1-2.479 1.251l.001-.002-1.25-2.478-4.958 2.499 1.248 2.477.002.001a1.389 1.389 0 0 1-2.479 1.251l-1.25-2.478-4.883 2.462 4.997 9.915 64.3-32.417-4.999-9.915z" fill="url(#l)" style="mix-blend-mode:multiply"/></g><path d="M366.73 386.689l-16.345 30.778a.756.756 0 0 1-1.024.313l-21.409-11.37a.757.757 0 0 1-.314-1.024l5.897-11.104-4.44-1.331-.142.268a.758.758 0 0 1-1.338-.711l5.686-10.706a.757.757 0 1 1 1.338.711l-.143.268 3.589 2.934 5.898-11.106a.756.756 0 0 1 1.024-.313l21.41 11.37a.757.757 0 0 1 .313 1.023zm-36.91 4.897l4.434 1.329 3.102-5.838-3.584-2.932-3.952 7.441zm35.216-4.937l-17.395-9.238-15.633 29.437 17.395 9.238 15.633-29.437zm-27.888 4.059l-7.817 14.719 1.339.71 7.816-14.718 7.817-14.719-1.338-.71-7.817 14.718z" fill="url(#m)" style="mix-blend-mode:multiply"/><path d="M338.172 390.395a.756.756 0 1 1-.71 1.337.757.757 0 1 1 .71-1.337z" fill="url(#n)" style="mix-blend-mode:multiply"/><path d="M337.089 406.972l9.238-17.394h-.001a.758.758 0 0 1 1.338.711l-9.237 17.394a.758.758 0 0 1-1.338-.711z" fill="url(#o)" style="mix-blend-mode:multiply"/><path d="M334.412 405.55l2.842-5.351a.758.758 0 0 1 1.338.711l-2.841 5.351a.759.759 0 1 1-1.339-.711z" fill="url(#p)" style="mix-blend-mode:multiply"/><path d="M222.818 122.522l-4.631 7.243-10.462-18.623 9.154.262 12.818.367 16.476.471-15.381 25.212-7.974-14.932zm-9.954-8.274l5.487 9.768 2.869-4.486-2.735-5.121-5.621-.161zm9.028.259l9.07 16.987 10.031-16.441-19.101-.546z" fill="#fff"/><path d="M244.863 157.989l-.087 3.021c-.024.834-.704 1.491-1.52 1.468-.819-.024-1.461-.719-1.437-1.553l.087-3.02-5.916-.17-.087 3.021c-.023.834-.704 1.491-1.52 1.468-.819-.024-1.46-.718-1.436-1.552l.086-3.021-5.915-.169-.086 3.02c-.024.834-.705 1.491-1.522 1.468-.817-.023-1.46-.718-1.436-1.552l.086-3.021-5.914-.169-.087 3.02c-.024.835-.705 1.491-1.521 1.468-.818-.023-1.461-.718-1.437-1.552l.087-3.021-5.915-.169-.087 3.021c-.023.834-.704 1.491-1.521 1.467-.818-.023-1.46-.718-1.437-1.552l.087-3.021-8.873-.254 1.902-66.452 56.193 1.608-1.902 66.452-8.872-.254zm7.732-63.323l-50.278-1.439-1.732 60.535 5.915.169.082-2.894c.024-.834.705-1.492 1.523-1.468.817.023 1.459.719 1.435 1.553l-.083 2.894 5.915.169.083-2.894c.024-.834.705-1.492 1.523-1.468.817.023 1.459.719 1.435 1.553l-.083 2.894 5.915.169.083-2.894c.024-.834.705-1.492 1.522-1.468.817.023 1.46.719 1.436 1.553l-.083 2.894 5.915.169.082-2.894c.024-.834.704-1.492 1.523-1.469.817.024 1.458.72 1.434 1.554l-.083 2.894 5.916.169.083-2.894c.024-.834.704-1.492 1.523-1.469.817.024 1.458.719 1.434 1.553l-.083 2.894 5.916.17 1.732-60.535z" fill="#fff"/><path d="M253.578 367.845l-40.695-23.884a1.026 1.026 0 0 1-.366-1.404l16.615-28.309a1.026 1.026 0 0 1 1.404-.365l14.682 8.617 2.057-5.929-.354-.208a1.025 1.025 0 1 1 1.038-1.769l14.155 8.307a1.025 1.025 0 1 1-1.038 1.77l-.354-.208-4.177 4.685 14.685 8.619c.489.287.652.914.365 1.403l-16.615 28.309a1.024 1.024 0 0 1-1.402.366zm-4.499-50.215l-2.054 5.921 7.721 4.534 4.172-4.681-9.839-5.774zm9.844 39.079l-5.308-3.115-5.192 8.847 5.308 3.115 5.192-8.847zm-4.269-4.884l5.307 3.115 7.269-12.385-5.308-3.115-7.268 12.385zm-8 9.577l13.499-23-31.847-18.691-13.499 23 31.847 18.691zm3.19-33.808l-19.461-11.422-1.039 1.769 19.462 11.422 19.463 11.423 1.038-1.77-19.463-11.422z" fill="url(#q)" style="mix-blend-mode:multiply"/><path d="M250.208 328.997a1.024 1.024 0 0 1-1.404.365 1.025 1.025 0 1 1 1.404-.365z" fill="url(#r)" style="mix-blend-mode:multiply"/><path d="M241.076 336.743l6.066 3.561-10.931 6.271.084-7.222-3.22 1.757-.088-9.114 3.371 1.978 4.718 2.769zm-2.772 6.266l4.75-2.725-4.686-2.751-.064 5.476zm-3.23-7.409l.02 2.071 1.228-.67.008-.664-1.256-.737z" fill="url(#s)" style="mix-blend-mode:multiply"/><path d="M223.959 343.327l-1.769-1.038 1.038-1.769 1.769 1.038-1.038 1.769z" fill="url(#t)" style="mix-blend-mode:multiply"/><path d="M233.689 349.038L231.92 348l1.038-1.77 1.769 1.038-1.038 1.77z" fill="url(#u)" style="mix-blend-mode:multiply"/><path d="M243.42 354.748l-1.771-1.039 1.039-1.769 1.77 1.039-1.038 1.769z" fill="url(#v)" style="mix-blend-mode:multiply"/><path d="M247.574 347.671l-1.77-1.039 1.038-1.769 1.771 1.039-1.039 1.769z" fill="url(#w)" style="mix-blend-mode:multiply"/><path d="M251.73 340.595l-1.771-1.039 1.039-1.77 1.77 1.039-1.038 1.77z" fill="url(#x)" style="mix-blend-mode:multiply"/><path d="M232.268 329.172l-1.768-1.038 1.038-1.77 1.769 1.038-1.039 1.77z" fill="url(#y)" style="mix-blend-mode:multiply"/><path d="M228.114 336.249l-1.769-1.038 1.038-1.769 1.769 1.038-1.038 1.769z" fill="url(#z)" style="mix-blend-mode:multiply"/><path d="M241.998 334.882l-1.769-1.038 1.039-1.769 1.769 1.038-1.039 1.769z" fill="url(#A)" style="mix-blend-mode:multiply"/><path d="M262.897 40.146l1.156 5.986-9.097 1.758 2.038 10.546-6.282 1.214-2.037-10.547-9.098 1.758-1.156-5.986 9.097-1.758-2.126-11.003 6.282-1.213 2.126 11.003 9.097-1.758z" fill="#fff"/><path d="M281.675 26.692c.445 2.304-2.04 23.164 21.122 11.518s32.926-1.58 42.241 19.655c9.315 21.235 24.377 20.499 35.812 17.855" stroke="url(#B)" stroke-width="8" stroke-linecap="round" stroke-linejoin="round" style="mix-blend-mode:multiply"/><defs><linearGradient id="a" x1="209.607" y1="416.944" x2="146.074" y2="410.84" gradientUnits="userSpaceOnUse"><stop stop-color="#FFC000"/><stop offset="1" stop-color="#FF8A00"/></linearGradient><linearGradient id="b" x1="302.156" y1="123.633" x2="314.272" y2="175.923" gradientUnits="userSpaceOnUse"><stop stop-color="#FFC000"/><stop offset="1" stop-color="#FF8A00"/></linearGradient><linearGradient id="c" x1="298.497" y1="143.999" x2="301.103" y2="161.15" gradientUnits="userSpaceOnUse"><stop stop-color="#FFC000"/><stop offset="1" stop-color="#FF8A00"/></linearGradient><linearGradient id="e" x1="286.445" y1="427.758" x2="237.251" y2="423.514" gradientUnits="userSpaceOnUse"><stop stop-color="#FFC000"/><stop offset="1" stop-color="#FF8A00"/></linearGradient><linearGradient id="f" x1="219.323" y1="182.671" x2="220.179" y2="175.966" gradientUnits="userSpaceOnUse"><stop stop-color="#FFC000"/><stop offset="1" stop-color="#FF8A00"/></linearGradient><linearGradient id="g" x1="211.344" y1="181.793" x2="210.029" y2="176.998" gradientUnits="userSpaceOnUse"><stop stop-color="#FFC000"/><stop offset="1" stop-color="#FF8A00"/></linearGradient><linearGradient id="h" x1="234.853" y1="201.974" x2="226.032" y2="188.393" gradientUnits="userSpaceOnUse"><stop stop-color="#FFC000"/><stop offset="1" stop-color="#FF8A00"/></linearGradient><linearGradient id="i" x1="230.199" y1="215.039" x2="205.023" y2="174.121" gradientUnits="userSpaceOnUse"><stop stop-color="#FFC000"/><stop offset="1" stop-color="#FF8A00"/></linearGradient><linearGradient id="j" x1="133.494" y1="458.626" x2="65.173" y2="450.466" gradientUnits="userSpaceOnUse"><stop stop-color="#FFC000"/><stop offset="1" stop-color="#FF8A00"/></linearGradient><linearGradient id="l" x1="253.703" y1="278.616" x2="298.057" y2="214.485" gradientUnits="userSpaceOnUse"><stop stop-color="#FFC000"/><stop offset="1" stop-color="#FF8A00"/></linearGradient><linearGradient id="m" x1="366.184" y1="386.078" x2="335.639" y2="414.975" gradientUnits="userSpaceOnUse"><stop stop-color="#FFC000"/><stop offset="1" stop-color="#FF8A00"/></linearGradient><linearGradient id="n" x1="338.8" y1="390.75" x2="337.561" y2="392.017" gradientUnits="userSpaceOnUse"><stop stop-color="#FFC000"/><stop offset="1" stop-color="#FF8A00"/></linearGradient><linearGradient id="o" x1="347.859" y1="389.845" x2="341.952" y2="388.334" gradientUnits="userSpaceOnUse"><stop stop-color="#FFC000"/><stop offset="1" stop-color="#FF8A00"/></linearGradient><linearGradient id="p" x1="338.87" y1="400.309" x2="333.709" y2="400.869" gradientUnits="userSpaceOnUse"><stop stop-color="#FFC000"/><stop offset="1" stop-color="#FF8A00"/></linearGradient><linearGradient id="q" x1="254.437" y1="367.141" x2="217.102" y2="324.155" gradientUnits="userSpaceOnUse"><stop stop-color="#FFC000"/><stop offset="1" stop-color="#FF8A00"/></linearGradient><linearGradient id="r" x1="249.691" y1="329.826" x2="248.048" y2="328.075" gradientUnits="userSpaceOnUse"><stop stop-color="#FFC000"/><stop offset="1" stop-color="#FF8A00"/></linearGradient><linearGradient id="s" x1="241.554" y1="349.404" x2="230.854" y2="334.537" gradientUnits="userSpaceOnUse"><stop stop-color="#FFC000"/><stop offset="1" stop-color="#FF8A00"/></linearGradient><linearGradient id="t" x1="223.961" y1="343.271" x2="222.318" y2="341.52" gradientUnits="userSpaceOnUse"><stop stop-color="#FFC000"/><stop offset="1" stop-color="#FF8A00"/></linearGradient><linearGradient id="u" x1="233.691" y1="348.981" x2="232.048" y2="347.231" gradientUnits="userSpaceOnUse"><stop stop-color="#FFC000"/><stop offset="1" stop-color="#FF8A00"/></linearGradient><linearGradient id="v" x1="243.422" y1="354.692" x2="241.778" y2="352.94" gradientUnits="userSpaceOnUse"><stop stop-color="#FFC000"/><stop offset="1" stop-color="#FF8A00"/></linearGradient><linearGradient id="w" x1="247.576" y1="347.615" x2="245.933" y2="345.862" gradientUnits="userSpaceOnUse"><stop stop-color="#FFC000"/><stop offset="1" stop-color="#FF8A00"/></linearGradient><linearGradient id="x" x1="251.732" y1="340.538" x2="250.088" y2="338.786" gradientUnits="userSpaceOnUse"><stop stop-color="#FFC000"/><stop offset="1" stop-color="#FF8A00"/></linearGradient><linearGradient id="y" x1="232.27" y1="329.116" x2="230.628" y2="327.365" gradientUnits="userSpaceOnUse"><stop stop-color="#FFC000"/><stop offset="1" stop-color="#FF8A00"/></linearGradient><linearGradient id="z" x1="228.116" y1="336.193" x2="226.473" y2="334.442" gradientUnits="userSpaceOnUse"><stop stop-color="#FFC000"/><stop offset="1" stop-color="#FF8A00"/></linearGradient><linearGradient id="A" x1="242" y1="334.826" x2="240.358" y2="333.075" gradientUnits="userSpaceOnUse"><stop stop-color="#FFC000"/><stop offset="1" stop-color="#FF8A00"/></linearGradient><linearGradient id="B" x1="379.417" y1="74.393" x2="280.142" y2="56.161" gradientUnits="userSpaceOnUse"><stop stop-color="#FFC000"/><stop offset="1" stop-color="#FF8A00"/></linearGradient><clipPath id="d"><path fill="#fff" transform="scale(1 -1) rotate(10.934 2404.11 1066.135)" d="M0 0h42.067v43.626H0z"/></clipPath><clipPath id="k"><path fill="#fff" transform="scale(-1 1) rotate(71.754 -285.47 -80.729)" d="M0 0h66.62v66.62H0z"/></clipPath></defs></svg>