<svg width="86" height="87" viewBox="0 0 86 87" fill="none" xmlns="http://www.w3.org/2000/svg"><g clip-path="url(#a)"><circle cx="43" cy="43.654" r="43" fill="#FFB42D"/><path d="M16.5 65L65 16.5 104.5 51l-50 42-38-28z" fill="#FFA400"/></g><g clip-path="url(#b)"><path d="M62.161 46.342l-4.95 11.572-10.254-.263-11.719-.294-2.93-11.865c1.319-1.757 3.282-2.783 5.42-2.93a10.235 10.235 0 0 1 9.229-5.858c3.955 0 7.558 2.314 9.228 5.859a7.445 7.445 0 0 1 5.976 3.78z" fill="#B35C4B"/><path d="M62.162 46.342L57.21 57.914l-10.254-.263V36.704c3.955 0 7.559 2.314 9.228 5.859a7.444 7.444 0 0 1 5.977 3.78z" fill="#8B432D"/><path d="M65.414 50.18L56.92 62.484C55.278 64.682 52.64 66 48.423 66H21.86l-2.93-1.465V49.623l1.466-1.2h2.373c.937 0 2.04-.352 2.773-.968 1.905-1.699 4.307-2.52 6.709-2.52 3.37 0 5.361 1.231 7.53 3.136.263.205.673.351.966.351h9.14a2.938 2.938 0 0 1 2.93 2.93 2.938 2.938 0 0 1-2.93 2.93H38.17a1.45 1.45 0 0 0-1.465 1.464c0 .82.644 1.465 1.465 1.465h12.684c.557 0 1.611-.352 2.168-.938l7.91-9.843a2.92 2.92 0 0 1 3.867-.38 2.952 2.952 0 0 1 .615 4.13z" fill="#FEDBAB"/><path d="M21.86 66h-4.395A1.465 1.465 0 0 1 16 64.535V46.957c0-.809.656-1.465 1.465-1.465h1.465a2.93 2.93 0 0 1 2.93 2.93V66z" fill="#FD3C65"/><path d="M49.887 54.282h-2.93v-5.86h2.93a2.938 2.938 0 0 1 2.93 2.93 2.938 2.938 0 0 1-2.93 2.93z" fill="#FEC478"/><path d="M65.414 50.18l-8.496 12.304C55.278 64.682 52.64 66 48.422 66h-1.465v-8.789h3.896c.557 0 1.612-.352 2.169-.938l7.91-9.843a2.92 2.92 0 0 1 3.867-.38 2.952 2.952 0 0 1 .615 4.13z" fill="#FEC478"/><path d="M55.746 33.774h-5.86a1.464 1.464 0 0 1-1.464-1.465v-2.93c0-5.653 4.6-10.448 10.254-10.448a5.645 5.645 0 0 0 3.965-1.643l.858-.858A1.463 1.463 0 1 1 66 17.466v6.054c0 5.654-4.6 10.254-10.254 10.254z" fill="#7FBF00"/><path d="M44.027 33.774h-5.86c-5.653 0-10.253-4.6-10.253-10.254v-6.054a1.463 1.463 0 0 1 2.5-1.036l.859.858a5.646 5.646 0 0 0 3.965 1.643c5.654 0 10.254 4.795 10.254 10.449v2.93c0 .809-.655 1.464-1.465 1.464z" fill="#6ECD24"/><path d="M58.178 27.563l-7.207 6.152a7.39 7.39 0 0 0-2.549 5.567v4.746a1.45 1.45 0 0 1-1.465 1.465 1.45 1.45 0 0 1-1.465-1.465v-4.746c0-2.139-.937-4.16-2.548-5.567l-7.207-6.152c-.615-.527-.674-1.465-.147-2.08a1.48 1.48 0 0 1 2.08-.146l7.178 6.152a10.72 10.72 0 0 1 2.11 2.636 10.713 10.713 0 0 1 2.109-2.636l7.177-6.152c.616-.528 1.553-.47 2.08.146.528.615.47 1.553-.146 2.08z" fill="#66BD21"/><path d="M58.177 27.563l-7.207 6.152a7.39 7.39 0 0 0-2.548 5.567v4.746a1.45 1.45 0 0 1-1.465 1.465V34.126a10.713 10.713 0 0 1 2.11-2.637l7.177-6.152c.615-.528 1.553-.469 2.08.146.527.615.468 1.553-.147 2.08z" fill="#5DAD1D"/><path d="M50.18 47.397a1.49 1.49 0 0 1-.498.088 1.469 1.469 0 0 1-1.377-.996c-.117-.381-.557-.996-1.348-.996-.79 0-1.23.615-1.348.996a1.471 1.471 0 0 1-1.874.908 1.483 1.483 0 0 1-.909-1.875c.528-1.465 1.993-2.959 4.131-2.959 2.139 0 3.603 1.494 4.13 2.959a1.482 1.482 0 0 1-.907 1.875z" fill="#66BD21"/><path d="M50.18 47.397a1.49 1.49 0 0 1-.498.088 1.469 1.469 0 0 1-1.377-.996c-.117-.381-.557-.996-1.348-.996v-2.93c2.139 0 3.603 1.494 4.13 2.959a1.483 1.483 0 0 1-.907 1.875z" fill="#5DAD1D"/></g><defs><clipPath id="a"><rect y=".654" width="86" height="86" rx="43" fill="#fff"/></clipPath><clipPath id="b"><path fill="#fff" transform="translate(16 16)" d="M0 0h50v50H0z"/></clipPath></defs></svg>