<svg width="23" height="20" viewBox="0 0 23 20" fill="none" xmlns="http://www.w3.org/2000/svg"><path d="M23 18.4c0 .52-.19.917-.568 1.19-.38.273-.844.41-1.395.41H1.963c-.55 0-1.016-.14-1.395-.42C.19 19.3 0 18.907 0 18.4c0-.4.124-.807.372-1.22L9.898 1.1C10.353.367 10.89 0 11.51 0c.62 0 1.144.367 1.57 1.1l9.548 16.1c.248.427.372.827.372 1.2zM12.936 8.18V5.26h-2.872v2.92c0 .187.014.363.041.53.028.167.066.353.114.56.048.207.086.383.113.53l.538 3.24h1.219l.558-3.24c.027-.133.069-.307.124-.52.055-.213.096-.403.124-.57.027-.167.041-.343.041-.53zm0 7.74c0-.387-.141-.713-.423-.98a1.436 1.436 0 0 0-1.023-.4c-.386 0-.72.133-1.003.4a1.296 1.296 0 0 0-.423.98c0 .387.141.717.423.99.283.273.617.41 1.003.41.4 0 .74-.137 1.023-.41.282-.273.423-.603.423-.99z" fill="#FF5E1A"/></svg>